<svg width="16" height="16" viewBox="0 0 16 16"
    xmlns="http://www.w3.org/2000/svg">
    <path d="M14.136 7.13486H8.86938V1.86651C8.86938 1.3879 8.4814 1 8.0027 1C7.524 1 7.13603 1.3879 7.13603 1.86651V7.13212H1.86668C1.38798 7.13486 1 7.52321 1 8.00137C1 8.47952 1.38798 8.86788 1.86668 8.86788H7.13329V14.1335C7.13329 14.6121 7.52127 15 7.99997 15C8.47867 15 8.86664 14.6121 8.86664 14.1335V8.86788H14.1333C14.612 8.86788 14.9999 8.47998 14.9999 8.00137C15.0059 7.52276 14.6179 7.13486 14.1364 7.13486H14.136Z" />
</svg>
