<svg width="16" height="16" viewBox="0 0 16 16"
    xmlns="http://www.w3.org/2000/svg">
    <path fill-rule="evenodd" clip-rule="evenodd" d="M2.78165 1.30568L8 6.52403L13.2183 1.30568C13.6259 0.898105 14.2867 0.898105 14.6943 1.30568C15.1019 1.71326 15.1019 2.37408 14.6943 2.78165L9.47597 8L14.6943 13.2183C15.1019 13.6259 15.1019 14.2867 14.6943 14.6943C14.2867 15.1019 13.6259 15.1019 13.2183 14.6943L8 9.47597L2.78165 14.6943C2.37408 15.1019 1.71326 15.1019 1.30568 14.6943C0.898105 14.2867 0.898105 13.6259 1.30568 13.2183L6.52403 8L1.30568 2.78165C0.898106 2.37408 0.898106 1.71326 1.30568 1.30568C1.71326 0.898106 2.37408 0.898106 2.78165 1.30568Z" />
</svg>
