<svg width="16" height="16" viewBox="0 0 16 16"
    xmlns="http://www.w3.org/2000/svg">
    <path d="M15.5363 7.82456C15.2814 7.82456 15.0773 8.01735 15.0773 8.25801V12.1938C15.0773 13.2662 14.1545 14.1331 13.0234 14.1331H2.97192C1.83617 14.1331 0.918086 13.2618 0.918086 12.1938V8.19213C0.918086 7.95147 0.713912 7.75868 0.459043 7.75868C0.204174 7.75868 0 7.95147 0 8.19213V12.1938C0 13.7436 1.33527 15 2.97192 15H13.0281C14.6694 15 16 13.7392 16 12.1938V8.25801C15.9953 8.02174 15.7912 7.82456 15.5363 7.82456Z"/>
    <path d="M7.67309 11.5636C7.76099 11.6466 7.88192 11.6905 7.99772 11.6905C8.11353 11.6905 8.23399 11.6466 8.32236 11.5636L11.2338 8.81442C11.4147 8.64359 11.4147 8.37219 11.2338 8.20135C11.0529 8.03052 10.7655 8.03052 10.5845 8.20135L8.4563 10.2153V1.43345C8.4563 1.19279 8.25213 1 7.99726 1C7.74239 1 7.53822 1.19279 7.53822 1.43345V10.2114L5.40532 8.1974C5.2244 8.02657 4.93697 8.02657 4.75605 8.1974C4.57513 8.36824 4.57513 8.63964 4.75605 8.81047L7.67216 11.564L7.67309 11.5636Z" />
</svg>
