<svg width="16" height="16" viewBox="0 0 16 16" fill="none" xmlns="http://www.w3.org/2000/svg">
<g clip-path="url(#clip0_2924_1936)">
<path d="M7.26198 2.47556H2.39155C2.02249 2.47556 1.66854 2.62217 1.40758 2.88314C1.14661 3.14411 1 3.49805 1 3.86711V13.608C1 13.977 1.14661 14.331 1.40758 14.5919C1.66854 14.8529 2.02249 14.9995 2.39155 14.9995H12.1324C12.5015 14.9995 12.8554 14.8529 13.1164 14.5919C13.3773 14.331 13.524 13.977 13.524 13.608V8.73754" stroke="black" stroke-linecap="round" stroke-linejoin="round"/>
<path d="M12.4804 1.4323C12.7572 1.1555 13.1327 1 13.5241 1C13.9156 1 14.291 1.1555 14.5678 1.4323C14.8446 1.7091 15.0001 2.08451 15.0001 2.47596C15.0001 2.86741 14.8446 3.24283 14.5678 3.51963L7.95791 10.1295L5.1748 10.8253L5.87058 8.04216L12.4804 1.4323Z" stroke="black" stroke-linecap="round" stroke-linejoin="round"/>
</g>
<defs>
<clipPath id="clip0_2924_1936">
<rect width="16" height="16" fill="white" transform="translate(16 16) rotate(-180)"/>
</clipPath>
</defs>
</svg>
