<svg width="16" height="16" viewBox="0 0 16 16"
    xmlns="http://www.w3.org/2000/svg">
    <path d="M5.73126 6.43198C6.04798 6.13193 6.2517 5.73197 6.30816 5.29937L6.60245 3.04802L8.59602 4.13316C8.97933 4.34203 9.4229 4.41243 9.85204 4.33252L12.0837 3.91628L11.6674 6.14791C11.5875 6.57705 11.6579 7.02063 11.8668 7.40393L12.9519 9.3975L10.7006 9.69179C10.2682 9.74842 9.86856 9.95212 9.5687 10.2687L8.00744 11.9169L7.03183 9.86705C6.84457 9.47313 6.52739 9.1557 6.13363 8.96812L4.0831 7.99251L5.73126 6.43198ZM5.71301 10.4943L7.32904 13.89C7.35961 13.9542 7.40535 14.01 7.46231 14.0526C7.51927 14.0951 7.58574 14.1232 7.65598 14.1343C7.72621 14.1455 7.7981 14.1394 7.86544 14.1165C7.93278 14.0937 7.99355 14.0548 8.04249 14.0032L10.629 11.2728C10.6981 11.1999 10.7902 11.153 10.8897 11.1399L14.6191 10.6521C14.6895 10.6428 14.7567 10.6165 14.8147 10.5755C14.8728 10.5345 14.92 10.4799 14.9522 10.4166C14.9845 10.3533 15.0009 10.2831 15 10.212C14.999 10.141 14.9809 10.0712 14.947 10.0087L13.1491 6.70509C13.1013 6.61674 13.0853 6.51464 13.1038 6.41591L13.7924 2.71868C13.8055 2.6487 13.8014 2.57658 13.7803 2.50858C13.7592 2.44057 13.7219 2.37872 13.6716 2.32838C13.6212 2.27804 13.5594 2.24072 13.4914 2.21966C13.4234 2.1986 13.3513 2.19443 13.2813 2.2075L9.58404 2.89613C9.48531 2.91463 9.38321 2.89865 9.29486 2.85085L5.99123 1.05299C5.92871 1.01908 5.85888 1.00091 5.78777 1.00003C5.71665 0.999157 5.6464 1.0156 5.58306 1.04795C5.51973 1.0803 5.46522 1.12759 5.42424 1.18571C5.38327 1.24384 5.35706 1.31107 5.34788 1.3816L4.86008 5.11023C4.84696 5.20979 4.80004 5.30183 4.72717 5.37093L1.99679 7.95746C1.9452 8.0064 1.90629 8.06717 1.88344 8.13451C1.86058 8.20185 1.85446 8.27374 1.86561 8.34398C1.87675 8.41421 1.90482 8.48068 1.9474 8.53764C1.98997 8.5946 2.04577 8.64034 2.10997 8.67091L5.50562 10.2869C5.59652 10.3302 5.66975 10.4034 5.71301 10.4943ZM5.131 11.9015L4.09843 10.869L1 13.9667L2.0333 14.9999L5.131 11.9015Z" />
</svg>
