<svg width="16" height="16" viewBox="0 0 16 16"
    xmlns="http://www.w3.org/2000/svg">
    <path d="M7.9999 9.3125C7.5654 9.3125 7.2124 9.6655 7.2124 10.1V11.672C7.2124 12.1065 7.5654 12.4595 7.9999 12.4595C8.4344 12.4595 8.7874 12.1065 8.7874 11.672V10.1C8.7874 9.6625 8.4344 9.3125 7.9999 9.3125Z" />
    <path d="M13.244 6.1655H12.9815V5.378C12.9815 2.631 10.747 0.3965 8.00001 0.3965C5.25301 0.3965 3.01851 2.631 3.01851 5.378V6.1655H2.75601C2.32151 6.1655 1.96851 6.5185 1.96851 6.953V14.8185C1.96851 15.253 2.32151 15.606 2.75601 15.606H13.2465C13.681 15.606 14.034 15.253 14.034 14.8185V6.9495C14.031 6.515 13.678 6.165 13.2435 6.165L13.244 6.1655ZM4.59051 5.378C4.59051 3.4965 6.11851 1.9685 8.00001 1.9685C9.88151 1.9685 11.4095 3.4965 11.4095 5.378V6.1655H4.59101V5.378H4.59051ZM12.4595 14.0315H3.54101V7.7375H12.4565V14.0315H12.4595Z" />
</svg>
