<svg width="16" height="16" viewBox="0 0 16 16" fill="none"
    xmlns="http://www.w3.org/2000/svg">
    <g clip-path="url(#clip0_2924_1934)">
        <path d="M16.0814 8.14368C15.9564 7.95917 12.9282 3.66539 8.1404 3.66539C4.03363 3.66839 0.37139 7.93767 0.21788 8.11868C0.114873 8.24369 0.114873 8.4247 0.21788 8.54971C0.37089 8.73122 4.03063 13 8.1404 13C12.2502 13 15.9099 8.73072 16.0629 8.54971C16.1599 8.4342 16.1659 8.26819 16.0819 8.14318L16.0814 8.14368ZM8.1404 12.335C4.84618 12.335 1.71498 9.19425 0.920926 8.33469C1.71448 7.47514 4.84318 4.33443 8.1404 4.33443C11.9937 4.33443 14.7128 7.46914 15.3784 8.31569C14.6093 9.15025 11.4626 12.335 8.1404 12.335Z" fill="#333333"/>
        <path d="M8.40689 5.53231C6.93479 5.53231 5.74121 6.72939 5.74121 8.19798C5.74121 9.66658 6.93829 10.8637 8.40689 10.8637C9.87548 10.8637 11.0726 9.66658 11.0726 8.19798C11.0726 6.72939 9.87898 5.53231 8.40689 5.53231ZM8.40689 10.1986C7.30381 10.1986 6.40675 9.30155 6.40675 8.19848C6.40675 7.09541 7.30381 6.19835 8.40689 6.19835C9.50996 6.19835 10.407 7.09541 10.407 8.19848C10.407 9.30155 9.50996 10.1986 8.40689 10.1986Z" fill="#333333"/>
    </g>
    <defs>
        <clipPath id="clip0_2924_1934">
            <rect width="16" height="16" fill="white" transform="translate(16 16) rotate(-180)"/>
        </clipPath>
    </defs>
</svg>
