<svg width="776" height="402" viewBox="0 0 776 402" fill="none" xmlns="http://www.w3.org/2000/svg">
<g opacity="0.8">
<mask id="mask0_2426_4333" style="mask-type:alpha" maskUnits="userSpaceOnUse" x="0" y="0" width="776" height="402">
<rect width="776" height="402" fill="#D9D9D9"/>
</mask>
<g mask="url(#mask0_2426_4333)">
<path d="M539.303 127.036C573.416 141.982 613.148 155.423 651.373 163.245C628.9 169.267 604.922 169.67 582.449 175.692C542.718 162.251 508.605 147.305 474.492 132.359C492.852 133.461 516.83 133.058 539.303 127.036Z" fill="white"/>
<path d="M444.097 86.3034C472.592 102.755 506.705 117.701 540.818 132.647C516.839 133.05 494.366 139.072 476.006 137.97C441.893 123.024 413.399 106.572 384.904 90.121C401.759 85.6047 420.119 86.7068 444.097 86.3034Z" fill="#FFFEFF"/>
<path d="M362.726 29.8246C385.603 47.7815 414.097 64.2329 442.592 80.6843C424.232 79.5823 400.253 79.9856 381.893 78.8836C353.398 62.4322 330.522 44.4754 306.14 20.9003C326.006 27.6206 344.366 28.7226 362.726 29.8246Z" fill="#FFFEFF"/>
<path d="M299.709 -25.5311C316.967 -6.06888 339.843 11.8879 362.72 29.8448C344.359 28.7427 325.999 27.6407 307.639 26.5387C284.763 8.58182 265.999 -16.4987 248.741 -35.9609C262.988 -27.7352 281.348 -26.6332 299.709 -25.5311Z" fill="#FFFEFF"/>
<path d="M468.893 133.872C503.006 148.818 537.119 163.764 576.85 177.204C552.872 177.608 530.398 183.629 506.42 184.033C466.689 170.592 438.194 154.141 402.576 133.576C428.06 138.791 452.038 138.388 468.893 133.872Z" fill="#FFFDFF"/>
<path d="M377.775 86.0094C406.269 102.461 434.764 118.912 468.877 133.858C444.899 134.262 426.538 133.16 402.56 133.563C374.065 117.112 344.065 95.0419 315.57 78.5905C341.054 83.8053 359.414 84.9074 377.775 86.0094Z" fill="#FFF8FF"/>
<path d="M302.031 28.0399C324.908 45.9967 349.29 69.5718 377.784 86.0233C359.424 84.9212 335.446 85.3246 317.085 84.2226C294.209 66.2657 269.827 42.6906 246.951 24.7338C265.311 25.8358 283.671 26.9379 302.031 28.0399Z" fill="#FFF2FF"/>
<path d="M243.129 -34.4513C260.388 -14.9891 279.151 10.0914 302.028 28.0483C283.667 26.9462 265.307 25.8442 245.442 19.1239C222.565 1.16706 203.802 -23.9135 192.162 -44.8811C206.409 -36.6554 224.769 -35.5534 243.129 -34.4513Z" fill="#FFEAFF"/>
<path d="M404.074 139.19C432.569 155.642 466.682 170.588 507.918 189.646C483.94 190.05 459.961 190.453 437.488 196.475C403.375 181.529 367.757 160.965 339.262 144.513C361.735 138.492 385.714 138.088 404.074 139.19Z" fill="#FFFAFF"/>
<path d="M317.079 84.2185C339.955 102.175 369.955 124.245 404.068 139.191C380.09 139.594 361.73 138.492 337.751 138.896C309.256 122.444 279.256 100.375 254.875 76.7996C280.358 82.0145 298.719 83.1165 317.079 84.2185Z" fill="#FFE9FF"/>
<path d="M246.956 24.7338C269.833 42.6906 294.214 66.2657 317.091 84.2226C298.731 83.1205 274.752 83.5239 254.887 76.8036C230.505 53.2285 207.628 35.2717 188.865 10.1912C208.73 16.9115 227.091 18.0135 246.956 24.7338Z" fill="#FFD5FF"/>
<path d="M192.167 -44.9062C209.425 -25.4439 228.189 -0.363425 245.447 19.0988C227.087 17.9968 207.221 11.2765 188.861 10.1744C171.603 -9.28782 154.345 -28.75 141.199 -55.3359C155.447 -47.1102 173.807 -46.0082 192.167 -44.9062Z" fill="#FFC8FF"/>
<path d="M337.751 138.896C366.246 155.348 401.864 175.912 435.977 190.858C411.999 191.261 388.02 191.665 364.042 192.068C328.424 171.504 299.929 155.052 269.929 132.983C295.413 138.198 319.391 137.794 337.751 138.896Z" fill="#FFF5FF"/>
<path d="M254.878 76.8111C279.259 100.386 307.754 116.838 337.754 138.907C313.776 139.311 295.416 138.209 271.437 138.612C241.437 116.542 218.561 98.5855 194.179 75.0104C218.157 74.607 236.517 75.709 254.878 76.8111Z" fill="#FFE4FF"/>
<path d="M190.355 15.8178C209.119 40.8983 231.995 58.8552 256.377 82.4302C238.017 81.3282 218.151 74.6079 194.173 75.0113C175.409 49.9308 151.027 26.3557 137.882 -0.230225C152.129 7.99549 170.489 9.09753 190.355 15.8178Z" fill="#FFD4FF"/>
<path d="M141.178 -55.326C154.324 -28.74 171.582 -9.27781 190.345 15.8027C171.985 14.7007 152.12 7.98037 133.759 6.87834C114.996 -18.2022 103.356 -39.1699 84.5923 -64.2504C102.952 -63.1483 121.313 -62.0463 141.178 -55.326Z" fill="#FFC9FF"/>
<path d="M275.551 131.489C305.551 153.558 334.045 170.01 369.664 190.574C345.685 190.978 321.707 191.381 297.728 191.784C267.728 169.715 239.234 153.263 209.233 131.193C233.212 130.79 251.572 131.892 275.551 131.489Z" fill="#FFF6FF"/>
<path d="M198.301 67.8776C222.683 91.4527 245.559 109.41 275.559 131.479C251.581 131.883 231.715 125.162 213.355 124.06C188.973 100.485 164.591 76.9101 140.209 53.335C154.457 61.5607 179.941 66.7756 198.301 67.8776Z" fill="#FFEAFF"/>
<path d="M137.894 -0.231859C156.657 24.8487 173.915 44.3109 198.297 67.886C179.937 66.7839 160.071 60.0637 141.711 58.9616C117.329 35.3865 98.5657 10.306 85.4204 -16.2799C99.6678 -8.05419 119.533 -1.3339 137.894 -0.231859Z" fill="#FFE8FF"/>
<path d="M88.7265 -71.3845C101.872 -44.7986 119.13 -25.3364 137.894 -0.255882C118.028 -6.97618 99.6677 -8.07821 85.4204 -16.3039C66.6568 -41.3844 53.5115 -67.9703 41.8716 -88.938C56.1189 -80.7123 68.8609 -78.1048 88.7265 -71.3845Z" fill="#FFD9FF"/>
<path d="M207.727 125.575C232.109 149.15 262.109 171.22 296.222 186.166C272.244 186.569 246.76 181.354 228.4 180.252C199.905 163.801 169.905 141.731 145.523 118.156C165.389 124.876 189.367 124.473 207.727 125.575Z" fill="#FFF9FF"/>
<path d="M136.092 60.4425C160.474 84.0176 179.238 109.098 209.238 131.168C190.878 130.066 165.394 124.851 147.034 123.749C122.652 100.174 98.2699 76.5987 79.5063 51.5182C97.8666 52.6202 116.227 53.7222 136.092 60.4425Z" fill="#FFF1FF"/>
<path d="M79.8077 -14.7762C98.5712 10.3043 117.335 35.3849 136.098 60.4654C116.233 53.7451 97.8726 52.643 78.007 45.9227C59.2434 20.8422 40.4798 -4.2383 27.3345 -30.8242C47.2001 -24.1039 61.4475 -15.8782 79.8077 -14.7762Z" fill="#FFEBFF"/>
<path d="M36.2417 -87.4064C49.387 -60.8205 62.5323 -34.2346 79.7905 -14.7723C61.4303 -15.8744 47.1829 -24.1001 27.3173 -30.8204C14.172 -57.4063 1.02666 -83.9922 -12.1187 -110.578C7.74697 -103.858 21.9943 -95.6321 36.2417 -87.4064Z" fill="#FFE6FF"/>
<path d="M145.523 118.156C169.905 141.731 199.905 163.801 229.905 185.87C204.421 180.655 186.061 179.553 160.577 174.338C130.577 152.269 106.195 128.694 81.8135 105.119C107.297 110.333 125.658 111.435 145.523 118.156Z" fill="#FFFBFF"/>
<path d="M77.9845 45.9274C96.7481 71.0079 121.13 94.583 145.512 118.158C125.646 111.438 101.668 111.841 81.8021 105.121C57.4202 81.5458 38.6566 56.4653 19.8931 31.3848C38.2533 32.4868 58.1189 39.2071 77.9845 45.9274Z" fill="#FFF6FF"/>
<path d="M27.3179 -30.8201C40.4632 -4.23419 59.2268 20.8463 77.9904 45.9268C58.1247 39.2065 38.2592 32.4862 19.8989 31.3842C1.13536 6.30367 -12.01 -20.2822 -25.1553 -46.8682C-6.79506 -45.7661 7.45227 -37.5404 27.3179 -30.8201Z" fill="#FFF2FF"/>
<path d="M81.819 105.117C106.201 128.692 130.583 152.267 160.583 174.337C135.099 169.122 116.739 168.02 96.8731 161.3C66.873 139.23 42.4911 115.655 23.7275 90.5742C43.5932 97.2945 61.9534 98.3966 81.819 105.117Z" fill="#FFFCFF"/>
<path d="M25.5265 29.8706C44.29 54.9511 63.0536 80.0316 87.4355 103.607C67.5698 96.8864 49.2096 95.7843 29.344 89.064C10.5804 63.9835 -9.68857 33.2847 -28.4521 8.20422C-14.2048 16.4299 5.66084 23.1503 25.5265 29.8706Z" fill="#FFF7FF"/>
<path d="M-26.6484 -52.5071C-13.5031 -25.9212 -0.357784 0.664693 18.4058 25.7452C-1.45982 19.0249 -21.3254 12.3046 -35.5728 4.07892C-48.7181 -22.507 -68.9871 -53.2058 -76.5142 -81.2971C-55.1431 -68.9586 -40.8958 -60.7329 -26.6484 -52.5071Z" fill="#FFDFFF"/>
<path d="M23.7109 90.5783C42.4745 115.659 66.8564 139.234 98.3619 166.922C78.4963 160.202 54.5178 160.605 34.6522 153.885C10.2704 130.31 -9.99863 99.6108 -28.7622 74.5303C-16.0203 77.1377 3.84533 83.858 23.7109 90.5783Z" fill="#FFFCFF"/>
<path d="M-34.0663 9.70193C-20.921 36.2878 -0.652042 66.9866 23.7298 90.5617C3.86419 83.8414 -16.0014 77.1211 -35.8671 70.4008C-54.6306 45.3203 -74.8996 14.6216 -88.0449 -11.9644C-68.1793 -5.24405 -48.3137 1.47622 -34.0663 9.70193Z" fill="#FFEAFF"/>
<path d="M-35.8904 70.4012C-17.1268 95.4817 3.14217 126.181 27.524 149.756C7.65839 143.035 -17.8255 137.82 -37.6911 131.1C-63.5784 101.907 -82.342 76.8263 -96.9927 44.6221C-75.6216 56.9606 -55.756 63.6809 -35.8904 70.4012Z" fill="#FFFDFF"/>
<path d="M576.825 177.199C537.094 163.758 502.981 148.812 468.868 133.866C492.846 133.463 515.319 127.441 539.298 127.038C573.411 141.984 613.142 155.425 652.873 168.865C630.4 174.887 600.803 176.796 576.825 177.199ZM475.991 137.979C510.104 152.925 544.217 167.871 583.949 181.312C607.927 180.908 630.4 174.887 652.873 168.865C613.142 155.425 574.916 147.602 546.421 131.151C516.825 133.06 492.846 133.463 475.991 137.979Z" fill="white"/>
<path d="M468.881 133.875C434.768 118.929 406.274 102.477 376.273 80.4076C400.252 80.0042 418.612 81.1063 442.591 80.7029C471.085 97.1543 505.198 112.1 539.311 127.046C516.838 133.068 492.86 133.471 468.881 133.875ZM383.397 84.5205C411.892 100.972 440.387 117.423 474.499 132.369C498.478 131.966 515.333 127.45 539.311 127.046C505.198 112.1 476.704 95.6489 448.209 79.1975C420.118 86.7245 401.757 85.6225 383.397 84.5205Z" fill="white"/>
<path d="M377.775 86.0145C349.281 69.5631 324.899 45.988 302.022 28.0311C320.383 29.1332 338.743 30.2352 362.721 29.8318C385.598 47.7887 414.093 64.2401 444.093 86.3098C425.732 85.2078 401.754 85.6111 377.775 86.0145ZM307.641 26.5257C330.517 44.4825 353.394 62.4394 381.888 78.8908C400.249 79.9928 424.227 79.5895 442.587 80.6915C414.093 64.2401 385.598 47.7887 362.721 29.8318C345.867 34.3481 326.001 27.6277 307.641 26.5257Z" fill="white"/>
<path d="M302.036 28.0379C279.16 10.0811 260.396 -14.9995 237.52 -32.9563C255.88 -31.8543 275.746 -25.1339 294.106 -24.0319C311.364 -4.56966 334.241 13.3872 358.623 36.9623C345.881 34.3549 326.015 27.6345 302.036 28.0379ZM244.644 -28.8434C261.902 -9.38118 279.16 10.0811 303.542 33.6562C321.902 34.7582 340.262 35.8603 358.623 36.9623C335.746 19.0055 312.87 1.04858 295.611 -18.4137C281.364 -26.6394 263.004 -27.7414 244.644 -28.8434Z" fill="white"/>
<path d="M507.927 189.657C468.196 176.216 432.577 155.652 404.083 139.201C428.061 138.797 452.039 138.394 470.4 139.496C504.513 154.442 538.626 169.388 578.357 182.829C554.378 183.232 530.4 183.635 507.927 189.657ZM409.701 137.695C438.196 154.147 472.308 169.093 512.04 182.533C536.018 182.13 558.491 176.108 582.47 175.705C542.738 162.264 508.625 147.318 474.513 132.372C452.039 138.394 428.061 138.797 409.701 137.695Z" fill="white"/>
<path d="M404.067 139.187C369.954 124.241 339.954 102.171 317.078 84.214C335.438 85.316 359.416 84.9127 377.777 86.0147C406.271 102.466 436.271 124.536 470.384 139.482C452.024 138.38 428.046 138.783 404.067 139.187ZM322.696 82.7086C345.572 100.665 374.067 117.117 409.685 137.681C433.664 137.278 452.024 138.38 474.497 132.358C440.384 117.412 411.89 100.961 383.395 84.5093C359.416 84.9127 341.056 83.8106 322.696 82.7086Z" fill="white"/>
<path d="M317.084 84.216C288.59 67.7646 264.208 44.1895 245.444 19.109C263.805 20.211 283.67 26.9313 307.649 26.528C330.525 44.4848 354.907 68.0599 383.402 84.5113C359.423 84.9147 341.063 83.8126 317.084 84.216ZM246.95 24.7272C269.826 42.6841 288.59 67.7646 317.084 84.216C335.445 85.3181 353.805 86.4201 377.783 86.0167C349.289 69.5653 326.412 51.6085 303.536 33.6517C283.67 26.9314 265.31 25.8293 246.95 24.7272Z" fill="white"/>
<path d="M246.941 24.7416C222.559 1.1665 205.301 -18.2957 186.538 -43.3762C204.898 -42.2742 224.763 -35.5539 243.124 -34.4519C260.382 -14.9896 284.764 8.58547 307.64 26.5423C283.662 26.9457 265.301 25.8436 246.941 24.7416ZM193.661 -39.2633C210.919 -19.8011 229.683 5.27935 246.941 24.7416C265.301 25.8436 283.662 26.9457 302.022 28.0477C279.145 10.0909 261.887 -9.37137 243.124 -34.4519C224.763 -35.5539 212.022 -38.1613 193.661 -39.2633Z" fill="white"/>
<path d="M435.98 190.847C401.867 175.901 366.249 155.336 336.249 133.267C360.227 132.863 378.587 133.965 402.566 133.562C436.679 148.508 472.297 169.072 506.41 184.018C483.937 190.04 459.958 190.443 435.98 190.847ZM343.372 137.38C371.867 153.831 407.485 174.395 441.598 189.341C465.577 188.938 489.555 188.535 512.028 182.513C477.915 167.567 443.802 152.621 409.689 137.675C385.711 138.078 361.732 138.482 343.372 137.38Z" fill="white"/>
<path d="M337.752 138.898C307.752 116.828 279.257 100.377 254.875 76.8016C273.235 77.9037 298.719 83.1185 317.079 84.2206C345.574 100.672 375.574 122.742 404.069 139.193C385.709 138.091 361.73 138.494 337.752 138.898ZM261.999 80.9145C284.875 98.8713 314.875 120.941 343.37 137.392C361.73 138.494 385.709 138.091 409.687 137.688C381.192 121.236 352.698 104.785 322.698 82.7152C298.719 83.1185 280.359 82.0165 261.999 80.9145Z" fill="white"/>
<path d="M254.887 76.802C230.505 53.2269 207.629 35.2701 188.865 10.1896C207.225 11.2916 227.091 18.0119 245.451 19.114C269.833 42.6891 292.71 60.6459 317.091 84.221C298.731 83.119 280.371 82.0169 254.887 76.802ZM190.371 15.8079C207.629 35.2701 232.011 58.8452 254.887 76.802C273.247 77.9041 291.608 79.0061 315.586 78.6028C292.71 60.6459 268.328 37.0708 245.451 19.114C228.597 23.6302 208.731 16.9099 190.371 15.8079Z" fill="white"/>
<path d="M190.361 15.7923C171.597 -9.2882 152.833 -34.3687 135.575 -53.8309C155.441 -47.1106 173.801 -46.0086 188.048 -37.7829C206.812 -12.7024 224.07 6.75984 248.452 30.3349C228.586 23.6146 208.721 16.8943 190.361 15.7923ZM141.193 -55.3363C154.339 -28.7504 171.597 -9.2882 190.361 15.7923C208.721 16.8943 228.586 23.6146 246.947 24.7167C224.07 6.75982 205.307 -18.3206 193.667 -39.2883C173.801 -46.0086 155.441 -47.1106 141.193 -55.3363Z" fill="white"/>
<path d="M369.665 190.561C334.047 169.997 305.552 153.545 275.552 131.476C299.53 131.072 317.89 132.174 343.374 137.389C373.374 159.459 407.487 174.405 441.6 189.351C417.622 189.754 393.643 190.158 369.665 190.561ZM277.057 137.094C307.057 159.164 335.552 175.615 369.665 190.561C393.643 190.158 412.004 191.26 435.982 190.856C401.869 175.91 366.251 155.346 337.756 138.895C319.396 137.792 295.417 138.196 277.057 137.094Z" fill="white"/>
<path d="M275.554 131.481C245.554 109.412 221.172 85.8366 198.295 67.8798C216.656 68.9818 242.14 74.1967 260.5 75.2988C284.882 98.8739 313.376 115.325 343.376 137.395C319.398 137.798 295.419 138.202 275.554 131.481ZM199.801 73.498C224.183 97.0731 247.059 115.03 277.059 137.1C295.419 138.202 319.398 137.798 337.758 138.9C309.263 122.449 279.263 100.379 256.387 82.4224C236.521 75.7021 218.161 74.6001 199.801 73.498Z" fill="white"/>
<path d="M198.286 67.8891C173.905 44.314 155.141 19.2335 137.883 -0.22876C157.748 6.49154 176.109 7.59358 195.974 14.3139C214.738 39.3944 237.614 57.3512 261.996 80.9263C236.512 75.7114 218.152 74.6094 198.286 67.8891ZM137.883 -0.22876C156.646 24.8518 173.905 44.314 198.286 67.8891C216.647 68.9911 236.512 75.7114 254.872 76.8135C231.996 58.8567 207.614 35.2815 190.356 15.8193C170.49 9.09899 157.748 6.49154 137.883 -0.22876Z" fill="white"/>
<path d="M132.252 1.25377C113.488 -23.8267 94.7244 -48.9072 83.0845 -69.8749C102.95 -63.1546 115.692 -60.5471 135.558 -53.8268C154.321 -28.7463 171.579 -9.28409 190.343 15.7964C170.477 9.07612 152.117 7.97408 132.252 1.25377ZM88.7027 -71.3803C101.848 -44.7944 120.612 -19.7139 137.87 -0.251635C156.23 0.850404 176.096 7.57069 188.838 10.1781C171.579 -9.28411 152.816 -34.3646 141.176 -55.3322C122.816 -56.4343 108.568 -64.66 88.7027 -71.3803Z" fill="white"/>
<path d="M297.726 191.779C262.108 171.214 232.108 149.145 207.726 125.57C231.705 125.166 251.57 131.887 275.549 131.483C305.549 153.553 334.043 170.004 369.662 190.569C345.683 190.972 321.705 191.375 297.726 191.779ZM214.85 129.683C239.232 153.258 267.726 169.709 303.345 190.273C327.323 189.87 345.683 190.972 369.662 190.569C335.549 175.623 305.549 153.553 277.054 137.102C251.57 131.887 233.21 130.785 214.85 129.683Z" fill="white"/>
<path d="M209.238 131.191C179.238 109.122 154.856 85.5466 136.093 60.4661C155.958 67.1864 174.319 68.2884 199.803 73.5033C224.184 97.0784 248.566 120.653 277.061 137.105C251.577 131.89 233.217 130.788 209.238 131.191ZM141.711 58.9607C160.475 84.0412 184.856 107.616 207.733 125.573C226.093 126.675 251.577 131.89 269.937 132.992C239.937 110.922 217.061 92.9655 192.679 69.3904C179.937 66.783 161.577 65.681 141.711 58.9607Z" fill="white"/>
<path d="M136.087 60.4664C111.705 36.8913 92.9417 11.8108 79.7964 -14.7751C99.662 -8.05484 118.022 -6.95281 137.888 -0.232507C156.651 24.848 175.415 49.9285 198.291 67.8853C179.931 66.7833 155.953 67.1867 136.087 60.4664ZM81.3018 -9.15686C98.56 10.3054 117.324 35.3859 136.087 60.4664C155.953 67.1867 174.313 68.2887 192.673 69.3907C175.415 49.9285 151.033 26.3534 132.27 1.2729C119.528 -1.33455 99.662 -8.05482 81.3018 -9.15686Z" fill="white"/>
<path d="M79.8018 -14.7751C61.0382 -39.8556 47.8929 -66.4415 34.7476 -93.0275C48.9949 -84.8018 68.8605 -78.0815 87.2207 -76.9794C100.366 -50.3935 119.13 -25.313 136.388 -5.85077C119.533 -1.33454 99.6674 -8.05481 79.8018 -14.7751ZM41.8712 -88.9146C55.0165 -62.3287 66.6565 -41.361 85.42 -16.2805C105.286 -9.56022 118.028 -6.95278 137.893 -0.232476C119.13 -25.313 107.49 -46.2806 88.7262 -71.3611C70.366 -72.4632 56.1186 -80.6889 41.8712 -88.9146Z" fill="white"/>
<path d="M229.905 185.871C199.905 163.801 169.905 141.731 145.523 118.156C165.389 124.877 189.367 124.473 209.233 131.194C239.233 153.263 269.233 175.333 299.233 197.403C279.367 190.682 253.884 185.467 229.905 185.871ZM145.523 118.156C169.905 141.731 199.905 163.801 228.4 180.253C252.378 179.849 272.244 186.57 296.222 186.166C266.222 164.096 237.727 147.645 207.727 125.575C189.367 124.473 171.007 123.371 145.523 118.156Z" fill="white"/>
<path d="M145.533 118.154C121.151 94.5789 96.7694 71.0038 78.0059 45.9233C97.8715 52.6436 116.232 53.7457 136.097 60.466C160.479 84.0411 184.861 107.616 209.243 131.191C189.377 124.471 171.017 123.369 145.533 118.154ZM83.6241 44.4179C102.388 69.4984 121.151 94.5789 145.533 118.154C165.399 124.874 183.759 125.976 207.737 125.573C183.356 101.998 160.479 84.0411 136.097 60.466C116.232 53.7457 97.8715 52.6436 83.6241 44.4179Z" fill="white"/>
<path d="M78.0065 45.921C59.2429 20.8405 40.4793 -4.24001 27.334 -30.8259C47.1996 -24.1056 61.447 -15.8799 81.3126 -9.15959C100.076 15.9209 118.84 41.0014 137.603 66.0819C117.738 59.3616 97.8721 52.6413 78.0065 45.921ZM27.334 -30.8259C40.4793 -4.24001 59.2429 20.8405 78.0065 45.921C97.8721 52.6413 116.232 53.7433 136.098 60.4636C117.334 35.3831 100.076 15.9209 81.3126 -9.15959C61.447 -15.8799 47.1996 -24.1056 27.334 -30.8259Z" fill="white"/>
<path d="M27.3173 -30.82C14.172 -57.4059 1.02666 -83.9918 -12.1187 -110.578C2.1287 -102.352 21.9943 -95.6317 36.2417 -87.406C49.387 -60.8201 62.5323 -34.2342 81.2959 -9.15366C67.0485 -17.3794 47.1829 -24.0997 27.3173 -30.82ZM-12.1187 -110.578C1.02666 -83.9918 8.55369 -55.9005 25.8119 -36.4383C45.6775 -29.718 58.4194 -27.1105 78.285 -20.3902C59.5215 -45.4708 47.8816 -66.4384 34.7362 -93.0243C21.9943 -95.6317 7.74697 -103.857 -12.1187 -110.578Z" fill="white"/>
<path d="M162.083 179.957C132.083 157.887 107.701 134.312 81.8135 105.119C101.679 111.839 125.658 111.435 145.523 118.156C169.905 141.731 199.905 163.801 229.905 185.87C205.927 186.274 186.061 179.553 162.083 179.957ZM87.4317 103.613C106.195 128.694 136.195 150.763 160.577 174.338C178.937 175.44 204.421 180.655 222.782 181.757C192.781 159.688 168.4 136.113 144.018 112.537C127.163 117.054 107.297 110.333 87.4317 103.613Z" fill="white"/>
<path d="M81.8002 105.115C57.4183 81.5398 37.1493 50.841 18.3857 25.7605C38.2514 32.4808 58.117 39.2011 77.9826 45.9214C102.364 69.4965 121.128 94.577 145.51 118.152C127.15 117.05 107.284 110.33 81.8002 105.115ZM25.5094 29.8734C44.273 54.9539 63.0366 80.0344 87.4184 103.609C107.284 110.33 125.644 111.432 145.51 118.152C121.128 94.577 96.7462 71.0019 77.9826 45.9214C58.117 39.2011 45.375 36.5937 25.5094 29.8734Z" fill="white"/>
<path d="M25.5206 29.8715C6.75699 4.79098 -7.89375 -27.4132 -21.0391 -53.9991C-1.17344 -47.2788 13.0739 -39.0531 32.9395 -32.3328C46.0849 -5.74689 64.8484 19.3336 83.612 44.4141C58.1281 39.1992 39.7679 38.0972 25.5206 29.8715ZM-19.5336 -48.3809C-6.38833 -21.7949 6.75699 4.79098 25.5206 29.8715C45.3862 36.5918 65.2518 43.3121 77.9937 45.9195C59.2301 20.839 40.4666 -4.24148 27.3212 -30.8274C7.45563 -37.5477 -6.79171 -45.7734 -19.5336 -48.3809Z" fill="white"/>
<path d="M98.378 166.918C73.9962 143.343 48.1089 114.15 23.7271 90.5746C43.5927 97.2949 63.4583 104.015 88.9422 109.23C113.324 132.805 139.211 161.999 169.211 184.068C142.222 173.235 116.738 168.02 98.378 166.918ZM23.7271 90.5746C42.4906 115.655 66.8725 139.23 91.2543 162.805C111.12 169.526 135.098 169.122 154.964 175.843C124.964 153.773 100.582 130.198 81.8185 105.117C63.4583 104.015 43.5927 97.2949 23.7271 90.5746Z" fill="white"/>
<path d="M23.72 90.571C4.9564 65.4905 -15.3126 34.7917 -34.0762 9.71118C-14.2106 16.4315 5.65507 23.1518 25.5207 29.8721C44.2843 54.9526 64.5533 85.6514 88.9351 109.227C63.4512 104.012 43.5856 97.2913 23.72 90.571ZM-34.0762 9.71118C-20.9309 36.2971 -2.16728 61.3776 23.72 90.571C43.5856 97.2913 63.4512 104.012 81.8114 105.114C57.4296 81.5385 38.666 56.458 19.9024 31.3775C5.65508 23.1518 -14.2106 16.4315 -34.0762 9.71118Z" fill="white"/>
<path d="M-34.0665 9.70215C-52.83 -15.3784 -67.4808 -47.5825 -75.0078 -75.6738C-60.7605 -67.4481 -40.8948 -60.7278 -21.0292 -54.0075C-7.88391 -27.4216 5.26141 -0.835693 25.5304 29.8631C5.66479 23.1428 -14.2008 16.4225 -34.0665 9.70215ZM-75.0078 -75.6738C-61.8625 -49.0879 -48.7172 -22.502 -35.5719 4.08392C-15.7062 10.8042 -1.45889 19.0299 18.4067 25.7502C-0.356853 0.669693 -13.5022 -25.9162 -26.6475 -52.5021C-40.8948 -60.7279 -55.1422 -68.9535 -75.0078 -75.6738Z" fill="white"/>
<path d="M27.5415 149.758C1.65426 120.564 -22.7276 96.9891 -42.9966 66.2903C-23.131 73.0106 -3.26535 79.7309 16.6003 86.4512C48.1058 114.139 66.8694 139.22 98.3749 166.908C72.891 161.693 53.0254 154.972 27.5415 149.758ZM-35.8729 70.4031C-15.6039 101.102 8.77793 124.677 33.1598 148.252C53.0254 154.972 72.891 161.693 96.8695 161.289C72.4876 137.714 48.1058 114.139 29.3422 89.0586C3.85832 83.8437 -16.0073 77.1234 -35.8729 70.4031Z" fill="white"/>
<path d="M-35.8685 70.3967C-56.1375 39.6979 -74.901 14.6174 -89.5518 -17.5868C-68.1807 -5.24822 -48.3151 1.47207 -34.0678 9.69778C-15.3042 34.7783 -0.653461 66.9825 23.7284 90.5576C3.86277 83.8373 -16.0029 77.117 -35.8685 70.3967ZM-82.4281 -13.4739C-69.2828 13.112 -49.0138 43.8107 -30.2502 68.8913C-10.3846 75.6116 9.48103 82.3319 29.3466 89.0522C10.5831 63.9717 -8.18052 38.8911 -28.4495 8.19237C-48.3151 1.47207 -68.1807 -5.2482 -82.4281 -13.4739Z" fill="white"/>
<path d="M-30.5603 135.218C-56.4475 106.024 -76.7165 75.3257 -89.8618 48.7397C-69.9962 55.46 -50.1306 62.1803 -28.7596 74.5189C-8.49056 105.218 15.8913 128.793 41.7785 157.986C9.17096 148.658 -10.6946 141.938 -30.5603 135.218ZM-89.8618 48.7397C-71.0982 73.8203 -50.8293 104.519 -32.0657 129.6C-12.2001 136.32 7.66556 143.04 27.5312 149.76C3.14933 126.185 -17.1197 95.4865 -35.8833 70.406C-55.7489 63.6857 -75.6145 56.9655 -89.8618 48.7397Z" fill="white"/>
</g>
</g>
</svg>
