<?xml version="1.0" encoding="utf-8"?>
<!-- Generator: Adobe Illustrator 23.0.1, SVG Export Plug-In . SVG Version: 6.00 Build 0)  -->
<svg version="1.1" id="Layer_1" xmlns="http://www.w3.org/2000/svg" xmlns:xlink="http://www.w3.org/1999/xlink" x="0px" y="0px"
	 viewBox="0 0 496 496" style="enable-background:new 0 0 496 496;" xml:space="preserve">
<style type="text/css">
	.st0{fill:#FAB11D;}
</style>
<g>
	<g>
		<path class="st0" d="M75.8,243.8H35.9c-18.2,0-27.3-8.7-27.3-26.2c0-9.4,2.3-15.9,6.8-19.8c4.6-3.8,14.2-7,29-9.4
			c10.6-2,19.1-5.2,25.7-9.8C76.6,174,82.6,168,88,160.6c6.7-9.4,12.3-15.9,16.8-19.6c4.6-3.7,10.3-5.5,17.2-5.5
			c9.6,0,17,2.2,22.2,6.5c5.2,4.3,7.8,10.8,7.8,19.4v203.9c0,12.3-3.5,21.7-10.3,28.1c-6.9,6.4-16.1,9.6-27.7,9.6
			c-11.6,0-20.8-3.2-27.7-9.6c-6.9-6.4-10.3-15.8-10.3-28.1V243.8z"/>
		<path class="st0" d="M289.7,85.1c3.4-10.3,6.8-17,10.2-20c3.3-3,9.1-4.4,17.2-4.4c6.9,0,13.1,2.2,18.7,6.6
			c5.5,4.4,8.3,10.7,8.3,18.8c0,4.2-3.2,15.6-9.6,34.4l-0.7,1.8l-96.1,288.5c-3.5,10.3-6.8,17-10.2,20c-3.3,3-9.1,4.4-17.2,4.4
			c-6.9,0-13.1-2.2-18.7-6.6c-5.5-4.4-8.3-10.7-8.3-18.8c0-4.2,3.2-15.6,9.6-34.4l0.7-1.8L289.7,85.1z"/>
		<path class="st0" d="M411.3,243.8h-39.9c-18.2,0-27.3-8.7-27.3-26.2c0-9.4,2.3-15.9,6.8-19.8c4.6-3.8,14.2-7,29-9.4
			c10.6-2,19.1-5.2,25.7-9.8c6.5-4.6,12.5-10.5,17.9-17.9c6.7-9.4,12.3-15.9,16.8-19.6c4.6-3.7,10.3-5.5,17.2-5.5
			c9.6,0,17,2.2,22.2,6.5c5.2,4.3,7.8,10.8,7.8,19.4v203.9c0,12.3-3.5,21.7-10.3,28.1c-6.9,6.4-16.1,9.6-27.7,9.6
			c-11.6,0-20.8-3.2-27.7-9.6c-6.9-6.4-10.3-15.8-10.3-28.1V243.8z"/>
	</g>
</g>
</svg>
