<svg width="80" height="80" viewBox="0 0 80 80" fill="none" xmlns="http://www.w3.org/2000/svg">
<path d="M50.2756 6C57.0756 6 60.4756 6 64.1778 7.13333C68.1822 8.56889 71.3556 11.7422 72.7911 15.7467C74 19.4489 74 22.9244 74 29.7244V50.2756C74 57.0756 74 60.4756 72.8667 64.1778C71.4311 68.1822 68.2578 71.3556 64.2533 72.7911C60.4756 74 57.0756 74 50.2756 74H29.7244C22.9244 74 19.5244 74 15.8222 72.8667C11.7422 71.3556 8.64444 68.2578 7.13333 64.1778C6 60.5511 6 57.1511 6 50.2756V29.7244C6 22.9244 6 19.5244 7.13333 15.8222C8.64444 11.8178 11.7422 8.64444 15.8222 7.20889C19.4489 6 22.8489 6 29.7244 6H50.2756Z" fill="url(#paint0_linear_3230_4006)"/>
<path d="M21.3373 53.8269C21.4129 53.6757 21.564 53.6002 21.7151 53.5246C22.3195 53.3735 22.924 53.2224 23.5284 53.2224C25.1906 53.2224 26.7017 53.8269 27.9106 54.8846C28.0618 55.0357 28.0617 55.2624 27.9862 55.4135L24.8884 60.7024C24.284 61.7602 23.1506 62.3646 22.0173 62.3646C21.3373 62.3646 20.6573 62.138 20.0529 61.6846C18.6929 60.7024 18.3906 58.738 19.2218 57.3024L21.3373 53.8269ZM61.6084 45.7424C63.3462 45.7424 64.8573 47.0269 65.0084 48.6891C65.1595 50.6535 63.6484 52.3157 61.7595 52.3157H57.7551L60.7018 57.378C61.5329 58.8135 61.2306 60.778 59.8706 61.7602C59.2662 62.2135 58.5862 62.4402 57.9062 62.4402C56.7729 62.4402 55.6395 61.8357 55.0351 60.778L47.9329 48.4624L42.3417 38.7913C42.2662 38.7157 42.2662 38.6402 42.2662 38.4891C42.2662 38.1113 42.1906 37.7335 42.1906 37.3557C42.1906 34.7113 42.7951 32.0669 44.004 29.9513C44.1551 29.7246 44.5329 29.7246 44.684 29.9513L53.9018 45.6669H61.6084V45.7424ZM44.2306 45.8935C45.8929 46.8757 46.9506 48.7646 46.9506 50.8802C46.9506 51.3335 46.8751 51.7113 46.7995 52.1646C46.7995 52.2402 46.6484 52.3157 46.5729 52.3157H35.9951H18.3906C16.5018 52.3157 14.9151 50.6535 15.1418 48.6891C15.2929 46.9513 16.804 45.7424 18.5418 45.7424H26.0218L36.2218 28.2135L33.4262 23.4535C32.444 21.7913 33.124 19.6002 34.9373 18.8446C36.524 18.1646 38.3373 18.8446 39.244 20.2802L40.0751 21.7157L40.9818 20.2046C41.964 18.5424 44.1551 18.0135 45.7417 19.1469C47.1773 20.1291 47.4795 22.0935 46.5729 23.6046L33.5773 45.7424H38.8662H43.7018C43.9284 45.7424 44.0795 45.818 44.2306 45.8935Z" fill="white"/>
<defs>
<linearGradient id="paint0_linear_3230_4006" x1="39.9894" y1="6.02116" x2="39.9894" y2="73.9985" gradientUnits="userSpaceOnUse">
<stop stop-color="#19E6FF"/>
<stop offset="1" stop-color="#1E51EE"/>
</linearGradient>
</defs>
</svg>
