<svg width="80" height="80" viewBox="0 0 80 80" fill="none" xmlns="http://www.w3.org/2000/svg">
<path d="M43.2165 38.646L10.4151 71.5359C8.84728 70.049 8 68.0094 8 65.7992V14.213C8 11.961 8.8899 9.92087 10.5003 8.39185L43.2165 38.646Z" fill="#2299F8"/>
<path d="M71.566 40.0055C71.566 42.9806 69.9547 45.6148 67.2847 47.1028L57.963 52.2865L46.393 41.5777L43.2148 38.6458L55.4619 26.3652L67.2847 32.9093C69.9547 34.3975 71.566 37.0316 71.566 40.0055Z" fill="#FFC107"/>
<path d="M43.2161 38.6458L10.5 8.39153C10.9236 7.96583 11.475 7.58375 12.0259 7.24388C14.6953 5.62932 17.9163 5.58612 20.6705 7.11671L55.4634 26.3651L43.2161 38.6458Z" fill="#5ACF5F"/>
<path d="M57.9655 52.2866L20.6717 72.8955C19.3584 73.6608 17.8743 74.0001 16.4338 74.0001C14.9086 74.0001 13.3833 73.6179 12.0272 72.7684C11.4329 72.4283 10.8822 72.0034 10.416 71.5358L43.2174 38.6458L46.3955 41.5776L57.9655 52.2866Z" fill="#F84437"/>
</svg>
