<svg width="80" height="80" viewBox="0 0 80 80" fill="none" xmlns="http://www.w3.org/2000/svg">
<path d="M40 6C21.2223 6 6 21.2223 6 40C6 58.7804 21.2223 74 40 74C58.7777 74 74 58.7804 74 40C74 21.2223 58.7763 6 40 6ZM41.9496 19.7878C43.4918 17.9777 46.1 16.6356 48.2511 16.5486C48.5259 19.056 47.5152 21.5703 46.024 23.379C44.5273 25.1864 42.0793 26.5933 39.6755 26.4069C39.3524 23.952 40.5633 21.3894 41.9496 19.7878ZM54.1923 54.028C52.4071 56.6362 50.5569 59.2347 47.6422 59.2871C44.7759 59.341 43.8536 57.5889 40.5799 57.5889C37.3035 57.5889 36.279 59.2361 33.5659 59.3424C30.7534 59.4473 28.6105 56.5299 26.8115 53.93C23.1319 48.617 20.3249 38.9148 24.0997 32.3647C25.9692 29.109 29.3188 27.0545 32.9515 26.9978C35.7184 26.9468 38.3266 28.8618 40.0138 28.8618C41.7052 28.8618 44.8753 26.5615 48.2097 26.9012C49.6042 26.9578 53.5199 27.4618 56.0356 31.1414C55.834 31.2684 51.3591 33.871 51.413 39.2903C51.4723 45.7645 57.0918 47.9142 57.1567 47.9474C57.1042 48.0937 56.2551 51.0139 54.1923 54.028Z" fill="black"/>
</svg>
