<svg width="80" height="80" viewBox="0 0 80 80" fill="none" xmlns="http://www.w3.org/2000/svg">
<path d="M40 74C58.7777 74 74 58.7777 74 40C74 21.2223 58.7777 6 40 6C21.2223 6 6 21.2223 6 40C6 58.7777 21.2223 74 40 74Z" fill="#01A1EE"/>
<path fill-rule="evenodd" clip-rule="evenodd" d="M21.31 26.1813L35.2281 24.0935L36.3217 23.8947V25.0877V38.3099V39.3041H35.3275H21.5088H20.5146V38.3099V27.1754V26.2807L21.31 26.1813ZM38.5088 23.5965L57.0994 20.8128L58.193 20.614V21.7076V38.3099V39.3041H57.1989H38.7076H37.7135V38.3099V24.5906V23.6959L38.5088 23.5965ZM58.193 41.69V58.193V59.2865L57.0994 59.1871L38.5088 56.4035L37.7135 56.2047V55.4093V41.69V40.6959H38.7076H57.1989H58.193V41.69ZM35.2281 55.807L21.31 53.7193L20.5146 53.6199V52.7251V41.69V40.6959H21.5088H35.3275H36.3217V41.69V54.8128V56.0058L35.2281 55.807Z" fill="#FEFEFE"/>
</svg>
