<svg width="17" height="18" viewBox="0 0 17 18" fill="none" xmlns="http://www.w3.org/2000/svg">
<path fill-rule="evenodd" clip-rule="evenodd" d="M4.25515 0C4.49842 0 4.71828 0.150902 4.81409 0.383634L8.46098 9.24124C8.59328 9.56255 8.45028 9.93466 8.14158 10.0724C7.83289 10.2101 7.4754 10.0612 7.3431 9.73991L6.15634 6.85749H2.35397L1.16721 9.73991C1.03491 10.0612 0.677413 10.2101 0.368726 10.0724C0.0600262 9.93466 -0.0829727 9.56255 0.0493236 9.24124L3.69622 0.383634C3.79203 0.150902 4.01189 0 4.25515 0ZM4.25515 2.23987L5.71331 5.78144H2.797L4.25515 2.23987ZM12.1645 10.1303C12.4145 10.1303 12.639 9.97107 12.7304 9.72888L16.0772 0.86467C16.2001 0.539308 16.0462 0.171892 15.7336 0.0440309C15.4211 -0.0838337 15.0681 0.076262 14.9453 0.401623L12.1645 7.76681L9.38369 0.401623C9.26085 0.076262 8.90787 -0.0838337 8.5953 0.0440309C8.28272 0.171892 8.12891 0.539308 8.25175 0.86467L11.5985 9.72888C11.69 9.97107 11.9145 10.1303 12.1645 10.1303Z" fill="#4D4F60"/>
<path fill-rule="evenodd" clip-rule="evenodd" d="M13.5938 13.9484L2.6153 13.9484L4.27964 12.5626C4.53824 12.3471 4.58024 11.9536 4.37324 11.6845C4.16625 11.4153 3.78826 11.3716 3.52967 11.5871L0.529757 14.0851C0.387562 14.2038 0.304764 14.383 0.304764 14.5729C0.304764 14.7627 0.387562 14.942 0.529757 15.0606L3.52967 17.5587C3.78826 17.7741 4.16625 17.7304 4.37324 17.4613C4.58024 17.1921 4.53824 16.7986 4.27964 16.5832L2.6153 15.1974L13.5938 15.1974L11.9294 16.5832C11.6708 16.7986 11.6288 17.1921 11.8358 17.4613C12.0428 17.7304 12.4208 17.7741 12.6794 17.5587L15.6793 15.0606C15.8215 14.942 15.9043 14.7627 15.9043 14.5729C15.9043 14.383 15.8215 14.2038 15.6793 14.0851L12.6794 11.5871C12.4208 11.3716 12.0428 11.4153 11.8358 11.6845C11.6288 11.9536 11.6708 12.3471 11.9294 12.5626L13.5938 13.9484Z" fill="#4D4F60"/>
</svg>