<svg width="100" height="100" viewBox="0 0 100 100" fill="none" xmlns="http://www.w3.org/2000/svg">
<g clip-path="url(#clip0_2345_1691)">
<rect width="100" height="100" rx="16" fill="#FFDB59"/>
<path d="M66.3651 63.8657C66.3651 64.729 66.0904 65.5531 65.5803 66.338C65.0701 67.1228 64.403 67.5152 63.5789 67.5152C63.0687 67.5152 61.8914 67.2013 60.1255 66.5734C59.1444 66.2202 58.3203 66.0633 57.6924 66.0633C55.6911 66.0633 54.1213 66.8481 52.9441 68.3786C51.9237 69.7521 51.3743 71.518 51.3743 73.5979C51.3743 75.6385 51.9237 77.3652 52.9833 78.7779C54.1998 80.3477 55.7695 81.1718 57.6924 81.1718C58.3203 81.1718 59.1052 81.0148 60.0863 80.6616C61.0673 80.3477 62.0876 79.9945 63.1472 79.602C64.0498 79.602 64.7954 79.916 65.4233 80.5439C66.0512 81.1718 66.3651 81.9174 66.3651 82.8199C66.3651 84.5074 65.1878 85.8416 62.8333 86.862C61.0281 87.6076 59.1837 88 57.2608 88C53.3365 88 50.1186 86.6265 47.6463 83.8403C45.174 81.054 43.9182 77.6399 43.9182 73.6371C43.9182 69.7521 45.174 66.3772 47.6855 63.5125C50.1971 60.6478 53.3757 59.235 57.2608 59.235C59.3799 59.235 61.2635 59.549 62.9117 60.1768C65.2271 61.0009 66.3651 62.2567 66.3651 63.8657Z" fill="url(#paint0_linear_2345_1691)"/>
<path d="M95.0513 64.3758V82.7807C95.0513 84.2327 94.8943 85.253 94.6196 85.8809C94.0702 87.0582 93.0106 87.6468 91.4017 87.6468C90.3814 87.6468 89.5965 87.3721 89.0864 86.862C88.5762 86.3518 88.1838 85.5277 87.9091 84.4289C86.928 85.5669 85.8292 86.4303 84.6519 87.0582C83.4746 87.6468 82.1796 87.9608 80.7669 87.9608C77.2743 87.9608 74.3703 86.6265 72.0157 83.9187C69.6612 81.211 68.4839 77.7576 68.4839 73.5979C68.4839 69.5166 69.6612 66.1025 72.055 63.3555C74.4488 60.6085 77.3528 59.235 80.8061 59.235C82.2974 59.235 83.6316 59.5097 84.8481 60.0591C86.0647 60.6085 87.085 61.4719 87.9091 62.6491C88.0268 61.7073 88.4192 60.9617 89.0864 60.4123C89.7535 59.8237 90.5384 59.549 91.4409 59.549C93.0107 59.549 94.0702 60.0984 94.5804 61.1972C94.8943 61.825 95.0513 62.8846 95.0513 64.3758ZM75.9008 73.5979C75.9008 75.6385 76.3717 77.326 77.3135 78.7387C78.4123 80.3477 79.9035 81.1718 81.8264 81.1718C83.6709 81.1718 85.0836 80.3869 86.1824 78.7779C87.1635 77.326 87.6344 75.5993 87.6344 73.5979C87.6344 71.6357 87.1635 69.9483 86.2216 68.5356C85.1228 66.8874 83.6709 66.0633 81.8264 66.0633C79.982 66.0633 78.4908 66.8874 77.392 68.4963C76.3717 69.9091 75.9008 71.6357 75.9008 73.5979Z" fill="url(#paint1_linear_2345_1691)"/>
<path d="M14.1852 48.3504V22.2507H8.49353C7.31594 22.2507 6.45237 21.8958 5.86357 21.1862C5.27477 20.4765 5 19.6091 5 18.6235C5 17.6773 5.31403 16.8493 5.94208 16.1397C6.57013 15.43 7.39444 15.0752 8.49353 15.0752H27.5313C28.5911 15.0752 29.4547 15.43 30.0828 16.1397C30.7108 16.8493 31.0248 17.6773 31.0248 18.6235C31.0248 19.6486 30.7501 20.4765 30.1613 21.1862C29.5725 21.8958 28.7089 22.2507 27.5313 22.2507H21.9181V48.3504C21.9181 49.6514 21.5648 50.6371 20.8583 51.3467C20.1517 52.0564 19.2096 52.4112 17.9928 52.4112C16.8545 52.4112 15.9124 52.0564 15.2058 51.3467C14.5385 50.5976 14.1852 49.612 14.1852 48.3504Z" fill="#311A8C"/>
<path d="M51.7897 28.9927V47.4833C51.7897 48.942 51.6327 49.9671 51.3579 50.5979C50.8084 51.7807 49.7486 52.372 48.1392 52.372C47.1186 52.372 46.3335 52.0961 45.8232 51.5835C45.3129 51.071 44.9204 50.2431 44.6456 49.1391C43.6643 50.2825 42.5652 51.1498 41.3876 51.7807C40.21 52.372 38.9147 52.6874 37.5016 52.6874C34.008 52.6874 31.1033 51.347 28.7481 48.6266C26.3929 45.9062 25.2153 42.4368 25.2153 38.2577C25.2153 34.1574 26.3929 30.7274 28.7874 27.9676C31.1818 25.2078 34.0865 23.8279 37.5408 23.8279C39.0324 23.8279 40.3671 24.1039 41.5839 24.6558C42.8007 25.2078 43.8213 26.0752 44.6456 27.2579C44.7634 26.3117 45.1559 25.5626 45.8232 25.0107C46.4905 24.4193 47.2756 24.1433 48.1784 24.1433C49.7486 24.1433 50.8084 24.6953 51.3187 25.7992C51.6327 26.43 51.7897 27.4945 51.7897 28.9927ZM32.6342 38.2577C32.6342 40.3078 33.1052 42.0031 34.0473 43.4224C35.1464 45.0389 36.638 45.8668 38.5614 45.8668C40.4063 45.8668 41.8194 45.0783 42.9185 43.4619C43.8998 42.0031 44.3709 40.2684 44.3709 38.2577C44.3709 36.2864 43.8998 34.5911 42.9578 33.1718C41.8587 31.5159 40.4063 30.688 38.5614 30.688C36.7165 30.688 35.2249 31.5159 34.1258 33.1323C33.1052 34.5517 32.6342 36.2864 32.6342 38.2577Z" fill="#311A8C"/>
<path d="M55.5315 48.2321V16.1791C55.5315 14.9175 55.8848 13.9319 56.5521 13.1433C57.2586 12.3943 58.1222 12 59.2605 12C60.3596 12 61.2625 12.3943 61.969 13.1433C62.6756 13.8924 62.9896 14.9175 62.9896 16.1791V26.3903C64.913 24.6556 67.2682 23.7883 70.0159 23.7883C73.8235 23.7883 76.8067 25.3258 79.0049 28.401C81.0068 31.2003 81.9881 34.5909 81.9881 38.5334C81.9881 42.2394 80.889 45.4723 78.6909 48.2715C76.3357 51.2285 73.3917 52.6872 69.7804 52.6872C68.3673 52.6872 67.0327 52.4112 65.7766 51.8198C64.5205 51.2285 63.5784 50.4005 62.9111 49.2572C62.6363 50.2822 62.2045 51.0708 61.6157 51.5833C61.0269 52.0958 60.2026 52.3718 59.182 52.3718C58.083 52.3718 57.1801 51.9775 56.4736 51.2285C55.8455 50.4794 55.5315 49.4543 55.5315 48.2321ZM62.9503 38.0209C62.9503 40.1104 63.3821 41.8452 64.2849 43.2645C65.3448 44.9598 66.8364 45.8272 68.7206 45.8272C70.5654 45.8272 71.9786 44.9992 73.0777 43.3828C74.059 41.924 74.53 40.2287 74.53 38.218C74.53 36.2073 74.059 34.5514 73.1169 33.1321C72.0178 31.4762 70.5654 30.6483 68.7206 30.6483C66.8757 30.6483 65.4625 31.358 64.442 32.8167C63.4606 34.3149 62.9503 36.0496 62.9503 38.0209Z" fill="#311A8C"/>
</g>
<defs>
<linearGradient id="paint0_linear_2345_1691" x1="55.1417" y1="59.235" x2="55.1417" y2="88" gradientUnits="userSpaceOnUse">
<stop stop-color="#DD3B9C"/>
<stop offset="0.901042" stop-color="#5105CF"/>
</linearGradient>
<linearGradient id="paint1_linear_2345_1691" x1="81.7676" y1="59.235" x2="81.7676" y2="87.9608" gradientUnits="userSpaceOnUse">
<stop stop-color="#DD3B9C"/>
<stop offset="0.901042" stop-color="#5105CF"/>
</linearGradient>
<clipPath id="clip0_2345_1691">
<rect width="100" height="100" fill="white"/>
</clipPath>
</defs>
</svg>
