<svg width="100" height="100" viewBox="0 0 100 100" fill="none" xmlns="http://www.w3.org/2000/svg">
<path d="M67.6398 63.5779C67.6398 64.4873 67.3504 65.3554 66.813 66.1821C66.2757 67.0088 65.5729 67.4222 64.7049 67.4222C64.1675 67.4222 62.9274 67.0915 61.0672 66.4301C60.0338 66.0581 59.1657 65.8927 58.5043 65.8927C56.3962 65.8927 54.7427 66.7195 53.5026 68.3316C52.4278 69.7784 51.8491 71.6386 51.8491 73.8294C51.8491 75.9789 52.4278 77.7977 53.5439 79.2859C54.8254 80.9393 56.4788 81.8074 58.5043 81.8074C59.1657 81.8074 59.9925 81.6421 61.0259 81.27C62.0593 80.9393 63.1341 80.5673 64.2501 80.1539C65.2009 80.1539 65.9863 80.4846 66.6477 81.146C67.3091 81.8074 67.6398 82.5928 67.6398 83.5435C67.6398 85.321 66.3997 86.7265 63.9195 87.8012C62.018 88.5866 60.0751 89 58.0496 89C53.9159 89 50.5263 87.5532 47.9221 84.6183C45.3179 81.6834 43.9951 78.0871 43.9951 73.8707C43.9951 69.7784 45.3179 66.2234 47.9635 63.2058C50.609 60.1883 53.9573 58.7001 58.0496 58.7001C60.2818 58.7001 62.266 59.0308 64.0021 59.6922C66.441 60.5603 67.6398 61.8831 67.6398 63.5779Z" fill="url(#paint0_linear_2292_2090)"/>
<path d="M97.8566 64.1153V83.5022C97.8566 85.0317 97.6913 86.1064 97.4019 86.7678C96.8232 88.0079 95.7071 88.628 94.0123 88.628C92.9375 88.628 92.1108 88.3386 91.5734 87.8012C91.036 87.2639 90.6227 86.3958 90.3333 85.2384C89.2999 86.4371 88.1424 87.3465 86.9023 88.0079C85.6622 88.628 84.2981 88.9587 82.81 88.9587C79.131 88.9587 76.0721 87.5532 73.5919 84.701C71.1117 81.8487 69.8716 78.2111 69.8716 73.8294C69.8716 69.5304 71.1117 65.9341 73.6332 63.0405C76.1548 60.1469 79.2137 58.7001 82.8513 58.7001C84.4221 58.7001 85.8276 58.9895 87.109 59.5682C88.3905 60.1469 89.4652 61.0563 90.3333 62.2964C90.4573 61.3044 90.8707 60.519 91.5734 59.9402C92.2761 59.3202 93.1029 59.0308 94.0536 59.0308C95.7071 59.0308 96.8232 59.6095 97.3606 60.767C97.6913 61.4284 97.8566 62.5445 97.8566 64.1153ZM77.6842 73.8294C77.6842 75.9789 78.1803 77.7564 79.1724 79.2445C80.3298 80.9393 81.9006 81.8074 83.9261 81.8074C85.8689 81.8074 87.3571 80.9807 88.5145 79.2859C89.5479 77.7564 90.0439 75.9376 90.0439 73.8294C90.0439 71.7626 89.5479 69.9851 88.5558 68.497C87.3984 66.7608 85.8689 65.8927 83.9261 65.8927C81.9833 65.8927 80.4125 66.7608 79.255 68.4556C78.1803 69.9437 77.6842 71.7626 77.6842 73.8294Z" fill="url(#paint1_linear_2292_2090)"/>
<path d="M12.6754 49.29V21.7976H6.67994C5.43951 21.7976 4.52986 21.4238 3.90965 20.6763C3.28943 19.9288 3 19.0151 3 17.9769C3 16.9802 3.33078 16.1081 3.99234 15.3605C4.65391 14.613 5.52221 14.2393 6.67994 14.2393H26.7336C27.85 14.2393 28.7596 14.613 29.4212 15.3605C30.0827 16.1081 30.4135 16.9802 30.4135 17.9769C30.4135 19.0567 30.1241 19.9288 29.5039 20.6763C28.8837 21.4238 27.974 21.7976 26.7336 21.7976H20.8209V49.29C20.8209 50.6605 20.4487 51.6987 19.7045 52.4462C18.9602 53.1938 17.9679 53.5675 16.6861 53.5675C15.487 53.5675 14.4947 53.1938 13.7504 52.4462C13.0475 51.6572 12.6754 50.6189 12.6754 49.29Z" fill="#311A8C"/>
<path d="M52.2866 28.8994V48.3766C52.2866 49.9132 52.1212 50.993 51.8318 51.6575C51.2529 52.9033 50.1365 53.5263 48.4412 53.5263C47.3662 53.5263 46.5392 53.2356 46.0017 52.6957C45.4642 52.1558 45.0507 51.2837 44.7613 50.1209C43.7276 51.3252 42.5699 52.2389 41.3294 52.9033C40.089 53.5263 38.7245 53.8585 37.236 53.8585C33.5561 53.8585 30.4963 52.4465 28.0155 49.581C25.5346 46.7155 24.2942 43.0609 24.2942 38.6588C24.2942 34.3397 25.5346 30.7267 28.0568 27.8196C30.579 24.9126 33.6388 23.459 37.2774 23.459C38.8486 23.459 40.2544 23.7498 41.5362 24.3312C42.818 24.9126 43.893 25.8262 44.7613 27.0721C44.8853 26.0754 45.2988 25.2863 46.0017 24.7049C46.7046 24.082 47.5316 23.7913 48.4826 23.7913C50.1365 23.7913 51.2529 24.3727 51.7904 25.5355C52.1212 26.2 52.2866 27.3213 52.2866 28.8994ZM32.1089 38.6588C32.1089 40.8183 32.6051 42.6041 33.5974 44.0991C34.7552 45.8018 36.3264 46.6739 38.3524 46.6739C40.2957 46.6739 41.7843 45.8433 42.942 44.1406C43.9757 42.6041 44.4719 40.7768 44.4719 38.6588C44.4719 36.5823 43.9757 34.7965 42.9833 33.3015C41.8256 31.5573 40.2957 30.6851 38.3524 30.6851C36.4091 30.6851 34.8379 31.5573 33.6801 33.26C32.6051 34.755 32.1089 36.5823 32.1089 38.6588Z" fill="#311A8C"/>
<path d="M56.228 49.1654V15.4021C56.228 14.0732 56.6002 13.0349 57.3031 12.2044C58.0473 11.4153 58.957 11 60.1561 11C61.3138 11 62.2648 11.4153 63.009 12.2044C63.7533 12.9934 64.0841 14.0732 64.0841 15.4021V26.1582C66.1101 24.3309 68.591 23.4173 71.4853 23.4173C75.496 23.4173 78.6385 25.0369 80.9539 28.2762C83.0627 31.2248 84.0964 34.7963 84.0964 38.9492C84.0964 42.853 82.9386 46.2584 80.6232 49.207C78.1423 52.3217 75.0412 53.8583 71.2372 53.8583C69.7487 53.8583 68.3429 53.5675 67.0198 52.9446C65.6966 52.3217 64.7043 51.4496 64.0014 50.2452C63.712 51.325 63.2571 52.1556 62.6369 52.6954C62.0167 53.2353 61.1484 53.526 60.0734 53.526C58.9156 53.526 57.9646 53.1107 57.2204 52.3217C56.5588 51.5326 56.228 50.4529 56.228 49.1654ZM64.0427 38.4093C64.0427 40.6104 64.4976 42.4377 65.4486 43.9327C66.5649 45.7185 68.1362 46.6322 70.1208 46.6322C72.0642 46.6322 73.5527 45.76 74.7104 44.0573C75.7441 42.5207 76.2403 40.735 76.2403 38.617C76.2403 36.499 75.7441 34.7548 74.7518 33.2597C73.5941 31.5155 72.0642 30.6434 70.1208 30.6434C68.1775 30.6434 66.689 31.3909 65.614 32.9275C64.5803 34.5056 64.0427 36.3329 64.0427 38.4093Z" fill="#311A8C"/>
<defs>
<linearGradient id="paint0_linear_2292_2090" x1="55.8174" y1="58.7001" x2="55.8174" y2="89" gradientUnits="userSpaceOnUse">
<stop stop-color="#DD3B9C"/>
<stop offset="0.901042" stop-color="#5105CF"/>
</linearGradient>
<linearGradient id="paint1_linear_2292_2090" x1="83.8641" y1="58.7001" x2="83.8641" y2="88.9587" gradientUnits="userSpaceOnUse">
<stop stop-color="#DD3B9C"/>
<stop offset="0.901042" stop-color="#5105CF"/>
</linearGradient>
</defs>
</svg>
