<svg width="194" height="60" viewBox="0 0 194 60" fill="none"
    xmlns="http://www.w3.org/2000/svg">
    <path d="M35.1096 28.2323C34.9512 29.1161 34.1007 29.7164 33.2169 29.558L8.92043 25.2723C8.03662 25.1139 7.43629 24.2635 7.59471 23.3797L11.4718 1.35109C11.6302 0.467282 12.4807 -0.133042 13.3645 0.0253765L37.661 4.31103C38.5448 4.46944 39.1451 5.3199 38.9867 6.20371L35.1096 28.2323Z" fill="url(#paint0_linear_2226_8101)"/>
    <path fill-rule="evenodd" clip-rule="evenodd" d="M37.3191 6.28602L13.0226 2.00037L9.25391 23.3619L33.5504 27.6476L37.3191 6.28602Z" fill="url(#paint1_linear_2226_8101)"/>
    <path d="M32.6499 27.4899L9.25391 23.3627L9.57908 21.5367L21.1687 13.4157C21.9024 12.8987 22.928 13.0821 23.4449 13.8159L27.8223 20.0693L33.0251 25.222C33.542 25.9558 33.3669 26.9646 32.6499 27.4899Z" fill="url(#paint2_linear_2226_8101)"/>
    <path d="M34.8504 20.2366L33.5414 27.6406L18.5166 24.9975L31.1318 17.7686C31.8655 17.2517 32.891 17.4351 33.408 18.1688C33.3996 18.1688 34.8504 20.2366 34.8504 20.2366Z" fill="url(#paint3_linear_2226_8101)"/>
    <path fill-rule="evenodd" clip-rule="evenodd" d="M29.9397 7.1206C31.0236 7.31237 31.7407 8.34626 31.5489 9.42184C31.3571 10.5058 30.3232 11.2228 29.2476 11.031C28.1637 10.8393 27.4467 9.80538 27.6384 8.7298C27.8219 7.65422 28.8558 6.92883 29.9397 7.1206Z" fill="#FFE6A6"/>
    <path d="M16.1745 5.69532C16.608 4.71145 17.667 4.08611 18.7675 4.27788C19.9515 4.48633 20.777 5.52022 20.7353 6.68752C20.777 6.69586 20.8187 6.75422 20.8603 6.76256C21.7108 6.91264 22.3695 7.3879 22.4279 8.47182L14.4902 7.07106C14.6737 6.02883 15.3907 5.58692 16.1745 5.69532Z" fill="white"/>
    <path d="M19.4672 44.0321C19.734 45.0409 20.7846 45.6413 21.7935 45.3745L48.5496 38.2039C49.5585 37.9371 50.1588 36.8865 49.892 35.8777L45.5897 19.8106C45.3229 18.8018 44.2723 18.2014 43.2634 18.4683L16.5073 25.6388C15.4984 25.9056 14.8981 26.9562 15.1649 27.9651L19.4672 44.0321Z" fill="url(#paint4_linear_2226_8101)"/>
    <path d="M27.555 33.251C28.2887 35.9941 31.1069 37.62 33.8501 36.8862C36.5932 36.1525 38.2191 33.3343 37.4854 30.5912C36.7516 27.848 33.9335 26.2222 31.1903 26.9559C28.4472 27.6896 26.8213 30.5078 27.555 33.251Z" fill="#E6F3FB"/>
    <path d="M30.5647 29.7585C30.2895 29.6668 30.1311 29.8252 30.1978 30.1003L31.4151 34.6528C31.4902 34.9279 31.707 34.9863 31.8987 34.7695L34.7503 31.6095C34.942 31.3927 34.8753 31.1509 34.6002 31.0592L30.5647 29.7585Z" fill="url(#paint5_linear_2226_8101)"/>
    <path d="M19.6755 27.3319C19.7338 27.5487 19.6004 27.7739 19.3836 27.8322L17.6994 28.2825C17.4826 28.3408 17.2575 28.2074 17.1991 27.9906L17.0157 27.2986C16.9573 27.0818 17.0907 26.8567 17.3075 26.7983L18.9918 26.3481C19.2085 26.2897 19.4337 26.4231 19.492 26.6399L19.6755 27.3319Z" fill="#E6F3FB"/>
    <path d="M24.529 26.0312C24.5873 26.2479 24.4539 26.4731 24.2371 26.5314L22.5529 26.9817C22.3361 27.04 22.111 26.9066 22.0526 26.6899L21.8692 25.9978C21.8108 25.781 21.9442 25.5559 22.161 25.4975L23.8453 25.0473C24.062 24.9889 24.2872 25.1223 24.3455 25.3391L24.529 26.0312Z" fill="#E6F3FB"/>
    <path d="M29.381 24.7304C29.4394 24.9472 29.306 25.1723 29.0892 25.2307L27.405 25.6809C27.1882 25.7393 26.963 25.6059 26.9047 25.3891L26.7213 24.697C26.6629 24.4802 26.7963 24.2551 27.0131 24.1968L28.6973 23.7465C28.9141 23.6882 29.1392 23.8216 29.1976 24.0383L29.381 24.7304Z" fill="#E6F3FB"/>
    <path d="M34.234 23.4296C34.2924 23.6464 34.159 23.8715 33.9422 23.9299L32.258 24.3801C32.0412 24.4385 31.8161 24.3051 31.7577 24.0883L31.5743 23.3963C31.5159 23.1795 31.6493 22.9543 31.8661 22.896L33.5503 22.4457C33.7671 22.3874 33.9922 22.5208 34.0506 22.7376L34.234 23.4296Z" fill="#E6F3FB"/>
    <path d="M39.0866 22.1288C39.145 22.3456 39.0115 22.5707 38.7948 22.6291L37.1105 23.0793C36.8937 23.1377 36.6686 23.0043 36.6103 22.7875L36.4268 22.0955C36.3685 21.8787 36.5019 21.6536 36.7186 21.5952L38.4029 21.145C38.6197 21.0866 38.8448 21.22 38.9032 21.4368L39.0866 22.1288Z" fill="#E6F3FB"/>
    <path d="M43.9391 20.828C43.9975 21.0448 43.8641 21.2699 43.6473 21.3283L41.9631 21.7786C41.7463 21.8369 41.5212 21.7035 41.4628 21.4867L41.2794 20.7947C41.221 20.5779 41.3544 20.3528 41.5712 20.2944L43.2554 19.8442C43.4722 19.7858 43.6973 19.9192 43.7557 20.136L43.9391 20.828Z" fill="#E6F3FB"/>
    <path d="M23.82 42.8073C23.8784 43.0241 23.7449 43.2492 23.5282 43.3076L21.8439 43.7578C21.6271 43.8162 21.402 43.6828 21.3436 43.466L21.1602 42.7739C21.1019 42.5572 21.2353 42.332 21.452 42.2737L23.1363 41.8234C23.3531 41.7651 23.5782 41.8985 23.6366 42.1152L23.82 42.8073Z" fill="#E6F3FB"/>
    <path d="M28.6725 41.5065C28.7309 41.7233 28.5975 41.9484 28.3807 42.0068L26.6965 42.457C26.4797 42.5154 26.2546 42.382 26.1962 42.1652L26.0128 41.4732C25.9544 41.2564 26.0878 41.0312 26.3046 40.9729L27.9888 40.5226C28.2056 40.4643 28.4307 40.5977 28.4891 40.8145L28.6725 41.5065Z" fill="#E6F3FB"/>
    <path d="M33.5251 40.2046C33.5834 40.4214 33.45 40.6465 33.2332 40.7048L31.549 41.1551C31.3322 41.2134 31.1071 41.08 31.0487 40.8633L30.8653 40.1712C30.8069 39.9544 30.9403 39.7293 31.1571 39.6709L32.8414 39.2207C33.0581 39.1623 33.2833 39.2957 33.3416 39.5125L33.5251 40.2046Z" fill="#E6F3FB"/>
    <path d="M38.3781 38.9049C38.4365 39.1217 38.3031 39.3468 38.0863 39.4052L36.402 39.8555C36.1852 39.9138 35.9601 39.7804 35.9018 39.5636L35.7183 38.8716C35.66 38.6548 35.7934 38.4297 36.0101 38.3713L37.6944 37.9211C37.9112 37.8627 38.1363 37.9961 38.1947 38.2129L38.3781 38.9049Z" fill="#E6F3FB"/>
    <path d="M43.2301 37.6042C43.2885 37.8209 43.1551 38.0461 42.9383 38.1044L41.2541 38.5547C41.0373 38.613 40.8122 38.4796 40.7538 38.2629L40.5704 37.5708C40.512 37.354 40.6454 37.1289 40.8622 37.0705L42.5464 36.6203C42.7632 36.5619 42.9883 36.6953 43.0467 36.9121L43.2301 37.6042Z" fill="#E6F3FB"/>
    <path d="M48.0832 36.3034C48.1415 36.5202 48.0081 36.7453 47.7913 36.8037L46.1071 37.2539C45.8903 37.3123 45.6652 37.1789 45.6068 36.9621L45.4234 36.27C45.365 36.0532 45.4984 35.8281 45.7152 35.7698L47.3995 35.3195C47.6163 35.2612 47.8414 35.3946 47.8997 35.6113L48.0832 36.3034Z" fill="#E6F3FB"/>
    <path d="M14.4231 21.3705L22.9444 34.5026C23.378 35.1613 23.1862 36.0618 22.5192 36.487L11.7967 43.4491C11.138 43.8827 10.2375 43.6909 9.81231 43.0239L0.232134 28.2659C-0.201434 27.6072 -0.00966348 26.7067 0.657364 26.2815L9.75394 20.3783L14.4231 21.3705Z" fill="url(#paint6_linear_2226_8101)"/>
    <path fill-rule="evenodd" clip-rule="evenodd" d="M5.36844 30.242L10.8964 26.6234C11.0965 26.49 11.1549 26.2232 11.0215 26.0314C10.8881 25.8313 10.6213 25.7729 10.4295 25.9063L4.90152 29.525C4.70142 29.6584 4.64305 29.9252 4.77646 30.1169C4.90152 30.3171 5.16833 30.3754 5.36844 30.242Z" fill="url(#paint7_linear_2226_8101)"/>
    <path fill-rule="evenodd" clip-rule="evenodd" d="M6.54325 32.0509L12.0712 28.4323C12.2713 28.2989 12.3297 28.0321 12.1963 27.8403C12.0629 27.6402 11.7961 27.5818 11.6043 27.7152L6.07633 31.3339C5.87622 31.4673 5.81785 31.7341 5.95126 31.9342C6.07633 32.126 6.34314 32.1843 6.54325 32.0509Z" fill="url(#paint8_linear_2226_8101)"/>
    <path fill-rule="evenodd" clip-rule="evenodd" d="M14.932 31.9839L9.03711 35.911L11.3467 39.4629L17.2415 35.5358L14.932 31.9839Z" fill="url(#paint9_linear_2226_8101)"/>
    <path d="M14.4989 21.4619L11.5806 23.3462L9.69629 20.428L14.4989 21.4619Z" fill="white"/>
    <path d="M24.7042 57.7062C24.7042 57.7062 23.17 56.6724 22.4196 56.0887C18.0089 52.6619 13.1813 50.1105 7.58659 49.2934C6.15248 49.0849 4.70169 49.0182 3.2259 48.9348C2.62557 48.9015 2.16699 48.4012 2.16699 47.8009V43.2985C16.283 45.7414 24.7042 57.7062 24.7042 57.7062Z" fill="#3836BD"/>
    <path d="M24.0536 60C18.5756 56.6232 12.7642 54.5053 6.32734 54.547C5.69367 54.547 5.18506 54.0468 5.18506 53.4131V50.7617C12.6808 51.6371 18.9175 54.7138 24.0536 60Z" fill="#3836BD"/>
    <path d="M25.2539 57.7064C25.2539 57.7064 26.7881 56.6725 27.5385 56.0888C31.9492 52.662 36.7768 50.1106 42.3715 49.2935C43.8056 49.085 45.2564 49.0183 46.7322 48.935C47.3325 48.9016 47.7911 48.4013 47.7911 47.801V43.2986C33.6751 45.7416 25.2539 57.7064 25.2539 57.7064Z" fill="#3836BD"/>
    <path d="M25.9043 60.0001C31.3823 56.6233 37.1937 54.5055 43.6305 54.5472C44.2642 54.5472 44.7728 54.0469 44.7728 53.4132V50.7618C37.2771 51.6373 31.0404 54.7139 25.9043 60.0001Z" fill="#3836BD"/>
    <g clip-path="url(#clip0_2226_8101)">
        <path d="M72.1975 44.1628V21.0698H67.1393C66.0928 21.0698 65.3254 20.7558 64.8021 20.1279C64.2789 19.5 64.0347 18.7326 64.0347 17.8605C64.0347 17.0233 64.3137 16.2907 64.8719 15.6628C65.43 15.0349 66.1626 14.7209 67.1393 14.7209H84.0579C84.9998 14.7209 85.7672 15.0349 86.3254 15.6628C86.8835 16.2907 87.1626 17.0233 87.1626 17.8605C87.1626 18.7675 86.9184 19.5 86.3951 20.1279C85.8719 20.7558 85.1044 21.0698 84.0579 21.0698H79.0696V44.1628C79.0696 45.314 78.7556 46.1861 78.1277 46.814C77.4998 47.4419 76.6626 47.7558 75.5812 47.7558C74.5696 47.7558 73.7323 47.4419 73.1044 46.814C72.5114 46.1512 72.1975 45.2791 72.1975 44.1628Z" fill="#311A8C"/>
        <path d="M105.616 27.0351V43.3956C105.616 44.6863 105.477 45.5932 105.233 46.1514C104.744 47.1979 103.802 47.7211 102.372 47.7211C101.465 47.7211 100.767 47.477 100.314 47.0235C99.8605 46.57 99.5116 45.8374 99.2674 44.8607C98.3953 45.8723 97.4186 46.6398 96.3721 47.1979C95.3256 47.7211 94.1744 48.0002 92.9186 48.0002C89.814 48.0002 87.2326 46.8142 85.1395 44.4072C83.0465 42.0002 82 38.9304 82 35.2328C82 31.6049 83.0465 28.57 85.1744 26.1281C87.3023 23.6863 89.8837 22.4653 92.9535 22.4653C94.2791 22.4653 95.4651 22.7095 96.5465 23.1979C97.6279 23.6863 98.5349 24.4537 99.2674 25.5002C99.3721 24.663 99.7209 24.0002 100.314 23.5118C100.907 22.9886 101.605 22.7444 102.407 22.7444C103.802 22.7444 104.744 23.2328 105.198 24.2095C105.477 24.7677 105.616 25.7095 105.616 27.0351ZM88.593 35.2328C88.593 37.0467 89.0116 38.5467 89.8488 39.8025C90.8256 41.2328 92.1512 41.9653 93.8605 41.9653C95.5 41.9653 96.7558 41.2677 97.7326 39.8374C98.6047 38.5467 99.0233 37.0118 99.0233 35.2328C99.0233 33.4886 98.6047 31.9886 97.7674 30.7328C96.7907 29.2677 95.5 28.5351 93.8605 28.5351C92.2209 28.5351 90.8954 29.2677 89.9186 30.6979C89.0116 31.9537 88.593 33.4886 88.593 35.2328Z" fill="#311A8C"/>
        <path d="M108.941 44.0581V15.6977C108.941 14.5814 109.255 13.7093 109.848 13.0116C110.476 12.3488 111.244 12 112.255 12C113.232 12 114.034 12.3488 114.662 13.0116C115.29 13.6744 115.569 14.5814 115.569 15.6977V24.7326C117.279 23.1977 119.372 22.4302 121.813 22.4302C125.197 22.4302 127.848 23.7907 129.802 26.5116C131.581 28.9884 132.453 31.9884 132.453 35.4767C132.453 38.7558 131.476 41.6163 129.523 44.093C127.43 46.7093 124.813 48 121.604 48C120.348 48 119.162 47.7558 118.046 47.2326C116.93 46.7093 116.093 45.9767 115.5 44.9651C115.255 45.8721 114.872 46.5698 114.348 47.0233C113.825 47.4767 113.093 47.7209 112.186 47.7209C111.209 47.7209 110.407 47.3721 109.779 46.7093C109.22 46.0465 108.941 45.1395 108.941 44.0581ZM115.534 35.0233C115.534 36.8721 115.918 38.407 116.72 39.6628C117.662 41.1628 118.988 41.9302 120.662 41.9302C122.302 41.9302 123.558 41.1977 124.534 39.7674C125.407 38.4767 125.825 36.9767 125.825 35.1977C125.825 33.4186 125.407 31.9535 124.569 30.6977C123.593 29.2326 122.302 28.5 120.662 28.5C119.023 28.5 117.767 29.1279 116.86 30.4186C115.988 31.7442 115.534 33.2791 115.534 35.0233Z" fill="#311A8C"/>
        <path d="M148.953 26.5816C148.953 27.3491 148.709 28.0816 148.256 28.7793C147.802 29.477 147.209 29.8258 146.477 29.8258C146.023 29.8258 144.977 29.5467 143.407 28.9886C142.535 28.6746 141.802 28.5351 141.244 28.5351C139.465 28.5351 138.07 29.2328 137.023 30.5932C136.116 31.8142 135.628 33.3839 135.628 35.2328C135.628 37.0467 136.116 38.5816 137.058 39.8374C138.14 41.2328 139.535 41.9653 141.244 41.9653C141.802 41.9653 142.5 41.8258 143.372 41.5118C144.244 41.2328 145.151 40.9188 146.093 40.57C146.895 40.57 147.558 40.8491 148.116 41.4072C148.674 41.9653 148.953 42.6281 148.953 43.4304C148.953 44.9304 147.907 46.1165 145.814 47.0235C144.209 47.6863 142.57 48.0351 140.86 48.0351C137.372 48.0351 134.512 46.8142 132.314 44.3374C130.116 41.8607 129 38.8258 129 35.2677C129 31.8142 130.116 28.8142 132.349 26.2677C134.581 23.7211 137.407 22.4653 140.86 22.4653C142.744 22.4653 144.419 22.7444 145.884 23.3025C147.942 24.0351 148.953 25.1514 148.953 26.5816Z" fill="url(#paint10_linear_2226_8101)"/>
        <path d="M174.454 27.0351V43.3956C174.454 44.6863 174.314 45.5932 174.07 46.1514C173.582 47.1979 172.64 47.7211 171.209 47.7211C170.303 47.7211 169.605 47.477 169.151 47.0235C168.698 46.57 168.349 45.8374 168.105 44.8607C167.233 45.8723 166.256 46.6398 165.209 47.1979C164.163 47.7211 163.012 48.0002 161.756 48.0002C158.651 48.0002 156.07 46.8142 153.977 44.4072C151.884 42.0002 150.837 38.9304 150.837 35.2328C150.837 31.6049 151.884 28.57 154.012 26.1281C156.14 23.6863 158.721 22.4653 161.791 22.4653C163.116 22.4653 164.303 22.7095 165.384 23.1979C166.465 23.6863 167.372 24.4537 168.105 25.5002C168.209 24.663 168.558 24.0002 169.151 23.5118C169.744 22.9886 170.442 22.7444 171.244 22.7444C172.64 22.7444 173.582 23.2328 174.035 24.2095C174.314 24.7677 174.454 25.7095 174.454 27.0351ZM157.43 35.2328C157.43 37.0467 157.849 38.5467 158.686 39.8025C159.663 41.2328 160.989 41.9653 162.698 41.9653C164.337 41.9653 165.593 41.2677 166.57 39.8374C167.442 38.5467 167.861 37.0118 167.861 35.2328C167.861 33.4886 167.442 31.9886 166.605 30.7328C165.628 29.2677 164.337 28.5351 162.698 28.5351C161.058 28.5351 159.733 29.2677 158.756 30.6979C157.849 31.9537 157.43 33.4886 157.43 35.2328Z" fill="url(#paint11_linear_2226_8101)"/>
    </g>
    <defs>
        <linearGradient id="paint0_linear_2226_8101" x1="9.53345" y1="12.3664" x2="37.0477" y2="17.2179" gradientUnits="userSpaceOnUse">
            <stop stop-color="#EEFBF4"/>
            <stop offset="1" stop-color="#D0D9F2"/>
        </linearGradient>
        <linearGradient id="paint1_linear_2226_8101" x1="11.1371" y1="12.6816" x2="35.4327" y2="16.9656" gradientUnits="userSpaceOnUse">
            <stop stop-color="#D1F0E7"/>
            <stop offset="1" stop-color="#A9E9E7"/>
        </linearGradient>
        <linearGradient id="paint2_linear_2226_8101" x1="10.3245" y1="17.2897" x2="34.1708" y2="21.4945" gradientUnits="userSpaceOnUse">
            <stop stop-color="#8EE77F"/>
            <stop offset="1" stop-color="#07BCDF"/>
        </linearGradient>
        <linearGradient id="paint3_linear_2226_8101" x1="19.3643" y1="20.1777" x2="34.3982" y2="22.8285" gradientUnits="userSpaceOnUse">
            <stop stop-color="#8EE77F"/>
            <stop offset="1" stop-color="#07BCDF"/>
        </linearGradient>
        <linearGradient id="paint4_linear_2226_8101" x1="16.9967" y1="36.079" x2="47.7257" y2="27.8455" gradientUnits="userSpaceOnUse">
            <stop stop-color="#F7B286"/>
            <stop offset="1" stop-color="#F76494"/>
        </linearGradient>
        <linearGradient id="paint5_linear_2226_8101" x1="34.9723" y1="31.2637" x2="30.6601" y2="32.4191" gradientUnits="userSpaceOnUse">
            <stop stop-color="#F76494"/>
            <stop offset="1" stop-color="#F7B286"/>
        </linearGradient>
        <linearGradient id="paint6_linear_2226_8101" x1="5.01564" y1="35.6402" x2="18.1472" y2="27.1182" gradientUnits="userSpaceOnUse">
            <stop stop-color="#5EB4FA"/>
            <stop offset="1" stop-color="#4677F1"/>
        </linearGradient>
        <linearGradient id="paint7_linear_2226_8101" x1="4.76943" y1="30.1095" x2="11.0368" y2="26.0421" gradientUnits="userSpaceOnUse">
            <stop stop-color="white"/>
            <stop offset="1" stop-color="#E6F3FB"/>
        </linearGradient>
        <linearGradient id="paint8_linear_2226_8101" x1="5.94137" y1="31.916" x2="12.2087" y2="27.8486" gradientUnits="userSpaceOnUse">
            <stop stop-color="white"/>
            <stop offset="1" stop-color="#E6F3FB"/>
        </linearGradient>
        <linearGradient id="paint9_linear_2226_8101" x1="10.1759" y1="37.6453" x2="16.1141" y2="33.7915" gradientUnits="userSpaceOnUse">
            <stop stop-color="white"/>
            <stop offset="1" stop-color="#E6F3FB"/>
        </linearGradient>
        <linearGradient id="paint10_linear_2226_8101" x1="138.977" y1="22.4653" x2="138.977" y2="48.0351" gradientUnits="userSpaceOnUse">
            <stop stop-color="#DD3B9C"/>
            <stop offset="0.901042" stop-color="#5105CF"/>
        </linearGradient>
        <linearGradient id="paint11_linear_2226_8101" x1="162.646" y1="22.4653" x2="162.646" y2="48.0002" gradientUnits="userSpaceOnUse">
            <stop stop-color="#DD3B9C"/>
            <stop offset="0.901042" stop-color="#5105CF"/>
        </linearGradient>
        <clipPath id="clip0_2226_8101">
            <rect width="129.698" height="36" fill="white" transform="translate(64 12)"/>
        </clipPath>
    </defs>
</svg>
