<svg width="198" height="180" viewBox="0 0 198 180" fill="none" xmlns="http://www.w3.org/2000/svg">
<path d="M142.74 141.717C138.607 145.949 134.867 148.507 132.111 150.377C104.457 168.879 72.8658 163.466 63.1228 161.695C47.3765 158.743 34.0905 156.676 22.6745 146.342C-3.40537 122.92 -2.12599 73.9093 17.7537 43.5976C20.1157 39.9563 39.897 10.6288 71.5864 6.4954C72.3737 6.39698 72.9642 6.29857 73.4563 6.29857C78.377 5.8065 108.689 3.05089 133.489 23.8163C137.032 26.7688 142.74 32.1816 148.054 40.35C167.245 70.0711 167.344 116.326 142.74 141.717Z" fill="#FBE6FF"/>
<path d="M82.7073 110.323C78.3771 105.402 79.8533 95.5605 82.7073 89.3604C86.0534 82.1761 89.99 82.9634 92.1551 77.157C96.0917 66.4298 84.0851 59.4424 87.3328 48.3215C89.8916 39.169 98.9457 40.4484 101.406 30.2133C103.178 22.8322 99.3394 18.6004 102.882 12.6955C103.178 12.2034 106.622 6.79064 112.035 6.59381C117.448 6.39698 121.679 11.7114 123.549 15.6479C126.895 22.8322 122.27 26.1783 123.057 36.1181C124.14 49.6993 133.292 51.4708 132.013 61.6075C131.029 69.9727 124.533 70.6616 123.549 80.011C122.664 88.6715 127.88 91.1318 126.699 96.9383C124.041 110.027 91.5646 120.361 82.7073 110.323Z" fill="url(#paint0_linear_3252_3297)"/>
<path opacity="0.7" d="M88.8094 118.294C88.8094 118.294 88.7109 118.294 88.7109 118.196C88.7109 118.097 88.7109 118.097 88.8094 118.097C94.3206 116.424 99.3397 113.669 103.473 109.929C107.508 106.386 111.642 102.646 112.724 97.135C113.511 92.9032 112.134 90.246 110.362 86.8015C108.591 83.4554 106.524 79.322 105.933 72.433C105.638 68.4964 105.245 63.5757 107.705 58.4581C109.181 55.4073 110.854 53.9311 112.33 52.6517C113.905 51.2739 115.086 50.1913 115.48 47.8294C116.07 43.9912 114.692 41.0388 113.019 37.6927C111.937 35.626 110.953 33.4609 110.165 30.7053C108 23.1273 110.067 14.27 116.267 4.23177C116.267 4.13336 116.365 4.13336 116.464 4.23177C116.562 4.23177 116.562 4.33018 116.464 4.4286C110.264 14.4669 108.295 23.3242 110.362 30.8037C111.149 33.4609 112.134 35.626 113.216 37.6927C114.889 41.1372 116.365 44.0896 115.676 48.0262C115.283 50.4866 114.003 51.6675 112.429 52.9469C110.953 54.2263 109.28 55.7025 107.902 58.655C105.441 63.7725 105.835 68.5948 106.13 72.5314C106.622 79.322 108.787 83.5538 110.559 86.8015C112.33 90.246 113.807 93.0016 112.921 97.2334C111.838 102.843 107.705 106.583 103.67 110.126C99.3397 113.767 94.419 116.523 88.8094 118.294C88.8094 118.294 88.8094 118.196 88.8094 118.294Z" fill="white"/>
<path opacity="0.7" d="M106.819 61.017C106.721 61.017 106.721 61.017 106.819 61.017C100.225 51.4708 97.9617 43.6961 97.2728 38.7753C96.4855 33.461 97.2728 30.3117 97.2728 30.2133C97.2728 30.1149 97.3712 30.1149 97.3712 30.1149C97.4696 30.1149 97.4696 30.2133 97.4696 30.2133C97.4696 30.2133 96.6823 33.3625 97.4696 38.6769C98.1585 43.5976 100.422 51.3724 106.917 60.8202C106.917 60.9186 106.917 61.017 106.819 61.017Z" fill="white"/>
<path opacity="0.7" d="M106.918 77.9443C106.819 77.9443 106.819 77.9443 106.918 77.9443C106.819 77.8458 106.819 77.7474 106.918 77.7474C112.429 75.0902 116.956 71.7442 120.302 67.6107C123.058 64.3631 125.026 60.6233 126.404 56.6867C128.569 49.7977 127.88 44.2865 127.781 44.2865C127.781 44.1881 127.781 44.1881 127.88 44.1881C127.978 44.1881 127.978 44.1881 127.978 44.2865C127.978 44.3849 128.766 49.8961 126.6 56.7852C125.321 60.8202 123.254 64.5599 120.499 67.8076C116.956 71.941 112.429 75.2871 106.918 77.9443Z" fill="white"/>
<path opacity="0.7" d="M108 106.189C96.5837 99.5954 91.7614 91.427 89.6947 85.8174C87.5296 79.7157 88.0217 75.0902 88.0217 74.9918C88.0217 74.8934 88.1201 74.8934 88.1201 74.8934C88.2185 74.8934 88.2185 74.9918 88.2185 74.9918C88.2185 74.9918 87.7264 79.6173 89.8916 85.719C91.8599 91.3286 96.6822 99.3986 108 105.894C108.098 105.992 108.098 106.091 108 106.189C108 106.189 108.098 106.189 108 106.189Z" fill="white"/>
<path opacity="0.7" d="M110.066 29.3275C110.066 29.3275 109.968 29.3275 110.066 29.3275C109.968 29.2291 109.968 29.1307 109.968 29.1307C118.727 23.3242 121.482 15.7463 122.171 10.4319C123.057 4.62548 121.876 0.0984145 121.778 0.0984145C121.778 2.19973e-08 121.778 0 121.876 0C121.974 0 121.974 2.19973e-08 121.974 0.0984145C121.974 0.0984145 123.254 4.62548 122.368 10.5303C121.679 15.8447 118.923 23.5211 110.066 29.3275C110.066 29.3275 110.165 29.3275 110.066 29.3275Z" fill="white"/>
<path d="M109.378 151.46C108.098 151.558 105.146 150.574 104.555 149.984C100.225 146.244 91.663 139.749 90.8757 133.647C90.7773 132.663 95.1075 130.793 95.5996 129.71C98.0599 127.84 99.0441 127.447 100.619 124.494C105.146 115.932 88.9074 104.516 103.67 96.643C114.495 90.8366 124.927 92.9033 120.302 75.3855C115.676 57.7693 123.549 22.537 144.807 31.3943C157.01 36.5118 148.94 53.7344 156.617 63.871C163.899 73.5157 161.144 83.1603 151.007 91.6239C140.969 100.186 147.858 103.926 153.172 113.373C159.471 124.79 141.165 130.498 132.505 132.367C125.419 134.041 108.787 142.701 109.378 151.46Z" fill="url(#paint1_linear_3252_3297)"/>
<path d="M97.9615 142.307L97.7646 142.111C131.914 116.523 147.169 73.5156 138.607 26.9656L138.902 26.8672C142.937 48.912 141.559 71.0553 134.965 90.8366C127.978 111.602 115.184 129.415 97.9615 142.307Z" fill="#FCFDFE"/>
<path d="M156.223 117.901C144.61 116.424 126.403 119.77 115.578 125.478L115.479 125.282C126.403 119.574 144.61 116.228 156.321 117.704L156.223 117.901Z" fill="#FCFDFE"/>
<path d="M104.654 137.19L104.457 136.993C108.295 131.974 109.378 125.085 107.803 116.72C106.622 110.618 103.965 103.827 100.028 96.4462L100.225 96.3478C104.162 103.63 106.819 110.519 108 116.621C109.673 125.183 108.492 132.072 104.654 137.19Z" fill="#FCFDFE"/>
<path d="M135.752 87.9825L135.556 87.7857C142.248 77.8458 154.058 73.3188 162.718 71.2521L162.816 71.5473C154.156 73.614 142.445 78.1411 135.752 87.9825Z" fill="#FCFDFE"/>
<path d="M140.968 61.017H140.673C139.098 47.6327 129.257 37.3976 123.549 32.4769L123.746 32.28C129.454 37.2992 139.295 47.5343 140.968 61.017Z" fill="#FCFDFE"/>
<path d="M93.1394 15.3528L108.984 147.327C109.181 149.295 107.902 151.066 105.933 151.263L39.8971 158.546C35.8621 158.841 33.5986 156.774 33.4018 154.609L16.6713 14.3686C16.3761 12.3019 18.4428 10.3336 22.4778 10.3336L89.2028 11.7114C91.1711 11.8098 92.9425 13.3845 93.1394 15.3528Z" fill="url(#paint2_linear_3252_3297)"/>
<path d="M96.1907 15.1558L112.134 147.818C112.331 149.787 111.051 151.558 109.083 151.755L40.4881 158.546C38.323 158.742 36.3547 157.168 36.1579 155.101L19.4274 14.0733C19.1322 12.0066 20.8052 10.2351 22.9703 10.3335L92.3525 11.5145C94.124 11.5145 95.8954 13.1875 96.1907 15.1558Z" fill="url(#paint3_linear_3252_3297)"/>
<path d="M94.8128 22.4384L109.575 145.456C109.772 147.326 108.492 148.999 106.721 149.196L42.2595 155.495C40.2912 155.692 38.4214 154.215 38.2245 152.247L22.7735 21.9464C22.5766 19.9781 24.0529 18.4034 26.0212 18.4034L91.1715 19.0923C92.943 19.0923 94.616 20.667 94.8128 22.4384Z" fill="url(#paint4_linear_3252_3297)"/>
<path d="M60.2693 15.0573C60.3677 15.7462 59.8756 16.3367 59.0883 16.3367C58.3994 16.3367 57.7105 15.7462 57.6121 15.0573C57.5137 14.3684 58.0057 13.778 58.7931 13.778C59.5804 13.778 60.1709 14.3684 60.2693 15.0573Z" fill="url(#paint5_linear_3252_3297)"/>
<g opacity="0.3">
<path d="M83.6912 105.008C70.5036 80.6014 50.8208 73.3187 44.8175 48.1246C41.5698 34.5434 43.8333 21.5527 47.4747 10.7272L22.8711 10.3335C20.7059 10.3335 19.1313 12.0065 19.3281 14.0732L36.0586 155.101C36.3538 157.168 38.3221 158.742 40.3888 158.546L94.3199 153.133C94.812 131.383 89.5961 115.932 83.6912 105.008Z" fill="white"/>
</g>
<path d="M140.674 98.1191C136.54 102.351 132.899 106.386 129.454 114.062C128.47 111.602 128.766 112.094 126.404 106.583C125.321 104.024 118.432 105.5 118.235 107.764C118.235 107.764 116.956 123.608 124.337 129.809C131.62 136.009 152.188 110.027 152.188 110.027C158.782 101.072 147.76 92.5095 140.674 98.1191Z" fill="#9BADE0"/>
<path d="M193.621 153.92C185.846 169.076 129.258 163.663 119.515 155.396C112.33 144.866 138.41 139.65 139.001 139.65C151.795 139.256 169.509 140.437 176.004 140.437C191.16 142.799 195.392 148.114 193.621 153.92Z" fill="#092E66"/>
<path d="M138.902 147.523C149.433 149.984 158.782 150.869 170.297 149.098C170.297 149.098 152.68 156.873 152.582 157.168C152.484 157.463 138.902 147.523 138.902 147.523Z" fill="#051733"/>
<path d="M192.341 155.593C181.023 168.19 132.603 166.911 141.953 155.495C150.416 154.412 173.642 148.803 175.61 147.72C182.696 142.012 196.966 148.803 192.341 155.593Z" fill="#092E66"/>
<path d="M185.059 164.647C184.469 162.088 181.615 160.514 178.465 159.53C176.989 161.301 174.922 164.746 174.726 169.962C181.615 171.438 186.043 168.978 185.059 164.647Z" fill="#8FADB7"/>
<path d="M169.706 158.349C169.706 158.349 166.852 157.857 165.966 161.301C165.671 162.482 164.884 164.844 167.639 166.616C170.493 168.19 172.363 169.371 174.725 169.863C174.824 164.647 176.89 161.203 178.465 159.431C174.43 158.152 169.706 158.349 169.706 158.349Z" fill="#7C95A0"/>
<path d="M168.821 158.742C174.332 160.022 171.478 166.911 168.624 166.517C171.675 166.911 113.807 167.009 119.416 149.393C121.582 145.752 128.372 142.504 133.785 144.964C146.48 151.657 158.487 156.282 168.821 158.742Z" fill="#092E66"/>
<path d="M170.888 166.124C170.888 166.124 165.967 165.73 167.64 161.793C169.313 157.857 172.856 160.12 172.856 160.12C172.856 160.12 174.627 164.155 170.888 166.124Z" fill="#7C95A0"/>
<path d="M171.085 166.419C170.986 166.419 170.888 166.32 170.888 166.222C170.79 162.581 172.955 160.219 173.053 160.12C173.152 160.022 173.25 160.022 173.348 160.12C173.447 160.219 173.447 160.317 173.348 160.415C173.348 160.415 171.183 162.777 171.282 166.124C171.38 166.32 171.282 166.419 171.085 166.419Z" fill="white"/>
<path d="M172.462 166.911C172.363 166.911 172.265 166.812 172.265 166.714C172.167 163.073 174.332 160.711 174.43 160.612C174.529 160.514 174.627 160.514 174.725 160.612C174.824 160.711 174.824 160.809 174.725 160.908C174.725 160.908 172.56 163.27 172.659 166.616C172.757 166.812 172.659 166.911 172.462 166.911Z" fill="white"/>
<path d="M173.938 167.305C173.84 167.305 173.742 167.206 173.742 167.108C173.643 163.466 175.808 161.104 175.907 161.006C176.005 160.908 176.103 160.908 176.202 161.006C176.3 161.104 176.3 161.203 176.202 161.301C176.202 161.301 174.037 163.663 174.135 167.009C174.234 167.206 174.135 167.305 173.938 167.305Z" fill="white"/>
<path d="M169.411 166.222C168.23 166.911 138.41 168.289 121.778 157.561C116.366 154.117 119.22 149.098 119.22 149.098C119.22 149.098 123.058 163.565 169.411 166.222Z" fill="#051733"/>
<path d="M166.065 158.644C166.065 158.644 165.966 158.546 166.065 158.644C144.413 152.247 134.572 145.653 134.474 145.555C134.277 145.457 134.277 145.26 134.375 145.063C134.474 144.866 134.67 144.866 134.867 144.964C134.966 145.063 144.807 151.558 166.163 157.955C166.36 158.054 166.458 158.152 166.36 158.349C166.36 158.546 166.163 158.644 166.065 158.644Z" fill="#051733"/>
<path d="M152.385 153.822C152.188 153.822 152.09 153.723 152.09 153.526C152.09 153.33 152.188 153.133 152.385 153.133C152.484 153.133 166.065 150.672 171.379 148.409C171.576 148.31 171.773 148.409 171.871 148.606C171.97 148.803 171.871 148.999 171.674 149.098C166.262 151.263 153.074 153.625 152.385 153.822C152.484 153.822 152.484 153.822 152.385 153.822Z" fill="#051733"/>
<path d="M176.792 140.437C177.284 144.079 151.499 144.964 138.312 139.65C136.343 131.482 129.553 94.281 149.826 94.3794C171.871 94.5762 174.725 130.596 176.792 140.437Z" fill="white"/>
<path d="M119.023 107.665L118.728 103.04L123.55 102.351L125.42 106.484C125.617 107.665 119.22 108.846 119.023 107.665Z" fill="#F7A594"/>
<path d="M123.845 103.04L125.026 95.5604C125.026 95.5604 123.353 95.0683 123.156 97.1351C122.959 99.2018 119.711 100.481 120.499 102.449C121.385 104.319 123.845 103.04 123.845 103.04Z" fill="#F7A594"/>
<path d="M118.924 103.237C118.924 103.237 115.283 97.7255 114.987 94.5763C114.987 93.3953 115.479 93.1 115.479 93.1L123.746 101.17C123.746 101.17 124.238 102.843 123.648 103.532C122.959 104.221 120.597 105.205 118.924 103.237Z" fill="#F7A594"/>
<path d="M124.041 101.268C124.041 101.268 124.139 102.548 123.352 102.351C121.187 101.662 120.99 98.4144 120.99 98.4144L124.041 101.268Z" fill="#CC7767"/>
<path d="M127.289 102.941L111.838 88.6714C111.838 88.6714 111.346 88.6714 110.952 88.8682L127.191 103.729C127.289 103.335 127.289 102.941 127.289 102.941Z" fill="#404040"/>
<path d="M111.051 88.8682C110.854 89.0651 110.657 89.3603 110.854 89.8524C111.248 91.1318 124.829 103.63 126.207 104.122C126.896 104.319 127.191 104.122 127.289 103.729L111.051 88.8682Z" fill="black"/>
<path d="M114.987 93.7889C114.987 93.7889 115.184 92.5095 117.448 94.0842C120.302 95.9541 122.171 99.3986 121.483 100.284C120.695 101.367 114.397 96.3477 114.987 93.7889Z" fill="#F7A594"/>
<path d="M145.693 95.0683C131.128 98.2176 135.064 133.056 136.048 140.634C138.804 141.717 147.661 143.882 151.204 144.472C144.217 127.84 140.575 96.6429 145.693 95.0683Z" fill="#9BADE0"/>
<path d="M154.254 95.5604C152.68 103.434 143.921 103.237 143.822 98.8081C143.822 98.7097 143.822 98.5128 143.822 98.4144L143.134 88.8682L143.035 87.6872L143.822 87.4904L150.711 86.1126H151.007L151.204 86.7031L152.089 89.1635L154.254 95.5604Z" fill="#F7A594"/>
<path d="M154.057 94.8715C151.302 101.367 154.943 135.025 157.502 145.063C164.293 147.326 174.528 143.98 177.283 140.536C175.315 131.383 172.166 99.3002 154.057 94.8715Z" fill="#9BADE0"/>
<path d="M153.368 106.681C152.286 112.488 154.353 122.526 155.927 127.742C160.061 130.793 166.556 129.218 166.556 124.494C166.753 120.262 166.359 115.44 165.375 110.126C164.292 98.0207 153.959 98.1192 153.368 106.681Z" fill="#9BADE0"/>
<path d="M146.972 114.456C142.641 112.881 140.476 119.081 143.626 121.247C151.007 126.266 162.62 132.958 164.588 128.726C167.639 122.329 156.813 117.507 146.972 114.456Z" fill="#9BADE0"/>
<path d="M143.036 119.278L139.886 117.605C137.918 116.031 141.363 112.881 142.839 113.373L145.299 114.948C146.578 116.129 144.807 119.18 143.036 119.278Z" fill="#F7A594"/>
<path d="M140.181 117.704C137.623 117.113 138.508 114.554 139.099 111.504C136.934 102.548 148.448 117.9 140.181 117.704Z" fill="#F7A594"/>
<path d="M141.362 110.323C141.362 110.323 140.477 109.043 138.607 106.091C137.721 106.288 137.327 107.764 138.41 109.043C139.394 110.126 140.87 110.913 141.362 110.323Z" fill="#F7A594"/>
<path d="M138.803 109.535C136.934 108.453 135.556 111.602 136.048 113.964C136.835 117.704 139.591 115.834 140.378 114.85C141.854 113.078 141.067 110.913 138.803 109.535Z" fill="#F7A594"/>
<path d="M153.664 117.015C153.565 117.015 153.467 116.916 153.467 116.818C153.467 116.72 152.089 108.551 153.762 103.04C153.762 102.941 153.959 102.843 154.058 102.843C154.156 102.843 154.254 103.04 154.254 103.138C152.68 108.551 153.959 116.72 153.959 116.72C153.861 116.916 153.762 117.015 153.664 117.015Z" fill="#003331"/>
<path d="M161.439 129.71C157.699 129.71 153.369 127.348 153.074 127.25C152.975 127.151 152.877 127.053 152.975 126.955C153.074 126.856 153.172 126.758 153.271 126.856C153.369 126.856 161.833 131.383 164.883 128.037C167.639 125.085 165.572 112.192 165.572 112.094C165.572 111.996 165.671 111.897 165.769 111.799C165.868 111.799 165.966 111.897 166.064 111.996C166.163 112.488 168.131 125.183 165.277 128.332C164.293 129.317 162.915 129.71 161.439 129.71Z" fill="#003331"/>
<path d="M158.487 118.983C158.388 118.983 158.388 118.983 158.487 118.983C152.975 116.523 146.185 114.358 146.086 114.358C145.988 114.358 145.89 114.161 145.988 114.062C145.988 113.964 146.185 113.865 146.283 113.964C146.382 113.964 153.172 116.129 158.585 118.589C158.683 118.688 158.782 118.786 158.683 118.885C158.585 118.885 158.487 118.983 158.487 118.983Z" fill="white"/>
<path d="M143.823 98.6112C143.626 96.4461 142.445 88.4745 143.823 87.5888L150.712 86.211C152.286 94.8715 146.381 99.2017 143.823 98.6112Z" fill="#D97661"/>
<path d="M153.27 84.538C152.975 91.6238 146.578 97.135 141.854 96.9382C137.13 96.6429 131.324 90.6397 131.717 83.5538C132.012 76.468 137.13 70.8584 143.133 71.1536C149.038 71.4488 153.664 77.4521 153.27 84.538Z" fill="#F7A594"/>
<path d="M146.873 72.2362C140.87 67.3155 136.835 70.76 133.194 74.4013C130.537 76.9601 128.765 78.83 125.911 78.9284C130.438 86.4079 141.854 83.2586 146.086 76.8617C145.988 80.7982 150.121 84.538 153.369 84.6364C154.845 80.4046 152.975 71.252 146.873 72.2362Z" fill="#0E0E0E"/>
<path d="M152.819 87.2098C154.129 86.852 154.902 85.4993 154.544 84.1885C154.186 82.8776 152.834 82.105 151.523 82.4628C150.212 82.8206 149.439 84.1733 149.797 85.4841C150.155 86.795 151.508 87.5676 152.819 87.2098Z" fill="#F7A594"/>
<path d="M139.001 91.8207C138.804 91.8207 138.607 91.8207 138.509 91.7223C137.918 91.3286 138.509 87.5889 138.705 86.5063C138.705 86.4079 138.804 86.4079 138.902 86.4079C139.001 86.4079 139.001 86.5063 139.001 86.6047C138.607 88.7698 138.41 91.3286 138.705 91.5255C139.099 91.8207 140.083 91.3286 140.477 91.0334C140.575 91.0334 140.674 91.0334 140.674 91.0334C140.674 91.1318 140.674 91.2302 140.674 91.2302C140.477 91.2302 139.69 91.8207 139.001 91.8207Z" fill="#BD4A31"/>
<path d="M143.331 85.6205C143.429 86.211 143.823 86.6047 144.02 86.5063C144.315 86.4079 144.413 85.9158 144.315 85.3253C144.217 84.7348 143.823 84.3412 143.626 84.4396C143.331 84.538 143.232 85.0301 143.331 85.6205Z" fill="#0E0E0E"/>
<path d="M134.375 87.8841C134.474 88.3761 134.769 88.7698 135.064 88.7698C135.359 88.6714 135.458 88.2777 135.359 87.6872C135.261 87.1952 134.966 86.8015 134.67 86.8015C134.375 86.8015 134.178 87.2936 134.375 87.8841Z" fill="#0E0E0E"/>
<path d="M143.232 93.2969C143.035 93.2969 142.839 93.2969 142.839 93.2969C142.74 93.2969 142.74 93.1985 142.74 93.1C142.74 93.0016 142.839 93.0016 142.937 93.0016C142.937 93.0016 144.413 93.1985 145.496 92.3127C146.185 91.7222 146.578 90.8365 146.578 89.6555C146.578 89.5571 146.677 89.4587 146.775 89.5571C146.874 89.5571 146.874 89.6555 146.874 89.7539C146.874 91.0333 146.48 92.0175 145.693 92.608C144.709 93.1 143.724 93.2969 143.232 93.2969Z" fill="#803221"/>
<path d="M142.249 84.1444C142.15 84.1444 142.052 84.0459 142.15 83.9475C142.15 83.357 142.544 82.865 143.134 82.6681C143.725 82.4713 144.414 82.6681 144.709 83.1602C144.709 83.2586 144.709 83.357 144.709 83.357C144.611 83.357 144.512 83.357 144.512 83.357C144.217 82.9634 143.725 82.865 143.233 82.9634C142.839 83.0618 142.445 83.357 142.445 83.9475C142.445 84.0459 142.347 84.1444 142.249 84.1444Z" fill="#803221"/>
<path d="M133.686 86.2111C133.686 86.2111 133.588 86.2111 133.686 86.2111C133.588 86.2111 133.489 86.1127 133.588 86.0142C133.686 85.1285 134.178 84.7349 134.67 84.7349C135.261 84.6364 135.753 85.0301 135.95 85.6206C135.95 85.719 135.95 85.8174 135.851 85.8174C135.753 85.8174 135.654 85.8174 135.654 85.719C135.458 85.2269 135.064 85.0301 134.67 85.0301C134.277 85.0301 133.981 85.3253 133.883 86.1127C133.784 86.2111 133.686 86.2111 133.686 86.2111Z" fill="#803221"/>
<path d="M158.289 64.6583H177.48C182.499 64.6583 186.534 60.6233 186.534 55.6042V55.2105C186.534 50.1914 182.499 46.1564 177.48 46.1564H158.289C153.27 46.1564 149.235 50.1914 149.235 55.2105V55.6042C149.235 60.6233 153.27 64.6583 158.289 64.6583Z" fill="#AAE0FF"/>
<path d="M155.436 61.7059V70.0711L163.899 61.509L155.436 61.7059Z" fill="#AAE0FF"/>
<path d="M179.448 57.2772C180.372 57.2772 181.121 56.5281 181.121 55.6041C181.121 54.6801 180.372 53.9311 179.448 53.9311C178.524 53.9311 177.775 54.6801 177.775 55.6041C177.775 56.5281 178.524 57.2772 179.448 57.2772Z" fill="white"/>
<path d="M174.33 57.241C175.229 57.0295 175.787 56.129 175.576 55.2295C175.364 54.3299 174.464 53.7721 173.564 53.9835C172.665 54.195 172.107 55.0955 172.318 55.995C172.53 56.8946 173.43 57.4524 174.33 57.241Z" fill="white"/>
<path d="M168.916 57.2309C169.815 57.0195 170.373 56.1189 170.162 55.2194C169.95 54.3199 169.05 53.7621 168.15 53.9735C167.251 54.1849 166.693 55.0855 166.904 55.985C167.116 56.8845 168.016 57.4423 168.916 57.2309Z" fill="white"/>
<path d="M163.288 57.2603C164.2 57.1123 164.82 56.2529 164.672 55.3408C164.524 54.4287 163.664 53.8094 162.752 53.9574C161.84 54.1054 161.221 54.9648 161.369 55.8769C161.517 56.7889 162.376 57.4083 163.288 57.2603Z" fill="white"/>
<path d="M157.601 57.2772C158.525 57.2772 159.274 56.5281 159.274 55.6041C159.274 54.6801 158.525 53.9311 157.601 53.9311C156.677 53.9311 155.928 54.6801 155.928 55.6041C155.928 56.5281 156.677 57.2772 157.601 57.2772Z" fill="white"/>
<path d="M33.1396 43.7363L88.7594 44.3995" stroke="white" stroke-width="4" stroke-linecap="round"/>
<path d="M38.9766 72.6864L92.6283 73.3783" stroke="white" stroke-width="4" stroke-linecap="round"/>
<path d="M37.2988 58.9314L80.6109 59.2824" stroke="white" stroke-width="4" stroke-linecap="round"/>
<path d="M42.3171 87.3706L78.0756 87.3705" stroke="white" stroke-width="4" stroke-linecap="round"/>
<defs>
<linearGradient id="paint0_linear_3252_3297" x1="89.3239" y1="15.8705" x2="105.468" y2="72.6532" gradientUnits="userSpaceOnUse">
<stop offset="0.00359712" stop-color="#E38DDD"/>
<stop offset="1" stop-color="#9571F6"/>
</linearGradient>
<linearGradient id="paint1_linear_3252_3297" x1="115.31" y1="36.8433" x2="149.38" y2="254.644" gradientUnits="userSpaceOnUse">
<stop stop-color="#FF9085"/>
<stop offset="1" stop-color="#FB6FBB"/>
</linearGradient>
<linearGradient id="paint2_linear_3252_3297" x1="62.053" y1="81.0547" x2="35.986" y2="83.8984" gradientUnits="userSpaceOnUse">
<stop stop-color="#444B8C"/>
<stop offset="0.9964" stop-color="#26264F"/>
</linearGradient>
<linearGradient id="paint3_linear_3252_3297" x1="85.021" y1="15.3474" x2="20.5647" y2="234.784" gradientUnits="userSpaceOnUse">
<stop stop-color="#444B8C"/>
<stop offset="0.9964" stop-color="#26264F"/>
</linearGradient>
<linearGradient id="paint4_linear_3252_3297" x1="56.6494" y1="68.1504" x2="118.454" y2="187.897" gradientUnits="userSpaceOnUse">
<stop stop-color="#FFC444"/>
<stop offset="0.9964" stop-color="#F36F56"/>
</linearGradient>
<linearGradient id="paint5_linear_3252_3297" x1="60.8675" y1="9.94245" x2="-14.8861" y2="215.109" gradientUnits="userSpaceOnUse">
<stop stop-color="#FFC444"/>
<stop offset="0.9964" stop-color="#F36F56"/>
</linearGradient>
</defs>
</svg>
