<svg width="92" height="31" viewBox="0 0 92 31" fill="none" xmlns="http://www.w3.org/2000/svg">
<g clip-path="url(#clip0_3216_2068)">
<path d="M6.83134 26.8022V7.5581H2.61625C1.74416 7.5581 1.10463 7.29647 0.668584 6.77322C0.23254 6.24996 0.0290527 5.61043 0.0290527 4.88369C0.0290527 4.18602 0.26161 3.57556 0.726724 3.05231C1.19184 2.52905 1.8023 2.26743 2.61625 2.26743H16.715C17.4999 2.26743 18.1394 2.52905 18.6045 3.05231C19.0697 3.57556 19.3022 4.18602 19.3022 4.88369C19.3022 5.6395 19.0987 6.24996 18.6627 6.77322C18.2266 7.29647 17.5871 7.5581 16.715 7.5581H12.5581V26.8022C12.5581 27.7615 12.2964 28.4882 11.7732 29.0115C11.2499 29.5347 10.5523 29.7963 9.6511 29.7963C8.80808 29.7963 8.11041 29.5347 7.58715 29.0115C7.09297 28.4591 6.83134 27.7324 6.83134 26.8022Z" fill="#311A8C"/>
<path d="M34.6801 12.5292V26.1628C34.6801 27.2384 34.5639 27.9942 34.3604 28.4593C33.9534 29.3314 33.1685 29.7675 31.9767 29.7675C31.2208 29.7675 30.6395 29.564 30.2615 29.1861C29.8836 28.8082 29.5929 28.1977 29.3895 27.3838C28.6627 28.2268 27.8488 28.8663 26.9767 29.3314C26.1046 29.7675 25.1453 30 24.0988 30C21.5116 30 19.3604 29.0117 17.6163 27.0059C15.8721 25.0001 15 22.4419 15 19.3605C15 16.3373 15.8721 13.8083 17.6453 11.7734C19.4186 9.73851 21.5697 8.72107 24.1279 8.72107C25.2325 8.72107 26.2209 8.92456 27.122 9.33153C28.0232 9.73851 28.779 10.378 29.3895 11.2501C29.4767 10.5525 29.7674 10.0001 30.2615 9.59316C30.7557 9.15711 31.3371 8.95363 32.0057 8.95363C33.1685 8.95363 33.9534 9.3606 34.3313 10.1746C34.5639 10.6397 34.6801 11.4245 34.6801 12.5292ZM20.4942 19.3605C20.4942 20.8722 20.843 22.1222 21.5407 23.1687C22.3546 24.3605 23.4593 24.971 24.8837 24.971C26.2499 24.971 27.2964 24.3896 28.1104 23.1977C28.8371 22.1222 29.186 20.8431 29.186 19.3605C29.186 17.9071 28.8371 16.6571 28.1395 15.6106C27.3255 14.3896 26.2499 13.7792 24.8837 13.7792C23.5174 13.7792 22.4128 14.3896 21.5988 15.5815C20.843 16.628 20.4942 17.9071 20.4942 19.3605Z" fill="#311A8C"/>
<path d="M37.4512 26.715V3.08138C37.4512 2.15115 37.7128 1.42441 38.207 0.843019C38.7302 0.290696 39.3698 0 40.2128 0C41.0267 0 41.6953 0.290696 42.2186 0.843019C42.7418 1.39534 42.9744 2.15115 42.9744 3.08138V10.6104C44.3988 9.33135 46.143 8.69182 48.1779 8.69182C50.9976 8.69182 53.2069 9.82553 54.8348 12.093C56.3174 14.1569 57.0441 16.6569 57.0441 19.5639C57.0441 22.2964 56.2301 24.6801 54.6022 26.744C52.8581 28.9243 50.6778 29.9998 48.0034 29.9998C46.9569 29.9998 45.9686 29.7964 45.0383 29.3603C44.1081 28.9243 43.4104 28.3138 42.9163 27.4708C42.7128 28.2266 42.393 28.808 41.957 29.1859C41.5209 29.5638 40.9105 29.7673 40.1546 29.7673C39.3407 29.7673 38.6721 29.4766 38.1488 28.9243C37.6837 28.3719 37.4512 27.6161 37.4512 26.715ZM42.9453 19.1859C42.9453 20.7266 43.2651 22.0057 43.9337 23.0522C44.7186 24.3022 45.8232 24.9417 47.2186 24.9417C48.5848 24.9417 49.6313 24.3313 50.4453 23.1394C51.172 22.0638 51.5209 20.8138 51.5209 19.3313C51.5209 17.8487 51.172 16.6278 50.4744 15.5813C49.6604 14.3604 48.5848 13.7499 47.2186 13.7499C45.8523 13.7499 44.8058 14.2732 44.05 15.3488C43.3232 16.4534 42.9453 17.7325 42.9453 19.1859Z" fill="#311A8C"/>
<path d="M70.6718 12.1513C70.6718 12.7908 70.4683 13.4013 70.0904 13.9827C69.7125 14.5641 69.2183 14.8548 68.6078 14.8548C68.2299 14.8548 67.3578 14.6222 66.0497 14.1571C65.323 13.8955 64.7125 13.7792 64.2474 13.7792C62.7648 13.7792 61.602 14.3606 60.73 15.4943C59.9741 16.5117 59.5672 17.8199 59.5672 19.3605C59.5672 20.8722 59.9741 22.1512 60.759 23.1977C61.6602 24.3605 62.823 24.971 64.2474 24.971C64.7125 24.971 65.2939 24.8547 66.0206 24.5931C66.7474 24.3605 67.5032 24.0989 68.2881 23.8082C68.9567 23.8082 69.509 24.0408 69.9741 24.5059C70.4392 24.971 70.6718 25.5233 70.6718 26.1919C70.6718 27.4419 69.7997 28.4303 68.0555 29.1861C66.7183 29.7384 65.352 30.0291 63.9276 30.0291C61.0207 30.0291 58.6369 29.0117 56.8056 26.9477C54.9742 24.8838 54.0439 22.3547 54.0439 19.3896C54.0439 16.5117 54.9742 14.0117 56.8346 11.8897C58.6951 9.76758 61.0497 8.72107 63.9276 8.72107C65.4974 8.72107 66.8927 8.95363 68.1136 9.41874C69.8287 10.0292 70.6718 10.9594 70.6718 12.1513Z" fill="url(#paint0_linear_3216_2068)"/>
<path d="M91.9216 12.5292V26.1628C91.9216 27.2384 91.8053 27.9942 91.6018 28.4593C91.1948 29.3314 90.41 29.7675 89.2181 29.7675C88.4623 29.7675 87.8809 29.564 87.503 29.1861C87.1251 28.8082 86.8344 28.1977 86.6309 27.3838C85.9042 28.2268 85.0902 28.8663 84.2181 29.3314C83.346 29.7675 82.3867 30 81.3402 30C78.753 30 76.6019 29.0117 74.8577 27.0059C73.1135 25.0001 72.2415 22.4419 72.2415 19.3605C72.2415 16.3373 73.1135 13.8083 74.8868 11.7734C76.66 9.73851 78.8112 8.72107 81.3693 8.72107C82.474 8.72107 83.4623 8.92456 84.3635 9.33153C85.2646 9.73851 86.0205 10.378 86.6309 11.2501C86.7181 10.5525 87.0088 10.0001 87.503 9.59316C87.9972 9.15711 88.5786 8.95363 89.2472 8.95363C90.41 8.95363 91.1948 9.3606 91.5728 10.1746C91.8053 10.6397 91.9216 11.4245 91.9216 12.5292ZM77.7356 19.3605C77.7356 20.8722 78.0844 22.1222 78.7821 23.1687C79.5961 24.3605 80.7007 24.971 82.1251 24.971C83.4914 24.971 84.5379 24.3896 85.3519 23.1977C86.0786 22.1222 86.4274 20.8431 86.4274 19.3605C86.4274 17.9071 86.0786 16.6571 85.3809 15.6106C84.567 14.3896 83.4914 13.7792 82.1251 13.7792C80.7589 13.7792 79.6542 14.3896 78.8403 15.5815C78.0844 16.628 77.7356 17.9071 77.7356 19.3605Z" fill="url(#paint1_linear_3216_2068)"/>
</g>
<defs>
<linearGradient id="paint0_linear_3216_2068" x1="62.3579" y1="8.72107" x2="62.3579" y2="30.0291" gradientUnits="userSpaceOnUse">
<stop stop-color="#DD3B9C"/>
<stop offset="0.901042" stop-color="#5105CF"/>
</linearGradient>
<linearGradient id="paint1_linear_3216_2068" x1="82.0815" y1="8.72107" x2="82.0815" y2="30" gradientUnits="userSpaceOnUse">
<stop stop-color="#DD3B9C"/>
<stop offset="0.901042" stop-color="#5105CF"/>
</linearGradient>
<clipPath id="clip0_3216_2068">
<rect width="92" height="31" fill="white"/>
</clipPath>
</defs>
</svg>
