<svg width="24" height="32" viewBox="0 0 24 32" fill="none" xmlns="http://www.w3.org/2000/svg">
<path d="M3.69199 10.0108L6.76914 16.029H0L3.69199 10.0108Z" fill="#FFECB2"/>
<path d="M4.1857 10.9763L3.69199 10.0108L0 16.029H1.08587L4.1857 10.9763Z" fill="#EFD99C"/>
<path d="M6.76914 16.0295L12.4134 32.0002L8.89964 27.4791L8.76951 27.3112L4.87944 22.3069L0 16.0295H6.76914Z" fill="#FFC230"/>
<path d="M10.5188 28.3064L10.3887 28.1385L6.4985 23.1341L1.61907 16.8568H7.06153L6.76914 16.0295H0L4.87944 22.3069L8.76951 27.3112L8.89964 27.4791L12.4134 32.0002L11.5991 29.6963L10.5188 28.3064Z" fill="#EAAA28"/>
<path d="M23.9995 16.0295L19.378 22.3995L15.8264 27.2949L15.6099 27.5937L12.4131 32.0002L17.2302 16.0295H23.9995Z" fill="#FFC230"/>
<path d="M17.806 16.7603H23.4693L23.9995 16.0295H17.2302L12.4131 32.0002L13.7759 30.1216L17.806 16.7603Z" fill="#EAAA28"/>
<path d="M20.3076 10.0108L23.9997 16.029H17.2305L20.3076 10.0108Z" fill="#FFECB2"/>
<path d="M20.7927 10.8014L20.3076 10.0108L17.2305 16.029H18.1196L20.7927 10.8014Z" fill="#EFD99C"/>
<path d="M20.3077 10.0108L17.2305 16.029L11.6924 10.0108H20.3077Z" fill="#F78F4B"/>
<path d="M13.3191 10.714H19.9481L20.3077 10.0108H11.6924L17.2305 16.029L17.5804 15.3447L13.3191 10.714Z" fill="#E27D44"/>
<path d="M11.6908 10.0108L6.76757 16.029L3.69043 10.0108H11.6908Z" fill="#F78F4B"/>
<path d="M4.87085 10.7554H11.0817L11.6908 10.0108H3.69043L6.76757 16.029L7.25966 15.4274L4.87085 10.7554Z" fill="#E27D44"/>
<path d="M11.6918 10.0108L17.2299 16.029H6.76855L11.6918 10.0108Z" fill="#FFC230"/>
<path d="M12.2406 10.6072L11.6918 10.0108L6.76855 16.029H7.80536L12.2406 10.6072Z" fill="#EAAA28"/>
<path d="M17.2299 16.0295L12.4128 32.0002L6.76855 16.0295H17.2299Z" fill="#F78F4B"/>
<path d="M7.89599 16.8292H16.9886L17.2299 16.0295H6.76855L12.4128 32.0002L12.8017 30.7107L7.89599 16.8292Z" fill="#F78F4B"/>
<path d="M11.6061 6.3565C11.2881 6.3565 11.0303 6.10953 11.0303 5.80499V0.551517C11.0303 0.246969 11.2881 0 11.6061 0C11.9242 0 12.1819 0.246969 12.1819 0.551517V5.80499C12.1819 6.10953 11.9242 6.3565 11.6061 6.3565Z" fill="#FFC230"/>
<path d="M6.90386 7.32434C6.70567 7.32434 6.51289 7.22628 6.4059 7.05068L4.53267 4.38496C4.37237 4.12188 4.46519 3.78413 4.73985 3.6307C5.01497 3.47727 5.36726 3.56628 5.52745 3.82914L7.40067 6.49486C7.56098 6.75793 7.46816 7.09568 7.19349 7.24911C7.10206 7.30008 7.00221 7.32434 6.90386 7.32434Z" fill="#FFC230"/>
<path d="M15.4837 6.79483C15.4324 6.61146 15.4814 6.40773 15.6308 6.2633L17.8343 3.84031C18.0581 3.62391 18.4227 3.62237 18.6486 3.83677C18.8745 4.05159 18.8759 4.40055 18.6523 4.61679L16.4488 7.03978C16.225 7.25618 15.8603 7.25772 15.6345 7.04332C15.5595 6.97191 15.5091 6.88582 15.4837 6.79483Z" fill="#FFC230"/>
</svg>
