<svg width="22" height="22" viewBox="0 0 22 22" fill="none" xmlns="http://www.w3.org/2000/svg">
<path d="M19.25 13.75V4.58333C19.25 3.57081 18.4292 2.75 17.4167 2.75H4.58333C3.57081 2.75 2.75 3.57081 2.75 4.58333V17.4167C2.75 18.4292 3.57081 19.25 4.58333 19.25H13.75M19.25 13.75V13.9073C19.25 14.3935 19.0569 14.8598 18.713 15.2037L15.2037 18.713C14.8598 19.0569 14.3935 19.25 13.9073 19.25H13.75M19.25 13.75H15.5833C14.5708 13.75 13.75 14.5708 13.75 15.5833V19.25M6.41667 6.41667H15.5833M6.41667 10.0833H15.5833M6.41667 13.75H10.0833" stroke="#333333" stroke-width="2" stroke-linecap="round" stroke-linejoin="round"/>
</svg>
