<svg width="150" height="150" viewBox="0 0 150 150" fill="none"
    xmlns="http://www.w3.org/2000/svg">
    <rect x="0" y="0" width="150" height="150" rx="6" fill="#EFFFEF" />
    <g clip-path="url(#clip0_2132_1578)">
        <path d="M51.4546 69.2698H58.696V83.8466H51.4546C49.4797 83.8466 47.7869 82.2478 47.7869 80.1789V72.9375C47.7869 70.8685 49.4797 69.2698 51.4546 69.2698Z" fill="#C6F479"/>
        <path d="M82.3951 58.4547V94.5676C82.3951 95.8842 81.7368 97.1068 80.6083 97.7651C79.4797 98.4234 78.0691 98.4234 76.9406 97.7651C76.7525 97.671 76.6584 97.577 76.5644 97.4829L58.696 83.7525V69.2698L76.4703 55.5394C77.5989 54.693 79.0095 54.5049 80.3261 55.1632C81.5487 55.8215 82.3951 57.0441 82.3951 58.4547Z" fill="#8CCA3D"/>
        <path d="M76.9406 69.2697V97.6709C76.7525 97.5769 76.6584 97.4828 76.5644 97.3888L58.696 83.7524V75.8527L71.0158 66.3543C72.1443 65.5079 73.555 65.3198 74.8716 65.9781C76.0942 66.6364 76.9406 67.9531 76.9406 69.2697Z" fill="#C6F479"/>
        <path d="M51.4545 85.6331H58.1317L75.4357 98.8933C77.1285 100.116 79.2915 100.398 81.1724 99.4576C83.0533 98.5172 84.1818 96.6363 84.1818 94.5673V58.4545C84.1818 56.3855 82.9592 54.5046 81.1724 53.5642C79.3856 52.6237 77.0345 52.9059 75.4357 54.1284L58.1317 67.3886H51.4545C48.4451 67.3886 46 69.8338 46 72.8432V80.0846C46 83.188 48.4451 85.6331 51.4545 85.6331ZM77.5987 57.0438C78.163 56.6676 78.9154 56.5736 79.4796 56.8557C80.1379 57.1378 80.5141 57.7962 80.5141 58.4545V94.5673C80.5141 95.2256 80.1379 95.8839 79.4796 96.1661C78.8213 96.4482 78.163 96.3541 77.5987 95.978L60.4828 82.8118V70.1159L77.5987 57.0438ZM49.6677 72.8432C49.6677 71.8087 50.5141 71.0563 51.4545 71.0563H56.9091V81.9654H51.4545C50.4201 81.9654 49.6677 81.119 49.6677 80.1786V72.8432Z" fill="#3358DC"/>
        <path fill-rule="evenodd" clip-rule="evenodd" d="M89.9177 71.3162C89.0409 71.8699 88.764 73.0697 89.3178 73.9465C89.8715 74.8695 90.1946 75.9308 90.1946 76.9922C90.1946 78.0536 89.8715 79.115 89.3178 80.0379C88.7179 80.9608 88.9947 82.1606 89.9177 82.7144C90.7945 83.2682 91.9943 82.9913 92.548 82.1145C93.5171 80.5917 94.0247 78.8381 94.0247 77.0384C94.0247 75.2386 93.5171 73.4851 92.548 71.9622C91.9943 70.9931 90.7945 70.7162 89.9177 71.3162Z" fill="#3358DC"/>
        <path fill-rule="evenodd" clip-rule="evenodd" d="M98.9647 66.054C98.3362 65.9397 97.7076 65.9968 97.1933 66.3397C96.0505 67.0826 95.7076 68.5111 96.3933 69.654C97.8219 71.9397 98.5647 74.5683 98.5647 77.1968C98.5647 79.8254 97.8219 82.5111 96.3933 84.7397C95.7076 85.8254 96.0505 87.3111 97.1362 87.9968C98.2219 88.6826 99.7076 88.3397 100.393 87.254C102.279 84.2254 103.308 80.7397 103.308 77.1397C103.308 73.5397 102.279 70.054 100.393 67.0254C100.108 66.5683 99.5933 66.2254 98.9647 66.054Z" fill="#3358DC"/>
    </g>
    <defs>
        <clipPath id="clip0_2132_1578">
            <rect width="60" height="47.0219" fill="white" transform="translate(46 53)"/>
        </clipPath>
    </defs>
</svg>
