<svg width="150" height="150" viewBox="0 0 150 150" fill="none" xmlns="http://www.w3.org/2000/svg">
<rect width="150" height="150" rx="6" fill="white"/>
<path d="M46 96.992L80.3384 103V48L46 54.008V96.992Z" fill="#006941"/>
<path d="M103.54 54.0081H81.9993V96.9921H103.54V54.0081Z" fill="#006941"/>
<path d="M87.4211 58.3552H81.9993V64.2655H87.4211V58.3552Z" fill="white"/>
<path d="M87.4211 67.8313H81.9993V73.7416H87.4211V67.8313Z" fill="white"/>
<path d="M87.4211 77.2585H81.9993V83.1688H87.4211V77.2585Z" fill="white"/>
<path d="M87.4211 86.7346H81.9993V92.6449H87.4211V86.7346Z" fill="white"/>
<path d="M99.6323 58.3552H90.1562V64.2655H99.6323V58.3552Z" fill="white"/>
<path d="M99.6323 67.8313H90.1562V73.7416H99.6323V67.8313Z" fill="white"/>
<path d="M99.6323 77.2585H90.1562V83.1688H99.6323V77.2585Z" fill="white"/>
<path d="M99.6323 86.7346H90.1562V92.6449H99.6323V86.7346Z" fill="white"/>
<path d="M69.2992 66.708H65.3916L62.412 71.9345L59.4813 66.708H55.5737L60.4582 75.4513L55.0852 85.0251H58.9928L62.412 78.9194L65.8801 85.0251H69.7877L64.3658 75.4513L69.2992 66.708Z" fill="white"/>
</svg>
