<svg width="55" height="53" viewBox="0 0 55 53" fill="none" xmlns="http://www.w3.org/2000/svg">
<path d="M0 46.8294L32.8226 52.5722V0L0 5.74278V46.8294Z" fill="#006941"/>
<path d="M55.0001 5.74292H34.4102V46.8295H55.0001V5.74292Z" fill="#006941"/>
<path d="M39.5927 9.89819H34.4102V15.5476H39.5927V9.89819Z" fill="white"/>
<path d="M39.5927 18.9558H34.4102V24.6052H39.5927V18.9558Z" fill="white"/>
<path d="M39.5927 27.967H34.4102V33.6164H39.5927V27.967Z" fill="white"/>
<path d="M39.5927 37.0247H34.4102V42.6741H39.5927V37.0247Z" fill="white"/>
<path d="M51.2648 9.89819H42.207V15.5476H51.2648V9.89819Z" fill="white"/>
<path d="M51.2648 18.9558H42.207V24.6052H51.2648V18.9558Z" fill="white"/>
<path d="M51.2648 27.967H42.207V33.6164H51.2648V27.967Z" fill="white"/>
<path d="M51.2648 37.0247H42.207V42.6741H51.2648V37.0247Z" fill="white"/>
<path d="M22.2707 17.8821H18.5355L15.6875 22.8778L12.8861 17.8821H9.15098L13.8199 26.2395L8.68408 35.3906H12.4192L15.6875 29.5544L19.0024 35.3906H22.7376L17.555 26.2395L22.2707 17.8821Z" fill="white"/>
</svg>
