<svg width="150" height="150" viewBox="0 0 150 150" fill="none" xmlns="http://www.w3.org/2000/svg">
<rect width="150" height="150" rx="6" fill="white"/>
<path d="M83.9063 48H55.4241C54.6384 48 54 48.6384 54 49.9152V102.018C54 102.362 54.6384 103 55.4241 103H94.7589C95.5446 103 96.183 102.362 96.183 102.018V60.7679C96.183 60.0804 96.0848 59.8839 95.9375 59.6875L84.4955 48.2455C84.3482 48.0982 84.1027 48 83.9063 48Z" fill="#FCEAC8"/>
<path d="M84.3972 48.1475V59.7859H96.0356L84.3972 48.1475Z" fill="#B2AFA4"/>
<path d="M65.7366 60.7678H59.8437C59.3035 60.7678 58.8616 60.3258 58.8616 59.7856C58.8616 59.2454 59.3035 58.8035 59.8437 58.8035H65.7366C66.2768 58.8035 66.7187 59.2454 66.7187 59.7856C66.7187 60.3258 66.2768 60.7678 65.7366 60.7678Z" fill="#5A4833"/>
<path d="M79.683 88.6113H59.8928C59.3526 88.6113 58.9106 88.1693 58.9106 87.6291C58.9106 87.0889 59.3526 86.647 59.8928 86.647H79.7321C80.2723 86.647 80.7142 87.0889 80.7142 87.6291C80.6651 88.2184 80.2231 88.6113 79.683 88.6113Z" fill="#5A4833"/>
<path d="M71.6294 95.5849H59.8928C59.3526 95.5849 58.9106 95.1429 58.9106 94.6027C58.9106 94.0626 59.3526 93.6206 59.8928 93.6206H71.6294C72.1696 93.6206 72.6115 94.0626 72.6115 94.6027C72.6115 95.1429 72.1696 95.5849 71.6294 95.5849Z" fill="#5A4833"/>
<path d="M68.683 67.7411H59.8437C59.3035 67.7411 58.8616 67.2992 58.8616 66.759C58.8616 66.2188 59.3035 65.7769 59.8437 65.7769H68.683C69.2232 65.7769 69.6651 66.2188 69.6651 66.759C69.6651 67.2992 69.2232 67.7411 68.683 67.7411Z" fill="#5A4833"/>
<path d="M90.29 67.7409H73.3972C72.857 67.7409 72.415 67.2989 72.415 66.7588C72.415 66.2186 72.857 65.7766 73.3972 65.7766H90.29C90.8302 65.7766 91.2722 66.2186 91.2722 66.7588C91.2722 67.2989 90.8302 67.7409 90.29 67.7409Z" fill="#5A4833"/>
<path d="M90.0446 74.7143H59.8437C59.3035 74.7143 58.8616 74.2723 58.8616 73.7321C58.8616 73.192 59.3035 72.75 59.8437 72.75H90.0446C90.5848 72.75 91.0267 73.192 91.0267 73.7321C91.0267 74.2723 90.5848 74.7143 90.0446 74.7143Z" fill="#5A4833"/>
<path d="M90.29 81.6874H60.04C59.4998 81.6874 59.0579 81.2455 59.0579 80.7053C59.0579 80.1651 59.4998 79.7231 60.04 79.7231H90.29C90.8302 79.7231 91.2721 80.1651 91.2721 80.7053C91.2721 81.2455 90.8302 81.6874 90.29 81.6874Z" fill="#5A4833"/>
</svg>
