<svg width="43" height="55" viewBox="0 0 43 55" fill="none" xmlns="http://www.w3.org/2000/svg">
<path d="M29.9063 0H1.42411C0.638394 0 0 0.638394 0 1.91518V54.0179C0 54.3616 0.638394 55 1.42411 55H40.7589C41.5446 55 42.183 54.3616 42.183 54.0179V12.7679C42.183 12.0804 42.0848 11.8839 41.9375 11.6875L30.4955 0.245536C30.3482 0.0982143 30.1027 0 29.9063 0Z" fill="#FCEAC8"/>
<path d="M30.3972 0.147461V11.7859H42.0356L30.3972 0.147461Z" fill="#B2AFA4"/>
<path d="M11.7366 12.7678H5.84372C5.30354 12.7678 4.86157 12.3258 4.86157 11.7856C4.86157 11.2454 5.30354 10.8035 5.84372 10.8035H11.7366C12.2768 10.8035 12.7187 11.2454 12.7187 11.7856C12.7187 12.3258 12.2768 12.7678 11.7366 12.7678Z" fill="#5A4833"/>
<path d="M25.683 40.6113H5.89279C5.35261 40.6113 4.91064 40.1693 4.91064 39.6291C4.91064 39.0889 5.35261 38.647 5.89279 38.647H25.7321C26.2723 38.647 26.7142 39.0889 26.7142 39.6291C26.6651 40.2184 26.2231 40.6113 25.683 40.6113Z" fill="#5A4833"/>
<path d="M17.6294 47.5849H5.89279C5.35261 47.5849 4.91064 47.1429 4.91064 46.6027C4.91064 46.0626 5.35261 45.6206 5.89279 45.6206H17.6294C18.1696 45.6206 18.6115 46.0626 18.6115 46.6027C18.6115 47.1429 18.1696 47.5849 17.6294 47.5849Z" fill="#5A4833"/>
<path d="M14.683 19.7411H5.84372C5.30354 19.7411 4.86157 19.2992 4.86157 18.759C4.86157 18.2188 5.30354 17.7769 5.84372 17.7769H14.683C15.2232 17.7769 15.6651 18.2188 15.6651 18.759C15.6651 19.2992 15.2232 19.7411 14.683 19.7411Z" fill="#5A4833"/>
<path d="M36.29 19.7409H19.3972C18.857 19.7409 18.415 19.2989 18.415 18.7588C18.415 18.2186 18.857 17.7766 19.3972 17.7766H36.29C36.8302 17.7766 37.2722 18.2186 37.2722 18.7588C37.2722 19.2989 36.8302 19.7409 36.29 19.7409Z" fill="#5A4833"/>
<path d="M36.0446 26.7143H5.84372C5.30354 26.7143 4.86157 26.2723 4.86157 25.7321C4.86157 25.192 5.30354 24.75 5.84372 24.75H36.0446C36.5848 24.75 37.0267 25.192 37.0267 25.7321C37.0267 26.2723 36.5848 26.7143 36.0446 26.7143Z" fill="#5A4833"/>
<path d="M36.29 33.6874H6.04C5.49983 33.6874 5.05786 33.2455 5.05786 32.7053C5.05786 32.1651 5.49983 31.7231 6.04 31.7231H36.29C36.8302 31.7231 37.2721 32.1651 37.2721 32.7053C37.2721 33.2455 36.8302 33.6874 36.29 33.6874Z" fill="#5A4833"/>
</svg>
