<svg width="150" height="150" viewBox="0 0 150 150" fill="none" xmlns="http://www.w3.org/2000/svg">
<rect width="150" height="150" rx="6" fill="#FDFF95"/>
<path opacity="0.1" d="M116.895 112.062C116.895 112.642 98.354 113.124 75.4355 113.124C52.5171 113.124 33.9763 112.642 33.9763 112.062C33.9763 111.483 52.5171 111 75.4355 111C98.354 111 116.895 111.451 116.895 112.062Z" fill="#0C0C0C"/>
<path d="M75.5079 62.2479C76.1452 59.5671 74.4887 56.8772 71.8078 56.2398C69.127 55.6025 66.4371 57.2591 65.7998 59.9399C65.1624 62.6207 66.819 65.3106 69.4998 65.948C72.1806 66.5853 74.8705 64.9287 75.5079 62.2479Z" fill="#1C507E"/>
<path d="M74.8135 83.2191C73.88 83.4444 72.9465 82.8972 72.7212 81.9637L70.2105 71.6311C69.9851 70.6976 70.5324 69.7642 71.4658 69.5388C72.3993 69.3135 73.3328 69.8607 73.5581 70.7942L76.0688 81.1268C76.3263 82.0281 75.7469 82.9938 74.8135 83.2191Z" fill="#1C507E"/>
<path d="M74.9422 96.6739C73.9443 97.5108 72.4637 97.3499 71.6267 96.352L64.4486 87.6288C63.6117 86.631 63.7727 85.1503 64.7705 84.3134C65.7684 83.4765 67.2491 83.6374 68.086 84.6353L75.2641 93.3584C76.101 94.3563 75.94 95.837 74.9422 96.6739Z" fill="#1C507E"/>
<path d="M65.511 106.233C64.4487 105.461 64.2234 104.012 64.9638 102.95L71.5303 93.7764C72.3028 92.7141 73.7513 92.4888 74.8135 93.2291C75.8758 94.0017 76.1011 95.4502 75.3608 96.5124L68.7942 105.686C68.0217 106.748 66.5732 106.974 65.511 106.233Z" fill="#1C507E"/>
<path d="M56.3372 98.6696C55.1784 98.1224 54.6634 96.7061 55.2106 95.5473L60.9081 83.2512C61.4553 82.0924 62.0347 83.6696 63.1935 84.2168C64.3523 84.764 64.8673 86.1803 64.3201 87.3391L59.4918 97.543C58.9124 98.734 57.5282 99.249 56.3372 98.6696Z" fill="#1C507E"/>
<path d="M48.3542 107.071C47.3885 106.201 47.2598 104.721 48.1289 103.755L55.5323 95.2573C56.4014 94.2916 57.8821 94.1629 58.8478 95.032C59.8134 95.9011 59.9422 97.3817 59.0731 98.3474L51.6697 106.845C50.8327 107.811 49.3521 107.907 48.3542 107.071Z" fill="#1C507E"/>
<path d="M80.2534 70.8906C81.0903 71.3412 81.4122 72.4035 80.9616 73.2404L76.0689 82.3498C75.6182 83.1867 74.556 83.5086 73.7191 83.058C72.8822 82.6073 72.5603 81.5451 73.0109 80.7082L77.9037 71.5987C78.3543 70.7618 79.4165 70.4399 80.2534 70.8906Z" fill="#1C507E"/>
<path d="M53.923 73.3047C53.6011 72.4034 54.1161 71.4056 55.0174 71.1159L64.835 67.8004C65.7363 67.4785 66.7342 67.9936 67.0239 68.8949C67.3457 69.7961 66.8307 70.794 65.9294 71.0837L56.1118 74.3991C55.2106 74.6888 54.2127 74.206 53.923 73.3047Z" fill="#1C507E"/>
<path d="M46.8414 81.3198C46.1655 80.6438 46.1655 79.5494 46.8414 78.8734L54.1805 71.5988C54.8565 70.9228 55.9509 70.9228 56.6269 71.5988C57.3028 72.2747 57.3028 73.3692 56.6269 74.0451L49.2878 81.3198C48.5796 81.9958 47.4852 81.9958 46.8414 81.3198Z" fill="#1C507E"/>
<path d="M67.6998 88.0475L61.6483 86.6634C60.7148 86.438 60.1354 85.5046 60.3286 84.5711L63.9015 69.0883C64.1269 68.1548 65.0603 67.5754 65.9938 67.7685L72.0453 69.1526C72.9788 69.378 73.5582 70.3114 73.3651 71.2449L69.7921 86.7277C69.599 87.6612 68.6655 88.2406 67.6998 88.0475Z" fill="#1C507E"/>
<path d="M90.3699 62.1026C93.1254 62.1026 95.3592 59.8688 95.3592 57.1133C95.3592 54.3578 93.1254 52.124 90.3699 52.124C87.6144 52.124 85.3806 54.3578 85.3806 57.1133C85.3806 59.8688 87.6144 62.1026 90.3699 62.1026Z" fill="#E1E4E8"/>
<path d="M94.5222 79.2269C93.5887 79.4522 92.6553 78.905 92.4299 77.9715L89.9192 67.6389C89.6939 66.7055 90.2411 65.772 91.1746 65.5467C92.108 65.3213 93.0415 65.8685 93.2668 66.802L95.7776 77.1346C96.0029 78.0681 95.4235 79.0016 94.5222 79.2269Z" fill="#E1E4E8"/>
<path d="M94.6187 92.6817C93.6209 93.5186 92.1402 93.3577 91.3033 92.3598L84.1251 83.6366C83.2882 82.6388 83.4492 81.1581 84.447 80.3212C85.4449 79.4843 86.9256 79.6452 87.7625 80.6431L94.9406 89.3663C95.7775 90.3641 95.6487 91.877 94.6187 92.6817Z" fill="#E1E4E8"/>
<path d="M85.1875 102.242C84.1253 101.47 83.8999 100.021 84.6403 98.959L91.2068 89.7851C91.9793 88.7229 93.4278 88.4976 94.4901 89.2379C95.5523 90.0105 95.7776 91.459 95.0373 92.5212L88.4707 101.695C87.7304 102.757 86.2497 103.015 85.1875 102.242Z" fill="#E1E4E8"/>
<path d="M76.0138 94.7097C74.855 94.1624 74.3399 92.7461 74.8871 91.5873L80.5846 79.2912C81.1318 78.1324 81.7112 79.7097 82.87 80.2569C84.0288 80.8041 84.5438 82.2204 83.9966 83.3792L79.1683 93.583C78.6211 94.774 77.2047 95.2569 76.0138 94.7097Z" fill="#E1E4E8"/>
<path d="M68.0307 103.079C67.0651 102.21 66.9363 100.73 67.8054 99.7639L75.2088 91.2661C76.0779 90.3004 77.5586 90.1716 78.5243 91.0407C79.4899 91.9098 79.6187 93.3905 78.7496 94.3562L71.3462 102.854C70.5093 103.82 69.0286 103.948 68.0307 103.079Z" fill="#E1E4E8"/>
<path d="M99.93 66.8984C100.767 67.349 101.089 68.4113 100.638 69.2482L95.7454 78.3576C95.2948 79.1945 94.2325 79.5164 93.3956 79.0658C92.5587 78.6151 92.2368 77.5529 92.6875 76.716L97.5802 67.6066C98.0308 66.7696 99.093 66.4478 99.93 66.8984Z" fill="#E1E4E8"/>
<path d="M73.5995 69.3125C73.2776 68.4113 73.7926 67.4134 74.6939 67.1237L84.5115 63.8082C85.4128 63.4864 86.4107 64.0014 86.7004 64.9027C87.0223 65.804 86.5072 66.8018 85.6059 67.0915L75.7884 70.407C74.8871 70.7289 73.8892 70.246 73.5995 69.3125Z" fill="#E1E4E8"/>
<path d="M66.518 77.3276C65.842 76.6517 65.842 75.5572 66.518 74.8813L73.857 67.6066C74.533 66.9306 75.6274 66.9306 76.3034 67.6066C76.9793 68.2825 76.9793 69.377 76.3034 70.0529L68.9643 77.3276C68.2883 78.0358 67.1939 78.0358 66.518 77.3276Z" fill="#E1E4E8"/>
<path d="M87.4086 84.0553L81.3571 82.6712C80.4236 82.4459 79.8442 81.5124 80.0373 80.5789L83.6103 65.0961C83.8356 64.1626 84.7691 63.5832 85.7026 63.7763L91.7541 65.1605C92.6875 65.3858 93.2669 66.3193 93.0738 67.2527L89.5008 82.7356C89.2755 83.7012 88.342 84.2806 87.4086 84.0553Z" fill="#E1E4E8"/>
<path d="M57.3139 63.8097C59.6109 62.043 60.0408 58.7486 58.274 56.4516C56.5073 54.1546 53.213 53.7247 50.916 55.4915C48.6189 57.2582 48.1891 60.5525 49.9558 62.8496C51.7225 65.1466 55.0169 65.5765 57.3139 63.8097Z" fill="#FE7066"/>
<path d="M59.4916 82.4139C58.526 82.7358 57.4959 82.2208 57.174 81.2873L53.6976 70.9869C53.3757 70.0212 53.8908 68.9912 54.8242 68.6693C55.7899 68.3474 56.8199 68.8624 57.1418 69.7959L60.6182 80.1285C60.9401 81.062 60.4251 82.0921 59.4916 82.4139Z" fill="#FE7066"/>
<path d="M59.6204 95.8686C58.6548 96.8021 57.0775 96.8021 56.144 95.8042L47.9037 87.3064C46.9702 86.3407 46.9702 84.7634 47.9681 83.83C48.9337 82.8965 50.511 82.8965 51.4445 83.8943L59.6848 92.36C60.6505 93.3579 60.6183 94.9029 59.6204 95.8686Z" fill="#FE7066"/>
<path d="M64.2877 107.392C63.0646 107.971 61.5839 107.456 61.0045 106.233L55.8865 95.5464C55.3071 94.3232 55.8221 92.8426 57.0453 92.2632C58.2684 91.6838 59.7491 92.1988 60.3285 93.422L65.4465 104.109C66.0581 105.332 65.5109 106.813 64.2877 107.392Z" fill="#FE7066"/>
<path d="M40.8864 100.891C39.5988 100.408 38.9551 98.9914 39.4379 97.7039L45.425 82.0601C45.9079 80.7725 46.0366 83.4764 47.3242 83.9592C48.6117 84.442 49.2555 85.8584 48.7727 87.1459L44.0731 99.442C43.5903 100.73 42.1739 101.373 40.8864 100.891Z" fill="#FE7066"/>
<path d="M28.1396 93.9699C28.5903 92.6824 30.0066 92.0064 31.2941 92.4892L42.4315 96.4807C43.719 96.9313 44.395 98.3476 43.9122 99.6352C43.4615 100.923 42.0452 101.599 40.7577 101.116L29.6525 97.1244C28.3649 96.6738 27.689 95.2575 28.1396 93.9699Z" fill="#FE7066"/>
<path d="M71.5302 77.9397C71.7555 78.9054 71.1439 79.9032 70.1783 80.1285L59.5881 82.5749C58.6225 82.8002 57.6246 82.1886 57.3993 81.223C57.174 80.2573 57.7856 79.2594 58.7512 79.0341L69.3413 76.5878C70.3392 76.3624 71.3049 76.974 71.5302 77.9397Z" fill="#FE7066"/>
<path d="M36.8629 74.2698C36.4766 73.3363 36.895 72.2741 37.7963 71.8878L47.7749 67.5745C48.7083 67.1883 49.7706 67.6067 50.1568 68.508C50.5431 69.4415 50.1247 70.5037 49.2234 70.89L39.2448 75.2033C38.3114 75.5895 37.2491 75.1711 36.8629 74.2698Z" fill="#FE7066"/>
<path d="M42.1418 85.7937C41.1761 86.0834 40.1782 85.5684 39.8564 84.6027L36.5731 74.2701C36.2834 73.3045 36.7984 72.3066 37.7641 71.9847C38.7297 71.695 39.7276 72.21 40.0495 73.1757L43.3327 83.5083C43.6224 84.474 43.1074 85.4718 42.1418 85.7937Z" fill="#FE7066"/>
<path d="M52.3777 88.304L45.9077 87.3705C44.9099 87.2096 44.2017 86.3083 44.3627 85.3104L47.0665 68.9263C47.2275 67.9284 48.1288 67.2203 49.1266 67.3812L55.5966 68.3147C56.5944 68.4757 57.3026 69.3769 57.1417 70.3748L54.4378 86.7589C54.309 87.7568 53.3756 88.4327 52.3777 88.304Z" fill="#FE7066"/>
<path d="M107.376 62.1387C109.425 60.0897 109.425 56.7677 107.376 54.7187C105.327 52.6697 102.005 52.6697 99.9556 54.7187C97.9066 56.7677 97.9066 60.0897 99.9556 62.1387C102.005 64.1877 105.327 64.1877 107.376 62.1387Z" fill="#FCAC49"/>
<path d="M109.039 81.1903C108.074 81.5122 107.044 80.9972 106.722 80.0637L103.245 69.7955C102.924 68.8298 103.439 67.7998 104.372 67.4779C105.338 67.156 106.368 67.671 106.69 68.6045L110.166 78.8728C110.488 79.8384 109.973 80.8685 109.039 81.1903Z" fill="#FCAC49"/>
<path d="M109.201 94.6459C108.235 95.5794 106.658 95.5794 105.724 94.5815L97.4838 86.0837C96.5503 85.118 96.5503 83.5408 97.5481 82.6073C98.5138 81.6738 100.091 81.6738 101.025 82.6717L109.265 91.1695C110.198 92.103 110.166 93.6803 109.201 94.6459Z" fill="#FCAC49"/>
<path d="M113.836 106.169C112.612 106.749 111.132 106.234 110.552 105.01L105.434 94.3238C104.855 93.1006 105.37 91.6199 106.593 91.0405C107.816 90.4611 109.297 90.9761 109.876 92.1993L114.994 102.886C115.606 104.109 115.091 105.558 113.836 106.169Z" fill="#FCAC49"/>
<path d="M90.4342 99.6669C89.1467 99.1841 88.5029 97.7678 88.9857 96.4802L94.9729 80.8364C95.4557 79.5489 95.5845 82.2527 96.872 82.7356C98.1596 83.2184 98.8033 84.6347 98.3205 85.9223L93.6531 98.2184C93.1381 99.506 91.7218 100.15 90.4342 99.6669Z" fill="#FCAC49"/>
<path d="M77.7197 92.7463C78.1704 91.4587 79.5867 90.7828 80.8742 91.2656L92.0116 95.257C93.2991 95.7077 93.9751 97.124 93.4922 98.4115C93.0416 99.6991 91.6253 100.375 90.3377 99.8922L79.2004 95.9008C77.9128 95.4502 77.2369 94.0339 77.7197 92.7463Z" fill="#FCAC49"/>
<path d="M121.078 76.7165C121.303 77.6822 120.692 78.68 119.726 78.9053L109.136 81.3517C108.17 81.577 107.172 80.9654 106.947 79.9998C106.722 79.0341 107.333 78.0362 108.299 77.8109L118.889 75.3646C119.887 75.1071 120.853 75.7186 121.078 76.7165Z" fill="#FCAC49"/>
<path d="M86.4107 73.0149C86.0244 72.0814 86.4429 71.0192 87.3442 70.6329L97.3227 66.3196C98.2562 65.9334 99.3184 66.3518 99.7047 67.2531C100.091 68.1866 99.6725 69.2488 98.7712 69.6351L88.7927 73.9484C87.8592 74.3669 86.797 73.9484 86.4107 73.0149Z" fill="#FCAC49"/>
<path d="M91.6896 84.5701C90.724 84.8598 89.7261 84.3448 89.4042 83.3791L86.1209 73.0465C85.8312 72.0808 86.3463 71.083 87.3119 70.7611C88.2776 70.4714 89.2755 70.9864 89.5973 71.9521L92.8806 82.2847C93.1703 83.2182 92.6553 84.2482 91.6896 84.5701Z" fill="#FCAC49"/>
<path d="M101.926 87.0813L95.4558 86.1479C94.458 85.9869 93.7498 85.0856 93.9108 84.0878L96.6146 67.7036C96.7756 66.7058 97.6769 65.9976 98.6747 66.1586L105.145 67.0921C106.143 67.253 106.851 68.1543 106.69 69.1521L103.986 85.5363C103.857 86.5341 102.924 87.2101 101.926 87.0813Z" fill="#FCAC49"/>
</svg>
