<svg width="150" height="150" viewBox="0 0 150 150" fill="none" xmlns="http://www.w3.org/2000/svg">
<g clip-path="url(#clip0_2305_7864)">
<path d="M6 0H144C147.3 0 150 2.7 150 6V144C150 147.3 147.3 150 144 150H6C2.7 150 0 147.3 0 144V6C0 2.7 2.7 0 6 0Z" fill="#FDFF95"/>
<path opacity="0.1" d="M116.9 112.1C116.9 112.7 98.3999 113.2 75.3999 113.2C52.4999 113.2 33.8999 112.7 33.8999 112.1C33.8999 111.5 52.3999 111 75.3999 111C98.3999 111 116.9 111.5 116.9 112.1Z" fill="#0C0C0C"/>
<path d="M95 64.5C97.3 62.7 97.7 59.4 96 57.1C94.2 54.8 90.9 54.4 88.6 56.1C86.3 57.9 85.9 61.2 87.6 63.5C89.4 65.9 92.7 66.3 95 64.5Z" fill="#2668A3"/>
<path d="M109.2 78.6001C109 77.6001 108 77.0001 107 77.2001L97.8001 79.3001L94.8001 70.4001C94.7001 69.7001 94.1001 69.1001 93.3001 69.0001L86.8001 68.1001C86.5001 68.1001 86.2001 68.1001 86.0001 68.2001C85.8001 68.2001 85.6001 68.3001 85.5001 68.3001L75.5001 72.6001C75.3001 72.7001 75.1001 72.8001 75.0001 72.9001C74.4001 73.3001 74.1001 74.1001 74.3001 74.9001L77.6001 85.2001C77.9001 86.2001 78.9001 86.7001 79.9001 86.4001C80.9001 86.1001 81.4001 85.1001 81.1001 84.1001L78.3001 75.2001L84.3001 72.6001L82.2001 85.0001L77.9001 96.2001L69.0001 93.2001C67.7001 92.7001 66.3001 93.4001 65.8001 94.7001C65.3001 96.0001 66.0001 97.4001 67.3001 97.9001L78.4001 101.9C79.5001 102.3 80.8001 101.9 81.3001 100.9C81.4001 100.7 81.6001 100.5 81.7001 100.3L86.1001 88.8001L93.5001 96.4001L98.6001 107.1C99.2001 108.3 100.7 108.8 101.9 108.3C103.1 107.7 103.7 106.2 103.1 105L98.0001 94.1001L97.9001 94.0001C97.8001 93.7001 97.6001 93.3001 97.3001 93.1001L92.0001 87.7001C92.0001 87.6001 92.0001 87.6001 92.0001 87.5001L93.5001 78.4001L94.7001 82.0001C94.9001 82.6001 95.4001 83.0001 95.9001 83.2001C96.3001 83.4001 96.7001 83.4001 97.1001 83.3001L107.7 80.9001C108.8 80.6001 109.4 79.6001 109.2 78.6001Z" fill="#2668A3"/>
<g opacity="0.6">
<path d="M87.8001 64.5C90.1001 62.7 90.5001 59.4 88.8001 57.1C87.0001 54.8 83.7001 54.4 81.4001 56.1C79.1001 57.9 78.7001 61.2 80.4001 63.5C82.2001 65.9 85.5001 66.3 87.8001 64.5Z" fill="#2668A3"/>
<path d="M102 78.6001C101.8 77.6001 100.8 77.0001 99.8001 77.2001L90.6001 79.3001L87.6001 70.4001C87.5001 69.7001 86.9001 69.1001 86.1001 69.0001L79.6001 68.1001C79.3001 68.1001 79.0001 68.1001 78.8001 68.2001C78.6001 68.2001 78.4001 68.3001 78.3001 68.3001L68.3001 72.6001C68.1001 72.7001 67.9001 72.8001 67.8001 72.9001C67.2001 73.3001 66.9001 74.1001 67.1001 74.9001L70.4001 85.2001C70.7001 86.2001 71.7001 86.7001 72.7001 86.4001C73.7001 86.1001 74.2001 85.1001 73.9001 84.1001L71.0001 75.4001L77.0001 72.8001L75.0001 85.2001L70.7001 96.4001L61.8001 93.2001C60.5001 92.7001 59.1001 93.4001 58.6001 94.7001C58.1001 96.0001 58.8001 97.4001 60.1001 97.9001L71.2001 101.9C72.3001 102.3 73.6001 101.9 74.1001 100.9C74.2001 100.7 74.4001 100.5 74.5001 100.3L78.9001 88.8001L86.3001 96.4001L91.4001 107.1C92.0001 108.3 93.5001 108.8 94.7001 108.3C95.9001 107.7 96.5001 106.2 95.9001 105L90.8001 94.3001L90.7001 94.2001C90.6001 93.9001 90.4001 93.5001 90.1001 93.3001L84.8001 87.9001C84.8001 87.8001 84.8001 87.8001 84.8001 87.7001L86.3001 78.6001L87.5001 82.2001C87.7001 82.8001 88.2001 83.2001 88.7001 83.4001C89.1001 83.6001 89.5001 83.6001 89.9001 83.5001L100.5 81.1001C101.6 80.6001 102.2 79.6001 102 78.6001Z" fill="#2668A3"/>
</g>
<g opacity="0.3">
<path d="M76.8001 64.5C79.1001 62.7 79.5001 59.4 77.8001 57.1C76.0001 54.8 72.7001 54.4 70.4001 56.1C68.1001 57.9 67.7001 61.2 69.4001 63.5C71.2001 65.9 74.5001 66.3 76.8001 64.5Z" fill="#2668A3"/>
<path d="M91.0001 78.6001C90.8001 77.6001 89.8001 77.0001 88.8001 77.2001L79.6001 79.3001L76.6001 70.4001C76.5001 69.7001 75.9001 69.1001 75.1001 69.0001L68.6001 68.1001C68.3001 68.1001 68.0001 68.1001 67.8001 68.2001C67.6001 68.2001 67.4001 68.3001 67.3001 68.3001L57.3001 72.6001C57.1001 72.7001 56.9001 72.8001 56.8001 72.9001C56.2001 73.3001 55.9001 74.1001 56.1001 74.9001L59.4001 85.2001C59.7001 86.2001 60.7001 86.7001 61.7001 86.4001C62.7001 86.1001 63.2001 85.1001 62.9001 84.1001L60.0001 75.4001L66.0001 72.8001L64.0001 85.2001L59.7001 96.4001L50.8001 93.2001C49.5001 92.7001 48.1001 93.4001 47.6001 94.7001C47.1001 96.0001 47.8001 97.4001 49.1001 97.9001L60.2001 101.9C61.3001 102.3 62.6001 101.9 63.1001 100.9C63.2001 100.7 63.4001 100.5 63.5001 100.3L67.9001 88.8001L75.3001 96.4001L80.4001 107.1C81.0001 108.3 82.5001 108.8 83.7001 108.3C84.9001 107.7 85.5001 106.2 84.9001 105L79.8001 94.3001L79.7001 94.2001C79.6001 93.9001 79.4001 93.5001 79.1001 93.3001L73.8001 87.9001C73.8001 87.8001 73.8001 87.8001 73.8001 87.7001L75.3001 78.6001L76.5001 82.2001C76.7001 82.8001 77.2001 83.2001 77.7001 83.4001C78.1001 83.6001 78.5001 83.6001 78.9001 83.5001L89.5001 81.1001C90.6001 80.6001 91.2001 79.6001 91.0001 78.6001Z" fill="#2668A3"/>
</g>
<g opacity="0.1">
<path d="M65 64.5C67.3 62.7 67.7 59.4 66 57.1C64.2 54.8 60.9 54.4 58.6 56.1C56.3 57.9 55.9 61.2 57.6 63.5C59.4 65.9 62.7 66.3 65 64.5Z" fill="#2668A3"/>
<path d="M79.2001 78.6001C79.0001 77.6001 78.0001 77.0001 77.0001 77.2001L67.8001 79.3001L64.8001 70.4001C64.7001 69.7001 64.1001 69.1001 63.3001 69.0001L56.8001 68.1001C56.5001 68.1001 56.2001 68.1001 56.0001 68.2001C55.8001 68.2001 55.6001 68.3001 55.5001 68.3001L45.5001 72.6001C45.3001 72.7001 45.1001 72.8001 45.0001 72.9001C44.4001 73.3001 44.1001 74.1001 44.3001 74.9001L47.6001 85.2001C47.9001 86.2001 48.9001 86.7001 49.9001 86.4001C50.9001 86.1001 51.4001 85.1001 51.1001 84.1001L48.3001 75.2001L54.3001 72.6001L52.2001 85.0001L47.9001 96.2001L39.0001 93.2001C37.7001 92.7001 36.3001 93.4001 35.8001 94.7001C35.3001 96.0001 36.0001 97.4001 37.3001 97.9001L48.4001 101.9C49.5001 102.3 50.8001 101.9 51.3001 100.9C51.4001 100.7 51.6001 100.5 51.7001 100.3L56.1001 88.8001L63.5001 96.4001L68.6001 107.1C69.2001 108.3 70.7001 108.8 71.9001 108.3C73.1001 107.7 73.7001 106.2 73.1001 105L68.0001 94.1001L67.9001 94.0001C67.8001 93.7001 67.6001 93.3001 67.3001 93.1001L62.0001 87.7001C62.0001 87.6001 62.0001 87.6001 62.0001 87.5001L63.5001 78.4001L64.7001 82.0001C64.9001 82.6001 65.4001 83.0001 65.9001 83.2001C66.3001 83.4001 66.7001 83.4001 67.1001 83.3001L77.7001 80.9001C78.8001 80.6001 79.4001 79.6001 79.2001 78.6001Z" fill="#2668A3"/>
</g>
</g>
<defs>
<clipPath id="clip0_2305_7864">
<rect width="150" height="150" fill="white"/>
</clipPath>
</defs>
</svg>
