<svg width="150" height="150" viewBox="0 0 150 150" fill="none"
    xmlns="http://www.w3.org/2000/svg">
    <rect x="0" y="0" width="150" height="150" rx="6" fill="#F1FFFE"/>
    <g clip-path="url(#clip0_2132_1583)">
        <path d="M51.9591 61.1836L97.2652 49.0612C98.6734 48.6938 100.204 49.5509 100.571 50.9591L109.51 84.204C109.877 85.6122 109.02 87.0816 107.612 87.4489L62.3061 99.5714C60.8979 99.9387 59.3673 99.0816 58.9999 97.6734L50.0612 64.4285C49.6938 63.0203 50.5509 61.551 51.9591 61.1836Z" fill="#E2E4E5"/>
        <path d="M55.7551 63.8775L95.3673 53.2857C96.4693 52.9795 97.5714 53.653 97.8775 54.7551L105.286 82.3061C105.592 83.4081 104.918 84.5102 103.816 84.8163L64.2653 95.3469C63.1632 95.653 62.0612 94.9796 61.7551 93.8775L54.2857 66.3877C53.9795 65.2857 54.653 64.1836 55.7551 63.8775Z" fill="#218CB1"/>
        <path d="M60.1631 60.7551H107.306C108.837 60.7551 110 61.9796 110 63.449V98.4082C110 99.9388 108.775 101.102 107.306 101.102H60.1631C58.6325 101.102 57.4692 99.8776 57.4692 98.4082V63.3878C57.5305 61.9184 58.6937 60.7551 60.1631 60.7551Z" fill="#F2F1F1"/>
        <path d="M63.3468 64.4897H104.306C105.408 64.4897 106.388 65.4081 106.388 66.5714V95.2857C106.388 96.3877 105.469 97.3673 104.306 97.3673H63.3468C62.2447 97.3673 61.2651 96.4489 61.2651 95.2857V66.5714C61.2651 65.4081 62.1223 64.4897 63.3468 64.4897Z" fill="#B3E2F4"/>
        <path d="M61.2651 66.5714V76.6122C61.7549 76.6734 62.1835 76.7347 62.6733 76.7347C68.6121 76.7347 73.4488 71.8979 73.4488 65.9592C73.4488 65.4694 73.3876 65.0408 73.3264 64.551H63.3468C62.1223 64.4898 61.2651 65.4081 61.2651 66.5714Z" fill="#EDC55D"/>
        <path d="M64.6937 87.449C63.5304 87.449 62.3672 87.5714 61.2651 87.6939V95.2245C61.2651 96.3265 62.1835 97.3061 63.3468 97.3061H78.959C79.0815 96.8775 79.0815 96.5102 79.0815 96.0816C79.0815 91.3061 72.6529 87.449 64.6937 87.449Z" fill="#36A364"/>
        <path d="M97.3877 83.2244C84.5306 83.2244 74.0612 89.5305 73.9387 97.306H104.245C105.347 97.306 106.326 96.3876 106.326 95.2244V84.3264C103.571 83.6529 100.51 83.2244 97.3877 83.2244Z" fill="#56B96D"/>
    </g>
    <defs>
        <clipPath id="clip0_2132_1583">
            <rect width="60" height="52.0408" fill="white" transform="translate(50 49)"/>
        </clipPath>
    </defs>
</svg>
