<svg width="150" height="150" viewBox="0 0 150 150" fill="none" xmlns="http://www.w3.org/2000/svg">
<rect width="150" height="150" rx="6" fill="white"/>
<g clip-path="url(#clip0_2464_1873)">
<path d="M71.6449 81.1481C70.9299 81.1481 70.2149 80.8748 69.67 80.33C64.5602 75.2201 64.5602 66.9066 69.67 61.7967L79.9825 51.4842C82.4575 49.0092 85.7489 47.6462 89.25 47.6462C92.7511 47.6462 96.0408 49.0092 98.5175 51.4842C103.627 56.5941 103.627 64.9076 98.5175 70.0175L93.803 74.732C92.7116 75.8234 90.9447 75.8234 89.8533 74.732C88.7619 73.6406 88.7619 71.8737 89.8533 70.7823L94.5678 66.0678C97.5 63.1356 97.5 58.3661 94.5678 55.4339C93.1482 54.0142 91.2592 53.2322 89.25 53.2322C87.2408 53.2322 85.3536 54.0142 83.9322 55.4339L73.6197 65.7464C70.6875 68.6786 70.6875 73.4481 73.6197 76.3803C74.7111 77.4717 74.7111 79.2386 73.6197 80.33C73.0749 80.8748 72.3599 81.1481 71.6449 81.1481Z" fill="#0038FF"/>
<path d="M61.75 101.356C58.2489 101.356 54.9575 99.9926 52.4825 97.5176C47.3727 92.4078 47.3727 84.0942 52.4825 78.9843L57.1971 74.2698C58.2885 73.1784 60.0571 73.1784 61.1467 74.2698C62.2364 75.3612 62.2382 77.1281 61.1467 78.2195L56.4322 82.934C53.5 85.8662 53.5 90.6357 56.4322 93.5679C57.8519 94.9876 59.7408 95.7696 61.75 95.7696C63.7592 95.7696 65.6464 94.9876 67.0678 93.5679L77.3803 83.2554C80.3125 80.3232 80.3125 75.5537 77.3803 72.6215C76.2889 71.5301 76.2889 69.7632 77.3803 68.6718C78.4717 67.5804 80.2386 67.5804 81.33 68.6718C86.4399 73.7817 86.4399 82.0953 81.33 87.2051L71.0175 97.5176C68.5425 99.9926 65.2511 101.356 61.75 101.356Z" fill="#0038FF"/>
</g>
<defs>
<clipPath id="clip0_2464_1873">
<rect width="55" height="55" fill="white" transform="translate(48 47)"/>
</clipPath>
</defs>
</svg>
