<svg width="48" height="55" viewBox="0 0 48 55" fill="none" xmlns="http://www.w3.org/2000/svg">
<path fill-rule="evenodd" clip-rule="evenodd" d="M47.135 14.465V50.655C47.135 53.075 45.21 55 42.79 55H4.345C1.925 55 0 53.075 0 50.655V4.345C0 1.925 1.925 0 4.345 0H32.615L47.135 14.465Z" fill="#CB0606"/>
<path fill-rule="evenodd" clip-rule="evenodd" d="M47.1349 13.64V15.455H35.2549C32.7799 15.455 31.6799 13.475 31.6799 11V0H33.4949L47.1349 13.64Z" fill="#FB8D8D"/>
<path d="M8.30493 21.7801C8.35993 21.7801 8.41493 21.7801 8.46993 21.7801C8.52493 21.7801 8.63493 21.7801 8.74493 21.7801C8.85493 21.7801 8.96493 21.7801 9.07493 21.7801C9.18493 21.7801 9.29493 21.7801 9.51493 21.7801C9.67993 21.7801 9.84493 21.7801 9.89993 21.7801C11.9349 21.7251 13.3649 21.7251 14.0799 21.7251C15.0699 21.7251 15.8949 21.8901 16.4999 22.1651C17.1049 22.4401 17.5999 22.8801 17.9299 23.5401C18.3149 24.3101 18.4799 25.2451 18.4799 26.3451V26.9501C18.4799 28.1051 18.3699 28.9301 18.1499 29.3151C17.8199 30.0851 17.3249 30.6351 16.7199 30.9651C16.0599 31.2951 15.2349 31.4601 14.1349 31.4601C14.0799 31.4601 14.0249 31.4601 13.9149 31.4601C13.6399 31.4601 13.2549 31.4601 12.7049 31.4051C12.0999 31.3501 11.7149 31.2951 11.7149 31.2951V35.2551H8.35993V21.7801H8.30493ZM13.5849 28.9851H13.6399C14.0799 28.9851 14.3549 28.9301 14.5199 28.8751C14.6849 28.8201 14.8499 28.7101 14.9599 28.6001C15.1249 28.4351 15.2349 28.2701 15.2899 28.0501C15.3449 27.8851 15.3999 27.5551 15.3999 27.2251V26.0151C15.3999 25.3001 15.2899 24.8601 15.0699 24.5851C14.9599 24.4751 14.7399 24.3651 14.5749 24.3101C14.3549 24.2551 14.1899 24.2001 14.0249 24.2001C13.8599 24.2001 13.6399 24.2001 13.4199 24.2001C12.9799 24.2001 12.4299 24.2001 11.7149 24.2551V28.8751C12.4849 28.9301 13.1449 28.9851 13.5849 28.9851Z" fill="#FFFEF9"/>
<path d="M19.6899 21.78C20.6249 21.78 21.3949 21.78 21.9999 21.78C22.2199 21.78 22.8249 21.78 23.7599 21.78C23.9799 21.78 24.1449 21.78 24.3099 21.78C24.4749 21.78 24.5849 21.78 24.6949 21.78C24.8049 21.78 24.8049 21.78 24.8599 21.78C27.5549 21.78 29.3149 22.605 30.1399 24.255C30.6349 25.19 30.9099 26.51 30.9099 28.16V29.04C30.9099 30.58 30.7449 31.68 30.4699 32.34C29.6999 34.375 27.8299 35.365 24.9149 35.365C23.5399 35.365 22.3299 35.365 21.2299 35.31C21.1749 35.31 21.0649 35.31 20.8449 35.31C20.6799 35.31 20.5149 35.31 20.4599 35.31C20.3499 35.31 20.2949 35.31 20.1849 35.31C20.0749 35.31 19.9649 35.31 19.9099 35.31C19.8549 35.31 19.7999 35.31 19.7449 35.31V21.78H19.6899ZM24.2549 32.615H24.5849C25.1899 32.615 25.6849 32.56 26.0699 32.45C26.4549 32.34 26.7299 32.175 26.9499 31.9C27.1699 31.625 27.3349 31.35 27.3899 31.02C27.4449 30.69 27.4999 30.195 27.4999 29.645V27.555C27.4999 26.18 27.2799 25.3 26.8949 24.915C26.5099 24.53 25.7399 24.31 24.4749 24.31C24.0899 24.31 23.5949 24.365 23.0449 24.42V32.56C23.3749 32.615 23.7599 32.615 24.2549 32.615Z" fill="#FFFEF9"/>
<path d="M32.1199 21.78H39.9299V24.365H35.5299V27.225H39.0499L38.7749 29.645H35.5299V35.2H32.0649V21.78H32.1199Z" fill="#FFFEF9"/>
</svg>
