<svg width="150" height="150" viewBox="0 0 150 150" fill="none" xmlns="http://www.w3.org/2000/svg">
<rect width="150" height="150" rx="6" fill="white"/>
<path fill-rule="evenodd" clip-rule="evenodd" d="M98.135 62.465V98.655C98.135 101.075 96.21 103 93.79 103H55.345C52.925 103 51 101.075 51 98.655V52.345C51 49.925 52.925 48 55.345 48H83.615L98.135 62.465Z" fill="#CB0606"/>
<path fill-rule="evenodd" clip-rule="evenodd" d="M98.1349 61.64V63.455H86.2549C83.7799 63.455 82.6799 61.475 82.6799 59V48H84.4949L98.1349 61.64Z" fill="#FB8D8D"/>
<path d="M59.3049 69.7801C59.3599 69.7801 59.4149 69.7801 59.4699 69.7801C59.5249 69.7801 59.6349 69.7801 59.7449 69.7801C59.8549 69.7801 59.9649 69.7801 60.0749 69.7801C60.1849 69.7801 60.2949 69.7801 60.5149 69.7801C60.6799 69.7801 60.8449 69.7801 60.8999 69.7801C62.9349 69.7251 64.3649 69.7251 65.0799 69.7251C66.0699 69.7251 66.8949 69.8901 67.4999 70.1651C68.1049 70.4401 68.5999 70.8801 68.9299 71.5401C69.3149 72.3101 69.4799 73.2451 69.4799 74.3451V74.9501C69.4799 76.1051 69.3699 76.9301 69.1499 77.3151C68.8199 78.0851 68.3249 78.6351 67.7199 78.9651C67.0599 79.2951 66.2349 79.4601 65.1349 79.4601C65.0799 79.4601 65.0249 79.4601 64.9149 79.4601C64.6399 79.4601 64.2549 79.4601 63.7049 79.4051C63.0999 79.3501 62.7149 79.2951 62.7149 79.2951V83.2551H59.3599V69.7801H59.3049ZM64.5849 76.9851H64.6399C65.0799 76.9851 65.3549 76.9301 65.5199 76.8751C65.6849 76.8201 65.8499 76.7101 65.9599 76.6001C66.1249 76.4351 66.2349 76.2701 66.2899 76.0501C66.3449 75.8851 66.3999 75.5551 66.3999 75.2251V74.0151C66.3999 73.3001 66.2899 72.8601 66.0699 72.5851C65.9599 72.4751 65.7399 72.3651 65.5749 72.3101C65.3549 72.2551 65.1899 72.2001 65.0249 72.2001C64.8599 72.2001 64.6399 72.2001 64.4199 72.2001C63.9799 72.2001 63.4299 72.2001 62.7149 72.2551V76.8751C63.4849 76.9301 64.1449 76.9851 64.5849 76.9851Z" fill="#FFFEF9"/>
<path d="M70.6899 69.78C71.6249 69.78 72.3949 69.78 72.9999 69.78C73.2199 69.78 73.8249 69.78 74.7599 69.78C74.9799 69.78 75.1449 69.78 75.3099 69.78C75.4749 69.78 75.5849 69.78 75.6949 69.78C75.8049 69.78 75.8049 69.78 75.8599 69.78C78.5549 69.78 80.3149 70.605 81.1399 72.255C81.6349 73.19 81.9099 74.51 81.9099 76.16V77.04C81.9099 78.58 81.7449 79.68 81.4699 80.34C80.6999 82.375 78.8299 83.365 75.9149 83.365C74.5399 83.365 73.3299 83.365 72.2299 83.31C72.1749 83.31 72.0649 83.31 71.8449 83.31C71.6799 83.31 71.5149 83.31 71.4599 83.31C71.3499 83.31 71.2949 83.31 71.1849 83.31C71.0749 83.31 70.9649 83.31 70.9099 83.31C70.8549 83.31 70.7999 83.31 70.7449 83.31V69.78H70.6899ZM75.2549 80.615H75.5849C76.1899 80.615 76.6849 80.56 77.0699 80.45C77.4549 80.34 77.7299 80.175 77.9499 79.9C78.1699 79.625 78.3349 79.35 78.3899 79.02C78.4449 78.69 78.4999 78.195 78.4999 77.645V75.555C78.4999 74.18 78.2799 73.3 77.8949 72.915C77.5099 72.53 76.7399 72.31 75.4749 72.31C75.0899 72.31 74.5949 72.365 74.0449 72.42V80.56C74.3749 80.615 74.7599 80.615 75.2549 80.615Z" fill="#FFFEF9"/>
<path d="M83.1199 69.78H90.9299V72.365H86.5299V75.225H90.0499L89.7749 77.645H86.5299V83.2H83.0649V69.78H83.1199Z" fill="#FFFEF9"/>
</svg>
