<svg width="61" height="55" viewBox="0 0 61 55" fill="none" xmlns="http://www.w3.org/2000/svg">
<path d="M33.3223 55C48.5019 55 60.8223 42.6796 60.8223 27.5H5.87427C5.87427 42.7316 18.1947 55 33.3223 55Z" fill="#C8421D"/>
<path d="M33.3223 0V27.5H60.8223C60.8223 12.3204 48.5538 0 33.3223 0Z" fill="#FF8F6A"/>
<path d="M5.92627 27.5H33.4263V0C18.2467 0 5.92627 12.3204 5.92627 27.5Z" fill="#ED6B47"/>
<path d="M28.1238 42.7316H3.01512C1.35161 42.7316 0 41.38 0 39.7165V14.9717C0 13.3082 1.35161 11.9565 3.01512 11.9565H28.1238C29.7873 11.9565 31.1389 13.3082 31.1389 14.9717V39.7165C31.1909 41.38 29.7873 42.7316 28.1238 42.7316Z" fill="#C8421D"/>
<path d="M13.4641 29.5273V36.0254H9.8252V18.1426H17.0511C19.1305 18.1426 20.794 18.6624 21.9897 19.7021C23.1853 20.7418 23.8091 22.0934 23.8091 23.8609C23.8091 25.5764 23.1853 26.928 21.9897 27.9677C20.794 29.0074 19.1305 29.5273 17.0511 29.5273H13.4641ZM13.4641 26.7721H17.0511C18.0388 26.7721 18.8706 26.5121 19.3904 25.9923C19.9103 25.4205 20.1702 24.7447 20.1702 23.9129C20.1702 23.0811 19.9103 22.3534 19.3904 21.7815C18.8706 21.2097 18.0908 20.9498 17.0511 20.9498H13.4641V26.7721Z" fill="white"/>
<path opacity="0.2" d="M31.087 14.7117C31.087 14.8156 31.087 14.9196 31.087 14.9716V39.7164C31.087 41.3799 29.7354 42.7315 28.0719 42.7315H10.605L12.4245 45.4347H30.5672C32.2307 45.4347 33.5823 44.0831 33.5823 42.4196V17.6748C33.6343 16.1672 32.5426 14.9196 31.087 14.7117Z" fill="black"/>
</svg>
