<svg width="150" height="150" viewBox="0 0 150 150" fill="none" xmlns="http://www.w3.org/2000/svg">
<rect width="150" height="150" rx="6" fill="white"/>
<path d="M77.928 103C93.3836 103 105.928 90.4556 105.928 75H49.981C49.981 90.5085 62.5254 103 77.928 103Z" fill="#C8421D"/>
<path d="M77.9282 47V75H105.928C105.928 59.5444 93.4367 47 77.9282 47Z" fill="#FF8F6A"/>
<path d="M50.0339 75H78.0339V47C62.5784 47 50.0339 59.5444 50.0339 75Z" fill="#ED6B47"/>
<path d="M72.6352 90.5084H47.0699C45.3762 90.5084 44 89.1322 44 87.4385V62.2438C44 60.55 45.3762 59.1738 47.0699 59.1738H72.6352C74.3289 59.1738 75.7051 60.55 75.7051 62.2438V87.4385C75.758 89.1322 74.3289 90.5084 72.6352 90.5084Z" fill="#C8421D"/>
<path d="M57.709 77.0641V83.6804H54.0039V65.4724H61.3612C63.4784 65.4724 65.1721 66.0017 66.3895 67.0603C67.6069 68.1189 68.2421 69.4951 68.2421 71.2947C68.2421 73.0414 67.6069 74.4176 66.3895 75.4762C65.1721 76.5348 63.4784 77.0641 61.3612 77.0641H57.709ZM57.709 74.2588H61.3612C62.3669 74.2588 63.2137 73.9942 63.743 73.4648C64.2723 72.8826 64.537 72.1945 64.537 71.3476C64.537 70.5008 64.2723 69.7597 63.743 69.1775C63.2137 68.5953 62.4198 68.3306 61.3612 68.3306H57.709V74.2588Z" fill="white"/>
<path opacity="0.2" d="M75.6523 61.9792C75.6523 62.0851 75.6523 62.191 75.6523 62.2439V87.4386C75.6523 89.1324 74.2761 90.5086 72.5824 90.5086H54.7979L56.6504 93.2609H75.123C76.8168 93.2609 78.1929 91.8847 78.1929 90.191V64.9963C78.2459 63.4613 77.1343 62.191 75.6523 61.9792Z" fill="black"/>
</svg>
