<svg width="150" height="150" viewBox="0 0 150 150" fill="none" xmlns="http://www.w3.org/2000/svg">
<rect width="150" height="150" rx="6" fill="white"/>
<g filter="url(#filter0_d_3533_1961)">
<path d="M105.866 102.972H44.1339C43.0315 102.972 41.9292 101.87 41.9292 100.768V49.2323C41.9292 48.13 43.0315 47.0276 44.1339 47.0276H105.866C106.969 47.0276 108.071 48.13 108.071 49.2323V100.768C108.071 102.146 107.244 102.972 105.866 102.972Z" fill="#FFBB05"/>
</g>
<g filter="url(#filter1_d_3533_1961)">
<path d="M108.732 60.2559H41.2677C40.1339 60.2559 39 59.1536 39 58.0512V49.2323C39 48.13 40.1339 47.0276 41.2677 47.0276H108.732C109.866 47.0276 111 48.13 111 49.2323V58.0512C111 59.1536 109.866 60.2559 108.732 60.2559Z" fill="#FFBB05"/>
</g>
<path d="M108.347 71.0039H41.9292V88.9173H108.347V71.0039Z" fill="white"/>
<path d="M108.347 86.437H41.9292V87.815H108.347V86.437Z" fill="#FFDD82"/>
<path d="M50.7478 81.4763C51.2989 81.7519 52.1257 82.0275 53.2281 82.0275C54.3304 82.0275 54.8816 81.4763 54.8816 80.9251C54.8816 80.3739 54.3304 80.0983 53.2281 79.5472C51.5745 78.996 50.4722 78.1692 50.4722 76.7913C50.4722 75.1377 51.8501 73.7598 54.0548 73.7598C55.1572 73.7598 55.984 74.0354 56.5352 74.3109L56.2596 75.9645C55.984 75.6889 55.1572 75.4133 54.3304 75.4133C53.5037 75.4133 52.9525 75.9645 52.9525 76.2401C52.9525 76.7913 53.5037 77.0669 54.8816 77.618C56.5352 78.1692 57.3619 79.2716 57.3619 80.3739C57.3619 82.0275 55.984 83.4054 53.5037 83.4054C52.4013 83.4054 51.2989 83.1298 50.7478 82.8543V81.4763Z" fill="black"/>
<path d="M66.4566 83.4054C66.181 83.681 65.0786 83.9566 63.9763 83.9566C60.6692 83.9566 59.0156 81.7519 59.0156 78.996C59.0156 75.6889 61.4959 73.7598 64.2518 73.7598C65.3542 73.7598 66.181 74.0354 66.7322 74.3109L66.181 75.9645C65.6298 75.6889 65.0786 75.6889 64.2518 75.6889C62.5983 75.6889 61.2204 76.7913 61.2204 78.996C61.2204 80.9251 62.3227 82.0275 64.2518 82.0275C64.803 82.0275 65.6298 81.7519 66.181 81.7519L66.4566 83.4054Z" fill="black"/>
<path d="M76.9287 78.7206C76.9287 82.0276 74.9996 83.9568 72.2436 83.9568C69.4877 83.9568 67.5586 81.7521 67.5586 78.9961C67.5586 75.9646 69.4877 74.0355 72.2436 74.0355C75.2751 73.7599 76.9287 75.9646 76.9287 78.7206ZM70.0389 78.7206C70.0389 80.6497 70.8657 82.0276 72.5192 82.0276C73.8972 82.0276 74.7239 80.6497 74.7239 78.7206C74.7239 77.067 73.8972 75.4135 72.2436 75.4135C70.8657 75.6891 70.0389 77.067 70.0389 78.7206Z" fill="black"/>
<path d="M79.1331 74.0354C79.9598 74.0354 80.7866 73.7598 82.1645 73.7598C83.5425 73.7598 84.6449 74.0354 85.196 74.5865C85.7472 75.1377 86.0228 75.6889 86.0228 76.5157C86.0228 77.618 85.196 78.7204 84.3693 78.996C84.9204 79.2716 85.4716 79.8228 85.7472 80.9251C86.0228 82.0275 86.2984 83.4054 86.574 83.681H84.3693C84.0937 83.4054 84.0937 82.5787 83.8181 81.4763C83.5425 80.3739 83.2669 79.8228 82.1645 79.8228H81.6134V83.681H79.4086V74.0354H79.1331ZM81.3378 78.1692H82.1645C83.2669 78.1692 83.8181 77.618 83.8181 76.7913C83.8181 75.9645 83.2669 75.4133 82.1645 75.4133C81.6134 75.4133 81.3378 75.4133 81.0622 75.4133V78.1692H81.3378Z" fill="black"/>
<path d="M96.4955 80.0979C96.4955 78.9956 96.4955 77.6176 96.4955 76.2397C96.2199 77.342 95.6687 78.72 95.3931 80.0979L94.2908 83.9562H92.6372L91.5349 80.0979C91.2593 78.9956 90.9837 77.6176 90.7081 76.2397C90.7081 77.6176 90.7081 78.9956 90.4325 80.3735L90.1569 83.9562H88.2278L88.779 74.3105H91.8105L92.6372 77.6176C92.9128 78.72 93.1884 79.8224 93.464 81.2003C93.7396 80.0979 94.0152 78.72 94.2908 77.6176L95.3931 74.3105H98.149L98.7002 83.9562H96.4955V80.0979Z" fill="black"/>
<defs>
<filter id="filter0_d_3533_1961" x="37.9292" y="45.0276" width="74.1418" height="63.9448" filterUnits="userSpaceOnUse" color-interpolation-filters="sRGB">
<feFlood flood-opacity="0" result="BackgroundImageFix"/>
<feColorMatrix in="SourceAlpha" type="matrix" values="0 0 0 0 0 0 0 0 0 0 0 0 0 0 0 0 0 0 127 0" result="hardAlpha"/>
<feOffset dy="2"/>
<feGaussianBlur stdDeviation="2"/>
<feComposite in2="hardAlpha" operator="out"/>
<feColorMatrix type="matrix" values="0 0 0 0 0 0 0 0 0 0 0 0 0 0 0 0 0 0 0.25 0"/>
<feBlend mode="normal" in2="BackgroundImageFix" result="effect1_dropShadow_3533_1961"/>
<feBlend mode="normal" in="SourceGraphic" in2="effect1_dropShadow_3533_1961" result="shape"/>
</filter>
<filter id="filter1_d_3533_1961" x="37" y="47.0276" width="76" height="17.2283" filterUnits="userSpaceOnUse" color-interpolation-filters="sRGB">
<feFlood flood-opacity="0" result="BackgroundImageFix"/>
<feColorMatrix in="SourceAlpha" type="matrix" values="0 0 0 0 0 0 0 0 0 0 0 0 0 0 0 0 0 0 127 0" result="hardAlpha"/>
<feOffset dy="2"/>
<feGaussianBlur stdDeviation="1"/>
<feComposite in2="hardAlpha" operator="out"/>
<feColorMatrix type="matrix" values="0 0 0 0 0 0 0 0 0 0 0 0 0 0 0 0 0 0 0.25 0"/>
<feBlend mode="normal" in2="BackgroundImageFix" result="effect1_dropShadow_3533_1961"/>
<feBlend mode="normal" in="SourceGraphic" in2="effect1_dropShadow_3533_1961" result="shape"/>
</filter>
</defs>
</svg>
