<svg width="150" height="150" viewBox="0 0 150 150" fill="none"
    xmlns="http://www.w3.org/2000/svg">
    <rect x="0" y="0" width="150" height="150" rx="6" fill="#FFF1F1" />
    <g clip-path="url(#clip0_2132_1584)">
        <path d="M49.8042 53H100.196C102.859 53 105 55.141 105 57.8042V92.5822C105 95.2454 102.859 97.3864 100.196 97.3864H49.8042C47.141 97.3864 45 95.2454 45 92.5822V57.8042C45 55.141 47.141 53 49.8042 53Z" fill="#E1584C"/>
        <path d="M105 92.5822V57.8042C105 55.141 102.859 53 100.196 53H74.9739V97.3864H100.144C102.807 97.3864 105 95.2454 105 92.5822Z" fill="#E56B62"/>
        <path d="M85.1567 73.9398L71.0052 65.1148C69.9086 64.4359 68.812 65.0103 68.812 66.368V84.0182C68.812 85.4281 69.9086 86.0025 71.0052 85.2714L85.2089 76.603C86.5666 75.7675 86.0444 74.462 85.1567 73.9398Z" fill="white"/>
        <path d="M53.2507 56.9165H47.5066V62.504H53.2507V56.9165Z" fill="white"/>
        <path d="M53.2507 66.9949H47.5066V72.5823H53.2507V66.9949Z" fill="white"/>
        <path d="M53.2507 77.1255H47.5066V82.713H53.2507V77.1255Z" fill="white"/>
        <path d="M53.2507 87.2036H47.5066V92.7911H53.2507V87.2036Z" fill="white"/>
        <path d="M102.337 56.9165H96.5928V62.504H102.337V56.9165Z" fill="white"/>
        <path d="M102.337 66.9949H96.5928V72.5823H102.337V66.9949Z" fill="white"/>
        <path d="M102.337 77.1255H96.5928V82.713H102.337V77.1255Z" fill="white"/>
        <path d="M102.337 87.2036H96.5928V92.7911H102.337V87.2036Z" fill="white"/>
    </g>
    <defs>
        <clipPath id="clip0_2132_1584">
            <rect width="60" height="44.3864" fill="white" transform="translate(45 53)"/>
        </clipPath>
    </defs>
</svg>
