<svg width="150" height="150" viewBox="0 0 150 150" fill="none" xmlns="http://www.w3.org/2000/svg">
<rect width="150" height="150" rx="6" fill="white"/>
<path d="M87.6657 57.7563H82.0544V63.8731H87.6657V57.7563Z" fill="white"/>
<path d="M87.6657 67.5635H82.0544V73.6802H87.6657V67.5635Z" fill="white"/>
<path d="M87.6657 77.3198H82.0544V83.4366H87.6657V77.3198Z" fill="white"/>
<path d="M87.6657 87.127H82.0544V93.2437H87.6657V87.127Z" fill="white"/>
<path d="M100.303 57.7563H90.4963V63.8731H100.303V57.7563Z" fill="white"/>
<path d="M100.303 67.5635H90.4963V73.6802H100.303V67.5635Z" fill="white"/>
<path d="M100.303 77.3198H90.4963V83.4366H100.303V77.3198Z" fill="white"/>
<path d="M100.303 87.127H90.4963V93.2437H100.303V87.127Z" fill="white"/>
<path d="M68.9109 66.4006H64.8668L61.7832 71.8096L58.7501 66.4006H54.706L59.7611 75.4493L54.2004 85.3574H58.2446L61.7832 79.0385L65.3723 85.3574H69.4164L63.8052 75.4493L68.9109 66.4006Z" fill="white"/>
<path d="M104.145 61.6994H58.6489V50.6792C58.6489 49.2132 59.8622 48 61.3282 48H101.415C102.881 48 104.095 49.2132 104.095 50.6792L104.145 61.6994Z" fill="#41A5ED"/>
<path d="M104.145 61.6995H58.6489V75.5H104.145V61.6995Z" fill="#2C7BD5"/>
<path d="M104.145 75.5H58.6489V89.3006H104.145V75.5Z" fill="#195ABE"/>
<path d="M101.466 103H61.3787C59.9127 103 58.6995 101.787 58.6995 100.321V89.25H104.145V100.321C104.145 101.837 102.932 103 101.466 103Z" fill="#103E91"/>
<path d="M72.4495 90.5137H47.9825C46.3649 90.5137 45 89.1488 45 87.5311V63.4181C45 61.8004 46.3649 60.4355 47.9825 60.4355H72.5C74.1176 60.4355 75.4825 61.8004 75.4825 63.4181V87.5817C75.432 89.1993 74.1177 90.5137 72.4495 90.5137Z" fill="#2166C3"/>
<path d="M53.8969 83.9928L49.7517 67.4119H53.0376L54.6552 74.944C55.0596 76.9661 55.464 79.0387 55.7673 80.7069H55.8179C56.0706 78.9376 56.5762 77.0166 57.0311 74.8935L58.851 67.4119H62.0863L63.7545 75.0451C64.1589 77.0166 64.5633 78.8365 64.7655 80.6563H64.816C65.0688 78.7859 65.5238 76.9661 65.9787 74.944L67.6975 67.4119H70.8317L66.282 83.9928H62.9456L61.1763 76.1573C60.7719 74.2869 60.4181 72.7198 60.2159 70.9505H60.1653C59.9126 72.7198 59.5587 74.3374 59.0532 76.2078L57.1322 84.0433L53.8969 83.9928Z" fill="white"/>
<path opacity="0.2" d="M75.432 63.1655C75.432 63.2666 75.432 63.3677 75.432 63.4183V87.5819C75.432 89.1995 74.0671 90.5644 72.4495 90.5644H58.6995V93.1931H74.977C76.5947 93.1931 77.9596 91.8282 77.9596 90.2106V66.047C77.909 64.581 76.8474 63.3172 75.432 63.1655Z" fill="black"/>
</svg>
