<svg width="150" height="150" viewBox="0 0 150 150" fill="none" xmlns="http://www.w3.org/2000/svg">
<rect width="150" height="150" rx="6" fill="white"/>
<path d="M110.851 59.1441C110.851 52.6989 106.11 47.5142 100.252 47.5142C92.3176 47.1432 84.2254 47 75.9556 47H73.3775C65.1277 47 57.0212 47.1432 49.0865 47.5156C43.2429 47.5156 38.5022 52.729 38.5022 59.1741C38.1441 64.2715 37.9923 69.3704 38.0009 74.4692C37.9865 79.568 38.1489 84.6716 38.4878 89.78C38.4878 96.2251 43.2286 101.453 49.0722 101.453C57.4079 101.84 65.9584 102.011 74.6522 101.997C83.3603 102.026 91.887 101.844 100.232 101.453C106.09 101.453 110.831 96.2251 110.831 89.78C111.175 84.6668 111.332 79.568 111.318 74.4549C111.35 69.356 111.195 64.2524 110.851 59.1441ZM67.6485 88.5196V60.3758L88.4162 74.4405L67.6485 88.5196Z" fill="#FF0000"/>
</svg>
