<svg width="150" height="150" viewBox="0 0 150 150" fill="none" xmlns="http://www.w3.org/2000/svg">
<rect width="150" height="150" rx="6" fill="white"/>
<path d="M88.977 60.2063H98.053L87.1619 47.5V58.3911C87.1619 59.4802 87.8879 60.2063 88.977 60.2063Z" fill="#F0A849"/>
<path d="M85.3466 58.3911V47.5H68.1024V49.3152H66.2872V51.1304H68.1024V52.9455H66.2872V54.7607H68.1024V56.5759H66.2872V58.3911H68.1024V60.2063H66.2872V62.0215H68.1024V63.8366H66.2872V65.6518H68.1024V67.467H66.2872V69.2822H68.1024V71.0974H66.2872V72.9125V74.7277C68.2839 75.0908 69.9176 76.9059 69.9176 79.2657C69.9176 81.8069 67.9209 83.8036 65.3796 83.8036C62.8384 83.8036 60.8417 81.8069 60.8417 79.2657C60.8417 77.0875 62.4753 75.2723 64.472 74.7277V72.9125H62.6568V71.0974H64.472V69.2822H62.6568V67.467H64.472V65.6518H62.6568V63.8366H64.472V62.0215H62.6568V60.2063H64.472V58.3911H62.6568V56.5759H64.472V54.7607H62.6568V52.9455H64.472V51.1304H62.6568V49.3152H64.472V47.5H55.2146C53.2179 47.5 51.5842 49.1337 51.5842 51.1304V98.8696C51.5842 100.866 53.2179 102.5 55.2146 102.5H61.9308V101.048L68.8285 91.0644H62.4753V88.3416H73.1849V90.3383L66.2872 99.9587H73.1849V102.5H75.3631V88.1601H78.6304V102.5H81.5347V88.3416C82.6238 88.1601 84.076 87.9785 86.0727 87.9785C88.0694 87.9785 89.5215 88.3416 90.6106 89.0677C91.5182 89.7937 92.2443 91.0644 92.2443 92.5165C92.2443 93.9686 91.6997 95.2393 90.9737 95.9653C89.8846 97.0545 88.2509 97.599 86.2542 97.599C85.8912 97.599 85.3466 97.599 85.1651 97.599V102.5H94.7856C96.7823 102.5 98.4159 100.866 98.4159 98.8696V62.0215H89.34C86.9803 62.0215 85.3466 60.3878 85.3466 58.3911Z" fill="url(#paint0_linear_3537_1994)"/>
<path d="M88.7956 92.698C88.7956 91.4274 87.8881 90.5198 86.2544 90.5198C85.5283 90.5198 85.1653 90.5198 84.8022 90.7013V95.0577C85.1653 95.0577 85.3468 95.0577 85.8914 95.0577C87.7065 95.0577 88.7956 94.1501 88.7956 92.698Z" fill="url(#paint1_linear_3537_1994)"/>
<path d="M65.3798 81.9885C66.8835 81.9885 68.1025 80.7695 68.1025 79.2657C68.1025 77.762 66.8835 76.543 65.3798 76.543C63.876 76.543 62.657 77.762 62.657 79.2657C62.657 80.7695 63.876 81.9885 65.3798 81.9885Z" fill="url(#paint2_linear_3537_1994)"/>
<defs>
<linearGradient id="paint0_linear_3537_1994" x1="97.2989" y1="74.7466" x2="47.1375" y2="74.7466" gradientUnits="userSpaceOnUse">
<stop offset="0.375393" stop-color="#F0A949"/>
<stop offset="0.795122" stop-color="#CF8C31"/>
<stop offset="1" stop-color="#AE7324"/>
</linearGradient>
<linearGradient id="paint1_linear_3537_1994" x1="88.7004" y1="92.7678" x2="84.4231" y2="92.7678" gradientUnits="userSpaceOnUse">
<stop offset="0.375393" stop-color="#F0A949"/>
<stop offset="0.795122" stop-color="#CF8C31"/>
<stop offset="1" stop-color="#AE7324"/>
</linearGradient>
<linearGradient id="paint2_linear_3537_1994" x1="67.9726" y1="79.2407" x2="62.1399" y2="79.2407" gradientUnits="userSpaceOnUse">
<stop offset="0.375393" stop-color="#F0A949"/>
<stop offset="0.795122" stop-color="#CF8C31"/>
<stop offset="1" stop-color="#AE7324"/>
</linearGradient>
</defs>
</svg>
