<svg width="24" height="24" viewBox="0 0 24 24"
    xmlns="http://www.w3.org/2000/svg">
    <path d="M20.4845 3.516C18.2203 1.24725 15.206 0 11.9998 0C8.79352 0 5.77927 1.24725 3.51502 3.516C1.25077 5.78475 -0.000976562 8.79375 -0.000976562 12.0007C-0.000976562 15.2077 1.24627 18.2212 3.51502 20.4855C5.78377 22.7498 8.79277 24.0015 11.9998 24.0015C15.2068 24.0015 18.2203 22.7542 20.4845 20.4855C22.7488 18.2167 24.0005 15.207 24.0005 12.0007C24.0005 8.7945 22.7533 5.78025 20.4845 3.516ZM11.9998 22.125C6.41677 22.125 1.87477 17.583 1.87477 12C1.87477 6.417 6.41677 1.875 11.9998 1.875C17.5828 1.875 22.1248 6.417 22.1248 12C22.1248 17.583 17.5828 22.125 11.9998 22.125ZM12.9373 11.0625H17.156V12.9375H12.9373V17.1562H11.0623V12.9375H6.84352V11.0625H11.0623V6.84375H12.9373V11.0625Z" />
</svg>
