<svg width="30" height="30" viewBox="0 0 30 30" fill="none" xmlns="http://www.w3.org/2000/svg">
<g clip-path="url(#clip0_2853_2805)">
<path d="M7.80078 20.8865L6.44777 24.9314H1.19995L8.70221 4.80005H14.7232L21.5498 24.9297H16.0762L14.9165 20.8865H7.80078ZM11.5998 9.29701L8.99129 17.1735H13.8542L11.5998 9.29701Z" fill="url(#paint0_linear_2853_2805)"/>
<path d="M29.0024 4.80005H23.835V24.9297H29.0024V4.80005Z" fill="url(#paint1_linear_2853_2805)"/>
<mask id="mask0_2853_2805" style="mask-type:luminance" maskUnits="userSpaceOnUse" x="1" y="4" width="21" height="21">
<path d="M7.80078 20.8865L6.44777 24.9314H1.19995L8.70221 4.80005H14.7232L21.5498 24.9297H16.0762L14.9165 20.8865H7.80078ZM11.5998 9.29701L8.99129 17.1735H13.8542L11.5998 9.29701Z" fill="white"/>
</mask>
<g mask="url(#mask0_2853_2805)">
<path opacity="0.4" d="M17.0511 5.48145H16.6748V31.3394H17.0511V5.48145Z" fill="url(#paint2_linear_2853_2805)"/>
</g>
<mask id="mask1_2853_2805" style="mask-type:luminance" maskUnits="userSpaceOnUse" x="1" y="4" width="21" height="21">
<path d="M7.80078 20.8865L6.44777 24.9314H1.19995L8.70221 4.80005H14.7232L21.5498 24.9297H16.0762L14.9165 20.8865H7.80078ZM11.5998 9.29701L8.99129 17.1735H13.8542L11.5998 9.29701Z" fill="white"/>
</mask>
<g mask="url(#mask1_2853_2805)">
<path opacity="0.4" d="M6.86166 5.93506H6.48535V31.793H6.86166V5.93506Z" fill="url(#paint3_linear_2853_2805)"/>
</g>
<mask id="mask2_2853_2805" style="mask-type:luminance" maskUnits="userSpaceOnUse" x="1" y="4" width="21" height="21">
<path d="M7.80078 20.8865L6.44777 24.9314H1.19995L8.70221 4.80005H14.7232L21.5498 24.9297H16.0762L14.9165 20.8865H7.80078ZM11.5998 9.29701L8.99129 17.1735H13.8542L11.5998 9.29701Z" fill="white"/>
</mask>
<g mask="url(#mask2_2853_2805)">
<path opacity="0.4" d="M9.81231 6.79932H8.37378V8.35441H9.81231V6.79932Z" fill="url(#paint4_linear_2853_2805)"/>
<path opacity="0.4" d="M9.81231 9.48462H8.37378V10.8505H9.81231V9.48462Z" fill="url(#paint5_linear_2853_2805)"/>
<path opacity="0.4" d="M9.81231 15.9102H8.37378V17.1783H9.81231V15.9102Z" fill="url(#paint6_linear_2853_2805)"/>
<path opacity="0.4" d="M9.81231 17.7314H8.37378V19.3555H9.81231V17.7314Z" fill="url(#paint7_linear_2853_2805)"/>
<path opacity="0.4" d="M9.81231 19.9502H8.37378V26.4656H9.81231V19.9502Z" fill="url(#paint8_linear_2853_2805)"/>
<path opacity="0.4" d="M9.81231 13.8196H8.37378V15.3154H9.81231V13.8196Z" fill="url(#paint9_linear_2853_2805)"/>
<path opacity="0.4" d="M9.81231 11.6987H8.37378V13.1127H9.81231V11.6987Z" fill="url(#paint10_linear_2853_2805)"/>
<path opacity="0.4" d="M9.81231 3.05737H8.37378V5.99923H9.81231V3.05737Z" fill="url(#paint11_linear_2853_2805)"/>
</g>
<mask id="mask3_2853_2805" style="mask-type:luminance" maskUnits="userSpaceOnUse" x="1" y="4" width="21" height="21">
<path d="M7.80078 20.8865L6.44777 24.9314H1.19995L8.70221 4.80005H14.7232L21.5498 24.9297H16.0762L14.9165 20.8865H7.80078ZM11.5998 9.29701L8.99129 17.1735H13.8542L11.5998 9.29701Z" fill="white"/>
</mask>
<g mask="url(#mask3_2853_2805)">
<path opacity="0.5" d="M8.514 25.3898H8.41821V20.2644L9.79859 18.969V18.3149H9.89609V19.0075L8.514 20.3013V25.3898Z" fill="black"/>
</g>
<mask id="mask4_2853_2805" style="mask-type:luminance" maskUnits="userSpaceOnUse" x="1" y="4" width="21" height="21">
<path d="M7.80078 20.8865L6.44777 24.9314H1.19995L8.70221 4.80005H14.7232L21.5498 24.9297H16.0762L14.9165 20.8865H7.80078ZM11.5998 9.29701L8.99129 17.1735H13.8542L11.5998 9.29701Z" fill="white"/>
</mask>
<g mask="url(#mask4_2853_2805)">
<g opacity="0.5">
<path d="M16.4422 16.2292H16.3464V16.4665H16.4422V16.2292Z" fill="black"/>
<path d="M16.4422 16.7039H16.3464V16.9411H16.4422V16.7039Z" fill="black"/>
<path d="M16.4422 14.8057H16.3464V15.0429H16.4422V14.8057Z" fill="black"/>
<path d="M16.4422 15.28H16.3464V15.5173H16.4422V15.28Z" fill="black"/>
<path d="M16.4422 15.7546H16.3464V15.9919H16.4422V15.7546Z" fill="black"/>
<path d="M16.4423 14.5668H16.3465V14.4722L16.2764 14.4081L16.3414 14.3359L16.4423 14.4289V14.5668Z" fill="black"/>
<path d="M16.1001 14.2477L15.924 14.0858L15.989 14.0136L16.1651 14.1755L16.1001 14.2477ZM15.7461 13.9254L15.5699 13.7635L15.6349 13.6914L15.8111 13.8533L15.7461 13.9254ZM15.3937 13.6032L15.2175 13.4413L15.2825 13.3691L15.4587 13.5311L15.3937 13.6032Z" fill="black"/>
<path d="M15.0413 13.2794L14.9404 13.1865V13.0486H15.0362V13.1432L15.1063 13.2073L15.0413 13.2794Z" fill="black"/>
<path d="M15.0362 12.0994H14.9404V12.3366H15.0362V12.0994Z" fill="black"/>
<path d="M15.0362 12.574H14.9404V12.8112H15.0362V12.574Z" fill="black"/>
<path d="M15.0362 11.6248H14.9404V11.862H15.0362V11.6248Z" fill="black"/>
<path d="M15.0362 10.2012H14.9404V10.4384H15.0362V10.2012Z" fill="black"/>
<path d="M15.0362 11.1504H14.9404V11.3877H15.0362V11.1504Z" fill="black"/>
<path d="M15.0362 10.6758H14.9404V10.9131H15.0362V10.6758Z" fill="black"/>
<path d="M15.0362 9.17041H14.9404V9.40768H15.0362V9.17041Z" fill="black"/>
<path d="M15.0362 9.64502H14.9404V9.88229H15.0362V9.64502Z" fill="black"/>
<path d="M15.0362 8.6958H14.9404V8.93307H15.0362V8.6958Z" fill="black"/>
<path d="M15.0362 7.27222H14.9404V7.50949H15.0362V7.27222Z" fill="black"/>
<path d="M15.0362 8.22119H14.9404V8.45846H15.0362V8.22119Z" fill="black"/>
<path d="M15.0362 7.74683H14.9404V7.9841H15.0362V7.74683Z" fill="black"/>
<path d="M15.0362 6.35693H14.9404V6.59421H15.0362V6.35693Z" fill="black"/>
<path d="M15.0362 6.8313H14.9404V7.06857H15.0362V6.8313Z" fill="black"/>
<path d="M15.0362 5.88208H14.9404V6.11935H15.0362V5.88208Z" fill="black"/>
<path d="M15.0362 5.40918H14.9404V5.64645H15.0362V5.40918Z" fill="black"/>
<path d="M15.0362 4.93481H14.9404V5.17209H15.0362V4.93481Z" fill="black"/>
</g>
</g>
<mask id="mask5_2853_2805" style="mask-type:luminance" maskUnits="userSpaceOnUse" x="1" y="4" width="21" height="21">
<path d="M7.80078 20.8865L6.44777 24.9314H1.19995L8.70221 4.80005H14.7232L21.5498 24.9297H16.0762L14.9165 20.8865H7.80078ZM11.5998 9.29701L8.99129 17.1735H13.8542L11.5998 9.29701Z" fill="white"/>
</mask>
<g mask="url(#mask5_2853_2805)">
<path d="M11.7828 25.5999H11.687C11.6939 24.5178 11.6939 23.4148 11.687 22.323H11.7828C11.7896 23.4148 11.7896 24.5178 11.7828 25.5999Z" fill="white"/>
</g>
<mask id="mask6_2853_2805" style="mask-type:luminance" maskUnits="userSpaceOnUse" x="1" y="4" width="21" height="21">
<path d="M7.80078 20.8865L6.44777 24.9314H1.19995L8.70221 4.80005H14.7232L21.5498 24.9297H16.0762L14.9165 20.8865H7.80078ZM11.5998 9.29701L8.99129 17.1735H13.8542L11.5998 9.29701Z" fill="white"/>
</mask>
<g mask="url(#mask6_2853_2805)">
<path d="M15.1525 18.6339V18.7702C13.9654 18.7686 12.5235 18.7686 11.3604 18.7686C11.0097 19.0796 10.6659 19.4083 10.3323 19.7273C10.163 19.8892 9.98682 20.0576 9.81235 20.2211L9.79182 20.2403H9.76103C6.37253 20.2403 3.18928 20.2403 -0.192383 20.2403V20.1041C3.17902 20.1041 6.35371 20.1041 9.73195 20.1041C9.89958 19.9469 10.0672 19.7866 10.2297 19.6311C10.5701 19.3057 10.9225 18.9706 11.2817 18.6516L11.3022 18.6323H11.3313C12.4995 18.6323 13.9552 18.6323 15.1525 18.6339Z" fill="white"/>
</g>
<mask id="mask7_2853_2805" style="mask-type:luminance" maskUnits="userSpaceOnUse" x="1" y="4" width="21" height="21">
<path d="M7.80078 20.8865L6.44777 24.9314H1.19995L8.70221 4.80005H14.7232L21.5498 24.9297H16.0762L14.9165 20.8865H7.80078ZM11.5998 9.29701L8.99129 17.1735H13.8542L11.5998 9.29701Z" fill="white"/>
</mask>
<g mask="url(#mask7_2853_2805)">
<path d="M17.7337 9.98804H17.6379V13.9062H17.7337V9.98804Z" fill="white"/>
</g>
<mask id="mask8_2853_2805" style="mask-type:luminance" maskUnits="userSpaceOnUse" x="1" y="4" width="21" height="21">
<path d="M7.80078 20.8865L6.44777 24.9314H1.19995L8.70221 4.80005H14.7232L21.5498 24.9297H16.0762L14.9165 20.8865H7.80078ZM11.5998 9.29701L8.99129 17.1735H13.8542L11.5998 9.29701Z" fill="white"/>
</mask>
<g mask="url(#mask8_2853_2805)">
<g opacity="0.6">
<path d="M13.4763 8.58047C13.4763 7.78368 13.4763 5.14803 13.478 4.34644H13.5892C13.5875 5.14964 13.5875 7.78368 13.5875 8.58047H13.4763Z" fill="white"/>
<path d="M13.5396 9.79237C13.2351 9.79237 12.9871 9.55991 12.9888 9.27454C12.9888 8.98917 13.2368 8.75671 13.5413 8.75831C13.8457 8.75831 14.0938 8.99077 14.0921 9.27614C14.0921 9.55991 13.844 9.79237 13.5396 9.79237ZM13.5396 9.0565C13.4113 9.0565 13.3069 9.1543 13.3069 9.27454C13.3069 9.39478 13.4113 9.49257 13.5396 9.49257C13.6678 9.49257 13.7722 9.39478 13.7722 9.27454C13.7722 9.1543 13.6678 9.05811 13.5396 9.0565Z" fill="white"/>
</g>
</g>
<mask id="mask9_2853_2805" style="mask-type:luminance" maskUnits="userSpaceOnUse" x="1" y="4" width="21" height="21">
<path d="M7.80078 20.8865L6.44777 24.9314H1.19995L8.70221 4.80005H14.7232L21.5498 24.9297H16.0762L14.9165 20.8865H7.80078ZM11.5998 9.29701L8.99129 17.1735H13.8542L11.5998 9.29701Z" fill="white"/>
</mask>
<g mask="url(#mask9_2853_2805)">
<g opacity="0.6">
<path d="M10.8917 7.59448C11.1141 7.59448 11.2954 7.76442 11.2954 7.97284C11.2954 8.18125 11.1141 8.35119 10.8917 8.35119C10.6693 8.35119 10.488 8.18125 10.488 7.97284C10.488 7.76442 10.6693 7.59448 10.8917 7.59448ZM10.8917 8.25981C11.0611 8.25981 11.1979 8.13155 11.1979 7.97284C11.1979 7.81412 11.0611 7.68586 10.8917 7.68586C10.7224 7.68586 10.5855 7.81412 10.5855 7.97284C10.5855 8.13155 10.7224 8.25981 10.8917 8.25981Z" fill="white"/>
<path d="M10.9635 3.70508H10.8677V7.62328H10.9635V3.70508Z" fill="white"/>
</g>
</g>
<mask id="mask10_2853_2805" style="mask-type:luminance" maskUnits="userSpaceOnUse" x="1" y="4" width="21" height="21">
<path d="M7.80078 20.8865L6.44777 24.9314H1.19995L8.70221 4.80005H14.7232L21.5498 24.9297H16.0762L14.9165 20.8865H7.80078ZM11.5998 9.29701L8.99129 17.1735H13.8542L11.5998 9.29701Z" fill="white"/>
</mask>
<g mask="url(#mask10_2853_2805)">
<path d="M17.6859 8.81115C17.4635 8.81115 17.2822 8.64121 17.2822 8.4328C17.2822 8.22438 17.4635 8.05444 17.6859 8.05444C17.9083 8.05444 18.0896 8.22438 18.0896 8.4328C18.0896 8.64121 17.9083 8.81115 17.6859 8.81115ZM17.6859 8.14583C17.5166 8.14583 17.3797 8.27408 17.3797 8.4328C17.3797 8.59151 17.5166 8.71977 17.6859 8.71977C17.8552 8.71977 17.9921 8.59151 17.9921 8.4328C17.9921 8.27408 17.8552 8.14583 17.6859 8.14583Z" fill="white"/>
</g>
<mask id="mask11_2853_2805" style="mask-type:luminance" maskUnits="userSpaceOnUse" x="1" y="4" width="21" height="21">
<path d="M7.80078 20.8865L6.44777 24.9314H1.19995L8.70221 4.80005H14.7232L21.5498 24.9297H16.0762L14.9165 20.8865H7.80078ZM11.5998 9.29701L8.99129 17.1735H13.8542L11.5998 9.29701Z" fill="white"/>
</mask>
<g mask="url(#mask11_2853_2805)">
<path d="M17.7337 8.08345H17.6379V8.06742H17.7337V8.08345ZM17.7337 7.85099H17.6379V7.63456H17.7337V7.85099ZM17.7337 7.41652H17.6379V7.20009H17.7337V7.41652ZM17.7337 6.98206H17.6379V6.76562H17.7337V6.98206ZM17.7337 6.54759H17.6379V6.32956H17.7337V6.54759ZM17.7337 6.11312H17.6379V5.89669H17.7337V6.11312ZM17.7337 5.67866H17.6379V5.46223H17.7337V5.67866ZM17.7337 5.24419H17.6379V5.02776H17.7337V5.24419ZM17.7337 4.80973H17.6379V4.5933H17.7337V4.80973ZM17.7337 4.37526H17.6379V4.15883H17.7337V4.37526ZM17.7337 3.9408H17.6379V3.72437H17.7337V3.9408Z" fill="#6A59B0"/>
</g>
<mask id="mask12_2853_2805" style="mask-type:luminance" maskUnits="userSpaceOnUse" x="1" y="4" width="21" height="21">
<path d="M7.80078 20.8865L6.44777 24.9314H1.19995L8.70221 4.80005H14.7232L21.5498 24.9297H16.0762L14.9165 20.8865H7.80078ZM11.5998 9.29701L8.99129 17.1735H13.8542L11.5998 9.29701Z" fill="white"/>
</mask>
<g mask="url(#mask12_2853_2805)">
<path d="M9.88583 9.01802H9.79004V9.00199H9.88583V9.01802ZM9.88583 8.78395H9.79004V8.56752H9.88583V8.78395ZM9.88583 8.34949H9.79004V8.13306H9.88583V8.34949ZM9.88583 7.91663H9.79004V7.70019H9.88583V7.91663ZM9.88583 7.48216H9.79004V7.26573H9.88583V7.48216ZM9.88583 7.04769H9.79004V6.83126H9.88583V7.04769ZM9.88583 6.61323H9.79004V6.3968H9.88583V6.61323ZM9.88583 6.17876H9.79004V5.96073H9.88583V6.17876ZM9.88583 5.7443H9.79004V5.52787H9.88583V5.7443ZM9.88583 5.30983H9.79004V5.0934H9.88583V5.30983ZM9.88583 4.87537H9.79004V4.65894H9.88583V4.87537Z" fill="#6A59B0"/>
<path d="M9.88583 12.9265H9.79004V12.9104H9.88583V12.9265ZM9.88583 12.694H9.79004V12.4776H9.88583V12.694ZM9.88583 12.2595H9.79004V12.0431H9.88583V12.2595ZM9.88583 11.8251H9.79004V11.6086H9.88583V11.8251ZM9.88583 11.3906H9.79004V11.1742H9.88583V11.3906ZM9.88583 10.9561H9.79004V10.7381H9.88583V10.9561ZM9.88583 10.5217H9.79004V10.3052H9.88583V10.5217ZM9.88583 10.0872H9.79004V9.87078H9.88583V10.0872ZM9.88583 9.65275H9.79004V9.43631H9.88583V9.65275ZM9.88583 9.21828H9.79004V9.00185H9.88583V9.21828ZM9.88583 8.78381H9.79004V8.56738H9.88583V8.78381Z" fill="#6A59B0"/>
<path d="M9.88583 13.7588H9.79004V13.9752H9.88583V13.7588Z" fill="#6A59B0"/>
<path d="M9.88583 13.3242H9.79004V13.5406H9.88583V13.3242Z" fill="#6A59B0"/>
<path d="M9.88583 12.8899H9.79004V13.1063H9.88583V12.8899Z" fill="#6A59B0"/>
<path d="M9.88583 14.6274H9.79004V14.8439H9.88583V14.6274Z" fill="#6A59B0"/>
<path d="M9.88583 14.1931H9.79004V14.4095H9.88583V14.1931Z" fill="#6A59B0"/>
<path d="M9.88583 15.062H9.79004V15.2784H9.88583V15.062Z" fill="#6A59B0"/>
</g>
<mask id="mask13_2853_2805" style="mask-type:luminance" maskUnits="userSpaceOnUse" x="1" y="4" width="21" height="21">
<path d="M7.80078 20.8865L6.44777 24.9314H1.19995L8.70221 4.80005H14.7232L21.5498 24.9297H16.0762L14.9165 20.8865H7.80078ZM11.5998 9.29701L8.99129 17.1735H13.8542L11.5998 9.29701Z" fill="white"/>
</mask>
<g mask="url(#mask13_2853_2805)">
<path d="M4.37121 21.406H4.24463V21.39H4.37121V21.406ZM4.37121 21.1719H4.24463V20.9539H4.37121V21.1719ZM4.37121 20.7343H4.24463V20.5162H4.37121V20.7343ZM4.37121 20.2966H4.24463V20.0786H4.37121V20.2966ZM4.37121 19.8605H4.24463V19.6425H4.37121V19.8605ZM4.37121 19.4229H4.24463V19.2032H4.37121V19.4229ZM4.37121 18.9852H4.24463V18.7672H4.37121V18.9852ZM4.37121 18.5475H4.24463V18.3295H4.37121V18.5475ZM4.37121 18.1114H4.24463V17.8934H4.37121V18.1114ZM4.37121 17.6738H4.24463V17.4557H4.37121V17.6738ZM4.37121 17.2361H4.24463V17.0181H4.37121V17.2361Z" fill="#6A59B0"/>
<path d="M4.37121 25.3401H4.24463V25.3241H4.37121V25.3401ZM4.37121 25.106H4.24463V24.888H4.37121V25.106ZM4.37121 24.6684H4.24463V24.4503H4.37121V24.6684ZM4.37121 24.2323H4.24463V24.0126H4.37121V24.2323ZM4.37121 23.7946H4.24463V23.5766H4.37121V23.7946ZM4.37121 23.3569H4.24463V23.1389H4.37121V23.3569ZM4.37121 22.9193H4.24463V22.7012H4.37121V22.9193ZM4.37121 22.4832H4.24463V22.2652H4.37121V22.4832ZM4.37121 22.0455H4.24463V21.8275H4.37121V22.0455ZM4.37121 21.6079H4.24463V21.3898H4.37121V21.6079ZM4.37121 21.1702H4.24463V20.9521H4.37121V21.1702Z" fill="#6A59B0"/>
</g>
<mask id="mask14_2853_2805" style="mask-type:luminance" maskUnits="userSpaceOnUse" x="1" y="4" width="21" height="21">
<path d="M7.80078 20.8865L6.44777 24.9314H1.19995L8.70221 4.80005H14.7232L21.5498 24.9297H16.0762L14.9165 20.8865H7.80078ZM11.5998 9.29701L8.99129 17.1735H13.8542L11.5998 9.29701Z" fill="white"/>
</mask>
<g mask="url(#mask14_2853_2805)">
<path d="M13.6592 13.5665C13.6592 12.5196 13.6592 11.3252 13.6592 11.3252V11.3076L14.9523 9.93202C14.9523 9.60016 14.9523 5.92724 14.9472 3.41504H15.043C15.0481 6.00099 15.0481 9.89675 15.0481 9.94805V9.96569L13.755 11.3412C13.755 11.5432 13.755 12.5741 13.755 13.5649L13.6592 13.5665Z" fill="#D9D2FF"/>
<path d="M13.7123 14.2862C13.4899 14.2862 13.3086 14.1163 13.3086 13.9079C13.3086 13.6995 13.4899 13.5295 13.7123 13.5295C13.9346 13.5295 14.1159 13.6995 14.1159 13.9079C14.1159 14.1163 13.9346 14.2862 13.7123 14.2862ZM13.7123 13.6209C13.5429 13.6209 13.4061 13.7492 13.4061 13.9079C13.4061 14.0666 13.5429 14.1949 13.7123 14.1949C13.8816 14.1949 14.0185 14.0666 14.0185 13.9079C14.0202 13.7492 13.8816 13.6209 13.7123 13.6209Z" fill="#D9D2FF"/>
<path d="M13.7895 14.0817C13.8916 14.0421 13.9401 13.9323 13.8978 13.8366C13.8555 13.7409 13.7384 13.6955 13.6363 13.7351C13.5342 13.7747 13.4857 13.8845 13.528 13.9802C13.5703 14.0759 13.6874 14.1213 13.7895 14.0817Z" fill="#D9D2FF"/>
</g>
<mask id="mask15_2853_2805" style="mask-type:luminance" maskUnits="userSpaceOnUse" x="1" y="4" width="21" height="21">
<path d="M7.80078 20.8865L6.44777 24.9314H1.19995L8.70221 4.80005H14.7232L21.5498 24.9297H16.0762L14.9165 20.8865H7.80078ZM11.5998 9.29701L8.99129 17.1735H13.8542L11.5998 9.29701Z" fill="white"/>
</mask>
<g mask="url(#mask15_2853_2805)">
<path d="M17.6891 9.80358C17.7845 9.80358 17.8619 9.73109 17.8619 9.64166C17.8619 9.55223 17.7845 9.47974 17.6891 9.47974C17.5937 9.47974 17.5164 9.55223 17.5164 9.64166C17.5164 9.73109 17.5937 9.80358 17.6891 9.80358Z" fill="white"/>
</g>
<mask id="mask16_2853_2805" style="mask-type:luminance" maskUnits="userSpaceOnUse" x="1" y="4" width="21" height="21">
<path d="M7.80078 20.8865L6.44777 24.9314H1.19995L8.70221 4.80005H14.7232L21.5498 24.9297H16.0762L14.9165 20.8865H7.80078ZM11.5998 9.29701L8.99129 17.1735H13.8542L11.5998 9.29701Z" fill="white"/>
</mask>
<g mask="url(#mask16_2853_2805)">
<path d="M15.4518 15.3602C15.2294 15.3602 15.0481 15.1903 15.0481 14.9819C15.0481 14.7735 15.2294 14.6035 15.4518 14.6035C15.6741 14.6035 15.8555 14.7735 15.8555 14.9819C15.8555 15.1903 15.6741 15.3602 15.4518 15.3602ZM15.4518 14.6949C15.2824 14.6949 15.1456 14.8232 15.1456 14.9819C15.1456 15.1406 15.2824 15.2688 15.4518 15.2688C15.6211 15.2688 15.758 15.1406 15.758 14.9819C15.758 14.8232 15.6211 14.6949 15.4518 14.6949Z" fill="white"/>
</g>
<mask id="mask17_2853_2805" style="mask-type:luminance" maskUnits="userSpaceOnUse" x="1" y="4" width="21" height="21">
<path d="M7.80078 20.8865L6.44777 24.9314H1.19995L8.70221 4.80005H14.7232L21.5498 24.9297H16.0762L14.9165 20.8865H7.80078ZM11.5998 9.29701L8.99129 17.1735H13.8542L11.5998 9.29701Z" fill="white"/>
</mask>
<g mask="url(#mask17_2853_2805)">
<path d="M15.4518 15.1534C15.552 15.1534 15.6331 15.0773 15.6331 14.9834C15.6331 14.8896 15.552 14.8135 15.4518 14.8135C15.3517 14.8135 15.2705 14.8896 15.2705 14.9834C15.2705 15.0773 15.3517 15.1534 15.4518 15.1534Z" fill="white"/>
</g>
<mask id="mask18_2853_2805" style="mask-type:luminance" maskUnits="userSpaceOnUse" x="1" y="4" width="21" height="21">
<path d="M7.80078 20.8865L6.44777 24.9314H1.19995L8.70221 4.80005H14.7232L21.5498 24.9297H16.0762L14.9165 20.8865H7.80078ZM11.5998 9.29701L8.99129 17.1735H13.8542L11.5998 9.29701Z" fill="white"/>
</mask>
<g mask="url(#mask18_2853_2805)">
<path d="M18.339 20.1186H15.1335V17.1143H18.339V20.1186ZM15.2328 20.0257H18.2381V17.2088H15.2328V20.0257Z" fill="white"/>
</g>
<mask id="mask19_2853_2805" style="mask-type:luminance" maskUnits="userSpaceOnUse" x="1" y="4" width="21" height="21">
<path d="M7.80078 20.8865L6.44777 24.9314H1.19995L8.70221 4.80005H14.7232L21.5498 24.9297H16.0762L14.9165 20.8865H7.80078ZM11.5998 9.29701L8.99129 17.1735H13.8542L11.5998 9.29701Z" fill="white"/>
</mask>
<g mask="url(#mask19_2853_2805)">
<path d="M18.339 20.1186H15.1335V17.1143H18.339V20.1186ZM15.2328 20.0257H18.2381V17.2088H15.2328V20.0257Z" fill="white"/>
</g>
<mask id="mask20_2853_2805" style="mask-type:luminance" maskUnits="userSpaceOnUse" x="1" y="4" width="21" height="21">
<path d="M7.80078 20.8865L6.44777 24.9314H1.19995L8.70221 4.80005H14.7232L21.5498 24.9297H16.0762L14.9165 20.8865H7.80078ZM11.5998 9.29701L8.99129 17.1735H13.8542L11.5998 9.29701Z" fill="white"/>
</mask>
<g mask="url(#mask20_2853_2805)">
<path d="M17.992 19.793H15.4827V17.4412H17.992V19.793ZM15.5819 19.6985H17.8911V17.5341H15.5819V19.6985Z" fill="white"/>
</g>
<mask id="mask21_2853_2805" style="mask-type:luminance" maskUnits="userSpaceOnUse" x="1" y="4" width="21" height="21">
<path d="M7.80078 20.8865L6.44777 24.9314H1.19995L8.70221 4.80005H14.7232L21.5498 24.9297H16.0762L14.9165 20.8865H7.80078ZM11.5998 9.29701L8.99129 17.1735H13.8542L11.5998 9.29701Z" fill="white"/>
</mask>
<g mask="url(#mask21_2853_2805)">
<g opacity="0.4">
<path d="M14.3523 19.7947H14.1213V19.8845H14.3523V19.7947Z" fill="black"/>
<path d="M13.8886 19.7947H13.6577V19.8845H13.8886V19.7947Z" fill="black"/>
<path d="M13.425 19.7947H13.1941V19.8845H13.425V19.7947Z" fill="black"/>
<path d="M14.8156 19.7947H14.5847V19.8845H14.8156V19.7947Z" fill="black"/>
</g>
</g>
<mask id="mask22_2853_2805" style="mask-type:luminance" maskUnits="userSpaceOnUse" x="1" y="4" width="21" height="21">
<path d="M7.80078 20.8865L6.44777 24.9314H1.19995L8.70221 4.80005H14.7232L21.5498 24.9297H16.0762L14.9165 20.8865H7.80078ZM11.5998 9.29701L8.99129 17.1735H13.8542L11.5998 9.29701Z" fill="white"/>
</mask>
<g mask="url(#mask22_2853_2805)">
<path d="M14.8771 17.2617H14.665V16.6877H15.2894V16.8865H14.8771V17.2617Z" fill="white"/>
</g>
<mask id="mask23_2853_2805" style="mask-type:luminance" maskUnits="userSpaceOnUse" x="1" y="4" width="21" height="21">
<path d="M7.80078 20.8865L6.44777 24.9314H1.19995L8.70221 4.80005H14.7232L21.5498 24.9297H16.0762L14.9165 20.8865H7.80078ZM11.5998 9.29701L8.99129 17.1735H13.8542L11.5998 9.29701Z" fill="white"/>
</mask>
<g mask="url(#mask23_2853_2805)">
<path d="M14.4357 16.8352H14.2236V16.2612H14.848V16.46H14.4357V16.8352Z" fill="white"/>
</g>
<mask id="mask24_2853_2805" style="mask-type:luminance" maskUnits="userSpaceOnUse" x="1" y="4" width="21" height="21">
<path d="M7.80078 20.8865L6.44777 24.9314H1.19995L8.70221 4.80005H14.7232L21.5498 24.9297H16.0762L14.9165 20.8865H7.80078ZM11.5998 9.29701L8.99129 17.1735H13.8542L11.5998 9.29701Z" fill="white"/>
</mask>
<g mask="url(#mask24_2853_2805)">
<path d="M18.9326 20.659H18.0791V20.388H18.6436V19.875H18.9326V20.659Z" fill="white"/>
</g>
<mask id="mask25_2853_2805" style="mask-type:luminance" maskUnits="userSpaceOnUse" x="1" y="4" width="21" height="21">
<path d="M7.80078 20.8865L6.44777 24.9314H1.19995L8.70221 4.80005H14.7232L21.5498 24.9297H16.0762L14.9165 20.8865H7.80078ZM11.5998 9.29701L8.99129 17.1735H13.8542L11.5998 9.29701Z" fill="white"/>
</mask>
<g mask="url(#mask25_2853_2805)">
<path d="M19.4561 21.1493H18.6025V20.8784H19.167V20.3638H19.4561V21.1493Z" fill="white"/>
</g>
<mask id="mask26_2853_2805" style="mask-type:luminance" maskUnits="userSpaceOnUse" x="6" y="9" width="26" height="24">
<path d="M18.9216 25.0326L21.3486 28.5848L17.9677 32.3853L6.38343 14.1496L10.2625 9.78924L31.0769 17.6469L27.5505 21.6109L23.506 19.8795L18.9216 25.0326ZM11.9176 14.911L16.6606 21.8092L19.7936 18.2874L11.9176 14.911Z" fill="white"/>
</mask>
<g mask="url(#mask26_2853_2805)">
<path d="M19.3091 10.3875L16.8484 13.1562L16.9212 13.2131L19.3818 10.4443L19.3091 10.3875Z" fill="#6A59B0"/>
</g>
<mask id="mask27_2853_2805" style="mask-type:luminance" maskUnits="userSpaceOnUse" x="1" y="4" width="21" height="21">
<path d="M7.80078 20.8865L6.44777 24.9314H1.19995L8.70221 4.80005H14.7232L21.5498 24.9297H16.0762L14.9165 20.8865H7.80078ZM11.5998 9.29701L8.99129 17.1735H13.8542L11.5998 9.29701Z" fill="white"/>
</mask>
<g mask="url(#mask27_2853_2805)">
<path d="M19.7264 3.46948H19.6306V9.73316H19.7264V3.46948Z" fill="#6A59B0"/>
</g>
<mask id="mask28_2853_2805" style="mask-type:luminance" maskUnits="userSpaceOnUse" x="1" y="4" width="21" height="21">
<path d="M7.80078 20.8865L6.44777 24.9314H1.19995L8.70221 4.80005H14.7232L21.5498 24.9297H16.0762L14.9165 20.8865H7.80078ZM11.5998 9.29701L8.99129 17.1735H13.8542L11.5998 9.29701Z" fill="white"/>
</mask>
<g mask="url(#mask28_2853_2805)">
<path d="M19.6305 10.2831C19.7259 10.2831 19.8033 10.2106 19.8033 10.1212C19.8033 10.0317 19.7259 9.95923 19.6305 9.95923C19.5351 9.95923 19.4578 10.0317 19.4578 10.1212C19.4578 10.2106 19.5351 10.2831 19.6305 10.2831Z" fill="white"/>
</g>
<mask id="mask29_2853_2805" style="mask-type:luminance" maskUnits="userSpaceOnUse" x="1" y="4" width="21" height="21">
<path d="M7.80078 20.8865L6.44777 24.9314H1.19995L8.70221 4.80005H14.7232L21.5498 24.9297H16.0762L14.9165 20.8865H7.80078ZM11.5998 9.29701L8.99129 17.1735H13.8542L11.5998 9.29701Z" fill="white"/>
</mask>
<g mask="url(#mask29_2853_2805)">
<g opacity="0.5">
<path d="M18.028 15.1711L17.7954 14.8745L17.561 15.1711H18.028Z" fill="white"/>
<path d="M18.028 15.5814L17.7954 15.2832L17.561 15.5814H18.028Z" fill="white"/>
<path d="M18.028 15.9902L17.7954 15.6936L17.561 15.9902H18.028Z" fill="white"/>
<path d="M18.028 16.4007L17.7954 16.1025L17.561 16.4007H18.028Z" fill="white"/>
<path d="M18.028 16.8095L17.7954 16.5129L17.561 16.8095H18.028Z" fill="white"/>
</g>
</g>
<mask id="mask30_2853_2805" style="mask-type:luminance" maskUnits="userSpaceOnUse" x="1" y="4" width="21" height="21">
<path d="M7.80078 20.8865L6.44777 24.9314H1.19995L8.70221 4.80005H14.7232L21.5498 24.9297H16.0762L14.9165 20.8865H7.80078ZM11.5998 9.29701L8.99129 17.1735H13.8542L11.5998 9.29701Z" fill="white"/>
</mask>
<g mask="url(#mask30_2853_2805)">
<g opacity="0.5">
<path d="M5.2334 24.186L5.49682 24.5227L5.76023 24.186H5.2334Z" fill="white"/>
<path d="M5.2334 23.7241L5.49682 24.0592L5.76023 23.7241H5.2334Z" fill="white"/>
<path d="M5.2334 23.2607L5.49682 23.5974L5.76023 23.2607H5.2334Z" fill="white"/>
<path d="M5.2334 22.7976L5.49682 23.1343L5.76023 22.7976H5.2334Z" fill="white"/>
<path d="M5.2334 22.3342L5.49682 22.6709L5.76023 22.3342H5.2334Z" fill="white"/>
</g>
</g>
<mask id="mask31_2853_2805" style="mask-type:luminance" maskUnits="userSpaceOnUse" x="1" y="4" width="21" height="21">
<path d="M7.80078 20.8865L6.44777 24.9314H1.19995L8.70221 4.80005H14.7232L21.5498 24.9297H16.0762L14.9165 20.8865H7.80078ZM11.5998 9.29701L8.99129 17.1735H13.8542L11.5998 9.29701Z" fill="white"/>
</mask>
<g mask="url(#mask31_2853_2805)">
<g opacity="0.5">
<path d="M12.7476 17.5439L12.4294 17.7636L12.7476 17.9816V17.5439Z" fill="white"/>
<path d="M13.1856 17.5439L12.8674 17.7636L13.1856 17.9816V17.5439Z" fill="white"/>
<path d="M13.6216 17.5439L13.3035 17.7636L13.6216 17.9816V17.5439Z" fill="white"/>
<path d="M14.0596 17.5439L13.7415 17.7636L14.0596 17.9816V17.5439Z" fill="white"/>
<path d="M14.4956 17.5439L14.1775 17.7636L14.4956 17.9816V17.5439Z" fill="white"/>
</g>
</g>
<mask id="mask32_2853_2805" style="mask-type:luminance" maskUnits="userSpaceOnUse" x="1" y="4" width="21" height="21">
<path d="M7.80078 20.8865L6.44777 24.9314H1.19995L8.70221 4.80005H14.7232L21.5498 24.9297H16.0762L14.9165 20.8865H7.80078ZM11.5998 9.29701L8.99129 17.1735H13.8542L11.5998 9.29701Z" fill="white"/>
</mask>
<g mask="url(#mask32_2853_2805)">
<path d="M19.191 22.4192H19.085V24.9282H19.191V22.4192Z" fill="white"/>
</g>
<mask id="mask33_2853_2805" style="mask-type:luminance" maskUnits="userSpaceOnUse" x="1" y="4" width="21" height="21">
<path d="M7.80078 20.8865L6.44777 24.9314H1.19995L8.70221 4.80005H14.7232L21.5498 24.9297H16.0762L14.9165 20.8865H7.80078ZM11.5998 9.29701L8.99129 17.1735H13.8542L11.5998 9.29701Z" fill="white"/>
</mask>
<g mask="url(#mask33_2853_2805)">
<path d="M18.5803 21.9415H16.3516V20.0818H16.4576V21.8437H18.5803V21.9415Z" fill="white"/>
</g>
<mask id="mask34_2853_2805" style="mask-type:luminance" maskUnits="userSpaceOnUse" x="1" y="4" width="21" height="21">
<path d="M7.80078 20.8865L6.44777 24.9314H1.19995L8.70221 4.80005H14.7232L21.5498 24.9297H16.0762L14.9165 20.8865H7.80078ZM11.5998 9.29701L8.99129 17.1735H13.8542L11.5998 9.29701Z" fill="white"/>
</mask>
<g mask="url(#mask34_2853_2805)">
<path d="M19.1105 22.3293C18.8932 22.3293 18.7153 22.1626 18.7153 21.959C18.7153 21.7554 18.8932 21.5886 19.1105 21.5886C19.3277 21.5886 19.5056 21.7554 19.5056 21.959C19.5056 22.1626 19.3294 22.3293 19.1105 22.3293ZM19.1105 21.6768C18.9445 21.6768 18.8094 21.8035 18.8094 21.959C18.8094 22.1145 18.9445 22.2411 19.1105 22.2411C19.2764 22.2411 19.4115 22.1145 19.4115 21.959C19.4115 21.8035 19.2764 21.6768 19.1105 21.6768Z" fill="white"/>
<path d="M19.2846 21.9996C19.3072 21.91 19.248 21.8202 19.1523 21.799C19.0567 21.7778 18.9609 21.8333 18.9383 21.9229C18.9158 22.0126 18.975 22.1024 19.0706 22.1235C19.1662 22.1447 19.262 22.0892 19.2846 21.9996Z" fill="white"/>
</g>
<mask id="mask35_2853_2805" style="mask-type:luminance" maskUnits="userSpaceOnUse" x="1" y="4" width="21" height="21">
<path d="M7.80078 20.8865L6.44777 24.9314H1.19995L8.70221 4.80005H14.7232L21.5498 24.9297H16.0762L14.9165 20.8865H7.80078ZM11.5998 9.29701L8.99129 17.1735H13.8542L11.5998 9.29701Z" fill="white"/>
</mask>
<g mask="url(#mask35_2853_2805)">
<path d="M14.8411 14.8425H12.9202V14.9419H14.8411V14.8425Z" fill="white"/>
</g>
<mask id="mask36_2853_2805" style="mask-type:luminance" maskUnits="userSpaceOnUse" x="1" y="4" width="21" height="21">
<path d="M7.80078 20.8865L6.44777 24.9314H1.19995L8.70221 4.80005H14.7232L21.5498 24.9297H16.0762L14.9165 20.8865H7.80078ZM11.5998 9.29701L8.99129 17.1735H13.8542L11.5998 9.29701Z" fill="white"/>
</mask>
<g mask="url(#mask36_2853_2805)">
<path d="M15.6058 15.5349H15.4998V17.1734H15.6058V15.5349Z" fill="white"/>
</g>
<mask id="mask37_2853_2805" style="mask-type:luminance" maskUnits="userSpaceOnUse" x="1" y="4" width="21" height="21">
<path d="M7.80078 20.8865L6.44777 24.9314H1.19995L8.70221 4.80005H14.7232L21.5498 24.9297H16.0762L14.9165 20.8865H7.80078ZM11.5998 9.29701L8.99129 17.1735H13.8542L11.5998 9.29701Z" fill="white"/>
</mask>
<g mask="url(#mask37_2853_2805)">
<path d="M9.93888 17.9334C10.039 17.9334 10.1202 17.8573 10.1202 17.7634C10.1202 17.6696 10.039 17.5935 9.93888 17.5935C9.83875 17.5935 9.75757 17.6696 9.75757 17.7634C9.75757 17.8573 9.83875 17.9334 9.93888 17.9334Z" fill="white"/>
</g>
<mask id="mask38_2853_2805" style="mask-type:luminance" maskUnits="userSpaceOnUse" x="1" y="4" width="21" height="21">
<path d="M7.80078 20.8865L6.44777 24.9314H1.19995L8.70221 4.80005H14.7232L21.5498 24.9297H16.0762L14.9165 20.8865H7.80078ZM11.5998 9.29701L8.99129 17.1735H13.8542L11.5998 9.29701Z" fill="white"/>
</mask>
<g mask="url(#mask38_2853_2805)">
<path opacity="0.5" d="M12.1591 17.7634C12.1591 17.8147 12.1146 17.8564 12.0599 17.8564C12.0052 17.8564 11.9607 17.8147 11.9607 17.7634C11.9607 17.7121 12.0052 17.6704 12.0599 17.6704C12.1146 17.6704 12.1591 17.7121 12.1591 17.7634Z" fill="black"/>
<path opacity="0.5" d="M11.8119 17.7634C11.8119 17.8147 11.7675 17.8564 11.7127 17.8564C11.658 17.8564 11.6135 17.8147 11.6135 17.7634C11.6135 17.7121 11.658 17.6704 11.7127 17.6704C11.7675 17.6704 11.8119 17.7121 11.8119 17.7634Z" fill="black"/>
<path opacity="0.5" d="M11.4628 17.7634C11.4628 17.8147 11.4183 17.8564 11.3636 17.8564C11.3089 17.8564 11.2644 17.8147 11.2644 17.7634C11.2644 17.7121 11.3089 17.6704 11.3636 17.6704C11.4183 17.6704 11.4628 17.7121 11.4628 17.7634Z" fill="black"/>
<path opacity="0.5" d="M11.1157 17.7634C11.1157 17.8147 11.0712 17.8564 11.0164 17.8564C10.9617 17.8564 10.9172 17.8147 10.9172 17.7634C10.9172 17.7121 10.9617 17.6704 11.0164 17.6704C11.0712 17.6704 11.1157 17.7121 11.1157 17.7634Z" fill="black"/>
</g>
<mask id="mask39_2853_2805" style="mask-type:luminance" maskUnits="userSpaceOnUse" x="1" y="4" width="21" height="21">
<path d="M7.80078 20.8865L6.44777 24.9314H1.19995L8.70221 4.80005H14.7232L21.5498 24.9297H16.0762L14.9165 20.8865H7.80078ZM11.5998 9.29701L8.99129 17.1735H13.8542L11.5998 9.29701Z" fill="white"/>
</mask>
<g mask="url(#mask39_2853_2805)">
<path opacity="0.5" d="M18.8113 23.5702C18.7737 23.5702 18.7429 23.5413 18.7429 23.506C18.7429 23.4708 18.7737 23.4419 18.8113 23.4419C18.849 23.4419 18.8798 23.4708 18.8798 23.506C18.8798 23.5413 18.8507 23.5702 18.8113 23.5702Z" fill="white"/>
<path opacity="0.5" d="M18.8113 23.3426C18.7737 23.3426 18.7429 23.3138 18.7429 23.2785C18.7429 23.2432 18.7737 23.2144 18.8113 23.2144C18.849 23.2144 18.8798 23.2432 18.8798 23.2785C18.8815 23.3138 18.8507 23.3426 18.8113 23.3426Z" fill="white"/>
<path opacity="0.5" d="M18.8113 23.1165C18.7737 23.1165 18.7429 23.0877 18.7429 23.0524C18.7429 23.0171 18.7737 22.9883 18.8113 22.9883C18.849 22.9883 18.8798 23.0171 18.8798 23.0524C18.8798 23.0877 18.8507 23.1165 18.8113 23.1165Z" fill="white"/>
<path opacity="0.5" d="M18.8113 22.8905C18.7737 22.8905 18.7429 22.8616 18.7429 22.8263C18.7429 22.7911 18.7737 22.7622 18.8113 22.7622C18.849 22.7622 18.8798 22.7911 18.8798 22.8263C18.8815 22.8616 18.8507 22.8905 18.8113 22.8905Z" fill="white"/>
<path opacity="0.5" d="M18.8113 24.5208C18.7737 24.5208 18.7429 24.492 18.7429 24.4567C18.7429 24.4214 18.7737 24.3926 18.8113 24.3926C18.849 24.3926 18.8798 24.4214 18.8798 24.4567C18.8815 24.4904 18.8507 24.5208 18.8113 24.5208Z" fill="white"/>
<path opacity="0.5" d="M18.8113 24.2933C18.7737 24.2933 18.7429 24.2644 18.7429 24.2292C18.7429 24.1939 18.7737 24.165 18.8113 24.165C18.849 24.165 18.8798 24.1939 18.8798 24.2292C18.8798 24.2644 18.8507 24.2933 18.8113 24.2933Z" fill="white"/>
<path opacity="0.5" d="M18.8113 24.0672C18.7737 24.0672 18.7429 24.0384 18.7429 24.0031C18.7429 23.9678 18.7737 23.939 18.8113 23.939C18.849 23.939 18.8798 23.9678 18.8798 24.0031C18.8815 24.0384 18.8507 24.0672 18.8113 24.0672Z" fill="white"/>
<path opacity="0.5" d="M18.8113 23.8411C18.7737 23.8411 18.7429 23.8123 18.7429 23.777C18.7429 23.7417 18.7737 23.7129 18.8113 23.7129C18.849 23.7129 18.8798 23.7417 18.8798 23.777C18.8815 23.8123 18.8507 23.8411 18.8113 23.8411Z" fill="white"/>
</g>
<mask id="mask40_2853_2805" style="mask-type:luminance" maskUnits="userSpaceOnUse" x="1" y="4" width="21" height="21">
<path d="M7.80078 20.8865L6.44777 24.9314H1.19995L8.70221 4.80005H14.7232L21.5498 24.9297H16.0762L14.9165 20.8865H7.80078ZM11.5998 9.29701L8.99129 17.1735H13.8542L11.5998 9.29701Z" fill="white"/>
</mask>
<g mask="url(#mask40_2853_2805)">
<path opacity="0.5" d="M13.0521 7.22738C13.0144 7.22738 12.9836 7.19852 12.9836 7.16325C12.9836 7.12798 13.0144 7.09912 13.0521 7.09912C13.0897 7.09912 13.1205 7.12798 13.1205 7.16325C13.1205 7.19852 13.0897 7.22738 13.0521 7.22738Z" fill="white"/>
<path opacity="0.5" d="M13.0521 7.00155C13.0144 7.00155 12.9836 6.97269 12.9836 6.93742C12.9836 6.90215 13.0144 6.87329 13.0521 6.87329C13.0897 6.87329 13.1205 6.90215 13.1205 6.93742C13.1205 6.97109 13.0897 7.00155 13.0521 7.00155Z" fill="white"/>
<path opacity="0.5" d="M13.0521 6.77376C13.0144 6.77376 12.9836 6.74491 12.9836 6.70964C12.9836 6.67437 13.0144 6.64551 13.0521 6.64551C13.0897 6.64551 13.1205 6.67437 13.1205 6.70964C13.1205 6.74491 13.0897 6.77376 13.0521 6.77376Z" fill="white"/>
<path opacity="0.5" d="M13.0521 6.54769C13.0144 6.54769 12.9836 6.51883 12.9836 6.48356C12.9836 6.44829 13.0144 6.41943 13.0521 6.41943C13.0897 6.41943 13.1205 6.44829 13.1205 6.48356C13.1205 6.51883 13.0897 6.54769 13.0521 6.54769Z" fill="white"/>
<path opacity="0.5" d="M13.0521 8.17806C13.0144 8.17806 12.9836 8.1492 12.9836 8.11393C12.9836 8.07866 13.0144 8.0498 13.0521 8.0498C13.0897 8.0498 13.1205 8.07866 13.1205 8.11393C13.1205 8.1492 13.0897 8.17806 13.0521 8.17806Z" fill="white"/>
<path opacity="0.5" d="M13.0521 7.95052C13.0144 7.95052 12.9836 7.92166 12.9836 7.88639C12.9836 7.85112 13.0144 7.82227 13.0521 7.82227C13.0897 7.82227 13.1205 7.85112 13.1205 7.88639C13.1205 7.92166 13.0897 7.95052 13.0521 7.95052Z" fill="white"/>
<path opacity="0.5" d="M13.0521 7.72445C13.0144 7.72445 12.9836 7.69559 12.9836 7.66032C12.9836 7.62505 13.0144 7.59619 13.0521 7.59619C13.0897 7.59619 13.1205 7.62505 13.1205 7.66032C13.1205 7.69559 13.0897 7.72445 13.0521 7.72445Z" fill="white"/>
<path opacity="0.5" d="M13.0521 7.49837C13.0899 7.49837 13.1205 7.46966 13.1205 7.43424C13.1205 7.39883 13.0899 7.37012 13.0521 7.37012C13.0143 7.37012 12.9836 7.39883 12.9836 7.43424C12.9836 7.46966 13.0143 7.49837 13.0521 7.49837Z" fill="white"/>
</g>
<mask id="mask41_2853_2805" style="mask-type:luminance" maskUnits="userSpaceOnUse" x="1" y="4" width="21" height="21">
<path d="M7.80078 20.8865L6.44777 24.9314H1.19995L8.70221 4.80005H14.7232L21.5498 24.9297H16.0762L14.9165 20.8865H7.80078ZM11.5998 9.29701L8.99129 17.1735H13.8542L11.5998 9.29701Z" fill="white"/>
</mask>
<g mask="url(#mask41_2853_2805)">
<path opacity="0.5" d="M13.0521 12.2613C13.0144 12.2613 12.9836 12.2325 12.9836 12.1972C12.9836 12.1619 13.0144 12.1331 13.0521 12.1331C13.0897 12.1331 13.1205 12.1619 13.1205 12.1972C13.1205 12.2325 13.0897 12.2613 13.0521 12.2613Z" fill="white"/>
<path opacity="0.5" d="M13.0521 12.0352C13.0144 12.0352 12.9836 12.0064 12.9836 11.9711C12.9836 11.9358 13.0144 11.907 13.0521 11.907C13.0897 11.907 13.1205 11.9358 13.1205 11.9711C13.1205 12.0064 13.0897 12.0352 13.0521 12.0352Z" fill="white"/>
<path opacity="0.5" d="M13.0521 11.8092C13.0899 11.8092 13.1205 11.7805 13.1205 11.745C13.1205 11.7096 13.0899 11.6809 13.0521 11.6809C13.0143 11.6809 12.9836 11.7096 12.9836 11.745C12.9836 11.7805 13.0143 11.8092 13.0521 11.8092Z" fill="white"/>
<path opacity="0.5" d="M13.0521 11.5831C13.0144 11.5831 12.9836 11.5542 12.9836 11.519C12.9836 11.4837 13.0144 11.4548 13.0521 11.4548C13.0897 11.4548 13.1205 11.4837 13.1205 11.519C13.1205 11.5542 13.0897 11.5831 13.0521 11.5831Z" fill="white"/>
<path opacity="0.5" d="M13.0521 13.212C13.0899 13.212 13.1205 13.1833 13.1205 13.1479C13.1205 13.1125 13.0899 13.0837 13.0521 13.0837C13.0143 13.0837 12.9836 13.1125 12.9836 13.1479C12.9836 13.1833 13.0143 13.212 13.0521 13.212Z" fill="white"/>
<path opacity="0.5" d="M13.0521 12.9859C13.0144 12.9859 12.9836 12.9571 12.9836 12.9218C12.9836 12.8865 13.0144 12.8577 13.0521 12.8577C13.0897 12.8577 13.1205 12.8865 13.1205 12.9218C13.1205 12.9571 13.0897 12.9859 13.0521 12.9859Z" fill="white"/>
<path opacity="0.5" d="M13.0521 12.7598C13.0144 12.7598 12.9836 12.731 12.9836 12.6957C12.9836 12.6604 13.0144 12.6316 13.0521 12.6316C13.0897 12.6316 13.1205 12.6604 13.1205 12.6957C13.1205 12.731 13.0897 12.7598 13.0521 12.7598Z" fill="white"/>
<path opacity="0.5" d="M13.0521 12.5338C13.0144 12.5338 12.9836 12.5049 12.9836 12.4696C12.9836 12.4344 13.0144 12.4055 13.0521 12.4055C13.0897 12.4055 13.1205 12.4344 13.1205 12.4696C13.1205 12.5049 13.0897 12.5338 13.0521 12.5338Z" fill="white"/>
</g>
<mask id="mask42_2853_2805" style="mask-type:luminance" maskUnits="userSpaceOnUse" x="1" y="4" width="21" height="21">
<path d="M7.80078 20.8865L6.44777 24.9314H1.19995L8.70221 4.80005H14.7232L21.5498 24.9297H16.0762L14.9165 20.8865H7.80078ZM11.5998 9.29701L8.99129 17.1735H13.8542L11.5998 9.29701Z" fill="white"/>
</mask>
<g mask="url(#mask42_2853_2805)">
<path d="M7.34758 20.2276L6.18786 19.1406H2.75488V19.022H6.24089L7.43824 20.1442L7.34758 20.2276Z" fill="white"/>
</g>
<mask id="mask43_2853_2805" style="mask-type:luminance" maskUnits="userSpaceOnUse" x="1" y="4" width="21" height="21">
<path d="M7.80078 20.8865L6.44777 24.9314H1.19995L8.70221 4.80005H14.7232L21.5498 24.9297H16.0762L14.9165 20.8865H7.80078ZM11.5998 9.29701L8.99129 17.1735H13.8542L11.5998 9.29701Z" fill="white"/>
</mask>
<g mask="url(#mask43_2853_2805)">
<path d="M8.35845 17.1686H6.65137V15.5686H8.35845V17.1686ZM6.70439 17.1189H8.30542V15.6183H6.70439V17.1189Z" fill="white"/>
<path d="M8.17208 16.9938H6.83618V15.7417H8.17208V16.9938ZM6.88921 16.9441H8.11906V15.7914H6.88921V16.9441Z" fill="white"/>
<path d="M7.88984 16.0061H7.11841V16.7291H7.88984V16.0061Z" fill="white"/>
</g>
<mask id="mask44_2853_2805" style="mask-type:luminance" maskUnits="userSpaceOnUse" x="1" y="4" width="21" height="21">
<path d="M7.80078 20.8865L6.44777 24.9314H1.19995L8.70221 4.80005H14.7232L21.5498 24.9297H16.0762L14.9165 20.8865H7.80078ZM11.5998 9.29701L8.99129 17.1735H13.8542L11.5998 9.29701Z" fill="white"/>
</mask>
<g mask="url(#mask44_2853_2805)">
<path d="M6.6529 15.96H3.55176V16.0049H6.6529V15.96Z" fill="white"/>
</g>
<mask id="mask45_2853_2805" style="mask-type:luminance" maskUnits="userSpaceOnUse" x="1" y="4" width="21" height="21">
<path d="M7.80078 20.8865L6.44777 24.9314H1.19995L8.70221 4.80005H14.7232L21.5498 24.9297H16.0762L14.9165 20.8865H7.80078ZM11.5998 9.29701L8.99129 17.1735H13.8542L11.5998 9.29701Z" fill="white"/>
</mask>
<g mask="url(#mask45_2853_2805)">
<path d="M6.6529 16.2388H3.55176V16.2837H6.6529V16.2388Z" fill="white"/>
</g>
<mask id="mask46_2853_2805" style="mask-type:luminance" maskUnits="userSpaceOnUse" x="1" y="4" width="21" height="21">
<path d="M7.80078 20.8865L6.44777 24.9314H1.19995L8.70221 4.80005H14.7232L21.5498 24.9297H16.0762L14.9165 20.8865H7.80078ZM11.5998 9.29701L8.99129 17.1735H13.8542L11.5998 9.29701Z" fill="white"/>
</mask>
<g mask="url(#mask46_2853_2805)">
<path d="M6.6529 16.5178H3.55176V16.5627H6.6529V16.5178Z" fill="white"/>
</g>
<mask id="mask47_2853_2805" style="mask-type:luminance" maskUnits="userSpaceOnUse" x="1" y="4" width="21" height="21">
<path d="M7.80078 20.8865L6.44777 24.9314H1.19995L8.70221 4.80005H14.7232L21.5498 24.9297H16.0762L14.9165 20.8865H7.80078ZM11.5998 9.29701L8.99129 17.1735H13.8542L11.5998 9.29701Z" fill="white"/>
</mask>
<g mask="url(#mask47_2853_2805)">
<path d="M6.6529 16.7969H3.55176V16.8418H6.6529V16.7969Z" fill="white"/>
</g>
<mask id="mask48_2853_2805" style="mask-type:luminance" maskUnits="userSpaceOnUse" x="1" y="4" width="21" height="21">
<path d="M7.80078 20.8865L6.44777 24.9314H1.19995L8.70221 4.80005H14.7232L21.5498 24.9297H16.0762L14.9165 20.8865H7.80078ZM11.5998 9.29701L8.99129 17.1735H13.8542L11.5998 9.29701Z" fill="white"/>
</mask>
<g mask="url(#mask48_2853_2805)">
<path d="M7.89139 15.5848H7.85205V13.5969L7.85718 13.5921L8.84072 12.6702C8.85612 9.81814 8.87664 4.40737 8.84243 4.28552C8.84243 4.28713 8.84585 4.29354 8.8544 4.29675L8.85954 4.27911L8.84585 4.26628L8.86809 4.26147C8.88519 4.26789 8.88861 4.26949 8.89375 4.64464C8.89717 4.86428 8.89888 5.18491 8.90059 5.59854C8.9023 6.29593 8.9023 7.26746 8.89888 8.48429C8.89375 10.5572 8.88177 12.6558 8.88177 12.6766V12.6847L8.87664 12.6895L7.8931 13.6113V15.5848H7.89139Z" fill="white"/>
</g>
<mask id="mask49_2853_2805" style="mask-type:luminance" maskUnits="userSpaceOnUse" x="1" y="4" width="21" height="21">
<path d="M7.80078 20.8865L6.44777 24.9314H1.19995L8.70221 4.80005H14.7232L21.5498 24.9297H16.0762L14.9165 20.8865H7.80078ZM11.5998 9.29701L8.99129 17.1735H13.8542L11.5998 9.29701Z" fill="white"/>
</mask>
<g mask="url(#mask49_2853_2805)">
<path d="M7.59378 15.5846H7.55444V11.8764L8.11036 11.3811V5.47168H8.1497V11.3971L7.59378 11.8925V15.5846Z" fill="white"/>
</g>
<mask id="mask50_2853_2805" style="mask-type:luminance" maskUnits="userSpaceOnUse" x="1" y="4" width="21" height="21">
<path d="M7.80078 20.8865L6.44777 24.9314H1.19995L8.70221 4.80005H14.7232L21.5498 24.9297H16.0762L14.9165 20.8865H7.80078ZM11.5998 9.29701L8.99129 17.1735H13.8542L11.5998 9.29701Z" fill="white"/>
</mask>
<g mask="url(#mask50_2853_2805)">
<path d="M7.29622 15.5846H7.25688V12.8447L6.65479 12.1361V5.78906H6.69413V12.1233L7.29622 12.8319V15.5846Z" fill="white"/>
</g>
<mask id="mask51_2853_2805" style="mask-type:luminance" maskUnits="userSpaceOnUse" x="1" y="4" width="21" height="21">
<path d="M7.80078 20.8865L6.44777 24.9314H1.19995L8.70221 4.80005H14.7232L21.5498 24.9297H16.0762L14.9165 20.8865H7.80078ZM11.5998 9.29701L8.99129 17.1735H13.8542L11.5998 9.29701Z" fill="white"/>
</mask>
<g mask="url(#mask51_2853_2805)">
<path d="M6.99853 15.5847H6.95919L6.97972 14.1114L6.17407 13.3547V10.8826H6.21341V13.3403L7.01906 14.0954V14.1034L6.99853 15.5847Z" fill="white"/>
</g>
<mask id="mask52_2853_2805" style="mask-type:luminance" maskUnits="userSpaceOnUse" x="23" y="4" width="7" height="21">
<path d="M29.0024 4.80005H23.835V24.9297H29.0024V4.80005Z" fill="white"/>
</mask>
<g mask="url(#mask52_2853_2805)">
<g opacity="0.5">
<path opacity="0.4" d="M28.0444 5.60181H26.1406V7.41021H28.0444V5.60181Z" fill="url(#paint12_linear_2853_2805)"/>
<path opacity="0.4" d="M28.0444 14.1018H26.1406V15.7787H28.0444V14.1018Z" fill="url(#paint13_linear_2853_2805)"/>
<path opacity="0.4" d="M28.0444 16.5129H26.1406V18.6628H28.0444V16.5129Z" fill="url(#paint14_linear_2853_2805)"/>
<path opacity="0.4" d="M28.0444 19.4485H26.1406V28.0689H28.0444V19.4485Z" fill="url(#paint15_linear_2853_2805)"/>
<path opacity="0.4" d="M28.0444 11.3364H26.1406V13.3148H28.0444V11.3364Z" fill="url(#paint16_linear_2853_2805)"/>
<path opacity="0.4" d="M28.0444 8.53076H26.1406V10.4001H28.0444V8.53076Z" fill="url(#paint17_linear_2853_2805)"/>
</g>
</g>
<mask id="mask53_2853_2805" style="mask-type:luminance" maskUnits="userSpaceOnUse" x="23" y="4" width="7" height="21">
<path d="M29.0024 4.80005H23.835V24.9297H29.0024V4.80005Z" fill="white"/>
</mask>
<g mask="url(#mask53_2853_2805)">
<path opacity="0.4" d="M24.8751 -0.359131H24.4988V25.4988H24.8751V-0.359131Z" fill="url(#paint18_linear_2853_2805)"/>
</g>
</g>
<defs>
<linearGradient id="paint0_linear_2853_2805" x1="5.62492" y1="11.2499" x2="15.0784" y2="26.3201" gradientUnits="userSpaceOnUse">
<stop stop-color="#5F75FB"/>
<stop offset="0.1897" stop-color="#676BF3"/>
<stop offset="0.4837" stop-color="#9A73DE"/>
<stop offset="0.786458" stop-color="#BD54BC"/>
<stop offset="1" stop-color="#CF44AB"/>
</linearGradient>
<linearGradient id="paint1_linear_2853_2805" x1="34.6874" y1="3.28119" x2="25.9613" y2="23.4522" gradientUnits="userSpaceOnUse">
<stop stop-color="#324BE1"/>
<stop offset="0.194145" stop-color="#424FD5"/>
<stop offset="0.4421" stop-color="#8C80EB"/>
<stop offset="0.6572" stop-color="#9F6FD9"/>
<stop offset="1" stop-color="#F568D1"/>
</linearGradient>
<linearGradient id="paint2_linear_2853_2805" x1="16.8627" y1="31.5316" x2="16.8627" y2="2.3504" gradientUnits="userSpaceOnUse">
<stop/>
<stop offset="0.046394" stop-color="#0E0A16"/>
<stop offset="0.2923" stop-color="#583E85"/>
<stop offset="0.4621" stop-color="#875FCB"/>
<stop offset="0.5408" stop-color="#996CE6"/>
<stop offset="0.6245" stop-color="#7351AD"/>
<stop offset="0.723" stop-color="#4A3470"/>
<stop offset="0.8134" stop-color="#2A1E40"/>
<stop offset="0.8926" stop-color="#130E1D"/>
<stop offset="0.9575" stop-color="#050408"/>
<stop offset="1"/>
</linearGradient>
<linearGradient id="paint3_linear_2853_2805" x1="6.67397" y1="31.9846" x2="6.67397" y2="2.80339" gradientUnits="userSpaceOnUse">
<stop/>
<stop offset="0.046394" stop-color="#0E0A16"/>
<stop offset="0.2923" stop-color="#583E85"/>
<stop offset="0.4621" stop-color="#875FCB"/>
<stop offset="0.5408" stop-color="#996CE6"/>
<stop offset="0.6245" stop-color="#7351AD"/>
<stop offset="0.723" stop-color="#4A3470"/>
<stop offset="0.8134" stop-color="#2A1E40"/>
<stop offset="0.8926" stop-color="#130E1D"/>
<stop offset="0.9575" stop-color="#050408"/>
<stop offset="1"/>
</linearGradient>
<linearGradient id="paint4_linear_2853_2805" x1="9.09357" y1="26.6402" x2="9.09357" y2="0.222493" gradientUnits="userSpaceOnUse">
<stop/>
<stop offset="0.046394" stop-color="#0E0A16"/>
<stop offset="0.2923" stop-color="#583E85"/>
<stop offset="0.4621" stop-color="#875FCB"/>
<stop offset="0.5408" stop-color="#996CE6"/>
<stop offset="0.6245" stop-color="#7351AD"/>
<stop offset="0.723" stop-color="#4A3470"/>
<stop offset="0.8134" stop-color="#2A1E40"/>
<stop offset="0.8926" stop-color="#130E1D"/>
<stop offset="0.9575" stop-color="#050408"/>
<stop offset="1"/>
</linearGradient>
<linearGradient id="paint5_linear_2853_2805" x1="9.09357" y1="26.6403" x2="9.09357" y2="0.22262" gradientUnits="userSpaceOnUse">
<stop/>
<stop offset="0.046394" stop-color="#0E0A16"/>
<stop offset="0.2923" stop-color="#583E85"/>
<stop offset="0.4621" stop-color="#875FCB"/>
<stop offset="0.5408" stop-color="#996CE6"/>
<stop offset="0.6245" stop-color="#7351AD"/>
<stop offset="0.723" stop-color="#4A3470"/>
<stop offset="0.8134" stop-color="#2A1E40"/>
<stop offset="0.8926" stop-color="#130E1D"/>
<stop offset="0.9575" stop-color="#050408"/>
<stop offset="1"/>
</linearGradient>
<linearGradient id="paint6_linear_2853_2805" x1="9.09357" y1="26.6402" x2="9.09357" y2="0.222453" gradientUnits="userSpaceOnUse">
<stop/>
<stop offset="0.046394" stop-color="#0E0A16"/>
<stop offset="0.2923" stop-color="#583E85"/>
<stop offset="0.4621" stop-color="#875FCB"/>
<stop offset="0.5408" stop-color="#996CE6"/>
<stop offset="0.6245" stop-color="#7351AD"/>
<stop offset="0.723" stop-color="#4A3470"/>
<stop offset="0.8134" stop-color="#2A1E40"/>
<stop offset="0.8926" stop-color="#130E1D"/>
<stop offset="0.9575" stop-color="#050408"/>
<stop offset="1"/>
</linearGradient>
<linearGradient id="paint7_linear_2853_2805" x1="9.09357" y1="26.6403" x2="9.09357" y2="0.222529" gradientUnits="userSpaceOnUse">
<stop/>
<stop offset="0.046394" stop-color="#0E0A16"/>
<stop offset="0.2923" stop-color="#583E85"/>
<stop offset="0.4621" stop-color="#875FCB"/>
<stop offset="0.5408" stop-color="#996CE6"/>
<stop offset="0.6245" stop-color="#7351AD"/>
<stop offset="0.723" stop-color="#4A3470"/>
<stop offset="0.8134" stop-color="#2A1E40"/>
<stop offset="0.8926" stop-color="#130E1D"/>
<stop offset="0.9575" stop-color="#050408"/>
<stop offset="1"/>
</linearGradient>
<linearGradient id="paint8_linear_2853_2805" x1="9.09357" y1="26.6402" x2="9.09357" y2="0.222451" gradientUnits="userSpaceOnUse">
<stop/>
<stop offset="0.046394" stop-color="#0E0A16"/>
<stop offset="0.2923" stop-color="#583E85"/>
<stop offset="0.4621" stop-color="#875FCB"/>
<stop offset="0.5408" stop-color="#996CE6"/>
<stop offset="0.6245" stop-color="#7351AD"/>
<stop offset="0.723" stop-color="#4A3470"/>
<stop offset="0.8134" stop-color="#2A1E40"/>
<stop offset="0.8926" stop-color="#130E1D"/>
<stop offset="0.9575" stop-color="#050408"/>
<stop offset="1"/>
</linearGradient>
<linearGradient id="paint9_linear_2853_2805" x1="9.09357" y1="26.6402" x2="9.09357" y2="0.222424" gradientUnits="userSpaceOnUse">
<stop/>
<stop offset="0.046394" stop-color="#0E0A16"/>
<stop offset="0.2923" stop-color="#583E85"/>
<stop offset="0.4621" stop-color="#875FCB"/>
<stop offset="0.5408" stop-color="#996CE6"/>
<stop offset="0.6245" stop-color="#7351AD"/>
<stop offset="0.723" stop-color="#4A3470"/>
<stop offset="0.8134" stop-color="#2A1E40"/>
<stop offset="0.8926" stop-color="#130E1D"/>
<stop offset="0.9575" stop-color="#050408"/>
<stop offset="1"/>
</linearGradient>
<linearGradient id="paint10_linear_2853_2805" x1="9.09357" y1="26.6403" x2="9.09357" y2="0.222699" gradientUnits="userSpaceOnUse">
<stop/>
<stop offset="0.046394" stop-color="#0E0A16"/>
<stop offset="0.2923" stop-color="#583E85"/>
<stop offset="0.4621" stop-color="#875FCB"/>
<stop offset="0.5408" stop-color="#996CE6"/>
<stop offset="0.6245" stop-color="#7351AD"/>
<stop offset="0.723" stop-color="#4A3470"/>
<stop offset="0.8134" stop-color="#2A1E40"/>
<stop offset="0.8926" stop-color="#130E1D"/>
<stop offset="0.9575" stop-color="#050408"/>
<stop offset="1"/>
</linearGradient>
<linearGradient id="paint11_linear_2853_2805" x1="9.09357" y1="26.6402" x2="9.09357" y2="0.222498" gradientUnits="userSpaceOnUse">
<stop/>
<stop offset="0.046394" stop-color="#0E0A16"/>
<stop offset="0.2923" stop-color="#583E85"/>
<stop offset="0.4621" stop-color="#875FCB"/>
<stop offset="0.5408" stop-color="#996CE6"/>
<stop offset="0.6245" stop-color="#7351AD"/>
<stop offset="0.723" stop-color="#4A3470"/>
<stop offset="0.8134" stop-color="#2A1E40"/>
<stop offset="0.8926" stop-color="#130E1D"/>
<stop offset="0.9575" stop-color="#050408"/>
<stop offset="1"/>
</linearGradient>
<linearGradient id="paint12_linear_2853_2805" x1="27.0923" y1="28.2989" x2="27.0923" y2="-6.65226" gradientUnits="userSpaceOnUse">
<stop/>
<stop offset="0.046394" stop-color="#0E0A16"/>
<stop offset="0.2923" stop-color="#583E85"/>
<stop offset="0.4621" stop-color="#875FCB"/>
<stop offset="0.5408" stop-color="#996CE6"/>
<stop offset="0.6245" stop-color="#7351AD"/>
<stop offset="0.723" stop-color="#4A3470"/>
<stop offset="0.8134" stop-color="#2A1E40"/>
<stop offset="0.8926" stop-color="#130E1D"/>
<stop offset="0.9575" stop-color="#050408"/>
<stop offset="1"/>
</linearGradient>
<linearGradient id="paint13_linear_2853_2805" x1="27.0923" y1="28.2987" x2="27.0923" y2="-6.65253" gradientUnits="userSpaceOnUse">
<stop/>
<stop offset="0.046394" stop-color="#0E0A16"/>
<stop offset="0.2923" stop-color="#583E85"/>
<stop offset="0.4621" stop-color="#875FCB"/>
<stop offset="0.5408" stop-color="#996CE6"/>
<stop offset="0.6245" stop-color="#7351AD"/>
<stop offset="0.723" stop-color="#4A3470"/>
<stop offset="0.8134" stop-color="#2A1E40"/>
<stop offset="0.8926" stop-color="#130E1D"/>
<stop offset="0.9575" stop-color="#050408"/>
<stop offset="1"/>
</linearGradient>
<linearGradient id="paint14_linear_2853_2805" x1="27.0923" y1="28.2986" x2="27.0923" y2="-6.65258" gradientUnits="userSpaceOnUse">
<stop/>
<stop offset="0.046394" stop-color="#0E0A16"/>
<stop offset="0.2923" stop-color="#583E85"/>
<stop offset="0.4621" stop-color="#875FCB"/>
<stop offset="0.5408" stop-color="#996CE6"/>
<stop offset="0.6245" stop-color="#7351AD"/>
<stop offset="0.723" stop-color="#4A3470"/>
<stop offset="0.8134" stop-color="#2A1E40"/>
<stop offset="0.8926" stop-color="#130E1D"/>
<stop offset="0.9575" stop-color="#050408"/>
<stop offset="1"/>
</linearGradient>
<linearGradient id="paint15_linear_2853_2805" x1="27.0923" y1="28.2987" x2="27.0923" y2="-6.65247" gradientUnits="userSpaceOnUse">
<stop/>
<stop offset="0.046394" stop-color="#0E0A16"/>
<stop offset="0.2923" stop-color="#583E85"/>
<stop offset="0.4621" stop-color="#875FCB"/>
<stop offset="0.5408" stop-color="#996CE6"/>
<stop offset="0.6245" stop-color="#7351AD"/>
<stop offset="0.723" stop-color="#4A3470"/>
<stop offset="0.8134" stop-color="#2A1E40"/>
<stop offset="0.8926" stop-color="#130E1D"/>
<stop offset="0.9575" stop-color="#050408"/>
<stop offset="1"/>
</linearGradient>
<linearGradient id="paint16_linear_2853_2805" x1="27.0923" y1="28.2988" x2="27.0923" y2="-6.65241" gradientUnits="userSpaceOnUse">
<stop/>
<stop offset="0.046394" stop-color="#0E0A16"/>
<stop offset="0.2923" stop-color="#583E85"/>
<stop offset="0.4621" stop-color="#875FCB"/>
<stop offset="0.5408" stop-color="#996CE6"/>
<stop offset="0.6245" stop-color="#7351AD"/>
<stop offset="0.723" stop-color="#4A3470"/>
<stop offset="0.8134" stop-color="#2A1E40"/>
<stop offset="0.8926" stop-color="#130E1D"/>
<stop offset="0.9575" stop-color="#050408"/>
<stop offset="1"/>
</linearGradient>
<linearGradient id="paint17_linear_2853_2805" x1="27.0923" y1="28.2987" x2="27.0923" y2="-6.65235" gradientUnits="userSpaceOnUse">
<stop/>
<stop offset="0.046394" stop-color="#0E0A16"/>
<stop offset="0.2923" stop-color="#583E85"/>
<stop offset="0.4621" stop-color="#875FCB"/>
<stop offset="0.5408" stop-color="#996CE6"/>
<stop offset="0.6245" stop-color="#7351AD"/>
<stop offset="0.723" stop-color="#4A3470"/>
<stop offset="0.8134" stop-color="#2A1E40"/>
<stop offset="0.8926" stop-color="#130E1D"/>
<stop offset="0.9575" stop-color="#050408"/>
<stop offset="1"/>
</linearGradient>
<linearGradient id="paint18_linear_2853_2805" x1="24.6868" y1="25.6919" x2="24.6868" y2="-3.48928" gradientUnits="userSpaceOnUse">
<stop offset="0.2923" stop-color="#583E85"/>
<stop offset="0.4621" stop-color="#875FCB"/>
<stop offset="0.5408" stop-color="#996CE6"/>
<stop offset="0.6245" stop-color="#7351AD"/>
<stop offset="0.723" stop-color="#4A3470"/>
</linearGradient>
<clipPath id="clip0_2853_2805">
<rect width="30" height="30" fill="white"/>
</clipPath>
</defs>
</svg>
