<svg width="27" height="16" viewBox="0 0 27 16"
    xmlns="http://www.w3.org/2000/svg">
    <path d="M0.759766 8C0.759766 8.68217 1.31791 9.24031 2.00008 9.24031H22.1783L17.5272 13.8915C17.031 14.3876 17.031 15.1938 17.5272 15.6279C18.0233 16.124 18.8295 16.124 19.2636 15.6279L26.0233 8.86822C26.1473 8.74419 26.2093 8.62016 26.2713 8.43411C26.3954 8.12403 26.3954 7.81395 26.2713 7.50388C26.2093 7.37985 26.1473 7.1938 26.0233 7.06977L19.3256 0.372093C18.8295 -0.124031 18.0233 -0.124031 17.5892 0.372093C17.0931 0.868217 17.0931 1.67442 17.5892 2.10853L22.2403 6.75969H2.00008C1.31791 6.75969 0.759766 7.31783 0.759766 8Z" />
</svg>
