<svg width="18" height="18" viewBox="0 0 18 18"
    xmlns="http://www.w3.org/2000/svg">
    <path fill-rule="evenodd" clip-rule="evenodd" d="M13.7547 0H13.8H17C17.5522 0 18 0.44772 18 1C18 1.55228 17.5522 2 17 2H13.8C11.5433 2 9.9109 2.00078 8.62704 2.10568C7.35488 2.20962 6.51324 2.41078 5.82206 2.76296C4.50494 3.43406 3.43406 4.50494 2.76296 5.82206C2.41078 6.51324 2.20962 7.35488 2.10568 8.62704C2.00078 9.9109 2 11.5433 2 13.8V17C2 17.5522 1.55228 18 1 18C0.44772 18 0 17.5522 0 17V13.8V13.7547C0 11.5528 -5.21541e-08 9.83896 0.11232 8.46418C0.22636 7.06832 0.46116 5.9342 0.98094 4.91408C1.8438 3.22062 3.22062 1.8438 4.91408 0.98094C5.9342 0.46116 7.06832 0.22636 8.46418 0.11232C9.83896 -5.21541e-08 11.5528 0 13.7547 0Z" />
</svg>
