<svg width="24" height="24" viewBox="0 0 24 24"
    xmlns="http://www.w3.org/2000/svg">
    <path d="M0.375 22.725C0.375 22.95 0.45 23.175 0.675 23.4C0.825 23.55 1.05 23.7 1.35 23.7C1.35 23.7 7.5 22.2 7.65 22.05L23.4 6.225C23.775 5.85 23.775 5.325 23.4 4.95L19.125 0.675003C18.75 0.300003 18.225 0.300003 17.85 0.675003L14.925 3.675L2.025 16.425C1.875 16.575 0.375 22.725 0.375 22.725ZM18.45 2.55L21.45 5.55L19.8 7.2L16.8 4.2L18.45 2.55ZM3.6 17.475L15.525 5.55L18.525 8.55L6.6 20.4L2.175 21.825L3.6 17.475Z" />
</svg>
