<svg width="24" height="24" viewBox="0 0 24 24"
    xmlns="http://www.w3.org/2000/svg">
    <path d="M12.48 2.99966L7.73004 7.74966L3.00004 12.5897C2.62754 12.9644 2.41846 13.4713 2.41846 13.9997C2.41846 14.528 2.62754 15.0349 3.00004 15.4097L7.30004 19.7097C7.4863 19.8944 7.7377 19.9986 8.00004 19.9997H20V17.9997H13L20.22 10.7797C20.406 10.5939 20.5535 10.3733 20.6542 10.1305C20.7548 9.88774 20.8066 9.62749 20.8066 9.36466C20.8066 9.10183 20.7548 8.84157 20.6542 8.59878C20.5535 8.35598 20.406 8.13541 20.22 7.94966L15.31 2.99966C15.1243 2.81371 14.9037 2.66619 14.6609 2.56554C14.4181 2.46489 14.1579 2.41309 13.895 2.41309C13.6322 2.41309 13.372 2.46489 13.1292 2.56554C12.8864 2.66619 12.6658 2.81371 12.48 2.99966ZM8.41004 17.9997L4.41004 13.9997L9.16004 9.15966L9.90004 8.40966L14.85 13.3597L10.29 17.9197L10.22 17.9997H8.41004Z" />
</svg>
