<svg width="24" height="24" viewBox="0 0 24 24" xmlns="http://www.w3.org/2000/svg">
<path d="M21.1624 5.87858L17.8388 2.55503C17.7298 2.44596 17.5837 2.38189 17.4296 2.37552C17.2755 2.36916 17.1247 2.42098 17.007 2.52068L7.73413 10.3771L13.3405 15.9834L21.1968 6.71051C21.2965 6.59284 21.3483 6.44196 21.342 6.28785C21.3356 6.13373 21.2715 5.98764 21.1624 5.87858Z"/>
<path d="M6.80402 11.1874L5.44458 12.5469L11.1708 18.2731L12.5303 16.9137L6.80402 11.1874Z"/>
<path d="M4.43213 17.0505L6.66756 19.286C7.53584 18.77 8.57303 18.5557 9.62827 18.4708L5.24734 14.0898C5.16242 15.1451 4.94812 16.1823 4.43213 17.0505Z"/>
<path d="M2.74745 18.92C2.70227 18.9652 2.67226 19.0233 2.66157 19.0863C2.65088 19.1493 2.66003 19.214 2.68777 19.2716L3.73659 21.4507C3.75794 21.495 3.78961 21.5336 3.82893 21.5632C3.86826 21.5928 3.9141 21.6125 3.96262 21.6208C4.01114 21.629 4.06094 21.6255 4.10783 21.6106C4.15473 21.5956 4.19736 21.5697 4.23216 21.5349L5.70456 20.0625L3.65477 18.0127L2.74745 18.92Z" />
</svg>
