<svg width="24" height="24" viewBox="0 0 24 24"
    xmlns="http://www.w3.org/2000/svg">
    <path d="M23.5785 15.7351L15.099 11.0244C14.9257 10.9261 14.7097 10.9494 14.5597 11.0806C14.4097 11.2119 14.358 11.4226 14.433 11.6101L18.2017 21.0324C18.2722 21.2109 18.441 21.3279 18.633 21.3279H18.6375C18.825 21.3279 18.9982 21.2154 19.0687 21.0421L20.4097 17.9154L23.5365 16.5744C23.7007 16.5039 23.8132 16.3449 23.8222 16.1664C23.8267 15.9931 23.733 15.8199 23.5785 15.7351Z" />
    <path d="M2.15645 2.31055H0.768945C0.384945 2.31055 0.0751953 2.6203 0.0751953 3.0043C0.0751953 3.3883 0.389445 3.70255 0.773445 3.70255H2.16095C2.54495 3.70255 2.8547 3.39355 2.8547 3.0088C2.8547 2.62405 2.54495 2.31055 2.15645 2.31055Z" />
    <path d="M1.47159 6.97969V5.59219C1.47159 5.20744 1.16184 4.89844 0.77784 4.89844C0.39384 4.89844 0.0795898 5.20744 0.0795898 5.59219V6.98419C0.0795898 7.36819 0.38859 7.67794 0.77334 7.67794C1.15809 7.67794 1.47159 7.36369 1.47159 6.97969Z" />
    <path d="M1.47159 11.3156V9.92813C1.47159 9.54413 1.16184 9.23438 0.77784 9.23438C0.39384 9.23438 0.0795898 9.54338 0.0795898 9.92813V11.3156C0.0795898 11.6996 0.38859 12.0094 0.77334 12.0094C1.15809 12.0094 1.47159 11.7004 1.47159 11.3156Z" />
    <path d="M1.47159 15.6516V14.2641C1.47159 13.8801 1.16184 13.5703 0.77784 13.5703C0.39384 13.5703 0.0795898 13.8801 0.0795898 14.2641V15.6561C0.0795898 16.0401 0.38859 16.3498 0.77334 16.3498C1.15809 16.3498 1.47159 16.0356 1.47159 15.6516Z" />
    <path d="M19.6591 6.97969V5.59219C19.6591 5.20744 19.3493 4.89844 18.9653 4.89844C18.5813 4.89844 18.2671 5.20744 18.2671 5.59219V6.98419C18.2671 7.36819 18.5768 7.67794 18.9608 7.67794C19.3403 7.67794 19.6591 7.36369 19.6591 6.97969Z" />
    <path d="M19.6591 11.3156V9.92813C19.6591 9.54413 19.3493 9.23438 18.9653 9.23438C18.5813 9.23438 18.2671 9.54338 18.2671 9.92813V11.3156C18.2671 11.6996 18.5768 12.0094 18.9608 12.0094C19.3403 12.0139 19.6591 11.7004 19.6591 11.3156Z" />
    <path d="M19.6591 15.6516V14.2641C19.6591 13.8801 19.3493 13.5703 18.9653 13.5703C18.5813 13.5703 18.2671 13.8801 18.2671 14.2641V15.6561C18.2671 16.0401 18.5768 16.3498 18.9608 16.3498C19.3403 16.3498 19.6591 16.0356 19.6591 15.6516Z" />
    <path d="M6.36592 2.31055H4.97842C4.59367 2.31055 4.28467 2.6203 4.28467 3.0043C4.28467 3.3883 4.59367 3.70255 4.97842 3.70255H6.36592C6.74992 3.70255 7.05967 3.39355 7.05967 3.0088C7.05967 2.62405 6.75067 2.31055 6.36592 2.31055Z" />
    <path d="M10.5607 2.31055H9.17324C8.78924 2.31055 8.47949 2.6203 8.47949 3.0043C8.47949 3.3883 8.78849 3.70255 9.17324 3.70255H10.5607C10.9447 3.70255 11.2545 3.39355 11.2545 3.0088C11.2545 2.62405 10.9455 2.31055 10.5607 2.31055Z" />
    <path d="M14.7563 2.31055H13.3688C12.9848 2.31055 12.675 2.6203 12.675 3.0043C12.675 3.3883 12.9848 3.70255 13.3688 3.70255H14.7563C15.1403 3.70255 15.45 3.39355 15.45 3.0088C15.45 2.62405 15.1403 2.31055 14.7563 2.31055Z" />
    <path d="M18.9519 2.31055H17.5644C17.1804 2.31055 16.8706 2.6203 16.8706 3.0043C16.8706 3.3883 17.1804 3.70255 17.5644 3.70255H18.9519C19.3359 3.70255 19.6456 3.39355 19.6456 3.0088C19.6456 2.62405 19.3359 2.31055 18.9519 2.31055Z" />
    <path d="M2.17061 17.3574H0.783105C0.399105 17.3574 0.0893555 17.6672 0.0893555 18.0512C0.0893555 18.4352 0.398355 18.7494 0.783105 18.7494H2.17061C2.55536 18.7494 2.86436 18.4397 2.86436 18.0557C2.86436 17.6717 2.55461 17.3574 2.17061 17.3574Z" />
    <path d="M6.36592 17.3574H4.97842C4.59367 17.3574 4.28467 17.6672 4.28467 18.0512C4.28467 18.4352 4.59367 18.7494 4.97842 18.7494H6.36592C6.74992 18.7494 7.05967 18.4397 7.05967 18.0557C7.05967 17.6717 6.75067 17.3574 6.36592 17.3574Z" />
    <path d="M10.5607 17.3574H9.17324C8.78924 17.3574 8.47949 17.6672 8.47949 18.0512C8.47949 18.4352 8.78849 18.7494 9.17324 18.7494H10.5607C10.9447 18.7494 11.2545 18.4397 11.2545 18.0557C11.2545 17.6717 10.9455 17.3574 10.5607 17.3574Z" />
    <path d="M14.7563 17.3574H13.3688C12.9848 17.3574 12.675 17.6672 12.675 18.0512C12.675 18.4352 12.9848 18.7494 13.3688 18.7494H14.7563C15.1403 18.7494 15.45 18.4397 15.45 18.0557C15.45 17.6717 15.1403 17.3574 14.7563 17.3574Z" />
    <path d="M4.01712 6.29512H4.00287L3.12612 6.71212L2.94312 5.90587L4.16186 5.33887H5.05287V9.94237H4.01712V6.29512Z" />
    <path d="M7.63574 9.94179V9.29004L8.23124 8.75079C9.23924 7.85079 9.72674 7.33554 9.74099 6.79629C9.74099 6.42129 9.51599 6.12129 8.98199 6.12129C8.58374 6.12129 8.23649 6.31779 7.99724 6.50529L7.69274 5.73204C8.03999 5.46954 8.57849 5.25879 9.20174 5.25879C10.242 5.25879 10.8187 5.86854 10.8187 6.70254C10.8187 7.47579 10.2607 8.09004 9.59549 8.68554L9.16874 9.04179V9.05604H10.9035V9.94179H7.63649H7.63574Z" />
    <path d="M12.8208 8.88692C13.0128 8.98517 13.4538 9.16817 13.8896 9.16817C14.4476 9.16817 14.7333 8.90117 14.7333 8.55392C14.7333 8.09942 14.2788 7.89317 13.8048 7.89317H13.3646V7.12442H13.7816C14.1423 7.11542 14.6021 6.98342 14.6021 6.59492C14.6021 6.31817 14.3771 6.11192 13.9226 6.11192C13.5476 6.11192 13.1493 6.27617 12.9566 6.38867L12.7361 5.61092C13.0128 5.43317 13.5656 5.26367 14.1611 5.26367C15.1458 5.26367 15.6896 5.77967 15.6896 6.41192C15.6896 6.89942 15.4128 7.28342 14.8458 7.48067V7.49492C15.3993 7.59317 15.8441 8.01092 15.8441 8.61542C15.8441 9.43142 15.1271 10.0262 13.9601 10.0262C13.3646 10.0262 12.8636 9.87167 12.5913 9.69767L12.8208 8.88692Z" />
</svg>
