<svg width="16" height="9" viewBox="0 0 16 9" xmlns="http://www.w3.org/2000/svg">
<path d="M12.6876 0H10.6667C10.6667 0 11.7501 0.737299 11.9834 2.08178H12.6667H12.6876C13.4209 2.08178 14.0001 2.68463 14.0001 3.44796V4.83581C14.0001 5.59913 13.4209 6.24535 12.6876 6.24535H8.02091C7.28758 6.24535 6.66675 5.59913 6.66675 4.83581V3.46964H4.66675V4.83581C4.66675 5.33457 4.77091 5.81165 4.95425 6.24535C5.47925 7.4684 6.65841 8.32714 8.02091 8.32714H12.6876C14.5292 8.32714 16.0001 6.75279 16.0001 4.83581V3.44796C16.0001 1.53098 14.5292 0 12.6876 0Z" />
<path d="M11.0667 2.08178C10.5625 0.854399 9.39583 0 8.02083 0H3.35417C1.5125 0 0 1.53098 0 3.44796V4.83581C0 6.75279 1.5125 8.32714 3.35417 8.32714H5.33333C5.33333 8.32714 4.25833 7.58984 3.99583 6.24535H3.35417C2.62083 6.24535 2 5.59913 2 4.83581V3.44796C2 2.68463 2.62083 2.08178 3.35417 2.08178H8H8.02083C8.75417 2.08178 9.33333 2.68463 9.33333 3.44796V4.83581C9.33333 4.84449 9.33333 4.84882 9.33333 4.8575H11.3333C11.3333 4.84882 11.3333 4.84449 11.3333 4.83581V3.44796C11.3333 2.96221 11.2375 2.49814 11.0667 2.08178Z" />
</svg>
