<svg width="24" height="24" viewBox="0 0 24 24" xmlns="http://www.w3.org/2000/svg">
<g clip-path="url(#clip0_1307_9366)">
<path d="M0.375 22.7248C0.375 22.9498 0.45 23.1748 0.675 23.3998C0.825 23.5498 1.05 23.6998 1.35 23.6998C1.35 23.6998 7.5 22.1998 7.65 22.0498L23.4 6.22481C23.775 5.84981 23.775 5.3248 23.4 4.9498L19.125 0.674805C18.75 0.299805 18.225 0.299805 17.85 0.674805L14.925 3.6748L2.025 16.4248C1.875 16.5748 0.375 22.7248 0.375 22.7248ZM18.45 2.5498L21.45 5.54981L19.8 7.19981L16.8 4.1998L18.45 2.5498ZM3.6 17.4748L15.525 5.54981L18.525 8.54981L6.6 20.3998L2.175 21.8248L3.6 17.4748Z" />
</g>
<defs>
<clipPath id="clip0_1307_9366">
<rect width="24" height="24" />
</clipPath>
</defs>
</svg>
