<svg width="24" height="24" viewBox="0 0 24 24"
    xmlns="http://www.w3.org/2000/svg">
    <path d="M16.6346 13.9153L21.4967 8.3492L16.6346 2.81531C16.2507 2.36771 16.283 1.69594 16.7306 1.27983C17.1782 0.89596 17.8499 0.928199 18.266 1.3758L23.7362 7.64593C24.0878 8.06204 24.0878 8.66934 23.7362 9.05321L18.266 15.3233C18.0419 15.579 17.754 15.7072 17.4661 15.7072C17.2104 15.7072 16.954 15.6112 16.762 15.4515C16.2822 15.0354 16.2185 14.3637 16.6338 13.9161L16.6346 13.9153Z" />
    <path d="M7.83711 7.26172H22.904C23.5121 7.26172 23.9919 7.74156 23.9919 8.3496C23.9919 8.95765 23.5121 9.43748 22.904 9.43748H7.83711C4.70241 9.43748 2.14278 11.9964 2.14278 15.1318C2.14278 18.2673 4.70166 20.8261 7.83711 20.8261H12.7315C13.3395 20.8261 13.8193 21.306 13.8193 21.914C13.8193 22.5221 13.3395 23.0019 12.7315 23.0019H7.83711C3.51856 22.9697 0 19.4511 0 15.1326C0 10.814 3.51856 7.26322 7.83711 7.26322V7.26172Z" />
</svg>
