<svg width="18" height="14" viewBox="0 0 18 14" fill="none" xmlns="http://www.w3.org/2000/svg">
<path d="M12.6469 10.261C12.7614 10.3403 12.8758 10.3801 12.9525 10.3801C13.1436 10.3801 13.2964 10.3009 13.4109 10.1419C14.022 9.22753 14.3654 8.1547 14.3654 7.04142C14.3654 5.92815 14.0215 4.85532 13.4109 3.94099C13.2197 3.6628 12.8764 3.62291 12.6469 3.78195C12.3797 3.98088 12.3413 4.33831 12.4941 4.57714C12.9903 5.29254 13.2197 6.12709 13.2197 7.00153C13.2197 7.87597 12.9525 8.71051 12.4941 9.42591C12.3413 9.7041 12.3797 10.0621 12.6469 10.2605V10.261Z" fill="#4D4F60" stroke="#4D4F60" stroke-width="0.2"/>
<path d="M14.7087 12.2093C14.8231 12.2885 14.9376 12.3284 15.0143 12.3284C15.2054 12.3284 15.3582 12.2492 15.4726 12.0901C16.4655 10.6194 17 8.87053 17 7.0424C17 5.21428 16.4655 3.4654 15.4726 1.9947C15.2815 1.71652 14.9381 1.67662 14.7087 1.83566C14.4414 2.03459 14.4031 2.39202 14.5559 2.63085C15.4343 3.90262 15.8921 5.41321 15.8921 7.00305C15.8921 8.5929 15.4338 10.1035 14.5559 11.3753C14.4031 11.6534 14.4797 12.0109 14.7087 12.2093Z" fill="#4D4F60" stroke="#4D4F60" stroke-width="0.2"/>
<path d="M2.7185 3.46428C1.76395 3.46428 1 4.25948 1 5.25306V8.79072C1 9.7843 1.76395 10.5795 2.7185 10.5795H6.19331L9.20975 12.8448L9.24808 12.8847C9.40087 12.964 9.59199 13.0438 9.78259 13.0438C10.0498 13.0438 10.3171 12.9246 10.5465 12.7257C10.776 12.5268 10.8905 12.2092 10.8905 11.9305V2.11273C10.8905 1.47657 10.3943 1 9.82144 1C9.63032 1 9.43973 1.0399 9.28694 1.15904C9.28694 1.15904 9.24861 1.15904 9.24861 1.19894L6.07938 3.46428H2.7185ZM6.53723 4.49776L9.74478 2.19252V11.7715L6.69002 9.46622C6.57555 9.42633 6.46109 9.38698 6.34611 9.38698H2.7185C2.37459 9.38698 2.10734 9.1088 2.10734 8.75082V5.21316C2.10734 4.85519 2.37459 4.57701 2.7185 4.57701H6.23164C6.34611 4.6169 6.46057 4.57701 6.53723 4.49776Z" fill="#4D4F60" stroke="#4D4F60" stroke-width="0.2"/>
</svg>
