<svg width="17" height="16" viewBox="0 0 17 16" fill="none" xmlns="http://www.w3.org/2000/svg">
<g clip-path="url(#clip0_2323_1770)">
<path d="M5.97917 0.00390625L4.98021 1L1.98333 1.00391C1.98333 1.00391 0.984375 1.00391 0.984375 2.00391L0.999984 3H15.9844L15.9688 2.00391C15.9688 1.00391 14.9698 1.00391 14.9698 1.00391L11.9729 1L10.974 0.00390625H5.97917ZM1.99894 4V13C1.99894 16 4.99582 16 4.99582 16H11.9885C14.9854 16 14.9854 13 14.9854 13V4H12.9875V13C12.9875 14 11.9885 14 11.9885 14H4.99582C4.99582 14 3.99686 14 3.99686 13V4H1.99894ZM5.99478 5V12H6.99374V5H5.99478ZM7.9927 5V12H8.99166V5H7.9927ZM9.99062 5V12H10.9896V5H9.99062Z" fill="#4D4F60"/>
</g>
<defs>
<clipPath id="clip0_2323_1770">
<rect width="16" height="16" fill="white" transform="translate(0.5)"/>
</clipPath>
</defs>
</svg>
