<svg width="24" height="24" viewBox="0 0 24 24"
    xmlns="http://www.w3.org/2000/svg">
    <path d="M7.35702 13.9197L2.5264 8.35167L7.35702 2.81592C7.74089 2.36817 7.70865 1.69617 7.26105 1.27992C6.81346 0.89592 6.14168 0.92817 5.72557 1.37592L0.255423 7.64817C-0.0962086 8.06442 -0.0962086 8.67192 0.255423 9.05592L5.72557 15.3282C5.94975 15.5839 6.23765 15.7122 6.52555 15.7122C6.78122 15.7122 7.03763 15.6162 7.22956 15.4564C7.7094 15.0402 7.77313 14.3682 7.35777 13.9204L7.35702 13.9197Z" />
    <path d="M16.1548 7.26367H1.08788C0.479838 7.26367 0 7.74367 0 8.35192C0 8.96017 0.479838 9.44017 1.08788 9.44017H16.1548C19.2895 9.44017 21.8491 11.9999 21.8491 15.1364C21.8491 18.2729 19.2902 20.8327 16.1548 20.8327H11.2604C10.6524 20.8327 10.1726 21.3127 10.1726 21.9209C10.1726 22.5292 10.6524 23.0092 11.2604 23.0092H16.1548C20.4733 22.9769 23.9919 19.4572 23.9919 15.1372C23.9919 10.8172 20.4733 7.26517 16.1548 7.26517V7.26367Z" />
</svg>
