<svg width="24" height="24" viewBox="0 0 24 24"
    xmlns="http://www.w3.org/2000/svg">
    <path d="M5.8801 1.32031C3.7201 1.32031 1.9201 3.12031 1.9201 5.28031V9.72031C2.0401 10.2003 1.6801 10.8003 1.2001 11.0403C0.840098 11.1603 0.600098 11.5203 0.600098 12.0003C0.600098 12.4803 0.840098 12.8403 1.2001 12.9603C1.6801 13.2003 2.0401 13.6803 2.0401 14.2803V18.7203C2.0401 20.8803 3.8401 22.6803 6.0001 22.6803C6.6001 22.6803 7.0801 22.2003 7.0801 21.6003C7.0801 21.0003 6.6001 20.5203 6.0001 20.5203C5.0401 20.5203 4.2001 19.6803 4.2001 18.7203V14.2803C4.2001 13.4403 3.8401 12.6003 3.3601 12.0003C3.8401 11.4003 4.2001 10.5603 4.2001 9.72031V5.16031C4.2001 4.20031 5.0401 3.36031 6.0001 3.36031C6.6001 3.36031 7.0801 2.88031 7.0801 2.28031C7.0801 1.68031 6.4801 1.32031 5.8801 1.32031ZM18.1201 1.32031C20.2801 1.32031 22.0801 3.12031 22.0801 5.28031V9.72031C22.0801 10.3203 22.4401 10.8003 22.9201 11.0403C23.2801 11.1603 23.5201 11.6403 23.5201 12.0003C23.5201 12.4803 23.2801 12.8403 22.9201 12.9603C22.4401 13.2003 22.0801 13.6803 22.0801 14.2803V18.7203C22.0801 20.8803 20.2801 22.6803 18.1201 22.6803C17.5201 22.6803 17.0401 22.2003 17.0401 21.6003C17.0401 21.0003 17.5201 20.5203 18.1201 20.5203C19.0801 20.5203 19.9201 19.6803 19.9201 18.7203V14.2803C19.9201 13.4403 20.2801 12.6003 20.7601 12.0003C20.2801 11.4003 19.9201 10.5603 19.9201 9.72031V5.16031C19.9201 4.20031 19.0801 3.36031 18.1201 3.36031C17.5201 3.36031 17.0401 2.88031 17.0401 2.28031C17.0401 1.68031 17.5201 1.32031 18.1201 1.32031Z" />
    <path d="M17.52 11.8802C17.52 16.2002 15.24 18.8402 11.88 18.8402C8.39998 18.8402 6.47998 15.8402 6.47998 12.1202C6.47998 8.16016 8.63998 5.16016 12.12 5.16016C15.6 5.16016 17.52 8.16016 17.52 11.8802ZM9.23998 12.0002C9.23998 14.6402 10.32 16.4402 12 16.4402C13.8 16.4402 14.76 14.5202 14.76 12.0002C14.76 9.60016 13.8 7.56016 12 7.56016C10.2 7.56016 9.23998 9.48016 9.23998 12.0002Z" />
</svg>
