<svg width="100" height="100" viewBox="0 0 100 100" fill="none" xmlns="http://www.w3.org/2000/svg">
<g clip-path="url(#clip0_2292_2136)">
<circle cx="50" cy="50" r="50" fill="#FFDB59"/>
<path d="M62.2977 61.7256C62.2977 62.4473 62.0681 63.1362 61.6416 63.7923C61.2152 64.4484 60.6575 64.7764 59.9686 64.7764C59.5421 64.7764 58.558 64.514 57.0818 63.9891C56.2617 63.6939 55.5728 63.5626 55.0479 63.5626C53.3749 63.5626 52.0627 64.2187 51.0785 65.4981C50.2256 66.6463 49.7663 68.1225 49.7663 69.8611C49.7663 71.567 50.2256 73.0104 51.1113 74.1914C52.1283 75.5035 53.4405 76.1924 55.0479 76.1924C55.5728 76.1924 56.2289 76.0612 57.049 75.766C57.8691 75.5035 58.722 75.2083 59.6077 74.8803C60.3623 74.8803 60.9855 75.1427 61.5104 75.6676C62.0353 76.1924 62.2977 76.8157 62.2977 77.5702C62.2977 78.9808 61.3136 80.0962 59.3453 80.9491C57.8363 81.5724 56.2945 81.9005 54.687 81.9005C51.4066 81.9005 48.7166 80.7523 46.6499 78.4232C44.5832 76.094 43.5334 73.24 43.5334 69.8939C43.5334 66.6463 44.5832 63.8251 46.6827 61.4303C48.7822 59.0356 51.4394 57.8546 54.687 57.8546C56.4585 57.8546 58.0331 58.1171 59.4109 58.6419C61.3464 59.3308 62.2977 60.3806 62.2977 61.7256Z" fill="url(#paint0_linear_2292_2136)"/>
<path d="M86.2776 62.152V77.5374C86.2776 78.7512 86.1464 79.6041 85.9168 80.129C85.4575 81.1131 84.5718 81.6052 83.2268 81.6052C82.3739 81.6052 81.7178 81.3756 81.2913 80.9491C80.8649 80.5227 80.5368 79.8338 80.3072 78.9152C79.4871 79.8666 78.5685 80.5883 77.5844 81.1131C76.6002 81.6052 75.5177 81.8677 74.3367 81.8677C71.4171 81.8677 68.9896 80.7523 67.0213 78.4888C65.053 76.2252 64.0688 73.3384 64.0688 69.8611C64.0688 66.4494 65.053 63.5954 67.0541 61.2991C69.0552 59.0028 71.4827 57.8546 74.3695 57.8546C75.6161 57.8546 76.7315 58.0842 77.7484 58.5435C78.7653 59.0028 79.6183 59.7245 80.3072 60.7086C80.4056 59.9213 80.7336 59.298 81.2913 58.8388C81.849 58.3467 82.5051 58.1171 83.2596 58.1171C84.5718 58.1171 85.4575 58.5763 85.884 59.4948C86.1464 60.0197 86.2776 60.9055 86.2776 62.152ZM70.2689 69.8611C70.2689 71.567 70.6626 72.9776 71.4499 74.1585C72.3684 75.5035 73.615 76.1924 75.2224 76.1924C76.7643 76.1924 77.9452 75.5363 78.8638 74.1914C79.6839 72.9776 80.0775 71.5342 80.0775 69.8611C80.0775 68.2209 79.6839 66.8103 78.8966 65.6293C77.978 64.2515 76.7643 63.5626 75.2224 63.5626C73.6806 63.5626 72.434 64.2515 71.5155 65.5965C70.6626 66.7775 70.2689 68.2209 70.2689 69.8611Z" fill="url(#paint1_linear_2292_2136)"/>
<path d="M18.6783 50.3868V28.5689H13.9204C12.936 28.5689 12.2141 28.2723 11.7219 27.6791C11.2297 27.0859 11 26.3608 11 25.5369C11 24.7459 11.2625 24.0538 11.7875 23.4605C12.3125 22.8673 13.0016 22.5707 13.9204 22.5707H29.8349C30.7208 22.5707 31.4427 22.8673 31.9677 23.4605C32.4927 24.0538 32.7552 24.7459 32.7552 25.5369C32.7552 26.3937 32.5256 27.0859 32.0334 27.6791C31.5412 28.2723 30.8193 28.5689 29.8349 28.5689H25.1426V50.3868C25.1426 51.4744 24.8472 52.2983 24.2566 52.8916C23.666 53.4848 22.8784 53.7814 21.8612 53.7814C20.9096 53.7814 20.1221 53.4848 19.5315 52.8916C18.9736 52.2654 18.6783 51.4414 18.6783 50.3868Z" fill="#311A8C"/>
<path d="M50.1136 34.2049V49.6619C50.1136 50.8814 49.9823 51.7383 49.7526 52.2656C49.2932 53.2543 48.4073 53.7487 47.0619 53.7487C46.2088 53.7487 45.5525 53.518 45.1259 53.0895C44.6994 52.6611 44.3712 51.969 44.1415 51.0462C43.3212 52.0019 42.4024 52.727 41.418 53.2543C40.4336 53.7487 39.3508 54.0123 38.1695 54.0123C35.2491 54.0123 32.8209 52.8918 30.8521 50.6177C28.8833 48.3436 27.8989 45.4434 27.8989 41.9499C27.8989 38.5223 28.8833 35.655 30.8849 33.348C32.8866 31.041 35.3147 29.8875 38.2023 29.8875C39.4492 29.8875 40.5649 30.1182 41.5821 30.5796C42.5993 31.041 43.4524 31.766 44.1415 32.7548C44.24 31.9638 44.5681 31.3376 45.1259 30.8762C45.6838 30.3818 46.34 30.1511 47.0947 30.1511C48.4073 30.1511 49.2932 30.6125 49.7198 31.5353C49.9823 32.0626 50.1136 32.9525 50.1136 34.2049ZM34.1006 41.9499C34.1006 43.6637 34.4944 45.0809 35.2819 46.2673C36.2007 47.6186 37.4476 48.3107 39.0555 48.3107C40.5977 48.3107 41.779 47.6515 42.6977 46.3003C43.5181 45.0809 43.9118 43.6307 43.9118 41.9499C43.9118 40.302 43.5181 38.8848 42.7306 37.6984C41.8118 36.3142 40.5977 35.6221 39.0555 35.6221C37.5132 35.6221 36.2663 36.3142 35.3476 37.6654C34.4944 38.8519 34.1006 40.302 34.1006 41.9499Z" fill="#311A8C"/>
<path d="M53.2415 50.2879V23.4935C53.2415 22.4389 53.5368 21.6149 54.0946 20.9558C54.6852 20.3296 55.4071 20 56.3587 20C57.2775 20 58.0322 20.3296 58.6228 20.9558C59.2135 21.582 59.476 22.4389 59.476 23.4935V32.0295C61.0838 30.5794 63.0526 29.8543 65.3496 29.8543C68.5325 29.8543 71.0263 31.1396 72.8638 33.7103C74.5373 36.0503 75.3576 38.8846 75.3576 42.1804C75.3576 45.2784 74.4389 47.9809 72.6013 50.3209C70.6325 52.7927 68.1715 54.0121 65.1527 54.0121C63.9714 54.0121 62.8558 53.7814 61.8057 53.2871C60.7557 52.7927 59.9682 52.1006 59.4104 51.1448C59.1807 52.0017 58.8197 52.6609 58.3275 53.0893C57.8353 53.5178 57.1462 53.7485 56.2931 53.7485C55.3743 53.7485 54.6196 53.4189 54.029 52.7927C53.504 52.1665 53.2415 51.3096 53.2415 50.2879ZM59.4432 41.7519C59.4432 43.4987 59.8041 44.9488 60.5588 46.1353C61.4448 47.5525 62.6917 48.2775 64.2667 48.2775C65.809 48.2775 66.9902 47.5854 67.909 46.2342C68.7294 45.0147 69.1231 43.5976 69.1231 41.9167C69.1231 40.2359 68.7294 38.8517 67.9418 37.6652C67.0231 36.281 65.809 35.5889 64.2667 35.5889C62.7245 35.5889 61.5432 36.1821 60.6901 37.4016C59.8697 38.6539 59.4432 40.1041 59.4432 41.7519Z" fill="#311A8C"/>
</g>
<defs>
<linearGradient id="paint0_linear_2292_2136" x1="52.9156" y1="57.8546" x2="52.9156" y2="81.9005" gradientUnits="userSpaceOnUse">
<stop stop-color="#DD3B9C"/>
<stop offset="0.901042" stop-color="#5105CF"/>
</linearGradient>
<linearGradient id="paint1_linear_2292_2136" x1="75.1732" y1="57.8546" x2="75.1732" y2="81.8677" gradientUnits="userSpaceOnUse">
<stop stop-color="#DD3B9C"/>
<stop offset="0.901042" stop-color="#5105CF"/>
</linearGradient>
<clipPath id="clip0_2292_2136">
<rect width="100" height="100" fill="white"/>
</clipPath>
</defs>
</svg>
