<svg width="30" height="28" viewBox="0 0 30 28" fill="none" xmlns="http://www.w3.org/2000/svg">
<path fill-rule="evenodd" clip-rule="evenodd" d="M15.0002 23.7173L9.0661 26.7171C7.81629 27.3489 6.27047 26.8869 5.61341 25.6851C5.35176 25.2065 5.26147 24.6584 5.35652 24.1255L6.48983 17.7718L1.68907 13.272C0.677958 12.3243 0.657269 10.7679 1.64286 9.79562C2.03533 9.40846 2.54958 9.15651 3.10601 9.07876L9.74048 8.15177L12.7075 2.37095C13.3324 1.15341 14.8655 0.653524 16.1316 1.25441C16.6359 1.49369 17.044 1.88612 17.2928 2.37095L20.2598 8.15177L26.8943 9.07876C28.2916 9.274 29.2598 10.5215 29.0568 11.8651C28.9759 12.4002 28.7139 12.8947 28.3112 13.272L23.5105 17.7718L24.6438 24.1255C24.8825 25.4637 23.9478 26.7346 22.5561 26.9641C22.0019 27.0555 21.4319 26.9687 20.9342 26.7171L15.0002 23.7173Z" stroke="black" stroke-width="1.5"/>
</svg>
