<svg width="29" height="27" viewBox="0 0 29 27" fill="none" xmlns="http://www.w3.org/2000/svg">
<path fill-rule="evenodd" clip-rule="evenodd" d="M14.2599 23.6395L8.32587 26.6394C7.07606 27.2712 5.53024 26.8091 4.87317 25.6073C4.61153 25.1288 4.52124 24.5806 4.61629 24.0478L5.74959 17.694L0.948839 13.1943C-0.062276 12.2466 -0.0829652 10.6901 0.902628 9.71786C1.2951 9.33071 1.80935 9.07875 2.36577 9.00101L9.00025 8.07401L11.9673 2.29319C12.5922 1.07565 14.1252 0.575766 15.3914 1.17665C15.8956 1.41593 16.3037 1.80836 16.5526 2.29319L19.5196 8.07401L26.1541 9.00101C27.5514 9.19625 28.5196 10.4437 28.3165 11.7874C28.2357 12.3224 27.9736 12.8169 27.571 13.1943L22.7703 17.694L23.9036 24.0478C24.1423 25.386 23.2076 26.6568 21.8159 26.8864C21.2617 26.9778 20.6917 26.8909 20.194 26.6394L14.2599 23.6395Z" fill="#FF764C"/>
</svg>
