<svg viewBox="0 0 24 17"
    xmlns="http://www.w3.org/2000/svg">
    <path d="M23.0769 5.53857C22.8321 5.53857 22.5973 5.63583 22.4242 5.80894C22.2511 5.98205 22.1538 6.21684 22.1538 6.46165V13.8463C22.1538 14.0911 22.0566 14.3259 21.8835 14.499C21.7104 14.6721 21.4756 14.7693 21.2308 14.7693H2.76923C2.52442 14.7693 2.28963 14.6721 2.11652 14.499C1.94341 14.3259 1.84615 14.0911 1.84615 13.8463V6.46165C1.84615 6.21684 1.7489 5.98205 1.57579 5.80894C1.40268 5.63583 1.16789 5.53857 0.923077 5.53857C0.678262 5.53857 0.443473 5.63583 0.270363 5.80894C0.0972524 5.98205 0 6.21684 0 6.46165V13.8463C0.000646346 14.5805 0.292828 15.2844 0.812308 15.8032C1.33114 16.3227 2.03503 16.6149 2.76923 16.6155H21.2308C21.965 16.6149 22.6689 16.3227 23.1877 15.8032C23.7072 15.2844 23.9994 14.5805 24 13.8463V6.46165C24 6.21684 23.9027 5.98205 23.7296 5.80894C23.5565 5.63583 23.3217 5.53857 23.0769 5.53857Z" />
    <path d="M11.4465 10.8923C11.6062 11.0121 11.8006 11.0769 12.0003 11.0769C12.2 11.0769 12.3944 11.0121 12.5542 10.8923L23.4557 2.71385C23.6258 2.5856 23.7462 2.40249 23.7967 2.19556C23.8472 1.98863 23.8245 1.7706 23.7326 1.57846C23.5951 1.29445 23.4111 1.03548 23.188 0.812308C22.6692 0.292828 21.9653 0.000646346 21.2311 0H2.76954C2.03534 0.000646346 1.33145 0.292828 0.812615 0.812308C0.589558 1.03548 0.405471 1.29445 0.267999 1.57846C0.176076 1.7706 0.153431 1.98863 0.203902 2.19556C0.254374 2.40249 0.374856 2.5856 0.544922 2.71385L11.4465 10.8923ZM2.76954 1.84615H21.2311C21.3167 1.83267 21.4039 1.83267 21.4895 1.84615L12.0003 9L2.51108 1.84615C2.5967 1.83267 2.68391 1.83267 2.76954 1.84615V1.84615Z"/>
</svg>
