<svg viewBox="0 0 19 26"
    xmlns="http://www.w3.org/2000/svg">
    <path d="M9.44692 25.0633L9.52431 25.1579L9.60171 25.0633L10.0569 24.5069C10.0571 24.5067 10.0574 24.5064 10.0576 24.5061C10.2167 24.3205 12.2334 21.9475 14.2125 18.9408C15.2036 17.4352 16.1865 15.7686 16.922 14.1368C17.6567 12.5068 18.1486 10.9026 18.1486 9.52432C18.1486 4.80102 14.2476 0.9 9.52431 0.9C4.8014 0.9 0.9 4.74989 0.9 9.52432C0.9 10.9026 1.39192 12.5036 2.12663 14.1297C2.86216 15.7576 3.84513 17.4194 4.83619 18.9219C6.53419 21.4961 8.26387 23.6135 8.8156 24.2889C8.90748 24.4014 8.96669 24.4739 8.98766 24.5019L8.98758 24.5019L8.99026 24.5052L9.44692 25.0633ZM2.31776 9.47358C2.31776 5.5199 5.5208 2.26703 9.52431 2.26703C13.5278 2.26703 16.7309 5.5199 16.7309 9.47358C16.7309 10.5324 16.3846 11.777 15.8325 13.0864C15.2811 14.3944 14.5276 15.7595 13.7206 17.0571C12.1549 19.5745 10.3921 21.8307 9.52433 22.9122C8.65672 21.8301 6.89384 19.5618 5.3281 17.0382C4.52101 15.7373 3.76751 14.3706 3.21607 13.065C2.66396 11.7578 2.31776 10.5195 2.31776 9.47358Z" stroke-width="0.2"/>
    <path d="M6.17698 9.52422C6.17698 11.3554 7.6932 12.8716 9.52433 12.8716C11.3555 12.8716 12.8717 11.3554 12.8717 9.52422C12.8717 7.6931 11.3555 6.17686 9.52433 6.17686C7.6932 6.17686 6.17698 7.6931 6.17698 9.52422ZM7.59473 9.52422C7.59473 8.46317 8.46328 7.59463 9.52433 7.59463C10.5854 7.59463 11.4539 8.46317 11.4539 9.52422C11.4539 10.5853 10.5854 11.4538 9.52433 11.4538C8.46328 11.4538 7.59473 10.5853 7.59473 9.52422Z" stroke-width="0.2"/>
</svg>
