<svg viewBox="0 0 26 26"
    xmlns="http://www.w3.org/2000/svg">
    <path class="st0" d="M18.6,25c-0.9,0-1.9-0.1-2.8-0.3c-3.1-0.8-6.4-2.7-9.1-5.4s-4.6-5.9-5.4-9.1C0.6,6.9,1.1,4.1,2.9,2.3l0.5-0.5
	c1-1,2.6-1,3.6,0l3,3c1,1,1,2.6,0,3.6l-1.8,1.8c0.8,1.5,2,3,3.4,4.3s2.9,2.5,4.3,3.4l1.8-1.8c1-1,2.6-1,3.6,0c0,0,0,0,0,0l3,3
	c1,1,1,2.6,0,3.6l-0.5,0.5C22.5,24.3,20.7,25,18.6,25z M5.2,2.8C5.1,2.8,4.9,2.9,4.7,3L4.2,3.5C2.8,4.9,2.4,7.1,3.1,9.8
	C3.8,12.6,5.5,15.5,8,18s5.4,4.2,8.2,4.9c2.7,0.6,4.9,0.2,6.2-1.1l0.5-0.5c0.3-0.3,0.3-0.7,0-1l-3-3c-0.3-0.3-0.7-0.3-1,0l-2.2,2.2
	c-0.3,0.3-0.7,0.3-1,0.2c-1.8-0.9-3.7-2.3-5.4-4s-3-3.5-4-5.4c-0.2-0.3-0.1-0.8,0.2-1L8.8,7C9,6.7,9,6.3,8.8,6l-3-3
	C5.6,2.9,5.4,2.8,5.2,2.8z"/>
</svg>
