<svg width="1400" height="324" viewBox="0 0 1400 324" fill="none" xmlns="http://www.w3.org/2000/svg">
<mask id="mask0_2310_7884" style="mask-type:alpha" maskUnits="userSpaceOnUse" x="0" y="0" width="1400" height="324">
<path d="M0 324C0 324 425.505 298.046 698.497 298C972.661 297.954 1400 324 1400 324V0C1400 0 973.091 32.0805 698.497 32C425.073 31.9199 0 0 0 0L0 324Z" fill="#5359E6"/>
</mask>
<g mask="url(#mask0_2310_7884)">
<path d="M0 324C0 324 425.505 298.046 698.497 298C972.661 297.954 1400 324 1400 324V0C1400 0 973.091 32.0805 698.497 32C425.073 31.9199 0 0 0 0L0 324Z" fill="#5359E6"/>
<g opacity="0.2">
<path d="M1354.51 335.737C1342.11 335.737 1330.01 332.437 1320.31 325.537C1311.11 319.337 1303.61 308.737 1299.21 295.937C1295.01 283.837 1293.91 270.437 1296.11 259.137C1297.61 251.037 1304.71 234.437 1314.71 230.837C1315.31 230.637 1316.01 230.937 1316.21 231.537C1316.41 232.137 1316.11 232.837 1315.51 233.037C1307.21 236.037 1300.11 250.537 1298.41 259.537C1296.31 270.437 1297.41 283.437 1301.41 295.137C1305.71 307.437 1312.91 317.537 1321.61 323.537C1333.41 331.937 1349.01 335.037 1365.31 332.437C1381.11 329.937 1395.91 322.037 1406.11 310.937C1406.51 310.437 1407.31 310.437 1407.81 310.837C1408.31 311.237 1408.31 312.037 1407.91 312.537C1394.21 327.737 1373.91 335.737 1354.51 335.737Z" fill="white"/>
<path d="M1312.61 246.537C1312.31 246.537 1312.01 246.437 1311.81 246.237C1310.51 245.137 1309.31 243.937 1308.11 242.737C1305.81 240.437 1303.31 238.137 1300.71 236.537C1300.11 236.237 1299.91 235.437 1300.31 234.837C1300.61 234.237 1301.41 234.037 1302.01 234.437C1304.91 236.137 1307.41 238.637 1309.91 240.937C1311.11 242.037 1312.31 243.237 1313.51 244.337C1314.01 244.737 1314.11 245.537 1313.61 246.037C1313.31 246.437 1312.91 246.537 1312.61 246.537Z" fill="white"/>
<path d="M1401.91 324.737C1401.51 324.737 1401.21 324.537 1400.91 324.237C1399.41 322.337 1397.71 320.437 1396.01 318.637C1395.11 317.637 1394.21 316.637 1393.41 315.737C1393.01 315.237 1393.01 314.437 1393.51 314.037C1394.01 313.637 1394.81 313.637 1395.21 314.137C1396.01 315.037 1396.91 315.937 1397.81 316.937C1399.51 318.737 1401.31 320.637 1402.91 322.637C1403.31 323.137 1403.21 323.937 1402.71 324.337C1402.51 324.637 1402.21 324.737 1401.91 324.737Z" fill="white"/>
<path d="M1360.21 325.537C1352.81 325.537 1345.31 324.037 1338.21 321.137C1321.91 314.337 1310.41 300.637 1306.51 283.537C1302.51 266.037 1307.41 246.637 1319.31 233.137C1330.01 220.837 1344.71 214.837 1360.71 216.137C1360.91 215.937 1361.21 215.837 1361.51 215.737C1377.51 214.237 1401.21 225.537 1410.81 244.937C1417.31 257.937 1418.51 272.537 1414.21 286.037C1410.11 299.037 1401.11 310.237 1389.11 317.537C1380.31 322.737 1370.31 325.537 1360.21 325.537ZM1356.51 218.237C1342.81 218.237 1330.31 223.937 1321.01 234.637C1309.61 247.637 1304.91 266.137 1308.81 282.937C1312.51 299.237 1323.61 312.337 1339.11 318.837C1355.21 325.537 1373.31 324.237 1387.71 315.337C1399.31 308.337 1407.81 297.637 1411.81 285.137C1415.91 272.237 1414.81 258.337 1408.61 245.937C1404.51 237.637 1397.11 230.137 1387.81 224.837C1379.21 219.937 1369.81 217.437 1362.11 218.037C1361.91 218.337 1361.51 218.537 1361.01 218.537C1359.51 218.337 1358.01 218.237 1356.51 218.237Z" fill="white"/>
<path d="M1386.31 341.737C1385.81 341.737 1385.31 341.437 1385.21 340.937C1383.71 336.737 1382.51 333.737 1381.21 330.737C1380.01 327.837 1378.91 325.137 1377.61 321.537C1377.41 320.937 1377.71 320.237 1378.31 320.037C1378.91 319.837 1379.61 320.137 1379.81 320.737C1381.01 324.237 1382.21 326.937 1383.31 329.737C1384.51 332.737 1385.81 335.837 1387.31 340.037C1387.51 340.637 1387.21 341.337 1386.61 341.537C1386.61 341.737 1386.51 341.737 1386.31 341.737Z" fill="white"/>
<path d="M1385.01 342.536C1384.51 342.536 1384.01 342.237 1383.91 341.737C1382.81 338.637 1381.71 335.637 1380.61 332.737C1379.51 329.837 1378.31 326.837 1377.21 323.737C1377.01 323.137 1377.31 322.437 1377.91 322.237C1378.51 322.037 1379.21 322.337 1379.41 322.937C1380.51 326.037 1381.61 329.037 1382.71 331.937C1383.81 334.837 1385.01 337.937 1386.11 340.937C1386.31 341.537 1386.01 342.237 1385.41 342.437C1385.21 342.537 1385.11 342.536 1385.01 342.536Z" fill="white"/>
<path d="M1386.61 342.636C1386.31 342.636 1386.01 342.536 1385.81 342.336C1381.31 338.136 1378.01 330.036 1375.61 323.336C1375.41 322.836 1375.61 322.336 1376.01 321.936C1377.01 321.136 1379.31 320.336 1380.51 320.336C1381.01 320.336 1381.51 320.636 1381.71 321.136C1383.11 325.036 1384.81 328.836 1386.51 332.536C1387.61 334.836 1388.71 337.336 1389.61 339.636C1389.91 340.236 1389.61 340.936 1388.91 341.236C1388.51 341.436 1388.11 341.336 1387.81 341.136C1387.91 341.536 1387.81 341.936 1387.51 342.236C1387.31 342.536 1387.01 342.636 1386.61 342.636ZM1378.31 323.436C1380.41 329.136 1383.41 336.636 1387.31 340.336C1386.41 338.036 1385.41 335.836 1384.31 333.436C1382.81 330.036 1381.21 326.436 1379.81 322.836C1379.31 323.036 1378.71 323.236 1378.31 323.436Z" fill="white"/>
<path d="M1353.61 313.737C1346.71 313.737 1343.01 304.537 1341.81 301.437C1339.21 295.237 1338.01 294.037 1332.11 295.737C1327.31 296.937 1322.81 294.437 1321.11 289.637C1320.01 286.437 1321.01 284.537 1321.91 282.737C1322.31 281.937 1322.81 281.137 1323.11 280.137C1323.31 279.637 1323.31 279.237 1323.41 278.737C1323.61 277.237 1323.91 276.037 1326.71 275.237C1327.31 275.037 1328.01 275.437 1328.21 276.037C1328.41 276.637 1328.01 277.337 1327.41 277.537C1326.01 277.937 1326.01 278.037 1325.91 279.037C1325.81 279.537 1325.81 280.137 1325.51 280.837C1325.11 282.037 1324.61 283.037 1324.11 283.937C1323.21 285.637 1322.61 286.637 1323.41 288.937C1324.71 292.537 1328.01 294.437 1331.51 293.537C1339.21 291.237 1341.41 294.137 1344.11 300.637C1347.11 307.937 1350.21 311.537 1353.91 311.437C1355.11 311.437 1355.91 311.137 1356.31 310.737C1356.91 310.137 1356.81 308.837 1356.71 307.537C1356.61 306.437 1356.61 305.137 1356.81 303.937C1356.81 303.837 1356.81 303.837 1356.81 303.737C1357.11 302.937 1357.61 302.237 1358.01 301.737C1358.41 301.237 1358.81 300.737 1358.91 300.137C1359.11 299.037 1358.81 297.837 1358.51 296.637C1358.31 295.737 1358.01 294.837 1358.01 293.937C1358.01 293.937 1358.01 293.937 1358.01 293.837C1358.01 292.337 1359.01 290.637 1360.11 288.737C1361.31 286.737 1362.71 284.237 1361.91 283.237C1361.51 282.737 1361.31 282.737 1360.21 283.037C1359.51 283.237 1358.51 283.537 1357.51 283.337C1355.31 282.837 1354.01 280.937 1353.01 279.337C1352.71 278.937 1352.51 278.537 1352.31 278.237C1352.31 278.237 1352.31 278.137 1352.21 278.137C1352.01 277.837 1351.81 277.537 1351.61 277.237C1349.51 273.837 1348.61 272.337 1345.11 273.737C1341.61 275.237 1340.41 275.637 1336.61 274.937C1334.11 274.437 1332.71 274.837 1329.61 276.137C1329.01 276.437 1328.31 276.137 1328.01 275.537C1327.71 274.937 1328.01 274.237 1328.61 273.937C1331.71 272.637 1333.71 271.937 1337.01 272.637C1340.21 273.237 1340.91 272.937 1344.21 271.537C1349.71 269.337 1351.61 272.537 1353.71 275.937C1353.91 276.237 1354.01 276.537 1354.21 276.837C1354.51 277.237 1354.71 277.637 1355.01 278.037C1355.91 279.337 1356.71 280.737 1358.01 280.937C1358.41 281.037 1358.91 280.837 1359.51 280.737C1360.61 280.437 1362.41 279.837 1363.81 281.737C1365.61 284.037 1363.81 287.137 1362.21 289.937C1361.41 291.337 1360.51 292.937 1360.41 293.737C1360.41 294.437 1360.61 295.137 1360.81 295.937C1361.21 297.337 1361.51 298.937 1361.21 300.537V300.637C1360.91 301.737 1360.31 302.437 1359.81 303.137C1359.51 303.537 1359.21 303.937 1359.01 304.337C1358.81 305.237 1358.91 306.237 1358.91 307.237C1359.01 309.037 1359.11 310.837 1357.91 312.237C1357.01 313.137 1355.71 313.637 1353.81 313.737C1353.71 313.737 1353.71 313.737 1353.61 313.737Z" fill="white"/>
<path d="M1386.81 280.537C1385.51 280.537 1384.11 279.437 1382.11 277.737C1379.21 275.337 1375.21 272.137 1371.11 272.737C1366.41 273.437 1363.01 273.537 1360.51 273.237C1356.31 272.737 1354.61 271.137 1352.81 269.537C1351.81 268.637 1350.71 267.637 1349.01 266.737C1344.01 264.037 1338.81 265.737 1333.41 267.437C1332.21 267.837 1331.01 268.237 1329.81 268.537H1329.71C1329.11 268.637 1328.31 268.837 1327.61 269.137C1324.91 269.937 1320.71 271.237 1319.21 267.037C1319.21 266.937 1319.21 266.937 1319.11 266.837C1318.61 264.337 1319.51 262.337 1321.61 261.037C1321.71 260.637 1322.01 260.237 1322.41 260.137C1324.11 259.537 1325.61 258.637 1326.51 257.737C1327.61 256.637 1327.91 255.537 1327.41 254.237C1327.21 253.637 1327.01 253.437 1327.01 253.437C1326.61 253.537 1325.51 254.437 1324.91 255.037C1323.51 256.337 1321.91 257.737 1320.01 258.137C1319.81 258.137 1319.61 258.137 1319.41 258.037C1318.21 257.637 1317.51 256.637 1317.31 255.337C1316.91 252.137 1320.01 247.437 1323.21 245.137C1326.51 242.637 1329.01 243.037 1331.21 243.337C1332.41 243.537 1333.61 243.737 1334.91 243.437C1337.51 242.937 1339.61 240.137 1341.81 237.137C1344.51 233.537 1347.21 229.737 1351.41 229.737C1352.51 229.637 1353.11 229.937 1353.41 230.337C1354.21 231.237 1353.81 232.637 1353.41 233.937C1353.31 234.337 1353.01 235.137 1353.01 235.537C1353.01 235.537 1353.01 235.537 1353.11 235.537C1354.71 234.837 1356.41 234.137 1358.11 233.337C1364.11 230.637 1370.21 227.837 1376.71 226.737C1376.81 226.737 1376.81 226.737 1376.91 226.737C1377.11 226.737 1377.71 226.637 1378.21 226.537C1380.41 226.137 1384.11 225.437 1386.01 227.837C1386.01 227.837 1386.01 227.837 1386.11 227.937C1386.81 228.937 1387.01 229.837 1386.81 230.737C1386.51 231.837 1385.61 232.437 1384.81 232.837C1384.11 233.237 1383.71 233.537 1383.51 233.837C1383.21 234.837 1382.71 235.637 1382.21 236.337C1381.51 237.537 1380.71 238.537 1380.61 240.437C1380.61 240.537 1380.61 240.537 1380.61 240.637C1380.51 241.037 1380.91 242.037 1381.21 242.637C1381.81 244.037 1382.41 245.537 1381.71 246.837C1380.91 249.137 1378.31 250.337 1376.11 251.437C1374.31 252.337 1372.41 253.137 1372.31 254.237C1372.21 255.537 1372.61 255.837 1375.11 256.037C1376.71 256.137 1378.41 256.337 1379.51 257.637C1382.31 260.637 1383.31 262.737 1381.71 269.737C1381.41 271.137 1383.01 272.237 1385.31 273.737C1387.31 275.037 1389.41 276.337 1389.31 278.337C1389.31 278.437 1389.31 278.537 1389.31 278.637C1389.01 279.637 1388.51 280.337 1387.81 280.537C1387.31 280.537 1387.01 280.537 1386.81 280.537ZM1372.11 270.237C1376.71 270.237 1380.71 273.437 1383.61 275.837C1384.61 276.637 1386.01 277.737 1386.61 278.037C1386.51 277.337 1384.91 276.337 1383.71 275.637C1381.31 274.137 1378.31 272.237 1379.11 269.037C1380.61 262.637 1379.61 261.437 1377.51 259.137C1377.51 259.137 1377.51 259.137 1377.41 259.037C1377.01 258.537 1375.81 258.437 1374.71 258.337C1372.71 258.137 1369.41 257.837 1369.71 253.937C1369.91 251.437 1372.41 250.237 1374.91 249.137C1376.91 248.237 1378.91 247.237 1379.31 245.937C1379.31 245.837 1379.41 245.637 1379.51 245.537C1379.61 245.237 1379.11 244.137 1378.91 243.537C1378.41 242.337 1377.91 241.237 1378.21 240.137C1378.41 237.637 1379.41 236.137 1380.21 234.937C1380.61 234.237 1381.01 233.637 1381.21 232.937C1381.61 231.637 1382.71 230.937 1383.61 230.537C1383.91 230.337 1384.41 230.137 1384.51 229.937C1384.51 229.937 1384.51 229.737 1384.11 229.137C1383.11 227.937 1380.41 228.537 1378.71 228.837C1378.11 228.937 1377.51 229.037 1377.11 229.037C1370.91 230.137 1364.91 232.837 1359.11 235.437C1357.31 236.237 1355.61 237.037 1353.81 237.737C1353.71 237.737 1353.61 237.837 1353.51 237.837C1352.41 237.937 1351.61 237.737 1351.11 237.137C1350.21 236.037 1350.71 234.537 1351.11 233.237C1351.21 232.937 1351.31 232.537 1351.41 232.137C1348.41 232.237 1346.11 235.337 1343.71 238.537C1341.31 241.737 1338.91 245.037 1335.41 245.737C1333.71 246.137 1332.11 245.937 1330.81 245.737C1328.71 245.437 1327.11 245.137 1324.61 247.037C1321.91 249.037 1319.41 253.037 1319.71 255.037C1319.71 255.337 1319.81 255.537 1320.01 255.637C1321.11 255.237 1322.31 254.237 1323.31 253.237C1324.71 251.937 1326.11 250.637 1327.61 251.037C1329.01 251.337 1329.51 252.937 1329.71 253.437C1330.51 255.637 1330.01 257.737 1328.21 259.437C1327.11 260.537 1325.81 261.337 1324.61 261.837C1324.51 262.237 1324.21 262.537 1323.81 262.637C1321.91 263.337 1321.11 264.437 1321.41 266.237C1322.01 267.837 1323.31 267.737 1326.81 266.737C1327.61 266.537 1328.41 266.237 1329.11 266.137C1330.31 265.837 1331.41 265.437 1332.61 265.037C1338.31 263.237 1344.11 261.337 1350.11 264.537C1352.11 265.637 1353.31 266.737 1354.41 267.737C1356.11 269.237 1357.31 270.437 1360.81 270.837C1363.01 271.137 1366.41 270.937 1370.81 270.337C1371.21 270.337 1371.71 270.237 1372.11 270.237Z" fill="white"/>
<path d="M1312.11 267.336C1311.91 267.336 1311.81 267.336 1311.71 267.236C1310.21 266.636 1309.31 265.336 1309.51 263.636C1309.71 261.636 1311.41 259.236 1314.31 258.636C1314.91 258.536 1315.61 258.936 1315.71 259.536C1315.81 259.836 1315.71 260.136 1315.61 260.436C1316.01 260.536 1316.31 260.936 1316.41 261.336C1316.71 262.836 1316.91 264.636 1315.91 265.936C1314.81 267.136 1313.21 267.336 1312.11 267.336ZM1313.91 261.236C1312.71 261.836 1311.91 262.936 1311.81 263.836C1311.81 264.436 1312.01 264.736 1312.31 264.836C1313.11 264.836 1313.61 264.636 1313.81 264.336C1314.01 264.136 1314.21 263.436 1313.81 261.736C1313.81 261.636 1313.81 261.436 1313.91 261.236Z" fill="white"/>
<path d="M1401.81 298.037C1401.41 298.037 1401.11 298.037 1400.71 297.937C1400.01 297.837 1399.61 297.237 1399.61 296.637C1399.61 296.237 1399.81 295.937 1400.11 295.737C1399.51 294.237 1398.41 294.137 1396.11 294.437C1394.61 294.637 1392.91 294.837 1391.81 293.637C1390.91 292.737 1390.61 291.137 1391.01 288.837C1391.11 288.037 1391.91 287.037 1394.31 284.037C1395.11 283.037 1396.21 281.637 1396.41 281.237C1396.41 281.237 1396.41 281.137 1396.51 281.137C1397.01 280.237 1397.01 279.437 1396.91 278.537C1396.81 276.537 1397.01 274.737 1400.51 273.537C1403.71 272.437 1406.71 273.137 1408.91 275.637C1412.41 279.637 1413.11 287.437 1410.41 292.737C1408.61 296.137 1405.61 298.037 1401.81 298.037ZM1397.81 291.937C1399.61 291.937 1401.61 292.437 1402.61 295.237C1402.61 295.337 1402.71 295.537 1402.71 295.637C1405.71 295.337 1407.41 293.337 1408.31 291.637C1410.61 287.237 1410.01 280.537 1407.11 277.237C1405.61 275.537 1403.61 275.037 1401.31 275.837C1399.21 276.537 1399.21 277.037 1399.31 278.437C1399.41 279.437 1399.41 280.837 1398.61 282.337C1398.31 282.937 1397.51 283.937 1396.21 285.537C1395.21 286.737 1393.71 288.737 1393.41 289.237C1393.11 291.337 1393.51 291.837 1393.61 291.937C1393.91 292.237 1395.01 292.137 1395.91 292.037C1396.41 292.037 1397.11 291.937 1397.81 291.937Z" fill="white"/>
<path d="M1395.51 271.537C1394.91 271.537 1394.41 271.437 1393.91 271.337C1392.81 271.037 1391.91 270.337 1391.31 269.337C1390.81 268.337 1391.01 267.237 1391.81 266.337C1393.21 264.737 1396.71 263.537 1399.41 264.537C1401.41 265.237 1402.51 266.837 1402.61 269.037C1402.61 269.737 1402.11 270.237 1401.41 270.337C1401.21 270.337 1401.01 270.337 1400.81 270.237C1399.41 270.737 1397.41 271.537 1395.51 271.537ZM1397.21 266.537C1395.81 266.537 1394.21 267.137 1393.61 267.837C1393.41 268.037 1393.41 268.137 1393.51 268.137C1393.71 268.537 1394.11 268.837 1394.61 268.937C1396.21 269.337 1398.61 268.537 1399.91 267.737C1399.61 267.237 1399.21 266.837 1398.61 266.637C1398.21 266.537 1397.71 266.537 1397.21 266.537Z" fill="white"/>
<path d="M147.633 239.915C141.514 234.249 137.051 227.092 135.417 219.255C133.71 211.992 134.852 203.334 138.529 195.007C141.985 187.117 147.565 180.002 153.813 175.431C158.255 172.119 169.343 167.171 175.923 169.964C176.31 170.139 176.518 170.607 176.343 170.995C176.168 171.382 175.7 171.591 175.312 171.415C169.846 169.103 159.717 173.015 154.766 176.679C148.749 181.099 143.352 188.016 139.98 195.618C136.482 203.652 135.421 211.926 136.972 218.862C138.957 228.399 145.239 237.056 154.471 243.221C163.41 249.206 174.323 252.07 184.428 251.253C184.854 251.189 185.249 251.554 185.313 251.98C185.377 252.406 185.011 252.801 184.585 252.865C170.88 254.106 157.207 248.779 147.633 239.915Z" fill="white"/>
<path d="M167.713 176.752C167.565 176.615 167.462 176.428 167.455 176.238C167.316 175.102 167.272 173.961 167.228 172.821C167.144 170.635 166.962 168.358 166.41 166.38C166.251 165.958 166.517 165.472 166.989 165.358C167.411 165.199 167.897 165.466 168.011 165.938C168.665 168.102 168.756 170.478 168.939 172.755C169.029 173.846 169.073 174.986 169.162 176.077C169.226 176.503 168.91 176.944 168.435 176.962C168.104 177.022 167.861 176.889 167.713 176.752Z" fill="white"/>
<path d="M176.05 256.144C175.853 255.961 175.796 255.725 175.785 255.44C175.913 253.817 175.942 252.103 175.926 250.438C175.938 249.533 175.951 248.628 175.968 247.819C175.999 247.389 176.364 246.994 176.794 247.025C177.223 247.057 177.618 247.422 177.587 247.852C177.571 248.661 177.603 249.517 177.591 250.421C177.607 252.086 177.627 253.846 177.503 255.564C177.472 255.994 177.057 256.343 176.628 256.312C176.392 256.369 176.198 256.281 176.05 256.144Z" fill="white"/>
<path d="M155.106 237.485C151.455 234.104 148.439 229.937 146.26 225.262C141.324 214.459 141.908 202.444 147.797 192.223C153.819 181.76 165.101 174.425 177.141 173.2C188.041 172.02 198.037 175.775 205.339 183.727C205.529 183.72 205.722 183.808 205.916 183.895C214.497 190.466 221.03 206.871 216.903 220.83C214.171 230.216 208.092 237.969 199.802 242.666C191.839 247.208 182.28 248.622 173.023 246.742C166.304 245.287 160.09 242.1 155.106 237.485ZM202.306 182.845C195.546 176.585 186.773 173.686 177.295 174.717C165.729 175.924 154.957 182.906 149.206 192.978C143.584 202.712 143.076 214.249 147.755 224.538C152.639 235.201 162.165 242.829 173.337 245.017C182.26 246.862 191.344 245.466 199.029 241.125C206.946 236.633 212.754 229.271 215.36 220.319C217.129 214.35 216.905 207.267 214.737 200.403C212.732 194.055 209.235 188.527 205.161 185.305C204.926 185.361 204.637 185.277 204.39 185.049C203.741 184.265 203.047 183.53 202.306 182.845Z" fill="white"/>
<path d="M160.584 257.405C160.338 257.177 160.228 256.8 160.407 256.508C161.586 253.75 162.364 251.721 163.094 249.647C163.826 247.667 164.517 245.832 165.521 243.462C165.696 243.074 166.164 242.866 166.551 243.041C166.939 243.217 167.147 243.685 166.972 244.072C165.965 246.348 165.323 248.228 164.587 250.113C163.808 252.141 163.033 254.265 161.854 257.023C161.679 257.411 161.211 257.619 160.824 257.443C160.732 257.542 160.683 257.496 160.584 257.405Z" fill="white"/>
<path d="M141.554 250.142C141.308 249.914 141.247 249.583 141.331 249.294C141.457 248.861 141.925 248.653 142.359 248.779C144.771 249.638 147.089 250.5 149.357 251.317C160.215 255.23 169.576 258.582 180.473 264.73C180.86 264.905 180.977 265.472 180.753 265.814C180.577 266.201 180.01 266.318 179.669 266.093C168.867 259.942 159.555 256.636 148.796 252.814C146.527 251.997 144.259 251.18 141.797 250.276C141.702 250.279 141.604 250.188 141.554 250.142Z" fill="white"/>
<path d="M141.685 257.228C141.487 257.045 141.381 256.764 141.465 256.475C141.951 254.267 142.649 252.622 143.735 251.153C144.006 250.762 144.527 250.694 144.872 251.014C145.263 251.284 145.331 251.805 145.011 252.151C144.013 253.426 143.448 254.828 143 256.797C142.874 257.23 142.505 257.529 142.026 257.453C141.928 257.361 141.783 257.319 141.685 257.228Z" fill="white"/>
<path d="M140.315 255.044C140.069 254.816 139.959 254.439 140.138 254.147C140.314 253.759 140.781 253.551 141.169 253.726C147.46 256.435 153.983 258.992 160.217 261.464C166.5 263.983 172.974 266.494 179.314 269.248C179.702 269.423 179.91 269.891 179.735 270.279C179.559 270.666 179.091 270.875 178.704 270.699C172.413 267.991 165.89 265.434 159.656 262.961C153.372 260.443 146.899 257.932 140.559 255.177C140.463 255.181 140.414 255.135 140.315 255.044Z" fill="white"/>
<path d="M177.911 269.873C177.714 269.69 177.608 269.409 177.692 269.12C177.937 268.063 179.112 265.21 179.329 264.678C179.505 264.291 179.972 264.083 180.36 264.258C180.747 264.434 180.956 264.901 180.78 265.289C180.254 266.451 179.388 268.674 179.227 269.441C179.101 269.875 178.732 270.174 178.253 270.098C178.154 270.006 178.01 269.964 177.911 269.873Z" fill="white"/>
<path d="M145.163 254.857C144.916 254.629 144.768 254.492 144.62 254.355C144.126 253.898 143.781 253.578 143.467 252.829C143.357 252.452 143.483 252.019 143.81 251.864C144.183 251.659 144.567 251.74 144.863 252.014C144.962 252.105 145.011 252.151 145.11 252.242C145.144 251.908 145.373 251.661 145.704 251.601C145.939 251.544 146.129 251.537 146.277 251.674C146.323 251.624 146.418 251.621 146.513 251.617C146.893 251.602 147.284 251.873 147.345 252.204C147.454 252.58 147.61 252.907 147.815 253.28C147.804 252.995 147.983 252.703 148.215 252.551C148.447 252.399 148.781 252.434 149.074 252.613C149.708 253.017 150.205 253.569 150.706 254.216C150.752 254.167 150.794 254.022 150.839 253.973C150.969 253.635 151.296 253.479 151.581 253.468C151.916 253.503 152.208 253.682 152.314 253.964C152.367 254.104 152.568 254.382 152.766 254.565C152.914 254.702 152.967 254.843 153.115 254.98C153.161 254.93 153.161 254.93 153.161 254.93C153.294 254.687 153.522 254.441 153.807 254.43C154.093 254.419 154.431 254.548 154.537 254.83C154.639 255.016 155.03 255.287 155.323 255.466C155.471 255.603 155.664 255.691 155.812 255.828C155.858 255.778 155.953 255.775 155.953 255.775C156.189 255.718 156.474 255.707 156.668 255.795C157.838 256.511 159.011 257.323 160.135 258.088C161.749 259.216 163.363 260.344 165.304 261.316C165.691 261.492 165.854 262.009 165.678 262.396C165.503 262.784 164.986 262.946 164.598 262.771C162.562 261.802 160.85 260.583 159.186 259.41C158.256 258.732 157.329 258.149 156.403 257.566C156.311 257.665 156.216 257.668 156.076 257.721C155.749 257.877 155.315 257.75 155.065 257.427C154.963 257.241 154.572 256.97 154.279 256.791C154.131 256.654 153.937 256.566 153.839 256.475C153.747 256.573 153.61 256.721 153.564 256.771C153.435 257.109 153.062 257.314 152.727 257.279C152.393 257.244 152.097 256.97 152.037 256.639C152.029 256.449 151.828 256.171 151.676 255.939C151.642 256.274 151.413 256.521 151.132 256.627C150.805 256.782 150.417 256.606 150.216 256.329C149.765 255.727 149.363 255.172 148.915 254.665C148.869 254.715 148.869 254.715 148.873 254.81C148.785 255.004 148.697 255.197 148.606 255.296C148.476 255.634 148.149 255.79 147.864 255.8C147.53 255.766 147.237 255.587 147.131 255.305C147.078 255.164 147.025 255.024 146.926 254.932C146.835 255.031 146.649 255.133 146.508 255.186C146.318 255.194 146.128 255.201 145.934 255.113C145.698 255.17 145.409 255.086 145.163 254.857Z" fill="white"/>
<path d="M147.783 256.184C147.536 255.956 147.427 255.579 147.606 255.287C147.781 254.899 148.249 254.691 148.637 254.866C149.168 255.084 150.753 255.451 152.193 255.777C153.633 256.102 155.074 256.427 156.084 256.721C156.996 256.924 157.961 257.268 158.877 257.566C162.229 258.103 165.63 258.686 168.428 260.91C168.577 261.047 168.679 261.234 168.736 261.469C170.187 262.08 171.687 262.736 173.047 263.445C173.096 263.491 173.191 263.487 173.29 263.578C174.875 263.946 176.428 264.743 178.046 265.965C178.387 266.19 178.455 266.711 178.23 267.053C178.006 267.395 177.534 267.508 177.147 267.332C176.854 267.153 176.611 267.02 176.319 266.841C176.375 267.077 176.337 267.316 176.249 267.51C175.979 267.901 175.507 268.014 175.165 267.789C173.654 266.848 172.667 265.934 172.151 264.907C171.958 264.819 171.764 264.732 171.521 264.598C171.289 264.75 170.958 264.81 170.62 264.681C167.368 263.045 163.973 261.367 160.602 260.355C160.314 260.271 160.116 260.088 160.06 259.852C158.661 259.382 157.267 259.008 155.876 258.728C155.397 258.651 154.964 258.525 154.485 258.449C154.196 258.365 153.9 258.09 153.889 257.805C153.266 257.686 152.544 257.476 151.872 257.312C150.143 256.902 148.657 256.626 148.026 256.318C147.931 256.321 147.832 256.23 147.783 256.184Z" fill="white"/>
<path d="M146.124 255.106C145.927 254.923 145.821 254.642 145.859 254.402C145.939 254.018 146.308 253.719 146.689 253.704C146.879 253.697 147.164 253.686 147.59 253.622L147.685 253.618C151.254 253.624 155.714 255.736 159.638 257.536C161.237 258.284 162.737 258.94 163.995 259.463C164.622 259.677 165.298 259.936 166.069 260.192C169.249 261.212 173.155 262.537 175.341 264.927L175.756 264.578C175.939 264.381 176.224 264.37 176.463 264.408C176.703 264.447 176.9 264.629 177.002 264.816C177.002 264.816 177.002 264.816 177.048 264.766C177.425 264.657 177.861 264.878 177.971 265.254C178.445 266.426 178.393 267.57 178.362 267.999C178.324 268.239 178.236 268.433 178.05 268.535C177.863 268.637 177.677 268.74 177.437 268.701C174.374 268.248 171.602 266.689 168.974 265.172C167.078 264.151 165.13 262.988 163.105 262.305C161.805 261.926 160.457 261.502 159.157 261.124C156.558 260.368 153.959 259.611 151.254 258.573C151.205 258.527 151.11 258.531 151.06 258.485C150.673 258.31 150.465 257.842 150.64 257.454C150.816 257.067 151.283 256.859 151.671 257.034C151.671 257.034 151.72 257.08 151.766 257.03C151.861 257.027 152.005 257.069 152.15 257.111C152.389 257.149 152.678 257.233 152.967 257.317C153.111 257.359 153.21 257.451 153.263 257.591C155.432 258.317 157.552 258.997 159.574 259.585C160.345 259.841 161.067 260.051 161.884 260.258C160.965 259.865 159.947 259.381 158.929 258.896C155.149 257.138 150.837 255.162 147.694 255.093C147.606 255.287 147.465 255.34 147.279 255.442C146.903 255.552 146.469 255.426 146.314 255.099C146.272 255.243 146.173 255.152 146.124 255.106ZM173.747 265.56C171.872 263.823 168.688 262.709 165.941 261.815C167.298 262.429 168.562 263.142 169.778 263.809C171.286 264.655 172.793 265.501 174.294 266.157C174.191 265.971 173.945 265.742 173.747 265.56ZM176.16 266.419L175.791 266.718C176.03 266.757 176.273 266.89 176.513 266.929C176.41 266.742 176.308 266.556 176.16 266.419Z" fill="white"/>
<path d="M140.891 253.927C141.14 252.966 141.385 251.91 141.728 250.945C141.725 250.85 141.77 250.8 141.816 250.751L142.037 250.314C142.037 250.314 142.037 250.314 142.083 250.265L142.128 250.215L142.17 250.071C142.529 249.486 142.909 249.471 143.201 249.651C143.251 249.696 143.881 250.005 143.622 250.681L143.625 250.776C143.145 251.889 142.854 252.995 142.571 254.291L140.891 253.927Z" fill="white"/>
<path d="M159.578 257.205C159.331 256.977 159.221 256.601 159.4 256.308C160.274 254.276 161.102 252.293 161.884 250.359C162.666 248.425 163.445 246.397 164.318 244.364C164.494 243.977 164.962 243.768 165.349 243.944C165.737 244.119 165.945 244.587 165.77 244.975C164.896 247.007 164.068 248.99 163.286 250.924C162.504 252.857 161.679 254.935 160.851 256.919C160.676 257.306 160.208 257.514 159.821 257.339C159.676 257.297 159.627 257.251 159.578 257.205Z" fill="white"/>
<path d="M160.321 257.986C160.173 257.849 160.071 257.663 160.064 257.473C159.762 253.344 161.835 247.839 163.711 243.436C163.841 243.098 164.168 242.943 164.549 242.928C165.408 242.99 166.908 243.646 167.5 244.194C167.747 244.423 167.857 244.799 167.727 245.137C166.636 247.702 165.738 250.354 164.887 252.956C164.379 254.594 163.779 256.33 163.173 257.876C163.046 258.309 162.579 258.518 162.096 258.346C161.807 258.262 161.656 258.03 161.599 257.794C161.466 258.037 161.233 258.189 160.948 258.2C160.713 258.257 160.519 258.169 160.321 257.986ZM164.998 244.719C163.43 248.491 161.484 253.563 161.718 257.171C162.325 255.625 162.836 254.082 163.39 252.395C164.203 250.032 165.059 247.524 166.013 245.108C165.674 244.979 165.287 244.803 164.998 244.719Z" fill="white"/>
<path d="M157.241 228.647C153.836 225.494 156.213 219.264 157.038 217.185C158.587 212.938 158.543 211.797 154.855 209.941C151.938 208.34 150.86 205.05 152.214 201.904C153.133 199.823 154.495 199.342 155.762 198.865C156.325 198.653 156.937 198.487 157.542 198.13C157.869 197.975 158.052 197.777 158.329 197.576C159.113 196.928 159.81 196.473 161.557 197.357C161.945 197.533 162.107 198.05 161.932 198.437C161.756 198.825 161.239 198.987 160.852 198.812C159.978 198.37 159.932 198.419 159.426 198.867C159.148 199.068 158.874 199.364 158.406 199.572C157.661 199.982 156.957 200.247 156.299 200.462C155.078 200.89 154.325 201.109 153.669 202.61C152.666 204.98 153.426 207.426 155.564 208.581C160.415 210.964 160.176 213.4 158.538 217.841C156.683 222.815 156.568 226.008 158.44 227.649C159.032 228.197 159.564 228.415 159.944 228.4C160.514 228.378 161.059 227.691 161.603 227.004C162.057 226.415 162.651 225.774 163.298 225.273C163.343 225.223 163.343 225.223 163.389 225.174C163.902 224.916 164.469 224.799 164.895 224.735C165.321 224.671 165.747 224.607 166.07 224.357C166.671 223.906 167.072 223.176 167.472 222.447C167.784 221.912 168.048 221.33 168.459 220.886C168.459 220.886 168.459 220.886 168.504 220.837C169.19 220.097 170.46 219.715 171.871 219.28C173.377 218.841 175.21 218.247 175.272 217.388C175.303 216.958 175.205 216.867 174.525 216.513C174.088 216.291 173.457 215.983 173.055 215.427C172.198 214.175 172.425 212.643 172.662 211.397C172.697 211.062 172.781 210.774 172.819 210.534C172.819 210.534 172.865 210.485 172.816 210.439C172.854 210.2 172.892 209.96 172.931 209.721C173.448 207.084 173.689 205.932 171.322 205.024C168.91 204.165 168.135 203.814 166.58 201.732C165.574 200.343 164.701 199.901 162.577 199.126C162.144 199 161.935 198.532 162.062 198.099C162.188 197.666 162.655 197.458 163.089 197.584C165.212 198.358 166.519 198.927 167.828 200.78C169.133 202.538 169.615 202.71 171.884 203.527C175.603 204.954 175.078 207.402 174.561 210.039C174.523 210.278 174.435 210.472 174.397 210.712C174.362 211.046 174.278 211.335 174.243 211.669C174.093 212.722 173.848 213.778 174.399 214.471C174.55 214.703 174.888 214.833 175.23 215.058C175.91 215.412 177.072 215.939 176.895 217.516C176.733 219.473 174.428 220.181 172.359 220.831C171.325 221.157 170.149 221.535 169.734 221.884C169.415 222.23 169.194 222.666 168.927 223.153C168.484 224.026 167.901 224.953 167.022 225.605L166.977 225.655C166.326 226.06 165.71 226.132 165.144 226.249C164.813 226.309 164.482 226.369 164.2 226.475C163.69 226.828 163.283 227.367 162.826 227.861C162.053 228.795 161.28 229.729 160.048 229.871C159.193 229.904 158.323 229.557 157.339 228.738C157.29 228.692 157.29 228.692 157.241 228.647Z" fill="white"/>
<path d="M188.794 227.432C188.152 226.838 187.964 225.656 187.754 223.903C187.419 221.394 186.907 217.987 184.61 216.41C181.971 214.608 180.247 213.104 179.151 211.813C177.307 209.648 177.199 208.081 177.041 206.469C176.959 205.568 176.873 204.572 176.446 203.351C175.212 199.734 171.869 198.197 168.428 196.569C167.653 196.218 166.878 195.867 166.148 195.467L166.099 195.421C165.757 195.197 165.271 194.93 164.789 194.758C163.091 193.919 160.424 192.642 161.603 189.884C161.649 189.834 161.649 189.834 161.645 189.739C162.54 188.277 163.898 187.701 165.529 188.019C165.761 187.868 166.092 187.807 166.335 187.941C167.448 188.421 168.599 188.663 169.454 188.63C170.5 188.589 171.151 188.184 171.498 187.314C171.673 186.926 171.666 186.736 171.666 186.736C171.423 186.603 170.469 186.544 169.899 186.566C168.614 186.568 167.184 186.528 166.064 185.857C165.965 185.766 165.867 185.674 165.814 185.534C165.404 184.788 165.516 183.975 166.011 183.242C167.276 181.48 170.953 180.577 173.583 180.904C176.354 181.178 177.405 182.518 178.353 183.671C178.854 184.318 179.355 184.965 180.133 185.411C181.645 186.352 183.961 185.93 186.417 185.455C189.394 184.912 192.463 184.27 194.535 186.189C195.124 186.643 195.283 187.065 195.248 187.399C195.232 188.209 194.395 188.717 193.603 189.176C193.371 189.327 192.858 189.585 192.675 189.782C192.675 189.782 192.675 189.782 192.724 189.828C193.834 190.214 194.992 190.645 196.197 191.027C200.391 192.436 204.681 193.842 208.391 196.269C208.441 196.314 208.441 196.314 208.49 196.36C208.589 196.451 208.93 196.676 209.223 196.855C210.491 197.663 212.637 199.008 212.478 201.061C212.478 201.061 212.478 201.061 212.482 201.156C212.37 201.969 212.058 202.505 211.548 202.857C210.897 203.263 210.179 203.148 209.601 202.98C209.073 202.857 208.739 202.823 208.503 202.879C207.898 203.236 207.286 203.402 206.719 203.519C205.825 203.791 204.974 203.919 204.056 204.811C204.01 204.86 204.01 204.86 203.965 204.91C203.733 205.062 203.473 205.738 203.347 206.171C203.003 207.136 202.614 208.15 201.675 208.472C200.229 209.242 198.398 208.646 196.809 208.183C195.51 207.805 194.207 207.332 193.655 207.829C193.012 208.425 193.072 208.755 194.214 209.996C194.958 210.777 195.706 211.652 195.654 212.796C195.665 215.556 195.199 217.049 191.212 219.773C190.424 220.326 190.711 221.6 191.16 223.391C191.553 224.947 191.996 226.548 191.033 227.489C190.987 227.538 190.941 227.588 190.896 227.637C190.291 227.993 189.724 228.11 189.287 227.889C189.04 227.661 188.892 227.524 188.794 227.432ZM186.246 215.633C188.516 217.735 189.028 221.142 189.362 223.651C189.49 224.503 189.678 225.685 189.837 226.107C190.108 225.716 189.775 224.492 189.503 223.598C189.004 221.761 188.391 219.453 190.248 218.239C193.913 215.766 193.968 214.717 193.982 212.623C193.982 212.623 193.982 212.623 193.979 212.528C194.01 212.098 193.463 211.501 192.966 210.949C192.07 209.936 190.579 208.28 192.509 206.493C193.75 205.351 195.532 205.901 197.268 206.5C198.666 206.97 200.11 207.39 200.902 206.931C200.947 206.882 201.088 206.829 201.183 206.825C201.369 206.723 201.625 205.952 201.801 205.564C202.102 204.744 202.358 203.972 203.009 203.567C204.25 202.424 205.429 202.141 206.372 201.914C206.889 201.752 207.36 201.638 207.779 201.384C208.57 200.925 209.433 201.083 210.06 201.296C210.299 201.335 210.637 201.465 210.778 201.412C210.778 201.412 210.87 201.313 210.946 200.834C211.001 199.785 209.395 198.847 208.419 198.219C208.077 197.994 207.735 197.769 207.538 197.586C203.975 195.296 199.781 193.887 195.731 192.52C194.477 192.093 193.273 191.711 192.065 191.234C192.015 191.188 191.92 191.192 191.871 191.146C191.282 190.693 190.979 190.228 191.006 189.704C191.065 188.75 191.997 188.238 192.788 187.779C192.975 187.677 193.207 187.525 193.439 187.374C191.913 186.052 189.361 186.531 186.715 187.014C184.068 187.496 181.376 188.028 179.329 186.774C178.308 186.195 177.609 185.365 177.059 184.673C176.16 183.565 175.508 182.686 173.406 182.481C171.16 182.235 168.098 183.066 167.333 184.19C167.195 184.338 167.153 184.483 167.206 184.623C167.932 184.929 168.981 184.984 169.931 184.947C171.216 184.945 172.501 184.943 173.059 185.826C173.612 186.614 173.128 187.632 172.998 187.97C172.388 189.421 171.182 190.229 169.517 190.245C168.471 190.286 167.464 190.086 166.644 189.785C166.411 189.936 166.126 189.947 165.883 189.814C164.626 189.291 163.728 189.469 163.054 190.494C162.619 191.558 163.306 192.102 165.49 193.208C165.977 193.475 166.508 193.692 166.9 193.963C167.629 194.363 168.354 194.668 169.129 195.019C172.765 196.735 176.495 198.448 177.994 202.768C178.478 204.225 178.568 205.316 178.653 206.312C178.807 207.829 178.851 208.97 180.395 210.766C181.344 211.919 183.113 213.374 185.559 215.088C185.756 215.271 186.048 215.45 186.246 215.633Z" fill="white"/>
<path d="M157.962 186.788C157.863 186.696 157.814 186.651 157.81 186.556C157.344 185.574 157.494 184.521 158.37 183.774C159.382 182.878 161.318 182.471 163.023 183.5C163.365 183.725 163.527 184.242 163.302 184.584C163.215 184.777 163.028 184.88 162.842 184.982C162.994 185.214 162.959 185.549 162.825 185.792C162.288 186.669 161.564 187.649 160.477 187.833C159.386 187.923 158.505 187.29 157.962 186.788ZM161.637 184.6C160.771 184.348 159.874 184.525 159.413 184.924C159.139 185.22 159.101 185.459 159.203 185.645C159.598 186.011 159.936 186.141 160.172 186.084C160.362 186.077 160.78 185.823 161.36 184.801C161.405 184.752 161.497 184.653 161.637 184.6Z" fill="white"/>
<path d="M188.2 242.922C188.003 242.739 187.855 242.602 187.703 242.37C187.403 242.001 187.48 241.522 187.754 241.226C187.937 241.029 188.173 240.972 188.412 241.01C188.801 239.996 188.304 239.444 187.032 238.541C186.201 237.955 185.27 237.277 185.276 236.182C185.243 235.326 185.826 234.4 187.074 233.448C187.489 233.098 188.341 232.97 190.896 232.587C191.748 232.459 192.93 232.27 193.211 232.164C193.211 232.164 193.257 232.115 193.307 232.161C193.964 231.945 194.33 231.55 194.692 231.06C195.556 230.028 196.477 229.231 198.753 230.238C200.835 231.157 201.995 232.873 201.939 235.112C201.838 238.685 198.62 242.854 194.866 244.236C192.424 245.091 190.075 244.658 188.2 242.922ZM189.013 238.084C189.902 238.907 190.66 240.067 189.874 241.906C189.829 241.955 189.787 242.1 189.741 242.149C191.358 243.372 193.111 243.161 194.332 242.734C197.477 241.613 200.243 238.033 200.319 235.079C200.356 233.555 199.597 232.395 198.097 231.738C196.741 231.124 196.512 231.371 195.922 232.108C195.514 232.647 194.875 233.338 193.795 233.712C193.372 233.871 192.521 233.999 191.148 234.195C190.106 234.33 188.452 234.632 188.076 234.741C186.968 235.641 186.937 236.07 186.941 236.165C186.952 236.45 187.54 236.904 188.03 237.265C188.277 237.494 188.668 237.764 189.013 238.084Z" fill="white"/>
<path d="M197.2 226.966C196.903 226.692 196.702 226.414 196.501 226.137C196.096 225.486 195.971 224.729 196.132 223.962C196.342 223.24 196.944 222.788 197.75 222.71C199.172 222.56 201.447 223.567 202.322 225.294C202.99 226.553 202.801 227.845 201.846 228.977C201.526 229.322 201.051 229.34 200.659 229.07C200.561 228.979 200.462 228.887 200.409 228.747C199.49 228.354 198.137 227.835 197.2 226.966ZM200.323 225.276C199.632 224.636 198.568 224.201 197.953 224.272C197.762 224.28 197.717 224.329 197.766 224.375C197.682 224.664 197.742 224.994 197.943 225.272C198.55 226.201 200.1 226.902 201.107 227.102C201.188 226.718 201.173 226.338 200.968 225.965C200.816 225.733 200.57 225.504 200.323 225.276Z" fill="white"/>
<path d="M359.118 337.066C358.618 337.066 358.218 336.765 358.018 336.365C357.718 335.765 358.018 335.066 358.618 334.766C366.218 331.266 375.118 327.965 384.518 324.465C395.718 320.265 407.318 315.865 417.918 310.865C418.518 310.565 419.218 310.865 419.518 311.465C419.818 312.065 419.518 312.766 418.918 313.066C408.218 318.166 396.518 322.466 385.318 326.766C375.918 330.266 367.118 333.566 359.618 337.066C359.418 337.066 359.218 337.066 359.118 337.066Z" fill="white"/>
<path d="M358.518 338.466C358.018 338.466 357.518 338.166 357.418 337.666C350.418 318.166 344.918 304.366 337.918 286.966C335.218 280.266 332.518 273.366 329.318 265.366C329.118 264.766 329.418 264.066 330.018 263.766C330.618 263.566 331.318 263.866 331.618 264.466C334.718 272.466 337.518 279.366 340.218 286.066C347.218 303.466 352.718 317.266 359.718 336.766C359.918 337.366 359.618 338.066 359.018 338.266C358.718 338.466 358.618 338.466 358.518 338.466Z" fill="white"/>
<path d="M329.518 265.066C329.018 265.066 328.618 264.766 328.418 264.266C328.218 263.666 328.518 262.966 329.118 262.666L330.218 262.266C351.018 254.266 369.018 247.366 388.518 240.866C389.118 240.666 389.818 240.966 390.018 241.666C390.218 242.266 389.918 242.966 389.218 243.166C369.818 249.666 351.818 256.566 331.018 264.566L329.918 264.966C329.718 264.966 329.618 265.066 329.518 265.066Z" fill="white"/>
<path d="M417.117 313.565C416.617 313.565 416.217 313.266 416.017 312.766C412.017 302.466 403.417 282.065 396.417 265.665C391.217 253.365 387.117 243.665 386.217 241.165C386.017 240.565 386.317 239.865 386.917 239.665C387.517 239.465 388.217 239.765 388.417 240.365C389.317 242.765 393.617 252.965 398.617 264.665C405.617 281.065 414.217 301.466 418.217 311.766C418.417 312.366 418.117 313.065 417.517 313.365C417.417 313.565 417.317 313.565 417.117 313.565Z" fill="white"/>
<path d="M417.118 310.366C416.718 310.366 416.218 310.166 416.018 309.666C410.618 298.966 404.618 286.966 400.918 274.966C400.718 274.366 401.118 273.666 401.718 273.466C402.318 273.266 403.018 273.666 403.218 274.266C406.818 286.066 412.818 298.066 418.118 308.666C418.418 309.266 418.218 309.966 417.618 310.266C417.518 310.266 417.318 310.366 417.118 310.366Z" fill="white"/>
<path d="M325.218 272.766C325.018 272.766 324.918 272.766 324.718 272.666C324.118 272.366 323.818 271.666 324.118 271.066C325.318 268.166 326.818 264.966 329.118 262.666C329.618 262.166 330.318 262.166 330.818 262.666C331.318 263.166 331.318 263.866 330.818 264.366C328.818 266.366 327.518 269.366 326.318 272.066C326.118 272.466 325.718 272.766 325.218 272.766Z" fill="white"/>
<path d="M357.218 339.065C357.018 339.065 356.818 339.065 356.618 338.965C353.718 338.465 352.118 334.565 351.018 331.665C349.418 327.865 348.018 324.065 346.518 320.365C345.118 316.665 343.618 312.865 342.118 309.065C340.618 305.465 338.918 301.865 337.318 298.365C335.518 294.465 333.618 290.465 331.918 286.365C331.718 285.965 331.518 285.465 331.218 284.965C329.018 280.665 326.418 275.265 325.918 270.265C325.818 269.565 326.318 269.065 327.018 268.965C327.718 268.865 328.218 269.365 328.318 270.065C328.718 274.565 331.218 279.765 333.318 283.865C333.518 284.365 333.818 284.765 334.018 285.265V285.365C335.718 289.465 337.518 293.465 339.418 297.365C341.118 300.865 342.818 304.565 344.318 308.165C345.918 311.965 347.318 315.765 348.818 319.565C350.218 323.265 351.718 327.065 353.218 330.865C354.018 332.765 355.418 336.365 357.018 336.665C357.818 336.865 358.818 335.965 359.518 335.165C359.918 334.665 360.718 334.665 361.218 335.065C361.718 335.465 361.718 336.265 361.318 336.765C359.918 338.265 358.518 339.065 357.218 339.065Z" fill="white"/>
<path d="M348.018 294.365C347.918 294.365 347.918 294.365 347.818 294.365C347.118 294.265 346.718 293.665 346.818 293.065C347.018 291.665 346.218 289.065 345.418 286.565C344.018 282.065 342.618 277.465 344.618 274.865C345.718 273.565 346.918 273.365 347.718 273.365C351.318 273.565 355.118 278.965 358.718 284.465C359.318 285.365 359.718 286.065 360.118 286.565C360.518 287.065 360.418 287.866 359.818 288.266C359.318 288.666 358.518 288.565 358.118 287.965C357.718 287.465 357.218 286.666 356.718 285.766C354.818 282.766 350.318 275.865 347.618 275.765C347.318 275.765 347.018 275.765 346.518 276.365C345.318 277.965 346.618 282.365 347.718 285.965C348.618 288.865 349.418 291.665 349.218 293.465C349.118 293.865 348.618 294.365 348.018 294.365Z" fill="white"/>
<path d="M346.118 286.066C345.818 286.066 345.418 285.966 345.218 285.666C344.818 285.166 344.818 284.366 345.318 283.966C347.818 281.866 350.218 280.666 352.718 279.266C353.718 278.766 354.718 278.266 355.818 277.666C356.418 277.366 357.118 277.566 357.418 278.166C357.718 278.766 357.518 279.466 356.918 279.766C355.818 280.366 354.818 280.966 353.818 281.466C351.418 282.666 349.118 283.866 346.818 285.866C346.618 285.966 346.418 286.066 346.118 286.066Z" fill="white"/>
<path d="M365.918 283.865C365.218 283.865 364.718 283.365 364.718 282.665C364.718 282.565 364.718 282.465 364.718 282.465C364.418 282.265 364.218 282.065 364.118 281.665C364.018 281.365 364.118 281.165 364.218 280.865C363.618 279.565 362.618 278.165 361.518 276.765C359.218 273.665 356.918 270.565 358.718 267.865C359.618 266.565 361.518 265.365 363.218 265.065C364.318 264.865 365.318 265.065 366.118 265.665C367.918 267.065 367.718 268.965 367.018 270.565C369.518 269.765 371.218 270.365 371.918 270.765C373.518 271.665 374.318 273.565 374.018 275.465C373.618 277.765 371.618 280.665 367.018 282.065C367.018 282.265 367.018 282.365 367.018 282.565C367.118 283.365 366.518 283.865 365.918 283.865ZM363.118 274.865C363.218 275.065 363.418 275.265 363.518 275.365C364.618 276.865 365.718 278.365 366.418 279.865C369.918 278.765 371.418 276.765 371.718 275.165C371.918 274.165 371.518 273.265 370.818 272.865C369.718 272.265 367.518 272.365 364.618 274.765C364.118 275.165 363.518 275.165 363.118 274.865ZM364.018 267.465C363.918 267.465 363.718 267.465 363.618 267.465C362.518 267.665 361.218 268.565 360.718 269.265C360.018 270.365 361.118 272.265 362.618 274.165C362.518 273.865 362.518 273.565 362.718 273.265C363.018 272.765 363.318 272.265 363.618 271.765C365.118 269.465 365.618 268.365 364.618 267.565C364.518 267.465 364.318 267.465 364.018 267.465Z" fill="white"/>
<path d="M384.018 274.466C380.518 274.466 376.618 272.466 375.518 268.366C374.618 265.166 375.618 261.566 378.118 259.366C380.218 257.466 382.818 256.866 385.418 257.866C386.018 258.066 386.318 258.766 386.118 259.366C385.918 259.966 385.218 260.266 384.618 260.066C382.318 259.166 380.518 260.366 379.718 261.066C377.918 262.666 377.218 265.366 377.818 267.666C378.818 271.066 382.118 272.266 384.818 271.966C387.118 271.666 389.518 270.266 389.618 267.066C389.618 266.366 390.218 265.866 390.818 265.866C391.518 265.866 392.018 266.466 392.018 267.066C391.918 270.966 389.118 273.766 385.018 274.266C384.818 274.466 384.418 274.466 384.018 274.466Z" fill="white"/>
<path d="M365.818 283.365C365.418 283.365 365.118 283.165 364.818 282.865C364.418 282.365 364.518 281.565 365.018 281.165C365.718 280.665 366.518 280.165 367.318 279.665C370.518 277.665 372.418 276.265 371.618 273.365C371.418 272.765 371.818 272.065 372.518 271.865C373.118 271.665 373.818 272.065 374.018 272.765C375.318 277.665 371.418 280.065 368.618 281.765C367.818 282.265 367.118 282.665 366.518 283.165C366.318 283.265 366.118 283.365 365.818 283.365Z" fill="white"/>
<path d="M359.118 286.465C358.918 286.465 358.618 286.366 358.418 286.266C356.818 285.166 355.618 283.466 354.318 281.666C352.918 279.766 351.518 277.766 349.518 276.566C348.918 276.266 348.718 275.466 349.118 274.966C349.418 274.366 350.218 274.166 350.718 274.566C353.118 275.966 354.818 278.266 356.218 280.266C357.418 281.866 358.418 283.366 359.718 284.266C360.218 284.666 360.418 285.365 360.018 285.965C359.918 286.265 359.518 286.465 359.118 286.465Z" fill="white"/>
<path d="M845.005 288.247L835.548 288.597V288.422L835.201 288.247C835.114 288.247 828.087 285.453 818.891 283.445C807.006 280.912 790.695 279.428 780.285 286.85C769.18 273.752 753.738 268.164 742.633 265.806C732.829 263.71 725.455 263.885 725.368 263.885H725.021V264.06L719.382 261.265C718.254 260.741 717.213 261.003 717.04 261.964L704.026 323.612C703.853 324.486 704.547 325.708 705.675 326.232L753.564 348.673C754.692 349.197 756.514 349.809 757.728 350.071L774.212 353.563C775.426 353.825 777.422 354 778.636 354L831.471 353.127C832.685 353.127 833.813 352.341 833.987 351.468L847 289.819C847 288.946 846.219 288.247 845.005 288.247ZM760.765 344.744C755.646 341.426 739.77 331.559 722.419 325.883L722.158 326.581C738.902 332.082 754.258 341.426 759.724 345.006C759.03 345.181 758.422 345.443 757.989 345.705C752.957 342.823 737.341 334.265 714.524 324.922L714.177 325.621C736.56 334.702 752.002 343.172 757.208 346.141C756.687 346.49 756.514 346.752 756.427 346.752C756.427 346.752 756.34 346.752 756.34 346.84L708.364 323.525L720.684 265.02L724.761 264.409L712.529 322.215L713.049 322.303C713.483 322.39 713.83 322.477 714.177 322.565C746.016 329.376 763.367 342.386 766.317 344.831C764.061 344.395 762.24 344.482 760.765 344.744ZM766.924 344.22C763.281 341.338 745.843 328.59 714.437 321.866C714.177 321.779 714.003 321.779 713.743 321.691L725.802 264.758C727.364 264.758 733.957 264.845 742.372 266.679C753.39 269.037 768.746 274.625 779.591 287.636L766.924 344.22ZM780.632 287.811C790.782 280.389 806.919 281.786 818.718 284.318C826.699 286.064 832.946 288.335 834.507 288.859L822.882 343.696C822.708 343.696 822.535 343.609 822.361 343.609C791.476 336.972 772.39 342.736 767.965 344.307L780.632 287.811ZM829.996 349.634L775.426 350.944C775.426 350.944 775.166 350.507 774.559 349.809C780.892 349.197 798.156 347.888 821.754 348.761L821.667 347.975C797.549 347.102 780.025 348.499 773.952 349.11C773.605 348.673 773.084 348.237 772.564 347.713C779.244 346.665 796.768 344.482 814.12 346.316V345.53C796.248 343.609 778.029 346.054 771.696 347.014C770.655 346.228 769.354 345.617 767.965 345.181C770.915 344.045 790.348 337.234 823.229 344.482L823.749 344.569L835.548 288.771L842.402 291.129L829.996 349.634Z" fill="white"/>
<path d="M1166.73 34.9944L1158.45 38.8716L1158.38 38.7162L1158 38.6917C1157.93 38.7245 1150.62 38.8888 1141.68 40.5702C1130.15 42.7999 1115.08 47.6306 1108.62 58.1605C1093.8 50.6954 1077.95 51.5475 1067.18 53.638C1057.67 55.4709 1051.18 58.4075 1051.1 58.4402L1050.79 58.5711L1050.86 58.7264L1044.79 58.3672C1043.58 58.3265 1042.76 58.9521 1042.96 59.8722L1054.64 119.628C1054.81 120.471 1055.89 121.296 1057.09 121.337L1108.16 123.242C1109.36 123.282 1111.22 123.139 1112.39 122.914L1128.38 119.805C1129.56 119.58 1131.4 118.983 1132.48 118.525L1179.16 97.8213C1180.24 97.3632 1180.94 96.2386 1180.77 95.3963L1169.09 35.6402C1168.77 34.8633 1167.81 34.5363 1166.73 34.9944ZM1113.09 117.03C1107.28 116.008 1089.44 113.217 1071.86 114.712L1071.89 115.431C1088.86 114.011 1106.05 116.532 1112.26 117.656C1111.71 118.073 1111.27 118.535 1110.98 118.932C1105.42 118.266 1088.3 116.542 1064.47 116.834L1064.43 117.587C1087.76 117.225 1104.7 118.936 1110.45 119.615C1110.12 120.122 1110.06 120.42 1109.99 120.453C1109.99 120.453 1109.91 120.486 1109.94 120.563L1058.46 117.915L1047.36 61.217L1050.76 59.1354L1061.68 115.179L1062.17 115.06C1062.59 114.974 1062.93 114.921 1063.27 114.868C1094.17 108.919 1114.51 113.951 1118.06 115.014C1115.89 115.476 1114.3 116.241 1113.09 117.03ZM1118.37 114.241C1114.04 113.051 1093.72 108.285 1063.24 114.148C1062.98 114.169 1062.82 114.234 1062.56 114.254L1051.81 59.0535C1053.2 58.4645 1059.1 56.0555 1067.28 54.5131C1077.97 52.4552 1093.74 51.6359 1108.3 59.1214L1118.37 114.241ZM1109.29 58.8842C1115.52 48.4524 1130.41 43.6095 1141.86 41.4126C1149.62 39.9561 1156.03 39.6201 1157.62 39.4973L1167.96 92.6701C1167.8 92.7356 1167.62 92.7234 1167.46 92.7888C1137.48 98.5328 1122.67 110.859 1119.33 113.926L1109.29 58.8842ZM1176.53 95.27L1128.47 117.016C1128.47 117.016 1128.07 116.726 1127.27 116.333C1132.67 113.401 1147.54 105.724 1168.86 97.6015L1168.49 96.935C1146.7 105.254 1131.64 113.107 1126.47 115.941C1125.99 115.683 1125.36 115.491 1124.7 115.221C1130.25 111.77 1145.02 103.218 1161.15 98.3055L1160.85 97.6064C1144.23 102.638 1128.94 111.684 1123.67 114.927C1122.45 114.621 1121.06 114.568 1119.66 114.703C1121.85 112.58 1136.58 99.1912 1168.56 93.2385L1169.06 93.1198L1158.51 39.027L1165.5 38.5397L1176.53 95.27Z" fill="white"/>
<path d="M1128.22 258.715C1127.92 259.715 1128.42 260.815 1129.42 261.215L1142.92 265.415C1143.92 265.715 1145.02 265.115 1145.32 264.115C1145.62 263.115 1145.12 262.015 1144.12 261.615L1130.62 257.415C1129.62 257.115 1128.52 257.715 1128.22 258.715Z" fill="white"/>
<path d="M1127.12 262.315C1126.82 263.315 1127.32 264.415 1128.32 264.815L1141.82 269.015C1142.82 269.315 1143.92 268.715 1144.22 267.715C1144.52 266.715 1144.02 265.515 1143.02 265.215L1129.52 261.015C1128.52 260.715 1127.42 261.315 1127.12 262.315Z" fill="white"/>
<path d="M1126.02 266.015C1125.72 267.015 1126.22 268.115 1127.22 268.515L1140.72 272.715C1141.72 273.015 1142.82 272.415 1143.12 271.415C1143.42 270.415 1142.92 269.315 1141.92 268.915L1128.42 264.715C1127.42 264.315 1126.32 264.915 1126.02 266.015Z" fill="white"/>
<path d="M1132.22 242.815C1131.72 243.715 1130.92 245.215 1130.12 246.815C1128.82 249.715 1127.52 253.215 1128.02 255.515C1128.12 255.915 1128.22 256.215 1128.42 256.515C1129.72 258.815 1133.52 260.615 1136.62 261.615C1139.72 262.615 1143.92 263.215 1146.32 262.115C1146.52 262.015 1146.82 261.815 1147.02 261.615C1148.72 260.115 1149.72 256.515 1150.32 253.315C1150.62 251.515 1150.82 249.915 1150.92 248.815C1159.32 247.915 1166.22 242.415 1168.62 234.915C1172.02 224.115 1165.22 212.315 1153.42 208.615C1141.62 204.915 1129.32 210.715 1126.02 221.515C1123.72 229.015 1126.12 237.215 1132.22 242.815ZM1127.92 222.315C1130.92 212.515 1142.12 207.315 1152.82 210.615C1163.52 213.915 1169.72 224.615 1166.62 234.415C1164.42 241.515 1157.82 246.415 1149.82 247.015L1149.02 247.115L1148.92 247.915C1148.82 249.615 1148.52 251.615 1148.12 253.515C1147.52 256.815 1146.52 259.815 1145.32 260.315C1143.82 261.015 1140.62 260.715 1137.22 259.715C1133.82 258.615 1131.02 257.015 1130.22 255.615C1129.52 254.415 1130.42 251.315 1131.82 248.215C1132.62 246.415 1133.52 244.615 1134.42 243.115L1134.82 242.415L1134.22 241.915C1128.22 236.915 1125.82 229.215 1127.92 222.315Z" fill="white"/>
<path d="M1140.02 261.215C1140.02 261.215 1147.82 243.615 1142.92 241.715C1138.02 239.815 1134.42 259.515 1134.42 259.515L1140.02 261.215Z" fill="white"/>
<path d="M1137.52 234.915L1137.82 235.915L1140.42 234.715L1141.92 236.815L1144.92 235.115L1146.42 238.315L1149.12 237.515L1150.42 239.815L1151.32 239.015L1152.02 239.715L1144.02 246.815L1143.32 246.115L1149.92 240.215L1148.92 238.215L1146.12 239.115L1144.72 235.915L1141.82 237.615L1140.22 235.515L1137.92 236.515L1140.02 245.315L1139.12 245.515L1136.62 235.115L1137.52 234.915Z" fill="white"/>
<path d="M1139.42 190.115C1139.92 190.015 1140.52 190.415 1140.62 190.915L1141.92 199.115C1142.02 199.715 1141.62 200.215 1141.12 200.315C1140.92 200.315 1140.82 200.315 1140.62 200.315C1140.22 200.215 1140.02 199.915 1139.92 199.515L1138.62 191.315C1138.42 190.815 1138.82 190.315 1139.42 190.115Z" fill="white"/>
<path d="M1152.32 190.015C1152.92 190.215 1153.22 190.715 1153.12 191.215L1151.42 199.415C1151.32 199.715 1151.22 199.915 1151.02 200.115C1150.82 200.315 1150.52 200.315 1150.22 200.315H1150.12C1149.62 200.115 1149.32 199.615 1149.42 199.115L1151.12 190.915C1151.22 190.315 1151.82 189.915 1152.32 190.015Z" fill="white"/>
<path d="M1115.62 204.215C1115.92 203.715 1116.52 203.615 1117.02 203.815L1123.92 208.115C1124.42 208.415 1124.52 209.015 1124.22 209.515C1124.02 209.915 1123.52 210.115 1123.02 210.015C1122.92 210.015 1122.82 209.915 1122.82 209.915L1115.92 205.615C1115.52 205.315 1115.32 204.715 1115.62 204.215Z" fill="white"/>
<path d="M1125.72 195.215C1126.12 194.915 1126.82 195.015 1127.12 195.515L1131.62 202.415C1131.92 202.915 1131.82 203.515 1131.32 203.815C1131.02 204.015 1130.72 204.015 1130.42 203.915C1130.22 203.815 1130.02 203.715 1129.92 203.515L1125.42 196.615C1125.12 196.215 1125.32 195.615 1125.72 195.215Z" fill="white"/>
<path d="M1173.82 201.215C1174.22 200.815 1174.82 200.815 1175.22 201.215C1175.62 201.615 1175.62 202.315 1175.22 202.715L1169.42 208.715C1169.12 209.015 1168.72 209.115 1168.42 209.015C1168.22 209.015 1168.12 208.915 1168.02 208.715C1167.62 208.315 1167.62 207.615 1168.02 207.215L1173.82 201.215Z" fill="white"/>
<path d="M1162.62 194.215L1159.32 201.915C1159.22 202.215 1159.22 202.415 1159.32 202.715C1159.42 203.015 1159.62 203.215 1159.82 203.315H1159.92C1160.42 203.515 1160.92 203.215 1161.12 202.715L1164.42 195.015C1164.62 194.515 1164.42 193.915 1163.92 193.615H1163.82C1163.32 193.515 1162.82 193.715 1162.62 194.215Z" fill="white"/>
<path d="M1177.72 224.815L1185.82 225.215C1186.42 225.215 1186.82 225.715 1186.72 226.315C1186.72 226.915 1186.22 227.315 1185.62 227.315L1177.52 226.915C1177.42 226.915 1177.32 226.915 1177.32 226.915C1176.92 226.815 1176.62 226.315 1176.62 225.915C1176.62 225.215 1177.12 224.815 1177.72 224.815Z" fill="white"/>
<path d="M1175.92 234.515L1183.42 237.715C1183.92 237.915 1184.12 238.515 1183.92 239.015C1183.72 239.515 1183.02 239.815 1182.52 239.515L1175.02 236.315C1174.92 236.315 1174.92 236.215 1174.82 236.215C1174.42 235.915 1174.32 235.415 1174.52 235.015C1174.72 234.515 1175.32 234.315 1175.92 234.515Z" fill="white"/>
<path d="M1120.12 217.015L1112.22 215.015C1111.72 214.915 1111.12 215.215 1111.02 215.815C1110.92 216.415 1111.22 216.915 1111.82 217.115L1119.72 219.115C1119.82 219.115 1119.92 219.115 1119.92 219.115C1120.42 219.115 1120.82 218.815 1120.92 218.315C1121.02 217.715 1120.72 217.215 1120.12 217.015Z" fill="white"/>
<path d="M1182.22 212.615C1182.72 212.415 1183.32 212.715 1183.52 213.215C1183.72 213.715 1183.42 214.315 1182.92 214.615L1175.32 217.715C1175.12 217.815 1174.82 217.815 1174.62 217.715C1174.32 217.615 1174.12 217.415 1174.02 217.115C1173.82 216.615 1174.12 216.015 1174.62 215.815L1182.22 212.615Z" fill="white"/>
<path d="M1136.52 234.815C1136.42 235.115 1136.62 235.415 1136.82 235.415C1137.12 235.515 1137.42 235.315 1137.42 235.115C1137.52 234.815 1137.32 234.515 1137.12 234.515C1136.92 234.415 1136.62 234.515 1136.52 234.815Z" fill="white"/>
<path d="M1151.12 239.215C1151.02 239.515 1151.22 239.815 1151.42 239.815C1151.72 239.915 1152.02 239.715 1152.02 239.515C1152.12 239.215 1151.92 238.915 1151.72 238.915C1151.52 238.815 1151.22 239.015 1151.12 239.215Z" fill="white"/>
<path d="M1124.52 252.815C1124.52 252.915 1124.62 252.915 1124.52 252.815V252.815Z" fill="white"/>
<path d="M1138.22 271.415C1138.62 270.315 1138.02 269.015 1136.82 268.615L1133.22 267.415C1132.02 267.015 1130.82 267.615 1130.42 268.715C1130.02 269.815 1130.72 271.115 1131.82 271.515L1135.42 272.715C1136.52 273.215 1137.82 272.615 1138.22 271.415Z" fill="white"/>
<g opacity="0.8">
<path d="M82.4176 137.575C82.9932 139.055 84.5555 139.877 85.9533 139.384L105.359 132.477C106.757 131.983 107.497 130.339 106.921 128.859C106.345 127.379 104.783 126.556 103.385 127.05L83.9799 134.039C82.582 134.45 81.842 136.012 82.4176 137.575Z" fill="white"/>
<path d="M84.3086 142.673C84.8842 144.153 86.4465 144.975 87.8443 144.482L107.25 137.492C108.648 136.999 109.388 135.355 108.812 133.875C108.236 132.394 106.674 131.572 105.276 132.066L85.9532 139.055C84.4731 139.548 83.7331 141.193 84.3086 142.673Z" fill="white"/>
<path d="M86.1181 147.935C86.6937 149.415 88.256 150.238 89.6539 149.744L109.059 142.755C110.457 142.262 111.197 140.617 110.622 139.137C110.046 137.657 108.484 136.835 107.086 137.328L87.6804 144.235C86.3648 144.811 85.6247 146.455 86.1181 147.935Z" fill="white"/>
<path d="M73.0436 115.621C73.2903 117.101 73.6192 119.485 74.1948 122.116C75.1815 126.639 76.9083 131.819 79.3751 134.039C79.7862 134.368 80.1974 134.615 80.6085 134.861C84.062 136.342 90.1468 135.108 94.587 133.546C99.1094 131.901 104.536 129.023 106.263 125.652C106.428 125.323 106.592 124.912 106.674 124.501C107.332 121.294 105.359 116.196 103.221 112.003C101.987 109.618 100.754 107.562 100.014 106.329C108.894 97.8596 112.183 85.5257 108.319 74.754C102.727 59.2955 84.4731 51.5662 67.6167 57.6509C50.7603 63.6535 41.6332 81.1677 47.2246 96.7085C51.007 107.069 61.1208 114.469 73.0436 115.621ZM50.1025 95.5573C45.0867 81.5788 53.3916 65.7091 68.6035 60.2C83.8976 54.6908 100.425 61.68 105.441 75.6585C109.059 85.7724 105.852 97.284 97.136 105.013L96.2315 105.836L96.8893 106.822C98.2049 108.878 99.685 111.427 100.918 113.976C103.056 118.334 104.536 122.692 103.632 124.419C102.563 126.474 98.5339 129.023 93.6825 130.832C88.8312 132.559 84.1442 133.135 81.9241 132.23C80.1151 131.49 78.4706 127.132 77.3195 122.281C76.6616 119.567 76.1682 116.607 75.8393 114.14L75.6749 112.989L74.4415 112.907C63.2587 112.167 53.6383 105.424 50.1025 95.5573Z" fill="white"/>
<path d="M98.2047 130.092C98.2047 130.092 91.791 102.875 84.4729 104.931C77.1547 106.987 90.1465 133.052 90.1465 133.052L98.2047 130.092Z" fill="white"/>
<path d="M72.3037 101.806L73.4548 102.711L75.4282 99.0929L79.1284 100.162L81.0196 95.475L85.6243 97.8596L88.0089 94.5705L91.5446 96.215L91.8735 94.4883L93.2714 94.735L90.229 109.947L88.8311 109.7L91.2979 97.1195L88.3378 95.7217L85.871 99.0107L81.513 96.7084L79.6217 101.231L75.9215 100.162L74.1126 103.286L84.3087 111.591L83.3219 112.66L71.3169 102.875L72.3037 101.806Z" fill="white"/>
<path d="M35.1377 48.3593C35.631 47.7837 36.6178 47.7837 37.1933 48.2771L45.9093 56.6642C46.4849 57.2398 46.5672 58.2265 45.9916 58.8021C45.8272 58.9665 45.6627 59.131 45.416 59.2132C44.9226 59.3776 44.3471 59.2954 43.936 58.8843L35.2199 50.4972C34.6443 49.9216 34.6443 48.9349 35.1377 48.3593Z" fill="white"/>
<path d="M50.1026 36.8475L50.267 36.7653C51.007 36.5186 51.747 36.8475 52.0759 37.5053L57.3384 48.5236C57.5029 48.8525 57.5029 49.2637 57.4206 49.6748C57.2562 50.0859 57.0096 50.3326 56.6807 50.4971L56.5162 50.5793C55.7761 50.826 55.0361 50.4971 54.7072 49.757L49.4447 38.7387C49.0336 38.1631 49.3625 37.2586 50.1026 36.8475Z" fill="white"/>
<path d="M20.0078 85.4434C19.9256 84.6211 20.5012 83.8811 21.3235 83.7988L33.0818 82.8121C33.9041 82.7299 34.6441 83.3877 34.7263 84.21C34.8086 84.8678 34.3975 85.5256 33.7397 85.7723C33.6574 85.7723 33.493 85.8545 33.4107 85.8545L21.6523 86.8412C20.8301 86.8412 20.09 86.2656 20.0078 85.4434Z" fill="white"/>
<path d="M23.8725 66.2023C24.1192 65.4622 24.9414 65.0511 25.7636 65.2978L37.0287 69.3269C37.7688 69.5736 38.1799 70.478 37.9332 71.2181C37.7687 71.6292 37.4398 71.9581 37.0287 72.1226C36.6998 72.2048 36.3708 72.2048 36.0419 72.1226L24.777 68.0935C24.0369 67.8468 23.6258 66.9423 23.8725 66.2023Z" fill="white"/>
<path d="M84.7202 30.9272C84.8024 30.1049 85.5424 29.5293 86.3647 29.6116C87.187 29.6938 87.7625 30.5161 87.6803 31.3383L86.2825 43.3434C86.2003 43.919 85.8713 44.3301 85.2957 44.5768C85.049 44.659 84.8024 44.659 84.638 44.659C83.8157 44.5768 83.24 43.7545 83.3223 42.9322L84.7202 30.9272Z" fill="white"/>
<path d="M65.5612 32.7362L68.5213 44.5768C68.6035 44.9879 68.8502 45.3168 69.1791 45.4813C69.5081 45.728 69.9192 45.728 70.3303 45.6457L70.4947 45.5635C71.2348 45.3168 71.5637 44.5768 71.3992 43.8367L68.4391 31.9962C68.2746 31.1739 67.4524 30.6805 66.6301 30.845L66.4656 30.9272C65.8078 31.1739 65.3967 31.9962 65.5612 32.7362Z" fill="white"/>
<path d="M109.963 54.8554L119.666 48.195C120.324 47.7017 121.228 47.9483 121.722 48.6062C122.215 49.264 122.051 50.2507 121.311 50.6618L111.608 57.3222C111.526 57.4044 111.361 57.4866 111.279 57.4866C110.621 57.7333 109.963 57.4866 109.552 56.911C109.141 56.2532 109.306 55.3487 109.963 54.8554Z" fill="white"/>
<path d="M116.295 67.6821L127.807 64.8042C128.547 64.6398 129.369 65.1331 129.534 65.9554C129.698 66.7776 129.205 67.5999 128.383 67.7644L116.871 70.6423C116.789 70.6423 116.624 70.7245 116.542 70.7245C115.884 70.7245 115.309 70.2312 115.144 69.5733C115.062 68.7511 115.555 67.9288 116.295 67.6821Z" fill="white"/>
<path d="M36.4533 96.2972L25.5995 100.902C24.8594 101.231 24.5305 102.135 24.8594 102.875C25.1883 103.615 26.0928 104.026 26.8329 103.698L37.6867 99.0928C37.7689 99.0106 37.9334 99.0106 38.0156 98.9284C38.509 98.5173 38.7557 97.7772 38.4268 97.2017C38.0979 96.3794 37.2756 96.0505 36.4533 96.2972Z" fill="white"/>
<path d="M104.455 36.6831C104.866 36.0253 105.77 35.7786 106.51 36.1898C107.168 36.6009 107.415 37.5876 107.004 38.2454L100.919 48.5237C100.754 48.7704 100.508 49.0171 100.179 49.1815C99.7678 49.346 99.2744 49.2638 98.8633 49.0171C98.2055 48.6059 97.9588 47.6192 98.3699 46.9614L104.455 36.6831Z" fill="white"/>
<path d="M71.0706 102.464C71.235 102.875 71.6461 103.039 72.0572 102.875C72.4684 102.711 72.6328 102.299 72.5506 101.97C72.3861 101.559 71.975 101.395 71.5639 101.559C71.1528 101.642 70.9061 102.135 71.0706 102.464Z" fill="white"/>
<path d="M91.7911 94.8993C91.9555 95.3105 92.3666 95.4749 92.7777 95.3105C93.1889 95.146 93.3534 94.7349 93.2712 94.3238C93.1067 93.9126 92.6955 93.7482 92.2844 93.9126C91.8733 94.0771 91.7088 94.4882 91.7911 94.8993Z" fill="white"/>
<path d="M72.8794 133.875C72.9616 134.039 73.0438 133.875 72.8794 133.875V133.875Z" fill="white"/>
<path d="M105.112 143.495C104.536 141.85 102.727 140.946 101 141.521L95.82 143.248C94.0933 143.824 93.1888 145.633 93.7644 147.277C94.34 148.922 96.1489 149.826 97.8757 149.251L103.056 147.524C104.7 146.948 105.605 145.139 105.112 143.495Z" fill="white"/>
</g>
<g opacity="0.6">
<path d="M1019.74 202.99C1019.47 197.33 1017.64 192.175 1014.77 187.716C1015.34 187.545 1015.9 187.231 1016.31 186.781C1018.15 184.754 1017.17 180.851 1014.21 177.474L1014.55 177.17C1015.31 176.345 1015.25 175.127 1014.42 174.376C1013.6 173.626 1012.38 173.684 1011.63 174.509L1011.29 174.885C1007.72 172.398 1003.82 171.866 1002.04 173.818C1001.43 174.494 1001.18 175.296 1001.16 176.302C1001.08 176.234 1001.01 176.237 1000.94 176.241C996.909 174.566 992.416 173.703 987.759 173.926C984.248 174.093 980.84 174.902 977.739 176.128C977.316 176.291 976.893 176.455 976.473 176.691C976.122 176.851 975.842 177.008 975.49 177.168C975.139 177.329 974.859 177.486 974.508 177.646C974.392 176.718 974.064 175.872 973.389 175.258C971.437 173.484 967.602 174.385 964.29 177.201L963.914 176.859C963.089 176.109 961.871 176.167 961.12 176.993C960.37 177.819 960.428 179.037 961.253 179.787L961.554 180.06C958.927 183.704 958.327 187.682 960.354 189.524C960.804 189.934 961.32 190.196 961.971 190.309C961.842 190.602 961.712 190.896 961.579 191.117C961.514 191.264 961.449 191.411 961.381 191.486C961.122 192.073 960.863 192.66 960.604 193.247C959.065 197.126 958.264 201.401 958.48 205.915C958.948 215.73 964.023 224.249 971.526 229.492L967.344 238.165L969.606 238.918L975.815 232.087C980.223 234.175 985.232 235.3 990.533 235.047C995.764 234.797 1000.57 233.275 1004.76 230.705L1011.59 236.914L1013.77 235.948L1008.78 227.713C1015.9 221.844 1020.21 212.805 1019.74 202.99ZM990.345 229.598C976.517 230.259 964.66 219.551 963.996 205.651C963.336 191.823 974.044 179.966 987.944 179.303C1001.77 178.642 1013.63 189.35 1014.29 203.25C1014.88 217.081 1004.17 228.938 990.345 229.598Z" fill="white"/>
<path d="M1007.99 202.043L990.72 202.867L989.872 185.099C989.817 183.953 988.841 183.066 987.695 183.121C986.549 183.175 985.662 184.151 985.716 185.297L986.637 204.57C986.64 204.642 986.715 204.71 986.722 204.854C986.725 204.925 986.657 205 986.664 205.143C986.719 206.29 987.695 207.177 988.841 207.122L1008.11 206.202C1009.26 206.147 1010.15 205.171 1010.09 204.025C1010.11 202.803 1009.13 201.988 1007.99 202.043Z" fill="white"/>
</g>
<path d="M371.348 148.87C370.748 148.87 370.048 148.87 369.348 148.77C367.248 148.57 365.448 148.27 363.548 148.07C361.148 147.77 358.948 147.47 356.348 147.17C353.648 146.87 351.648 146.77 349.448 146.57C347.148 146.37 344.648 146.17 341.248 145.87C339.148 145.67 337.148 145.47 335.248 145.27C331.448 144.87 327.848 144.57 323.348 143.97C321.748 143.77 319.948 143.67 317.848 143.47C314.648 143.27 310.748 142.97 305.848 142.27C304.648 142.07 303.348 141.97 301.948 141.87C299.648 141.67 297.048 141.37 294.148 140.87C294.048 140.87 293.948 140.87 293.848 140.87C293.748 140.87 293.548 140.77 293.448 140.77C293.248 140.77 292.948 140.67 292.748 140.67C292.448 140.57 292.248 140.47 292.048 140.17C290.548 139.27 289.448 137.77 289.148 136.07C288.648 133.27 289.048 128.37 289.548 125.77C289.948 122.87 290.248 120.47 290.448 117.87C290.548 116.97 290.648 115.97 290.748 114.97C291.148 111.47 291.548 107.87 291.948 104.47C292.648 98.3697 293.448 92.0697 293.948 85.8697L294.048 85.2697C294.248 83.1697 294.548 80.5697 296.948 79.4697C299.248 78.3697 302.348 78.7697 304.948 79.1697C305.648 79.2697 306.248 79.3697 306.848 79.4697C310.648 79.8697 314.148 80.2697 317.548 80.7697C319.148 80.9697 320.848 81.1697 322.448 81.3697C327.148 81.9697 330.948 82.3697 334.648 82.6697C338.748 83.0697 342.748 83.4697 347.248 84.0697C351.348 84.5697 355.148 85.0697 359.248 85.4697C363.248 85.8697 367.348 86.3697 371.948 86.9697C372.448 87.0697 373.048 87.0697 373.648 87.1697C375.448 87.3697 377.448 87.5697 379.248 88.0697C382.948 88.9697 382.948 91.4697 382.748 94.4697C382.548 96.4697 382.348 98.5697 382.148 100.57C381.848 102.87 381.648 105.27 381.448 107.67L381.248 110.37C380.448 120.07 379.748 129.27 378.248 138.57C378.048 139.57 378.048 140.57 377.948 141.57C377.748 144.27 377.548 146.57 375.748 148.07C374.548 148.47 373.248 148.87 371.348 148.87ZM293.948 138.57C296.948 139.17 299.748 139.47 302.148 139.67C303.548 139.77 304.848 139.97 306.148 140.17C310.948 140.87 314.848 141.17 318.048 141.37C320.148 141.57 321.948 141.67 323.648 141.87C328.148 142.47 331.748 142.77 335.548 143.17C337.448 143.37 339.448 143.57 341.548 143.77C344.948 144.17 347.348 144.37 349.748 144.47C351.948 144.67 353.948 144.77 356.648 145.07C359.248 145.37 361.548 145.67 363.948 145.97C365.748 146.17 367.648 146.47 369.648 146.67C371.948 146.97 373.548 146.77 374.348 146.07C375.448 145.17 375.548 143.37 375.748 140.97C375.848 139.97 375.948 138.97 376.048 137.87C377.548 128.57 378.248 119.47 379.048 109.77L379.248 107.07C379.448 104.67 379.748 102.27 379.948 99.8697C380.148 97.8697 380.448 95.8697 380.548 93.8697C380.848 90.5697 380.348 90.0697 378.648 89.5697C376.948 89.1697 374.948 88.9697 373.248 88.7697C372.648 88.6697 372.048 88.6697 371.548 88.5697C366.948 87.9697 362.848 87.4697 358.848 87.0697C354.848 86.5697 350.948 86.1697 346.848 85.6697C342.348 85.0697 338.448 84.6697 334.248 84.2697C330.548 83.8697 326.748 83.4697 322.048 82.9697C320.348 82.7697 318.748 82.5697 317.148 82.3697C313.848 81.9697 310.348 81.4697 306.548 81.0697C305.948 80.9697 305.248 80.8697 304.548 80.7697C302.248 80.4697 299.448 79.9697 297.748 80.8697C297.748 80.8697 297.748 80.8697 297.648 80.8697C296.348 81.4697 296.148 82.8697 295.948 84.9697L295.848 85.5697C295.348 91.7697 294.548 98.1697 293.848 104.27C293.448 107.67 293.048 111.27 292.648 114.77C292.548 115.77 292.448 116.77 292.348 117.67C292.048 120.27 291.848 122.77 291.448 125.67C291.048 128.07 290.648 132.77 291.048 135.27C291.448 136.97 292.648 138.17 293.948 138.57Z" fill="white"/>
<path d="M381.548 157.97C380.648 157.97 379.648 157.87 378.748 157.77C378.148 157.67 377.548 157.67 377.048 157.57C372.348 157.37 367.648 156.87 363.048 156.37C362.948 156.37 362.948 156.37 362.848 156.37C360.848 156.17 358.448 155.87 355.748 155.57C350.648 155.17 344.748 154.67 338.948 154.07C333.248 153.47 327.348 152.67 321.548 151.97C315.848 151.27 309.848 150.47 304.148 149.87C299.548 149.37 295.148 148.77 290.848 148.17C288.748 147.87 286.748 147.57 284.748 147.37C279.048 146.57 279.348 143.17 279.648 139.07C279.648 138.77 279.648 138.47 279.748 138.17C280.648 124.87 282.048 110.57 284.048 91.9697C284.248 90.0697 284.348 88.2697 284.448 86.5697C284.548 84.3697 284.648 82.0697 284.948 79.6697C285.048 79.1697 285.048 78.5697 285.148 77.9697C285.348 75.8697 285.548 73.3697 287.548 71.9697C289.948 70.3697 292.248 70.5697 293.748 70.6697C293.948 70.6697 294.148 70.6697 294.248 70.6697C298.648 70.9697 302.048 71.2697 305.448 71.4697C311.048 71.7697 316.448 72.4697 321.748 73.1697C325.548 73.6697 329.448 74.1697 333.348 74.4697C337.348 74.8697 341.248 75.3697 345.148 75.7697C351.148 76.4697 357.448 77.2697 363.648 77.5697C370.048 77.8697 375.448 78.5697 381.248 79.3697C382.448 79.5697 383.648 79.6697 384.848 79.8697C387.648 80.1697 392.848 80.7697 393.548 85.8697C394.048 88.5697 393.548 91.6697 393.048 94.7697C392.848 95.9697 392.648 97.0697 392.548 98.1697C392.048 103.17 391.648 108.27 391.348 113.37C390.948 119.97 390.048 126.57 389.248 133.07C388.948 135.77 388.648 138.57 388.348 141.27C387.948 145.37 387.548 149.67 386.848 153.87C386.348 157.27 384.048 157.97 381.548 157.97ZM370.848 155.07C372.948 155.27 375.048 155.37 377.148 155.47C377.748 155.47 378.348 155.57 378.948 155.67C382.748 156.07 384.348 155.97 384.848 153.27C385.548 149.17 385.948 144.97 386.348 140.87C386.648 138.17 386.848 135.37 387.248 132.67C388.048 126.27 388.948 119.67 389.348 113.17C389.648 108.07 390.048 102.97 390.548 97.8697C390.648 96.7697 390.848 95.5697 391.048 94.3697C391.548 91.4697 391.948 88.5697 391.548 86.1697C391.148 83.1697 388.648 82.3697 384.548 81.8697C383.348 81.6697 382.048 81.5697 380.848 81.3697C375.148 80.5697 369.748 79.8697 363.448 79.5697C357.148 79.2697 350.848 78.4697 344.848 77.7697C341.048 77.2697 337.048 76.8697 333.148 76.4697C329.148 76.0697 325.248 75.5697 321.448 75.1697C316.148 74.4697 310.748 73.8697 305.248 73.4697C301.948 73.2697 298.448 73.0697 294.048 72.6697C293.848 72.6697 293.648 72.6697 293.448 72.6697C291.948 72.5697 290.348 72.3697 288.548 73.5697C287.248 74.4697 287.148 76.2697 286.948 78.0697C286.848 78.6697 286.848 79.3697 286.748 79.8697C286.448 82.1697 286.348 84.2697 286.248 86.5697C286.148 88.3697 286.048 90.2697 285.848 92.1697C283.848 110.77 282.548 124.97 281.548 138.27C281.548 138.57 281.548 138.87 281.448 139.27C281.148 143.37 281.048 144.87 284.748 145.37C286.748 145.67 288.848 145.87 290.948 146.17C295.248 146.77 299.648 147.37 304.148 147.87C309.848 148.47 315.848 149.27 321.548 149.97C327.248 150.67 333.148 151.47 338.848 152.07C344.648 152.67 350.448 153.17 355.648 153.57C363.248 154.37 368.148 154.87 370.148 154.97C370.548 154.97 370.748 155.07 370.848 155.07Z" fill="white"/>
<path d="M386.748 170.77C385.848 170.77 384.948 170.67 384.048 170.57C383.748 170.57 383.448 170.47 383.148 170.47C380.948 170.27 378.848 169.97 376.848 169.77C374.548 169.47 372.448 169.17 370.648 169.17C366.048 168.87 362.148 168.37 358.048 167.97C354.648 167.57 351.048 167.17 346.948 166.87C341.748 166.47 335.348 165.77 328.048 164.97C321.348 164.27 313.748 163.47 305.348 162.57C303.848 162.47 302.448 162.27 301.048 162.17C292.448 161.37 285.148 160.67 276.248 158.77C273.548 158.17 271.648 156.37 271.148 154.07C270.848 152.67 271.048 150.67 271.348 149.27C271.048 149.07 270.948 148.67 271.048 148.27C271.148 147.77 271.548 147.47 272.048 147.47C272.248 147.37 272.548 147.27 272.848 147.37C273.048 147.47 273.248 147.57 273.348 147.77C274.248 147.87 275.348 147.97 276.348 148.07C276.848 148.07 277.248 148.17 277.648 148.17C287.148 149.17 296.748 150.27 306.048 151.37C315.348 152.37 324.848 153.47 334.248 154.47C340.048 155.07 345.948 155.67 351.648 156.17C357.348 156.67 363.148 157.27 368.948 157.87L384.448 159.57C385.048 159.67 385.748 159.67 386.448 159.77C388.548 159.97 390.648 160.17 392.648 160.67C393.148 160.77 393.448 161.27 393.348 161.77C393.348 162.27 393.348 162.87 393.348 163.47C393.348 165.77 393.348 168.67 390.448 170.07C389.248 170.57 388.048 170.77 386.748 170.77ZM273.248 149.77C273.048 151.07 272.848 152.67 273.048 153.57C273.048 153.57 273.048 153.57 273.048 153.67C273.448 155.87 275.848 156.57 276.548 156.77C285.248 158.57 292.548 159.27 301.048 160.07C302.448 160.17 303.948 160.37 305.348 160.47C313.748 161.27 321.348 162.07 328.048 162.87C335.448 163.67 341.748 164.37 346.948 164.77C351.148 165.17 354.648 165.47 358.048 165.87C362.148 166.37 366.048 166.77 370.548 167.07C372.348 167.17 374.548 167.47 376.848 167.77C378.848 168.07 380.948 168.27 383.148 168.47C383.448 168.47 383.848 168.57 384.148 168.57C386.048 168.77 387.848 168.97 389.548 168.27C391.148 167.47 391.248 165.97 391.148 163.57C391.148 163.27 391.148 162.87 391.148 162.57C389.548 162.17 387.848 162.07 386.148 161.87C385.448 161.77 384.748 161.77 384.148 161.67L368.648 159.97C362.948 159.37 357.048 158.77 351.348 158.27C345.648 157.77 339.748 157.17 333.948 156.57C324.548 155.57 314.948 154.47 305.748 153.47C296.448 152.37 286.848 151.37 277.348 150.27C276.948 150.27 276.548 150.17 276.048 150.17C275.248 149.97 274.148 149.87 273.248 149.77Z" fill="white"/>
<path d="M339.148 162.67C338.348 162.67 337.548 162.57 336.848 162.47C336.648 162.47 336.348 162.37 336.148 162.37C333.748 162.07 331.248 161.87 328.948 161.67C328.748 161.67 324.448 161.47 322.848 160.37C322.048 159.77 321.548 159.07 321.748 158.27C321.748 157.97 321.948 157.37 322.848 157.07C323.048 156.77 323.348 156.57 323.748 156.57C324.148 156.57 324.348 156.57 324.648 156.57C325.048 156.57 325.448 156.47 326.048 156.57C328.148 156.87 330.448 157.07 332.648 157.27C334.848 157.47 336.848 157.67 338.548 157.87C338.548 157.87 342.348 158.37 342.648 160.27C342.748 160.77 342.648 161.67 341.248 162.27C340.548 162.57 339.848 162.67 339.148 162.67ZM323.948 158.67C324.648 159.17 327.148 159.57 329.048 159.67C331.348 159.87 333.848 160.07 336.248 160.37C336.548 160.37 336.748 160.47 337.048 160.47C338.048 160.57 339.448 160.77 340.148 160.57C339.648 160.27 338.848 160.07 338.248 159.97C336.548 159.77 334.548 159.57 332.348 159.37C330.148 159.17 327.848 158.97 325.748 158.67C325.348 158.67 325.148 158.67 324.748 158.67C324.548 158.57 324.248 158.57 323.948 158.67C324.048 158.57 323.948 158.57 323.948 158.67Z" fill="white"/>
<path d="M1334.1 99.33C1333.57 99.2543 1332.94 99.1661 1332.33 98.9888C1330.49 98.546 1328.92 98.052 1327.26 97.6344C1325.16 97.0647 1323.24 96.5203 1320.96 95.9254C1318.59 95.318 1316.83 94.9768 1314.89 94.5214C1312.87 94.0534 1310.67 93.5602 1307.68 92.8644C1305.84 92.4216 1304.08 91.9914 1302.41 91.5739C1299.08 90.7387 1295.91 90.0177 1291.98 88.9163C1290.58 88.5365 1288.99 88.2205 1287.15 87.7777C1284.33 87.1963 1280.89 86.4375 1276.62 85.1966C1275.57 84.8672 1274.43 84.6143 1273.2 84.3488C1271.17 83.8808 1268.9 83.2859 1266.38 82.4752C1266.29 82.4626 1266.2 82.45 1266.11 82.4374C1266.02 82.4248 1265.86 82.3105 1265.77 82.2979C1265.59 82.2727 1265.34 82.1459 1265.16 82.1206C1264.9 81.9938 1264.74 81.8795 1264.6 81.5872C1263.37 80.5969 1262.58 79.1228 1262.53 77.5715C1262.44 75.0157 1263.41 70.7037 1264.19 68.452C1264.91 65.9206 1265.48 63.8217 1265.98 61.5322C1266.19 60.7436 1266.4 59.8659 1266.62 58.9882C1267.41 55.9226 1268.22 52.768 1269.01 49.7915C1270.4 44.449 1271.91 38.9411 1273.13 33.4844L1273.3 32.9628C1273.74 31.1184 1274.34 28.8415 1276.61 28.1648C1278.8 27.4754 1281.51 28.2223 1283.77 28.9062C1284.38 29.0835 1284.9 29.2482 1285.43 29.4128C1288.76 30.248 1291.82 31.0454 1294.79 31.9191C1296.19 32.2989 1297.68 32.6913 1299.07 33.071C1303.18 34.1977 1306.52 35.0329 1309.77 35.7665C1313.37 36.6394 1316.88 37.4998 1320.81 38.6013C1324.4 39.5633 1327.72 40.4875 1331.32 41.3605C1334.83 42.2209 1338.42 43.1829 1342.44 44.297C1342.87 44.4491 1343.4 44.5247 1343.93 44.6894C1345.5 45.0944 1347.26 45.5246 1348.8 46.1966C1351.98 47.4644 1351.66 49.6901 1351.11 52.3357C1350.68 54.091 1350.23 55.9354 1349.8 57.6908C1349.25 59.7006 1348.77 61.8121 1348.29 63.9235L1347.77 66.3021C1345.83 74.837 1344.05 82.9394 1341.54 91.0299C1341.24 91.895 1341.11 92.7853 1340.9 93.6629C1340.38 96.0415 1339.91 98.0639 1338.12 99.1724C1337 99.3773 1335.79 99.5695 1334.1 99.33ZM1266.49 80.4023C1269.09 81.3147 1271.54 81.9348 1273.65 82.4154C1274.89 82.6809 1276.02 83.0229 1277.15 83.3648C1281.33 84.5931 1284.77 85.3519 1287.59 85.9334C1289.44 86.3762 1291.03 86.6921 1292.52 87.0845C1296.45 88.186 1299.61 88.9069 1302.95 89.7421C1304.61 90.1597 1306.37 90.5899 1308.21 91.0327C1311.19 91.8174 1313.3 92.298 1315.42 92.6896C1317.36 93.145 1319.13 93.4862 1321.49 94.0937C1323.77 94.6885 1325.78 95.2456 1327.88 95.8152C1329.45 96.2202 1331.11 96.7268 1332.86 97.157C1334.87 97.714 1336.32 97.7377 1337.12 97.2154C1338.22 96.5528 1338.53 94.9629 1339.01 92.8514C1339.23 91.9737 1339.44 91.0961 1339.67 90.1293C1342.18 82.0388 1343.95 74.0255 1345.88 65.4906L1346.4 63.112C1346.88 61.0006 1347.45 58.9017 1347.93 56.7902C1348.36 55.0349 1348.88 53.2921 1349.22 51.5242C1349.91 48.6241 1349.52 48.1159 1348.07 47.4564C1346.61 46.886 1344.86 46.4558 1343.37 46.0634C1342.85 45.8988 1342.31 45.8231 1341.88 45.6711C1337.86 44.557 1334.27 43.5949 1330.76 42.7346C1327.26 41.7851 1323.84 40.9374 1320.26 39.9753C1316.32 38.8739 1312.9 38.0261 1309.21 37.1405C1305.97 36.3179 1302.64 35.4827 1298.52 34.4451C1297.03 34.0527 1295.63 33.6729 1294.23 33.2932C1291.34 32.521 1288.29 31.6346 1284.96 30.7995C1284.44 30.6348 1283.82 30.4575 1283.21 30.2802C1281.2 29.7232 1278.77 28.9251 1277.15 29.512C1277.15 29.512 1277.15 29.512 1277.06 29.4994C1275.83 29.8697 1275.47 31.0909 1275.03 32.9352L1274.86 33.4568C1273.64 38.9135 1272.12 44.5105 1270.73 49.853C1269.94 52.8295 1269.13 55.9841 1268.33 59.0497C1268.12 59.9274 1267.9 60.805 1267.7 61.5937C1267.11 63.8706 1266.61 66.0711 1265.89 68.6025C1265.23 70.6887 1264.28 74.8226 1264.32 77.0988C1264.47 78.6627 1265.38 79.8823 1266.49 80.4023Z" fill="white"/>
<path d="M1342.03 108.718C1341.23 108.604 1340.35 108.389 1339.57 108.187C1339.04 108.022 1338.51 107.946 1338.08 107.794C1333.92 107.024 1329.8 105.986 1325.76 104.961C1325.68 104.948 1325.68 104.948 1325.59 104.936C1323.83 104.506 1321.73 103.936 1319.37 103.328C1314.88 102.329 1309.69 101.14 1304.6 99.8751C1299.6 98.6223 1294.45 97.1663 1289.37 95.8119C1284.39 94.4701 1279.15 93.0015 1274.15 91.7487C1270.11 90.7237 1266.27 89.6348 1262.52 88.5585C1260.69 88.0267 1258.95 87.5075 1257.19 87.0773C1252.22 85.6465 1252.91 82.6573 1253.7 79.045C1253.73 78.7779 1253.77 78.5108 1253.9 78.2563C1256.38 66.529 1259.43 53.9744 1263.55 37.6673C1263.97 36.001 1264.28 34.4111 1264.59 32.9102C1264.95 30.9642 1265.33 28.9291 1265.9 26.8303C1266.06 26.3977 1266.13 25.8636 1266.3 25.342C1266.74 23.4976 1267.23 21.2971 1269.19 20.3029C1271.53 19.181 1273.55 19.649 1274.87 19.9271C1275.05 19.9523 1275.23 19.9775 1275.32 19.9902C1279.2 20.8119 1282.19 21.5077 1285.19 22.1143C1290.14 23.0874 1294.85 24.3914 1299.48 25.6828C1302.8 26.607 1306.21 27.5438 1309.65 28.3025C1313.16 29.1629 1316.57 30.0997 1319.99 30.9475C1325.24 32.3271 1330.75 33.8336 1336.23 34.8823C1341.89 35.9562 1346.61 37.2602 1351.68 38.7036C1352.72 39.0329 1353.77 39.2732 1354.82 39.6026C1357.27 40.2227 1361.83 41.4124 1361.81 46.0411C1361.91 48.5079 1361.08 51.2047 1360.24 53.9016C1359.91 54.9447 1359.59 55.8988 1359.37 56.8655C1358.29 61.2539 1357.29 65.7439 1356.38 70.2465C1355.19 76.072 1353.56 81.8344 1352.03 87.5204C1351.42 89.8863 1350.8 92.3413 1350.19 94.7072C1349.32 98.307 1348.42 102.085 1347.27 105.736C1346.39 108.7 1344.26 109.033 1342.03 108.718ZM1332.87 104.787C1334.72 105.23 1336.57 105.584 1338.43 105.937C1338.97 106.013 1339.49 106.178 1340.01 106.342C1343.34 107.177 1344.78 107.29 1345.56 104.949C1346.7 101.387 1347.59 97.6987 1348.46 94.099C1349.07 91.733 1349.6 89.2655 1350.3 86.9121C1351.82 81.3152 1353.45 75.5528 1354.63 69.8163C1355.54 65.3137 1356.53 60.8237 1357.62 56.3463C1357.85 55.3796 1358.18 54.3364 1358.51 53.2933C1359.32 50.7745 1360.04 48.2431 1359.99 46.056C1360.01 43.3347 1357.89 42.3073 1354.3 41.3453C1353.25 41.016 1352.11 40.7631 1351.07 40.4337C1346.09 39.0029 1341.37 37.6989 1335.8 36.6376C1330.23 35.5763 1324.72 34.0698 1319.47 32.6902C1316.15 31.766 1312.64 30.9056 1309.22 30.0579C1305.71 29.1975 1302.3 28.2607 1298.97 27.4255C1294.34 26.1341 1289.6 24.9192 1284.76 23.8697C1281.84 23.2756 1278.75 22.6563 1274.89 21.7455C1274.71 21.7203 1274.53 21.6951 1274.35 21.6699C1273.03 21.3917 1271.63 21.012 1269.88 21.8534C1268.61 22.4908 1268.29 24.0807 1267.89 25.658C1267.72 26.1795 1267.63 26.8027 1267.48 27.2353C1266.92 29.2451 1266.57 31.1021 1266.19 33.1371C1265.87 34.727 1265.55 36.406 1265.13 38.0723C1261 54.3794 1258.06 66.8576 1255.49 78.5723C1255.45 78.8394 1255.41 79.1064 1255.27 79.4499C1254.49 83.0623 1254.21 84.3851 1257.44 85.2967C1259.19 85.8159 1261.03 86.2587 1262.86 86.7905C1266.61 87.8668 1270.46 88.9557 1274.4 89.9681C1279.4 91.2209 1284.64 92.6895 1289.62 94.0313C1294.61 95.3731 1299.76 96.8292 1304.76 98.0819C1309.85 99.3473 1314.95 100.524 1319.53 101.535C1326.19 103.206 1330.49 104.269 1332.26 104.61C1332.62 104.66 1332.78 104.774 1332.87 104.787Z" fill="white"/>
<path d="M1345.05 120.769C1344.25 120.655 1343.46 120.453 1342.67 120.25C1342.4 120.212 1342.15 120.086 1341.88 120.048C1339.95 119.592 1338.12 119.06 1336.36 118.63C1334.35 118.073 1332.52 117.541 1330.92 117.314C1326.86 116.467 1323.45 115.531 1319.85 114.658C1316.87 113.873 1313.72 113.063 1310.11 112.279C1305.53 111.267 1299.92 109.837 1293.52 108.205C1287.64 106.737 1280.98 105.067 1273.61 103.206C1272.29 102.928 1271.07 102.574 1269.84 102.308C1262.28 100.512 1255.87 98.9682 1248.19 96.1547C1245.86 95.2801 1244.39 93.4381 1244.24 91.3274C1244.15 90.0432 1244.58 88.2878 1245.02 87.0792C1244.78 86.8633 1244.74 86.4946 1244.88 86.1511C1245.03 85.7186 1245.43 85.5019 1245.87 85.565C1246.06 85.5011 1246.34 85.4499 1246.6 85.5768C1246.76 85.691 1246.93 85.8053 1246.99 85.9959C1247.78 86.1984 1248.75 86.4261 1249.62 86.6412C1250.07 86.7043 1250.41 86.8437 1250.77 86.8941C1259.1 88.9821 1267.51 91.1716 1275.65 93.3234C1283.8 95.3861 1292.12 97.5631 1300.36 99.6384C1305.45 100.904 1310.63 102.182 1315.64 103.345C1320.65 104.509 1325.74 105.775 1330.83 107.04L1344.41 110.507C1344.93 110.672 1345.56 110.76 1346.17 110.938C1348.01 111.38 1349.86 111.823 1351.57 112.521C1352.01 112.673 1352.21 113.156 1352.06 113.588C1352 114.033 1351.92 114.567 1351.84 115.102C1351.55 117.149 1351.19 119.731 1348.43 120.612C1347.3 120.906 1346.21 120.933 1345.05 120.769ZM1246.65 87.7639C1246.31 88.896 1245.93 90.2953 1245.99 91.1218C1245.99 91.1218 1245.99 91.1217 1245.98 91.2108C1246.06 93.2198 1248.11 94.1456 1248.7 94.4119C1256.22 97.1112 1262.63 98.6547 1270.1 100.439C1271.33 100.704 1272.64 101.071 1273.88 101.337C1281.26 103.108 1287.92 104.778 1293.79 106.335C1300.27 107.98 1305.79 109.398 1310.37 110.409C1314.06 111.295 1317.14 112.003 1320.12 112.788C1323.7 113.75 1327.12 114.598 1331.09 115.432C1332.68 115.748 1334.6 116.293 1336.61 116.85C1338.36 117.369 1340.2 117.812 1342.13 118.267C1342.4 118.305 1342.74 118.444 1343.01 118.482C1344.68 118.9 1346.25 119.305 1347.86 118.896C1349.38 118.385 1349.66 117.063 1349.87 114.913C1349.91 114.646 1349.96 114.29 1350 114.023C1348.63 113.465 1347.12 113.162 1345.64 112.769C1345.03 112.592 1344.4 112.504 1343.88 112.339L1330.3 108.872C1325.3 107.619 1320.12 106.341 1315.11 105.177C1310.1 104.014 1304.92 102.736 1299.83 101.47C1291.59 99.3949 1283.18 97.2053 1275.12 95.1552C1266.98 93.0034 1258.56 90.9029 1250.24 88.7259C1249.88 88.6755 1249.54 88.536 1249.09 88.473C1248.4 88.1941 1247.44 87.9664 1246.65 87.7639Z" fill="white"/>
<path d="M1303.69 107.557C1302.98 107.456 1302.28 107.266 1301.67 107.089C1301.49 107.063 1301.24 106.937 1301.06 106.911C1298.96 106.342 1296.76 105.848 1294.74 105.38C1294.56 105.355 1290.76 104.635 1289.47 103.454C1288.83 102.819 1288.48 102.133 1288.76 101.446C1288.79 101.179 1289.05 100.67 1289.89 100.516C1290.1 100.274 1290.4 100.134 1290.75 100.184C1291.11 100.235 1291.29 100.26 1291.55 100.298C1291.91 100.348 1292.28 100.31 1292.8 100.474C1294.63 101.006 1296.65 101.474 1298.59 101.93C1300.52 102.385 1302.28 102.815 1303.76 103.208C1303.76 103.208 1307.08 104.132 1307.11 105.861C1307.14 106.319 1306.93 107.108 1305.61 107.465C1304.95 107.644 1304.32 107.645 1303.69 107.557ZM1290.66 102.079C1291.22 102.613 1293.4 103.284 1295.08 103.613C1297.1 104.081 1299.3 104.574 1301.4 105.143C1301.67 105.181 1301.83 105.295 1302.1 105.333C1302.98 105.548 1304.2 105.903 1304.85 105.813C1304.44 105.483 1303.75 105.204 1303.23 105.039C1301.74 104.647 1299.99 104.217 1298.05 103.761C1296.12 103.306 1294.1 102.838 1292.27 102.306C1291.91 102.256 1291.73 102.231 1291.38 102.18C1291.21 102.066 1290.94 102.028 1290.66 102.079C1290.68 101.99 1290.77 102.003 1290.66 102.079Z" fill="white"/>
</g>
</g>
</svg>
