<svg width="100" height="100" viewBox="0 0 100 100" fill="none" xmlns="http://www.w3.org/2000/svg">
<path d="M96 50C96 75.4051 75.4051 96 50 96C24.5949 96 4 75.4051 4 50C4 24.5949 24.5949 4 50 4C75.4051 4 96 24.5949 96 50Z" fill="white" stroke="#E9F2FF" stroke-width="4"/>
<path d="M47.0764 59.4509H30.0145C29.5964 59.4509 29.2618 59.1164 29.2618 58.6982V31.0145C29.2618 30.5964 29.5964 30.2618 30.0145 30.2618H70.9127C71.3309 30.2618 71.6655 30.5964 71.6655 31.0145V37.0364C72.8364 37.2036 74.0073 37.5382 74.9273 38.2073V31.0145C74.9273 28.84 73.1709 27 70.9127 27H30.0145C27.7564 27 26 28.7564 26 31.0145V58.7818C26 60.9564 27.7564 62.7964 30.0145 62.7964H43.7309V68.1491H41.5564C40.2182 68.1491 39.1309 69.2364 39.1309 70.5745C39.1309 71.9127 40.2182 73 41.5564 73H48.4145C47.5782 71.8291 46.9927 70.3236 46.9927 68.7345L47.0764 59.4509Z" fill="url(#paint0_linear_3136_4396)"/>
<path d="M60.7924 70.4909V66.9782H53.5997V44.3964C53.5997 43.8946 54.0179 43.56 54.4361 43.56H70.7452C71.247 43.56 71.5815 43.9782 71.5815 44.3964V51.4218H72.8361C73.5888 51.4218 74.2579 51.6727 74.8433 52.0073V44.48C74.8433 42.2218 73.0033 40.3818 70.7452 40.3818H54.4361C52.1779 40.3818 50.3379 42.2218 50.3379 44.48V68.8182C50.3379 71.0764 52.1779 72.9164 54.4361 72.9164H61.5452C61.0433 72.2473 60.7924 71.3273 60.7924 70.4909Z" fill="url(#paint1_linear_3136_4396)"/>
<path d="M72.8362 53.429H64.8907C63.7198 53.429 62.7998 54.349 62.7998 55.5199V70.5744C62.7998 71.7453 63.7198 72.6653 64.8907 72.6653H72.8362C74.0071 72.6653 74.9271 71.7453 74.9271 70.5744V55.5199C74.8434 54.349 73.9234 53.429 72.8362 53.429ZM65.3089 55.8544H72.418V68.818H65.3089V55.8544ZM68.8216 71.578C68.5707 71.578 68.4034 71.4944 68.2362 71.3271C68.0689 71.1599 67.9853 70.909 67.9853 70.658C67.9853 70.1562 68.4034 69.8217 68.8216 69.8217C69.3234 69.8217 69.658 70.2399 69.658 70.658C69.658 70.909 69.5744 71.1599 69.4071 71.3271C69.3234 71.4944 69.0725 71.578 68.8216 71.578Z" fill="url(#paint2_linear_3136_4396)"/>
<defs>
<linearGradient id="paint0_linear_3136_4396" x1="50.4636" y1="27" x2="50.4636" y2="73" gradientUnits="userSpaceOnUse">
<stop stop-color="#DE5CC4"/>
<stop offset="0.785" stop-color="#6D42E7"/>
</linearGradient>
<linearGradient id="paint1_linear_3136_4396" x1="62.5906" y1="40.3818" x2="62.5906" y2="72.9164" gradientUnits="userSpaceOnUse">
<stop stop-color="#DE5CC4"/>
<stop offset="0.785" stop-color="#6D42E7"/>
</linearGradient>
<linearGradient id="paint2_linear_3136_4396" x1="68.8634" y1="53.429" x2="68.8634" y2="72.6653" gradientUnits="userSpaceOnUse">
<stop stop-color="#DE5CC4"/>
<stop offset="0.785" stop-color="#6D42E7"/>
</linearGradient>
</defs>
</svg>
