<svg width="100" height="100" viewBox="0 0 100 100" fill="none" xmlns="http://www.w3.org/2000/svg">
<path d="M96 50C96 75.4051 75.4051 96 50 96C24.5949 96 4 75.4051 4 50C4 24.5949 24.5949 4 50 4C75.4051 4 96 24.5949 96 50Z" fill="white" stroke="#DAEFFF" stroke-width="4"/>
<path d="M41.6313 73H27V58.3687C27 54.7821 29.9035 51.8217 33.5471 51.8217H48.1783V66.4529C48.1783 70.0965 45.2748 73 41.6313 73ZM45.161 54.839H35.255C32.4084 54.839 30.0743 57.1732 30.0743 60.0197V69.9827H39.2402C42.5422 69.9827 45.161 67.3069 45.161 64.0618V54.839Z" fill="#6D42E7"/>
<path d="M51.8218 66.4529V51.8217H66.453C70.0397 51.8217 73.0001 54.7252 73.0001 58.3687V73H58.3688C54.7253 73 51.8218 70.0965 51.8218 66.4529ZM54.8391 64.0049C54.8391 67.3069 57.5149 69.9257 60.7599 69.9257H69.9258V60.0197C69.9258 57.1732 67.5917 54.839 64.7451 54.839H54.8391V64.0049Z" fill="#6D42E7"/>
<path d="M27 41.8587V27.2274H41.6313C45.2179 27.2274 48.1783 30.1309 48.1783 33.7745V48.4058H33.5471C29.9035 48.4058 27 45.5023 27 41.8587ZM30.0173 39.4107C30.0173 42.7127 32.6931 45.3315 35.9382 45.3315H45.104V35.4255C45.104 32.579 42.7699 30.2448 39.9233 30.2448H30.0173V39.4107Z" fill="url(#paint0_linear_3136_4407)"/>
<path d="M66.453 48.4058H51.8218V33.7745C51.8218 30.1879 54.7253 27.2274 58.3688 27.2274H73.0001V41.8587C73.0001 45.5023 70.0966 48.4058 66.453 48.4058ZM69.0719 36.8488H63.4926V30.9849C63.4926 30.4156 63.0372 29.9032 62.4109 29.9032C61.8416 29.9032 61.3292 30.3586 61.3292 30.9849V36.8488H55.75C55.1807 36.8488 54.6683 37.3042 54.6683 37.9305C54.6683 38.5567 55.1238 39.0122 55.75 39.0122H61.3292V44.3067C61.3292 44.876 61.7847 45.3884 62.4109 45.3884C62.9802 45.3884 63.4926 44.933 63.4926 44.3067V39.0122H69.0719C69.6412 39.0122 70.1536 38.5567 70.1536 37.9305C70.1536 37.3042 69.6981 36.8488 69.0719 36.8488Z" fill="url(#paint1_linear_3136_4407)"/>
<defs>
<linearGradient id="paint0_linear_3136_4407" x1="48" y1="47.9999" x2="29.5" y2="26.9999" gradientUnits="userSpaceOnUse">
<stop stop-color="#6D42E7"/>
<stop offset="1" stop-color="#DA5BC5"/>
</linearGradient>
<linearGradient id="paint1_linear_3136_4407" x1="55.4995" y1="47.9999" x2="66.4995" y2="26.9999" gradientUnits="userSpaceOnUse">
<stop offset="0.085" stop-color="#6D42E7"/>
<stop offset="0.85" stop-color="#DA5BC5"/>
</linearGradient>
</defs>
</svg>
