<svg width="100" height="100" viewBox="0 0 100 100" fill="none" xmlns="http://www.w3.org/2000/svg">
<path d="M49.8516 97.7031C76.2793 97.7031 97.7031 76.2793 97.7031 49.8516C97.7031 23.4239 76.2793 2 49.8516 2C23.4239 2 2 23.4239 2 49.8516C2 76.2793 23.4239 97.7031 49.8516 97.7031Z" fill="#F1C14C"/>
<path d="M50.1231 15.0356C50.1231 15.0686 50.1231 15.1016 50.1231 15.1346C42.9813 15.1346 35.8559 15.1181 28.7141 15.1346C23.9639 15.1511 21.7207 17.3118 21.4898 21.996C21.4238 23.398 21.4073 24.8 21.4403 26.202C21.5558 32.7005 21.6712 39.1991 21.8197 45.6977C21.8527 46.8193 21.9681 47.9408 22.1166 49.0624C22.5784 52.5591 24.5247 54.8188 28.0049 55.3631C30.7923 55.8084 33.6458 56.0558 36.4662 56.0393C43.0143 56.0228 49.5623 55.7919 56.0939 55.66C61.009 55.561 65.9242 55.594 70.8394 55.3631C75.5566 55.1486 77.9152 52.5261 78.0307 47.7924C78.0472 46.8028 78.0142 45.8131 77.9977 44.807C77.9647 42.3659 77.8987 39.9413 77.9152 37.5002C77.9482 32.1727 78.1296 26.8452 78.0142 21.5342C77.9317 17.2458 75.903 15.1511 71.6476 15.0686C64.4727 14.9367 57.2979 15.0356 50.1231 15.0356Z" fill="white"/>
<path d="M50.1231 15.0356C57.2979 15.0356 64.4727 14.9367 71.6476 15.0686C75.8865 15.1511 77.9152 17.2293 78.0142 21.5342C78.1296 26.8617 77.9317 32.1892 77.9152 37.5002C77.8987 39.9413 77.9647 42.3659 77.9977 44.807C78.0142 45.7966 78.0472 46.7863 78.0307 47.7924C77.9317 52.5261 75.5731 55.1486 70.8394 55.3631C65.9242 55.594 61.009 55.561 56.0939 55.66C49.5458 55.7919 42.9978 56.0228 36.4662 56.0393C33.6458 56.0558 30.7923 55.7919 28.0049 55.3631C24.5247 54.8188 22.5619 52.5591 22.1166 49.0624C21.9681 47.9408 21.8527 46.8193 21.8197 45.6977C21.6712 39.1991 21.5558 32.7005 21.4403 26.202C21.4238 24.8 21.4238 23.398 21.4898 22.0125C21.7207 17.3118 23.9639 15.1676 28.7141 15.1511C35.8559 15.1346 42.9813 15.1511 50.1231 15.1511C50.1231 15.1016 50.1231 15.0686 50.1231 15.0356ZM55.0877 38.5229C55.0712 38.7208 55.0548 38.9187 55.0218 39.1166C55.3681 38.6548 55.6485 38.1105 56.0609 37.7311C58.1061 35.8179 60.1678 33.9211 62.2626 32.0903C63.9449 30.6223 65.9242 30.2759 67.9199 31.2491C69.4044 31.9748 70.8229 32.8985 72.0764 33.9541C73.3629 35.0262 74.4185 36.3787 75.5896 37.5992C75.771 37.5332 75.9689 37.4508 76.1504 37.3848C76.1504 32.2552 76.2658 27.1256 76.1009 21.996C75.9854 18.5323 75.0123 17.6581 71.5651 17.0974C70.8064 16.9819 70.0477 16.9324 69.2724 16.9324C65.3964 16.9159 61.5038 16.8994 57.6278 16.9324C47.781 16.9984 37.9506 17.0809 28.1038 17.1798C25.2669 17.2128 23.6835 18.5158 23.1392 21.3198C23.0072 21.9795 22.9577 22.6558 22.9742 23.332C23.0732 28.3956 23.1722 33.4427 23.2876 38.4899C23.3371 40.2217 23.4361 41.9701 23.535 43.9163C24.0793 43.3391 24.4422 42.9432 24.8051 42.5638C28.5327 38.7043 32.1613 34.7458 36.0044 31.0017C40.1113 27.0102 42.7504 27.1091 46.9563 31.0017C49.6778 33.5087 52.3828 36.0158 55.0877 38.5229ZM62.444 53.7302C62.51 53.5487 62.5924 53.3838 62.6584 53.2024C60.6791 50.151 58.7824 47.0337 56.7206 44.0483C53.3724 39.1991 49.4304 34.8612 44.9275 31.0676C42.8823 29.3358 41.1175 29.2368 38.8578 30.6718C37.5383 31.513 36.2683 32.5026 35.1962 33.6242C31.4356 37.5167 27.741 41.4753 24.0463 45.4338C23.7824 45.7307 23.568 46.2255 23.5845 46.6048C23.8154 51.2066 26.1905 53.6972 30.8253 53.7632C37.6373 53.8786 44.4327 53.7467 51.2447 53.7302C54.9888 53.7302 58.7164 53.7302 62.444 53.7302ZM55.7145 40.1063C56.8856 41.7392 58.0071 43.2236 59.0298 44.741C60.0689 46.275 61.0255 47.8584 62.0152 49.4088C62.9058 50.7778 63.4996 52.7076 64.7696 53.3673C66.0726 54.06 68.0354 53.5322 69.7013 53.5322C69.7838 53.5322 69.8827 53.5322 69.9652 53.5322C73.3959 53.2354 75.3752 51.8499 75.705 48.8975C76.0349 45.9946 75.8535 43.0422 75.8865 40.1063C75.8865 39.9083 75.771 39.6609 75.6226 39.5125C73.4949 37.5002 71.4991 35.323 69.19 33.5417C66.8479 31.7109 64.6872 31.9253 62.4275 33.8716C60.1513 35.8508 58.0071 37.9621 55.7145 40.1063Z" fill="#202E5B"/>
<path d="M55.0874 38.5223C52.3824 36.0153 49.6774 33.4917 46.9724 30.9847C42.783 27.0921 40.144 26.9931 36.0205 30.9847C32.1774 34.7288 28.5323 38.6873 24.8212 42.5468C24.4418 42.9262 24.079 43.322 23.5512 43.8993C23.4522 41.9531 23.3532 40.2047 23.3037 38.4729C23.1718 33.4257 23.0728 28.3621 22.9904 23.315C22.9739 22.6388 23.0234 21.9625 23.1553 21.3028C23.7161 18.4988 25.283 17.1793 28.1199 17.1628C37.9668 17.0803 47.7971 16.9979 57.6439 16.9154C61.52 16.8824 65.4125 16.8989 69.2886 16.9154C70.0473 16.9154 70.8225 16.9649 71.5812 17.0803C75.0284 17.6411 76.0015 18.5153 76.117 21.979C76.2819 27.1086 76.1665 32.2382 76.1665 37.3678C75.9851 37.4337 75.7871 37.5162 75.6057 37.5822C74.4511 36.3616 73.379 35.0091 72.0925 33.937C70.839 32.8814 69.4205 31.9578 67.9361 31.2321C65.9403 30.2589 63.9611 30.6053 62.2787 32.0732C60.184 33.9206 58.1222 35.8173 56.077 37.7141C55.6647 38.11 55.3843 38.6378 55.0379 39.0996C55.0379 38.9182 55.0709 38.7203 55.0874 38.5223ZM59.3428 25.1458C59.3593 22.7377 57.0996 20.4286 54.7245 20.4121C51.9865 20.3956 49.7104 22.5233 49.6609 25.1458C49.6114 27.6364 51.8546 29.8796 54.3946 29.8961C56.9512 29.9125 59.3263 27.6364 59.3428 25.1458Z" fill="#A4EACA"/>
<path d="M62.4439 53.7315C58.7163 53.7315 54.9722 53.7315 51.2445 53.7315C44.4326 53.748 37.6206 53.88 30.8252 53.7645C26.1739 53.6821 23.7988 51.208 23.5844 46.6062C23.5679 46.2268 23.7823 45.732 24.0462 45.4351C27.7408 41.4766 31.419 37.5181 35.196 33.6256C36.2846 32.504 37.5382 31.5143 38.8577 30.6732C41.1173 29.2382 42.8822 29.3372 44.9274 31.069C49.4302 34.8626 53.3723 39.2005 56.7205 44.0497C58.7822 47.0515 60.679 50.1524 62.6583 53.2037C62.5923 53.3852 62.5263 53.5666 62.4439 53.7315ZM37.4557 36.7594C37.9175 36.5779 38.0825 36.5779 38.1484 36.479C38.9731 35.4729 39.7978 34.4832 40.573 33.4276C40.672 33.2957 40.4576 32.7514 40.2597 32.6689C40.0287 32.5699 39.5339 32.6194 39.369 32.8174C38.6268 33.6585 37.901 34.5162 37.2908 35.4564C37.1093 35.7038 37.3732 36.2481 37.4557 36.7594ZM42.4863 35.8522C41.9585 35.4729 41.5462 35.077 41.4637 35.143C40.804 35.6048 40.2102 36.1656 39.5834 36.6934C39.8308 36.9573 40.2267 37.4686 40.2761 37.4356C40.9854 37.0068 41.6286 36.4955 42.4863 35.8522Z" fill="#4DBC85"/>
<path d="M55.7139 40.1062C58.0065 37.9785 60.1672 35.8508 62.4434 33.8715C64.703 31.9252 66.8637 31.7108 69.2058 33.5416C71.4985 35.3395 73.5107 37.5002 75.6384 39.5124C75.7869 39.6444 75.9023 39.9083 75.9023 40.1062C75.8693 43.0421 76.0508 45.9945 75.7209 48.8974C75.391 51.8498 73.4118 53.2353 69.981 53.5322C69.8986 53.5322 69.7996 53.5487 69.7171 53.5322C68.0513 53.5322 66.0885 54.06 64.7855 53.3672C63.5155 52.7075 62.9217 50.7777 62.031 49.4087C61.0249 47.8583 60.0847 46.2749 59.0456 44.741C57.99 43.207 56.8849 41.7391 55.7139 40.1062Z" fill="#4DBC85"/>
<path d="M59.3438 25.1452C59.3273 27.6358 56.9522 29.9119 54.3957 29.8954C51.8556 29.8789 49.6125 27.6358 49.6619 25.1452C49.7114 22.5227 51.9876 20.395 54.7255 20.4115C57.1007 20.428 59.3603 22.7371 59.3438 25.1452ZM54.4287 28.345C56.2925 28.345 57.8594 26.8276 57.8429 25.0627C57.8264 23.5453 56.21 21.8629 54.742 21.8299C52.9772 21.797 51.2124 23.5783 51.2124 25.4256C51.2124 27.0915 52.6143 28.3615 54.4287 28.345Z" fill="#202E5B"/>
<path d="M37.4558 36.7577C37.3733 36.2463 37.1094 35.7021 37.2744 35.4546C37.8846 34.5145 38.6104 33.6568 39.3526 32.8156C39.5175 32.6342 40.0123 32.5682 40.2433 32.6672C40.4412 32.7497 40.6556 33.3104 40.5566 33.4259C39.7979 34.465 38.9567 35.4711 38.132 36.4773C38.0661 36.5762 37.9011 36.5762 37.4558 36.7577Z" fill="#202E5B"/>
<path d="M42.486 35.8506C41.6284 36.4939 40.9851 37.0052 40.2924 37.4341C40.2429 37.467 39.8305 36.9557 39.5996 36.6918C40.2099 36.164 40.8202 35.6032 41.4799 35.1414C41.5459 35.0754 41.9582 35.4713 42.486 35.8506Z" fill="#202E5B"/>
<path d="M54.4282 28.3461C52.6139 28.3461 51.2119 27.0761 51.2119 25.4267C51.2119 23.5959 52.9768 21.798 54.7416 21.831C56.2095 21.864 57.8259 23.5464 57.8424 25.0638C57.8589 26.8286 56.292 28.3461 54.4282 28.3461Z" fill="#FDA931"/>
<path d="M38.099 45.1167C33.1179 45.1167 28.1367 45.1167 23.1556 45.1332C22.3474 45.1332 21.5392 45.1991 20.731 45.3311C17.8941 45.7599 16.3107 47.3433 16.0632 50.1968C15.9313 51.7637 16.0468 53.3471 16.0468 54.9305C16.0632 60.6374 15.9148 66.3442 16.1457 72.0511C16.2942 75.7622 17.1848 78.1703 22.1 78.929C23.5844 79.16 25.0854 79.2259 26.5863 79.2424C34.3384 79.3249 42.107 79.4403 49.8591 79.3909C52.1023 79.3744 54.4114 79.1105 56.5886 78.5662C59.4091 77.8569 60.4977 76.1086 60.5471 73.2057C60.5801 70.8141 60.7121 68.4225 60.6791 66.0474C60.5966 60.9178 60.5636 55.7882 60.2667 50.6751C60.0853 47.5907 58.5349 45.8589 56.1103 45.3806C55.1701 45.1991 54.197 45.1332 53.2404 45.1332C48.2097 45.1002 43.1461 45.1167 38.099 45.1167Z" fill="white"/>
<path d="M38.0992 45.1165C43.1628 45.1165 48.21 45.1 53.2736 45.133C54.2302 45.133 55.2033 45.1989 56.1435 45.3804C58.5681 45.8422 60.1185 47.574 60.2999 50.6749C60.5968 55.788 60.6298 60.9176 60.7123 66.0471C60.7453 68.4387 60.6298 70.8304 60.5803 73.2055C60.5308 76.1249 59.4423 77.8567 56.6218 78.566C54.4446 79.1103 52.1355 79.3742 49.8923 79.3907C42.1402 79.4401 34.3716 79.3247 26.6195 79.2422C25.1186 79.2257 23.6011 79.1432 22.1332 78.9288C17.2015 78.1701 16.3274 75.762 16.1789 72.0509C15.948 66.3605 16.0965 60.6372 16.08 54.9303C16.08 53.3469 15.9645 51.7635 16.0965 50.1966C16.3439 47.3431 17.9108 45.7597 20.7642 45.3144C21.5559 45.1989 22.3806 45.1165 23.1888 45.1165C28.137 45.1 33.1181 45.1165 38.0992 45.1165ZM26.8339 77.5928C34.5531 77.5928 42.2062 77.5928 49.8593 77.5928C49.8593 67.2182 49.8593 57.0085 49.8593 46.8153C42.1567 46.8153 34.5366 46.8153 26.8339 46.8153C26.8339 57.0745 26.8339 67.2017 26.8339 77.5928ZM25.0691 77.7248C25.0691 67.2182 25.0691 57.091 25.0691 46.8483C24.129 46.8483 23.2548 46.8318 22.3806 46.8483C19.3457 46.8813 17.7293 48.2998 17.7293 51.3676C17.7128 58.5754 17.8283 65.7832 17.9438 72.991C17.9767 74.7229 18.752 76.2073 20.4838 76.7681C21.9188 77.2465 23.4527 77.3949 25.0691 77.7248ZM51.6242 77.4444C51.9211 77.4609 52.152 77.4939 52.3829 77.4774C53.3395 77.3619 54.2962 77.2959 55.2363 77.0815C57.7929 76.5207 58.9474 75.2507 58.9474 72.6942C58.9309 65.5193 58.865 58.3445 58.7 51.1862C58.667 49.5533 58.2547 47.6895 56.3579 47.1782C54.857 46.7658 53.2076 46.8813 51.6407 46.7494C51.6242 57.1405 51.6242 67.2677 51.6242 77.4444Z" fill="black"/>
<path d="M26.8345 77.5922C26.8345 67.2011 26.8345 57.0739 26.8345 46.8147C34.5371 46.8147 42.1572 46.8147 49.8599 46.8147C49.8599 57.0244 49.8599 67.2176 49.8599 77.5922C42.2067 77.5922 34.5536 77.5922 26.8345 77.5922ZM31.4527 62.154C31.4692 62.154 31.4857 62.154 31.5022 62.154C31.5022 64.5456 31.4857 66.9372 31.5022 69.3288C31.5187 70.7473 31.7331 70.9122 32.7558 70.3514C33.7454 69.8071 34.7515 69.2793 35.7246 68.702C38.677 66.9372 41.6294 65.1888 44.5653 63.3745C45.522 62.7807 45.522 62.3354 44.6313 61.5932C44.021 61.0819 43.4108 60.5376 42.7345 60.1252C39.2873 58.0305 35.8401 55.9688 32.3929 53.8906C31.6507 53.4452 31.4527 53.907 31.4527 54.7482C31.4527 57.2223 31.4527 59.6799 31.4527 62.154Z" fill="#DD6262"/>
<path d="M25.0694 77.7252C23.4365 77.3953 21.9025 77.2304 20.4841 76.7686C18.7522 76.2078 17.977 74.7233 17.944 72.9915C17.8286 65.7837 17.7131 58.5759 17.7296 51.3681C17.7296 48.3167 19.346 46.8982 22.3809 46.8488C23.255 46.8323 24.1292 46.8488 25.0694 46.8488C25.0694 57.0914 25.0694 67.2186 25.0694 77.7252ZM21.5727 63.1447C21.5727 63.1447 21.5727 63.1612 21.5727 63.1447C21.2263 63.1447 20.8799 63.1447 20.5336 63.1447C19.3295 63.1777 18.9502 63.5405 18.9337 64.7281C18.9337 65.1074 18.8677 65.5693 19.0491 65.8497C19.346 66.295 19.9068 67.0042 20.2367 66.9383C21.4407 66.6908 22.8922 67.598 23.8653 66.229C23.8818 66.196 23.8818 66.163 23.8983 66.1136C24.5251 64.1013 23.8488 63.1282 21.8036 63.1282C21.7211 63.1447 21.6551 63.1447 21.5727 63.1447ZM21.6386 69.9401C21.6386 69.9566 21.6386 69.9731 21.6386 69.9896C21.2923 69.9896 20.9459 69.9731 20.5995 69.9896C19.247 70.0391 18.9007 70.402 18.9502 71.7545C18.9666 72.1008 19.0161 72.4472 19.0821 72.7771C19.2141 73.5193 19.7089 73.8822 20.4016 73.7502C21.5727 73.5523 22.9911 74.41 23.8818 72.9915C23.9643 72.876 23.9478 72.6946 23.9478 72.5462C23.9643 72.0513 23.9643 71.54 23.9478 71.0452C23.9313 70.2865 23.5519 69.9236 22.7932 69.9236C22.4139 69.9401 22.0345 69.9401 21.6386 69.9401ZM21.4407 53.3803C23.8818 53.3803 24.4591 52.7371 23.8818 50.4609C23.7993 50.1145 23.1066 49.6032 22.7767 49.6692C21.5232 49.9001 19.8243 48.795 19.0656 50.5104C18.3069 52.2258 19.2305 53.3968 21.0779 53.3968C21.2098 53.3803 21.3253 53.3803 21.4407 53.3803ZM21.5067 56.4152C21.5067 56.4152 21.5067 56.4317 21.5067 56.4152C21.1273 56.4152 20.7315 56.4482 20.3521 56.4152C19.1481 56.3162 18.9502 57.1244 18.9172 58.0481C18.8677 59.549 19.2141 60.1263 20.2697 60.1593C21.1603 60.1923 22.051 60.2253 22.9252 60.0768C23.3045 60.0108 23.8158 59.549 23.8983 59.1861C24.4261 57.009 23.9313 56.4152 21.7376 56.4152C21.6551 56.4152 21.5892 56.4152 21.5067 56.4152Z" fill="#DD6262"/>
<path d="M51.624 77.4448C51.624 67.2681 51.624 57.1409 51.624 46.7498C53.1909 46.8652 54.8403 46.7663 56.3413 47.1786C58.2381 47.6899 58.6339 49.5537 58.6834 51.1866C58.8483 58.3614 58.9143 65.5197 58.9308 72.6946C58.9308 75.2676 57.7762 76.5376 55.2197 77.0819C54.2795 77.2798 53.3229 77.3623 52.3662 77.4778C52.1683 77.4943 51.9374 77.4613 51.624 77.4448ZM55.4341 69.9896C54.9393 69.9896 54.4115 69.9071 53.9332 70.0226C53.5373 70.1215 53.026 70.3689 52.8611 70.7153C52.0364 72.3647 52.993 73.7996 54.8238 73.7832C55.2032 73.7832 55.599 73.7832 55.9784 73.7832C57.3969 73.7667 57.7432 73.4368 57.7762 72.0183C57.8257 70.072 57.6113 69.8906 55.4341 69.9896ZM55.3846 63.1611C52.9105 63.1776 52.4817 63.59 52.7456 65.6517C52.8446 66.4434 53.2569 67.1031 54.0321 66.9547C55.2527 66.7073 56.7701 67.7299 57.6773 66.13C57.6938 66.097 57.7102 66.064 57.7102 66.0146C58.2875 63.9858 57.6773 63.1446 55.599 63.1446C55.5331 63.1611 55.4506 63.1611 55.3846 63.1611ZM55.2527 53.3803C55.6815 53.3803 56.1433 53.4957 56.5062 53.3473C56.9515 53.1659 57.5453 52.836 57.6443 52.4566C57.8257 51.7804 57.7432 51.0052 57.6278 50.2959C57.5783 50.032 57.133 49.6527 56.8526 49.6362C55.8135 49.5702 54.7743 49.6032 53.7352 49.6692C53.4713 49.6857 53.0095 49.9166 52.993 50.0815C52.894 50.9392 52.7951 51.8299 52.9435 52.6545C53.092 53.4792 53.9167 53.3803 54.5599 53.3638C54.7908 53.3803 55.0218 53.3803 55.2527 53.3803ZM55.3021 60.1263C55.566 60.1263 55.8464 60.1263 56.1103 60.1263C57.4134 60.1592 57.7432 59.8624 57.7762 58.5428C57.7927 58.2295 57.7762 57.9326 57.7762 57.6192C57.7432 56.7285 57.3309 56.2997 56.3907 56.3822C55.5496 56.4481 54.6754 56.3162 53.8672 56.4646C53.4548 56.5471 52.894 56.9924 52.7786 57.3883C52.2508 59.3181 52.9765 60.1757 54.9558 60.1263C55.0712 60.1263 55.1867 60.1263 55.3021 60.1263Z" fill="#DD6262"/>
<path d="M31.4521 62.1548C31.4521 59.6807 31.4521 57.2232 31.4521 54.7491C31.4521 53.9244 31.6501 53.4461 32.4253 53.8914C35.988 55.9696 39.5506 58.0314 43.0968 60.1261C43.773 60.5384 44.4163 61.0662 45.0431 61.594C45.9667 62.3362 45.9667 62.7816 44.9771 63.3754C41.9587 65.1897 38.9074 66.9545 35.856 68.7029C34.8499 69.2801 33.8108 69.808 32.8046 70.3522C31.749 70.913 31.5181 70.7646 31.5016 69.3296C31.4851 66.938 31.5016 64.5464 31.5016 62.1548C31.4851 62.1548 31.4686 62.1548 31.4521 62.1548ZM32.5737 55.2769C32.5737 59.9776 32.5737 64.431 32.5737 69.1647C36.5652 66.938 40.3588 64.8103 44.1524 62.6991C44.1524 62.5177 44.1524 62.3362 44.1524 62.1548C40.3258 59.8622 36.4828 57.586 32.5737 55.2769Z" fill="black"/>
<path d="M21.5718 63.1439C21.6543 63.1439 21.7203 63.1439 21.8027 63.1439C23.848 63.1439 24.5407 64.1171 23.8974 66.1293C23.881 66.1623 23.881 66.2118 23.8645 66.2448C22.8913 67.6138 21.4399 66.7066 20.2358 66.954C19.9224 67.02 19.3616 66.3107 19.0483 65.8654C18.8668 65.585 18.9163 65.1232 18.9328 64.7438C18.9493 63.5563 19.3451 63.1934 20.5327 63.1604C20.8791 63.1439 21.2254 63.1604 21.5718 63.1439C21.5718 63.1604 21.5718 63.1439 21.5718 63.1439ZM22.6769 65.6345C22.6769 65.2221 22.6769 64.8758 22.6769 64.5129C21.8522 64.5129 21.11 64.5129 20.3183 64.5129C20.3183 64.9253 20.3183 65.2551 20.3183 65.6345C21.1265 65.6345 21.8687 65.6345 22.6769 65.6345Z" fill="black"/>
<path d="M21.6388 69.9389C22.0182 69.9389 22.414 69.9389 22.7934 69.9389C23.5521 69.9224 23.9314 70.3017 23.9479 71.0604C23.9479 71.5553 23.9479 72.0666 23.9479 72.5614C23.9479 72.7098 23.9479 72.8913 23.882 73.0067C22.9913 74.4252 21.5728 73.551 20.4018 73.7654C19.709 73.8809 19.2142 73.5345 19.0823 72.7923C19.0328 72.4459 18.9668 72.1161 18.9503 71.7697C18.9008 70.4172 19.2472 70.0708 20.5997 70.0048C20.9461 69.9884 21.2924 70.0048 21.6388 70.0048C21.6388 69.9719 21.6388 69.9554 21.6388 69.9389ZM22.6779 71.2914C21.8202 71.2914 21.078 71.2914 20.3028 71.2914C20.3028 71.6872 20.3028 72.0171 20.3028 72.38C21.111 72.38 21.8532 72.38 22.6779 72.38C22.6779 72.0171 22.6779 71.6872 22.6779 71.2914Z" fill="black"/>
<path d="M21.4401 53.3806C21.3247 53.3806 21.2092 53.3806 21.0937 53.3806C19.2464 53.3971 18.3228 52.2095 19.0815 50.4941C19.8402 48.7788 21.5391 49.9004 22.7926 49.653C23.106 49.587 23.8152 50.0983 23.8977 50.4447C24.4585 52.7373 23.8812 53.3641 21.4401 53.3806ZM22.6936 50.923C21.8195 50.923 21.0772 50.923 20.2526 50.923C20.269 51.3353 20.2855 51.6652 20.302 52.0281C21.1267 52.0281 21.8854 52.0281 22.6936 52.0281C22.6936 51.6322 22.6936 51.3023 22.6936 50.923Z" fill="black"/>
<path d="M21.5057 56.4144C21.5882 56.4144 21.6542 56.4144 21.7366 56.4144C23.9303 56.4144 24.4251 57.0081 23.8973 59.1853C23.8149 59.5482 23.2871 60.01 22.9242 60.076C22.0665 60.2244 21.1594 60.2079 20.2687 60.1585C19.2296 60.109 18.8832 59.5482 18.9162 58.0473C18.9492 57.1236 19.1306 56.3319 20.3512 56.4144C20.7305 56.4474 21.1264 56.4309 21.5057 56.4144C21.5057 56.4309 21.5057 56.4144 21.5057 56.4144ZM20.3017 58.7565C20.4831 58.806 20.6315 58.8719 20.78 58.8884C21.2418 58.9214 21.7036 58.9709 22.149 58.9379C22.3304 58.9214 22.6273 58.773 22.6603 58.6245C22.7263 58.3441 22.6768 57.7833 22.6273 57.7833C21.8686 57.7009 21.1099 57.6844 20.3017 57.6349C20.3017 58.1462 20.3017 58.4431 20.3017 58.7565Z" fill="black"/>
<path d="M55.4342 69.9893C57.6114 69.8903 57.8093 70.0718 57.7763 71.985C57.7433 73.4035 57.3969 73.7499 55.9785 73.7499C55.5991 73.7499 55.2033 73.7499 54.8239 73.7499C52.9931 73.7664 52.0529 72.3479 52.8611 70.682C53.0261 70.3522 53.5374 70.1047 53.9332 69.9893C54.4116 69.9068 54.9394 69.9893 55.4342 69.9893ZM54.0322 71.2593C54.0817 71.7211 54.1147 72.0345 54.1477 72.3644C54.9559 72.3644 55.6651 72.3644 56.4733 72.3644C56.4403 71.9356 56.4073 71.5727 56.3908 71.2593C55.5661 71.2593 54.8734 71.2593 54.0322 71.2593Z" fill="black"/>
<path d="M55.3845 63.1617C55.4669 63.1617 55.5329 63.1617 55.6154 63.1617C57.6771 63.1617 58.3039 64.0029 57.7266 66.0317C57.7101 66.0647 57.7101 66.1141 57.6936 66.1471C56.7865 67.7305 55.269 66.7244 54.0485 66.9718C53.2568 67.1203 52.8609 66.4605 52.762 65.6688C52.4816 63.5741 52.9104 63.1617 55.3845 63.1617ZM56.3906 64.4977C55.5494 64.4977 54.8402 64.4977 54.098 64.4977C54.098 64.9266 54.098 65.24 54.098 65.6193C54.8897 65.6193 55.6319 65.6193 56.3906 65.6193C56.3906 65.24 56.3906 64.8936 56.3906 64.4977Z" fill="black"/>
<path d="M55.252 53.3811C55.0211 53.3811 54.7902 53.3811 54.5593 53.3811C53.8995 53.3976 53.0913 53.4966 52.9429 52.6719C52.7944 51.8307 52.8934 50.94 52.9924 50.0988C53.0089 49.9339 53.4707 49.703 53.7346 49.6865C54.7737 49.6205 55.8128 49.5875 56.8519 49.6535C57.1323 49.67 57.5777 50.0494 57.6271 50.3133C57.7426 51.0225 57.8251 51.7977 57.6436 52.474C57.5447 52.8533 56.9509 53.1832 56.5056 53.3646C56.1592 53.4966 55.6809 53.3811 55.252 53.3811ZM54.1139 50.8906C54.1139 51.3029 54.1139 51.6328 54.1139 52.0451C54.9057 52.0451 55.6314 52.0451 56.4066 52.0451C56.4066 51.6163 56.4066 51.2864 56.4066 50.8906C55.6644 50.8906 54.9551 50.8906 54.1139 50.8906Z" fill="black"/>
<path d="M55.302 60.127C55.1866 60.127 55.0711 60.127 54.9557 60.127C52.9764 60.1765 52.2507 59.3188 52.7785 57.3891C52.8775 56.9932 53.4382 56.5479 53.8671 56.4654C54.6918 56.317 55.5495 56.4489 56.3906 56.3829C57.3308 56.3005 57.7431 56.7293 57.7761 57.62C57.7926 57.9333 57.7926 58.2302 57.7761 58.5436C57.7266 59.8631 57.4133 60.16 56.1102 60.127C55.8463 60.127 55.5659 60.127 55.302 60.127ZM54.1145 59.0549C54.9887 58.89 55.6979 58.791 56.3906 58.6096C56.4401 58.5931 56.4071 57.8014 56.3412 57.7849C55.6154 57.6694 54.8897 57.6365 54.1145 57.587C54.1145 58.1148 54.1145 58.4447 54.1145 59.0549Z" fill="black"/>
<path d="M32.5728 55.2771C36.4653 57.5862 40.3084 59.8624 44.1679 62.1385C44.1679 62.32 44.1679 62.5014 44.1679 62.6828C40.3743 64.794 36.5808 66.9217 32.5892 69.1484C32.5728 64.4312 32.5728 59.9778 32.5728 55.2771Z" fill="white"/>
<path d="M22.677 65.6342C21.8688 65.6342 21.1266 65.6342 20.3184 65.6342C20.3184 65.2383 20.3184 64.9249 20.3184 64.5126C21.1101 64.5126 21.8523 64.5126 22.677 64.5126C22.677 64.8589 22.677 65.2218 22.677 65.6342Z" fill="white"/>
<path d="M22.6774 71.2911C22.6774 71.687 22.6774 72.0169 22.6774 72.3797C21.8527 72.3797 21.1104 72.3797 20.3022 72.3797C20.3022 72.0004 20.3022 71.687 20.3022 71.2911C21.0775 71.2911 21.8197 71.2911 22.6774 71.2911Z" fill="white"/>
<path d="M22.694 50.9219C22.694 51.3012 22.694 51.6311 22.694 52.027C21.8858 52.027 21.1436 52.027 20.3024 52.027C20.2859 51.6641 20.2694 51.3342 20.2529 50.9219C21.0776 50.9219 21.8198 50.9219 22.694 50.9219Z" fill="white"/>
<path d="M20.3022 58.7584C20.3022 58.445 20.3022 58.1481 20.3022 57.6533C21.1104 57.6863 21.8692 57.7028 22.6279 57.8018C22.6774 57.8018 22.7268 58.3626 22.6609 58.643C22.6279 58.7914 22.331 58.9398 22.1496 58.9563C21.6877 58.9893 21.2259 58.9398 20.7806 58.9069C20.6321 58.8739 20.4837 58.8079 20.3022 58.7584Z" fill="white"/>
<path d="M54.0317 71.259C54.8729 71.259 55.5657 71.259 56.3904 71.259C56.4068 71.5889 56.4398 71.9353 56.4728 72.3641C55.6646 72.3641 54.9554 72.3641 54.1472 72.3641C54.1142 72.0507 54.0812 71.7209 54.0317 71.259Z" fill="white"/>
<path d="M56.3903 64.4968C56.3903 64.8927 56.3903 65.2226 56.3903 65.6184C55.6316 65.6184 54.8894 65.6184 54.0977 65.6184C54.0977 65.239 54.0977 64.9092 54.0977 64.4968C54.8564 64.4968 55.5491 64.4968 56.3903 64.4968Z" fill="white"/>
<path d="M54.1147 50.889C54.9394 50.889 55.6652 50.889 56.4074 50.889C56.4074 51.2849 56.4074 51.6148 56.4074 52.0436C55.6322 52.0436 54.9065 52.0436 54.1147 52.0436C54.1147 51.6148 54.1147 51.3014 54.1147 50.889Z" fill="white"/>
<path d="M54.1147 59.0549C54.1147 58.4446 54.1147 58.1147 54.1147 57.5869C54.8735 57.6364 55.6157 57.6694 56.3414 57.7848C56.4074 57.8013 56.4569 58.593 56.3909 58.6095C55.6982 58.791 54.9889 58.9064 54.1147 59.0549Z" fill="white"/>
<path fill-rule="evenodd" clip-rule="evenodd" d="M84.1004 50.658C84.6776 61.5604 84.3148 72.3144 84.2983 83.2168C82.9458 83.3652 81.6923 83.5302 80.4387 83.6621C79.1687 83.7941 77.8987 83.9095 76.6286 84.025C75.7215 84.1075 74.8143 84.1734 73.8907 84.2229C71.3836 84.3549 68.8765 84.5363 66.3695 84.6023C64.6706 84.6518 62.9882 84.5198 61.2894 84.5198C60.3822 84.5198 59.4751 84.6023 58.5514 84.6353C58.4195 84.6353 58.2875 84.6847 58.1556 84.6683C54.8898 84.4208 51.6405 85.0311 48.3912 84.9981C48.0778 84.9981 47.7479 84.9981 47.3686 84.9981C47.0717 74.3266 46.2635 63.7706 46.9562 53.099C47.9789 53.0001 48.9025 52.9011 49.8427 52.8022C51.9539 52.6042 54.0651 52.4393 56.1598 52.2249C59.607 51.862 63.0377 51.4991 66.5014 51.5981C67.3426 51.6146 68.1838 51.3672 69.025 51.4002C69.7837 51.4332 70.4929 51.3507 71.2352 51.1693C71.73 51.0538 72.2578 51.1858 72.7691 51.1693C73.1814 51.1528 73.6103 51.1033 74.0226 51.0538C74.468 51.0043 74.9298 50.8394 75.3751 50.8889C76.975 51.0538 78.5584 50.8889 80.1583 50.6745C80.3727 50.6415 80.6037 50.7239 80.8346 50.7239C81.4778 50.7074 82.1376 50.6745 82.7808 50.658C83.2262 50.658 83.6715 50.658 84.1004 50.658Z" fill="#202E5B"/>
<path fill-rule="evenodd" clip-rule="evenodd" d="M81.9398 52.6534C82.4511 62.2858 82.1377 71.8028 82.1048 81.4517C80.9007 81.5836 79.7956 81.7156 78.6905 81.831C77.569 81.9465 76.4474 82.0454 75.3258 82.1444C74.5176 82.2104 73.7094 82.2763 72.9177 82.3258C70.7075 82.4413 68.4808 82.6062 66.2707 82.6557C64.7697 82.7052 63.2688 82.5897 61.7844 82.5732C60.9762 82.5732 60.168 82.6392 59.3763 82.6887C59.2608 82.6887 59.1453 82.7217 59.0299 82.7217C56.1435 82.5073 53.2735 83.0351 50.3871 83.0186C50.1067 83.0186 49.8263 83.0186 49.48 83.0186C49.216 73.5841 48.5068 64.2486 49.1171 54.8306C50.0242 54.7316 50.8489 54.6492 51.6736 54.5667C53.5374 54.3853 55.4012 54.2368 57.265 54.0554C60.2999 53.742 63.3513 53.4121 66.4026 53.4946C67.1448 53.5111 67.8871 53.2802 68.6293 53.3297C69.3055 53.3627 69.9323 53.2802 70.5921 53.1317C71.0374 53.0328 71.4992 53.1482 71.9446 53.1317C72.3074 53.1152 72.6868 53.0658 73.0496 53.0328C73.4455 52.9833 73.8578 52.8513 74.2537 52.8843C75.6722 53.0163 77.0741 52.8843 78.4761 52.7029C78.674 52.6699 78.872 52.7524 79.0699 52.7359C79.6472 52.7194 80.208 52.6864 80.7852 52.6699C81.1811 52.6369 81.577 52.6534 81.9398 52.6534Z" fill="#FFBD58"/>
<path fill-rule="evenodd" clip-rule="evenodd" d="M74.4347 72.0191C74.1873 68.9677 73.9728 66.1308 73.7419 63.2114C69.9813 63.2608 66.4352 63.2443 62.8065 63.7722C62.922 65.2896 63.0539 66.6586 63.1034 68.0276C63.1859 70.3697 63.2024 72.7283 63.2354 75.0704C63.2519 75.7797 62.889 76.159 62.1962 76.4724C60.4314 77.2641 58.6501 77.1816 56.8687 76.7198C56.242 76.5549 55.6317 76.093 55.1369 75.6477C53.7679 74.4107 54.0813 72.8273 55.8461 72.1675C57.2316 71.6397 58.6831 71.8211 60.1015 72.085C60.6128 72.184 61.1077 72.4149 61.8004 72.6623C61.9818 71.4253 61.9818 70.2377 61.9159 69.0502C61.7509 66.1143 61.5695 63.1949 61.421 60.259C61.3551 58.824 61.52 58.7085 62.9385 58.791C65.8909 58.9889 68.7938 58.5436 71.6967 58.0653C72.5874 57.9168 73.478 57.8179 74.5501 57.6694C74.6161 58.4446 74.6986 59.1044 74.7316 59.7641C74.979 64.4979 75.1109 69.2481 76.0181 73.9159C76.3315 75.5323 75.6387 76.1755 74.3522 76.4064C73.3131 76.6044 72.241 76.9012 71.2019 76.8848C69.8659 76.8683 68.5629 76.6208 68.0186 75.0045C67.4578 73.3221 68.233 71.8211 69.9978 71.6232C71.1524 71.4913 72.34 71.3428 73.478 71.8211C73.6924 71.9366 73.9728 71.9366 74.4347 72.0191ZM62.8725 62.1228C66.5506 61.9578 70.0473 61.8094 73.643 61.6444C73.577 60.7538 73.544 60.0445 73.4945 59.3518C69.7999 59.7477 66.3197 60.127 62.724 60.5229C62.757 60.9847 62.8065 61.496 62.8725 62.1228Z" fill="#202E5B"/>
<path fill-rule="evenodd" clip-rule="evenodd" d="M53.8347 54.3696C53.109 54.4356 52.3832 54.5016 51.6575 54.5676C50.8328 54.65 50.0081 54.7325 49.101 54.8315C48.4907 64.2494 49.1999 73.5849 49.4638 83.0194C49.7937 83.0194 50.0906 83.0194 50.371 83.0194C51.6575 83.0359 52.944 82.9205 54.2306 82.838C53.9831 73.321 53.6038 63.8701 53.8347 54.3696Z" fill="#FFD595"/>
</svg>
