<svg width="100" height="100" viewBox="0 0 100 100" fill="none" xmlns="http://www.w3.org/2000/svg">
<path d="M49.8516 97.7031C76.2793 97.7031 97.7031 76.2793 97.7031 49.8516C97.7031 23.4239 76.2793 2 49.8516 2C23.4239 2 2 23.4239 2 49.8516C2 76.2793 23.4239 97.7031 49.8516 97.7031Z" fill="#F1C14C"/>
<mask id="mask0_2226_7045" style="mask-type:alpha" maskUnits="userSpaceOnUse" x="5" y="5" width="90" height="90">
<circle cx="50" cy="50" r="45" fill="#D9D9D9"/>
</mask>
<g mask="url(#mask0_2226_7045)">
<path fill-rule="evenodd" clip-rule="evenodd" d="M54.1823 33.167C54.5359 33.2397 54.8208 33.2878 55.1095 33.3683C55.7881 33.55 56.2948 32.9805 56.2719 32.3757C56.2734 32.1127 56.1777 31.8614 56.1468 31.6024C56.0796 31.3148 56.0124 31.0272 55.9595 30.7216C55.9518 30.6568 55.9765 30.5882 56.0115 30.469C56.316 30.2685 56.6553 30.3594 56.9479 30.4722C57.8077 30.7966 58.7078 30.7712 59.6014 30.8288C59.9148 30.8406 60.1623 30.7126 60.3981 30.4873C61.2236 29.6991 61.4793 28.8147 60.927 27.764C60.8429 27.6098 60.8197 27.4155 60.7383 27.1461C60.9468 27.1048 61.1049 27.0531 61.2706 27.0661C62.0879 27.0343 62.9051 27.0024 63.7171 27.2011C64.1211 27.2842 65.5447 26.9665 65.9929 26.7324C66.4697 26.462 66.6331 26.1798 66.535 25.6331C66.4898 25.3922 66.376 25.1266 66.2842 24.9077C66.2105 24.703 66.1044 24.5022 65.9725 24.2224C66.4374 24.2654 66.8091 24.3524 67.1614 24.2775C68.3518 24.0698 69.5484 24.1897 70.7245 24C71.4006 23.8865 72.0405 23.7444 72.6133 23.3148C73.0966 22.9615 73.1874 22.6222 72.9379 22.0445C72.8279 21.8113 72.6856 21.5819 72.5136 21.2412C72.7803 21.275 72.9565 21.2376 73.1119 21.3012C73.5961 21.5061 74.0804 21.711 74.5504 21.9341C75.5409 22.3906 76.4886 22.9015 77.6127 22.9644C78.009 22.9828 78.3275 23.1746 78.5501 23.5258C78.7105 23.7693 78.9033 24.0091 79.0638 24.2527C79.3924 24.8046 79.6886 25.3604 80.0458 25.8761C80.8001 26.9684 81.0623 28.2015 81.0511 29.4837C81.0515 30.863 81.0196 32.2462 80.6198 33.5748C80.4096 34.2896 80.1488 34.994 79.8699 35.6841C79.6442 36.2694 79.3498 36.83 79.0736 37.4048C78.9426 37.6832 78.7573 37.9188 78.5862 38.1363C77.3665 39.612 76.2193 41.1447 74.9233 42.531C73.6701 43.8629 72.246 45.0017 70.5308 45.7648C69.3609 46.2821 68.1756 46.6699 66.8946 46.8064C66.5527 46.8308 66.2366 46.9342 65.8985 46.9909C65.4957 47.0554 65.0786 47.1381 64.6681 47.1378C63.5115 47.0788 62.3654 46.9693 61.2193 46.8598C60.4552 46.7868 59.804 46.4211 59.1385 46.0736C58.4186 45.6833 57.6521 45.315 57.0036 44.8341C56.1194 44.1678 55.199 43.4731 54.6077 42.5091C54.0786 41.6527 53.5779 40.76 53.0954 39.8816C52.7991 39.3258 52.6687 38.783 53.2117 38.242C53.6795 37.7592 53.768 37.1247 53.7555 36.4693C53.7224 35.5044 53.6712 34.5252 54.0021 33.5826C54.0228 33.4816 54.076 33.3767 54.1823 33.167ZM62.2159 39.6633C62.48 39.8124 62.7507 39.8786 62.9034 40.0574C63.456 40.6976 64.1862 41.0374 64.9735 41.3047C66.306 41.7368 67.6684 41.8698 69.0619 41.8512C70.4555 41.8327 71.6266 41.463 72.4342 40.25C72.6014 40.0001 72.823 39.793 72.9721 39.5289C73.2133 39.0732 73.5012 38.5954 73.5727 38.0943C73.6793 37.474 73.602 36.8263 73.5428 36.193C73.4051 34.7643 72.9009 33.4287 72.5404 32.0595C72.2393 30.9132 71.2203 30.4929 70.1916 31.0919C69.593 31.4425 69.0061 31.8902 68.4476 32.3017C67.4952 32.9902 66.728 33.8535 65.8662 34.6132C64.5431 35.7728 63.5968 37.1995 62.5598 38.5549C62.3641 38.841 62.1398 39.1633 62.2159 39.6633ZM59.223 35.2255C59.614 35.4745 59.9001 35.6702 60.2329 35.844C60.4426 35.9503 60.655 35.9414 60.8481 35.7705C61.0231 35.5854 61.0673 35.2681 60.9107 35.0569C60.7036 34.8353 60.4823 34.6319 60.2648 34.4608C59.2137 33.6338 58.987 33.6609 58.2106 34.7224C57.5054 35.6933 58.029 37.1908 59.2307 37.4907C59.3822 37.5219 59.6154 37.412 59.7009 37.3032C59.7865 37.1945 59.7879 36.9316 59.722 36.7917C59.634 36.6051 59.4347 36.4483 59.3001 36.2837C59.0166 35.9727 58.9495 35.6851 59.223 35.2255ZM67.7707 27.4562C68.4388 27.6884 68.4751 27.717 68.8168 28.1031C68.9514 28.2677 69.0756 28.4828 69.2529 28.593C69.394 28.6746 69.6427 28.6942 69.7645 28.614C69.9044 28.548 70.0107 28.3383 70.0238 28.1725C70.0318 27.8267 69.8779 27.5003 69.606 27.2864C69.2941 27.0116 68.9679 26.755 68.617 26.567C67.9295 26.1728 67.046 26.4753 66.7606 27.2483C66.5349 27.8336 66.5397 28.4242 66.7569 29.0058C66.9004 29.3828 67.1904 29.6109 67.5906 29.6617C67.8574 29.6955 68.1179 29.4017 68.0079 29.1685C67.9381 28.9962 67.8216 28.8459 67.7194 28.6775C67.493 28.294 67.4971 27.9158 67.7707 27.4562Z" fill="white"/>
<path fill-rule="evenodd" clip-rule="evenodd" d="M77.5485 20.6562C77.2919 20.9824 77.078 21.2543 76.8499 21.5442C76.3241 21.5413 75.8359 21.304 75.3698 21.1133C74.3327 20.6788 73.3137 20.2585 72.1429 20.2176C71.7971 20.2096 71.4709 19.953 71.1096 19.8155C70.8856 19.7273 70.6435 19.6248 70.369 19.5262C70.195 20.2695 70.7452 20.6144 70.9974 21.0769C71.2316 21.5252 71.5914 21.9256 71.9123 22.4128C71.7334 22.5655 71.5766 22.7648 71.3862 22.8204C70.9587 22.9535 70.5273 23.0543 70.074 23.1084C68.815 23.2915 67.5483 23.4099 66.2714 23.1682C65.9865 23.1201 65.6912 23.1225 65.4102 23.1067C64.7157 23.6166 64.5871 24.1903 64.9856 24.9145C65.0696 25.0687 65.111 25.2772 65.1484 25.4534C65.1561 25.5181 65.1315 25.5868 65.1146 25.7201C64.6223 25.861 64.1016 26.0381 63.5214 25.9924C62.5954 25.9387 61.6628 25.9679 60.7303 25.9971C60.0283 26.0317 59.199 26.7875 59.5805 27.6451C59.7163 27.9573 59.7731 28.2954 59.8441 28.6153C59.9345 29.0972 59.6389 29.5102 59.1532 29.5681C58.7827 29.6288 58.4084 29.657 58.0406 29.6024C57.103 29.4516 56.1577 29.236 55.202 29.0709C54.6356 29.8282 54.6225 29.994 54.9346 32.0586C54.7169 32.2981 54.4528 32.149 54.2184 32.1113C53.7858 32.0644 53.4594 32.2183 53.2895 32.5834C52.8888 33.3538 52.5529 34.1164 52.6611 35.0231C52.7604 35.7173 52.7301 36.427 52.7141 37.1186C52.7062 37.4644 52.456 37.7078 52.0687 37.9018C51.8046 37.7527 51.5081 37.6074 51.2362 37.3936C51.0912 37.2795 50.989 37.1111 50.9192 36.9388C49.9327 34.3142 49.6962 31.3702 50.264 28.5601C50.4264 27.7196 50.6536 26.8715 50.9532 26.0803C51.1894 25.4446 51.5523 24.9086 52.3399 24.7653C52.8541 24.6711 52.9851 24.3927 52.9375 23.8565C52.9336 23.8241 52.9298 23.7918 52.9078 23.7451C52.5292 22.3617 52.8033 21.0809 53.3765 19.8302C53.6242 19.2916 53.8357 18.7244 54.1702 18.2247C54.7069 17.356 55.4507 16.7089 56.3978 16.251C57.4381 15.7492 58.3943 15.0931 59.5187 14.7455C61.103 14.2608 62.673 13.7942 64.3488 13.939C64.5975 13.9586 64.8746 13.942 65.1337 13.9111C66.4134 13.6269 67.6398 13.8582 68.8739 14.1543C70.4654 14.5555 71.9012 15.3037 73.2476 16.1283C74.3986 16.8284 75.4393 17.7058 76.4334 18.6053C77.0858 19.1186 77.2939 19.8984 77.5485 20.6562Z" fill="#FFB345"/>
<path fill-rule="evenodd" clip-rule="evenodd" d="M85.088 55.1941C84.5202 54.0139 83.592 53.2543 82.8103 52.346C82.105 51.527 81.3712 50.7442 80.6192 49.9473C80.1649 49.4432 79.6821 48.9753 79.2317 48.5036C78.2545 47.4707 77.4095 46.3072 76.2859 45.4232C75.7603 45.0097 75.5431 44.428 75.3039 43.7997C76.1128 42.7344 77.0704 41.8154 78.0061 40.8498C78.3133 40.534 78.6166 40.1858 78.8694 39.8272C79.5564 38.842 80.1929 37.8465 80.8865 36.7784C83.1242 37.3652 85.4551 37.9081 87.7016 38.7073C89.9158 39.5104 92.1858 40.0933 94.3014 41.1709C94.1066 42.0153 93.8898 42.8129 93.7054 43.6067C93.6742 43.7582 93.5926 43.8994 93.5938 44.047C93.6916 45.0042 93.1575 45.7576 92.7931 46.5565C92.6374 46.9035 92.4961 47.2324 92.3042 47.5509C92.0449 47.9923 91.7894 48.4662 91.4939 48.8792C90.9559 49.6002 90.3818 50.2928 89.8257 50.9995C89.2592 51.7568 88.6527 52.4532 87.8791 52.989C87.6355 53.1494 87.4359 53.4031 87.2325 53.6245C86.6829 54.2484 86.0285 54.8191 85.088 55.1941Z" fill="#50DAFF"/>
<path fill-rule="evenodd" clip-rule="evenodd" d="M91.8322 60.2657C91.1459 60.0192 90.8898 59.5243 90.609 59.098C89.7706 57.8516 88.8608 56.6957 87.7684 55.6602C87.6376 55.528 87.5536 55.3738 87.4332 55.1911C87.7831 54.821 88.0826 54.4404 88.4583 54.1492C89.0492 53.7338 89.4731 53.1578 89.9151 52.596C90.1004 52.3604 90.2676 52.1105 90.4711 51.8892C92.0057 50.1624 93.2075 48.2619 94.0144 46.0801C94.1377 45.737 94.3619 45.4146 94.5176 45.0676C94.7472 44.5147 94.9586 43.9476 95.174 43.4128C95.2479 43.2069 95.34 43.0153 95.4425 42.7732C95.6911 42.7928 95.9216 42.7981 96.1237 42.8397C97.17 43.0761 98.1851 43.4639 99.1964 43.8194C100.07 44.1257 100.382 44.811 100.54 45.5804C100.717 46.5117 100.526 47.3884 99.9888 48.2571C99.5338 48.9847 99.115 49.7408 98.5512 50.3828C98.4656 50.4916 98.3296 50.5899 98.1974 50.7206C97.6534 50.7035 97.1018 50.6215 96.5474 50.6548C95.9749 50.6739 95.4426 50.7539 94.8832 50.6072C94.5258 50.502 94.2317 50.6521 94.0074 50.9744C93.8117 51.2605 93.594 51.5 93.4163 51.8004C93.1285 52.2781 93.1529 52.62 93.5127 53.0204C93.9708 53.5569 94.4756 54.0714 94.948 54.5898C95.0244 54.6792 95.115 54.7505 95.1732 54.8256C96.0571 55.9024 96.0479 56.1006 95.1963 57.2204C94.569 58.0178 93.9559 58.7971 93.0308 59.3016C92.6149 59.5319 92.2508 59.9202 91.8322 60.2657Z" fill="#6ECCD4"/>
<path fill-rule="evenodd" clip-rule="evenodd" d="M81.3521 26.7861C81.2241 26.5386 81.1438 26.4169 81.096 26.2912C80.6744 25.3727 80.2851 24.4503 79.8492 23.5499C79.5271 22.9151 79.284 22.2544 79.256 21.4695C79.5269 21.1252 79.8121 20.7627 80.1115 20.3821C80.5354 19.8061 81.126 19.8013 81.732 19.926C82.3562 20.0649 82.8235 20.4033 82.998 21.0393C83.4568 22.5445 83.2021 23.9872 82.4241 25.3116C82.1544 25.8036 81.8666 26.2813 81.3521 26.7861Z" fill="white"/>
<path fill-rule="evenodd" clip-rule="evenodd" d="M53.9257 44.0857C51.9799 44.8435 50.4339 44.2726 49.0658 42.9909C48.4561 42.4232 48.4931 41.22 49.0854 40.5418C49.5922 39.9722 50.161 39.5102 51.0158 39.6545C51.232 39.678 51.4587 39.6509 51.6568 39.6601C52.389 41.1163 53.1354 42.5544 53.9257 44.0857Z" fill="white"/>
<path fill-rule="evenodd" clip-rule="evenodd" d="M63.3394 39.4642C63.9097 38.7393 64.3659 38.1594 64.8222 37.5794C66.2091 35.8539 67.8212 34.3642 69.5058 32.9315C69.9813 32.5135 70.4789 32.1421 71.1797 31.9599C71.3078 32.2074 71.4281 32.3901 71.4837 32.5805C71.8896 33.7801 72.2812 34.9978 72.353 36.2865C72.3824 36.8084 72.3614 37.32 72.3585 37.8458C72.3519 37.9287 72.3597 37.9935 72.335 38.0621C71.9935 39.4658 70.5008 40.58 69.0282 40.6244C67.9299 40.6405 66.8666 40.5375 65.8022 40.2869C65.0265 40.1168 64.2639 39.7808 63.3394 39.4642Z" fill="white"/>
<path fill-rule="evenodd" clip-rule="evenodd" d="M58.3823 39.7594C56.9367 40.0304 56.507 41.6582 56.852 42.8978C57.2449 44.2632 58.5328 45.4231 60.0134 45.0329C61.415 44.6686 62.0259 43.1834 61.5437 41.8945C61.47 41.6898 61.3277 41.4605 61.1426 41.2855C61.1426 41.2855 61.1426 41.2855 61.1244 41.2712C60.6303 40.2957 59.4898 39.5451 58.3823 39.7594Z" fill="white"/>
<path fill-rule="evenodd" clip-rule="evenodd" d="M73.8021 25.1608C73.6298 25.2306 73.4756 25.3147 73.3072 25.4169C72.8046 25.6083 72.3899 25.9862 72.2574 26.5275C71.7673 27.3742 71.6786 28.4193 72.1935 29.2939C73.2415 31.0572 75.831 30.1898 76.6544 28.6957C76.8566 28.3267 76.9294 27.9732 76.905 27.6313C76.9855 27.3425 77.0012 27.0615 76.9845 26.7843C76.8171 25.2443 75.0548 24.65 73.8021 25.1608Z" fill="white"/>
<path fill-rule="evenodd" clip-rule="evenodd" d="M58.7453 53.8067C58.1349 54.4707 57.3783 54.873 56.5595 55.1678C56.0245 55.363 55.851 55.2852 55.3736 54.5868C56.0045 54.2323 56.8256 54.2329 57.3104 53.6167C57.1306 53.2112 56.7628 53.1566 56.4055 53.0514C56.0804 52.9424 55.7593 52.8658 55.4771 52.7024C55.2854 52.6104 55.147 52.4134 55.0124 52.2489C54.9761 52.2203 54.9931 52.087 55.0216 52.0507C55.0786 51.9782 55.2004 51.898 55.2833 51.9045C55.4167 51.9214 55.5721 51.985 55.6951 52.0524C56.0744 52.2042 57.6763 52.5549 58.0364 52.5448C58.1272 52.2055 57.8878 51.9878 57.7416 51.726C57.6536 51.5395 57.6486 51.3595 57.8131 51.2249C57.9777 51.0903 58.1797 51.1319 58.3247 51.2459C58.7338 51.5091 59.1429 51.7723 59.377 52.2205C59.4831 52.4213 59.6358 52.6002 59.7924 52.8114C60.3946 52.9037 61.0241 52.8122 61.6497 52.6882C62.6419 52.4713 63.616 52.24 64.5307 51.786C64.8714 51.614 65.238 51.521 65.5826 51.3813C66.2109 51.1421 66.8573 50.9172 67.4675 50.6637C68.9287 50.1116 70.1274 49.1475 71.4062 48.3051C71.6174 48.1486 71.8105 47.9777 71.9673 47.7784C72.6984 46.8865 73.4255 45.9622 74.1384 45.0561C74.2097 44.9654 74.259 44.8282 74.3757 44.5679C73.934 44.7192 73.7085 44.8939 73.4831 45.0686C72.2663 46.0185 70.8672 46.6781 69.5042 47.3663C68.7295 47.7543 67.8888 48.0024 67.0288 48.0887C66.9135 48.086 66.8021 48.1157 66.7049 48.1273C63.7583 48.479 63.7583 48.479 60.8989 48.0485C59.745 47.8743 58.6366 47.5304 57.641 46.8938C56.7179 46.3143 55.7275 45.8578 55.0183 45.0064C54.1645 45.4203 53.3523 45.6322 52.4742 45.7042C51.596 45.7762 50.7594 45.6461 49.9956 45.1626C49.4635 44.832 48.9133 44.4871 48.4097 44.1203C47.3844 43.3723 47.0399 41.3115 47.9848 40.1478C48.5979 39.3685 49.3483 38.6385 50.5345 38.8089C50.7508 38.8324 50.9774 38.8053 51.1898 38.7964C50.8431 38.2302 50.5222 37.743 50.2156 37.2377C49.9232 36.7143 49.6775 36.1689 49.6364 35.5498C49.6094 35.3231 49.5499 35.1003 49.4762 34.8956C48.6736 32.2984 48.9407 29.7212 49.586 27.1482C49.6665 26.8594 49.747 26.5706 49.8275 26.2819C50.1494 25.1268 50.6407 24.4277 51.6501 23.6668C51.6723 23.3029 51.7451 22.9494 51.7168 22.5751C51.6526 21.7617 51.8409 21.0003 52.1159 20.2777C52.3767 19.5733 52.6012 18.8404 52.9526 18.2073C53.5918 17.0965 54.3035 16.0427 55.5562 15.5319C55.8684 15.3961 56.1625 15.2461 56.4527 15.0636C58.2796 13.8603 60.3535 13.35 62.4351 12.9045C63.5568 12.6721 64.6706 12.7855 65.7908 12.816C66.4177 12.8397 67.0665 12.91 67.6972 12.9661C69.0557 13.0667 70.3442 13.4056 71.6015 13.8959C73.7366 14.7249 75.5192 16.0393 77.2667 17.4728C77.593 17.7294 77.8298 18.0624 78.0057 18.4355C78.2915 19.0419 78.5773 19.6482 78.9033 20.3154C79.0783 20.1303 79.2467 20.0281 79.3426 19.8688C79.8366 19.0545 80.6384 18.8931 81.488 18.8574C82.5825 18.8089 83.5043 19.2407 84.0023 20.2486C84.3283 20.9158 84.5467 21.6452 84.5061 22.4054C84.4183 24.0087 84.0055 25.503 82.9932 26.7898C82.651 27.2247 82.2363 27.6026 81.7723 28.1178C81.7275 29.2562 82.1878 30.4986 81.9785 31.7715C81.7757 32.9617 81.5587 34.1699 81.3416 35.3781C81.6343 35.491 81.7263 35.2994 81.8404 35.1544C82.7995 33.9725 83.9581 32.9475 84.8046 31.6477C84.9965 31.3292 85.2065 31.025 85.3802 30.6922C85.8549 29.716 86.3295 28.7398 86.786 27.7493C87.4021 26.4442 87.7332 25.091 87.5592 23.6338C87.4742 22.9214 87.4721 22.2156 87.4375 21.5136C87.1021 21.4551 86.7887 21.4432 86.5323 21.3589C86.2902 21.2564 86.1051 21.0815 85.9019 20.8922C85.5757 20.6356 85.2637 20.3608 84.9518 20.0861C84.698 19.8864 84.5842 19.6209 84.6103 19.2893C84.6273 19.1559 84.6727 18.9863 84.7802 18.9242C84.8878 18.8621 85.0717 18.8894 85.2089 18.9387C85.3319 19.0061 85.416 19.1603 85.5105 19.264C85.7719 19.5284 86.0762 19.7384 86.3908 19.8979C86.6163 19.7232 86.4855 19.591 86.391 19.4873C86.0972 19.2268 85.8967 18.9223 85.8036 18.5557C85.7739 18.4443 85.8051 18.2928 85.8247 18.0442C86.6054 18.3943 87.1283 18.9231 87.7056 19.4946C88.1491 18.6699 87.7352 17.8161 87.9882 17.047C88.588 16.844 88.9311 16.9673 89.0149 17.532C89.1142 18.2263 89.3288 18.9232 89.0861 19.6418C89.0083 19.8153 88.9991 20.0135 89.0042 20.1935C89.0271 20.7984 88.9089 21.3215 88.2845 21.5931C88.442 22.3625 88.5413 23.0568 88.7054 23.7433C89.0076 25.0374 88.7802 26.2961 88.2963 27.4705C87.6815 28.9232 87.0305 30.3475 86.224 31.7082C85.5952 32.7685 84.8253 33.7471 83.7939 34.4614C83.6436 34.5779 83.4752 34.6801 83.3611 34.8251C83.0863 35.137 82.8621 35.4594 82.6054 35.7856C82.6325 36.0123 82.8202 36.072 82.9756 36.1355C83.8315 36.4275 84.6693 36.7051 85.5109 37.0152C87.9815 37.9026 90.4378 38.8082 92.8941 39.7138C93.2192 39.8228 93.5403 39.8994 93.8615 39.976C94.8793 40.2486 95.4345 40.7735 95.8107 41.8617C96.5074 42.0577 97.2546 42.2641 98.0017 42.4705C98.6117 42.6276 99.2216 42.7847 99.8211 42.9923C100.388 43.2037 100.827 43.5783 101.17 44.1121C101.856 45.1797 101.944 46.3351 101.659 47.5186C101.638 47.6197 101.635 47.7349 101.622 47.9007C102.014 48.2973 102.558 48.3144 103.045 48.4041C103.445 48.4549 103.87 48.437 104.277 48.4049C104.845 48.3534 105.254 48.0584 105.578 47.6092C106.14 46.8195 106.612 45.9585 106.929 45.034C106.953 44.9654 106.96 44.8825 106.985 44.8139C107.307 43.6588 107.307 43.6588 108.552 43.0833C108.634 43.0898 108.768 43.1067 108.855 43.1456C109.757 43.8261 110.627 44.5105 111.34 45.3943C111.613 45.7558 111.692 46.1405 111.691 46.551C111.687 46.9292 111.402 47.2917 111.036 47.3847C110.32 47.585 109.629 47.569 109.023 47.0337C108.693 46.7447 108.316 46.4777 107.918 46.164C107.709 46.6159 107.514 47.0496 107.302 47.4691C106.872 48.2757 106.367 48.9929 105.553 49.4677C105.338 49.5919 105.091 49.72 104.846 49.7328C103.77 49.7955 102.671 49.8117 101.673 49.2904C101.514 49.1945 101.34 49.1167 101.181 49.0207C100.714 49.6512 100.327 50.2557 99.8705 50.8357C99.3287 51.5243 98.4102 51.946 97.505 51.7913C96.6684 51.6612 95.8732 51.7398 95.0598 51.804C94.6855 51.8323 94.4237 51.9784 94.2396 52.3617C94.5034 52.9214 94.9176 53.3646 95.4678 53.7094C96.0543 54.0828 96.4762 54.5907 96.8411 55.1712C97.3845 56.0095 97.3673 56.5534 96.7542 57.3327C96.0556 58.2208 95.4437 59.1477 94.5237 59.8322C94.4485 59.8905 94.3954 59.9954 94.2994 60.1546C95.2128 61.7534 96.0834 63.4065 97.4554 64.7207C97.8618 65.0991 98.197 65.5682 98.5606 66.001C98.7716 66.2549 98.7882 66.5321 98.6611 66.8429C98.1877 67.9668 97.4282 68.8949 96.4072 69.5587C95.6012 70.0982 94.3193 69.6765 93.9624 68.7502C93.8668 68.4989 93.9006 68.2321 94.0355 67.9862C94.2377 67.6172 94.5164 67.3376 94.9037 67.1436C95.2768 66.9677 95.628 66.7451 95.983 66.555C96.3237 66.3829 96.632 66.2147 97.0518 66.0169C96.9457 65.816 96.8863 65.5932 96.7556 65.461C95.4133 64.2583 94.4972 62.7748 93.8572 61.127C93.7873 60.9547 93.7033 60.8005 93.5829 60.6178C93.1724 60.6175 93.0025 60.9827 92.7265 61.147C91.7302 61.7421 91.2652 61.6991 90.4731 60.8412C90.3023 60.6481 90.0991 60.4589 89.9749 60.2438C89.4044 59.1789 88.5761 58.2925 87.9019 57.322C87.581 56.8348 87.1811 56.3735 86.7955 55.894C86.2254 56.2084 85.702 56.5007 85.1319 56.8151C84.6156 56.2035 84.1717 55.6489 83.7524 55.0256C83.2491 54.2482 82.5488 53.6093 81.9237 52.9121C81.1822 52.0646 80.473 51.2133 79.6886 50.4202C79.0168 49.745 78.4306 48.961 77.6228 48.3842C77.3005 48.1599 77.0313 47.8308 76.7802 47.5159C76.3182 46.947 75.9133 46.3057 75.2608 45.7924C75.0327 46.0824 74.8188 46.3542 74.6192 46.6079C74.1772 47.1698 73.7171 47.7173 73.3114 48.3076C72.8771 48.9342 72.2901 49.382 71.685 49.8155C70.4567 50.6682 69.1701 51.4457 67.7917 52.0044C67.6518 52.0703 67.5119 52.1363 67.3862 52.1841C66.1543 52.5939 64.9042 52.9894 63.6399 53.4031C62.3432 53.8206 61.0078 53.9143 59.6389 53.8642C59.3721 53.8304 59.1235 53.8108 58.7453 53.8067ZM54.18 33.1683C54.0737 33.378 54.0205 33.4829 53.9997 33.5839C53.6507 34.5123 53.7019 35.4915 53.7531 36.4706C53.7838 37.1402 53.6772 37.7606 53.2093 38.2433C52.6844 38.7986 52.8149 39.3414 53.093 39.8829C53.5613 40.7795 54.0438 41.6579 54.6054 42.5104C55.2148 43.4886 56.1313 44.151 57.0012 44.8354C57.6355 45.3345 58.402 45.7028 59.1361 46.0749C59.8016 46.4224 60.4528 46.7881 61.2169 46.8611C62.3631 46.9706 63.5092 47.0801 64.6657 47.1391C65.062 47.1575 65.4934 47.0568 65.8962 46.9923C66.2343 46.9355 66.5503 46.8321 66.8923 46.8077C68.159 46.6893 69.3586 46.2834 70.5284 45.7661C72.2437 45.003 73.6677 43.8642 74.921 42.5323C76.217 41.146 77.3642 39.6133 78.5838 38.1376C78.7692 37.902 78.9364 37.6522 79.0713 37.4062C79.3656 36.8456 79.6418 36.2707 79.8676 35.6854C80.1464 34.9953 80.4072 34.2909 80.6175 33.5761C81.0172 32.2476 81.0492 30.8644 81.0488 29.485C81.0599 28.2028 80.7654 26.9736 80.0434 25.8774C79.6863 25.3617 79.4043 24.7878 79.0614 24.254C78.901 24.0104 78.7081 23.7707 78.5477 23.5271C78.3109 23.1941 77.9924 23.0022 77.6104 22.9657C76.4862 22.9028 75.5243 22.4101 74.548 21.9354C74.078 21.7124 73.5938 21.5074 73.1095 21.3025C72.9541 21.2389 72.778 21.2764 72.5112 21.2425C72.6832 21.5833 72.8398 21.7945 72.9355 22.0458C73.1851 22.6236 73.0761 22.9486 72.6109 23.3161C72.0524 23.7276 71.3983 23.8878 70.7222 24.0014C69.5318 24.2091 68.3494 24.0711 67.159 24.2789C66.821 24.3356 66.4493 24.2486 65.9701 24.2237C66.1021 24.5035 66.1939 24.7225 66.2818 24.909C66.3775 25.1604 66.4875 25.3936 66.5326 25.6345C66.6307 26.1811 66.4674 26.4633 65.9906 26.7337C65.5604 26.9821 64.1369 27.2998 63.7147 27.2024C62.9028 27.0037 62.0855 27.0356 61.2683 27.0675C61.0882 27.0725 60.9302 27.1242 60.7359 27.1474C60.7992 27.4026 60.8367 27.5788 60.9246 27.7653C61.477 28.816 61.2213 29.7005 60.3958 30.4887C60.1599 30.7139 59.9125 30.842 59.599 30.8301C58.7054 30.7726 57.8092 30.8303 56.9455 30.4736C56.6529 30.3607 56.3136 30.2698 56.0091 30.4704C55.9884 30.5714 55.9494 30.6581 55.9572 30.7229C56.0101 31.0286 56.0772 31.3161 56.1444 31.6037C56.2077 31.8589 56.271 32.1141 56.2696 32.377C56.2925 32.9818 55.7857 33.5514 55.1072 33.3696C54.8184 33.2891 54.5154 33.2268 54.18 33.1683ZM77.5484 20.6577C77.2756 19.8856 77.0999 19.102 76.5485 18.6095C75.5402 17.7281 74.5137 16.8326 73.3627 16.1324C71.9839 15.3118 70.5623 14.5454 68.989 14.1585C67.7549 13.8624 66.5104 13.6168 65.2488 13.9152C64.9936 13.9785 64.7307 13.9771 64.4639 13.9432C62.77 13.7841 61.2181 14.265 59.6338 14.7496C58.5094 15.0973 57.5532 15.7533 56.5129 16.2552C55.5477 16.6988 54.822 17.3602 54.2853 18.2289C53.9689 18.7429 53.7393 19.2957 53.4916 19.8344C52.9184 21.0851 52.63 22.384 53.0229 23.7493C53.0268 23.7817 53.0306 23.8141 53.0526 23.8607C53.1002 24.3969 52.9692 24.6753 52.455 24.7695C51.6674 24.9128 51.3045 25.4487 51.0684 26.0845C50.7687 26.8756 50.5415 27.7238 50.3791 28.5643C49.8294 31.3886 50.0659 34.3326 51.0343 36.9429C51.1041 37.1152 51.2063 37.2837 51.3513 37.3977C51.605 37.5974 51.9015 37.7426 52.1838 37.906C52.5569 37.7301 52.8031 37.4543 52.8293 37.1228C52.8595 36.4131 52.8573 35.7072 52.7762 35.0272C52.668 34.1206 53.0181 33.3398 53.4046 32.5876C53.5926 32.2367 53.9009 32.0685 54.3335 32.1154C54.5679 32.1532 54.832 32.3023 55.0497 32.0628C54.7233 30.0163 54.7507 29.8324 55.3171 29.0751C56.2586 29.2583 57.1858 29.4596 58.1557 29.6066C58.5235 29.6612 58.8978 29.6329 59.2683 29.5723C59.7683 29.4962 60.0496 29.1014 59.9592 28.6195C59.9024 28.2815 59.8314 27.9615 59.6956 27.6493C59.3141 26.7917 60.1396 26.0034 60.8454 26.0013C61.778 25.9721 62.7105 25.9429 63.6365 25.9966C64.2309 26.0242 64.7193 25.8509 65.2297 25.7243C65.2466 25.5909 65.3036 25.5184 65.2635 25.4575C65.2261 25.2814 65.1847 25.0728 65.1007 24.9187C64.7061 24.2268 64.8308 23.6208 65.5253 23.1109C65.774 23.1305 66.0835 23.11 66.3865 23.1723C67.6634 23.414 68.9159 23.3138 70.1891 23.1126C70.6243 23.0442 71.0738 22.9577 71.5013 22.8246C71.6917 22.769 71.8343 22.5878 72.0274 22.4169C71.6741 21.9336 71.3467 21.5293 71.1125 21.0811C70.8603 20.6185 70.3101 20.2737 70.4841 19.5304C70.7586 19.629 71.0007 19.7314 71.2247 19.8197C71.5536 19.961 71.9122 20.2138 72.258 20.2218C73.4145 20.2808 74.4478 20.683 75.4849 21.1175C75.951 21.3082 76.4392 21.5455 76.965 21.5484C77.0779 21.2558 77.2917 20.9839 77.5484 20.6577ZM85.0863 55.1949C86.0087 54.8056 86.6489 54.253 87.267 53.6537C87.4886 53.4466 87.6559 53.1968 87.9137 53.0182C88.6872 52.4825 89.3081 51.768 89.8603 51.0288C90.3982 50.3078 90.9905 49.6295 91.5284 48.9084C91.8383 48.4773 92.0976 48.0359 92.3387 47.5801C92.5306 47.2616 92.6681 46.9004 92.8276 46.5858C93.1921 45.7869 93.7262 45.0334 93.6283 44.0763C93.6129 43.9468 93.7088 43.7875 93.74 43.636C93.9425 42.8564 94.1269 42.0626 94.336 41.2002C92.2204 40.1226 89.9323 39.5254 87.7362 38.7366C85.5039 37.9192 83.1769 37.4088 80.9211 36.8077C80.2275 37.8757 79.5586 38.8752 78.9039 39.8565C78.6511 40.2151 78.3479 40.5633 78.0407 40.8791C77.105 41.8447 76.1331 42.7817 75.3385 43.829C75.5453 44.4612 75.7949 45.039 76.3205 45.4524C77.4441 46.3364 78.2891 47.5 79.2663 48.5329C79.7348 49.0188 80.2033 49.5048 80.6538 49.9765C81.3876 50.7593 82.1396 51.5562 82.8449 52.3752C83.5904 53.2551 84.5366 54.0289 85.0863 55.1949ZM91.8334 60.2683C92.2377 59.9409 92.6161 59.5345 93.0644 59.3003C93.9895 58.7958 94.6025 58.0165 95.2299 57.2191C96.0996 56.1136 96.0907 55.9012 95.2068 54.8244C95.1304 54.7349 95.0398 54.6637 94.9816 54.5885C94.5092 54.0701 94.0044 53.5557 93.5463 53.0192C93.1865 52.6188 93.1763 52.2587 93.4499 51.7991C93.6133 51.5169 93.8453 51.2593 94.041 50.9732C94.251 50.6689 94.5451 50.5189 94.9168 50.6059C95.4762 50.7526 96.0266 50.6869 96.581 50.6536C97.1353 50.6202 97.687 50.7022 98.231 50.7194C98.3631 50.5886 98.4849 50.5084 98.5847 50.3816C99.1485 49.7395 99.5855 48.9977 100.022 48.2559C100.545 47.4053 100.736 46.5286 100.573 45.5791C100.43 44.7916 100.104 44.1244 99.23 43.8182C98.2187 43.4627 97.2036 43.0748 96.1572 42.8384C95.9552 42.7968 95.7247 42.7915 95.476 42.7719C95.3736 43.0141 95.2815 43.2057 95.2075 43.4116C94.9779 43.9645 94.7807 44.5135 94.5511 45.0663C94.3955 45.4133 94.1855 45.7176 94.048 46.0788C93.2372 48.2282 92.0392 50.1611 90.5047 51.8879C90.3012 52.1092 90.134 52.3591 89.9486 52.5947C89.5066 53.1565 89.097 53.7145 88.4919 54.1479C88.1123 54.4067 87.8167 54.8197 87.4668 55.1899C87.5871 55.3726 87.6893 55.541 87.8019 55.6589C88.8944 56.6945 89.7899 57.8684 90.6426 59.0967C90.9053 59.5088 91.1614 60.0037 91.8334 60.2683ZM81.3509 26.7887C81.8654 26.284 82.1532 25.8062 82.4229 25.3142C83.2151 23.9717 83.4375 22.5329 82.9968 21.0419C82.8223 20.4059 82.3369 20.0533 81.7308 19.9286C81.1248 19.8039 80.5342 19.8087 80.1103 20.3848C79.8109 20.7654 79.5115 21.1459 79.2549 21.4722C79.2829 22.257 79.5259 22.9177 79.848 23.5525C80.2839 24.4529 80.6732 25.3753 81.0948 26.2938C81.1426 26.4195 81.2229 26.5413 81.3509 26.7887ZM53.9231 44.0862C53.1328 42.5548 52.4006 41.0986 51.6504 39.6282C51.4522 39.619 51.2113 39.6642 51.0093 39.6226C50.1546 39.4783 49.5857 39.9403 49.079 40.5098C48.4867 41.1881 48.4496 42.3913 49.0593 42.9589C50.4132 44.2588 51.9774 44.8439 53.9231 44.0862Z" fill="#0F0D0E"/>
<path fill-rule="evenodd" clip-rule="evenodd" d="M62.2129 39.6624C62.1368 39.1625 62.3468 38.8582 62.575 38.5683C63.6119 37.2129 64.5725 35.7681 65.8814 34.6266C66.7431 33.8669 67.5246 32.9854 68.4627 32.3151C69.0355 31.8855 69.6082 31.4559 70.2068 31.1053C71.2355 30.5063 72.2402 30.9447 72.5555 32.0729C72.916 33.4421 73.4203 34.7777 73.558 36.2064C73.6171 36.8397 73.6621 37.4912 73.5879 38.1077C73.5163 38.6088 73.2285 39.0866 72.9873 39.5423C72.8382 39.8064 72.6166 40.0135 72.4494 40.2634C71.6417 41.4764 70.4707 41.8461 69.0771 41.8646C67.6835 41.8832 66.3211 41.7502 64.9887 41.3181C64.2014 41.0508 63.4711 40.711 62.9185 40.0708C62.7477 39.8778 62.4913 39.7934 62.2129 39.6624ZM63.3385 39.4624C64.2631 39.779 65.0257 40.1149 65.8195 40.2993C66.8658 40.5357 67.9472 40.6529 69.0455 40.6368C70.5181 40.5924 72.0108 39.4782 72.3523 38.0745C72.377 38.0059 72.3835 37.923 72.3758 37.8582C72.3787 37.3324 72.3997 36.8208 72.3703 36.2989C72.2843 35.0283 71.9069 33.7925 71.501 32.5929C71.4273 32.3882 71.3251 32.2198 71.197 31.9724C70.5143 32.1688 70.0025 32.5583 69.5231 32.944C67.8385 34.3766 66.2264 35.8663 64.8395 37.5919C64.347 38.1433 63.9089 38.7375 63.3385 39.4624Z" fill="#4C272A"/>
<path fill-rule="evenodd" clip-rule="evenodd" d="M59.2197 35.2266C58.9462 35.6862 59.0133 35.9738 59.2605 36.2563C59.3951 36.4208 59.5945 36.5777 59.6824 36.7642C59.7484 36.9042 59.7612 37.1489 59.6614 37.2758C59.5758 37.3845 59.3284 37.5126 59.1911 37.4633C57.9894 37.1634 57.4658 35.6659 58.171 34.6949C58.9475 33.6334 59.1741 33.6064 60.2253 34.4333C60.4609 34.6187 60.6822 34.8222 60.8712 35.0295C61.0601 35.2368 61.0159 35.5541 60.8085 35.7431C60.6336 35.9282 60.4069 35.9552 60.1933 35.8165C59.8968 35.6713 59.5926 35.4613 59.2197 35.2266Z" fill="#4C272A"/>
<path fill-rule="evenodd" clip-rule="evenodd" d="M67.7684 27.4591C67.4948 27.9187 67.4907 28.2969 67.7171 28.6804C67.8012 28.8346 67.9176 28.9849 68.0056 29.1714C68.1155 29.4046 67.8408 29.7166 67.5882 29.6646C67.1881 29.6138 66.8981 29.3857 66.7546 29.0087C66.5374 28.4271 66.5325 27.8365 66.7583 27.2512C67.0476 26.5106 67.9272 26.1757 68.6146 26.5699C68.9694 26.7903 69.2956 27.0469 69.6037 27.2893C69.8755 27.5032 70.0294 27.8296 70.0214 28.1754C70.0084 28.3412 69.9021 28.551 69.7621 28.6169C69.6222 28.6829 69.3917 28.6776 69.2506 28.5959C69.0732 28.4857 68.949 28.2706 68.8144 28.106C68.4727 27.7199 68.4365 27.6914 67.7684 27.4591Z" fill="#4C272A"/>
<path fill-rule="evenodd" clip-rule="evenodd" d="M17.9789 60.2506C17.7193 59.5756 17.7453 58.9525 18.1607 58.3034C18.3424 58.2774 18.602 58.1995 18.8617 58.1736C19.5367 58.0957 20.2117 58.0438 20.8867 57.9659C21.9252 57.862 22.8599 57.5245 23.7166 56.8755C24.0282 56.6418 24.3397 56.4341 24.6513 56.2264C25.2744 55.785 25.7677 55.2139 26.0273 54.4869C26.235 53.9157 26.4686 53.3705 26.7023 52.8253C26.9879 52.8772 26.9619 53.1628 27.0139 53.3186C27.4293 54.461 27.9225 55.5514 28.5976 56.5639C28.7533 56.8235 28.9351 57.0832 29.0389 57.3687C29.5841 58.8486 30.7265 59.8611 31.739 60.9516C31.9208 61.1333 32.1544 61.2891 32.3881 61.3929C32.9073 61.6266 33.4006 61.8862 33.9458 62.068C34.3612 62.1978 34.8286 62.2757 35.2699 62.3016C36.5421 62.3535 37.4248 61.6526 37.996 60.6141C38.4114 59.8611 38.7489 59.0563 38.697 58.1476C38.697 57.9918 38.7229 57.862 38.7489 57.6024C38.9306 57.7063 39.0604 57.7322 39.1383 57.8361C40.3326 59.3679 41.9423 60.1987 43.7337 60.7958C44.4087 61.0035 45.0837 60.9516 45.7587 60.8996C46.0184 60.8737 46.252 60.7439 46.4857 60.6141C46.7713 60.4583 47.0569 60.2246 47.3684 60.0169C47.628 60.3025 47.8098 60.6141 47.9396 60.9516C48.4069 62.1199 48.7444 63.3141 48.6665 64.5863C48.6406 64.9757 48.6406 65.3392 48.6665 65.7287C48.7444 66.9749 48.4588 68.1172 47.9656 69.2596C47.654 70.0125 47.1867 70.6356 46.5636 71.1548C45.3174 72.1933 43.9673 73.128 42.5913 73.9847C42.124 74.2703 41.5788 74.5299 41.0595 74.6857C39.5537 75.153 38.0219 75.5684 36.4123 75.6982C35.4257 75.7761 34.4651 75.9059 33.4785 75.9319C31.5313 76.0098 29.6361 75.7761 27.7148 75.4905C26.91 75.3607 26.1311 75.0232 25.3263 74.7896C24.4436 74.5299 23.6128 74.1924 22.8599 73.6732C21.3021 72.6087 19.978 71.3625 19.1472 69.649C18.628 68.5845 18.0828 67.572 17.5895 66.5075C17.1222 65.4431 16.9924 64.3267 17.1741 63.1843C17.252 62.7689 17.2779 62.3535 17.3299 61.9381C17.4337 61.2891 17.4597 60.6919 17.9789 60.2506ZM30.0255 66.0662C29.7918 66.2739 29.5063 66.3777 29.4803 66.5075C29.3505 67.1566 29.2726 67.8576 29.1947 68.5066C29.1687 68.6105 29.2207 68.7403 29.2466 68.8442C29.8697 70.1942 30.7265 71.2587 32.1804 71.8298C33.4785 72.3231 35.4517 71.8818 36.2565 70.6875C36.3863 70.5057 36.5421 70.35 36.6979 70.1942C37.3988 69.5192 37.2431 68.7143 37.0873 67.8835C36.6719 68.0653 36.5161 68.3768 36.3863 68.6624C36.0748 69.3634 35.4517 69.7269 34.9324 70.2202C34.6728 70.4798 34.2055 70.6356 33.816 70.6875C32.4919 70.8952 30.5967 69.4932 30.3111 68.1951C30.2851 68.0393 30.2851 67.8835 30.2592 67.7537C30.2072 67.2085 30.1294 66.6893 30.0255 66.0662ZM24.833 62.8728C24.833 63.0286 24.833 63.1584 24.859 63.2622C24.9109 63.7555 25.3263 64.0671 25.7936 63.9892C26.6244 63.8334 27.1696 62.6651 26.7283 61.9641C26.6763 61.8603 26.5985 61.7824 26.4946 61.7304C25.8975 61.367 25.0407 61.7045 24.8849 62.3795C24.833 62.5353 24.833 62.743 24.833 62.8728ZM40.1509 62.3795C39.6316 62.3795 39.2941 62.6911 39.2162 63.1584C39.1124 63.8074 39.3979 64.3786 39.8912 64.5603C40.6701 64.8459 41.2413 64.4305 41.2672 63.6257C41.2672 63.5478 41.2672 63.4699 41.2672 63.392C41.1894 62.717 40.8259 62.3795 40.1509 62.3795Z" fill="white"/>
<path fill-rule="evenodd" clip-rule="evenodd" d="M18.3411 56.849C17.7959 55.9403 17.6661 55.0576 17.6921 54.1489C17.744 53.1624 17.8738 52.2018 17.9777 51.2152C18.0036 50.8257 18.1075 50.4882 18.3411 50.1507C18.4969 49.8911 18.6008 49.6055 18.7306 49.3459C19.146 48.4632 19.7691 47.7362 20.5479 47.217C21.3528 46.6718 22.2874 46.4641 23.248 46.4381C24.2086 46.3862 25.1952 46.3083 26.1558 46.7237C26.6232 46.9314 26.9087 46.8016 27.1424 46.2823C27.6876 45.1659 28.5184 44.413 29.6608 43.9717C30.6473 43.6082 31.6599 43.3226 32.7243 43.2447C34.0484 43.1409 35.2946 43.4524 36.437 44.0495C37.5793 44.6467 38.7476 45.14 39.89 45.7371C40.2275 45.9188 40.591 46.0746 40.8506 46.3342C41.6295 47.0872 42.5641 47.6843 43.2391 48.567C43.6805 49.1382 44.2517 49.5536 44.719 50.0988C45.6536 51.1892 46.1469 52.4873 46.5883 53.8114C46.9518 54.8759 46.8479 55.9923 46.8479 57.0827C46.8479 57.6019 46.8479 58.1212 46.6662 58.6404C46.3806 59.4712 46.0431 59.7828 45.2123 59.7828C44.7709 59.7828 44.3036 59.7568 43.8622 59.653C42.5641 59.2895 41.3958 58.6924 40.3833 57.8096C39.838 57.3423 39.3967 56.7711 38.9553 56.2C38.7736 55.9663 38.7217 55.6548 38.6178 55.3692C38.514 55.0836 38.462 54.798 38.3322 54.5124C38.2803 54.4086 38.0986 54.3047 37.9687 54.3307C37.8389 54.3307 37.6832 54.4605 37.6312 54.5903C37.3976 55.0317 37.5014 55.473 37.7351 55.8884C38.0207 56.4336 38.1245 57.0048 38.1245 57.6279C38.0986 58.6664 37.7091 59.5491 37.112 60.354C36.437 61.2107 35.4244 61.5223 34.3859 61.1588C33.3994 60.7953 32.4647 60.3799 31.7378 59.4972C31.0368 58.6404 30.3098 57.8356 29.8685 56.8231C29.8165 56.6933 29.7386 56.5375 29.6348 56.4336C28.5963 55.0057 27.9472 53.396 27.402 51.7344C27.3241 51.5267 27.2463 51.319 27.1424 51.1113C27.1164 51.0334 27.0386 51.0075 26.9866 50.9296C26.2597 51.4748 26.1039 51.6825 25.9481 52.4095C25.6625 53.6557 24.9616 54.5903 23.9231 55.2913C23.6634 55.473 23.4038 55.6028 23.1442 55.7846C21.7682 56.7192 20.1066 56.901 18.3411 56.849Z" fill="#FFB345"/>
<path fill-rule="evenodd" clip-rule="evenodd" d="M36.411 90.2877C36.0735 90.5733 35.736 90.8329 35.3725 91.1445C35.2427 90.9108 35.1129 90.7031 35.009 90.4954C34.9311 90.3137 34.9052 90.1319 34.8273 89.9502C34.5157 89.2492 33.9965 89.1194 33.3993 89.6386C33.1916 89.8204 33.0359 90.0281 32.8282 90.1839C32.6205 90.3396 32.3868 90.4175 32.1531 90.5473C31.7118 90.2617 31.6598 89.8463 31.53 89.4569C31.3743 89.0415 31.2445 88.6001 31.0368 88.1847C30.8031 87.7434 30.4396 87.6136 29.9983 87.7693C29.6867 87.8732 29.4011 88.0809 29.1155 88.2626C28.6222 88.6001 28.1809 89.0415 27.5837 89.2492C27.2982 89.0675 27.3241 88.73 27.1683 88.4703C27.1164 88.3665 27.1164 88.2626 27.1164 88.1328C26.727 86.4453 26.2597 86.4712 24.8058 87.2501C24.3125 87.5097 23.8971 87.9251 23.4298 88.2367C23.3519 88.2886 23.2221 88.2886 23.0663 88.3405C22.8067 87.5876 22.8326 86.8347 22.8845 86.1078C22.9365 85.6145 22.8845 85.225 22.6509 84.8356C22.7288 84.2644 23.0144 83.8231 23.2999 83.3817C24.1567 82.0576 25.0135 80.7076 25.6366 79.2537C25.8443 78.8123 26 78.345 26.1558 77.8777C26.2856 77.5401 26.4154 77.1767 26.5712 76.7872C28.1809 76.943 29.7646 77.1767 31.3223 77.2286C32.906 77.2805 34.4898 77.1767 36.1254 77.1247C36.2812 77.5661 36.411 78.0334 36.411 78.5267C36.411 82.3432 36.411 86.1597 36.411 89.9762C36.4889 90.08 36.4629 90.1319 36.411 90.2877Z" fill="#DD6262"/>
<path fill-rule="evenodd" clip-rule="evenodd" d="M57.2331 57.6506C56.0389 58.3776 54.7927 58.7411 53.5205 59.1305C53.3647 59.0267 53.2089 58.8709 53.0272 58.767C52.4041 58.3257 51.7291 58.3776 51.0541 58.5593C50.2233 58.767 49.3665 59.0267 48.8992 59.8574C48.5357 59.5719 48.4838 59.2863 48.4578 59.0007C48.328 57.7545 48.2242 56.5343 48.1203 55.2881C48.0943 54.9505 48.0943 54.5871 47.9905 54.2755C47.7049 53.5226 47.7828 52.7957 47.8607 52.0428C48.0424 50.2773 49.1328 49.1869 50.6646 48.4859C51.2098 48.2263 51.8589 48.3301 52.456 48.4859C52.6118 48.5119 52.7676 48.7196 52.8195 48.8753C52.9753 49.3946 53.0012 49.9138 52.6897 50.4071C52.2743 51.0302 51.8589 51.6793 51.4435 52.3024C51.3656 52.4322 51.2358 52.536 51.1579 52.6658C51.0281 52.8735 51.0281 53.0812 51.1839 53.2889C51.3396 53.4966 51.5733 53.5226 51.807 53.4707C51.9887 53.4188 52.1445 53.3409 52.3262 53.237C53.5205 52.5101 54.8186 52.4581 56.1687 52.536C56.636 52.562 56.8177 52.8476 56.9735 53.2111C57.1033 53.5486 56.9216 53.8082 56.6879 53.9899C56.4023 54.2236 56.0908 54.4313 55.7792 54.639C55.5196 54.7948 55.234 54.9246 55.0004 55.1063C54.533 55.4698 54.559 55.989 55.0523 56.3006C55.2859 56.4304 55.5196 56.5602 55.7533 56.6641C56.2466 56.8198 56.6879 57.1574 57.2331 57.6506Z" fill="#665959"/>
<path fill-rule="evenodd" clip-rule="evenodd" d="M10.112 48.9307C10.7092 48.8269 11.2284 48.9567 11.6698 49.2163C12.5525 49.7096 13.4093 50.2548 14.0324 51.1116C14.6295 51.9164 15.3045 52.6953 15.9795 53.4742C16.2911 53.8377 16.4469 54.2011 16.4728 54.6944C16.4988 55.7069 16.8103 56.6935 17.1478 57.6801C17.018 57.9397 16.8882 58.1993 16.7584 58.5109C16.2651 58.3292 15.7978 58.1734 15.3564 57.9916C14.8631 57.8099 14.3439 57.732 13.7987 57.8618C12.916 58.0695 12.0073 58.0695 11.0986 58.0695C10.6832 58.0695 10.2678 58.1474 9.8524 58.1734C9.12545 58.1734 8.42446 58.1734 7.69751 58.1215C7.23019 58.0955 6.81479 57.9397 6.58113 57.4464C6.5292 57.3426 6.45131 57.2647 6.37343 57.1868C5.93206 56.6676 5.95803 56.382 6.47728 56.0185C6.78883 55.8108 7.12634 55.655 7.54174 55.655C7.9831 55.655 8.45042 55.655 8.89178 55.655C9.12545 55.655 9.33315 55.6291 9.56681 55.5512C9.90432 55.4473 10.0082 55.006 9.80047 54.7204C9.6447 54.4867 9.41103 54.3829 9.12545 54.3569C8.68408 54.3569 8.34657 54.1232 8.00906 53.8376C7.69751 53.578 7.61962 53.2665 7.7754 52.929C7.93117 52.5655 8.16484 52.4357 8.6062 52.4616C8.86582 52.4876 9.12545 52.5395 9.35911 52.6434C9.85239 52.8251 10.3197 53.0847 10.813 53.2665C11.0467 53.3703 11.3063 53.4482 11.5659 53.4223C11.7217 53.4223 11.9294 53.2405 11.9813 53.1107C12.0332 52.9809 11.9813 52.6693 11.8775 52.6174C11.3582 52.2799 10.9688 51.8126 10.5793 51.3712C9.98221 50.6443 9.93028 49.8135 10.112 48.9307Z" fill="#665959"/>
<path fill-rule="evenodd" clip-rule="evenodd" d="M19.6936 90.1063C19.6157 89.5351 19.7715 89.1717 20.0052 88.8861C20.5763 88.263 20.9398 87.5101 21.3552 86.7831C21.4331 86.6273 21.5629 86.5235 21.7966 86.2379C21.9004 86.8351 21.8225 87.2764 21.8485 87.6918C21.8744 88.0553 21.9004 88.4447 22.0043 88.8082C22.2639 89.5871 22.8091 89.7948 23.5101 89.3794C24.0813 89.0159 24.6005 88.5745 25.1198 88.1332C25.4573 87.8476 25.4313 87.8476 26.0804 87.7178C26.1323 87.8735 26.2102 88.0293 26.2621 88.2111C26.34 88.5486 26.3919 88.8861 26.4698 89.1976C26.6775 90.1842 27.2746 90.5217 28.1833 90.1323C28.4429 90.0284 28.7026 89.8207 28.9362 89.639C29.3516 89.3794 29.7151 89.0419 30.2084 88.8082C30.3382 89.1197 30.4161 89.3534 30.494 89.613C30.6757 90.1063 30.8575 90.5996 31.0911 91.0669C31.3767 91.6381 31.6883 91.7679 32.3113 91.5862C32.6748 91.4823 33.0123 91.3006 33.3239 91.1189C33.4797 91.041 33.6095 90.9112 33.8172 90.7554C33.9729 91.1189 34.1547 91.4044 34.2585 91.716C34.5182 92.417 34.9595 92.7805 35.7384 92.5987C35.7903 92.5728 35.8682 92.6247 35.998 92.6766C35.9201 93.3516 35.6605 93.9747 35.2451 94.494C34.9855 94.8315 34.596 94.9613 34.1287 94.9353C32.5969 94.9094 31.1171 94.7017 29.6891 94.2084C27.3006 93.3516 24.938 92.4429 22.5754 91.5083C21.6148 91.1448 20.6542 90.5736 19.6936 90.1063Z" fill="#F47676"/>
<path fill-rule="evenodd" clip-rule="evenodd" d="M49.7814 65.2352C49.7554 64.9236 49.7295 64.7159 49.7295 64.4823C49.7295 63.4957 49.5997 62.5351 49.3141 61.6005C49.0544 60.7437 49.392 59.9908 50.1968 59.6533C50.716 59.4456 51.2613 59.2898 51.8324 59.2119C52.845 59.0561 53.5719 59.6533 53.7017 60.6918C53.8575 61.8341 53.5979 62.8986 52.8969 63.7813C52.5075 64.2486 51.9103 64.5861 51.3911 64.9236C50.9497 65.2092 50.4305 65.3131 49.7814 65.2352Z" fill="white"/>
<path fill-rule="evenodd" clip-rule="evenodd" d="M16.4967 59.444C16.2111 61.2613 15.8216 63.0527 15.7437 64.9999C15.2505 64.8441 14.7831 64.7143 14.3418 64.5845C13.4071 64.3249 12.8879 63.6499 12.7321 62.7412C12.6023 62.0402 12.5244 61.3133 12.5763 60.6123C12.6542 59.2622 13.6927 58.4055 15.1726 58.8209C15.6399 58.9507 16.1332 59.0545 16.4967 59.444Z" fill="white"/>
<path fill-rule="evenodd" clip-rule="evenodd" d="M22.3385 62.4288C21.5596 62.1172 20.573 62.4807 19.924 62.948C19.6124 63.1817 19.4307 63.4413 19.3528 63.7529C19.2749 63.8307 19.223 63.9086 19.1451 64.0125C18.6258 64.7394 18.548 65.5443 18.7557 66.2712C18.7557 66.3491 18.7816 66.401 18.8076 66.4789C18.8855 66.6866 18.9893 66.8943 19.1191 67.0501C19.4566 67.5953 19.9499 68.0626 20.5471 68.3742C22.1567 69.2569 24.1299 68.4261 24.5453 66.6347C24.9088 64.9212 23.8962 63.0519 22.3385 62.4288Z" fill="white"/>
<path fill-rule="evenodd" clip-rule="evenodd" d="M47.0031 64.9511C46.3021 64.4838 45.4972 64.4319 44.8482 64.7175C43.1606 64.6915 41.4471 65.8339 41.0836 67.5474C40.5903 69.7542 42.7452 71.1821 44.6924 71.1302C46.1203 71.0783 47.6781 70.2734 48.1973 68.8715C48.6906 67.5214 48.2493 65.756 47.0031 64.9511Z" fill="white"/>
<path fill-rule="evenodd" clip-rule="evenodd" d="M9.12599 51.3214C9.07406 50.5166 8.97021 49.8416 8.97021 49.1666C8.97021 48.2059 9.51542 47.6867 10.476 47.7905C10.9953 47.8425 11.5405 47.9463 11.9819 48.2059C13.0463 48.829 14.0848 49.53 14.8637 50.5685C15.357 51.2695 15.9541 51.8926 16.4993 52.5417C16.8109 52.4119 16.733 52.1522 16.7849 51.9445C16.9926 51.1916 17.1224 50.3868 17.3561 49.6339C17.6157 48.7771 18.1609 48.1021 18.6802 47.4011C19.7966 45.9212 21.3803 45.376 23.1197 45.2203C24.1323 45.1164 25.1448 45.2203 26.2872 45.2462C26.3391 45.1683 26.5468 45.0385 26.6506 44.8568C27.3516 43.6625 28.5199 43.0913 29.7402 42.6759C30.8825 42.3125 32.0508 41.975 33.297 42.0009C34.699 42.0269 35.9971 42.4163 37.2174 43.0135C38.2039 43.5067 39.1386 44.052 40.0213 44.727C40.956 45.428 41.9425 46.0511 42.9031 46.7261C43.2407 46.9597 43.5262 47.2713 43.8118 47.5569C43.9157 47.6607 43.9936 47.8165 44.1234 47.8944C44.7465 48.3358 45.2138 48.9329 45.733 49.4781C46.2783 50.0233 46.6158 50.6983 46.9792 51.3214C47.2908 51.2955 47.2908 51.0878 47.3427 50.906C47.81 49.2704 48.9784 48.2059 50.4582 47.5309C51.1592 47.2194 52.016 47.2453 52.7948 47.4271C53.4958 47.5828 53.8853 48.1281 53.9631 48.829C54.041 49.6858 54.067 50.5685 53.3141 51.3734C53.5997 51.3993 53.7295 51.4253 53.8593 51.4253C54.6641 51.3993 55.443 51.3214 56.2478 51.3474C57.3642 51.3734 58.2729 52.4119 58.2729 53.5282C58.2729 53.8917 58.1171 54.1773 57.8835 54.4369C57.546 54.8523 57.1825 55.2418 56.819 55.6572C57.0527 55.9947 57.52 56.2283 57.9614 56.5139C58.7662 57.0072 58.7662 58.1236 57.9614 58.6688C57.4681 59.0063 56.9488 59.3179 56.2998 59.3698C55.8584 59.4217 55.417 59.5775 54.9757 59.6813C54.8199 59.7073 54.6901 59.7852 54.5862 59.8112C54.4045 60.0708 54.5862 60.2785 54.6641 60.4602C55.0016 61.3949 54.9497 62.3036 54.5862 63.2122C54.1449 64.3286 53.4179 65.1335 52.3794 65.7046C51.9381 65.9383 51.4967 66.146 50.9775 66.0681C50.588 66.0162 50.2505 66.12 49.8611 66.3018C49.8351 66.4835 49.7832 66.6652 49.7832 66.847C49.7053 67.9893 49.2639 69.0538 48.8226 70.0923C48.511 70.8192 48.0177 71.4423 47.3946 71.9875C46.1225 73.1039 44.7465 74.1424 43.2666 74.9992C42.4877 75.4665 41.631 75.7781 40.7742 76.0896C39.9175 76.4012 39.0347 76.5829 38.0741 76.8685C38.2299 77.0502 38.3337 77.206 38.4636 77.2839C39.2944 77.8291 40.1252 78.3224 40.8781 78.9455C41.3454 79.3609 41.9944 79.5686 42.5656 79.8542C45.3436 81.2042 44.5907 80.9186 47.4466 80.9965C48.2774 81.0225 49.0043 80.7628 49.6793 80.3215C49.9909 80.1138 50.2765 79.8801 50.614 79.6205C50.0168 78.5301 50.2765 77.3877 50.3284 76.2713C50.3284 76.1675 50.3544 76.0117 50.4063 75.9598C50.5101 75.83 50.6659 75.7002 50.8217 75.6742C50.8996 75.6482 51.0813 75.83 51.1332 75.9598C51.2111 76.2973 51.2371 76.6348 51.289 76.9723C51.315 77.3098 51.3409 77.6214 51.3929 78.0368C51.7823 77.907 51.8342 77.5954 52.016 77.3618C52.2237 77.0762 52.4314 76.8166 52.665 76.5569C52.8468 76.3233 53.0545 76.1156 53.3141 75.804C53.4179 76.0117 53.5997 76.1675 53.5737 76.2973C53.4699 76.6867 53.34 77.0762 53.1843 77.4656C53.0545 77.8031 52.8727 78.1406 52.691 78.5041C53.3141 78.4003 55.0016 77.4397 55.6247 76.9204C55.9363 77.0502 55.9623 77.3358 55.9103 77.5954C55.8324 78.0108 55.5988 78.3483 55.2093 78.582C54.6901 78.8936 54.2228 79.283 53.6776 79.5426C53.2881 79.7503 52.8208 79.8801 52.4054 79.932C51.8861 80.0099 51.4707 80.2176 51.1073 80.5551C51.0553 80.6071 50.9775 80.633 50.9255 80.7109C49.8351 81.9571 48.4591 82.2946 46.8494 82.2687C44.5907 82.2167 44.5907 82.2687 42.5137 81.2302C42.0723 81.0225 41.631 80.7888 41.1896 80.5811C40.6444 80.3215 40.1252 80.0359 39.7098 79.5686C39.528 79.3868 39.3203 79.2311 39.0867 79.0753C38.7491 78.8416 38.4116 78.608 38.1001 78.3743C37.7366 78.5041 37.8664 78.7637 37.8664 78.9714C37.8664 82.4244 37.8405 85.8515 37.8924 89.3045C37.8924 90.343 37.6847 91.3296 37.5549 92.3421C37.451 93.1469 37.1654 93.8739 36.8798 94.6008C36.4385 95.7172 35.5817 96.2365 34.4394 96.3144C33.6865 96.3663 32.9336 96.4182 32.1806 96.1845C31.9989 96.1326 31.8172 96.1845 31.5575 96.1845C31.5316 96.4442 31.5056 96.7038 31.5056 96.9634C31.5316 98.8067 31.5575 100.676 31.6095 102.519C31.6354 103.558 31.4277 104.544 31.1421 105.531C31.0383 105.894 30.9085 106.284 30.6748 106.544C30.1296 107.115 29.9219 107.816 29.6363 108.491C29.4286 108.984 29.195 109.451 28.9094 109.893C28.5978 110.386 28.1565 110.724 27.5074 110.672C27.0401 110.646 26.7026 110.49 26.5208 110.048C26.417 109.815 26.3131 109.529 26.3131 109.296C26.3651 107.997 26.8583 106.959 27.9747 106.232C28.1565 106.128 28.3901 106.102 28.6238 106.076C29.195 106.024 29.5325 105.713 29.6882 105.194C29.9219 104.311 30.1556 103.454 30.1556 102.519C30.1556 101.091 30.1556 99.6375 30.2075 98.2096C30.2335 97.4567 30.2854 96.7038 30.3113 95.873C29.0652 95.4316 27.793 94.9643 26.5208 94.497C25.2746 94.0556 24.0544 93.5883 22.8342 93.121C22.5226 93.4066 22.4967 93.77 22.5745 94.1075C22.7822 95.0682 22.263 95.873 21.9514 96.7038C21.8476 96.9894 21.562 97.3009 21.2764 97.4567C20.4456 97.924 19.6148 98.3135 18.6023 97.9759C18.0571 97.7942 17.5378 97.6384 17.0186 97.4048C16.4214 97.1192 15.7983 96.8596 15.0714 96.7038C14.9416 97.3788 15.0714 97.976 15.0195 98.5731C14.9935 99.0664 14.9675 99.5597 14.8118 100.027C14.656 100.598 14.2666 100.78 13.6694 100.702C13.3319 100.65 13.0982 100.494 12.9944 100.183C12.9165 99.9751 12.8127 99.7674 12.7867 99.5337C12.6828 98.2875 12.6309 97.0413 13.0204 95.8211C13.0723 95.6913 13.1242 95.5355 13.2281 95.4057C13.4617 95.0682 13.7733 94.8864 14.1887 94.9643C14.4223 95.0162 14.63 95.0682 14.8377 95.146C15.8243 95.5355 16.7849 95.9509 17.7715 96.3663C18.109 96.4961 18.4984 96.5999 18.8359 96.7298C19.485 96.9634 20.0302 96.6778 20.5754 96.4442C20.6793 96.3922 20.7831 96.3144 20.8091 96.2105C20.9908 95.5614 21.4582 95.0162 21.5101 94.3152C21.536 93.796 21.6399 93.2767 21.6918 92.6796C21.3024 92.3421 20.8091 92.0825 20.2898 91.8488C19.7706 91.6151 19.2513 91.3815 18.784 91.0699C18.2388 90.7584 18.083 90.317 18.2388 89.7199C18.4465 88.9929 18.6802 88.292 19.1994 87.6948C19.485 87.3833 19.6927 87.0198 19.9004 86.6823C20.186 86.2409 20.4456 85.7736 20.7312 85.3322C21.0687 84.7351 21.4062 84.138 21.7437 83.5668C21.9255 83.2812 22.1072 82.9956 22.2889 82.71C23.1457 81.334 24.0284 79.958 24.8852 78.582C25.1708 78.1147 25.3525 77.5695 25.6121 76.9723C25.2227 76.8166 24.8852 76.8685 24.5736 76.9464C23.3015 77.2839 22.0293 77.1281 20.7312 77.1021C20.0043 77.0762 19.3033 76.9723 18.5763 76.8944C18.3686 76.8685 18.135 76.7906 17.9273 76.7127C17.3301 76.4531 16.7589 76.1935 16.1878 75.9079C15.7724 75.7002 15.3829 75.4925 15.0195 75.2328C13.6694 74.2722 12.3194 73.2857 11.1511 72.0914C10.7616 71.702 10.3462 71.3644 9.82697 71.2606C8.81444 71.0269 7.95768 70.4558 7.02303 69.9884C7.07495 69.8846 7.07495 69.7548 7.15284 69.7028C7.41247 69.4951 7.69805 69.4173 8.0096 69.5211C8.37308 69.625 8.71059 69.7548 9.07406 69.8846C9.35965 69.4951 9.07406 69.1836 8.99618 68.898C8.86636 68.4047 8.94425 68.0153 9.22984 67.6518C9.56735 67.6518 9.59331 67.9374 9.6712 68.1191C9.98275 68.7682 10.2683 69.4173 10.6058 70.0404C10.7616 70.3259 11.0991 70.3 11.2289 70.0144C11.3588 69.7028 11.4366 69.3653 11.5665 69.0538C11.6184 68.924 11.7222 68.7942 11.8261 68.6903C11.904 68.6384 12.0338 68.5865 12.1376 68.6124C12.2415 68.6384 12.3713 68.7682 12.3713 68.8201C12.2674 69.5211 12.553 70.3259 11.8261 70.8971C11.4107 71.2346 11.4366 71.4943 11.878 71.8058C13.2281 72.7924 14.5521 73.779 15.9281 74.7136C16.2916 74.9732 16.7849 75.0251 17.1743 75.2588C18.1609 75.7781 19.2254 76.0117 20.3158 76.0636C21.4582 76.1156 22.5745 76.1156 23.7169 76.1156C23.7948 76.1156 23.8986 76.0117 24.0544 75.9079C23.8986 75.804 23.7948 75.7002 23.6909 75.6482C21.8736 74.7136 20.3158 73.4934 19.0696 71.8837C18.9138 71.676 18.7321 71.4683 18.6282 71.2346C17.7715 69.599 16.7849 68.0153 16.2397 66.2239C16.1878 66.0941 16.1358 65.9643 16.058 65.8085C15.6945 65.7825 15.357 65.7566 15.0195 65.7046C14.7598 65.6787 14.5002 65.6527 14.2406 65.5748C12.7867 65.1854 12.0597 64.1728 11.8001 62.7709C11.7222 62.4074 11.6703 62.018 11.6443 61.6545C11.5924 60.8237 11.5924 59.9929 12.0338 59.2919C11.9299 59.214 11.878 59.1621 11.852 59.1621C10.5539 59.3958 9.30773 59.0842 8.03557 58.9284C7.23073 58.8246 6.50378 58.539 5.82876 58.0976C4.84218 57.4486 4.71237 56.2283 5.56913 55.4235C5.72491 55.2677 5.93261 55.1379 6.11434 55.0341C6.39993 54.8523 6.68552 54.6966 6.99707 54.4889C6.91918 54.1513 6.78937 53.8398 6.7634 53.5023C6.71148 53.009 6.7634 52.5417 7.07495 52.1003C7.43843 51.5811 7.85383 51.2955 8.47693 51.3734C8.58078 51.3993 8.81444 51.3474 9.12599 51.3214ZM17.9792 60.2525C17.4599 60.6939 17.434 61.317 17.3561 61.9141C17.3042 62.3295 17.2782 62.7449 17.2003 63.1603C17.0186 64.3027 17.1484 65.445 17.6157 66.4835C18.083 67.548 18.6542 68.5865 19.1735 69.625C20.0043 71.3385 21.3283 72.6106 22.8861 73.6491C23.639 74.1684 24.4698 74.5059 25.3525 74.7655C26.1574 74.9992 26.9362 75.3627 27.7411 75.4665C29.6363 75.7521 31.5575 75.9858 33.5047 75.9079C34.4913 75.8559 35.4519 75.7261 36.4385 75.6742C38.0482 75.5704 39.554 75.155 41.0858 74.6617C41.631 74.4799 42.1502 74.2463 42.6175 73.9607C43.9936 73.1039 45.3436 72.1693 46.5898 71.1308C47.2129 70.6115 47.6802 69.9884 47.9918 69.2355C48.4851 68.0932 48.7447 66.9508 48.6928 65.7046C48.6668 65.3152 48.6668 64.9517 48.6928 64.5623C48.7707 63.2901 48.4591 62.0958 47.9658 60.9275C47.836 60.59 47.6543 60.2785 47.3946 59.9929C47.0571 60.2266 46.7975 60.4343 46.5119 60.59C46.2783 60.7198 46.0186 60.8497 45.785 60.8756C45.11 60.9016 44.4349 60.9795 43.7599 60.7718C41.9685 60.2006 40.3588 59.3438 39.1645 57.812C39.0867 57.7082 38.9309 57.6822 38.7751 57.5784C38.7491 57.812 38.7232 57.9678 38.7232 58.1236C38.7751 59.0323 38.4376 59.8371 38.0222 60.59C37.4251 61.6285 36.5683 62.3295 35.2961 62.2776C34.8548 62.2516 34.3875 62.1737 33.9721 62.0439C33.4268 61.8622 32.9336 61.6285 32.4143 61.3689C32.1806 61.2651 31.947 61.1093 31.7652 60.9275C30.7527 59.8112 29.6104 58.7986 29.0651 57.3447C28.9613 57.0591 28.8055 56.7995 28.6238 56.5399C27.9488 55.5274 27.4555 54.4369 27.0401 53.2946C26.9882 53.1128 27.0141 52.8273 26.7285 52.8013C26.4949 53.3725 26.2352 53.9177 26.0535 54.4629C25.7939 55.2158 25.3006 55.761 24.6775 56.2024C24.3659 56.4101 24.0544 56.6437 23.7428 56.8514C22.912 57.4745 21.9514 57.812 20.9129 57.9419C20.2379 58.0197 19.5629 58.0717 18.8879 58.1496C18.6282 58.1755 18.3686 58.2274 18.1869 58.2794C17.7455 58.9544 17.7455 59.5775 17.9792 60.2525ZM18.3427 56.8514C20.1081 56.9293 21.7957 56.7476 23.2496 55.735C23.5092 55.5533 23.7688 55.4235 24.0284 55.2418C25.0669 54.5408 25.7679 53.6061 26.0535 52.3599C26.2093 51.6589 26.3651 51.4512 27.092 50.8801C27.1439 50.932 27.1959 50.9839 27.2478 51.0618C27.3257 51.2695 27.4295 51.4772 27.5074 51.6849C28.0786 53.3465 28.7276 54.9562 29.7402 56.3841C29.8181 56.5139 29.8959 56.6437 29.9738 56.7735C30.4152 57.812 31.1421 58.6169 31.8431 59.4477C32.5701 60.3044 33.5047 60.7458 34.4913 61.1093C35.5298 61.4727 36.5423 61.1872 37.2174 60.3044C37.8145 59.4996 38.2039 58.6169 38.2299 57.5784C38.2299 56.9553 38.152 56.3841 37.8405 55.8389C37.6328 55.4235 37.5289 54.9821 37.7366 54.5408C37.7885 54.4369 37.9443 54.3071 38.0741 54.2812C38.178 54.2812 38.3857 54.359 38.4376 54.4629C38.5674 54.7225 38.6193 55.0341 38.7232 55.3197C38.827 55.6052 38.879 55.9168 39.0607 56.1505C39.5021 56.7216 39.9434 57.2928 40.4886 57.7601C41.5012 58.6428 42.6695 59.2659 43.9676 59.6035C44.409 59.7073 44.8503 59.7592 45.3176 59.7333C46.1484 59.7073 46.5119 59.3958 46.7715 58.5909C46.9533 58.0717 46.9533 57.5524 46.9533 57.0332C46.9533 55.9427 47.0571 54.8264 46.6937 53.7619C46.2523 52.4378 45.759 51.1397 44.8244 50.0493C44.357 49.5041 43.7599 49.0627 43.3445 48.5175C42.6695 47.6348 41.7348 47.0376 40.956 46.2847C40.6963 46.0251 40.3329 45.8693 39.9953 45.6876C38.853 45.1164 37.6847 44.5972 36.5423 44C35.4 43.3769 34.1278 43.0913 32.8297 43.1952C31.7652 43.2731 30.7527 43.5587 29.7661 43.9221C28.6238 44.3375 27.767 45.1164 27.2478 46.2328C26.9882 46.752 26.7285 46.8819 26.2612 46.6742C25.3266 46.2588 24.34 46.3366 23.3534 46.3886C22.4188 46.4405 21.4582 46.6482 20.6533 47.1674C19.8744 47.7127 19.2513 48.4396 18.8359 49.2964C18.7061 49.556 18.6023 49.8675 18.4465 50.1012C18.2388 50.4387 18.135 50.7762 18.083 51.1657C17.9792 52.1522 17.8494 53.1128 17.7974 54.0994C17.6417 55.0341 17.7715 55.9427 18.3427 56.8514ZM36.4125 90.2911C36.4385 90.1353 36.4904 90.0574 36.4904 89.9795C36.4904 86.163 36.4904 82.3466 36.4904 78.5301C36.4904 78.0368 36.3606 77.5695 36.2048 77.1281C34.5692 77.18 32.9855 77.2839 31.4018 77.232C29.8181 77.18 28.2603 76.9464 26.6506 76.7906C26.4949 77.18 26.3651 77.5435 26.2352 77.881C26.0535 78.3483 25.8977 78.8157 25.716 79.257C25.0669 80.7109 24.2361 82.061 23.3794 83.3851C23.0938 83.8264 22.7822 84.2678 22.7303 84.839C22.964 85.2284 23.0159 85.6178 22.964 86.1111C22.8861 86.8381 22.8601 87.6169 23.1457 88.3439C23.3015 88.292 23.4053 88.292 23.5092 88.24C23.9765 87.9025 24.3919 87.5131 24.8852 87.2535C26.3391 86.4486 26.8064 86.4486 27.1959 88.1362C27.2218 88.24 27.1959 88.3698 27.2478 88.4737C27.4036 88.7074 27.3776 89.0708 27.6632 89.2526C28.2603 89.0449 28.7017 88.6035 29.195 88.266C29.4805 88.0843 29.7661 87.9025 30.0777 87.7727C30.545 87.6169 30.9085 87.7467 31.1162 88.1881C31.3239 88.5775 31.4537 89.0189 31.6095 89.4603C31.7393 89.8497 31.7912 90.2651 32.2326 90.5507C32.4662 90.4209 32.6999 90.343 32.9076 90.1872C33.1153 90.0314 33.2711 89.8237 33.4788 89.642C34.0759 89.1228 34.5951 89.2526 34.9067 89.9536C34.9846 90.1353 35.0105 90.317 35.0884 90.4988C35.1923 90.7324 35.3221 90.9401 35.4519 91.1478C35.7375 90.8363 36.075 90.5766 36.4125 90.2911ZM19.6927 90.1093C20.6533 90.5767 21.6139 91.1478 22.6005 91.5373C24.9631 92.4719 27.3257 93.3806 29.7142 94.2374C31.1421 94.7566 32.648 94.9383 34.1538 94.9643C34.6211 94.9643 35.0106 94.8345 35.2702 94.5229C35.6856 94.0037 35.9452 93.3806 36.0231 92.7056C35.8933 92.6537 35.8154 92.6017 35.7635 92.6277C34.9846 92.8094 34.5432 92.4459 34.2836 91.745C34.1798 91.4334 33.998 91.1478 33.8422 90.7844C33.6345 90.9401 33.5047 91.0699 33.349 91.1478C33.0114 91.3296 32.6739 91.5113 32.3364 91.6151C31.7133 91.7709 31.4277 91.6671 31.1162 91.0959C30.8825 90.6286 30.7008 90.1353 30.519 89.642C30.4152 89.4083 30.3373 89.1487 30.2335 88.8372C29.7142 89.0708 29.3767 89.4083 28.9613 89.668C28.7017 89.8237 28.468 90.0314 28.2084 90.1612C27.2997 90.5507 26.7026 90.2132 26.4949 89.2266C26.417 88.8891 26.3651 88.5516 26.2872 88.24C26.2352 88.0583 26.1833 87.9025 26.1054 87.7467C25.4823 87.8766 25.4823 87.8766 25.1448 88.1621C24.6256 88.6035 24.1063 89.0449 23.5351 89.4083C22.8601 89.8497 22.2889 89.616 22.0293 88.8372C21.8995 88.4997 21.8995 88.1102 21.8736 87.7208C21.8476 87.2794 21.9255 86.8381 21.8216 86.2669C21.6139 86.5265 21.4582 86.6563 21.3803 86.8121C20.9649 87.539 20.6014 88.266 20.0302 88.9151C19.7706 89.1747 19.6148 89.5382 19.6927 90.1093ZM49.7832 65.2373C50.4323 65.3152 50.9515 65.2113 51.3929 64.8998C51.9121 64.5623 52.5092 64.2248 52.8987 63.7574C53.5997 62.8747 53.8593 61.8103 53.7035 60.6679C53.5737 59.6294 52.8468 59.0323 51.8342 59.1881C51.289 59.2659 50.7178 59.4217 50.1986 59.6294C49.3938 59.9669 49.0562 60.7198 49.3159 61.5766C49.6015 62.5112 49.7313 63.4719 49.7313 64.4584C49.7313 64.7181 49.7572 64.9258 49.7832 65.2373ZM16.4993 59.4477C16.1099 59.0842 15.6426 58.9804 15.1752 58.8505C13.6694 58.4351 12.6569 59.2919 12.579 60.642C12.5271 61.3429 12.605 62.0699 12.7348 62.7709C12.8905 63.6796 13.4098 64.3546 14.3444 64.6142C14.7858 64.744 15.2531 64.8738 15.7464 65.0296C15.8243 63.0565 16.2137 61.2651 16.4993 59.4477Z" fill="#0F0D0E"/>
<path fill-rule="evenodd" clip-rule="evenodd" d="M30.026 66.069C30.1299 66.6921 30.1818 67.2113 30.2597 67.7306C30.2857 67.8863 30.2597 68.0421 30.3116 68.1719C30.5972 69.496 32.4925 70.872 33.8166 70.6643C34.206 70.6124 34.6733 70.4566 34.9329 70.197C35.4262 69.7037 36.0753 69.3402 36.3868 68.6393C36.5167 68.3537 36.6724 68.0421 37.0878 67.8604C37.2436 68.7171 37.3994 69.496 36.6984 70.171C36.5426 70.3268 36.3609 70.4826 36.257 70.6643C35.4522 71.8586 33.479 72.3 32.1809 71.8067C30.753 71.2615 29.8703 70.171 29.2472 68.821C29.1952 68.7171 29.1693 68.5873 29.1952 68.4835C29.2731 67.8085 29.351 67.1334 29.4808 66.4844C29.5328 66.3546 29.7924 66.2507 30.026 66.069Z" fill="#4C272A"/>
<path fill-rule="evenodd" clip-rule="evenodd" d="M24.833 62.8752C24.833 62.7454 24.833 62.5637 24.8849 62.3819C25.0407 61.6809 25.8975 61.3434 26.4946 61.7329C26.5985 61.7848 26.6763 61.8886 26.7283 61.9665C27.1696 62.6675 26.6244 63.8618 25.7936 63.9916C25.3003 64.0695 24.9109 63.7839 24.859 63.2647C24.833 63.1608 24.833 63.031 24.833 62.8752Z" fill="#4C272A"/>
<path fill-rule="evenodd" clip-rule="evenodd" d="M40.1507 62.3806C40.8257 62.3806 41.1892 62.7181 41.2411 63.3931C41.2411 63.471 41.2411 63.5489 41.2411 63.6268C41.2151 64.4576 40.6439 64.847 39.8651 64.5615C39.3458 64.3797 39.0862 63.8085 39.19 63.1595C39.2939 62.6922 39.6574 62.3806 40.1507 62.3806Z" fill="#4C272A"/>
<path fill-rule="evenodd" clip-rule="evenodd" d="M10.112 48.9302C9.93028 49.8129 9.95624 50.6437 10.5793 51.3707C10.9688 51.838 11.3582 52.2794 11.8775 52.6169C11.9813 52.6948 12.0332 52.9803 11.9813 53.1102C11.9294 53.24 11.7217 53.4217 11.5659 53.4217C11.3063 53.4217 11.0467 53.3438 10.813 53.2659C10.3197 53.0842 9.85239 52.8246 9.35911 52.6428C9.12545 52.539 8.86582 52.4871 8.6062 52.4611C8.16484 52.4092 7.95714 52.5649 7.7754 52.9284C7.61962 53.2659 7.69751 53.5515 8.00906 53.8371C8.32061 54.0967 8.65812 54.3564 9.12545 54.3564C9.41103 54.3564 9.6447 54.4862 9.80047 54.7198C10.0082 55.0054 9.90432 55.4468 9.56681 55.5506C9.35911 55.6026 9.12545 55.6285 8.89178 55.6545C8.45042 55.6804 7.9831 55.6804 7.54174 55.6545C7.1523 55.6545 6.81479 55.7843 6.47728 56.018C5.95803 56.3814 5.93206 56.667 6.37343 57.1863C6.45131 57.2642 6.5292 57.342 6.58113 57.4459C6.78883 57.9132 7.23019 58.0949 7.69751 58.1209C8.3985 58.1728 9.12545 58.1728 9.8524 58.1728C10.2678 58.1728 10.6832 58.069 11.0986 58.069C12.0073 58.0949 12.916 58.069 13.7987 57.8613C14.3439 57.7315 14.8372 57.8094 15.3564 57.9911C15.8238 58.1469 16.2651 58.3286 16.7584 58.5103C16.9142 58.1988 17.044 57.9392 17.1478 57.6795C16.8103 56.693 16.4988 55.7324 16.4728 54.6939C16.4728 54.2006 16.2911 53.8371 15.9795 53.4736C15.3305 52.6948 14.6554 51.9418 14.0324 51.111C13.4093 50.2543 12.5525 49.7091 11.6698 49.2158C11.2284 48.9562 10.7092 48.8004 10.112 48.9302Z" fill="#FFB345"/>
<path fill-rule="evenodd" clip-rule="evenodd" d="M57.2347 57.6529C56.7154 57.1596 56.2741 56.8221 55.7289 56.6403C55.4952 56.5365 55.2356 56.4326 55.0279 56.2768C54.5086 55.9653 54.4827 55.446 54.9759 55.0826C55.2096 54.9008 55.4952 54.797 55.7548 54.6153C56.0664 54.4076 56.3779 54.1999 56.6635 53.9662C56.8972 53.7585 57.0789 53.5248 56.9491 53.1873C56.8193 52.7979 56.6116 52.5383 56.1443 52.5123C54.7942 52.4344 53.4961 52.4863 52.3018 53.2133C52.146 53.3171 51.9643 53.395 51.7826 53.4469C51.5489 53.5248 51.3412 53.4729 51.1595 53.2652C51.0037 53.0575 51.0037 52.8498 51.1335 52.6421C51.2114 52.5123 51.3152 52.4084 51.4191 52.2786C51.8345 51.6555 52.2499 51.0324 52.6653 50.3834C52.9768 49.8901 52.9509 49.3708 52.7951 48.8516C52.7432 48.6958 52.5874 48.5141 52.4316 48.4622C51.8345 48.3323 51.2114 48.2025 50.6402 48.4622C49.1084 49.1631 48.018 50.2536 47.8363 52.019C47.7584 52.7719 47.6805 53.5248 47.9661 54.2518C48.0699 54.5633 48.0699 54.9268 48.0959 55.2643C48.1997 56.5105 48.3296 57.7307 48.4334 58.9769C48.4594 59.2625 48.5113 59.5741 48.8748 59.8337C49.3681 59.0029 50.1989 58.7433 51.0297 58.5356C51.6787 58.3798 52.3797 58.3279 53.0028 58.7433C53.1845 58.8731 53.3403 59.0029 53.4961 59.1068C54.7942 58.7433 56.0144 58.3798 57.2347 57.6529Z" fill="#FFB345"/>
</g>
</svg>
