<svg width="100" height="100" viewBox="0 0 100 100" fill="none" xmlns="http://www.w3.org/2000/svg">
<path d="M49.8516 97.7031C76.2793 97.7031 97.7031 76.2793 97.7031 49.8516C97.7031 23.4239 76.2793 2 49.8516 2C23.4239 2 2 23.4239 2 49.8516C2 76.2793 23.4239 97.7031 49.8516 97.7031Z" fill="#F1C14C"/>
<path fill-rule="evenodd" clip-rule="evenodd" d="M59.2398 66.9121C60.7687 70.1576 62.1634 73.1483 63.5716 76.1256C63.8667 76.756 64.4031 77.8959 63.1559 78.0569C61.5733 78.258 59.9774 78.3787 58.3814 78.5128C52.9096 78.9554 47.4378 79.2907 41.9928 79.8808C39.5251 80.149 37.0977 79.8808 34.6568 79.8808C33.4498 79.8808 33.2755 79.4382 33.7181 78.3787C35.0324 75.2405 36.1991 73.9664 37.3793 71.0025C37.661 69.7687 38.1572 68.5885 38.5461 67.4217C38.412 67.3144 38.3181 67.1803 38.2645 67.1937C36.5747 67.529 34.8848 67.2607 33.1816 67.2876C30.7407 67.3278 28.2999 67.6363 25.859 67.7838C23.9949 67.8911 22.1307 67.9045 20.2665 67.9984C19.3277 68.0386 19.0327 67.4351 18.9656 66.7109C18.8851 65.866 18.9924 65.0077 18.9522 64.1493C18.8449 61.7621 18.6974 59.3615 18.5901 56.9743C18.4694 53.997 18.3621 51.0197 18.2816 48.0423C18.1743 44.5286 18 41.0148 18 37.4877C18.0134 33.0619 18.1743 28.6496 18.2682 24.2239C18.2682 24.0227 18.3487 23.8215 18.4023 23.5667C20.0519 22.9096 21.7686 23.1241 23.445 22.99C26.999 22.695 30.553 22.4268 34.1204 22.1988C39.9677 21.8098 45.8151 21.3002 51.6892 21.3807C54.3446 21.4209 57.0001 21.099 59.6689 20.9515C62.4853 20.804 65.3017 20.6833 68.1181 20.5358C69.8749 20.4419 71.6184 20.3212 73.3753 20.2273C73.9117 20.2005 74.4348 20.1737 74.9712 20.1602C76.5135 20.1066 78.0558 20.12 79.5981 20.0127C81.2477 19.892 82.0792 20.6296 82.106 22.2524C82.1731 26.5574 82.3609 30.8625 82.3743 35.1675C82.3877 39.4323 82.2536 43.6837 82.1731 47.9485C82.1463 49.4371 82.0792 50.9258 82.0926 52.4144C82.1463 55.2845 82.2536 58.1679 82.3206 61.0379C82.3474 61.9901 82.334 62.9423 82.3206 63.9079C82.3072 64.6187 81.9451 65.1552 81.2477 65.3295C80.5235 65.5173 79.7859 65.6648 79.0483 65.705C76.8756 65.8392 74.6896 65.9196 72.517 66.0135C72.2487 66.0269 71.9805 66.0269 71.7123 66.0671C69.5128 66.322 67.3134 66.6438 65.1139 66.8048C63.6923 66.8986 62.2439 66.7377 60.8089 66.7243C60.3663 66.6841 59.9103 66.8182 59.2398 66.9121ZM80.4296 21.5416C79.7322 21.5416 79.008 21.5282 78.2838 21.5416C77.2243 21.5684 76.1648 21.6221 75.1053 21.6355C74.7298 21.6355 74.3543 21.5416 73.9922 21.5818C71.3904 21.8635 68.802 22.0647 66.1868 21.8635C65.4626 21.8098 64.7116 22.011 63.974 22.0781C63.29 22.1451 62.606 22.2122 61.9354 22.2256C61.0905 22.239 60.2322 22.0781 59.4141 22.2256C58.2071 22.4402 57.0269 22.5743 55.7931 22.5206C54.4251 22.467 53.0437 22.8023 51.6624 22.7754C46.0028 22.6547 40.3835 23.1376 34.7641 23.5935C31.3308 23.8752 27.8841 24.1032 24.4374 24.358C22.9085 24.4787 21.3796 24.5994 19.7166 24.7335C18.5901 38.641 19.9044 52.4144 20.4006 66.3354C21.0175 66.3354 21.5406 66.3354 22.0636 66.3354C27.3879 66.3756 32.6988 65.5709 38.0365 65.8928C38.2511 65.9062 38.4657 65.866 38.6802 65.8526C40.1689 65.7989 41.6575 65.6916 43.1462 65.6916C45.9223 65.705 48.6851 65.866 51.4612 65.7989C55.5651 65.705 59.6689 65.4905 63.7594 65.3027C65.248 65.2356 66.7367 65.1418 68.2253 65.0479C70.3041 64.9004 72.3694 64.7528 74.4482 64.5785C76.5001 64.4041 78.552 64.203 80.7649 64.0018C80.7917 49.7992 81.3684 35.7576 80.4296 21.5416ZM35.6225 78.3787C36.0919 78.4055 36.454 78.4726 36.8161 78.4592C39.0423 78.3251 41.282 78.1776 43.5083 78.03C45.6273 77.8825 47.7731 77.8557 49.8653 77.5338C53.7009 76.9303 57.5365 76.3402 61.4392 76.367C61.7745 76.367 59.736 72.4241 58.7972 70.1576C57.3622 66.6975 57.389 66.8718 53.5534 67.0596C53.4461 67.0596 53.3388 67.1132 53.2449 67.1132C51.9172 67.1535 50.5895 67.2473 49.2618 67.2205C46.3515 67.1803 43.4412 67.0864 40.4237 67.0059C38.8412 71.4317 37.272 73.7384 35.6225 78.3787Z" fill="#202E5B"/>
<path fill-rule="evenodd" clip-rule="evenodd" d="M80.4295 21.5418C81.3683 35.7578 80.7916 49.786 80.7514 64.0288C78.5251 64.23 76.4866 64.4312 74.4347 64.6055C72.3693 64.7799 70.2906 64.9274 68.2118 65.0749C66.7232 65.1822 65.2345 65.2627 63.7459 65.3297C59.642 65.5041 55.5516 65.7321 51.4477 65.8259C48.685 65.893 45.9088 65.7187 43.1327 65.7187C41.644 65.7187 40.1554 65.8259 38.6667 65.8796C38.4521 65.893 38.2376 65.9332 38.023 65.9198C32.6853 65.5979 27.3744 66.3892 22.0501 66.3624C21.5271 66.3624 21.004 66.3624 20.3871 66.3624C19.8909 52.4415 18.59 38.6681 19.7031 24.7605C21.3661 24.6264 22.895 24.4923 24.4239 24.385C27.8706 24.1302 31.3173 23.9022 34.764 23.6206C40.3834 23.1512 46.0161 22.6684 51.6623 22.8025C53.0302 22.8293 54.4116 22.494 55.793 22.5477C57.0268 22.6013 58.207 22.4806 59.414 22.2526C60.2187 22.1051 61.0904 22.266 61.9353 22.2526C62.6193 22.2392 63.3033 22.1721 63.9739 22.1051C64.7115 22.038 65.4625 21.8235 66.1867 21.8905C68.8019 22.0917 71.4037 21.8905 73.9921 21.6089C74.3542 21.5686 74.7297 21.6759 75.1052 21.6625C76.1647 21.6357 77.2242 21.5821 78.2837 21.5686C79.0213 21.5284 79.7456 21.5418 80.4295 21.5418Z" fill="#5C72CC"/>
<path d="M78.4849 24.6799C77.8412 24.6799 77.1572 24.6665 76.4732 24.6799C75.4808 24.6933 74.4883 24.747 73.4959 24.7604C73.1472 24.7604 72.7985 24.6799 72.4632 24.7067C70.0358 24.9481 67.6083 25.1225 65.1541 24.9481C64.4701 24.8945 63.7727 25.0822 63.0753 25.1359C62.445 25.1895 61.8012 25.2566 61.1575 25.27C60.3662 25.2834 59.5616 25.1359 58.7971 25.27C57.6706 25.4578 56.5708 25.5651 55.4175 25.5248C54.1434 25.4712 52.8425 25.7662 51.555 25.7394C46.2575 25.6321 41.0003 26.0479 35.7431 26.4502C32.5244 26.6916 29.2922 26.8794 26.0735 27.1074C24.6385 27.2012 23.2035 27.3219 21.6478 27.4426C20.6017 39.4055 21.8221 51.2477 22.2915 63.224C22.8682 63.224 23.3644 63.224 23.8473 63.224C28.8363 63.2508 33.7984 62.5668 38.7874 62.8485C38.9886 62.8619 39.1898 62.8217 39.3775 62.8082C40.7723 62.7546 42.1671 62.6607 43.5485 62.6741C46.1368 62.6875 48.7386 62.8217 51.327 62.768C55.1627 62.6875 58.9983 62.4998 62.8339 62.3389C64.2287 62.2852 65.6235 62.2047 67.0048 62.1109C68.9495 61.9902 70.8807 61.856 72.8253 61.7085C74.7432 61.561 76.661 61.3867 78.7397 61.2123C78.8202 48.9812 79.3566 36.911 78.4849 24.6799Z" fill="#BDC0FF"/>
<path fill-rule="evenodd" clip-rule="evenodd" d="M35.6226 78.379C37.2721 73.7387 38.8413 71.432 40.4238 67.0063C43.4413 67.0867 46.3516 67.1806 49.2619 67.2208C50.5896 67.2342 51.9173 67.1538 53.245 67.1135C53.3523 67.1135 53.4596 67.0599 53.5535 67.0599C57.3891 66.8721 57.3623 66.6978 58.7973 70.1579C59.7361 72.411 60.8492 74.5971 61.8819 76.8099C62.0965 77.2793 61.788 76.3539 61.4393 76.3539C57.5366 76.3271 53.7144 76.9172 49.8654 77.5207C47.7732 77.8426 45.6274 77.8694 43.5084 78.0169C41.2821 78.1779 39.0559 78.312 36.8162 78.4461C36.4541 78.4863 36.092 78.4193 35.6226 78.379Z" fill="#4455AD"/>
<path d="M49.5968 24.855C50.5624 24.855 50.5624 23.3529 49.5968 23.3529C48.6312 23.3529 48.6312 24.855 49.5968 24.855Z" fill="#B3B3FF"/>
<path d="M60.9966 28.0189C62.0427 27.7372 63.1022 27.5092 64.1751 27.2947C65.2346 27.0801 66.3075 26.9057 67.3938 26.7716C68.4801 26.6375 69.5798 26.557 70.7064 26.6107C70.8405 26.6107 70.988 26.6241 71.1355 26.6375L71.5647 26.6777C71.7122 26.6911 71.8463 26.7314 71.9939 26.7448L72.2084 26.785C72.2755 26.7984 72.356 26.8253 72.423 26.8387L72.8522 26.946L73.2813 27.1069C73.4289 27.1471 73.563 27.2276 73.6971 27.2947L73.8983 27.4019C73.9653 27.4422 74.0324 27.4824 74.0994 27.5226L74.2872 27.6568C74.3542 27.697 74.4213 27.7372 74.4749 27.7909L74.8236 28.0993L75.1321 28.448L75.2126 28.5419L75.2796 28.6358L75.4137 28.8235L75.5478 29.0113L75.6551 29.2125C75.7222 29.3466 75.8027 29.4807 75.8563 29.6148C75.9636 29.883 76.0977 30.1513 76.1648 30.4329C76.3391 30.9828 76.4464 31.5326 76.5403 32.0959C76.5805 32.3775 76.6073 32.6458 76.6476 32.9274L76.7146 33.7589C76.7817 34.8586 76.7683 35.9449 76.728 37.0313C76.6744 38.1176 76.5939 39.2039 76.4732 40.2768C76.2184 38.1176 76.0709 35.9584 75.7892 33.8528C75.6417 32.8067 75.454 31.7606 75.1053 30.8084L75.0382 30.6341C75.0248 30.5804 74.998 30.5134 74.9712 30.4597L74.8236 30.1244C74.77 30.0171 74.7029 29.9099 74.6493 29.8026L74.5554 29.6416L74.4481 29.4941L74.3408 29.3466L74.2872 29.2795L74.2335 29.2125L74.0055 28.9577L73.7507 28.7297C73.7105 28.6894 73.6569 28.6626 73.6166 28.6224L73.4691 28.5285C73.4155 28.5017 73.3752 28.4614 73.3216 28.4346L73.1606 28.3541C73.0533 28.3005 72.9595 28.2469 72.8388 28.2066L72.5035 28.0725L72.1548 27.9786C72.1011 27.9652 72.0341 27.9384 71.9804 27.925L71.7927 27.8847C71.672 27.8579 71.5513 27.8311 71.4172 27.8177L71.0416 27.764L70.8539 27.7372C70.7868 27.7238 70.7198 27.7238 70.6661 27.7238C69.6335 27.6299 68.574 27.6568 67.5011 27.6836C65.3284 27.7775 63.1692 27.9652 60.9966 28.0189Z" fill="white"/>
<path fill-rule="evenodd" clip-rule="evenodd" d="M62.7399 66.4964C61.7609 68.3605 60.9696 69.9162 60.1113 71.4451C59.7492 72.0889 59.32 72.7326 58.7836 73.2422C58.1398 73.8458 57.4559 73.5373 57.2815 72.679C56.222 67.7168 55.2296 62.7278 54.0896 57.7924C53.2581 54.1848 52.2523 50.6174 51.3001 47.0366C50.8173 45.1992 51.2867 44.6493 53.1106 45.2126C54.5993 45.6686 56.0074 46.3928 57.4693 46.9293C62.7667 48.9141 67.8094 51.4221 72.8923 53.9031C73.7908 54.3457 74.7162 54.7481 75.6684 55.0565C76.5536 55.3516 76.9693 55.9148 77.09 56.8939C74.7967 57.9936 72.4765 59.1067 70.0089 60.3003C72.5838 63.2106 74.9979 65.9599 77.5326 68.8165C77.0096 70.3722 75.3734 71.0428 74.3139 72.223C73.241 73.43 72.0205 74.5029 70.7062 75.8038C70.1966 75.2808 69.7138 74.8382 69.2981 74.3286C67.7289 72.3705 66.1866 70.3856 64.6175 68.441C64.1213 67.8107 63.5178 67.2742 62.7399 66.4964ZM71.1354 73.2557C72.4765 71.8743 73.8981 70.4125 75.3197 68.9506C74.5553 68.0118 73.8847 67.2742 73.308 66.4561C71.873 64.4578 70.1966 62.7144 68.1715 61.2928C67.7558 60.9977 67.5278 60.4479 67.2193 60.0187C67.6485 59.7102 68.0374 59.3213 68.5202 59.0933C70.2905 58.2618 72.1413 57.5913 73.8043 56.2501C71.3902 55.0163 69.2042 53.8227 66.9511 52.7498C64.6846 51.6769 62.4046 50.604 60.0443 49.7859C57.7241 48.9678 55.6453 47.4925 52.9631 46.9159C54.8541 54.976 56.6646 62.7412 58.4885 70.4929C59.8028 68.441 61.0769 66.4695 62.4315 64.3505C62.8204 64.6456 63.2764 64.8736 63.5848 65.2223C65.3954 67.2876 67.2059 69.3798 68.9762 71.4854C69.526 72.1693 69.9418 72.974 71.1354 73.2557Z" fill="#202E5B"/>
<path fill-rule="evenodd" clip-rule="evenodd" d="M71.1354 73.2554C69.9418 72.9737 69.5261 72.1825 68.9628 71.5119C67.1925 69.4063 65.3954 67.3142 63.5715 65.2488C63.263 64.9001 62.8204 64.6721 62.4181 64.3771C61.0635 66.4961 59.7895 68.4675 58.4752 70.5195C56.6512 62.7677 54.8407 55.0026 52.9497 46.9424C55.6454 47.5191 57.7107 48.9943 60.0309 49.8124C62.3913 50.6439 64.6712 51.7168 66.9377 52.7763C69.1908 53.8358 71.3768 55.0294 73.7909 56.2767C72.1279 57.6178 70.2771 58.2749 68.5068 59.1198C68.0374 59.3478 67.6351 59.7234 67.2059 60.0452C67.5144 60.4744 67.7558 61.0243 68.1581 61.3193C70.1832 62.7275 71.8596 64.471 73.2947 66.4827C73.8713 67.2873 74.5419 68.0384 75.3063 68.9772C73.8982 70.4122 72.4766 71.874 71.1354 73.2554Z" fill="#FDA931"/>
<path d="M56.6383 38.8158C57.51 36.5761 57.9794 34.2694 58.5024 31.9224C58.6768 31.1043 57.4161 30.7959 57.2284 31.614C56.7455 33.8402 56.303 36.0665 55.4849 38.1855C55.1898 38.9768 56.3432 39.6071 56.6383 38.8158Z" fill="#202E5B"/>
<path d="M47.5721 41.7387C46.1907 39.9282 44.7289 38.1713 43.2134 36.468C42.6501 35.8377 41.6711 36.696 42.2344 37.3264C43.7499 39.0296 45.1983 40.7865 46.5931 42.597C47.1161 43.281 48.0817 42.4092 47.5721 41.7387Z" fill="#202E5B"/>
<path d="M43.8706 50.1208C44.7021 50.0671 44.7021 48.7528 43.8572 48.8199C41.3761 48.9808 38.828 49.3161 36.3469 48.9137C35.5288 48.7796 35.1935 50.0403 36.025 50.1744C38.6402 50.5902 41.2554 50.2951 43.8706 50.1208Z" fill="#202E5B"/>
<path fill-rule="evenodd" clip-rule="evenodd" d="M56.611 48.2707C55.471 47.7343 54.2908 47.2246 52.9497 46.943C54.8407 55.0032 56.6512 62.7683 58.4752 70.5201C59.2396 69.3265 59.9906 68.1597 60.7551 66.9795L56.611 48.2707Z" fill="#FFD595"/>
</svg>
