<svg width="100" height="100" viewBox="0 0 100 100" fill="none" xmlns="http://www.w3.org/2000/svg">
<path d="M96 50C96 75.4051 75.4051 96 50 96C24.5949 96 4 75.4051 4 50C4 24.5949 24.5949 4 50 4C75.4051 4 96 24.5949 96 50Z" fill="white" stroke="#DAEFFF" stroke-width="4"/>
<path d="M29.4599 69.7888H55.7193C57.0722 69.7888 58.1791 68.6818 58.1791 67.3289V46.8503C58.1791 45.4973 57.0722 44.3904 55.7193 44.3904H29.4599C28.107 44.3904 27 45.4973 27 46.8503V67.3289C27 68.7433 28.107 69.7888 29.4599 69.7888ZM32.5963 47.5267H52.5829C53.9358 47.5267 55.0428 48.6337 55.0428 49.9866V64.254C55.0428 65.607 53.9358 66.7139 52.5829 66.7139H32.5963C31.2433 66.7139 30.1364 65.607 30.1364 64.254V49.9866C30.1364 48.6337 31.2433 47.5267 32.5963 47.5267Z" fill="url(#paint0_linear_3136_4450)"/>
<path d="M32.4731 38.3636V38.6096C32.4731 39.4705 33.1496 40.2085 34.0721 40.2085H60.8234C61.6844 40.2085 62.4223 40.885 62.4223 41.8074V61.9171C62.4223 62.778 63.0988 63.516 64.0213 63.516H64.2673C65.1282 63.516 65.8662 62.8395 65.8662 61.9171V38.3636C65.8662 37.5026 65.1897 36.7646 64.2673 36.7646H34.1336C33.2111 36.8261 32.4731 37.5026 32.4731 38.3636Z" fill="url(#paint1_linear_3136_4450)"/>
<path d="M39.6069 31.5989V31.8449C39.6069 32.7059 40.2834 33.4439 41.2059 33.4439H67.9572C68.8182 33.4439 69.5561 34.1203 69.5561 35.0428V55.1524C69.5561 56.0134 70.2326 56.7513 71.1551 56.7513H71.401C72.262 56.7513 73 56.0749 73 55.1524V31.5989C73 30.738 72.3235 30 71.401 30H41.2674C40.3449 30 39.6069 30.6765 39.6069 31.5989Z" fill="url(#paint2_linear_3136_4450)"/>
<defs>
<linearGradient id="paint0_linear_3136_4450" x1="53" y1="48" x2="43" y2="64" gradientUnits="userSpaceOnUse">
<stop stop-color="#6D42E7"/>
<stop offset="1" stop-color="#D059C8"/>
</linearGradient>
<linearGradient id="paint1_linear_3136_4450" x1="49.1697" y1="36.7646" x2="49.1697" y2="63.516" gradientUnits="userSpaceOnUse">
<stop stop-color="#6D42E7"/>
<stop offset="1" stop-color="#DA5BC5"/>
</linearGradient>
<linearGradient id="paint2_linear_3136_4450" x1="67" y1="32.5" x2="56.3035" y2="56.7513" gradientUnits="userSpaceOnUse">
<stop stop-color="#6D42E7"/>
<stop offset="1" stop-color="#DA5BC5"/>
</linearGradient>
</defs>
</svg>
