<svg width="100" height="100" viewBox="0 0 100 100" fill="none" xmlns="http://www.w3.org/2000/svg">
<path d="M49.8516 97.7031C76.2793 97.7031 97.7031 76.2793 97.7031 49.8516C97.7031 23.4239 76.2793 2 49.8516 2C23.4239 2 2 23.4239 2 49.8516C2 76.2793 23.4239 97.7031 49.8516 97.7031Z" fill="#F1C14C"/>
<path d="M50.0002 91.28C72.7985 91.28 91.2802 72.7983 91.2802 50C91.2802 27.2017 72.7985 8.71997 50.0002 8.71997C27.2019 8.71997 8.72021 27.2017 8.72021 50C8.72021 72.7983 27.2019 91.28 50.0002 91.28Z" fill="#FFFEE0"/>
<path d="M50 86C69.8823 86 86 69.8823 86 50C86 30.1177 69.8823 14 50 14C30.1177 14 14 30.1177 14 50C14 69.8823 30.1177 86 50 86Z" fill="#FFEDAD"/>
<path d="M50 80.9998C67.1208 80.9998 81 67.1206 81 49.9998C81 32.8789 67.1208 18.9998 50 18.9998C32.8792 18.9998 19 32.8789 19 49.9998C19 67.1206 32.8792 80.9998 50 80.9998Z" fill="#FFDC60"/>
<path d="M50 75.0002C63.8071 75.0002 75 63.8074 75 50.0002C75 36.1931 63.8071 25.0002 50 25.0002C36.1929 25.0002 25 36.1931 25 50.0002C25 63.8074 36.1929 75.0002 50 75.0002Z" fill="#FFF5D0"/>
<path d="M61.9373 49.9277C61.9373 56.8354 56.4626 61.6844 50.3258 61.6844C44.189 61.6844 38.7144 56.8354 38.7144 49.9277H35C35 57.7712 40.9107 64.2195 48.1457 65.3765V72.9988H52.5222V65.3765C59.7571 64.2195 65.6678 57.7542 65.6678 49.9277H61.9373Z" fill="#742061"/>
<path d="M50.334 57.6678C55.2978 57.6678 59.0962 54.3483 59.0962 50.0103V34.6575C59.0962 30.3195 55.2978 27 50.334 27C45.3702 27 41.5718 30.3195 41.5718 34.6575V50.0103C41.5718 54.3483 45.3702 57.6678 50.334 57.6678Z" fill="#FF4848"/>
</svg>
