<svg width="159" height="50" viewBox="0 0 159 50" fill="none" xmlns="http://www.w3.org/2000/svg">
<path d="M153.423 49.5H5.47938C2.7325 49.5 0.5 47.2342 0.5 44.4V5.6C0.5 2.76582 2.7325 0.5 5.47938 0.5H153.521C156.268 0.5 158.5 2.76582 158.5 5.6V44.4915C158.407 47.2322 156.17 49.5 153.423 49.5Z" fill="white" stroke="#E8EAFF"/>
<path d="M59.1996 14.9524C59.1996 15.7524 58.8996 16.4524 58.3996 16.9524C57.7996 17.5524 57.0996 17.8524 56.1996 17.8524C55.2996 17.8524 54.5996 17.5524 53.9996 16.9524C53.3996 16.3524 53.0996 15.5524 53.0996 14.6524C53.0996 13.7524 53.3996 13.0524 53.9996 12.3524C54.5996 11.7524 55.3996 11.4524 56.1996 11.4524C56.5996 11.4524 56.9996 11.5524 57.3996 11.7524C57.7996 11.9524 58.0996 12.1524 58.2996 12.4524L57.8996 13.0524C57.4996 12.5524 56.8996 12.3524 56.1996 12.3524C55.5996 12.3524 54.9996 12.5524 54.4996 13.0524C53.9996 13.4524 53.7996 14.0524 53.7996 14.7524C53.7996 15.4524 53.9996 16.0524 54.4996 16.4524C54.9996 16.8524 55.4996 17.1524 56.1996 17.1524C56.8996 17.1524 57.3996 16.9524 57.8996 16.4524C58.1996 16.1524 58.3996 15.7524 58.3996 15.2524H56.1996V14.5524H59.0996C59.1996 14.6524 59.1996 14.8524 59.1996 14.9524Z" fill="#333333"/>
<path d="M63.8994 12.4524H61.0994V14.3524H63.5994V15.0524H61.0994V17.0524H63.8994V17.7524H60.3994V11.6524H63.8994V12.4524Z" fill="#333333"/>
<path d="M67.1992 17.7524H66.3992V12.4524H64.6992V11.7524H68.8992V12.4524H67.1992V17.7524Z" fill="#333333"/>
<path d="M71.8994 17.7524V11.6524H72.6994V17.7524H71.8994Z" fill="#333333"/>
<path d="M76.0996 17.7524H75.2996V12.4524H73.5996V11.7524H77.7996V12.4524H76.0996V17.7524Z" fill="#333333"/>
<path d="M85.6994 16.9524C85.0994 17.5524 84.3994 17.8524 83.4994 17.8524C82.5994 17.8524 81.8994 17.5524 81.2994 16.9524C80.6994 16.3524 80.3994 15.5524 80.3994 14.7524C80.3994 13.8524 80.6994 13.1524 81.2994 12.5524C81.8994 11.9524 82.5994 11.6524 83.4994 11.6524C84.3994 11.6524 85.0994 11.9524 85.6994 12.5524C86.2994 13.1524 86.5994 13.9524 86.5994 14.7524C86.4994 15.6524 86.2994 16.3524 85.6994 16.9524ZM81.7994 16.4524C82.1994 16.9524 82.7994 17.1524 83.3994 17.1524C83.9994 17.1524 84.5994 16.9524 84.9994 16.4524C85.3994 15.9524 85.6994 15.4524 85.6994 14.7524C85.6994 14.0524 85.4994 13.4524 84.9994 13.0524C84.5994 12.5524 83.9994 12.3524 83.3994 12.3524C82.7994 12.3524 82.1994 12.5524 81.7994 13.0524C81.3994 13.5524 81.0994 14.0524 81.0994 14.7524C81.0994 15.4524 81.2994 16.0524 81.7994 16.4524Z" fill="#333333"/>
<path d="M87.5996 17.7524V11.6524H88.4996L91.3996 16.3524V15.1524V11.6524H92.1996V17.7524H91.4996L88.3996 12.8524V14.0524V17.8524H87.5996V17.7524Z" fill="#333333"/>
<path d="M80.0998 26.6524C78.8998 26.6524 77.7998 27.1524 76.9998 27.8524C76.1998 28.6524 75.7998 29.6524 75.7998 30.9524C75.7998 32.2524 76.2998 33.3524 77.1998 34.1524C77.9998 34.8524 78.9998 35.2524 80.0998 35.2524C81.1998 35.2524 82.0998 34.8524 82.8998 34.2524C83.7998 33.4524 84.3998 32.3524 84.3998 30.9524C84.3998 29.9524 84.0998 29.0524 83.4998 28.3524C82.7998 27.2524 81.4998 26.6524 80.0998 26.6524ZM80.0998 33.5524C78.7998 33.5524 77.6998 32.4524 77.6998 30.9524C77.6998 29.4524 78.7998 28.3524 80.0998 28.3524C81.3998 28.3524 82.4998 29.4524 82.4998 30.9524C82.5998 32.4524 81.3998 33.5524 80.0998 33.5524ZM70.6998 26.6524C69.7998 26.6524 68.9998 26.9524 68.2998 27.3524C67.1998 28.0524 66.3998 29.3524 66.3998 30.9524C66.3998 32.1524 66.8998 33.2524 67.6998 34.0524C68.4998 34.8524 69.5998 35.2524 70.6998 35.2524C71.6998 35.2524 72.5998 34.9524 73.2998 34.3524C74.2998 33.5524 74.9998 32.3524 74.9998 30.9524C74.9998 30.1524 74.7998 29.3524 74.3998 28.7524C73.6998 27.4524 72.2998 26.6524 70.6998 26.6524ZM70.6998 33.5524C69.3998 33.5524 68.2998 32.4524 68.2998 30.9524C68.2998 29.4524 69.3998 28.3524 70.6998 28.3524C71.9998 28.3524 73.0998 29.4524 73.0998 30.9524C73.1998 32.4524 71.9998 33.5524 70.6998 33.5524ZM59.4998 27.9524V29.7524H61.7998H63.8998C63.7998 30.7524 63.3998 31.5524 62.8998 32.0524C62.2998 32.6524 61.2998 33.3524 59.4998 33.3524C56.7998 33.3524 54.6998 31.1524 54.6998 28.5524C54.6998 25.8524 56.7998 23.7524 59.4998 23.7524C60.8998 23.7524 61.9998 24.3524 62.7998 25.0524L64.0998 23.7524C62.9998 22.7524 61.5998 21.9524 59.4998 21.9524C58.2998 21.9524 57.0998 22.2524 56.0998 22.8524C54.0998 24.0524 52.7998 26.1524 52.7998 28.5524C52.7998 31.0524 54.1998 33.2524 56.2998 34.3524C57.2998 34.8524 58.3998 35.1524 59.5998 35.1524C61.5998 35.1524 63.0998 34.4524 64.2998 33.2524C65.4998 32.0524 65.8998 30.3524 65.8998 28.9524C65.8998 28.5524 65.8998 28.1524 65.7998 27.8524H62.4998H59.4998V27.9524ZM105.3 29.3524C104.9 28.3524 103.9 26.6524 101.6 26.6524C100.6 26.6524 99.7998 26.9524 99.0998 27.5524C98.1998 28.3524 97.5998 29.4524 97.5998 30.9524C97.5998 33.3524 99.3998 35.2524 101.9 35.2524C103.9 35.2524 105 34.0524 105.5 33.3524L104 32.3524C103.5 33.0524 102.8 33.5524 101.9 33.5524C100.9 33.5524 100.3 33.1524 99.7998 32.2524L105.5 29.8524L105.3 29.3524ZM99.3998 30.7524C99.3998 29.0524 100.7 28.2524 101.6 28.2524C102.3 28.2524 103 28.6524 103.2 29.1524L101.2 29.9524L99.3998 30.7524ZM94.7998 34.9524H96.6998V22.3524H94.7998V34.9524ZM91.6998 27.5524C91.1998 27.0524 90.3998 26.5524 89.3998 26.5524C88.3998 26.5524 87.4998 26.9524 86.6998 27.6524C85.7998 28.4524 85.2998 29.5524 85.2998 30.8524C85.2998 32.3524 86.0998 33.6524 87.1998 34.4524C87.8998 34.9524 88.5998 35.1524 89.3998 35.1524C90.3998 35.1524 91.1998 34.6524 91.6998 34.1524H91.7998V34.7524C91.7998 36.3524 90.8998 37.2524 89.4998 37.2524C88.2998 37.2524 87.5998 36.4524 87.2998 35.7524L85.6998 36.4524C86.1998 37.5524 87.3998 38.9524 89.4998 38.9524C91.6998 38.9524 93.5998 37.6524 93.5998 34.4524V26.7524H91.7998V27.5524H91.6998ZM89.4998 33.5524C88.1998 33.5524 87.0998 32.4524 87.0998 30.9524C87.0998 29.4524 88.1998 28.3524 89.4998 28.3524C90.7998 28.3524 91.7998 29.4524 91.7998 30.9524C91.7998 32.4524 90.7998 33.5524 89.4998 33.5524ZM114.1 22.3524H109.6V34.9524H111.5V30.1524H114.1C115.3 30.1524 116.5 29.6524 117.3 28.7524C117.9 28.0524 118.3 27.2524 118.3 26.2524C118.3 25.2524 117.9 24.3524 117.4 23.7524C116.5 22.8524 115.3 22.3524 114.1 22.3524ZM114.2 28.3524H111.5V24.0524H114.2C115.6 24.0524 116.4 25.2524 116.4 26.2524C116.4 27.2524 115.6 28.3524 114.2 28.3524ZM125.8 26.5524C124.4 26.5524 123 27.1524 122.4 28.4524L124.1 29.1524C124.5 28.4524 125.1 28.2524 125.8 28.2524C126.8 28.2524 127.8 28.8524 127.8 29.8524V30.0524C127.5 29.8524 126.7 29.5524 125.8 29.5524C125 29.5524 124.2 29.7524 123.6 30.0524C122.8 30.5524 122.2 31.2524 122.2 32.3524C122.2 33.2524 122.6 34.0524 123.3 34.4524C123.9 34.8524 124.6 35.0524 125.3 35.0524C126.6 35.0524 127.3 34.4524 127.7 33.8524H127.8V34.8524H129.6V31.8524V30.0524C129.6 28.7524 129 27.7524 128.1 27.1524C127.5 26.7524 126.7 26.5524 125.8 26.5524ZM125.6 33.5524C125 33.5524 124.1 33.2524 124.1 32.4524C124.1 31.4524 125.2 31.1524 126.1 31.1524C126.9 31.1524 127.3 31.3524 127.8 31.5524C127.7 32.6524 126.7 33.5524 125.6 33.5524ZM136.3 26.8524L135.4 29.1524L134.1 32.3524H134L131.8 26.8524H129.8L131.4 30.5524L133.1 34.5524L131.2 38.8524H133.2L136.9 30.4524L138.4 26.9524H136.3V26.8524ZM119.3 34.9524H121.2V22.3524H119.3V34.9524Z" fill="#333333"/>
<path d="M38.5004 20.0524L23.5004 11.2524C22.7004 10.7524 21.8004 11.0524 21.4004 11.6524L34.1004 24.4524L38.5004 20.0524Z" fill="url(#paint0_linear_723_2726)"/>
<path d="M21 36.2524C21 36.6524 21.1 36.9524 21.3 37.1524L34 24.4524L21.3 11.7524C21.1 12.0524 21 12.3524 21 12.7524V36.2524Z" fill="url(#paint1_linear_723_2726)"/>
<path d="M38.3996 28.8524L43.4996 25.8524C44.5996 25.2524 44.5996 23.6524 43.4996 23.0524L38.4996 20.0524L34.0996 24.4524L38.3996 28.8524Z" fill="url(#paint2_linear_723_2726)"/>
<path d="M21.2998 37.1524C21.7998 37.8524 22.6998 38.0524 23.4998 37.6524L38.3998 28.8524L33.9998 24.4524L21.2998 37.1524Z" fill="url(#paint3_linear_723_2726)"/>
<defs>
<linearGradient id="paint0_linear_723_2726" x1="1.02139" y1="-6.67316" x2="31.9664" y2="18.7508" gradientUnits="userSpaceOnUse">
<stop stop-color="#32A071"/>
<stop offset="0.0685" stop-color="#2DA771"/>
<stop offset="0.4762" stop-color="#15CF74"/>
<stop offset="0.8009" stop-color="#06E775"/>
<stop offset="1" stop-color="#00F076"/>
</linearGradient>
<linearGradient id="paint1_linear_723_2726" x1="42.9315" y1="24.3176" x2="19.8251" y2="24.4539" gradientUnits="userSpaceOnUse">
<stop stop-color="#00A0FF"/>
<stop offset="0.00657445" stop-color="#00A1FF"/>
<stop offset="0.2601" stop-color="#00BEFF"/>
<stop offset="0.5122" stop-color="#00D2FF"/>
<stop offset="0.7604" stop-color="#00DFFF"/>
<stop offset="1" stop-color="#00E3FF"/>
</linearGradient>
<linearGradient id="paint2_linear_723_2726" x1="46.1673" y1="25.0902" x2="25.3101" y2="23.4543" gradientUnits="userSpaceOnUse">
<stop stop-color="#FFE000"/>
<stop offset="0.4087" stop-color="#FFBD00"/>
<stop offset="0.7754" stop-color="#FFA500"/>
<stop offset="1" stop-color="#FF9C00"/>
</linearGradient>
<linearGradient id="paint3_linear_723_2726" x1="43.4517" y1="21.9047" x2="3.30501" y2="48.5556" gradientUnits="userSpaceOnUse">
<stop stop-color="#FF3A44"/>
<stop offset="1" stop-color="#C31162"/>
</linearGradient>
</defs>
</svg>
