<svg width="100" height="100" viewBox="0 0 100 100" fill="none" xmlns="http://www.w3.org/2000/svg">
<path d="M96 50C96 75.4051 75.4051 96 50 96C24.5949 96 4 75.4051 4 50C4 24.5949 24.5949 4 50 4C75.4051 4 96 24.5949 96 50Z" fill="white" stroke="#E9F2FF" stroke-width="4"/>
<path d="M28.6938 56.8643C29.5853 56.8643 30.2984 57.4884 30.3876 58.3798V58.6473V66.6705V66.938C30.5659 68.2752 31.6357 69.345 32.9729 69.5233H33.2403H41.2636H41.531C42.3333 69.6124 43.0465 70.3256 43.0465 71.2171C43.0465 72.1085 42.4225 72.8217 41.531 72.9109H41.2636H33.2403H32.8837C29.6744 72.7326 27.1783 70.1473 27 67.0271V66.6705V58.6473V58.3798C27.0891 57.4884 27.8915 56.8643 28.6938 56.8643ZM71.1279 56.8643C72.0194 56.8643 72.7326 57.4884 72.8217 58.3798V58.6473V66.6705C72.8217 70.0581 70.2364 72.7326 66.938 73H66.5814H58.5581C57.5775 73 56.8643 72.1977 56.8643 71.3062C56.8643 70.4147 57.4884 69.7015 58.3798 69.6124H58.6473H66.6705C68.186 69.6124 69.345 68.4535 69.5233 67.0271V66.7597V58.7364C69.4341 57.5775 70.2364 56.8643 71.1279 56.8643ZM41.3527 27C42.3333 27 43.0465 27.8023 43.0465 28.6938C43.0465 29.5853 42.4225 30.2984 41.531 30.3876H41.2636H33.2403C31.7248 30.3876 30.5659 31.5465 30.3876 32.9729V33.2403V41.2636C30.4767 42.3333 29.6744 43.0465 28.6938 43.0465C27.8023 43.0465 27.0891 42.4225 27 41.531V41.2636V33.2403C27 29.9419 29.5853 27.1783 32.8837 27H33.2403H41.3527ZM66.5814 27H66.938C70.1473 27.1783 72.6434 29.7636 72.8217 32.8837V33.2403V41.2636V41.531C72.7326 42.3333 72.0194 43.0465 71.1279 43.0465C70.2364 43.0465 69.5233 42.4225 69.4341 41.531V41.2636V33.2403V32.9729C69.2558 31.6357 68.186 30.5659 66.8488 30.3876H66.5814H58.5581H58.2907C57.4884 30.2984 56.7752 29.5853 56.7752 28.6938C56.7752 27.8023 57.3992 27.0891 58.2907 27H58.5581H66.5814Z" fill="url(#paint0_linear_3136_4437)"/>
<path d="M49.9114 35.8257C57.7564 35.8257 64.0859 42.1551 64.0859 50.0001C64.0859 57.8451 57.7564 64.1745 49.9114 64.1745C42.0665 64.1745 35.8262 57.7559 35.8262 49.911C35.8262 42.066 42.1556 35.8257 49.9114 35.8257ZM49.9114 38.5892C43.6711 38.5892 38.5897 43.6706 38.5897 49.911C38.5897 56.1513 43.6711 61.2327 49.9114 61.2327C56.1518 61.2327 61.2332 56.1513 61.2332 49.911C61.2332 43.6706 56.2409 38.5892 49.9114 38.5892ZM49.9114 42.8683C53.8339 42.8683 56.9541 46.0776 56.9541 49.911C56.9541 53.7443 53.7448 56.9536 49.9114 56.9536C46.0781 56.9536 42.8688 53.7443 42.8688 49.911C42.8688 49.1978 42.958 48.4846 43.2254 47.8606C44.0277 49.6435 46.0781 50.4458 47.8611 49.6435C49.1091 49.1086 50.0006 47.7714 49.9114 46.4342C49.9114 45.0079 49.1091 43.7598 47.8611 43.2249C48.4851 42.9575 49.1983 42.8683 49.9114 42.8683Z" fill="url(#paint1_radial_3136_4437)"/>
<defs>
<linearGradient id="paint0_linear_3136_4437" x1="49.9109" y1="27" x2="49.9109" y2="73" gradientUnits="userSpaceOnUse">
<stop stop-color="#DA5BC5"/>
<stop offset="0.86" stop-color="#7343E5"/>
</linearGradient>
<radialGradient id="paint1_radial_3136_4437" cx="0" cy="0" r="1" gradientUnits="userSpaceOnUse" gradientTransform="translate(48 48.0001) rotate(64.8852) scale(17.6706 17.615)">
<stop offset="0.075" stop-color="#D65AC6"/>
<stop offset="0.775" stop-color="#7343E5"/>
</radialGradient>
</defs>
</svg>
