<svg width="159" height="50" viewBox="0 0 159 50" fill="none" xmlns="http://www.w3.org/2000/svg">
<path d="M153.423 49.5H5.47938C2.7325 49.5 0.5 47.2342 0.5 44.4V5.6C0.5 2.76582 2.7325 0.5 5.47938 0.5H153.521C156.268 0.5 158.5 2.76582 158.5 5.6V44.4915C158.407 47.2322 156.17 49.5 153.423 49.5Z" fill="white" stroke="#E8EAFF"/>
<path d="M60.2 11.5C62.2 11.5 63.4 12.7 63.4 14.8C63.4 16.9 62.2 18.1 60.2 18.1H58V11.4H60.2V11.5ZM58.8 17.5H60.2C61.7 17.5 62.6 16.6 62.6 14.9C62.6 13.2 61.8 12.3 60.2 12.3H58.8V17.5Z" fill="#333333"/>
<path d="M64.5 15.8C64.5 14.3 65.4 13.3 66.7 13.3C68 13.3 68.9 14.3 68.9 15.8C68.9 17.3 68 18.3 66.7 18.3C65.4 18.3 64.5 17.3 64.5 15.8ZM68.1 15.8C68.1 14.7 67.5 14 66.7 14C65.8 14 65.3 14.6 65.3 15.8C65.3 16.9 65.9 17.6 66.7 17.6C67.6 17.6 68.1 16.9 68.1 15.8Z" fill="#333333"/>
<path d="M75.0004 18.2H74.2004L73.1004 14.5L72.0004 18.2H71.2004L69.9004 13.4H70.7004L71.7004 17.3L72.8004 13.4H73.6004L74.7004 17.3L75.7004 13.4H76.5004L75.0004 18.2Z" fill="#333333"/>
<path d="M77.5 13.4H78.3V14.2C78.6 13.7 79.1 13.3 79.8 13.3C80.9 13.3 81.5 14 81.5 15.1V18.2H80.7V15.2C80.7 14.4 80.3 14 79.6 14C78.8 14 78.3 14.5 78.3 15.4V18.2H77.5V13.4V13.4Z" fill="#333333"/>
<path d="M83 11.5H83.8V18.2H83V11.5Z" fill="#333333"/>
<path d="M85.0996 15.8C85.0996 14.3 85.9996 13.3 87.2996 13.3C88.5996 13.3 89.4996 14.3 89.4996 15.8C89.4996 17.3 88.5996 18.3 87.2996 18.3C85.9996 18.3 85.0996 17.3 85.0996 15.8ZM88.7996 15.8C88.7996 14.7 88.1996 14 87.3996 14C86.5996 14 85.9996 14.6 85.9996 15.8C85.9996 16.9 86.5996 17.6 87.3996 17.6C88.1996 17.6 88.7996 16.9 88.7996 15.8Z" fill="#333333"/>
<path d="M90.7002 16.9C90.7002 16.1 91.3002 15.6 92.4002 15.5L93.8002 15.4V15C93.8002 14.4 93.4002 14.1 92.7002 14.1C92.1002 14.1 91.7002 14.4 91.6002 14.9H90.8002C90.9002 14.1 91.6002 13.4 92.7002 13.4C93.8002 13.4 94.5002 14 94.5002 15V18.3H93.7002V17.5C93.4002 18.1 92.8002 18.4 92.2002 18.4C91.3002 18.3 90.7002 17.7 90.7002 16.9ZM93.8002 16.4V16L92.5002 16.1C91.9002 16.1 91.5002 16.4 91.5002 16.9C91.5002 17.4 91.9002 17.7 92.5002 17.7C93.2002 17.6 93.8002 17.1 93.8002 16.4Z" fill="#333333"/>
<path d="M95.9004 15.8C95.9004 14.3 96.7004 13.3 97.9004 13.3C98.6004 13.3 99.1004 13.6 99.4004 14.2V11.6H100.2V18.3H99.4004V17.5C99.1004 18.1 98.5004 18.4 97.8004 18.4C96.7004 18.3 95.9004 17.3 95.9004 15.8ZM96.7004 15.8C96.7004 16.9 97.2004 17.6 98.1004 17.6C98.9004 17.6 99.5004 16.9 99.5004 15.8C99.5004 14.7 98.9004 14 98.1004 14C97.2004 14 96.7004 14.7 96.7004 15.8Z" fill="#333333"/>
<path d="M104 15.8C104 14.3 104.9 13.3 106.2 13.3C107.5 13.3 108.4 14.3 108.4 15.8C108.4 17.3 107.5 18.3 106.2 18.3C104.9 18.3 104 17.3 104 15.8ZM107.6 15.8C107.6 14.7 107 14 106.2 14C105.3 14 104.8 14.6 104.8 15.8C104.8 16.9 105.4 17.6 106.2 17.6C107.1 17.6 107.6 16.9 107.6 15.8Z" fill="#333333"/>
<path d="M109.7 13.4H110.5V14.2C110.8 13.7 111.3 13.3 112 13.3C113.1 13.3 113.7 14 113.7 15.1V18.2H112.9V15.2C112.9 14.4 112.5 14 111.8 14C111 14 110.5 14.5 110.5 15.4V18.2H109.7V13.4V13.4Z" fill="#333333"/>
<path d="M118.7 12.2V13.4H119.6V14.1H118.7V17C118.7 17.4 118.9 17.6 119.3 17.6C119.4 17.6 119.6 17.6 119.6 17.6V18.3C119.5 18.3 119.3 18.3 119.1 18.3C118.2 18.3 117.9 17.9 117.9 17V14.1H117.2V13.4H117.9V12.2H118.7V12.2Z" fill="#333333"/>
<path d="M121 11.5H121.8V14.1C122.1 13.6 122.6 13.2 123.3 13.2C124.4 13.2 125 13.9 125 15V18.1H124.2V15.1C124.2 14.3 123.8 13.9 123.1 13.9C122.3 13.9 121.8 14.4 121.8 15.3V18.1H121V11.5Z" fill="#333333"/>
<path d="M130.5 16.8C130.4 17.6 129.5 18.3 128.5 18.3C127.1 18.3 126.3 17.3 126.3 15.8C126.3 14.3 127.2 13.3 128.5 13.3C129.8 13.3 130.6 14.2 130.6 15.7V16H127.1C127.1 16.9 127.6 17.5 128.5 17.5C129.1 17.5 129.6 17.2 129.7 16.7H130.5V16.8ZM127.1 15.4H129.7C129.7 14.6 129.2 14 128.4 14C127.7 14 127.2 14.6 127.1 15.4Z" fill="#333333"/>
<path d="M62.0996 23.6H64.1996L68.6996 36H66.6996L65.5996 32.6H60.7996L59.5996 36H57.5996L62.0996 23.6ZM61.2996 31.1H64.9996L63.0996 25.6L61.2996 31.1Z" fill="#333333"/>
<path d="M70.6996 26.9H72.5996V28.5C73.0996 27.4 74.0996 26.8 75.3996 26.8C77.6996 26.8 79.1996 28.6 79.1996 31.5C79.1996 34.4 77.6996 36.2 75.3996 36.2C74.0996 36.2 73.0996 35.5 72.4996 34.5V39H70.5996V26.9H70.6996ZM77.2996 31.5C77.2996 29.6 76.3996 28.4 74.8996 28.4C73.4996 28.4 72.4996 29.6 72.4996 31.5C72.4996 33.4 73.4996 34.6 74.8996 34.6C76.3996 34.6 77.2996 33.4 77.2996 31.5Z" fill="#333333"/>
<path d="M81.6 26.9H83.5V28.5C84 27.4 85 26.8 86.3 26.8C88.6 26.8 90.1 28.6 90.1 31.5C90.1 34.4 88.6 36.2 86.3 36.2C85 36.2 84 35.5 83.4 34.5V39H81.5V26.9H81.6ZM88.2 31.5C88.2 29.6 87.3 28.4 85.8 28.4C84.4 28.4 83.4 29.6 83.4 31.5C83.4 33.4 84.4 34.6 85.8 34.6C87.3 34.6 88.2 33.4 88.2 31.5Z" fill="#333333"/>
<path d="M96.5 32.7V32.6H98.4V32.7C98.6 33.8 99.7 34.6 101.4 34.6C103.1 34.6 104.1 33.9 104.1 32.7C104.1 31.7 103.4 31.2 101.8 30.8L100.4 30.5C98 30 96.8 28.9 96.8 27C96.8 24.9 98.7 23.4 101.3 23.4C103.9 23.4 105.7 24.8 105.8 26.9V27H103.9V26.9C103.7 25.7 102.7 25 101.3 25C99.8 25 98.8 25.7 98.8 26.8C98.8 27.7 99.5 28.3 101.1 28.6L102.5 28.9C105.1 29.4 106.2 30.5 106.2 32.4C106.2 34.7 104.4 36.1 101.5 36.1C98.5 36.2 96.7 34.9 96.5 32.7Z" fill="#333333"/>
<path d="M108.999 33.6V28.4H107.699V26.9H108.999V24.5H110.899V26.9H112.599V28.4H110.899V33.5C110.899 34.4 111.299 34.7 112.099 34.7C112.299 34.7 112.499 34.7 112.599 34.7V36.1C112.399 36.1 111.999 36.2 111.699 36.2C109.799 36.2 108.999 35.4 108.999 33.6Z" fill="#333333"/>
<path d="M114.399 31.5C114.399 28.6 116.099 26.8 118.699 26.8C121.299 26.8 122.999 28.6 122.999 31.5C122.999 34.4 121.299 36.2 118.699 36.2C116.099 36.2 114.399 34.4 114.399 31.5ZM120.999 31.5C120.999 29.5 120.099 28.4 118.599 28.4C117.199 28.4 116.199 29.5 116.199 31.5C116.199 33.5 117.099 34.7 118.599 34.7C120.099 34.6 120.999 33.5 120.999 31.5Z" fill="#333333"/>
<path d="M125.3 26.9H127.2V28.4C127.5 27.3 128.3 26.7 129.3 26.7C129.6 26.7 129.8 26.7 129.9 26.8V28.5C129.8 28.4 129.4 28.4 129.1 28.4C127.9 28.4 127.2 29.2 127.2 30.5V36H125.3V26.9V26.9Z" fill="#333333"/>
<path d="M131.1 31.5C131.1 28.7 132.7 26.8 135.3 26.8C137.8 26.8 139.4 28.6 139.4 31.3V31.9H133C133 33.6 134 34.6 135.5 34.6C136.6 34.6 137.3 34 137.6 33.4V33.3H139.4V33.4C139.1 34.8 137.7 36.1 135.5 36.1C132.8 36.2 131.1 34.4 131.1 31.5ZM133 30.6H137.5C137.3 29 136.5 28.3 135.3 28.3C134.1 28.3 133.2 29.1 133 30.6Z" fill="#333333"/>
<path d="M41 21.1C39.8 21.9 39.1 22.7 38.6 23.5C38.2 24.3 38 25.2 38 26.1C38 26.8 38.1 27.5 38.4 28.2C38.6 28.8 39 29.4 39.4 30C39.9 30.6 40.6 31.1 41.7 31.7C41.3 32.9 40.7 34.1 39.8 35.4C38.9 36.7 38.2 37.5 37.5 38.1C36.8 38.6 36.1 38.9 35.5 38.9C35 38.9 34.3 38.7 33.4 38.4L33 38.2L32.3 37.9C31.8 37.8 31.3 37.7 30.8 37.7C30.2 37.7 29.6 37.8 28.8 38.1L28.3 38.3L27.7 38.6C27.2 38.8 26.7 38.9 26.2 38.9C25.1 38.9 24 38.1 22.7 36.6C21.5 35.1 20.5 33.5 19.9 31.7C19.3 30 19 28.2 19 26.5C19 24.2 19.6 22.3 20.9 20.8C22.2 19.3 23.9 18.5 26.2 18.5C27 18.5 27.8 18.6 28.5 18.9L29 19.1L29.5 19.3C30 19.5 30.3 19.6 30.6 19.6C31 19.6 31.4 19.5 31.8 19.4L32.5 19.1L33 18.9C33.8 18.6 34.7 18.5 35.6 18.5C37.8 18.5 39.6 19.4 41 21.1ZM35.6 11C35.6 11.3 35.6 11.6 35.6 11.7C35.6 12.6 35.3 13.5 34.8 14.4C34.3 15.3 33.6 16.1 32.8 16.6C32 17.1 31.1 17.4 30.1 17.4C30.1 17.1 30 16.8 30 16.7C30 16 30.2 15.2 30.7 14.3C31.1 13.5 31.7 12.8 32.5 12.2C33.3 11.6 34.1 11.3 35.1 11.1C35.3 11 35.4 11 35.6 11Z" fill="#333333"/>
</svg>
