<svg width="100" height="100" viewBox="0 0 100 100" fill="none" xmlns="http://www.w3.org/2000/svg">
<path d="M49.8516 97.7031C76.2793 97.7031 97.7031 76.2793 97.7031 49.8516C97.7031 23.4239 76.2793 2 49.8516 2C23.4239 2 2 23.4239 2 49.8516C2 76.2793 23.4239 97.7031 49.8516 97.7031Z" fill="#F1C14C"/>
<path d="M71.1037 45.12C71.3117 46.608 69.9197 52.944 69.3277 54.816C68.7837 56.576 67.9517 58.016 66.7357 59.424C65.5677 60.784 64.7997 61.952 63.5357 63.216C62.2077 64.544 61.3597 66.336 61.1517 68.208C61.0557 69.12 61.3277 72.448 60.8157 73.216C60.5117 73.664 60.2397 74.336 59.0397 74.336C57.0077 74.336 52.7837 74.72 50.5437 74.704C47.6477 74.784 42.5117 73.984 41.1517 73.968C40.1117 73.968 39.7757 70.096 39.5357 69.088C39.3117 68.08 39.2317 67.024 38.7677 66.096C38.3037 65.152 37.4877 64.448 36.7517 63.712C33.0237 60.032 30.6397 55.184 29.0557 50.192C28.4957 48.4 28.8797 41.184 30.5117 38.272C31.6957 36.176 32.9437 34.208 34.4477 32.32C36.0157 30.336 38.1917 29.008 40.4157 27.792C42.5917 26.608 46.6397 25.664 49.1037 25.392C53.3597 24.912 57.1837 25.264 62.0797 28.8C65.1517 31.008 67.6637 33.424 69.1677 37.776C70.1437 40.528 70.8317 43.12 71.1037 45.12Z" fill="#FFBD58"/>
<path d="M69.8238 39.6799C69.6318 39.0399 69.4238 38.3999 69.1838 37.7439C67.6798 33.4079 65.1678 30.9759 62.0958 28.7679C57.1838 25.2319 53.3758 24.8799 49.1198 25.3599C46.6558 25.6319 42.6078 26.5599 40.4318 27.7599C38.2078 28.9759 36.0318 30.3039 34.4638 32.2879C32.9758 34.1919 31.7118 36.1439 30.5278 38.2399C28.8958 41.1519 28.5118 48.3839 29.0718 50.1599C30.6558 55.1519 33.0398 59.9999 36.7678 63.6799C37.5198 64.4159 38.3198 65.1199 38.7838 66.0639C39.2478 66.9919 39.3278 68.0479 39.5518 69.0559C39.7918 70.0639 40.1438 73.9359 41.1678 73.9359C41.5998 73.9359 42.3838 74.0159 43.3758 74.1279C43.4878 71.7599 43.3118 66.4319 41.7278 64.6079C33.0238 54.6079 31.2478 41.1679 39.1038 34.7359C47.5358 27.8559 60.6718 27.8079 69.8238 39.6799Z" fill="#FFF9C6"/>
<path d="M52.0478 24.272C46.9918 24.224 41.7278 25.616 37.5198 28.4C30.2078 33.232 25.7438 43.792 28.8158 52.272C29.9678 55.424 31.4398 58.48 33.4238 61.184C34.3358 62.416 35.3758 63.488 36.3998 64.608C37.9678 66.32 38.2078 67.888 38.8318 69.952C39.0718 70.736 39.3598 73.616 39.7278 74C38.9758 74.72 38.5758 76.096 39.2318 77.12C39.2478 77.136 39.2638 77.152 39.2638 77.168C37.8878 78.944 38.5118 80.352 40.0158 80.992C37.7438 84.272 42.3518 85.36 46.8798 85.408C46.9598 86.096 47.0398 86.864 47.3278 87.456C47.7438 88.304 48.8958 88.384 49.7278 88.368C50.6878 88.352 52.0638 88.272 52.8958 87.76C53.7278 87.264 53.8718 86.048 53.9358 85.104C56.0798 85.008 59.8878 85.312 61.4878 83.632C62.2718 82.8 62.0478 81.536 61.4078 80.832C62.6238 80.176 63.0558 78.848 61.9038 77.296C62.4318 76.512 62.2238 75.152 61.2158 74.176C61.3758 73.984 61.5358 73.776 61.6638 73.504C62.2558 72.304 61.9358 68.752 62.1918 67.472C62.6398 65.312 64.1598 63.92 65.5198 62.32C67.1998 60.336 68.9598 58.32 69.9038 55.856C73.1198 47.504 72.4158 37.168 65.7758 30.592C62.1278 27.008 57.2798 24.336 52.0478 24.272ZM42.0478 74.928C44.8638 75.264 47.7278 75.616 50.5598 75.6C53.0718 75.584 55.5998 75.408 58.1118 75.248C58.8158 75.2 59.4558 75.152 60.0158 74.992C61.9038 76.752 56.6238 77.536 55.3438 77.568C53.7598 77.616 52.1758 77.568 50.5758 77.52C48.8478 77.456 47.1358 77.408 45.4078 77.296C44.6078 77.248 38.3678 75.936 40.9918 74.736C41.3118 74.816 41.6478 74.88 42.0478 74.928ZM46.9118 61.104C46.7358 57.888 46.8158 54.528 46.0958 51.376C47.5038 50.928 48.8318 50.256 49.9198 49.536C51.0718 50.512 52.4478 51.264 53.8718 51.664C52.0958 57.856 52.4318 67.584 52.8158 73.792C52.0478 73.776 51.2798 73.76 50.5918 73.76C49.5518 73.76 48.5118 73.712 47.4718 73.632C47.2638 70.24 47.0878 64.512 46.9118 61.104ZM49.0878 46.384C48.4158 45.248 47.8398 43.296 49.1198 42.256C50.6558 41.008 51.5518 42.496 51.7918 43.92C52.0478 45.408 51.3438 46.736 50.1598 47.808C49.7438 47.36 49.3758 46.896 49.0878 46.384ZM56.2398 80.592C54.3198 80.672 52.3838 80.608 50.4638 80.592C48.8318 80.576 47.1998 80.56 45.5678 80.48C44.4158 80.416 38.9118 80.24 40.3518 78.08C42.5918 79.168 46.8638 78.768 48.6238 78.832C52.2718 78.976 56.2718 79.376 59.8718 78.528C60.2398 78.448 60.5438 78.336 60.8318 78.208C61.8878 80.016 57.0558 80.544 56.2398 80.592ZM51.8238 86.736C51.2318 86.96 50.3678 87.008 49.7438 87.024C49.1998 87.024 48.7678 87.088 48.5278 86.656C48.3678 86.368 48.3038 85.872 48.2558 85.456C49.9358 85.424 51.5038 85.328 52.5598 85.248C52.5118 85.84 52.3678 86.528 51.8238 86.736ZM56.7038 83.584C55.1358 83.712 53.5678 83.776 51.9998 83.856C50.4958 83.936 48.9758 84.016 47.4718 84.032C46.9598 84.048 39.7118 83.76 41.2958 81.6C41.3278 81.552 41.3598 81.488 41.3758 81.44C44.4798 82.16 49.1518 81.936 50.4638 81.952C51.5358 81.968 56.6558 82.24 59.9038 81.408C61.9518 82.56 57.3118 83.536 56.7038 83.584ZM68.9278 52.784C68.2718 55.456 67.1518 57.408 65.4398 59.552C64.0158 61.328 62.1438 62.96 61.1518 65.04C60.0318 67.344 60.7198 72.64 57.7758 73.424C56.7038 73.712 55.4398 73.792 54.1758 73.792C53.9678 70.16 53.9198 64.16 54.1598 60.528C54.3358 57.824 54.4478 54.72 55.1838 51.936C55.5358 51.984 55.8718 52.016 56.2238 52C59.0078 51.968 63.7758 49.84 62.2878 46.128C61.8078 44.928 60.3038 44.688 59.1678 44.848C56.8478 45.152 55.4238 47.408 54.6398 49.392C54.5118 49.696 54.3998 50.016 54.2878 50.336C53.9198 50.24 53.5678 50.112 53.2478 49.968C52.4798 49.616 51.7438 49.168 51.0718 48.64C53.6158 46.368 54.6718 42.752 51.3438 40.416C48.9278 38.72 46.6558 42.64 46.9918 44.768C47.2318 46.208 47.9678 47.552 48.9918 48.672C48.0158 49.296 46.8638 49.776 45.7278 50.08C44.8478 47.232 42.9438 43.76 39.4718 45.008C37.3438 45.776 37.4238 48.496 38.6718 50.048C40.1438 51.856 42.4158 52.16 44.7038 51.728C45.2798 54.416 45.2958 57.216 45.4398 59.952C45.6318 63.696 45.8398 69.776 46.0318 73.52C45.6318 73.488 45.2478 73.44 44.8478 73.392C44.0638 73.312 43.0878 73.328 42.3198 73.12C40.7198 72.672 40.5758 69.36 40.2078 67.808C39.2158 63.616 35.2158 61.088 33.1038 57.392C30.9918 53.696 29.4878 50.016 29.7598 45.76C30.0478 41.008 31.7118 37.36 34.5758 33.584C40.6558 25.6 53.5678 23.856 61.5838 29.568C65.9838 32.704 68.1278 36.8 69.4718 41.984C70.4958 45.76 69.8398 49.04 68.9278 52.784ZM55.6158 50.56C55.7918 50.064 55.9998 49.6 56.2238 49.136C57.0718 47.488 57.4398 47.04 59.3438 46.928C60.8158 46.848 61.6158 46.832 60.8158 48.32C59.8078 50.176 57.6318 50.752 55.6158 50.56ZM44.3678 50.352C43.2638 50.496 42.2238 50.464 41.4078 50.192C40.3198 49.824 38.7038 48.56 39.2478 47.184C40.4798 44.016 43.6478 48.288 44.0798 49.44C44.1758 49.728 44.2718 50.032 44.3678 50.352Z" fill="#202E5B"/>
<path d="M79.8716 29.28C77.5676 30.32 75.2156 31.296 73.1356 32.768C72.4156 33.28 73.1036 34.48 73.8236 33.952C75.8876 32.464 78.2556 31.504 80.5596 30.464C81.3756 30.112 80.6716 28.912 79.8716 29.28Z" fill="#202E5B"/>
<path d="M63.9196 23.6959C65.4876 21.6959 66.6716 19.5039 67.9036 17.2959C68.3356 16.5279 67.1516 15.8239 66.7196 16.6079C65.5516 18.7039 64.4316 20.8159 62.9436 22.7199C62.4156 23.4079 63.3756 24.3839 63.9196 23.6959Z" fill="#202E5B"/>
<path d="M50.2878 19.488C50.4478 17.088 50.5278 14.688 50.5118 12.272C50.5118 11.392 49.1358 11.376 49.1358 12.272C49.1518 14.688 49.0718 17.088 48.9118 19.488C48.8478 20.368 50.2398 20.368 50.2878 19.488Z" fill="#202E5B"/>
<path d="M35.9676 23.744C36.4636 24.48 37.6476 23.792 37.1516 23.056C35.6956 20.864 34.0476 18.72 33.1196 16.24C32.8156 15.424 31.4716 15.776 31.7916 16.608C32.7676 19.2 34.4316 21.44 35.9676 23.744Z" fill="#202E5B"/>
<path d="M26.6238 32.5759C24.5438 31.0399 22.3038 29.8239 19.9038 28.8639C19.0878 28.5279 18.7198 29.8719 19.5358 30.1919C21.8238 31.1039 23.9518 32.3039 25.9358 33.7759C26.6398 34.2879 27.3278 33.1039 26.6238 32.5759Z" fill="#202E5B"/>
</svg>
