<svg width="100" height="100" viewBox="0 0 100 100" fill="none" xmlns="http://www.w3.org/2000/svg">
<path d="M96 50C96 75.4051 75.4051 96 50 96C24.5949 96 4 75.4051 4 50C4 24.5949 24.5949 4 50 4C75.4051 4 96 24.5949 96 50Z" fill="white" stroke="#E9F2FF" stroke-width="4"/>
<path d="M28.9013 65.1736L28.9008 33.3802H49.9753H71.0497V55.0249H72.9506V31.8099C72.9506 30.3223 71.7109 29 70.1406 29H29.6446C28.2397 29 27 30.2397 27 31.8099L27.0005 67.5703C27.0005 69.0579 28.2402 70.3802 29.8104 70.3802H53.5005L50.7732 65.2562L28.9013 65.1736Z" fill="url(#paint0_linear_3136_4424)"/>
<path d="M72.5048 61.297C72.7527 61.2143 73.0007 60.9664 73.0007 60.6358C73.0007 60.3052 72.918 60.0573 72.5875 59.9746L53.6618 50.4705C53.4138 50.3052 53.0833 50.3878 52.8353 50.5531C52.5874 50.801 52.5874 51.1316 52.67 51.3796L61.761 70.3052C61.8436 70.5532 62.0916 70.7185 62.4221 70.7185C62.4221 70.7185 62.4221 70.7185 62.5048 70.7185C62.7527 70.7185 63.0833 70.4705 63.1659 70.2226L65.3973 63.5284L72.5048 61.297Z" fill="url(#paint1_linear_3136_4424)"/>
<path d="M44.7192 54.3804L42.7754 49.1992L37.5942 47.2554L42.7754 45.3116L44.7192 40.1304L46.663 45.3116L51.8442 47.2554L46.663 49.1992L44.7192 54.3804ZM40.2661 41.9116L39.3914 39.5207L37.0005 38.646L39.3914 37.7713L40.2661 35.3804L41.1408 37.7713L43.5317 38.646L41.1408 39.5207L40.2661 41.9116ZM51.8442 44.8804L50.6898 41.8786L47.688 40.7241L50.6898 39.5696L51.8442 36.5679L52.9987 39.5696L56.0005 40.7241L52.9987 41.8786L51.8442 44.8804Z" fill="#DA5BC5"/>
<defs>
<linearGradient id="paint0_linear_3136_4424" x1="59.5005" y1="59.8799" x2="25.0005" y2="32.8799" gradientUnits="userSpaceOnUse">
<stop stop-color="#7343E5"/>
<stop offset="1" stop-color="#DA5BC5"/>
</linearGradient>
<linearGradient id="paint1_linear_3136_4424" x1="67.5005" y1="67.7191" x2="57.5005" y2="54.7191" gradientUnits="userSpaceOnUse">
<stop stop-color="#7343E5"/>
<stop offset="1" stop-color="#DA5BC5"/>
</linearGradient>
</defs>
</svg>
