<svg width="1400" height="360" viewBox="0 0 1400 360" fill="none" xmlns="http://www.w3.org/2000/svg">
<g clip-path="url(#clip0_2226_7133)">
<path d="M0 359C0 359 425.505 333.046 698.497 333C972.661 332.954 1400 359 1400 359V35C1400 35 973.091 67.0805 698.497 67C425.073 66.9199 0 35 0 35L0 359Z" fill="#5359E6"/>
<mask id="mask0_2226_7133" style="mask-type:alpha" maskUnits="userSpaceOnUse" x="0" y="35" width="1400" height="324">
<path d="M0 359C0 359 425.505 333.046 698.497 333C972.661 332.954 1400 359 1400 359V35C1400 35 973.091 67.0805 698.497 67C425.073 66.9199 0 35 0 35L0 359Z" fill="#5359E6"/>
</mask>
<g mask="url(#mask0_2226_7133)">
</g>
<g opacity="0.25" clip-path="url(#clip1_2226_7133)">
<path d="M1353.51 364.133C1341.11 364.133 1329.01 360.833 1319.31 353.933C1310.11 347.733 1302.61 337.133 1298.21 324.333C1294.01 312.233 1292.91 298.833 1295.11 287.533C1296.61 279.433 1303.71 262.833 1313.71 259.233C1314.31 259.033 1315.01 259.333 1315.21 259.933C1315.41 260.533 1315.11 261.233 1314.51 261.433C1306.21 264.433 1299.11 278.933 1297.41 287.933C1295.31 298.833 1296.41 311.833 1300.41 323.533C1304.71 335.833 1311.91 345.933 1320.61 351.933C1332.41 360.333 1348.01 363.433 1364.31 360.833C1380.11 358.333 1394.91 350.433 1405.11 339.333C1405.51 338.833 1406.31 338.833 1406.81 339.233C1407.31 339.633 1407.31 340.433 1406.91 340.933C1393.21 356.133 1372.91 364.133 1353.51 364.133Z" fill="white"/>
<path d="M1311.61 274.933C1311.31 274.933 1311.01 274.833 1310.81 274.633C1309.51 273.533 1308.31 272.333 1307.11 271.133C1304.81 268.833 1302.31 266.533 1299.71 264.933C1299.11 264.633 1298.91 263.833 1299.31 263.233C1299.61 262.633 1300.41 262.433 1301.01 262.833C1303.91 264.533 1306.41 267.033 1308.91 269.333C1310.11 270.433 1311.31 271.633 1312.51 272.733C1313.01 273.133 1313.11 273.933 1312.61 274.433C1312.31 274.833 1311.91 274.933 1311.61 274.933Z" fill="white"/>
<path d="M1400.91 353.133C1400.51 353.133 1400.21 352.933 1399.91 352.633C1398.41 350.733 1396.71 348.833 1395.01 347.033C1394.11 346.033 1393.21 345.033 1392.41 344.133C1392.01 343.633 1392.01 342.833 1392.51 342.433C1393.01 342.033 1393.81 342.033 1394.21 342.533C1395.01 343.433 1395.91 344.333 1396.81 345.333C1398.51 347.133 1400.31 349.033 1401.91 351.033C1402.31 351.533 1402.21 352.333 1401.71 352.733C1401.51 353.033 1401.21 353.133 1400.91 353.133Z" fill="white"/>
<path d="M1359.21 353.933C1351.81 353.933 1344.31 352.433 1337.21 349.533C1320.91 342.733 1309.41 329.033 1305.51 311.933C1301.51 294.433 1306.41 275.033 1318.31 261.533C1329.01 249.233 1343.71 243.233 1359.71 244.533C1359.91 244.333 1360.21 244.233 1360.51 244.133C1376.51 242.633 1400.21 253.933 1409.81 273.333C1416.31 286.333 1417.51 300.933 1413.21 314.433C1409.11 327.433 1400.11 338.633 1388.11 345.933C1379.31 351.133 1369.31 353.933 1359.21 353.933ZM1355.51 246.633C1341.81 246.633 1329.31 252.333 1320.01 263.033C1308.61 276.033 1303.91 294.533 1307.81 311.333C1311.51 327.633 1322.61 340.733 1338.11 347.233C1354.21 353.933 1372.31 352.633 1386.71 343.733C1398.31 336.733 1406.81 326.033 1410.81 313.533C1414.91 300.633 1413.81 286.733 1407.61 274.333C1403.51 266.033 1396.11 258.533 1386.81 253.233C1378.21 248.333 1368.81 245.833 1361.11 246.433C1360.91 246.733 1360.51 246.933 1360.01 246.933C1358.51 246.733 1357.01 246.633 1355.51 246.633Z" fill="white"/>
<path d="M1385.31 370.133C1384.81 370.133 1384.31 369.833 1384.21 369.333C1382.71 365.133 1381.51 362.133 1380.21 359.133C1379.01 356.233 1377.91 353.533 1376.61 349.933C1376.41 349.333 1376.71 348.633 1377.31 348.433C1377.91 348.233 1378.61 348.533 1378.81 349.133C1380.01 352.633 1381.21 355.333 1382.31 358.133C1383.51 361.133 1384.81 364.233 1386.31 368.433C1386.51 369.033 1386.21 369.733 1385.61 369.933C1385.61 370.133 1385.51 370.133 1385.31 370.133Z" fill="white"/>
<path d="M1357.21 381.433C1356.71 381.433 1356.31 381.133 1356.11 380.733C1355.81 380.133 1356.11 379.433 1356.71 379.133C1360.21 377.633 1363.61 376.233 1366.91 374.833C1382.71 368.133 1396.31 362.333 1414.41 358.033C1415.01 357.833 1415.71 358.333 1415.81 358.933C1416.01 359.533 1415.51 360.233 1414.91 360.333C1396.91 364.533 1383.41 370.333 1367.81 377.033C1364.51 378.433 1361.21 379.833 1357.61 381.333C1357.51 381.433 1357.31 381.433 1357.21 381.433Z" fill="white"/>
<path d="M1384.01 370.933C1383.51 370.933 1383.01 370.633 1382.91 370.133C1381.81 367.033 1380.71 364.033 1379.61 361.133C1378.51 358.233 1377.31 355.233 1376.21 352.133C1376.01 351.533 1376.31 350.833 1376.91 350.633C1377.51 350.433 1378.21 350.733 1378.41 351.333C1379.51 354.433 1380.61 357.433 1381.71 360.333C1382.81 363.233 1384.01 366.333 1385.11 369.333C1385.31 369.933 1385.01 370.633 1384.41 370.833C1384.21 370.933 1384.11 370.933 1384.01 370.933Z" fill="white"/>
<path d="M1385.61 371.033C1385.31 371.033 1385.01 370.933 1384.81 370.733C1380.31 366.533 1377.01 358.433 1374.61 351.733C1374.41 351.233 1374.61 350.733 1375.01 350.333C1376.01 349.533 1378.31 348.733 1379.51 348.733C1380.01 348.733 1380.51 349.033 1380.71 349.533C1382.11 353.433 1383.81 357.233 1385.51 360.933C1386.61 363.233 1387.71 365.733 1388.61 368.033C1388.91 368.633 1388.61 369.333 1387.91 369.633C1387.51 369.833 1387.11 369.733 1386.81 369.533C1386.91 369.933 1386.81 370.333 1386.51 370.633C1386.31 370.933 1386.01 371.033 1385.61 371.033ZM1377.31 351.833C1379.41 357.533 1382.41 365.033 1386.31 368.733C1385.41 366.433 1384.41 364.233 1383.31 361.833C1381.81 358.433 1380.21 354.833 1378.81 351.233C1378.31 351.433 1377.71 351.633 1377.31 351.833Z" fill="white"/>
<path d="M1352.61 342.133C1345.71 342.133 1342.01 332.933 1340.81 329.833C1338.21 323.633 1337.01 322.433 1331.11 324.133C1326.31 325.333 1321.81 322.833 1320.11 318.033C1319.01 314.833 1320.01 312.933 1320.91 311.133C1321.31 310.333 1321.81 309.533 1322.11 308.533C1322.31 308.033 1322.31 307.633 1322.41 307.133C1322.61 305.633 1322.91 304.433 1325.71 303.633C1326.31 303.433 1327.01 303.833 1327.21 304.433C1327.41 305.033 1327.01 305.733 1326.41 305.933C1325.01 306.333 1325.01 306.433 1324.91 307.433C1324.81 307.933 1324.81 308.533 1324.51 309.233C1324.11 310.433 1323.61 311.433 1323.11 312.333C1322.21 314.033 1321.61 315.033 1322.41 317.333C1323.71 320.933 1327.01 322.833 1330.51 321.933C1338.21 319.633 1340.41 322.533 1343.11 329.033C1346.11 336.333 1349.21 339.933 1352.91 339.833C1354.11 339.833 1354.91 339.533 1355.31 339.133C1355.91 338.533 1355.81 337.233 1355.71 335.933C1355.61 334.833 1355.61 333.533 1355.81 332.333C1355.81 332.233 1355.81 332.233 1355.81 332.133C1356.11 331.333 1356.61 330.633 1357.01 330.133C1357.41 329.633 1357.81 329.133 1357.91 328.533C1358.11 327.433 1357.81 326.233 1357.51 325.033C1357.31 324.133 1357.01 323.233 1357.01 322.333C1357.01 322.333 1357.01 322.333 1357.01 322.233C1357.01 320.733 1358.01 319.033 1359.11 317.133C1360.31 315.133 1361.71 312.633 1360.91 311.633C1360.51 311.133 1360.31 311.133 1359.21 311.433C1358.51 311.633 1357.51 311.933 1356.51 311.733C1354.31 311.233 1353.01 309.333 1352.01 307.733C1351.71 307.333 1351.51 306.933 1351.31 306.633C1351.31 306.633 1351.31 306.533 1351.21 306.533C1351.01 306.233 1350.81 305.933 1350.61 305.633C1348.51 302.233 1347.61 300.733 1344.11 302.133C1340.61 303.633 1339.41 304.033 1335.61 303.333C1333.11 302.833 1331.71 303.233 1328.61 304.533C1328.01 304.833 1327.31 304.533 1327.01 303.933C1326.71 303.333 1327.01 302.633 1327.61 302.333C1330.71 301.033 1332.71 300.333 1336.01 301.033C1339.21 301.633 1339.91 301.333 1343.21 299.933C1348.71 297.733 1350.61 300.933 1352.71 304.333C1352.91 304.633 1353.01 304.933 1353.21 305.233C1353.51 305.633 1353.71 306.033 1354.01 306.433C1354.91 307.733 1355.71 309.133 1357.01 309.333C1357.41 309.433 1357.91 309.233 1358.51 309.133C1359.61 308.833 1361.41 308.233 1362.81 310.133C1364.61 312.433 1362.81 315.533 1361.21 318.333C1360.41 319.733 1359.51 321.333 1359.41 322.133C1359.41 322.833 1359.61 323.533 1359.81 324.333C1360.21 325.733 1360.51 327.333 1360.21 328.933V329.033C1359.91 330.133 1359.31 330.833 1358.81 331.533C1358.51 331.933 1358.21 332.333 1358.01 332.733C1357.81 333.633 1357.91 334.633 1357.91 335.633C1358.01 337.433 1358.11 339.233 1356.91 340.633C1356.01 341.533 1354.71 342.033 1352.81 342.133C1352.71 342.133 1352.71 342.133 1352.61 342.133Z" fill="white"/>
<path d="M1385.81 308.933C1384.51 308.933 1383.11 307.833 1381.11 306.133C1378.21 303.733 1374.21 300.533 1370.11 301.133C1365.41 301.833 1362.01 301.933 1359.51 301.633C1355.31 301.133 1353.61 299.533 1351.81 297.933C1350.81 297.033 1349.71 296.033 1348.01 295.133C1343.01 292.433 1337.81 294.133 1332.41 295.833C1331.21 296.233 1330.01 296.633 1328.81 296.933H1328.71C1328.11 297.033 1327.31 297.233 1326.61 297.533C1323.91 298.333 1319.71 299.633 1318.21 295.433C1318.21 295.333 1318.21 295.333 1318.11 295.233C1317.61 292.733 1318.51 290.733 1320.61 289.433C1320.71 289.033 1321.01 288.633 1321.41 288.533C1323.11 287.933 1324.61 287.033 1325.51 286.133C1326.61 285.033 1326.91 283.933 1326.41 282.633C1326.21 282.033 1326.01 281.833 1326.01 281.833C1325.61 281.933 1324.51 282.833 1323.91 283.433C1322.51 284.733 1320.91 286.133 1319.01 286.533C1318.81 286.533 1318.61 286.533 1318.41 286.433C1317.21 286.033 1316.51 285.033 1316.31 283.733C1315.91 280.533 1319.01 275.833 1322.21 273.533C1325.51 271.033 1328.01 271.433 1330.21 271.733C1331.41 271.933 1332.61 272.133 1333.91 271.833C1336.51 271.333 1338.61 268.533 1340.81 265.533C1343.51 261.933 1346.21 258.133 1350.41 258.133C1351.51 258.033 1352.11 258.333 1352.41 258.733C1353.21 259.633 1352.81 261.033 1352.41 262.333C1352.31 262.733 1352.01 263.533 1352.01 263.933C1352.01 263.933 1352.01 263.933 1352.11 263.933C1353.71 263.233 1355.41 262.533 1357.11 261.733C1363.11 259.033 1369.21 256.233 1375.71 255.133C1375.81 255.133 1375.81 255.133 1375.91 255.133C1376.11 255.133 1376.71 255.033 1377.21 254.933C1379.41 254.533 1383.11 253.833 1385.01 256.233C1385.01 256.233 1385.01 256.233 1385.11 256.333C1385.81 257.333 1386.01 258.233 1385.81 259.133C1385.51 260.233 1384.61 260.833 1383.81 261.233C1383.11 261.633 1382.71 261.933 1382.51 262.233C1382.21 263.233 1381.71 264.033 1381.21 264.733C1380.51 265.933 1379.71 266.933 1379.61 268.833C1379.61 268.933 1379.61 268.933 1379.61 269.033C1379.51 269.433 1379.91 270.433 1380.21 271.033C1380.81 272.433 1381.41 273.933 1380.71 275.233C1379.91 277.533 1377.31 278.733 1375.11 279.833C1373.31 280.733 1371.41 281.533 1371.31 282.633C1371.21 283.933 1371.61 284.233 1374.11 284.433C1375.71 284.533 1377.41 284.733 1378.51 286.033C1381.31 289.033 1382.31 291.133 1380.71 298.133C1380.41 299.533 1382.01 300.633 1384.31 302.133C1386.31 303.433 1388.41 304.733 1388.31 306.733C1388.31 306.833 1388.31 306.933 1388.31 307.033C1388.01 308.033 1387.51 308.733 1386.81 308.933C1386.31 308.933 1386.01 308.933 1385.81 308.933ZM1371.11 298.633C1375.71 298.633 1379.71 301.833 1382.61 304.233C1383.61 305.033 1385.01 306.133 1385.61 306.433C1385.51 305.733 1383.91 304.733 1382.71 304.033C1380.31 302.533 1377.31 300.633 1378.11 297.433C1379.61 291.033 1378.61 289.833 1376.51 287.533C1376.51 287.533 1376.51 287.533 1376.41 287.433C1376.01 286.933 1374.81 286.833 1373.71 286.733C1371.71 286.533 1368.41 286.233 1368.71 282.333C1368.91 279.833 1371.41 278.633 1373.91 277.533C1375.91 276.633 1377.91 275.633 1378.31 274.333C1378.31 274.233 1378.41 274.033 1378.51 273.933C1378.61 273.633 1378.11 272.533 1377.91 271.933C1377.41 270.733 1376.91 269.633 1377.21 268.533C1377.41 266.033 1378.41 264.533 1379.21 263.333C1379.61 262.633 1380.01 262.033 1380.21 261.333C1380.61 260.033 1381.71 259.333 1382.61 258.933C1382.91 258.733 1383.41 258.533 1383.51 258.333C1383.51 258.333 1383.51 258.133 1383.11 257.533C1382.11 256.333 1379.41 256.933 1377.71 257.233C1377.11 257.333 1376.51 257.433 1376.11 257.433C1369.91 258.533 1363.91 261.233 1358.11 263.833C1356.31 264.633 1354.61 265.433 1352.81 266.133C1352.71 266.133 1352.61 266.233 1352.51 266.233C1351.41 266.333 1350.61 266.133 1350.11 265.533C1349.21 264.433 1349.71 262.933 1350.11 261.633C1350.21 261.333 1350.31 260.933 1350.41 260.533C1347.41 260.633 1345.11 263.733 1342.71 266.933C1340.31 270.133 1337.91 273.433 1334.41 274.133C1332.71 274.533 1331.11 274.333 1329.81 274.133C1327.71 273.833 1326.11 273.533 1323.61 275.433C1320.91 277.433 1318.41 281.433 1318.71 283.433C1318.71 283.733 1318.81 283.933 1319.01 284.033C1320.11 283.633 1321.31 282.633 1322.31 281.633C1323.71 280.333 1325.11 279.033 1326.61 279.433C1328.01 279.733 1328.51 281.333 1328.71 281.833C1329.51 284.033 1329.01 286.133 1327.21 287.833C1326.11 288.933 1324.81 289.733 1323.61 290.233C1323.51 290.633 1323.21 290.933 1322.81 291.033C1320.91 291.733 1320.11 292.833 1320.41 294.633C1321.01 296.233 1322.31 296.133 1325.81 295.133C1326.61 294.933 1327.41 294.633 1328.11 294.533C1329.31 294.233 1330.41 293.833 1331.61 293.433C1337.31 291.633 1343.11 289.733 1349.11 292.933C1351.11 294.033 1352.31 295.133 1353.41 296.133C1355.11 297.633 1356.31 298.833 1359.81 299.233C1362.01 299.533 1365.41 299.333 1369.81 298.733C1370.21 298.733 1370.71 298.633 1371.11 298.633Z" fill="white"/>
<path d="M1311.11 295.733C1310.91 295.733 1310.81 295.733 1310.71 295.633C1309.21 295.033 1308.31 293.733 1308.51 292.033C1308.71 290.033 1310.41 287.633 1313.31 287.033C1313.91 286.933 1314.61 287.333 1314.71 287.933C1314.81 288.233 1314.71 288.533 1314.61 288.833C1315.01 288.933 1315.31 289.333 1315.41 289.733C1315.71 291.233 1315.91 293.033 1314.91 294.333C1313.81 295.533 1312.21 295.733 1311.11 295.733ZM1312.91 289.633C1311.71 290.233 1310.91 291.333 1310.81 292.233C1310.81 292.833 1311.01 293.133 1311.31 293.233C1312.11 293.233 1312.61 293.033 1312.81 292.733C1313.01 292.533 1313.21 291.833 1312.81 290.133C1312.81 290.033 1312.81 289.833 1312.91 289.633Z" fill="white"/>
<path d="M1400.81 326.433C1400.41 326.433 1400.11 326.433 1399.71 326.333C1399.01 326.233 1398.61 325.633 1398.61 325.033C1398.61 324.633 1398.81 324.333 1399.11 324.133C1398.51 322.633 1397.41 322.533 1395.11 322.833C1393.61 323.033 1391.91 323.233 1390.81 322.033C1389.91 321.133 1389.61 319.533 1390.01 317.233C1390.11 316.433 1390.91 315.433 1393.31 312.433C1394.11 311.433 1395.21 310.033 1395.41 309.633C1395.41 309.633 1395.41 309.533 1395.51 309.533C1396.01 308.633 1396.01 307.833 1395.91 306.933C1395.81 304.933 1396.01 303.133 1399.51 301.933C1402.71 300.833 1405.71 301.533 1407.91 304.033C1411.41 308.033 1412.11 315.833 1409.41 321.133C1407.61 324.533 1404.61 326.433 1400.81 326.433ZM1396.81 320.333C1398.61 320.333 1400.61 320.833 1401.61 323.633C1401.61 323.733 1401.71 323.933 1401.71 324.033C1404.71 323.733 1406.41 321.733 1407.31 320.033C1409.61 315.633 1409.01 308.933 1406.11 305.633C1404.61 303.933 1402.61 303.433 1400.31 304.233C1398.21 304.933 1398.21 305.433 1398.31 306.833C1398.41 307.833 1398.41 309.233 1397.61 310.733C1397.31 311.333 1396.51 312.333 1395.21 313.933C1394.21 315.133 1392.71 317.133 1392.41 317.633C1392.11 319.733 1392.51 320.233 1392.61 320.333C1392.91 320.633 1394.01 320.533 1394.91 320.433C1395.41 320.433 1396.11 320.333 1396.81 320.333Z" fill="white"/>
<path d="M1394.51 299.933C1393.91 299.933 1393.41 299.833 1392.91 299.733C1391.81 299.433 1390.91 298.733 1390.31 297.733C1389.81 296.733 1390.01 295.633 1390.81 294.733C1392.21 293.133 1395.71 291.933 1398.41 292.933C1400.41 293.633 1401.51 295.233 1401.61 297.433C1401.61 298.133 1401.11 298.633 1400.41 298.733C1400.21 298.733 1400.01 298.733 1399.81 298.633C1398.41 299.133 1396.41 299.933 1394.51 299.933ZM1396.21 294.933C1394.81 294.933 1393.21 295.533 1392.61 296.233C1392.41 296.433 1392.41 296.533 1392.51 296.533C1392.71 296.933 1393.11 297.233 1393.61 297.333C1395.21 297.733 1397.61 296.933 1398.91 296.133C1398.61 295.633 1398.21 295.233 1397.61 295.033C1397.21 294.933 1396.71 294.933 1396.21 294.933Z" fill="white"/>
<g opacity="0.6">
<path d="M921.823 138.029C921.572 138.029 921.237 137.945 920.986 137.862C920.066 137.36 919.731 136.356 920.233 135.435C921.655 132.758 923.161 129.997 924.584 127.32C937.133 103.894 950.101 79.7155 960.475 55.1184C960.894 54.1981 961.898 53.7798 962.818 54.1145C963.738 54.5328 964.157 55.5367 963.822 56.457C953.364 81.2214 940.396 105.484 927.763 128.91C926.341 131.587 924.835 134.348 923.412 137.025C923.078 137.694 922.408 138.029 921.823 138.029Z" fill="white"/>
<path d="M990.511 59.9707C990.428 59.9707 990.428 59.9707 990.344 59.9707C988.503 59.8033 986.663 59.636 984.739 59.4687C977.293 58.7994 969.595 58.0464 962.484 58.7994C962.317 58.7994 962.233 58.883 962.066 58.883C961.229 59.134 959.807 59.4687 959.138 58.0464C958.803 57.2098 959.138 56.2058 959.891 55.7875C960.142 55.6202 960.476 55.5365 960.811 55.5365C960.894 55.5365 960.978 55.4528 961.145 55.4528C961.396 55.3692 961.647 55.2855 961.815 55.2855C961.898 55.2855 961.982 55.2855 961.982 55.2855C969.428 54.4489 977.376 55.2018 985.073 55.8711C986.914 56.0385 988.754 56.2058 990.595 56.3731C991.599 56.4568 992.352 57.2934 992.268 58.2974C992.185 59.2177 991.432 59.9707 990.511 59.9707Z" fill="white"/>
<path d="M1016.19 149.24C1015.53 149.24 1014.86 148.822 1014.52 148.152C1006.49 129.663 1001.14 109.918 995.948 90.7593C994.777 86.4925 993.69 82.3093 992.518 78.0425C992.184 76.7875 991.849 75.1979 991.514 73.441C990.51 68.5885 989.255 61.9791 986.578 59.5528C985.825 58.8835 985.825 57.7122 986.494 57.0429C987.164 56.29 988.335 56.29 989.088 56.9593C992.602 60.2221 993.94 67.1662 995.112 72.7717C995.446 74.3613 995.781 75.9509 996.032 77.1222C997.203 81.3054 998.375 85.5722 999.462 89.839C1004.57 108.831 1009.92 128.408 1017.78 146.73C1018.2 147.65 1017.78 148.654 1016.86 149.073C1016.7 149.24 1016.45 149.24 1016.19 149.24Z" fill="white"/>
<path d="M957.296 141.125C957.213 141.125 957.045 141.125 956.962 141.125C952.277 140.204 947.34 139.702 942.488 139.2C936.297 138.531 929.938 137.862 923.915 136.356C922.911 136.105 922.409 135.101 922.66 134.18C922.911 133.26 923.915 132.674 924.835 132.925C930.524 134.431 936.799 135.101 942.823 135.686C947.759 136.188 952.779 136.69 957.631 137.694C958.635 137.862 959.221 138.866 959.053 139.786C958.886 140.539 958.133 141.125 957.296 141.125Z" fill="white"/>
<path d="M1014.02 147.483C1013.85 147.483 1013.68 147.483 1013.52 147.399C1006.99 145.559 990.594 143.3 983.733 142.463C982.729 142.379 982.06 141.459 982.144 140.455C982.227 139.451 983.148 138.782 984.152 138.865C991.179 139.702 1007.74 142.045 1014.52 143.885C1015.53 144.136 1016.03 145.14 1015.78 146.061C1015.53 146.897 1014.86 147.483 1014.02 147.483Z" fill="white"/>
<path d="M952.945 140.288C952.694 140.288 952.443 140.204 952.192 140.121C951.272 139.702 950.854 138.698 951.272 137.778C952.945 134.181 954.953 130.667 956.877 127.32C958.467 124.643 959.973 122.049 961.228 119.372C961.646 118.452 962.734 118.117 963.654 118.535C964.574 118.954 964.909 120.041 964.491 120.962C963.152 123.723 961.562 126.483 959.973 129.077C958.049 132.34 956.124 135.77 954.535 139.2C954.367 139.87 953.698 140.288 952.945 140.288Z" fill="white"/>
<path d="M978.714 124.559C978.63 124.559 978.63 124.559 978.546 124.559L977.208 124.475C972.104 124.141 965.077 123.639 959.555 122.3C958.551 122.049 957.965 121.129 958.216 120.125C958.467 119.205 959.471 118.619 960.391 118.786C965.662 120.041 972.69 120.543 977.375 120.878L978.714 120.962C979.718 121.045 980.471 121.882 980.387 122.886C980.471 123.806 979.634 124.559 978.714 124.559Z" fill="white"/>
<path d="M983.901 142.045C983.232 142.045 982.563 141.627 982.228 140.957C979.634 135.268 976.873 129.412 974.447 123.639C974.029 122.719 974.447 121.715 975.368 121.296C976.288 120.878 977.375 121.296 977.71 122.217C980.136 127.906 982.897 133.762 985.491 139.451C985.909 140.372 985.491 141.376 984.571 141.794C984.403 141.961 984.152 142.045 983.901 142.045Z" fill="white"/>
<path d="M980.555 104.982C980.388 104.982 980.304 104.982 980.137 104.982C975.284 103.894 969.762 103.141 964.91 102.472C964.575 102.388 964.241 102.388 963.906 102.304C963.237 102.89 962.316 102.974 961.563 102.472C961.396 102.304 961.229 102.137 961.061 101.886C960.308 101.802 959.639 101.635 958.886 101.551C957.882 101.384 957.213 100.464 957.38 99.5435C957.547 98.5396 958.468 97.8703 959.472 98.0376C960.308 98.2049 961.229 98.2886 962.149 98.4559C963.237 96.6153 964.575 94.1891 965.997 91.5955C968.507 86.8267 971.185 81.8905 973.611 79.1296C974.029 78.6277 974.698 78.4603 975.368 78.544C976.037 78.7113 976.539 79.1296 976.706 79.7989C977.878 83.7311 978.798 88.0816 979.802 92.1811C980.555 95.695 981.392 99.2925 982.312 102.723C982.479 103.308 982.312 103.978 981.894 104.396C981.475 104.814 981.057 104.982 980.555 104.982ZM965.997 99.0415C969.846 99.5435 974.029 100.129 978.045 100.882C977.376 98.2886 976.79 95.6114 976.204 93.0178C975.535 90.1732 974.866 87.245 974.196 84.4004C972.523 86.9103 970.766 90.2569 969.177 93.2688C968.089 95.3603 967.001 97.3683 965.997 99.0415Z" fill="white"/>
<path d="M1011.59 107.073C1010.67 107.073 1009.84 106.32 1009.75 105.4C1009.67 103.978 1009.5 102.556 1009.33 101.217C1009.08 98.6234 1008.75 95.9462 1008.92 93.1016C1008.92 92.0977 1009.84 91.3447 1010.76 91.3447C1011.76 91.3447 1012.51 92.1813 1012.51 93.1853C1012.43 95.7789 1012.68 98.2051 1012.93 100.799C1013.1 102.221 1013.27 103.643 1013.35 105.066C1013.43 106.069 1012.68 106.906 1011.68 106.99C1011.68 107.073 1011.68 107.073 1011.59 107.073Z" fill="white"/>
<path d="M1010.67 97.034C1009.84 97.034 1009.08 96.4483 1008.92 95.6117C1008.75 94.6077 1009.33 93.6874 1010.34 93.5201C1012.1 93.1855 1013.94 92.8508 1015.78 92.6835C1017.53 92.4325 1019.29 92.1815 1020.96 91.8468C1021.97 91.6795 1022.89 92.2652 1023.14 93.1855C1023.31 94.1894 1022.72 95.1097 1021.72 95.2771C1019.96 95.6117 1018.12 95.9464 1016.28 96.1137C1014.52 96.3647 1012.77 96.6157 1011.09 96.9503C1010.92 97.034 1010.84 97.034 1010.67 97.034Z" fill="white"/>
<path d="M1019.12 95.6953C1018.04 95.6953 1017.28 94.8587 1017.28 93.8547C1017.37 90.6755 1017.12 87.329 1016.78 84.0661C1016.7 83.0621 1017.45 82.2255 1018.45 82.1419C1019.46 82.0582 1020.29 82.8112 1020.38 83.7315C1020.71 87.078 1020.96 90.5082 1020.88 93.9384C1020.88 94.9424 1020.13 95.6953 1019.12 95.6953Z" fill="white"/>
<path d="M1018.54 87.4126C1017.95 87.4126 1017.37 87.0779 1017.03 86.576C1016.53 85.7393 1016.78 84.6517 1017.62 84.0661C1019.54 82.8948 1027.66 82.4765 1030 82.5601C1031 82.5601 1031.76 83.3967 1031.76 84.4007C1031.76 85.4047 1030.84 86.1576 1029.92 86.1576C1026.9 86.074 1020.55 86.6596 1019.54 87.1616C1019.21 87.2453 1018.87 87.4126 1018.54 87.4126Z" fill="white"/>
<path d="M1028.83 95.1931C1028.83 95.1931 1028.75 95.1931 1028.83 95.1931C1027.74 95.1931 1026.99 94.3565 1026.99 93.3525C1027.07 90.508 1027.24 87.2451 1026.9 84.4842C1026.82 83.4802 1027.49 82.6436 1028.49 82.4763C1029.5 82.3926 1030.42 83.0619 1030.5 84.0659C1030.84 87.0778 1030.75 90.508 1030.59 93.4362C1030.59 94.4402 1029.83 95.1931 1028.83 95.1931Z" fill="white"/>
<path d="M1028.83 93.9386C1027.91 93.9386 1027.07 93.1856 1026.99 92.2653C1026.9 91.2613 1027.66 90.4247 1028.66 90.3411C1029.08 90.3411 1038.03 89.8391 1041.04 89.9227C1042.05 89.9227 1042.8 90.7594 1042.8 91.7633C1042.8 92.7673 1041.88 93.5203 1040.96 93.5203C1038.11 93.4366 1029 93.9386 1028.91 93.9386C1028.91 93.9386 1028.91 93.9386 1028.83 93.9386Z" fill="white"/>
<path d="M1040.29 102.221C1039.37 102.221 1038.62 101.552 1038.53 100.631C1038.2 98.2052 1037.86 95.1097 1037.95 92.4325C1037.95 91.4285 1038.78 90.6755 1039.79 90.6755C1040.79 90.6755 1041.55 91.5122 1041.55 92.5161C1041.46 94.9424 1041.8 97.8706 1042.13 100.13C1042.3 101.133 1041.55 101.97 1040.54 102.137C1040.46 102.221 1040.37 102.221 1040.29 102.221Z" fill="white"/>
<path d="M1031.09 103.141C1030.25 103.141 1029.41 102.555 1029.33 101.635C1029.16 100.882 1029.41 100.129 1029.92 99.5436C1031.09 98.1213 1033.43 98.0377 1037.19 97.954C1038.2 97.954 1039.12 97.954 1039.87 97.8703C1040.88 97.7867 1041.8 98.456 1041.88 99.4599C1041.96 100.464 1041.29 101.301 1040.29 101.468C1039.45 101.552 1038.37 101.552 1037.28 101.635C1036.02 101.635 1033.85 101.719 1032.93 101.97C1032.76 102.639 1032.17 103.141 1031.51 103.308C1031.25 103.141 1031.17 103.141 1031.09 103.141Z" fill="white"/>
<path d="M1011.26 105.819C1010.34 105.819 1009.59 105.149 1009.5 104.229C1009.42 103.225 1010.09 102.388 1011.09 102.221L1019.96 101.301C1020.96 101.217 1021.88 101.886 1021.97 102.89C1022.05 103.894 1021.38 104.731 1020.38 104.898L1011.51 105.819C1011.34 105.735 1011.26 105.819 1011.26 105.819Z" fill="white"/>
<path d="M1020.63 114.017C1019.71 114.017 1018.87 113.348 1018.79 112.428C1018.71 111.34 1018.54 110.252 1018.37 109.165C1018.04 106.906 1017.79 104.563 1017.87 102.221C1017.87 101.217 1018.79 100.464 1019.71 100.464C1020.71 100.464 1021.47 101.3 1021.47 102.304C1021.38 104.396 1021.63 106.488 1021.97 108.663C1022.14 109.751 1022.3 110.922 1022.39 112.093C1022.47 113.097 1021.72 113.934 1020.71 114.017C1020.71 114.017 1020.63 114.017 1020.63 114.017Z" fill="white"/>
<path d="M1023.06 112.846C1021.8 112.846 1020.63 112.595 1019.71 112.009C1018.87 111.508 1018.62 110.336 1019.21 109.5C1019.71 108.663 1020.88 108.412 1021.72 108.998C1022.55 109.5 1025.23 109.081 1027.16 108.747C1028.24 108.579 1029.41 108.328 1030.5 108.245C1031.51 108.161 1032.34 108.914 1032.43 109.834C1032.51 110.838 1031.76 111.675 1030.75 111.759C1029.83 111.842 1028.83 112.01 1027.74 112.177C1026.15 112.595 1024.56 112.846 1023.06 112.846Z" fill="white"/>
<path d="M1030.17 112.679C1030.17 112.679 1030.08 112.679 1030.17 112.679C1029.08 112.679 1028.33 111.842 1028.33 110.838C1028.41 108.077 1028.33 104.062 1027.99 100.213C1027.91 99.2091 1028.66 98.3725 1029.66 98.2888C1030.67 98.2052 1031.51 98.9581 1031.59 99.9621C1031.92 103.894 1032.01 108.077 1031.92 111.006C1031.92 111.926 1031.17 112.679 1030.17 112.679Z" fill="white"/>
</g>
<g opacity="0.5">
<path d="M103.708 326.86C100.108 326.86 96.2076 323.26 94.7076 321.86C90.1076 317.76 82.4076 309.26 82.0076 298.96C81.9076 297.86 82.8076 296.86 84.0076 296.76C84.8076 296.76 85.5076 297.16 85.9076 297.76C85.4076 295.66 85.1076 293.76 85.1076 292.16C85.2076 288.16 86.4076 285.86 88.7076 285.36C95.2076 283.96 105.108 301.66 105.208 301.86C108.408 307.96 111.808 321.96 106.708 325.76C105.708 326.56 104.708 326.86 103.708 326.86ZM86.1076 298.96C86.5076 307.66 93.4076 315.16 97.5076 318.86C101.808 322.86 103.708 322.96 104.108 322.66C106.008 321.16 104.908 310.66 101.408 303.96C99.4076 299.86 92.2076 290.26 89.7076 289.66C89.6076 289.96 89.3076 290.66 89.3076 292.46C89.2076 295.66 90.8076 300.66 93.1076 304.86C95.2076 308.56 97.6076 311.16 99.9076 312.26C99.8076 310.06 97.7076 307.16 95.9076 304.76C95.3076 303.96 94.7076 303.16 94.3076 302.46C93.7076 301.46 93.9076 300.16 94.9076 299.56C95.9076 298.96 97.1076 299.16 97.8076 300.16C98.2076 300.76 98.8076 301.56 99.3076 302.26C102.108 306.06 106.008 311.26 103.208 315.96C102.808 316.66 102.008 317.06 101.108 316.96C94.0076 315.86 88.4076 306.66 86.1076 298.96Z" fill="white"/>
<path d="M108.108 329.161C107.608 329.161 107.008 328.961 106.608 328.561C105.808 327.761 105.808 326.461 106.608 325.661C108.308 323.961 109.608 321.96 111.008 319.96C112.008 318.56 113.008 317.061 114.108 315.661C126.708 301.261 144.108 291.861 160.908 282.761L162.508 281.861C163.508 281.261 164.808 281.661 165.308 282.661C165.808 283.661 165.508 284.96 164.508 285.46L162.908 286.361C146.408 295.261 129.308 304.561 117.308 318.261C116.308 319.461 115.408 320.761 114.508 322.161C113.008 324.361 111.508 326.56 109.608 328.46C109.208 328.96 108.608 329.161 108.108 329.161Z" fill="white"/>
<path d="M86.5077 287.76C86.5077 287.76 86.4077 287.76 86.5077 287.76C85.3077 287.76 84.4077 286.86 84.4077 285.66C84.4077 284.56 85.3077 283.56 86.5077 283.56C86.5077 283.56 86.5077 283.56 86.6077 283.56C104.708 283.56 125.008 273.06 144.308 261.66C145.308 261.06 146.608 261.36 147.208 262.36C147.808 263.36 147.508 264.66 146.508 265.26C126.508 276.96 105.608 287.76 86.5077 287.76Z" fill="white"/>
<path d="M159.108 292.16C158.408 292.16 157.708 291.76 157.308 291.16C156.708 290.16 157.008 288.86 158.008 288.26C158.208 288.16 158.608 287.96 158.508 286.96C158.008 281.36 145.908 269.16 142.008 267.76C140.908 267.36 140.408 266.16 140.808 265.06C141.208 263.96 142.408 263.46 143.508 263.86C148.708 265.76 162.008 279.06 162.708 286.66C162.908 288.96 162.008 290.86 160.208 291.86C159.808 292.06 159.508 292.16 159.108 292.16Z" fill="white"/>
<path d="M160.608 293.76C160.508 293.76 160.308 293.76 160.208 293.76C158.308 293.66 156.708 292.56 155.908 290.86C155.408 289.86 155.908 288.56 156.908 288.06C157.908 287.56 159.208 288.06 159.708 289.06C159.808 289.26 159.908 289.46 160.408 289.56C161.608 289.66 163.508 288.66 164.108 287.56C166.408 283.86 161.408 275.26 159.508 272.06L159.308 271.66C153.208 261.86 147.108 258.16 140.608 260.26C139.508 260.66 138.308 260.06 138.008 258.96C137.608 257.86 138.208 256.66 139.308 256.36C147.708 253.56 155.708 257.96 162.908 269.56L163.208 270.06C165.808 274.56 171.308 284.06 167.708 289.86C166.308 292.06 163.208 293.76 160.608 293.76Z" fill="white"/>
<path d="M135.107 269.76C128.207 269.76 119.007 264.56 116.507 261.46C115.307 260.06 111.607 255.06 113.207 250.66C113.807 249.06 115.407 246.96 119.407 246.36C128.907 244.86 136.207 257.16 138.907 261.86C139.107 262.26 139.207 262.66 139.207 263.06C139.807 262.56 140.607 262.36 141.407 262.66C142.507 263.06 143.007 264.26 142.607 265.36C141.707 267.76 139.707 269.26 136.907 269.66C136.307 269.76 135.707 269.76 135.107 269.76ZM121.107 250.36C120.807 250.36 120.507 250.36 120.207 250.46C118.607 250.76 117.607 251.26 117.307 252.16C116.707 253.66 117.807 256.36 119.907 258.86C122.007 261.46 131.307 266.36 136.407 265.56C137.307 265.46 137.807 265.16 138.207 264.86C137.207 265.26 136.107 264.96 135.507 264.06C133.407 260.46 127.407 250.36 121.107 250.36Z" fill="white"/>
<path d="M131.908 270.06C127.908 270.06 123.808 269.06 120.108 267.06C114.708 264.06 111.208 259.46 110.708 254.16C110.408 250.36 111.908 246.66 114.808 243.66C118.108 240.26 123.008 238.36 127.408 238.66C141.008 239.46 143.508 255.26 144.408 260.36C144.608 261.46 143.808 262.56 142.708 262.76C141.608 262.96 140.508 262.16 140.308 261.06C138.408 249.06 134.208 243.26 127.208 242.86C123.908 242.66 120.308 244.06 117.808 246.66C115.708 248.76 114.708 251.26 114.908 253.86C115.408 259.06 119.708 262.06 122.208 263.46C127.508 266.36 134.208 266.76 138.508 264.56C139.508 264.06 140.808 264.46 141.308 265.46C141.808 266.46 141.408 267.76 140.408 268.26C137.808 269.46 134.908 270.06 131.908 270.06Z" fill="white"/>
<path d="M167.107 284.16C166.707 284.16 166.407 284.06 166.007 283.86C165.507 283.56 164.807 282.86 165.107 281.46C165.307 280.46 166.207 279.66 167.207 279.76C167.807 279.46 168.507 279.06 169.507 278.76C186.407 272.86 205.307 269.76 224.107 269.66C225.207 269.66 226.207 270.56 226.207 271.76C226.207 272.96 225.307 273.86 224.107 273.86C205.707 273.86 187.307 276.96 170.907 282.66H170.807C169.907 282.96 169.307 283.36 168.907 283.56C168.507 283.76 167.807 284.16 167.107 284.16ZM167.107 281.76L169.207 282.06L167.107 281.76Z" fill="white"/>
<path d="M220.508 273.66C220.308 273.66 220.008 273.66 219.808 273.56C218.708 273.16 218.208 271.961 218.508 270.861C222.708 259.261 215.208 246.36 207.908 235.06C207.308 234.06 207.508 232.76 208.508 232.16C209.508 231.56 210.808 231.761 211.408 232.761C219.308 244.861 227.308 258.861 222.408 272.261C222.108 273.161 221.308 273.66 220.508 273.66Z" fill="white"/>
<path d="M149.608 260.46C148.608 260.46 147.708 259.76 147.508 258.66C147.308 257.56 148.108 256.46 149.208 256.26C151.408 255.96 153.508 254.86 155.808 253.66C156.408 253.36 157.008 253.06 157.608 252.76C170.408 247.16 182.908 240.36 195.008 233.76C198.208 232.06 201.308 230.36 204.508 228.66C205.508 228.16 206.808 228.46 207.308 229.56C207.808 230.56 207.508 231.86 206.408 232.36C203.208 234.06 200.108 235.76 196.908 237.46C184.708 244.06 172.108 250.96 159.208 256.56C158.708 256.76 158.108 257.06 157.508 257.36C155.008 258.66 152.508 259.86 149.708 260.36C149.808 260.36 149.708 260.46 149.608 260.46Z" fill="white"/>
<path d="M142.008 259.06C141.108 259.06 140.308 258.56 140.008 257.66C136.608 247.66 139.808 236.66 147.908 230.46C151.808 227.26 155.908 225.66 159.408 226.06C162.108 226.36 164.408 227.66 166.308 229.96C171.808 236.76 168.208 245.66 165.508 252.16L165.408 252.36C165.008 253.46 163.708 253.96 162.708 253.46C161.608 253.06 161.108 251.76 161.608 250.76L161.708 250.56C164.108 244.76 167.108 237.46 163.108 232.56C161.908 231.16 160.608 230.36 159.008 230.16C156.608 229.96 153.508 231.16 150.508 233.66C143.708 238.86 141.108 247.86 143.908 256.26C144.308 257.36 143.708 258.56 142.608 258.86C142.408 259.06 142.208 259.06 142.008 259.06Z" fill="white"/>
<path d="M143.207 258.861C142.907 258.861 142.507 258.761 142.207 258.561C141.207 258.061 140.807 256.761 141.407 255.761C141.907 254.861 142.407 253.861 142.807 252.961C144.907 248.661 147.307 243.761 152.007 241.561C155.407 240.061 158.607 240.561 160.907 242.961C163.907 245.961 164.607 251.761 162.507 256.261C162.007 257.261 160.807 257.761 159.707 257.261C158.707 256.761 158.207 255.561 158.707 254.461C160.007 251.561 159.707 247.661 157.907 245.861C156.907 244.761 155.507 244.661 153.707 245.361C150.407 246.961 148.407 250.961 146.507 254.861C146.007 255.961 145.507 256.861 145.007 257.861C144.707 258.461 144.007 258.861 143.207 258.861Z" fill="white"/>
<path d="M138.408 270.56C138.308 270.56 138.108 270.56 138.008 270.56C136.908 270.36 136.108 269.26 136.308 268.16C136.708 265.76 137.608 263.46 138.408 261.36C139.208 259.16 140.008 257.16 140.308 255.16C140.508 254.06 141.508 253.26 142.708 253.36C143.808 253.56 144.608 254.56 144.508 255.76C144.208 258.16 143.308 260.56 142.408 262.86C141.708 264.86 140.908 266.96 140.508 268.96C140.208 269.86 139.408 270.56 138.408 270.56Z" fill="white"/>
</g>
<g opacity="0.5">
<path d="M1261.79 117.085C1259.03 117.698 1255.43 115.604 1254.04 114.787C1249.82 112.43 1242.48 107.231 1240.42 99.4109C1240.16 98.5855 1240.68 97.6665 1241.58 97.3858C1242.19 97.2496 1242.79 97.4369 1243.2 97.8283C1242.46 96.3051 1241.91 94.9011 1241.64 93.6758C1241.03 90.5955 1241.56 88.6299 1243.24 87.8556C1247.98 85.6775 1258.57 97.5481 1258.68 97.6843C1262.17 101.811 1267.16 111.954 1263.9 115.732C1263.27 116.515 1262.55 116.915 1261.79 117.085ZM1243.56 98.7132C1245.35 105.308 1251.91 109.878 1255.68 112.014C1259.65 114.345 1261.12 114.098 1261.38 113.801C1262.58 112.329 1259.95 104.475 1256.13 99.9391C1253.9 97.1395 1246.75 91.0126 1244.73 90.9785C1244.71 91.2253 1244.6 91.8124 1244.9 93.1909C1245.37 95.6585 1247.45 99.2155 1249.92 102.041C1252.16 104.517 1254.44 106.1 1256.39 106.551C1255.94 104.883 1253.84 103.019 1252.05 101.488C1251.46 100.977 1250.86 100.466 1250.44 99.9984C1249.81 99.3347 1249.74 98.3051 1250.4 97.6754C1251.07 97.0458 1252.02 96.9947 1252.72 97.6415C1253.13 98.0329 1253.73 98.5435 1254.23 98.9945C1257.02 101.428 1260.89 104.747 1259.55 108.823C1259.36 109.427 1258.82 109.869 1258.11 109.946C1252.49 110.312 1246.63 104.219 1243.56 98.7132Z" fill="white"/>
<path d="M1265.55 118.099C1265.16 118.184 1264.67 118.133 1264.3 117.895C1263.55 117.418 1263.33 116.422 1263.8 115.674C1264.82 114.082 1265.47 112.33 1266.2 110.56C1266.73 109.317 1267.24 107.999 1267.84 106.739C1275.04 93.5674 1286.77 83.408 1298.09 73.5804L1299.16 72.6189C1299.82 71.9892 1300.89 72.0744 1301.44 72.7551C1301.99 73.4359 1301.98 74.4825 1301.3 75.0356L1300.23 75.9971C1289.11 85.6204 1277.6 95.6522 1270.74 108.186C1270.18 109.275 1269.71 110.424 1269.26 111.649C1268.48 113.589 1267.71 115.529 1266.58 117.308C1266.36 117.758 1265.93 118.014 1265.55 118.099Z" fill="white"/>
<path d="M1241.96 90.0682C1241.96 90.0682 1241.88 90.0852 1241.96 90.0682C1241.04 90.2724 1240.2 89.7363 1239.99 88.8173C1239.81 87.9749 1240.33 87.0559 1241.25 86.8517C1241.25 86.8517 1241.25 86.8517 1241.32 86.8347C1255.18 83.755 1268.94 72.2597 1281.78 60.2453C1282.45 59.6156 1283.49 59.6242 1284.12 60.2879C1284.75 60.9517 1284.75 61.9983 1284.08 62.6279C1270.76 74.9912 1256.59 86.8183 1241.96 90.0682Z" fill="white"/>
<path d="M1298.31 81.085C1297.77 81.2041 1297.17 81.0169 1296.76 80.6254C1296.13 79.9617 1296.14 78.9151 1296.8 78.2854C1296.94 78.1748 1297.21 77.9536 1296.96 77.2048C1295.63 73.0012 1284.29 65.7169 1281.06 65.3084C1280.15 65.1892 1279.56 64.3553 1279.68 63.4448C1279.8 62.5343 1280.64 61.9473 1281.55 62.0664C1285.85 62.6367 1298.3 70.5592 1300.13 76.2604C1300.67 77.9877 1300.31 79.596 1299.1 80.6681C1298.83 80.8893 1298.61 81.0169 1298.31 81.085Z" fill="white"/>
<path d="M1299.73 82.0553C1299.65 82.0724 1299.5 82.1064 1299.42 82.1234C1297.95 82.3701 1296.54 81.7999 1295.64 80.6342C1295.08 79.9534 1295.25 78.8727 1295.93 78.3197C1296.61 77.7666 1297.69 77.9283 1298.24 78.6091C1298.35 78.7452 1298.46 78.8814 1298.86 78.8729C1299.8 78.7453 1301.08 77.6562 1301.35 76.7117C1302.49 73.4867 1297.19 67.7514 1295.19 65.624L1294.97 65.3517C1288.63 58.8845 1283.33 57.0889 1278.71 59.8031C1277.94 60.2966 1276.92 60.0413 1276.5 59.2499C1276.01 58.4756 1276.26 57.4545 1277.05 57.0376C1283.01 53.464 1289.89 55.4724 1297.37 63.1309L1297.69 63.4628C1300.44 66.4666 1306.27 72.8062 1304.5 77.8605C1303.81 79.7836 1301.72 81.6129 1299.73 82.0553Z" fill="white"/>
<path d="M1276.12 68.0136C1270.83 69.1876 1262.9 66.7707 1260.46 64.822C1259.3 63.9541 1255.62 60.7545 1256.1 57.1126C1256.28 55.7852 1257.15 53.9047 1260.11 52.7646C1267.13 49.9994 1274.82 58.177 1277.68 61.317C1277.9 61.5893 1278.05 61.8786 1278.12 62.1849C1278.49 61.6999 1279.07 61.4106 1279.73 61.5042C1280.64 61.6234 1281.23 62.4573 1281.11 63.3678C1280.83 65.3589 1279.55 66.848 1277.48 67.6307C1277.04 67.8094 1276.58 67.9115 1276.12 68.0136ZM1262.09 55.5387C1261.86 55.5897 1261.64 55.6407 1261.42 55.7684C1260.25 56.2703 1259.57 56.8234 1259.49 57.5637C1259.29 58.8145 1260.59 60.6951 1262.62 62.2524C1264.67 63.8862 1272.63 66.0563 1276.4 64.5759C1277.07 64.3462 1277.4 64.0314 1277.66 63.7336C1276.96 64.21 1276.07 64.1674 1275.45 63.5803C1273.23 61.1806 1266.92 54.4667 1262.09 55.5387Z" fill="white"/>
<path d="M1273.72 68.7876C1270.65 69.4682 1267.34 69.4 1264.17 68.4979C1259.52 67.1192 1256.06 64.192 1254.78 60.2182C1253.9 57.359 1254.42 54.2703 1256.13 51.4793C1258.08 48.314 1261.51 46.0252 1264.93 45.5063C1275.48 43.8049 1280.08 55.4796 1281.64 59.2322C1281.98 60.0405 1281.55 61.0191 1280.75 61.3594C1279.94 61.6997 1278.96 61.2742 1278.62 60.4659C1275.12 51.5992 1270.92 47.8721 1265.49 48.7568C1262.93 49.1651 1260.41 50.8498 1258.94 53.2664C1257.69 55.2319 1257.35 57.3166 1257.94 59.2738C1259.21 63.171 1263.01 64.7368 1265.17 65.3836C1269.72 66.7027 1274.92 65.869 1277.84 63.4525C1278.52 62.8995 1279.58 62.9846 1280.13 63.6653C1280.69 64.3461 1280.6 65.4097 1279.92 65.9628C1278.13 67.3242 1276.01 68.2771 1273.72 68.7876Z" fill="white"/>
<path d="M1303.07 73.5969C1302.77 73.6649 1302.52 73.6394 1302.18 73.5543C1301.75 73.4096 1301.09 72.9926 1301.08 71.8694C1301.07 71.0696 1301.62 70.3038 1302.4 70.2102C1302.81 69.8784 1303.28 69.453 1303.99 69.0531C1315.93 61.6591 1329.88 56.0691 1344.26 52.7937C1345.1 52.6065 1346.02 53.1256 1346.22 54.0446C1346.43 54.9636 1345.89 55.806 1344.97 56.0102C1330.88 59.141 1317.32 64.6458 1305.73 71.8016L1305.65 71.8186C1305.01 72.2015 1304.62 72.6099 1304.35 72.8311C1304.08 73.0523 1303.61 73.4778 1303.07 73.5969ZM1302.67 71.7589L1304.32 71.6313L1302.67 71.7589Z" fill="white"/>
<path d="M1342.18 56.4694C1342.03 56.5034 1341.8 56.5544 1341.63 56.5119C1340.72 56.3927 1340.13 55.5588 1340.17 54.6654C1341.42 45.0671 1333.48 36.4641 1325.97 29.0523C1325.34 28.3886 1325.27 27.359 1325.93 26.7293C1326.59 26.0997 1327.62 26.0316 1328.25 26.6954C1336.36 34.6177 1344.87 43.9781 1343.4 55.0739C1343.32 55.8142 1342.8 56.3332 1342.18 56.4694Z" fill="white"/>
<path d="M1285.64 58.4247C1284.87 58.5948 1284.06 58.2119 1283.72 57.4035C1283.38 56.5951 1283.81 55.6166 1284.62 55.2763C1286.25 54.6722 1287.67 53.4724 1289.23 52.1621C1289.64 51.8303 1290.05 51.4984 1290.46 51.1666C1299.31 44.7 1307.72 37.3655 1315.86 30.2522C1318.03 28.4058 1320.11 26.5764 1322.27 24.73C1322.95 24.1769 1324 24.1855 1324.57 24.9428C1325.12 25.6235 1325.11 26.6702 1324.36 27.2403C1322.2 29.0867 1320.11 30.916 1317.95 32.7624C1309.73 39.8927 1301.25 47.3209 1292.33 53.8045C1291.98 54.0427 1291.57 54.3746 1291.16 54.7064C1289.47 56.1274 1287.76 57.4717 1285.7 58.3311C1285.78 58.3141 1285.72 58.4076 1285.64 58.4247Z" fill="white"/>
<path d="M1279.58 58.6453C1278.89 58.7984 1278.19 58.5517 1277.81 57.9135C1273.51 50.8337 1274.08 41.8651 1279.23 35.7387C1281.67 32.6245 1284.54 30.7015 1287.29 30.4123C1289.41 30.1827 1291.39 30.7869 1293.24 32.225C1298.61 36.4968 1297.37 43.9252 1296.4 49.3625L1296.36 49.5327C1296.24 50.4432 1295.33 51.0473 1294.48 50.8345C1293.57 50.7153 1292.97 49.8049 1293.18 48.954L1293.22 48.7838C1294.07 43.9336 1295.13 37.8326 1291.23 34.7607C1290.07 33.8927 1288.94 33.5012 1287.68 33.6203C1285.81 33.8755 1283.64 35.322 1281.77 37.747C1277.45 42.8863 1276.99 50.2212 1280.56 56.1777C1281.05 56.9521 1280.8 57.9731 1280.01 58.3901C1279.89 58.5773 1279.73 58.6113 1279.58 58.6453Z" fill="white"/>
<path d="M1280.47 58.288C1280.24 58.3391 1279.91 58.3305 1279.65 58.2284C1278.8 58.0157 1278.27 57.0881 1278.56 56.2202C1278.79 55.4459 1279 54.595 1279.16 53.8377C1280.03 50.1873 1281.04 46.0264 1284.26 43.5418C1286.61 41.8146 1289.15 41.653 1291.32 43.0996C1294.12 44.8867 1295.65 49.2094 1294.8 53.0129C1294.59 53.8638 1293.76 54.4509 1292.83 54.2552C1291.98 54.0424 1291.39 53.2085 1291.59 52.281C1292.09 49.8389 1291.2 46.9032 1289.51 45.831C1288.56 45.1588 1287.47 45.3204 1286.21 46.1627C1283.95 47.9496 1283.1 51.3532 1282.31 54.6632C1282.12 55.5907 1281.89 56.365 1281.67 57.2159C1281.55 57.7265 1281.08 58.1519 1280.47 58.288Z" fill="white"/>
<path d="M1278.78 68.0649C1278.7 68.0819 1278.55 68.116 1278.47 68.133C1277.6 68.167 1276.8 67.4607 1276.76 66.5843C1276.66 64.6782 1276.96 62.7637 1277.22 61.0193C1277.45 59.1984 1277.73 57.5306 1277.62 55.9479C1277.58 55.0714 1278.21 54.2886 1279.15 54.161C1280.02 54.127 1280.81 54.7567 1280.93 55.6927C1281.11 57.5818 1280.83 59.5729 1280.53 61.4874C1280.34 63.1382 1280.08 64.8826 1280.12 66.4823C1280.04 67.2226 1279.55 67.8948 1278.78 68.0649Z" fill="white"/>
</g>
<path d="M358.118 365.462C357.618 365.462 357.218 365.162 357.018 364.762C356.718 364.162 357.018 363.462 357.618 363.162C365.218 359.662 374.118 356.362 383.518 352.862C394.718 348.662 406.318 344.262 416.918 339.262C417.518 338.962 418.218 339.262 418.518 339.862C418.818 340.462 418.518 341.162 417.918 341.462C407.218 346.562 395.518 350.862 384.318 355.162C374.918 358.662 366.118 361.962 358.618 365.462C358.418 365.462 358.218 365.462 358.118 365.462Z" fill="white"/>
<path d="M357.518 366.862C357.018 366.862 356.518 366.562 356.418 366.062C349.418 346.562 343.918 332.762 336.918 315.362C334.218 308.662 331.518 301.762 328.318 293.762C328.118 293.162 328.418 292.462 329.018 292.162C329.618 291.962 330.318 292.262 330.618 292.862C333.718 300.862 336.518 307.762 339.218 314.462C346.218 331.862 351.718 345.662 358.718 365.162C358.918 365.762 358.618 366.462 358.018 366.662C357.718 366.862 357.618 366.862 357.518 366.862Z" fill="white"/>
<path d="M328.518 293.462C328.018 293.462 327.618 293.162 327.418 292.662C327.218 292.062 327.518 291.362 328.118 291.062L329.218 290.662C350.018 282.662 368.018 275.762 387.518 269.262C388.118 269.062 388.818 269.362 389.018 270.062C389.218 270.662 388.918 271.362 388.218 271.562C368.818 278.062 350.818 284.962 330.018 292.962L328.918 293.362C328.718 293.362 328.618 293.462 328.518 293.462Z" fill="white"/>
<path d="M416.117 341.962C415.617 341.962 415.217 341.662 415.017 341.162C411.017 330.862 402.417 310.462 395.417 294.062C390.217 281.762 386.117 272.062 385.217 269.562C385.017 268.962 385.317 268.262 385.917 268.062C386.517 267.862 387.217 268.162 387.417 268.762C388.317 271.162 392.617 281.362 397.617 293.062C404.617 309.462 413.217 329.862 417.217 340.162C417.417 340.762 417.117 341.462 416.517 341.762C416.417 341.962 416.317 341.962 416.117 341.962Z" fill="white"/>
<path d="M416.118 338.762C415.718 338.762 415.218 338.562 415.018 338.062C409.618 327.362 403.618 315.362 399.918 303.362C399.718 302.762 400.118 302.062 400.718 301.862C401.318 301.662 402.018 302.062 402.218 302.662C405.818 314.462 411.818 326.462 417.118 337.062C417.418 337.662 417.218 338.362 416.618 338.662C416.518 338.662 416.318 338.762 416.118 338.762Z" fill="white"/>
<path d="M324.218 301.162C324.018 301.162 323.918 301.162 323.718 301.062C323.118 300.762 322.818 300.062 323.118 299.462C324.318 296.562 325.818 293.362 328.118 291.062C328.618 290.562 329.318 290.562 329.818 291.062C330.318 291.562 330.318 292.262 329.818 292.762C327.818 294.762 326.518 297.762 325.318 300.462C325.118 300.862 324.718 301.162 324.218 301.162Z" fill="white"/>
<path d="M356.218 367.462C356.018 367.462 355.818 367.462 355.618 367.362C352.718 366.862 351.118 362.962 350.018 360.062C348.418 356.262 347.018 352.462 345.518 348.762C344.118 345.062 342.618 341.262 341.118 337.462C339.618 333.862 337.918 330.262 336.318 326.762C334.518 322.862 332.618 318.862 330.918 314.762C330.718 314.362 330.518 313.862 330.218 313.362C328.018 309.062 325.418 303.662 324.918 298.662C324.818 297.962 325.318 297.462 326.018 297.362C326.718 297.262 327.218 297.762 327.318 298.462C327.718 302.962 330.218 308.162 332.318 312.262C332.518 312.762 332.818 313.162 333.018 313.662V313.762C334.718 317.862 336.518 321.862 338.418 325.762C340.118 329.262 341.818 332.962 343.318 336.562C344.918 340.362 346.318 344.162 347.818 347.962C349.218 351.662 350.718 355.462 352.218 359.262C353.018 361.162 354.418 364.762 356.018 365.062C356.818 365.262 357.818 364.362 358.518 363.562C358.918 363.062 359.718 363.062 360.218 363.462C360.718 363.862 360.718 364.662 360.318 365.162C358.918 366.662 357.518 367.462 356.218 367.462Z" fill="white"/>
<path d="M347.018 322.762C346.918 322.762 346.918 322.762 346.818 322.762C346.118 322.662 345.718 322.062 345.818 321.462C346.018 320.062 345.218 317.462 344.418 314.962C343.018 310.462 341.618 305.862 343.618 303.262C344.718 301.962 345.918 301.762 346.718 301.762C350.318 301.962 354.118 307.362 357.718 312.862C358.318 313.762 358.718 314.462 359.118 314.962C359.518 315.462 359.418 316.262 358.818 316.662C358.318 317.062 357.518 316.962 357.118 316.362C356.718 315.862 356.218 315.062 355.718 314.162C353.818 311.162 349.318 304.262 346.618 304.162C346.318 304.162 346.018 304.162 345.518 304.762C344.318 306.362 345.618 310.762 346.718 314.362C347.618 317.262 348.418 320.062 348.218 321.862C348.118 322.262 347.618 322.762 347.018 322.762Z" fill="white"/>
<path d="M345.118 314.462C344.818 314.462 344.418 314.362 344.218 314.062C343.818 313.562 343.818 312.762 344.318 312.362C346.818 310.262 349.218 309.062 351.718 307.662C352.718 307.162 353.718 306.662 354.818 306.062C355.418 305.762 356.118 305.962 356.418 306.562C356.718 307.162 356.518 307.862 355.918 308.162C354.818 308.762 353.818 309.362 352.818 309.862C350.418 311.062 348.118 312.262 345.818 314.262C345.618 314.362 345.418 314.462 345.118 314.462Z" fill="white"/>
<path d="M364.918 312.262C364.218 312.262 363.718 311.762 363.718 311.062C363.718 310.962 363.718 310.862 363.718 310.862C363.418 310.662 363.218 310.462 363.118 310.062C363.018 309.762 363.118 309.562 363.218 309.262C362.618 307.962 361.618 306.562 360.518 305.162C358.218 302.062 355.918 298.962 357.718 296.262C358.618 294.962 360.518 293.762 362.218 293.462C363.318 293.262 364.318 293.462 365.118 294.062C366.918 295.462 366.718 297.362 366.018 298.962C368.518 298.162 370.218 298.762 370.918 299.162C372.518 300.062 373.318 301.962 373.018 303.862C372.618 306.162 370.618 309.062 366.018 310.462C366.018 310.662 366.018 310.762 366.018 310.962C366.118 311.762 365.518 312.262 364.918 312.262ZM362.118 303.262C362.218 303.462 362.418 303.662 362.518 303.762C363.618 305.262 364.718 306.762 365.418 308.262C368.918 307.162 370.418 305.162 370.718 303.562C370.918 302.562 370.518 301.662 369.818 301.262C368.718 300.662 366.518 300.762 363.618 303.162C363.118 303.562 362.518 303.562 362.118 303.262ZM363.018 295.862C362.918 295.862 362.718 295.862 362.618 295.862C361.518 296.062 360.218 296.962 359.718 297.662C359.018 298.762 360.118 300.662 361.618 302.562C361.518 302.262 361.518 301.962 361.718 301.662C362.018 301.162 362.318 300.662 362.618 300.162C364.118 297.862 364.618 296.762 363.618 295.962C363.518 295.862 363.318 295.862 363.018 295.862Z" fill="white"/>
<path d="M383.018 302.862C379.518 302.862 375.618 300.862 374.518 296.762C373.618 293.562 374.618 289.962 377.118 287.762C379.218 285.862 381.818 285.262 384.418 286.262C385.018 286.462 385.318 287.162 385.118 287.762C384.918 288.362 384.218 288.662 383.618 288.462C381.318 287.562 379.518 288.762 378.718 289.462C376.918 291.062 376.218 293.762 376.818 296.062C377.818 299.462 381.118 300.662 383.818 300.362C386.118 300.062 388.518 298.662 388.618 295.462C388.618 294.762 389.218 294.262 389.818 294.262C390.518 294.262 391.018 294.862 391.018 295.462C390.918 299.362 388.118 302.162 384.018 302.662C383.818 302.862 383.418 302.862 383.018 302.862Z" fill="white"/>
<path d="M364.818 311.762C364.418 311.762 364.118 311.562 363.818 311.262C363.418 310.762 363.518 309.962 364.018 309.562C364.718 309.062 365.518 308.562 366.318 308.062C369.518 306.062 371.418 304.662 370.618 301.762C370.418 301.162 370.818 300.462 371.518 300.262C372.118 300.062 372.818 300.462 373.018 301.162C374.318 306.062 370.418 308.462 367.618 310.162C366.818 310.662 366.118 311.062 365.518 311.562C365.318 311.662 365.118 311.762 364.818 311.762Z" fill="white"/>
<path d="M358.118 314.862C357.918 314.862 357.618 314.762 357.418 314.662C355.818 313.562 354.618 311.862 353.318 310.062C351.918 308.162 350.518 306.162 348.518 304.962C347.918 304.662 347.718 303.862 348.118 303.362C348.418 302.762 349.218 302.562 349.718 302.962C352.118 304.362 353.818 306.662 355.218 308.662C356.418 310.262 357.418 311.762 358.718 312.662C359.218 313.062 359.418 313.762 359.018 314.362C358.918 314.662 358.518 314.862 358.118 314.862Z" fill="white"/>
<g opacity="0.5">
<path d="M1194.15 252.292C1193.77 252.292 1193.31 252.139 1193.08 251.832C1190.62 249.301 1185.03 245.314 1183.72 245.161C1182.88 245.084 1182.27 244.317 1182.34 243.473C1182.42 242.63 1183.19 242.016 1184.03 242.093C1186.87 242.4 1193.54 247.844 1195.3 249.685C1195.92 250.298 1195.92 251.295 1195.3 251.909C1194.99 252.139 1194.53 252.292 1194.15 252.292Z" fill="white"/>
<path d="M1194.76 252.522C1194.23 252.522 1193.61 252.216 1193.38 251.679C1193 250.912 1193.31 249.992 1194.07 249.608C1195.3 248.918 1201.74 242.093 1204.89 238.873C1206.27 237.416 1207.34 236.342 1207.88 235.728C1210.95 232.661 1214.09 229.134 1217.31 225.223C1217.85 224.533 1218.84 224.456 1219.46 224.993C1220.15 225.529 1220.22 226.526 1219.69 227.14C1216.47 231.127 1213.17 234.732 1210.1 237.876C1209.56 238.412 1208.41 239.639 1207.11 240.943C1200.44 247.998 1196.84 251.679 1195.45 252.369C1195.3 252.446 1194.99 252.522 1194.76 252.522Z" fill="white"/>
<path d="M1217.23 227.523C1216.85 227.523 1216.39 227.37 1216.08 227.063C1215.16 226.066 1214.01 225.069 1212.79 224.072C1210.79 222.385 1208.8 220.621 1207.42 218.551C1206.96 217.861 1207.19 216.864 1207.88 216.404C1208.57 215.944 1209.56 216.174 1210.02 216.864C1211.1 218.551 1213.02 220.161 1214.78 221.695C1216.01 222.768 1217.23 223.842 1218.31 224.916C1218.92 225.529 1218.84 226.526 1218.23 227.14C1217.92 227.37 1217.54 227.523 1217.23 227.523Z" fill="white"/>
<path d="M1186.56 244.547C1186.18 244.547 1185.79 244.394 1185.49 244.164C1184.87 243.55 1184.8 242.63 1185.41 242.016C1187.17 240.023 1188.78 238.029 1190.39 235.882C1191.47 234.501 1192.54 233.121 1193.69 231.664C1196.22 228.597 1198.68 225.989 1201.97 222.385L1204.2 219.931C1204.27 219.854 1204.27 219.854 1204.35 219.778C1206.19 218.244 1206.34 217.631 1206.34 217.477C1206.42 216.634 1207.11 216.02 1207.95 216.02C1208.8 216.097 1209.49 216.787 1209.41 217.631C1209.33 219.394 1207.8 220.851 1206.34 222.002L1204.2 224.379C1200.9 227.906 1198.52 230.514 1195.99 233.504C1194.84 234.885 1193.77 236.265 1192.69 237.645C1191.01 239.869 1189.4 241.94 1187.48 243.933C1187.33 244.394 1186.94 244.547 1186.56 244.547Z" fill="white"/>
<path d="M1219.76 228.06C1219.3 228.06 1218.84 227.83 1218.54 227.446C1218 226.756 1218.15 225.836 1218.77 225.299C1218.84 225.222 1218.84 225.146 1218.84 225.146C1218.84 225.069 1218.92 224.992 1218.92 224.992C1218.08 223.919 1216.77 222.922 1215.47 221.848C1214.17 220.775 1212.79 219.701 1211.71 218.397C1211.18 218.934 1210.64 219.548 1210.41 219.931C1209.95 220.621 1208.95 220.775 1208.26 220.315C1207.57 219.854 1207.42 218.858 1207.88 218.167C1208.34 217.554 1209.79 215.713 1211.33 214.793C1211.71 214.563 1212.1 214.563 1212.56 214.64C1212.94 214.793 1213.32 215.023 1213.48 215.407C1214.24 216.864 1215.78 218.091 1217.39 219.394C1219.23 220.851 1221.07 222.308 1222.22 224.379C1222.45 224.762 1222.45 225.222 1222.29 225.682C1222.14 226.066 1221.91 226.373 1221.53 226.526C1221.53 226.603 1221.45 226.603 1221.45 226.679C1221.3 226.986 1221.07 227.446 1220.53 227.753C1220.45 227.906 1220.07 228.06 1219.76 228.06Z" fill="white"/>
<path d="M1221.6 226.066C1221.07 226.066 1220.53 225.759 1220.22 225.299C1219.76 224.532 1220.07 223.612 1220.76 223.152C1223.06 221.848 1224.83 219.241 1224.98 216.864C1225.06 215.253 1224.44 213.95 1223.06 212.953C1219.46 210.269 1215.78 213.566 1211.33 218.091C1210.56 218.934 1209.8 219.624 1209.11 220.315C1208.49 220.928 1207.5 220.851 1206.96 220.238C1206.34 219.624 1206.42 218.628 1207.03 218.091C1207.65 217.477 1208.42 216.787 1209.18 216.02C1213.02 212.109 1218.84 206.128 1224.9 210.576C1227.13 212.186 1228.2 214.563 1228.05 217.171C1227.82 220.545 1225.52 224.072 1222.3 225.913C1222.14 226.066 1221.84 226.066 1221.6 226.066Z" fill="white"/>
<path d="M1177.82 261.878C1177.43 261.878 1177.13 261.724 1176.82 261.494C1176.36 261.111 1176.21 260.574 1176.28 260.037C1176.97 256.126 1178.97 252.522 1180.81 248.995C1182.11 246.617 1183.34 244.393 1183.95 242.323C1184.18 241.479 1185.1 241.019 1185.87 241.326C1186.71 241.556 1187.17 242.476 1186.87 243.243C1186.1 245.62 1184.87 247.998 1183.49 250.452C1182.27 252.752 1180.96 255.129 1180.12 257.583C1182.19 256.586 1184.18 255.359 1186.25 254.132C1188.94 252.599 1191.62 250.912 1194.46 249.685C1195.23 249.378 1196.15 249.685 1196.45 250.528C1196.76 251.295 1196.45 252.215 1195.61 252.522C1192.92 253.672 1190.32 255.206 1187.71 256.74C1184.64 258.58 1181.5 260.421 1178.2 261.647C1178.2 261.801 1177.97 261.878 1177.82 261.878Z" fill="white"/>
<path d="M1183.65 257.967C1183.26 257.967 1182.88 257.813 1182.34 257.506C1181.96 257.2 1181.73 256.816 1181.65 256.356C1181.27 255.896 1180.81 255.436 1180.5 255.053C1180.04 254.516 1179.73 254.209 1179.66 254.056C1179.12 253.365 1179.27 252.369 1179.96 251.908C1180.66 251.372 1181.65 251.525 1182.11 252.215C1182.19 252.369 1182.5 252.675 1182.8 252.982C1184.95 255.436 1185.72 256.203 1184.72 257.353C1184.64 257.66 1184.26 257.967 1183.65 257.967Z" fill="white"/>
<path d="M1176.13 262.184C1175.9 262.184 1175.67 262.108 1175.44 262.031C1174.67 261.648 1174.37 260.727 1174.67 259.96C1175.36 258.503 1175.98 257.046 1176.67 255.589C1178.28 251.909 1179.96 248.074 1182.19 244.547C1182.19 244.47 1182.11 244.394 1182.11 244.317C1181.96 243.473 1182.5 242.706 1183.26 242.553C1183.49 242.476 1183.95 242.246 1184.64 242.4C1185.18 242.476 1185.64 242.783 1185.87 243.32C1186.1 243.78 1186.02 244.394 1185.72 244.854C1183.19 248.535 1181.27 252.829 1179.43 256.97C1178.81 258.427 1178.12 259.961 1177.43 261.418C1177.28 261.801 1176.67 262.184 1176.13 262.184Z" fill="white"/>
<path d="M1159.64 272C1152.21 272 1142.47 268.933 1139.63 266.785C1138.94 266.249 1138.79 265.328 1139.32 264.638C1139.86 263.948 1140.78 263.795 1141.47 264.331C1144.69 266.785 1158.57 270.313 1163.94 268.319C1163.63 267.552 1161.64 266.402 1160.26 265.635C1158.03 264.331 1155.73 263.028 1154.89 261.111C1154.74 260.727 1154.74 260.19 1154.89 259.807C1155.12 259.424 1155.43 259.117 1155.89 258.964C1160.26 257.89 1165.7 258.733 1170.07 259.424C1171.61 259.654 1173.06 259.884 1174.29 260.037C1178.43 260.497 1182.8 260.881 1186.94 261.187C1187.79 261.264 1188.48 261.954 1188.4 262.798C1188.32 263.641 1187.63 264.331 1186.79 264.255C1182.57 264.025 1178.13 263.641 1173.98 263.104C1172.68 262.951 1171.22 262.721 1169.61 262.491C1166.47 261.954 1162.79 261.417 1159.57 261.571C1160.26 262.031 1161.1 262.491 1161.79 262.951C1164.78 264.638 1168.39 266.709 1166.7 270.083C1166.55 270.39 1166.32 270.62 1166.01 270.773C1164.48 271.616 1162.25 272 1159.64 272Z" fill="white"/>
</g>
<path d="M790.005 301.247L780.548 301.597V301.422L780.201 301.247C780.114 301.247 773.087 298.453 763.891 296.445C752.006 293.912 735.695 292.428 725.285 299.85C714.18 286.752 698.738 281.164 687.633 278.806C677.829 276.71 670.455 276.885 670.368 276.885H670.021V277.06L664.382 274.265C663.254 273.741 662.213 274.003 662.04 274.964L649.026 336.612C648.853 337.486 649.547 338.708 650.675 339.232L698.564 361.673C699.692 362.197 701.514 362.809 702.728 363.071L719.212 366.563C720.426 366.825 722.422 367 723.636 367L776.471 366.127C777.685 366.127 778.813 365.341 778.987 364.468L792 302.819C792 301.946 791.219 301.247 790.005 301.247ZM705.765 357.744C700.646 354.426 684.77 344.559 667.419 338.883L667.158 339.581C683.902 345.082 699.258 354.426 704.724 358.006C704.03 358.181 703.422 358.443 702.989 358.705C697.957 355.823 682.341 347.265 659.524 337.922L659.177 338.621C681.56 347.702 697.002 356.172 702.208 359.141C701.687 359.49 701.514 359.752 701.427 359.752C701.427 359.752 701.34 359.752 701.34 359.84L653.364 336.525L665.684 278.02L669.761 277.409L657.529 335.215L658.049 335.303C658.483 335.39 658.83 335.477 659.177 335.565C691.016 342.376 708.367 355.386 711.317 357.831C709.061 357.395 707.24 357.482 705.765 357.744ZM711.924 357.22C708.281 354.338 690.843 341.59 659.437 334.866C659.177 334.779 659.003 334.779 658.743 334.691L670.802 277.758C672.364 277.758 678.957 277.845 687.372 279.679C698.39 282.037 713.746 287.625 724.591 300.636L711.924 357.22ZM725.632 300.811C735.782 293.389 751.919 294.786 763.718 297.318C771.699 299.064 777.946 301.335 779.507 301.859L767.882 356.696C767.708 356.696 767.535 356.609 767.361 356.609C736.476 349.972 717.39 355.736 712.965 357.307L725.632 300.811ZM774.996 362.634L720.426 363.944C720.426 363.944 720.166 363.507 719.559 362.809C725.892 362.197 743.156 360.888 766.754 361.761L766.667 360.975C742.549 360.102 725.025 361.499 718.952 362.11C718.605 361.673 718.084 361.237 717.564 360.713C724.244 359.665 741.768 357.482 759.12 359.316V358.53C741.248 356.609 723.029 359.054 716.696 360.014C715.655 359.228 714.354 358.617 712.965 358.181C715.915 357.045 735.348 350.234 768.229 357.482L768.749 357.569L780.548 301.771L787.402 304.129L774.996 362.634Z" fill="white"/>
<path d="M968.219 313.715C967.919 314.715 968.419 315.815 969.419 316.215L982.919 320.415C983.919 320.715 985.019 320.115 985.319 319.115C985.619 318.115 985.119 317.015 984.119 316.615L970.619 312.415C969.619 312.115 968.519 312.715 968.219 313.715Z" fill="white"/>
<path d="M967.119 317.315C966.819 318.315 967.319 319.415 968.319 319.815L981.819 324.015C982.819 324.315 983.919 323.715 984.219 322.715C984.519 321.715 984.019 320.515 983.019 320.215L969.519 316.015C968.519 315.715 967.419 316.315 967.119 317.315Z" fill="white"/>
<path d="M966.019 321.015C965.719 322.015 966.219 323.115 967.219 323.515L980.719 327.715C981.719 328.015 982.819 327.415 983.119 326.415C983.419 325.415 982.919 324.315 981.919 323.915L968.419 319.715C967.419 319.315 966.319 319.915 966.019 321.015Z" fill="white"/>
<path d="M972.219 297.815C971.719 298.715 970.919 300.215 970.119 301.815C968.819 304.715 967.519 308.215 968.019 310.515C968.119 310.915 968.219 311.215 968.419 311.515C969.719 313.815 973.519 315.615 976.619 316.615C979.719 317.615 983.919 318.215 986.319 317.115C986.519 317.015 986.819 316.815 987.019 316.615C988.719 315.115 989.719 311.515 990.319 308.315C990.619 306.515 990.819 304.915 990.919 303.815C999.319 302.915 1006.22 297.415 1008.62 289.915C1012.02 279.115 1005.22 267.315 993.419 263.615C981.619 259.915 969.319 265.715 966.019 276.515C963.719 284.015 966.119 292.215 972.219 297.815ZM967.919 277.315C970.919 267.515 982.119 262.315 992.819 265.615C1003.52 268.915 1009.72 279.615 1006.62 289.415C1004.42 296.515 997.819 301.415 989.819 302.015L989.019 302.115L988.919 302.915C988.819 304.615 988.519 306.615 988.119 308.515C987.519 311.815 986.519 314.815 985.319 315.315C983.819 316.015 980.619 315.715 977.219 314.715C973.819 313.615 971.019 312.015 970.219 310.615C969.519 309.415 970.419 306.315 971.819 303.215C972.619 301.415 973.519 299.615 974.419 298.115L974.819 297.415L974.219 296.915C968.219 291.915 965.819 284.215 967.919 277.315Z" fill="white"/>
<path d="M980.019 316.215C980.019 316.215 987.819 298.615 982.919 296.715C978.019 294.815 974.419 314.515 974.419 314.515L980.019 316.215Z" fill="white"/>
<path d="M977.519 289.915L977.819 290.915L980.419 289.715L981.919 291.815L984.919 290.115L986.419 293.315L989.119 292.515L990.419 294.815L991.319 294.015L992.019 294.715L984.019 301.815L983.319 301.115L989.919 295.215L988.919 293.215L986.119 294.115L984.719 290.915L981.819 292.615L980.219 290.515L977.919 291.515L980.019 300.315L979.119 300.515L976.619 290.115L977.519 289.915Z" fill="white"/>
<path d="M979.419 245.115C979.919 245.015 980.519 245.415 980.619 245.915L981.919 254.115C982.019 254.715 981.619 255.215 981.119 255.315C980.919 255.315 980.819 255.315 980.619 255.315C980.219 255.215 980.019 254.915 979.919 254.515L978.619 246.315C978.419 245.815 978.819 245.315 979.419 245.115Z" fill="white"/>
<path d="M992.319 245.015C992.919 245.215 993.219 245.715 993.119 246.215L991.419 254.415C991.319 254.715 991.219 254.915 991.019 255.115C990.819 255.315 990.519 255.315 990.219 255.315H990.119C989.619 255.115 989.319 254.615 989.419 254.115L991.119 245.915C991.219 245.315 991.819 244.915 992.319 245.015Z" fill="white"/>
<path d="M955.619 259.215C955.919 258.715 956.519 258.615 957.019 258.815L963.919 263.115C964.419 263.415 964.519 264.015 964.219 264.515C964.019 264.915 963.519 265.115 963.019 265.015C962.919 265.015 962.819 264.915 962.819 264.915L955.919 260.615C955.519 260.315 955.319 259.715 955.619 259.215Z" fill="white"/>
<path d="M965.719 250.215C966.119 249.915 966.819 250.015 967.119 250.515L971.619 257.415C971.919 257.915 971.819 258.515 971.319 258.815C971.019 259.015 970.719 259.015 970.419 258.915C970.219 258.815 970.019 258.715 969.919 258.515L965.419 251.615C965.119 251.215 965.319 250.615 965.719 250.215Z" fill="white"/>
<path d="M1013.82 256.215C1014.22 255.815 1014.82 255.815 1015.22 256.215C1015.62 256.615 1015.62 257.315 1015.22 257.715L1009.42 263.715C1009.12 264.015 1008.72 264.115 1008.42 264.015C1008.22 264.015 1008.12 263.915 1008.02 263.715C1007.62 263.315 1007.62 262.615 1008.02 262.215L1013.82 256.215Z" fill="white"/>
<path d="M1002.62 249.215L999.319 256.915C999.219 257.215 999.219 257.415 999.319 257.715C999.419 258.015 999.619 258.215 999.819 258.315H999.919C1000.42 258.515 1000.92 258.215 1001.12 257.715L1004.42 250.015C1004.62 249.515 1004.42 248.915 1003.92 248.615H1003.82C1003.32 248.515 1002.82 248.715 1002.62 249.215Z" fill="white"/>
<path d="M1017.72 279.815L1025.82 280.215C1026.42 280.215 1026.82 280.715 1026.72 281.315C1026.72 281.915 1026.22 282.315 1025.62 282.315L1017.52 281.915C1017.42 281.915 1017.32 281.915 1017.32 281.915C1016.92 281.815 1016.62 281.315 1016.62 280.915C1016.62 280.215 1017.12 279.815 1017.72 279.815Z" fill="white"/>
<path d="M1015.92 289.515L1023.42 292.715C1023.92 292.915 1024.12 293.515 1023.92 294.015C1023.72 294.515 1023.02 294.815 1022.52 294.515L1015.02 291.315C1014.92 291.315 1014.92 291.215 1014.82 291.215C1014.42 290.915 1014.32 290.415 1014.52 290.015C1014.72 289.515 1015.32 289.315 1015.92 289.515Z" fill="white"/>
<path d="M960.119 272.015L952.219 270.015C951.719 269.915 951.119 270.215 951.019 270.815C950.919 271.415 951.219 271.915 951.819 272.115L959.719 274.115C959.819 274.115 959.919 274.115 959.919 274.115C960.419 274.115 960.819 273.815 960.919 273.315C961.019 272.715 960.719 272.215 960.119 272.015Z" fill="white"/>
<path d="M1022.22 267.615C1022.72 267.415 1023.32 267.715 1023.52 268.215C1023.72 268.715 1023.42 269.315 1022.92 269.615L1015.32 272.715C1015.12 272.815 1014.82 272.815 1014.62 272.715C1014.32 272.615 1014.12 272.415 1014.02 272.115C1013.82 271.615 1014.12 271.015 1014.62 270.815L1022.22 267.615Z" fill="white"/>
<path d="M976.519 289.815C976.419 290.115 976.619 290.415 976.819 290.415C977.119 290.515 977.419 290.315 977.419 290.115C977.519 289.815 977.319 289.515 977.119 289.515C976.919 289.415 976.619 289.515 976.519 289.815Z" fill="white"/>
<path d="M991.119 294.215C991.019 294.515 991.219 294.815 991.419 294.815C991.719 294.915 992.019 294.715 992.019 294.515C992.119 294.215 991.919 293.915 991.719 293.915C991.519 293.815 991.219 294.015 991.119 294.215Z" fill="white"/>
<path d="M964.519 307.815C964.519 307.915 964.619 307.915 964.519 307.815V307.815Z" fill="white"/>
<path d="M978.219 326.415C978.619 325.315 978.019 324.015 976.819 323.615L973.219 322.415C972.019 322.015 970.819 322.615 970.419 323.715C970.019 324.815 970.719 326.115 971.819 326.515L975.419 327.715C976.519 328.215 977.819 327.615 978.219 326.415Z" fill="white"/>
<g opacity="0.8">
<path d="M81.4176 165.971C81.9932 167.451 83.5555 168.273 84.9533 167.78L104.359 160.873C105.757 160.38 106.497 158.735 105.921 157.255C105.345 155.775 103.783 154.953 102.385 155.446L82.9799 162.435C81.582 162.846 80.842 164.409 81.4176 165.971Z" fill="white"/>
<path d="M83.3086 171.069C83.8842 172.549 85.4465 173.371 86.8443 172.878L106.25 165.889C107.648 165.395 108.388 163.751 107.812 162.271C107.236 160.791 105.674 159.968 104.276 160.462L84.9532 167.451C83.4731 167.944 82.7331 169.589 83.3086 171.069Z" fill="white"/>
<path d="M85.1181 176.331C85.6937 177.812 87.256 178.634 88.6539 178.14L108.059 171.151C109.457 170.658 110.197 169.013 109.622 167.533C109.046 166.053 107.484 165.231 106.086 165.724L86.6804 172.631C85.3648 173.207 84.6247 174.851 85.1181 176.331Z" fill="white"/>
<path d="M72.0436 144.017C72.2903 145.497 72.6192 147.881 73.1948 150.513C74.1815 155.035 75.9083 160.215 78.3751 162.435C78.7862 162.764 79.1974 163.011 79.6085 163.258C83.062 164.738 89.1468 163.504 93.587 161.942C98.1094 160.298 103.536 157.42 105.263 154.048C105.428 153.719 105.592 153.308 105.674 152.897C106.332 149.69 104.359 144.592 102.221 140.399C100.987 138.014 99.7539 135.959 99.0139 134.725C107.894 126.256 111.183 113.922 107.319 103.15C101.727 87.6917 83.4731 79.9624 66.6167 86.0472C49.7603 92.0497 40.6332 109.564 46.2246 125.105C50.007 135.465 60.1208 142.866 72.0436 144.017ZM49.1025 123.954C44.0867 109.975 52.3916 94.1054 67.6035 88.5962C82.8976 83.087 99.425 90.0763 104.441 104.055C108.059 114.169 104.852 125.68 96.136 133.41L95.2315 134.232L95.8893 135.219C97.2049 137.274 98.685 139.823 99.9184 142.372C102.056 146.73 103.536 151.088 102.632 152.815C101.563 154.871 97.5339 157.42 92.6825 159.229C87.8312 160.955 83.1442 161.531 80.9241 160.626C79.1151 159.886 77.4706 155.528 76.3195 150.677C75.6616 147.964 75.1682 145.003 74.8393 142.537L74.6749 141.386L73.4415 141.303C62.2587 140.563 52.6383 133.821 49.1025 123.954Z" fill="white"/>
<path d="M97.2047 158.488C97.2047 158.488 90.791 131.271 83.4729 133.327C76.1547 135.383 89.1465 161.449 89.1465 161.449L97.2047 158.488Z" fill="white"/>
<path d="M71.3037 130.203L72.4548 131.107L74.4282 127.489L78.1284 128.558L80.0196 123.871L84.6243 126.256L87.0089 122.967L90.5446 124.611L90.8735 122.885L92.2714 123.131L89.229 138.343L87.8311 138.096L90.2979 125.516L87.3378 124.118L84.871 127.407L80.513 125.105L78.6217 129.627L74.9215 128.558L73.1126 131.683L83.3087 139.988L82.3219 141.057L70.3169 131.272L71.3037 130.203Z" fill="white"/>
<path d="M34.1377 76.7555C34.631 76.18 35.6178 76.18 36.1933 76.6733L44.9093 85.0604C45.4849 85.636 45.5672 86.6227 44.9916 87.1983C44.8272 87.3627 44.6627 87.5272 44.416 87.6094C43.9226 87.7739 43.3471 87.6917 42.936 87.2805L34.2199 78.8934C33.6443 78.3179 33.6443 77.3311 34.1377 76.7555Z" fill="white"/>
<path d="M49.1026 65.2437L49.267 65.1615C50.007 64.9148 50.747 65.2437 51.0759 65.9015L56.3384 76.9199C56.5029 77.2488 56.5029 77.6599 56.4206 78.071C56.2562 78.4822 56.0096 78.7288 55.6807 78.8933L55.5162 78.9755C54.7761 79.2222 54.0361 78.8933 53.7072 78.1533L48.4447 67.1349C48.0336 66.5593 48.3625 65.6548 49.1026 65.2437Z" fill="white"/>
<path d="M19.0078 113.84C18.9256 113.017 19.5012 112.277 20.3235 112.195L32.0818 111.208C32.9041 111.126 33.6441 111.784 33.7263 112.606C33.8086 113.264 33.3975 113.922 32.7397 114.169C32.6574 114.169 32.493 114.251 32.4107 114.251L20.6523 115.237C19.8301 115.237 19.09 114.662 19.0078 113.84Z" fill="white"/>
<path d="M22.8725 94.5985C23.1192 93.8585 23.9414 93.4474 24.7636 93.694L36.0287 97.7231C36.7688 97.9698 37.1799 98.8743 36.9332 99.6143C36.7687 100.025 36.4398 100.354 36.0287 100.519C35.6998 100.601 35.3708 100.601 35.0419 100.519L23.777 96.4897C23.0369 96.243 22.6258 95.3386 22.8725 94.5985Z" fill="white"/>
<path d="M83.7202 59.3234C83.8024 58.5012 84.5424 57.9256 85.3647 58.0078C86.187 58.09 86.7625 58.9123 86.6803 59.7346L85.2825 71.7396C85.2003 72.3152 84.8713 72.7263 84.2957 72.973C84.049 73.0552 83.8024 73.0552 83.638 73.0552C82.8157 72.973 82.24 72.1507 82.3223 71.3285L83.7202 59.3234Z" fill="white"/>
<path d="M64.5612 61.1324L67.5213 72.973C67.6035 73.3842 67.8502 73.7131 68.1791 73.8775C68.5081 74.1242 68.9192 74.1242 69.3303 74.042L69.4947 73.9597C70.2348 73.7131 70.5637 72.973 70.3992 72.233L67.4391 60.3924C67.2746 59.5701 66.4524 59.0768 65.6301 59.2412L65.4656 59.3235C64.8078 59.5701 64.3967 60.3924 64.5612 61.1324Z" fill="white"/>
<path d="M108.963 83.2516L118.666 76.5913C119.324 76.0979 120.228 76.3446 120.722 77.0024C121.215 77.6602 121.051 78.6469 120.311 79.0581L110.608 85.7184C110.526 85.8006 110.361 85.8828 110.279 85.8828C109.621 86.1295 108.963 85.8828 108.552 85.3073C108.141 84.6494 108.306 83.745 108.963 83.2516Z" fill="white"/>
<path d="M115.295 96.0784L126.807 93.2005C127.547 93.036 128.369 93.5294 128.534 94.3516C128.698 95.1739 128.205 95.9962 127.383 96.1606L115.871 99.0385C115.789 99.0385 115.624 99.1207 115.542 99.1207C114.884 99.1207 114.309 98.6274 114.144 97.9696C114.062 97.1473 114.555 96.3251 115.295 96.0784Z" fill="white"/>
<path d="M35.4533 124.693L24.5995 129.298C23.8594 129.627 23.5305 130.531 23.8594 131.272C24.1883 132.012 25.0928 132.423 25.8329 132.094L36.6867 127.489C36.7689 127.407 36.9334 127.407 37.0156 127.325C37.509 126.914 37.7557 126.173 37.4268 125.598C37.0979 124.776 36.2756 124.447 35.4533 124.693Z" fill="white"/>
<path d="M103.455 65.0794C103.866 64.4216 104.77 64.1749 105.51 64.586C106.168 64.9971 106.415 65.9839 106.004 66.6417L99.9189 76.92C99.7545 77.1666 99.5078 77.4133 99.1789 77.5778C98.7678 77.7422 98.2744 77.66 97.8633 77.4133C97.2055 77.0022 96.9588 76.0155 97.3699 75.3577L103.455 65.0794Z" fill="white"/>
<path d="M70.0706 130.86C70.235 131.271 70.6461 131.436 71.0572 131.271C71.4684 131.107 71.6328 130.696 71.5506 130.367C71.3861 129.956 70.975 129.791 70.5639 129.956C70.1528 130.038 69.9061 130.531 70.0706 130.86Z" fill="white"/>
<path d="M90.7911 123.296C90.9555 123.707 91.3666 123.871 91.7777 123.707C92.1889 123.542 92.3534 123.131 92.2712 122.72C92.1067 122.309 91.6955 122.144 91.2844 122.309C90.8733 122.473 90.7088 122.884 90.7911 123.296Z" fill="white"/>
<path d="M71.8794 162.271C71.9616 162.435 72.0438 162.271 71.8794 162.271V162.271Z" fill="white"/>
<path d="M104.112 171.891C103.536 170.247 101.727 169.342 100 169.918L94.82 171.644C93.0933 172.22 92.1888 174.029 92.7644 175.674C93.34 177.318 95.1489 178.223 96.8757 177.647L102.056 175.92C103.7 175.345 104.605 173.536 104.112 171.891Z" fill="white"/>
</g>
<g opacity="0.6">
<path d="M547.212 80.393C546.942 74.733 545.116 69.5781 542.246 65.1193C542.812 64.9486 543.372 64.6347 543.781 64.1843C545.623 62.1575 544.647 58.2546 541.685 54.8773L542.03 54.5736C542.78 53.7479 542.722 52.5298 541.896 51.7794C541.07 51.0289 539.852 51.087 539.102 51.9128L538.761 52.2881C535.195 49.8014 531.292 49.2697 529.518 51.2214C528.904 51.897 528.655 52.6989 528.631 53.7053C528.556 53.6371 528.485 53.6405 528.413 53.6439C524.384 51.9693 519.89 51.1067 515.233 51.329C511.723 51.4967 508.314 52.3057 505.213 53.5309C504.79 53.6947 504.367 53.8585 503.948 54.094C503.596 54.2544 503.316 54.4114 502.965 54.5718C502.614 54.7322 502.334 54.8891 501.982 55.0495C501.866 54.1216 501.539 53.2755 500.863 52.6614C498.911 50.8876 495.077 51.7888 491.764 54.6039L491.389 54.2628C490.563 53.5123 489.345 53.5705 488.595 54.3962C487.844 55.2219 487.902 56.4399 488.728 57.1904L489.028 57.4633C486.402 61.1074 485.802 65.0855 487.829 66.9276C488.279 67.337 488.794 67.5996 489.446 67.7121C489.316 68.0056 489.187 68.299 489.054 68.5208C488.989 68.6675 488.924 68.8142 488.856 68.8893C488.597 69.4761 488.337 70.063 488.078 70.6498C486.54 74.5292 485.739 78.8042 485.954 83.3179C486.423 93.1335 491.497 101.652 499 106.895L494.819 115.568L497.081 116.322L503.289 109.491C507.698 111.578 512.706 112.703 518.008 112.45C523.238 112.2 528.049 110.678 532.234 108.109L539.066 114.317L541.246 113.351L536.256 105.116C543.373 99.2469 547.681 90.2086 547.212 80.393ZM517.82 107.002C503.992 107.662 492.135 96.9539 491.471 83.0545C490.811 69.2268 501.519 57.3696 515.418 56.7059C529.246 56.0457 541.103 66.7537 541.767 80.653C542.355 94.4842 531.647 106.341 517.82 107.002Z" fill="white"/>
<path d="M535.462 79.4462L518.195 80.2707L517.346 62.5024C517.292 61.3561 516.316 60.4691 515.17 60.5238C514.023 60.5786 513.136 61.5545 513.191 62.7008L514.111 81.9736C514.115 82.0453 514.19 82.1135 514.197 82.2568C514.2 82.3285 514.132 82.4035 514.139 82.5468C514.193 83.6931 515.169 84.5801 516.316 84.5254L535.588 83.6051C536.735 83.5504 537.622 82.5745 537.567 81.4282C537.58 80.2068 536.608 79.3915 535.462 79.4462Z" fill="white"/>
</g>
<path d="M370.348 177.266C369.748 177.266 369.048 177.266 368.348 177.166C366.248 176.966 364.448 176.666 362.548 176.466C360.148 176.166 357.948 175.866 355.348 175.566C352.648 175.266 350.648 175.166 348.448 174.966C346.148 174.766 343.648 174.566 340.248 174.266C338.148 174.066 336.148 173.866 334.248 173.666C330.448 173.266 326.848 172.966 322.348 172.366C320.748 172.166 318.948 172.066 316.848 171.866C313.648 171.666 309.748 171.366 304.848 170.666C303.648 170.466 302.348 170.366 300.948 170.266C298.648 170.066 296.048 169.766 293.148 169.266C293.048 169.266 292.948 169.266 292.848 169.266C292.748 169.266 292.548 169.166 292.448 169.166C292.248 169.166 291.948 169.066 291.748 169.066C291.448 168.966 291.248 168.866 291.048 168.566C289.548 167.666 288.448 166.166 288.148 164.466C287.648 161.666 288.048 156.766 288.548 154.166C288.948 151.266 289.248 148.866 289.448 146.266C289.548 145.366 289.648 144.366 289.748 143.366C290.148 139.866 290.548 136.266 290.948 132.866C291.648 126.766 292.448 120.466 292.948 114.266L293.048 113.666C293.248 111.566 293.548 108.966 295.948 107.866C298.248 106.766 301.348 107.166 303.948 107.566C304.648 107.666 305.248 107.766 305.848 107.866C309.648 108.266 313.148 108.666 316.548 109.166C318.148 109.366 319.848 109.566 321.448 109.766C326.148 110.366 329.948 110.766 333.648 111.066C337.748 111.466 341.748 111.866 346.248 112.466C350.348 112.966 354.148 113.466 358.248 113.866C362.248 114.266 366.348 114.766 370.948 115.366C371.448 115.466 372.048 115.466 372.648 115.566C374.448 115.766 376.448 115.966 378.248 116.466C381.948 117.366 381.948 119.866 381.748 122.866C381.548 124.866 381.348 126.966 381.148 128.966C380.848 131.266 380.648 133.666 380.448 136.066L380.248 138.766C379.448 148.466 378.748 157.666 377.248 166.966C377.048 167.966 377.048 168.966 376.948 169.966C376.748 172.666 376.548 174.966 374.748 176.466C373.548 176.866 372.248 177.266 370.348 177.266ZM292.948 166.966C295.948 167.566 298.748 167.866 301.148 168.066C302.548 168.166 303.848 168.366 305.148 168.566C309.948 169.266 313.848 169.566 317.048 169.766C319.148 169.966 320.948 170.066 322.648 170.266C327.148 170.866 330.748 171.166 334.548 171.566C336.448 171.766 338.448 171.966 340.548 172.166C343.948 172.566 346.348 172.766 348.748 172.866C350.948 173.066 352.948 173.166 355.648 173.466C358.248 173.766 360.548 174.066 362.948 174.366C364.748 174.566 366.648 174.866 368.648 175.066C370.948 175.366 372.548 175.166 373.348 174.466C374.448 173.566 374.548 171.766 374.748 169.366C374.848 168.366 374.948 167.366 375.048 166.266C376.548 156.966 377.248 147.866 378.048 138.166L378.248 135.466C378.448 133.066 378.748 130.666 378.948 128.266C379.148 126.266 379.448 124.266 379.548 122.266C379.848 118.966 379.348 118.466 377.648 117.966C375.948 117.566 373.948 117.366 372.248 117.166C371.648 117.066 371.048 117.066 370.548 116.966C365.948 116.366 361.848 115.866 357.848 115.466C353.848 114.966 349.948 114.566 345.848 114.066C341.348 113.466 337.448 113.066 333.248 112.666C329.548 112.266 325.748 111.866 321.048 111.366C319.348 111.166 317.748 110.966 316.148 110.766C312.848 110.366 309.348 109.866 305.548 109.466C304.948 109.366 304.248 109.266 303.548 109.166C301.248 108.866 298.448 108.366 296.748 109.266C296.748 109.266 296.748 109.266 296.648 109.266C295.348 109.866 295.148 111.266 294.948 113.366L294.848 113.966C294.348 120.166 293.548 126.566 292.848 132.666C292.448 136.066 292.048 139.666 291.648 143.166C291.548 144.166 291.448 145.166 291.348 146.066C291.048 148.666 290.848 151.166 290.448 154.066C290.048 156.466 289.648 161.166 290.048 163.666C290.448 165.366 291.648 166.566 292.948 166.966Z" fill="white"/>
<path d="M380.548 186.366C379.648 186.366 378.648 186.266 377.748 186.166C377.148 186.066 376.548 186.066 376.048 185.966C371.348 185.766 366.648 185.266 362.048 184.766C361.948 184.766 361.948 184.766 361.848 184.766C359.848 184.566 357.448 184.266 354.748 183.966C349.648 183.566 343.748 183.066 337.948 182.466C332.248 181.866 326.348 181.066 320.548 180.366C314.848 179.666 308.848 178.866 303.148 178.266C298.548 177.766 294.148 177.166 289.848 176.566C287.748 176.266 285.748 175.966 283.748 175.766C278.048 174.966 278.348 171.566 278.648 167.466C278.648 167.166 278.648 166.866 278.748 166.566C279.648 153.266 281.048 138.966 283.048 120.366C283.248 118.466 283.348 116.666 283.448 114.966C283.548 112.766 283.648 110.466 283.948 108.066C284.048 107.566 284.048 106.966 284.148 106.366C284.348 104.266 284.548 101.766 286.548 100.366C288.948 98.7659 291.248 98.9659 292.748 99.0659C292.948 99.0659 293.148 99.0659 293.248 99.0659C297.648 99.3659 301.048 99.6659 304.448 99.8659C310.048 100.166 315.448 100.866 320.748 101.566C324.548 102.066 328.448 102.566 332.348 102.866C336.348 103.266 340.248 103.766 344.148 104.166C350.148 104.866 356.448 105.666 362.648 105.966C369.048 106.266 374.448 106.966 380.248 107.766C381.448 107.966 382.648 108.066 383.848 108.266C386.648 108.566 391.848 109.166 392.548 114.266C393.048 116.966 392.548 120.066 392.048 123.166C391.848 124.366 391.648 125.466 391.548 126.566C391.048 131.566 390.648 136.666 390.348 141.766C389.948 148.366 389.048 154.966 388.248 161.466C387.948 164.166 387.648 166.966 387.348 169.666C386.948 173.766 386.548 178.066 385.848 182.266C385.348 185.666 383.048 186.366 380.548 186.366ZM369.848 183.466C371.948 183.666 374.048 183.766 376.148 183.866C376.748 183.866 377.348 183.966 377.948 184.066C381.748 184.466 383.348 184.366 383.848 181.666C384.548 177.566 384.948 173.366 385.348 169.266C385.648 166.566 385.848 163.766 386.248 161.066C387.048 154.666 387.948 148.066 388.348 141.566C388.648 136.466 389.048 131.366 389.548 126.266C389.648 125.166 389.848 123.966 390.048 122.766C390.548 119.866 390.948 116.966 390.548 114.566C390.148 111.566 387.648 110.766 383.548 110.266C382.348 110.066 381.048 109.966 379.848 109.766C374.148 108.966 368.748 108.266 362.448 107.966C356.148 107.666 349.848 106.866 343.848 106.166C340.048 105.666 336.048 105.266 332.148 104.866C328.148 104.466 324.248 103.966 320.448 103.566C315.148 102.866 309.748 102.266 304.248 101.866C300.948 101.666 297.448 101.466 293.048 101.066C292.848 101.066 292.648 101.066 292.448 101.066C290.948 100.966 289.348 100.766 287.548 101.966C286.248 102.866 286.148 104.666 285.948 106.466C285.848 107.066 285.848 107.766 285.748 108.266C285.448 110.566 285.348 112.666 285.248 114.966C285.148 116.766 285.048 118.666 284.848 120.566C282.848 139.166 281.548 153.366 280.548 166.666C280.548 166.966 280.548 167.266 280.448 167.666C280.148 171.766 280.048 173.266 283.748 173.766C285.748 174.066 287.848 174.266 289.948 174.566C294.248 175.166 298.648 175.766 303.148 176.266C308.848 176.866 314.848 177.666 320.548 178.366C326.248 179.066 332.148 179.866 337.848 180.466C343.648 181.066 349.448 181.566 354.648 181.966C362.248 182.766 367.148 183.266 369.148 183.366C369.548 183.366 369.748 183.466 369.848 183.466Z" fill="white"/>
<path d="M385.748 199.166C384.848 199.166 383.948 199.066 383.048 198.966C382.748 198.966 382.448 198.866 382.148 198.866C379.948 198.666 377.848 198.366 375.848 198.166C373.548 197.866 371.448 197.566 369.648 197.566C365.048 197.266 361.148 196.766 357.048 196.366C353.648 195.966 350.048 195.566 345.948 195.266C340.748 194.866 334.348 194.166 327.048 193.366C320.348 192.666 312.748 191.866 304.348 190.966C302.848 190.866 301.448 190.666 300.048 190.566C291.448 189.766 284.148 189.066 275.248 187.166C272.548 186.566 270.648 184.766 270.148 182.466C269.848 181.066 270.048 179.066 270.348 177.666C270.048 177.466 269.948 177.066 270.048 176.666C270.148 176.166 270.548 175.866 271.048 175.866C271.248 175.766 271.548 175.666 271.848 175.766C272.048 175.866 272.248 175.966 272.348 176.166C273.248 176.266 274.348 176.366 275.348 176.466C275.848 176.466 276.248 176.566 276.648 176.566C286.148 177.566 295.748 178.666 305.048 179.766C314.348 180.766 323.848 181.866 333.248 182.866C339.048 183.466 344.948 184.066 350.648 184.566C356.348 185.066 362.148 185.666 367.948 186.266L383.448 187.966C384.048 188.066 384.748 188.066 385.448 188.166C387.548 188.366 389.648 188.566 391.648 189.066C392.148 189.166 392.448 189.666 392.348 190.166C392.348 190.666 392.348 191.266 392.348 191.866C392.348 194.166 392.348 197.066 389.448 198.466C388.248 198.966 387.048 199.166 385.748 199.166ZM272.248 178.166C272.048 179.466 271.848 181.066 272.048 181.966C272.048 181.966 272.048 181.966 272.048 182.066C272.448 184.266 274.848 184.966 275.548 185.166C284.248 186.966 291.548 187.666 300.048 188.466C301.448 188.566 302.948 188.766 304.348 188.866C312.748 189.666 320.348 190.466 327.048 191.266C334.448 192.066 340.748 192.766 345.948 193.166C350.148 193.566 353.648 193.866 357.048 194.266C361.148 194.766 365.048 195.166 369.548 195.466C371.348 195.566 373.548 195.866 375.848 196.166C377.848 196.466 379.948 196.666 382.148 196.866C382.448 196.866 382.848 196.966 383.148 196.966C385.048 197.166 386.848 197.366 388.548 196.666C390.148 195.866 390.248 194.366 390.148 191.966C390.148 191.666 390.148 191.266 390.148 190.966C388.548 190.566 386.848 190.466 385.148 190.266C384.448 190.166 383.748 190.166 383.148 190.066L367.648 188.366C361.948 187.766 356.048 187.166 350.348 186.666C344.648 186.166 338.748 185.566 332.948 184.966C323.548 183.966 313.948 182.866 304.748 181.866C295.448 180.766 285.848 179.766 276.348 178.666C275.948 178.666 275.548 178.566 275.048 178.566C274.248 178.366 273.148 178.266 272.248 178.166Z" fill="white"/>
<path d="M338.148 191.066C337.348 191.066 336.548 190.966 335.848 190.866C335.648 190.866 335.348 190.766 335.148 190.766C332.748 190.466 330.248 190.266 327.948 190.066C327.748 190.066 323.448 189.866 321.848 188.766C321.048 188.166 320.548 187.466 320.748 186.666C320.748 186.366 320.948 185.766 321.848 185.466C322.048 185.166 322.348 184.966 322.748 184.966C323.148 184.966 323.348 184.966 323.648 184.966C324.048 184.966 324.448 184.866 325.048 184.966C327.148 185.266 329.448 185.466 331.648 185.666C333.848 185.866 335.848 186.066 337.548 186.266C337.548 186.266 341.348 186.766 341.648 188.666C341.748 189.166 341.648 190.066 340.248 190.666C339.548 190.966 338.848 191.066 338.148 191.066ZM322.948 187.066C323.648 187.566 326.148 187.966 328.048 188.066C330.348 188.266 332.848 188.466 335.248 188.766C335.548 188.766 335.748 188.866 336.048 188.866C337.048 188.966 338.448 189.166 339.148 188.966C338.648 188.666 337.848 188.466 337.248 188.366C335.548 188.166 333.548 187.966 331.348 187.766C329.148 187.566 326.848 187.366 324.748 187.066C324.348 187.066 324.148 187.066 323.748 187.066C323.548 186.966 323.248 186.966 322.948 187.066C322.948 186.966 323.048 186.966 322.948 187.066Z" fill="white"/>
</g>
</g>
<defs>
<clipPath id="clip0_2226_7133">
<rect width="1400" height="360" fill="white"/>
</clipPath>
<clipPath id="clip1_2226_7133">
<rect width="1400" height="670" fill="white" transform="translate(-1 -203)"/>
</clipPath>
</defs>
</svg>
