<svg width="24" height="24" viewBox="0 0 24 24"
    xmlns="http://www.w3.org/2000/svg">
    <path d="M17.3001 13.35C17.0377 13.3489 16.7863 13.2448 16.6001 13.06C16.4138 12.8727 16.3093 12.6192 16.3093 12.355C16.3093 12.0909 16.4138 11.8374 16.6001 11.65L18.7201 9.53004C18.906 9.34429 19.0536 9.12372 19.1542 8.88092C19.2549 8.63812 19.3067 8.37787 19.3067 8.11504C19.3067 7.85221 19.2549 7.59195 19.1542 7.34916C19.0536 7.10636 18.906 6.88579 18.7201 6.70004L17.3001 5.28004C16.9176 4.91856 16.4113 4.71716 15.8851 4.71716C15.3588 4.71716 14.8525 4.91856 14.4701 5.28004L12.3501 7.40004C12.1584 7.55341 11.917 7.63091 11.6718 7.61778C11.4267 7.60464 11.195 7.5018 11.0208 7.32883C10.8466 7.15586 10.7421 6.92485 10.7272 6.67981C10.7123 6.43477 10.7881 6.19281 10.9401 6.00004L13.0601 3.88004C13.8227 3.15257 14.8361 2.7467 15.8901 2.7467C16.944 2.7467 17.9575 3.15257 18.7201 3.88004L20.1301 5.29004C20.502 5.66153 20.797 6.10269 20.9983 6.58828C21.1996 7.07387 21.3032 7.59438 21.3032 8.12004C21.3032 8.6457 21.1996 9.16621 20.9983 9.6518C20.797 10.1374 20.502 10.5785 20.1301 10.95L18.0001 13.06C17.8138 13.2448 17.5624 13.3489 17.3001 13.35Z" />
    <path d="M8.10992 21.3C7.58448 21.3004 7.06411 21.1973 6.57853 20.9965C6.09294 20.7958 5.65167 20.5013 5.27992 20.13L3.86992 18.72C3.49802 18.3485 3.20298 17.9073 3.00169 17.4217C2.80039 16.9361 2.69678 16.4156 2.69678 15.89C2.69678 15.3643 2.80039 14.8438 3.00169 14.3582C3.20298 13.8726 3.49802 13.4315 3.86992 13.06L5.99992 10.94C6.1927 10.788 6.43465 10.7122 6.67969 10.7271C6.92473 10.7419 7.15574 10.8464 7.32871 11.0206C7.50168 11.1948 7.60453 11.4266 7.61766 11.6717C7.63079 11.9169 7.55329 12.1583 7.39992 12.35L5.27992 14.47C5.09397 14.6557 4.94645 14.8763 4.8458 15.1191C4.74516 15.3619 4.69335 15.6221 4.69335 15.885C4.69335 16.1478 4.74516 16.408 4.8458 16.6508C4.94645 16.8936 5.09397 17.1142 5.27992 17.3L6.69992 18.72C7.08238 19.0814 7.58867 19.2828 8.11492 19.2828C8.64117 19.2828 9.14747 19.0814 9.52992 18.72L11.6499 16.6C11.7372 16.4893 11.8469 16.3983 11.9717 16.333C12.0966 16.2677 12.2339 16.2295 12.3746 16.221C12.5153 16.2124 12.6561 16.2337 12.788 16.2834C12.9199 16.3332 13.0398 16.4102 13.1398 16.5095C13.2398 16.6088 13.3177 16.7281 13.3683 16.8596C13.419 16.9912 13.4413 17.1319 13.4338 17.2726C13.4262 17.4134 13.389 17.5509 13.3246 17.6763C13.2602 17.8016 13.17 17.9119 13.0599 18L10.9399 20.12C10.569 20.4931 10.1281 20.7894 9.64248 20.9919C9.15686 21.1944 8.63606 21.2991 8.10992 21.3Z" />
    <path d="M8.82001 16.18C8.6884 16.1808 8.55794 16.1555 8.4361 16.1058C8.31426 16.056 8.20345 15.9827 8.11001 15.89C8.01628 15.797 7.94188 15.6864 7.89112 15.5646C7.84035 15.4427 7.81421 15.312 7.81421 15.18C7.81421 15.048 7.84035 14.9173 7.89112 14.7954C7.94188 14.6736 8.01628 14.563 8.11001 14.47L14.48 8.11001C14.6674 7.92376 14.9208 7.81921 15.185 7.81921C15.4492 7.81921 15.7026 7.92376 15.89 8.11001C15.9837 8.20297 16.0581 8.31357 16.1089 8.43543C16.1597 8.55729 16.1858 8.68799 16.1858 8.82001C16.1858 8.95202 16.1597 9.08272 16.1089 9.20458C16.0581 9.32644 15.9837 9.43704 15.89 9.53001L9.52001 15.89C9.33375 16.0748 9.08235 16.1789 8.82001 16.18Z" />
</svg>
