<svg width="24" height="24" viewBox="0 0 24 24"
    xmlns="http://www.w3.org/2000/svg">
    <path d="M23.8415 16.1941L15.7176 12.0904C15.5516 12.0048 15.3447 12.0251 15.2009 12.1394C15.0572 12.2538 15.0077 12.4374 15.0795 12.6007L18.6902 20.8086C18.7578 20.9641 18.9194 21.066 19.1034 21.066H19.1077C19.2873 21.066 19.4533 20.968 19.5209 20.8171L20.8056 18.0933L23.8012 16.9251C23.9586 16.8637 24.0664 16.7252 24.075 16.5697C24.0793 16.4188 23.9895 16.2679 23.8415 16.1941Z" />
    <path d="M2.16299 0H0.771126C0.385919 0 0.0751953 0.310723 0.0751953 0.69593C0.0751953 1.08114 0.390433 1.39637 0.77564 1.39637H2.1675C2.55271 1.39637 2.86343 1.0864 2.86343 0.700445C2.86343 0.314485 2.55271 0 2.16299 0Z" />
    <path d="M1.47596 5.09722V3.70536C1.47596 3.3194 1.16524 3.00943 0.780034 3.00943C0.394827 3.00943 0.0795898 3.3194 0.0795898 3.70536V5.10174C0.0795898 5.48694 0.389561 5.79767 0.77552 5.79767C1.16148 5.79767 1.47596 5.48243 1.47596 5.09722Z" />
    <path d="M1.47596 10.1129V8.72108C1.47596 8.33587 1.16524 8.02515 0.780034 8.02515C0.394827 8.02515 0.0795898 8.33512 0.0795898 8.72108V10.1129C0.0795898 10.4981 0.389561 10.8089 0.77552 10.8089C1.16148 10.8089 1.47596 10.4989 1.47596 10.1129Z" />
    <path d="M1.47596 15.1287V13.7368C1.47596 13.3516 1.16524 13.0409 0.780034 13.0409C0.394827 13.0409 0.0795898 13.3516 0.0795898 13.7368V15.1332C0.0795898 15.5184 0.389561 15.8291 0.77552 15.8291C1.16148 15.8291 1.47596 15.5139 1.47596 15.1287Z" />
    <path d="M23.7973 5.09722V3.70536C23.7973 3.3194 23.4865 3.00943 23.1013 3.00943C22.7161 3.00943 22.4009 3.3194 22.4009 3.70536V5.10174C22.4009 5.48694 22.7116 5.79767 23.0968 5.79767C23.4775 5.79767 23.7973 5.48243 23.7973 5.09722Z" />
    <path d="M23.7973 10.1129V8.72108C23.7973 8.33587 23.4865 8.02515 23.1013 8.02515C22.7161 8.02515 22.4009 8.33512 22.4009 8.72108V10.1129C22.4009 10.4981 22.7116 10.8089 23.0968 10.8089C23.4775 10.8134 23.7973 10.4989 23.7973 10.1129Z" />
    <path d="M7.08779 0H5.69593C5.30997 0 5 0.310723 5 0.69593C5 1.08114 5.30997 1.39637 5.69593 1.39637H7.08779C7.473 1.39637 7.78372 1.0864 7.78372 0.700445C7.78372 0.314485 7.47375 0 7.08779 0Z" />
    <path d="M12.0878 0H10.6959C10.3107 0 10 0.310723 10 0.69593C10 1.08114 10.3107 1.39637 10.6959 1.39637H12.0878C12.473 1.39637 12.7837 1.0864 12.7837 0.700445C12.7837 0.314485 12.473 0 12.0878 0Z" />
    <path d="M18.0878 0H16.6959C16.3107 0 16 0.310723 16 0.69593C16 1.08114 16.3107 1.39637 16.6959 1.39637H18.0878C18.473 1.39637 18.7837 1.0864 18.7837 0.700445C18.7837 0.314485 18.473 0 18.0878 0Z" />
    <path d="M23.0878 0H21.6959C21.3107 0 21 0.310723 21 0.69593C21 1.08114 21.3107 1.39637 21.6959 1.39637H23.0878C23.473 1.39637 23.7837 1.0864 23.7837 0.700445C23.7837 0.314485 23.473 0 23.0878 0Z" />
    <path d="M2.17715 17.4122H0.785286C0.400079 17.4122 0.0893555 17.7229 0.0893555 18.1081C0.0893555 18.4934 0.399327 18.8086 0.785286 18.8086H2.17715C2.56311 18.8086 2.87308 18.4979 2.87308 18.1127C2.87308 17.7275 2.56235 17.4122 2.17715 17.4122Z" />
    <path d="M8.10635 17.4122H6.71449C6.32853 17.4122 6.01855 17.7229 6.01855 18.1081C6.01855 18.4934 6.32853 18.8086 6.71449 18.8086H8.10635C8.49155 18.8086 8.80228 18.4979 8.80228 18.1127C8.80228 17.7275 8.49231 17.4122 8.10635 17.4122Z" />
    <path d="M14.1254 17.4122H12.7335C12.3483 17.4122 12.0376 17.7229 12.0376 18.1081C12.0376 18.4934 12.3476 18.8086 12.7335 18.8086H14.1254C14.5106 18.8086 14.8213 18.4979 14.8213 18.1127C14.8213 17.7275 14.5113 17.4122 14.1254 17.4122Z" />
    <path d="M5.2256 5.14606H5.20933L4.20883 5.64584L4 4.67955L5.39078 4H6.40754V9.51729H5.2256V5.14606Z" />
    <path d="M9 9.51729V8.74943L9.65811 8.11411C10.7721 7.05377 11.3108 6.44673 11.3266 5.81141C11.3266 5.3696 11.0779 5.01616 10.4878 5.01616C10.0477 5.01616 9.66391 5.24766 9.39951 5.46857L9.06299 4.55756C9.44675 4.2483 10.0419 4 10.7306 4C11.8803 4 12.5177 4.71838 12.5177 5.70096C12.5177 6.61196 11.901 7.33564 11.1658 8.03723L10.6942 8.45695V8.47374H12.6113V9.51729H9.00083H9Z" />
    <path d="M15.2548 8.19748C15.468 8.3113 15.9576 8.52331 16.4414 8.52331C17.0609 8.52331 17.3781 8.21399 17.3781 7.81171C17.3781 7.28517 16.8735 7.04624 16.3473 7.04624H15.8585V6.15565H16.3215C16.722 6.14523 17.2324 5.9923 17.2324 5.54223C17.2324 5.22162 16.9826 4.98268 16.478 4.98268C16.0617 4.98268 15.6195 5.17297 15.4055 5.3033L15.1607 4.40228C15.468 4.19636 16.0816 4 16.7428 4C17.8361 4 18.4398 4.59778 18.4398 5.33023C18.4398 5.89499 18.1325 6.33985 17.503 6.56836V6.58487C18.1175 6.69869 18.6113 7.18265 18.6113 7.88295C18.6113 8.82828 17.8153 9.51729 16.5196 9.51729C15.8585 9.51729 15.3023 9.3383 15 9.13672L15.2548 8.19748Z" />
</svg>
