<svg width="30" height="30" viewBox="0 0 30 30" fill="none" xmlns="http://www.w3.org/2000/svg">
<g clip-path="url(#clip0_3316_2020)">
<rect width="30" height="30" fill="white"/>
<circle cx="10" cy="10" r="10" transform="matrix(-0.707107 0.707107 0.707107 0.707107 13 -1)" fill="#BDD0FF"/>
<circle cx="10" cy="10" r="9" transform="matrix(-0.707107 0.707107 0.707107 0.707107 16.5356 2.5354)" fill="white" stroke="#83A5FF" stroke-width="2"/>
<path d="M13.0406 13.8291C13.0002 13.4654 13.3235 13.1422 13.6871 13.1826L18.6569 13.3038C19.061 13.3038 19.1822 13.8291 18.859 14.1523L17.2428 15.7685C17.2428 15.7685 19.1822 17.5463 20.0711 18.5969C20.4752 19.0817 20.5156 19.7686 20.0711 20.2131C19.6266 20.6575 18.9398 20.6171 18.4549 20.2131C17.4448 19.3646 15.6266 17.3847 15.6266 17.3847L14.0104 19.0009C13.6871 19.3242 13.1618 19.203 13.1214 18.7585L13.0406 13.8291Z" fill="#83A5FF"/>
</g>
<defs>
<clipPath id="clip0_3316_2020">
<rect width="30" height="30" fill="white"/>
</clipPath>
</defs>
</svg>
