<svg width="30" height="30" viewBox="0 0 30 30" fill="none" xmlns="http://www.w3.org/2000/svg">
<g clip-path="url(#clip0_3316_2010)">
<rect width="30" height="30" fill="white"/>
<circle cx="17" cy="13.1421" r="10" transform="rotate(45 17 13.1421)" fill="#BDD0FF"/>
<circle cx="13.4644" cy="16.6775" r="9" transform="rotate(45 13.4644 16.6775)" fill="white" stroke="#83A5FF" stroke-width="2"/>
<path d="M16.9594 13.8291C16.9998 13.4654 16.6765 13.1422 16.3129 13.1826L11.3431 13.3038C10.939 13.3038 10.8178 13.8291 11.141 14.1523L12.7572 15.7685C12.7572 15.7685 10.8178 17.5463 9.9289 18.5969C9.52485 19.0817 9.48444 19.7686 9.9289 20.2131C10.3734 20.6575 11.0602 20.6171 11.5451 20.2131C12.5552 19.3646 14.3734 17.3847 14.3734 17.3847L15.9896 19.0009C16.3129 19.3242 16.8382 19.203 16.8786 18.7585L16.9594 13.8291Z" fill="#83A5FF"/>
</g>
<defs>
<clipPath id="clip0_3316_2010">
<rect width="30" height="30" fill="white"/>
</clipPath>
</defs>
</svg>
