<svg width="30" height="30" viewBox="0 0 30 30" fill="none" xmlns="http://www.w3.org/2000/svg">
<g clip-path="url(#clip0_3316_2015)">
<rect width="30" height="30" fill="white"/>
<circle cx="10" cy="10" r="10" transform="matrix(0.707107 -0.707107 -0.707107 -0.707107 17 31)" fill="#BDD0FF"/>
<circle cx="10" cy="10" r="9" transform="matrix(0.707107 -0.707107 -0.707107 -0.707107 13.4644 27.4646)" fill="white" stroke="#83A5FF" stroke-width="2"/>
<path d="M16.9594 16.1709C16.9998 16.5346 16.6765 16.8578 16.3129 16.8174L11.3431 16.6962C10.939 16.6962 10.8178 16.1709 11.141 15.8477L12.7572 14.2315C12.7572 14.2315 10.8178 12.4537 9.9289 11.4031C9.52485 10.9183 9.48444 10.2314 9.9289 9.78692C10.3734 9.34247 11.0602 9.38287 11.5451 9.78692C12.5552 10.6354 14.3734 12.6153 14.3734 12.6153L15.9896 10.9991C16.3129 10.6758 16.8382 10.797 16.8786 11.2415L16.9594 16.1709Z" fill="#83A5FF"/>
</g>
<defs>
<clipPath id="clip0_3316_2015">
<rect width="30" height="30" fill="white"/>
</clipPath>
</defs>
</svg>
