<svg width="30" height="30" viewBox="0 0 30 30" fill="none" xmlns="http://www.w3.org/2000/svg">
<g clip-path="url(#clip0_3316_2025)">
<rect width="30" height="30" fill="white"/>
<circle cx="13" cy="15.8579" r="10" transform="rotate(-135 13 15.8579)" fill="#BDD0FF"/>
<circle cx="16.5356" cy="12.3225" r="9" transform="rotate(-135 16.5356 12.3225)" fill="white" stroke="#83A5FF" stroke-width="2"/>
<path d="M13.0406 15.1709C13.0002 15.5346 13.3235 15.8578 13.6871 15.8174L18.6569 15.6962C19.061 15.6962 19.1822 15.1709 18.859 14.8477L17.2428 13.2315C17.2428 13.2315 19.1822 11.4537 20.0711 10.4031C20.4752 9.91826 20.5156 9.23138 20.0711 8.78692C19.6266 8.34247 18.9398 8.38287 18.4549 8.78692C17.4448 9.63543 15.6266 11.6153 15.6266 11.6153L14.0104 9.99907C13.6871 9.67583 13.1618 9.79705 13.1214 10.2415L13.0406 15.1709Z" fill="#83A5FF"/>
</g>
<defs>
<clipPath id="clip0_3316_2025">
<rect width="30" height="30" fill="white"/>
</clipPath>
</defs>
</svg>
