<svg width="40" height="40" viewBox="0 0 40 40" fill="none" xmlns="http://www.w3.org/2000/svg">
<rect width="40" height="40" fill="white"/>
<circle cx="8" cy="8" r="8" transform="matrix(-1 0 0 1 40 12)" fill="#F0FFEB"/>
<circle cx="10" cy="10" r="10" transform="matrix(-1 0 0 1 36 10)" fill="#DBF2E2"/>
<circle cx="12" cy="12" r="12" transform="matrix(-1 0 0 1 33 8)" fill="#BEE2C9"/>
<circle cx="15" cy="20" r="13" fill="url(#paint0_linear_3456_2006)" stroke="#FDFFEB" stroke-width="2"/>
<path d="M30.0001 9.99995L32.6565 7.34355C32.8943 7.10566 33.2115 7.10566 33.4494 7.34355C33.6873 7.58143 33.6873 7.89861 33.4494 8.1365L32.1807 9.40523L39.207 9.44488C39.5242 9.44488 39.7621 9.68276 39.7621 9.99995C39.7621 10.3171 39.5242 10.555 39.207 10.555L32.141 10.555L33.4098 11.8237C33.5287 11.9427 33.5684 12.0616 33.5684 12.2202C33.5684 12.3788 33.5287 12.4978 33.4098 12.6167C33.1719 12.8546 32.8547 12.8546 32.6168 12.6167L30.0001 9.99995Z" fill="#3F51B5"/>
<path d="M38 20.1625C38 20.1625 27.3423 19 26.6289 25.7373C26.6289 26.4723 25.5264 19 22.3415 19C19.1566 19 18.2991 26.1048 17.5641 26.1661C16.8291 26.2273 17.0212 22.5364 15 21.5565" stroke="white" stroke-width="3" stroke-miterlimit="10" stroke-linecap="round"/>
<path d="M38 20.1625C38 20.1625 27.3423 19 26.6289 25.7373C26.6289 26.4723 25.5264 19 22.3415 19C19.1566 19 18.2991 26.1048 17.5641 26.1661C16.8291 26.2273 17.0212 22.5364 15 21.5565" stroke="#3F51B5" stroke-width="1.6" stroke-miterlimit="10" stroke-linecap="round"/>
<defs>
<linearGradient id="paint0_linear_3456_2006" x1="1" y1="14" x2="15" y2="26" gradientUnits="userSpaceOnUse">
<stop stop-color="#CDDB39"/>
<stop offset="1" stop-color="#71BC86"/>
</linearGradient>
</defs>
</svg>
