<svg width="40" height="40" viewBox="0 0 40 40" fill="none" xmlns="http://www.w3.org/2000/svg">
<rect width="40" height="40" fill="white"/>
<circle cx="9" cy="20" r="8" fill="#F0FFEB"/>
<circle cx="15" cy="20" r="10" fill="#DBF2E2"/>
<circle cx="20" cy="20" r="12" fill="#BEE2C9"/>
<circle cx="26" cy="20" r="13" fill="url(#paint0_linear_3456_1973)" stroke="#FDFFEB" stroke-width="2"/>
<path d="M2 9C2 9 11 16 11.3518 26.4475C11.3518 27.393 12.9029 18.5 17 18.5C21.0971 18.5 22.0672 26.9202 23.0127 26.999C23.9582 27.0778 24.3999 22.2606 27 21" stroke="white" stroke-width="3" stroke-miterlimit="10" stroke-linecap="round"/>
<path d="M2 9C2 9 11 16 11.3518 26.4475C11.3518 27.393 12.9029 18.5 17 18.5C21.0971 18.5 22.0672 26.9202 23.0127 26.999C23.9582 27.0778 24.3999 22.2606 27 21" stroke="#3F51B5" stroke-width="1.6" stroke-miterlimit="10" stroke-linecap="round"/>
<defs>
<linearGradient id="paint0_linear_3456_1973" x1="12" y1="14" x2="26" y2="26" gradientUnits="userSpaceOnUse">
<stop stop-color="#CDDB39"/>
<stop offset="1" stop-color="#71BC86"/>
</linearGradient>
</defs>
</svg>
