<svg width="40" height="40" viewBox="0 0 40 40" fill="none" xmlns="http://www.w3.org/2000/svg">
<rect width="40" height="40" fill="white"/>
<circle cx="8" cy="8" r="8" transform="matrix(-1 0 0 1 16 12)" fill="#FFFCEB"/>
<circle cx="10" cy="10" r="10" transform="matrix(-1 0 0 1 22 10)" fill="#ECF2DB"/>
<circle cx="12" cy="12" r="12" transform="matrix(-1 0 0 1 28 8)" fill="#E2DEBE"/>
<circle cx="14" cy="14" r="13" transform="matrix(-1 0 0 1 34 6)" fill="url(#paint0_linear_3497_2060)" stroke="#FDFFEB" stroke-width="2"/>
<path d="M38 9C38 9 29 16 28.6482 26.4475C28.6482 27.393 27.0971 18.5 23 18.5C18.9029 18.5 17.9328 26.9202 16.9873 26.999C16.0418 27.0778 15.6001 22.2606 13 21" stroke="white" stroke-width="3" stroke-miterlimit="10" stroke-linecap="round"/>
<path d="M38 9C38 9 29 16 28.6482 26.4475C28.6482 27.393 27.0971 18.5 23 18.5C18.9029 18.5 17.9328 26.9202 16.9873 26.999C16.0418 27.0778 15.6001 22.2606 13 21" stroke="#3F51B5" stroke-width="1.6" stroke-miterlimit="10" stroke-linecap="round"/>
<defs>
<linearGradient id="paint0_linear_3497_2060" x1="5.10897e-08" y1="8" x2="14" y2="20" gradientUnits="userSpaceOnUse">
<stop stop-color="#FFB079"/>
<stop offset="1" stop-color="#FA8F6D"/>
</linearGradient>
</defs>
</svg>
