<svg width="40" height="40" viewBox="0 0 40 40" fill="none" xmlns="http://www.w3.org/2000/svg">
<rect width="40" height="40" fill="white"/>
<rect opacity="0.5" x="13.4053" y="8.85522" width="23.3087" height="23.3087" rx="4" transform="rotate(13.6299 13.4053 8.85522)" fill="#76E6FB"/>
<path d="M26.4314 3.84734L8.98476 6.81343C6.23175 7.28147 4.37942 9.89264 4.84745 12.6456L7.81355 30.0923C8.28158 32.8453 10.8928 34.6976 13.6458 34.2296L31.0924 31.2635C33.8454 30.7955 35.6977 28.1843 35.2297 25.4313L32.2636 7.98465C31.7956 5.23164 29.1844 3.37931 26.4314 3.84734Z" fill="url(#paint0_linear_3456_1964)"/>
<path d="M13.1724 16.3594C14.5489 16.1254 15.475 14.8198 15.241 13.4433C15.007 12.0668 13.7014 11.1406 12.3249 11.3746C10.9484 11.6086 10.0222 12.9142 10.2562 14.2907C10.4903 15.6672 11.7958 16.5934 13.1724 16.3594Z" fill="white"/>
<path d="M35.0182 24.185L35.23 25.4312C35.4548 26.7532 35.1452 28.1104 34.3693 29.2041C33.5934 30.2979 32.4148 31.0386 31.0927 31.2634L13.6461 34.2295C12.5186 34.4219 11.3591 34.2264 10.3571 33.6748C9.35507 33.1232 8.56967 32.2481 8.12917 31.1926L15.5691 20.7048C15.763 20.4314 16.0576 20.2463 16.3881 20.1901C16.7185 20.134 17.0578 20.2113 17.3312 20.4052L19.9659 22.2742C20.1072 22.3743 20.2675 22.4443 20.437 22.4799C20.6064 22.5154 20.7813 22.5158 20.9509 22.481C21.1205 22.4461 21.2812 22.3768 21.4229 22.2773C21.5646 22.1778 21.6843 22.0503 21.7747 21.9026L24.1102 18.0974C24.2006 17.9498 24.3204 17.8222 24.4621 17.7227C24.6038 17.6233 24.7644 17.5539 24.934 17.5191C25.1036 17.4843 25.2785 17.4846 25.448 17.5202C25.6174 17.5557 25.7778 17.6257 25.9191 17.7258L35.0182 24.185Z" fill="url(#paint1_linear_3456_1964)"/>
<path d="M34.1692 28.9758C30.0559 27.6047 27.6908 27.3648 24.263 34.2202C23.5775 30.1069 14.2833 18.0152 10.3281 19.5968" stroke="#3F51B5" stroke-width="2" stroke-linecap="round" stroke-linejoin="round"/>
<defs>
<linearGradient id="paint0_linear_3456_1964" x1="17.7081" y1="5.33039" x2="21.1193" y2="25.3953" gradientUnits="userSpaceOnUse">
<stop stop-color="#A6F9FF"/>
<stop offset="1" stop-color="#3ED0F7"/>
</linearGradient>
<linearGradient id="paint1_linear_3456_1964" x1="20.1349" y1="19.2259" x2="22.3537" y2="32.2772" gradientUnits="userSpaceOnUse">
<stop stop-color="#A6F9FF"/>
<stop offset="1" stop-color="#3ED0F7"/>
</linearGradient>
</defs>
</svg>
