<svg width="40" height="40" viewBox="0 0 40 40" fill="none" xmlns="http://www.w3.org/2000/svg">
<rect width="40" height="40" fill="white"/>
<path d="M29 11.6852V19.905L28.9994 19.9038L26.1282 16.847C24.7483 15.3782 22.4894 15.3782 21.1095 16.847L17.005 21.2168C15.6245 22.6856 13.3663 22.6856 11.9863 21.2168L10.4293 19.5593C9.04878 18.0899 6.79052 18.0899 5.41061 19.5593L1 24.2542L1 11.6852C1 8.55835 3.55835 6 6.68522 6L23.3142 6C26.441 6 29 8.55835 29 11.6852Z" fill="#3F51B5"/>
<path d="M14.9997 15.444C16.538 15.444 17.785 14.1969 17.785 12.6586C17.785 11.1203 16.538 9.87329 14.9997 9.87329C13.4614 9.87329 12.2144 11.1203 12.2144 12.6586C12.2144 14.1969 13.4614 15.444 14.9997 15.444Z" fill="#CDDB39"/>
<path d="M29 19.905V28.3148C29 31.4416 26.441 34 23.3142 34H6.68522C3.55835 34 1 31.4416 1 28.3148L1 24.2542L5.41061 19.5593C6.79052 18.0899 9.04878 18.0899 10.4293 19.5593L11.9863 21.2168C13.3663 22.6856 15.6245 22.6856 17.005 21.2168L21.1095 16.8469C22.4894 15.3782 24.7483 15.3782 26.1282 16.8469L28.9994 19.9038L29 19.905Z" fill="#CDDB39"/>
<path d="M34.0001 15.9999L36.6565 13.3435C36.8943 13.1057 36.8943 12.7885 36.6565 12.5506C36.4186 12.3127 36.1014 12.3127 35.8635 12.5506L34.5948 13.8193L34.5551 6.79301C34.5551 6.47583 34.3172 6.23794 34.0001 6.23794C33.6829 6.23794 33.445 6.47583 33.445 6.79301L33.445 13.859L32.1763 12.5902C32.0573 12.4713 31.9384 12.4316 31.7798 12.4316C31.6212 12.4316 31.5022 12.4713 31.3833 12.5902C31.1454 12.8281 31.1454 13.1453 31.3833 13.3832L34.0001 15.9999Z" fill="#3F51B5"/>
</svg>
