<svg width="40" height="40" viewBox="0 0 40 40" fill="none" xmlns="http://www.w3.org/2000/svg">
<rect width="40" height="40" fill="white"/>
<path d="M34.0001 15.9999L36.6565 13.3435C36.8943 13.1057 36.8943 12.7885 36.6565 12.5506C36.4186 12.3127 36.1014 12.3127 35.8635 12.5506L34.5948 13.8193L34.5551 6.79301C34.5551 6.47583 34.3172 6.23794 34.0001 6.23794C33.6829 6.23794 33.445 6.47583 33.445 6.79301L33.445 13.859L32.1763 12.5902C32.0573 12.4713 31.9384 12.4316 31.7798 12.4316C31.6212 12.4316 31.5022 12.4713 31.3833 12.5902C31.1454 12.8281 31.1454 13.1453 31.3833 13.3832L34.0001 15.9999Z" fill="#3F51B5"/>
<path d="M29 11.6852V19.905L28.9994 19.9038L26.1282 16.847C24.7483 15.3782 22.4894 15.3782 21.1095 16.847L17.005 21.2168C15.6245 22.6856 13.3663 22.6856 11.9863 21.2168L10.4293 19.5593C9.04878 18.0899 6.79052 18.0899 5.41061 19.5593L1 24.2542L1 11.6852C1 8.55835 3.55835 6 6.68522 6L23.3142 6C26.441 6 29 8.55835 29 11.6852Z" fill="#3F51B5"/>
<path d="M14.9997 15.4437C16.538 15.4437 17.785 14.1967 17.785 12.6584C17.785 11.1201 16.538 9.87305 14.9997 9.87305C13.4614 9.87305 12.2144 11.1201 12.2144 12.6584C12.2144 14.1967 13.4614 15.4437 14.9997 15.4437Z" fill="#F2BD6D"/>
<path d="M29 19.9048V28.3145C29 31.4414 26.441 33.9997 23.3142 33.9997H6.68522C3.55835 33.9997 1 31.4414 1 28.3145L1 24.2539L5.41061 19.5591C6.79052 18.0897 9.04878 18.0897 10.4293 19.5591L11.9863 21.2165C13.3663 22.6853 15.6245 22.6853 17.005 21.2165L21.1095 16.8467C22.4894 15.3779 24.7483 15.3779 26.1282 16.8467L28.9994 19.9036L29 19.9048Z" fill="url(#paint0_linear_3494_1987)"/>
<defs>
<linearGradient id="paint0_linear_3494_1987" x1="15" y1="19.8533" x2="15" y2="33.9997" gradientUnits="userSpaceOnUse">
<stop stop-color="#FFB079"/>
<stop offset="1" stop-color="#FA876A"/>
</linearGradient>
</defs>
</svg>
