<svg width="40" height="40" viewBox="0 0 40 40" fill="none" xmlns="http://www.w3.org/2000/svg">
<rect width="40" height="40" fill="white"/>
<path d="M34 11.6852V19.905L33.9994 19.9038L31.1282 16.847C29.7483 15.3782 27.4894 15.3782 26.1095 16.847L22.005 21.2168C20.6245 22.6856 18.3663 22.6856 16.9863 21.2168L15.4293 19.5593C14.0488 18.0899 11.7905 18.0899 10.4106 19.5593L6 24.2542L6 11.6852C6 8.55835 8.55835 6 11.6852 6L28.3142 6C31.441 6 34 8.55835 34 11.6852Z" fill="#3F51B5"/>
<path d="M19.9997 15.444C21.538 15.444 22.785 14.1969 22.785 12.6586C22.785 11.1203 21.538 9.87329 19.9997 9.87329C18.4614 9.87329 17.2144 11.1203 17.2144 12.6586C17.2144 14.1969 18.4614 15.444 19.9997 15.444Z" fill="#CDDB39"/>
<path d="M34 19.905V28.3148C34 31.4416 31.441 34 28.3142 34H11.6852C8.55835 34 6 31.4416 6 28.3148V24.2542L10.4106 19.5593C11.7905 18.0899 14.0488 18.0899 15.4293 19.5593L16.9863 21.2168C18.3663 22.6856 20.6245 22.6856 22.005 21.2168L26.1095 16.8469C27.4894 15.3782 29.7483 15.3782 31.1282 16.8469L33.9994 19.9038L34 19.905Z" fill="#CDDB39"/>
<rect x="6" y="7" width="28" height="28" rx="6" fill="url(#paint0_linear_3456_2015)"/>
<defs>
<linearGradient id="paint0_linear_3456_2015" x1="20" y1="9.33333" x2="20" y2="35" gradientUnits="userSpaceOnUse">
<stop stop-color="white" stop-opacity="0"/>
<stop offset="1" stop-color="white"/>
</linearGradient>
</defs>
</svg>
