<svg width="40" height="40" viewBox="0 0 40 40" fill="none" xmlns="http://www.w3.org/2000/svg">
<g clip-path="url(#clip0_3456_2075)">
<rect width="40" height="40" fill="white"/>
<path d="M39 11.6852V19.905L38.9994 19.9038L36.1282 16.847C34.7483 15.3782 32.4894 15.3782 31.1095 16.847L27.005 21.2168C25.6245 22.6856 23.3663 22.6856 21.9863 21.2168L20.4293 19.5593C19.0488 18.0899 16.7905 18.0899 15.4106 19.5593L11 24.2542L11 11.6852C11 8.55835 13.5583 6 16.6852 6L33.3142 6C36.441 6 39 8.55835 39 11.6852Z" fill="#3F51B5"/>
<path d="M24.9997 15.444C26.538 15.444 27.785 14.1969 27.785 12.6586C27.785 11.1203 26.538 9.87329 24.9997 9.87329C23.4614 9.87329 22.2144 11.1203 22.2144 12.6586C22.2144 14.1969 23.4614 15.444 24.9997 15.444Z" fill="#CDDB39"/>
<path d="M39 19.905V28.3148C39 31.4416 36.441 34 33.3142 34H16.6852C13.5583 34 11 31.4416 11 28.3148V24.2542L15.4106 19.5593C16.7905 18.0899 19.0488 18.0899 20.4293 19.5593L21.9863 21.2168C23.3663 22.6856 25.6245 22.6856 27.005 21.2168L31.1095 16.8469C32.4894 15.3782 34.7483 15.3782 36.1282 16.8469L38.9994 19.9038L39 19.905Z" fill="#CDDB39"/>
<path d="M1.00005 2.99995L3.65645 0.343545C3.89434 0.105659 4.21152 0.105658 4.44941 0.343545C4.6873 0.581432 4.6873 0.898614 4.44941 1.1365L3.18068 2.40523L10.207 2.44488C10.5242 2.44488 10.7621 2.68276 10.7621 2.99995C10.7621 3.31713 10.5242 3.55501 10.207 3.55502L3.14103 3.55502L4.40976 4.82374C4.5287 4.94269 4.56835 5.06163 4.56835 5.22022C4.56835 5.37881 4.5287 5.49776 4.40976 5.6167C4.17187 5.85459 3.85469 5.85459 3.61681 5.6167L1.00005 2.99995Z" fill="#3F51B5"/>
</g>
<defs>
<clipPath id="clip0_3456_2075">
<rect width="40" height="40" fill="white"/>
</clipPath>
</defs>
</svg>
