<svg width="40" height="40" viewBox="0 0 40 40" fill="none" xmlns="http://www.w3.org/2000/svg">
<g clip-path="url(#clip0_3456_2046)">
<rect width="40" height="40" fill="white"/>
<path d="M34 11.6852V19.905L33.9994 19.9038L31.1282 16.847C29.7483 15.3782 27.4894 15.3782 26.1095 16.847L22.005 21.2168C20.6245 22.6856 18.3663 22.6856 16.9863 21.2168L15.4293 19.5593C14.0488 18.0899 11.7905 18.0899 10.4106 19.5593L6 24.2542L6 11.6852C6 8.55835 8.55835 6 11.6852 6L28.3142 6C31.441 6 34 8.55835 34 11.6852Z" fill="#3F51B5"/>
<path d="M19.9997 15.4437C21.538 15.4437 22.785 14.1967 22.785 12.6584C22.785 11.1201 21.538 9.87305 19.9997 9.87305C18.4614 9.87305 17.2144 11.1201 17.2144 12.6584C17.2144 14.1967 18.4614 15.4437 19.9997 15.4437Z" fill="#CDDB39"/>
<path d="M34 19.9048V28.3145C34 31.4414 31.441 33.9997 28.3142 33.9997H11.6852C8.55835 33.9997 6 31.4414 6 28.3145V24.2539L10.4106 19.5591C11.7905 18.0897 14.0488 18.0897 15.4293 19.5591L16.9863 21.2165C18.3663 22.6853 20.6245 22.6853 22.005 21.2165L26.1095 16.8467C27.4894 15.3779 29.7483 15.3779 31.1282 16.8467L33.9994 19.9036L34 19.9048Z" fill="#CDDB39"/>
<path d="M7.07099 6.99976H3.31427C2.97785 6.99976 2.75357 6.77547 2.75357 6.43905C2.75357 6.10263 2.97785 5.87835 3.31427 5.87835H5.10853L0.168211 0.881962C-0.0560704 0.65768 -0.0560704 0.321257 0.168211 0.0969753C0.392493 -0.127306 0.728916 -0.127306 0.953197 0.0969753L5.94958 5.09336V3.29911C5.94958 3.1309 6.00565 3.01876 6.1178 2.90662C6.22994 2.79447 6.34208 2.7384 6.51029 2.7384C6.84671 2.7384 7.07099 2.96269 7.07099 3.29911V6.99976Z" fill="#3F51B5"/>
</g>
<defs>
<clipPath id="clip0_3456_2046">
<rect width="40" height="40" fill="white"/>
</clipPath>
</defs>
</svg>
