<svg width="40" height="40" viewBox="0 0 40 40" fill="none" xmlns="http://www.w3.org/2000/svg">
<rect width="40" height="40" fill="white"/>
<path d="M-3.09083e-07 5.24521e-05L-1.44872e-07 3.75677C-1.30166e-07 4.09319 0.224282 4.31748 0.560704 4.31748C0.897127 4.31748 1.12141 4.09319 1.12141 3.75677L1.12141 1.96252L6.11779 6.90283C6.34208 7.12712 6.6785 7.12712 6.90278 6.90283C7.12706 6.67855 7.12706 6.34213 6.90278 6.11785L1.90639 1.12146L3.70065 1.12146C3.86886 1.12146 3.981 1.06539 4.09314 0.953249C4.20528 0.841109 4.26135 0.728967 4.26135 0.560756C4.26135 0.224333 4.03707 5.22756e-05 3.70065 5.22903e-05L-3.09083e-07 5.24521e-05Z" fill="#3F51B5"/>
<path d="M34 11.6855V19.9053L33.9994 19.9041L31.1282 16.8472C29.7483 15.3784 27.4894 15.3784 26.1095 16.8472L22.005 21.217C20.6245 22.6858 18.3663 22.6858 16.9863 21.217L15.4293 19.5595C14.0488 18.0902 11.7905 18.0902 10.4106 19.5595L6 24.2544L6 11.6855C6 8.55859 8.55835 6.00024 11.6852 6.00024L28.3142 6.00024C31.441 6.00024 34 8.55859 34 11.6855Z" fill="#3F51B5"/>
<path d="M19.9997 15.444C21.538 15.444 22.785 14.1969 22.785 12.6586C22.785 11.1203 21.538 9.87329 19.9997 9.87329C18.4614 9.87329 17.2144 11.1203 17.2144 12.6586C17.2144 14.1969 18.4614 15.444 19.9997 15.444Z" fill="#F2BD6D"/>
<path d="M34 19.905V28.3148C34 31.4416 31.441 34 28.3142 34H11.6852C8.55835 34 6 31.4416 6 28.3148V24.2542L10.4106 19.5593C11.7905 18.0899 14.0488 18.0899 15.4293 19.5593L16.9863 21.2168C18.3663 22.6856 20.6245 22.6856 22.005 21.2168L26.1095 16.8469C27.4894 15.3782 29.7483 15.3782 31.1282 16.8469L33.9994 19.9038L34 19.905Z" fill="url(#paint0_linear_3494_2010)"/>
<defs>
<linearGradient id="paint0_linear_3494_2010" x1="20" y1="19.8536" x2="20" y2="34" gradientUnits="userSpaceOnUse">
<stop stop-color="#FFB079"/>
<stop offset="1" stop-color="#FA876A"/>
</linearGradient>
</defs>
</svg>
