<svg width="40" height="40" viewBox="0 0 40 40" fill="none" xmlns="http://www.w3.org/2000/svg">
<rect width="40" height="40" fill="white"/>
<path d="M29 11.6852V19.905L28.9994 19.9038L26.1282 16.847C24.7483 15.3782 22.4894 15.3782 21.1095 16.847L17.005 21.2168C15.6245 22.6856 13.3663 22.6856 11.9863 21.2168L10.4293 19.5593C9.04878 18.0899 6.79052 18.0899 5.41061 19.5593L1 24.2542L1 11.6852C1 8.55835 3.55835 6 6.68522 6L23.3142 6C26.441 6 29 8.55835 29 11.6852Z" fill="#3F51B5"/>
<path d="M14.9997 15.4437C16.538 15.4437 17.785 14.1967 17.785 12.6584C17.785 11.1201 16.538 9.87305 14.9997 9.87305C13.4614 9.87305 12.2144 11.1201 12.2144 12.6584C12.2144 14.1967 13.4614 15.4437 14.9997 15.4437Z" fill="#F2BD6D"/>
<path d="M29 19.9048V28.3145C29 31.4414 26.441 33.9997 23.3142 33.9997H6.68522C3.55835 33.9997 1 31.4414 1 28.3145L1 24.2539L5.41061 19.5591C6.79052 18.0897 9.04878 18.0897 10.4293 19.5591L11.9863 21.2165C13.3663 22.6853 15.6245 22.6853 17.005 21.2165L21.1095 16.8467C22.4894 15.3779 24.7483 15.3779 26.1282 16.8467L28.9994 19.9036L29 19.9048Z" fill="url(#paint0_linear_3494_1996)"/>
<path d="M33.9999 24.0001L31.3435 26.6565C31.1057 26.8943 31.1057 27.2115 31.3435 27.4494C31.5814 27.6873 31.8986 27.6873 32.1365 27.4494L33.4052 26.1807L33.4449 33.207C33.4449 33.5242 33.6828 33.7621 33.9999 33.7621C34.3171 33.7621 34.555 33.5242 34.555 33.207L34.555 26.141L35.8237 27.4098C35.9427 27.5287 36.0616 27.5684 36.2202 27.5684C36.3788 27.5684 36.4978 27.5287 36.6167 27.4098C36.8546 27.1719 36.8546 26.8547 36.6167 26.6168L33.9999 24.0001Z" fill="#3F51B5"/>
<defs>
<linearGradient id="paint0_linear_3494_1996" x1="15" y1="19.8533" x2="15" y2="33.9997" gradientUnits="userSpaceOnUse">
<stop stop-color="#FFB079"/>
<stop offset="1" stop-color="#FA876A"/>
</linearGradient>
</defs>
</svg>
