<svg width="30" height="30" viewBox="0 0 30 30" fill="none" xmlns="http://www.w3.org/2000/svg">
<rect width="30" height="30" fill="white"/>
<circle cx="18" cy="15" r="10" transform="rotate(-90 18 15)" fill="#E3EBFF"/>
<circle cx="15" cy="15" r="10" transform="rotate(-90 15 15)" fill="#C8D7FF"/>
<circle cx="12" cy="15" r="9" transform="rotate(-90 12 15)" fill="url(#paint0_linear_3319_2157)" stroke="#83A5FF" stroke-width="2"/>
<path d="M7.51454 14.5431C7.22884 14.7717 7.22884 15.2288 7.51454 15.4574L11.1144 18.8859C11.4002 19.1716 11.8573 18.8859 11.8573 18.4287L11.8573 16.1431C11.8573 16.1431 14.4858 16.2574 15.8572 16.1431C16.4857 16.0859 17 15.6288 17 15.0002C17 14.3717 16.4857 13.9146 15.8572 13.8574C14.5429 13.7431 11.8573 13.8574 11.8573 13.8574L11.8573 11.5718C11.8573 11.1146 11.4002 10.8289 11.0573 11.1146L7.51454 14.5431Z" fill="white"/>
<defs>
<linearGradient id="paint0_linear_3319_2157" x1="12" y1="25" x2="12" y2="5" gradientUnits="userSpaceOnUse">
<stop offset="0.18" stop-color="white"/>
<stop offset="0.59" stop-color="#83A5FF"/>
</linearGradient>
</defs>
</svg>
