<svg width="40" height="40" viewBox="0 0 40 40" fill="none" xmlns="http://www.w3.org/2000/svg">
<g clip-path="url(#clip0_3494_2022)">
<rect width="40" height="40" fill="white"/>
<path d="M40 40.0002L40 36.2435C40 35.9071 39.7757 35.6828 39.4393 35.6828C39.1029 35.6828 38.8786 35.9071 38.8786 36.2435L38.8786 38.0377L33.8822 33.0974C33.6579 32.8731 33.3215 32.8731 33.0972 33.0974C32.8729 33.3217 32.8729 33.6581 33.0972 33.8824L38.0936 38.8788L36.2994 38.8788C36.1311 38.8788 36.019 38.9349 35.9069 39.047C35.7947 39.1591 35.7386 39.2713 35.7386 39.4395C35.7386 39.7759 35.9629 40.0002 36.2994 40.0002L40 40.0002Z" fill="#3F51B5"/>
<path d="M34 11.6855V19.9053L33.9994 19.9041L31.1282 16.8472C29.7483 15.3784 27.4894 15.3784 26.1095 16.8472L22.005 21.217C20.6245 22.6858 18.3663 22.6858 16.9863 21.217L15.4293 19.5595C14.0488 18.0902 11.7905 18.0902 10.4106 19.5595L6 24.2544L6 11.6855C6 8.55859 8.55835 6.00024 11.6852 6.00024L28.3142 6.00024C31.441 6.00024 34 8.55859 34 11.6855Z" fill="#3F51B5"/>
<path d="M19.9997 15.444C21.538 15.444 22.785 14.1969 22.785 12.6586C22.785 11.1203 21.538 9.87329 19.9997 9.87329C18.4614 9.87329 17.2144 11.1203 17.2144 12.6586C17.2144 14.1969 18.4614 15.444 19.9997 15.444Z" fill="#F2BD6D"/>
<path d="M34 19.905V28.3148C34 31.4416 31.441 34 28.3142 34H11.6852C8.55835 34 6 31.4416 6 28.3148V24.2542L10.4106 19.5593C11.7905 18.0899 14.0488 18.0899 15.4293 19.5593L16.9863 21.2168C18.3663 22.6856 20.6245 22.6856 22.005 21.2168L26.1095 16.8469C27.4894 15.3782 29.7483 15.3782 31.1282 16.8469L33.9994 19.9038L34 19.905Z" fill="url(#paint0_linear_3494_2022)"/>
</g>
<defs>
<linearGradient id="paint0_linear_3494_2022" x1="20" y1="19.8536" x2="20" y2="34" gradientUnits="userSpaceOnUse">
<stop stop-color="#FFB079"/>
<stop offset="1" stop-color="#FA876A"/>
</linearGradient>
<clipPath id="clip0_3494_2022">
<rect width="40" height="40" fill="white"/>
</clipPath>
</defs>
</svg>
