<svg width="40" height="40" viewBox="0 0 40 40" fill="none" xmlns="http://www.w3.org/2000/svg">
<g clip-path="url(#clip0_3494_2028)">
<rect width="40" height="40" fill="white"/>
<path d="M29 11.6852V19.905L28.9994 19.9038L26.1282 16.847C24.7483 15.3782 22.4894 15.3782 21.1095 16.847L17.005 21.2168C15.6245 22.6856 13.3663 22.6856 11.9863 21.2168L10.4293 19.5593C9.04878 18.0899 6.79052 18.0899 5.41061 19.5593L1 24.2542L1 11.6852C1 8.55835 3.55835 6 6.68522 6L23.3142 6C26.441 6 29 8.55835 29 11.6852Z" fill="#3F51B5"/>
<path d="M14.9997 15.4437C16.538 15.4437 17.785 14.1967 17.785 12.6584C17.785 11.1201 16.538 9.87305 14.9997 9.87305C13.4614 9.87305 12.2144 11.1201 12.2144 12.6584C12.2144 14.1967 13.4614 15.4437 14.9997 15.4437Z" fill="#F2BD6D"/>
<path d="M29 19.9048V28.3145C29 31.4414 26.441 33.9997 23.3142 33.9997H6.68522C3.55835 33.9997 1 31.4414 1 28.3145L1 24.2539L5.41061 19.5591C6.79052 18.0897 9.04878 18.0897 10.4293 19.5591L11.9863 21.2165C13.3663 22.6853 15.6245 22.6853 17.005 21.2165L21.1095 16.8467C22.4894 15.3779 24.7483 15.3779 26.1282 16.8467L28.9994 19.9036L29 19.9048Z" fill="url(#paint0_linear_3494_2028)"/>
<path d="M38.9999 2.99995L36.3435 0.343545C36.1057 0.105659 35.7885 0.105658 35.5506 0.343545C35.3127 0.581432 35.3127 0.898614 35.5506 1.1365L36.8193 2.40523L29.793 2.44488C29.4758 2.44488 29.2379 2.68276 29.2379 2.99995C29.2379 3.31713 29.4758 3.55501 29.793 3.55502L36.859 3.55502L35.5902 4.82374C35.4713 4.94269 35.4316 5.06163 35.4316 5.22022C35.4316 5.37881 35.4713 5.49776 35.5902 5.6167C35.8281 5.85459 36.1453 5.85459 36.3832 5.6167L38.9999 2.99995Z" fill="#3F51B5"/>
</g>
<defs>
<linearGradient id="paint0_linear_3494_2028" x1="15" y1="19.8533" x2="15" y2="33.9997" gradientUnits="userSpaceOnUse">
<stop stop-color="#FFB079"/>
<stop offset="1" stop-color="#FA876A"/>
</linearGradient>
<clipPath id="clip0_3494_2028">
<rect width="40" height="40" fill="white"/>
</clipPath>
</defs>
</svg>
