<svg width="40" height="40" viewBox="0 0 40 40" fill="none" xmlns="http://www.w3.org/2000/svg">
<g clip-path="url(#clip0_3456_2060)">
<rect width="40" height="40" fill="white"/>
<path d="M34 11.6852V19.905L33.9994 19.9038L31.1282 16.847C29.7483 15.3782 27.4894 15.3782 26.1095 16.847L22.005 21.2168C20.6245 22.6856 18.3663 22.6856 16.9863 21.2168L15.4293 19.5593C14.0488 18.0899 11.7905 18.0899 10.4106 19.5593L6 24.2542L6 11.6852C6 8.55835 8.55835 6 11.6852 6L28.3142 6C31.441 6 34 8.55835 34 11.6852Z" fill="#3F51B5"/>
<path d="M19.9997 15.4437C21.538 15.4437 22.785 14.1967 22.785 12.6584C22.785 11.1201 21.538 9.87305 19.9997 9.87305C18.4614 9.87305 17.2144 11.1201 17.2144 12.6584C17.2144 14.1967 18.4614 15.4437 19.9997 15.4437Z" fill="#CDDB39"/>
<path d="M34 19.9048V28.3145C34 31.4414 31.441 33.9997 28.3142 33.9997H11.6852C8.55835 33.9997 6 31.4414 6 28.3145V24.2539L10.4106 19.5591C11.7905 18.0897 14.0488 18.0897 15.4293 19.5591L16.9863 21.2165C18.3663 22.6853 20.6245 22.6853 22.005 21.2165L26.1095 16.8467C27.4894 15.3779 29.7483 15.3779 31.1282 16.8467L33.9994 19.9036L34 19.9048Z" fill="#CDDB39"/>
<path d="M32.929 33H36.6857C37.0221 33 37.2464 33.2243 37.2464 33.5607C37.2464 33.8971 37.0221 34.1214 36.6857 34.1214H34.8915L39.8318 39.1178C40.0561 39.3421 40.0561 39.6785 39.8318 39.9028C39.6075 40.1271 39.2711 40.1271 39.0468 39.9028L34.0504 34.9064V36.7006C34.0504 36.8689 33.9943 36.981 33.8822 37.0931C33.7701 37.2053 33.6579 37.2614 33.4897 37.2614C33.1533 37.2614 32.929 37.0371 32.929 36.7006V33Z" fill="#3F51B5"/>
</g>
<defs>
<clipPath id="clip0_3456_2060">
<rect width="40" height="40" fill="white"/>
</clipPath>
</defs>
</svg>
