<svg width="40" height="40" viewBox="0 0 40 40" fill="none" xmlns="http://www.w3.org/2000/svg">
<rect width="40" height="40" fill="white"/>
<path d="M29 11.6852V19.905L28.9994 19.9038L26.1282 16.847C24.7483 15.3782 22.4894 15.3782 21.1095 16.847L17.005 21.2168C15.6245 22.6856 13.3663 22.6856 11.9863 21.2168L10.4293 19.5593C9.04878 18.0899 6.79052 18.0899 5.41061 19.5593L1 24.2542L1 11.6852C1 8.55835 3.55835 6 6.68522 6L23.3142 6C26.441 6 29 8.55835 29 11.6852Z" fill="#3F51B5"/>
<path d="M14.9997 15.444C16.538 15.444 17.785 14.1969 17.785 12.6586C17.785 11.1203 16.538 9.87329 14.9997 9.87329C13.4614 9.87329 12.2144 11.1203 12.2144 12.6586C12.2144 14.1969 13.4614 15.444 14.9997 15.444Z" fill="#CDDB39"/>
<path d="M29 19.905V28.3148C29 31.4416 26.441 34 23.3142 34H6.68522C3.55835 34 1 31.4416 1 28.3148L1 24.2542L5.41061 19.5593C6.79052 18.0899 9.04878 18.0899 10.4293 19.5593L11.9863 21.2168C13.3663 22.6856 15.6245 22.6856 17.005 21.2168L21.1095 16.8469C22.4894 15.3782 24.7483 15.3782 26.1282 16.8469L28.9994 19.9038L29 19.905Z" fill="#CDDB39"/>
<path d="M33.9999 24.0001L31.3435 26.6565C31.1057 26.8943 31.1057 27.2115 31.3435 27.4494C31.5814 27.6873 31.8986 27.6873 32.1365 27.4494L33.4052 26.1807L33.4449 33.207C33.4449 33.5242 33.6828 33.7621 33.9999 33.7621C34.3171 33.7621 34.555 33.5242 34.555 33.207L34.555 26.141L35.8237 27.4098C35.9427 27.5287 36.0616 27.5684 36.2202 27.5684C36.3788 27.5684 36.4978 27.5287 36.6167 27.4098C36.8546 27.1719 36.8546 26.8547 36.6167 26.6168L33.9999 24.0001Z" fill="#3F51B5"/>
</svg>
