<svg width="40" height="40" viewBox="0 0 40 40" fill="none" xmlns="http://www.w3.org/2000/svg">
<rect width="40" height="40" fill="white"/>
<rect opacity="0.5" x="9.91309" y="10.2996" width="26.2003" height="26.2003" rx="3.5" fill="#C4F6FF" stroke="#00D1FE"/>
<path d="M25.909 3L8.09088 3C5.27927 3 3 5.27927 3 8.09088L3 25.909C3 28.7206 5.27927 30.9999 8.09088 30.9999H25.909C28.7206 30.9999 30.9999 28.7206 30.9999 25.909V8.09088C30.9999 5.27927 28.7206 3 25.909 3Z" fill="url(#paint0_linear_3456_2083)"/>
<path d="M10.6363 13.1819C12.0421 13.1819 13.1817 12.0423 13.1817 10.6365C13.1817 9.2307 12.0421 8.09106 10.6363 8.09106C9.23045 8.09106 8.09082 9.2307 8.09082 10.6365C8.09082 12.0423 9.23045 13.1819 10.6363 13.1819Z" fill="white"/>
<path d="M31 24.6364V25.9091C31 27.2593 30.4637 28.5542 29.5089 29.5089C28.5542 30.4637 27.2593 31 25.9091 31H8.09105C6.93941 31.0008 5.82155 30.611 4.92002 29.8944C4.01849 29.1778 3.38656 28.1767 3.12744 27.0546L12.2821 17.8999C12.5208 17.6613 12.8445 17.5273 13.1819 17.5273C13.5194 17.5273 13.8431 17.6613 14.0818 17.8999L16.3816 20.1997C16.5049 20.3229 16.6522 20.4194 16.8144 20.4833C16.9766 20.5472 17.1502 20.5771 17.3245 20.5711C17.4987 20.5651 17.6698 20.5235 17.8273 20.4486C17.9847 20.3738 18.1251 20.2674 18.2397 20.1361L21.2001 16.7532C21.3147 16.6218 21.4551 16.5155 21.6126 16.4406C21.77 16.3658 21.9411 16.3241 22.1154 16.3181C22.2896 16.3122 22.4632 16.3421 22.6254 16.4059C22.7876 16.4698 22.9349 16.5664 23.0583 16.6895L31 24.6364Z" fill="url(#paint1_linear_3456_2083)"/>
<defs>
<linearGradient id="paint0_linear_3456_2083" x1="16.9999" y1="3" x2="16.9999" y2="23.4921" gradientUnits="userSpaceOnUse">
<stop stop-color="#A6F9FF"/>
<stop offset="1" stop-color="#3ED0F7"/>
</linearGradient>
<linearGradient id="paint1_linear_3456_2083" x1="17.0637" y1="17.2024" x2="17.0637" y2="30.5317" gradientUnits="userSpaceOnUse">
<stop stop-color="#A6F9FF"/>
<stop offset="1" stop-color="#3ED0F7"/>
</linearGradient>
</defs>
</svg>
