<svg width="40" height="40" viewBox="0 0 40 40" fill="none" xmlns="http://www.w3.org/2000/svg">
<rect width="40" height="40" fill="white"/>
<path d="M17.8145 11.6143V9.51799H18.3145V7.92163H19.7091V7.42163H21.6037V7.92163H25.393V7.42163H27.2877V7.92163H29.1823C29.8208 7.92163 30.4179 8.09212 30.9322 8.38972L31.1826 7.95694C31.7896 8.30815 32.2958 8.8143 32.647 9.42131L32.2142 9.67171C32.5118 10.1861 32.6823 10.7832 32.6823 11.4216V13.3279H33.1823V15.2341H32.6823V19.0466H33.1823V20.9529H32.6823V24.7654H33.1823V26.6716H32.6823V28.5779C32.6823 29.2163 32.5118 29.8134 32.2142 30.3278L32.647 30.5782C32.2958 31.1852 31.7896 31.6914 31.1826 32.0426L30.9322 31.6098C30.4179 31.9074 29.8208 32.0779 29.1823 32.0779H27.2877V32.5779H25.393V32.0779H21.6037V32.5779H19.7091V32.0779H18.3145V30.4815H17.8145V28.3852H18.3145V24.1925H17.8145V22.0961H18.3145V17.9034H17.8145V15.807H18.3145V11.6143H17.8145Z" fill="#E8EEFF" stroke="#3F51B5" stroke-linejoin="round" stroke-dasharray="4 2"/>
<path d="M19.3408 7.42163H11.9252C9.11426 7.42163 6.81738 9.71851 6.81738 12.5294V23.8224L10.7822 19.606C12.0236 18.288 14.0525 18.288 15.2939 19.606L16.6939 21.0935C17.4158 21.8591 18.4002 22.1818 19.3463 22.056V7.42163H19.3408Z" fill="#3F51B5"/>
<path d="M12.6688 15.9095C14.0521 15.9095 15.1734 14.7881 15.1734 13.4048C15.1734 12.0215 14.0521 10.9001 12.6688 10.9001C11.2854 10.9001 10.1641 12.0215 10.1641 13.4048C10.1641 14.7881 11.2854 15.9095 12.6688 15.9095Z" fill="#F2BD6D"/>
<path d="M21.3438 4H19.3438V36H21.3438V4Z" fill="#3F51B5"/>
<path d="M19.3408 22.0564C18.3947 22.1822 17.4104 21.8595 16.6885 21.0939L15.2885 19.6064C14.0471 18.2884 12.0182 18.2884 10.7768 19.6064L6.81738 23.8228V27.4705C6.81738 30.2814 9.11426 32.5783 11.9252 32.5783H19.3408V22.0564Z" fill="url(#paint0_linear_3499_2110)"/>
<defs>
<linearGradient id="paint0_linear_3499_2110" x1="13.0791" y1="18.6179" x2="13.0791" y2="32.5783" gradientUnits="userSpaceOnUse">
<stop stop-color="#FFB079"/>
<stop offset="1" stop-color="#FA8B6B"/>
</linearGradient>
</defs>
</svg>
