<svg width="40" height="40" viewBox="0 0 40 40" fill="none" xmlns="http://www.w3.org/2000/svg">
<rect width="40" height="40" fill="white"/>
<path d="M28.3854 17.8193L30.4818 17.8193L30.4818 18.3193L32.0781 18.3193L32.0781 19.714L32.5781 19.714L32.5781 21.6086L32.0781 21.6086L32.0781 25.3979L32.5781 25.3979L32.5781 27.2926L32.0781 27.2926L32.0781 29.1872C32.0781 29.8256 31.9076 30.4228 31.61 30.9371L32.0428 31.1875C31.6916 31.7945 31.1855 32.3007 30.5784 32.6519L30.328 32.2191C29.8137 32.5167 29.2166 32.6872 28.5781 32.6872L26.6719 32.6872L26.6719 33.1872L24.7656 33.1872L24.7656 32.6872L20.9531 32.6872L20.9531 33.1872L19.0469 33.1872L19.0469 32.6872L15.2344 32.6872L15.2344 33.1872L13.3281 33.1872L13.3281 32.6872L11.4219 32.6872C10.7834 32.6872 10.1863 32.5167 9.67196 32.2191L9.42156 32.6519C8.81455 32.3007 8.3084 31.7945 7.95719 31.1875L8.38997 30.9371C8.09236 30.4228 7.92187 29.8256 7.92187 29.1872L7.92187 27.2925L7.42187 27.2925L7.42187 25.3979L7.92187 25.3979L7.92187 21.6086L7.42187 21.6086L7.42187 19.714L7.92187 19.714L7.92187 18.3193L9.51823 18.3193L9.51823 17.8193L11.6146 17.8193L11.6146 18.3193L15.8073 18.3193L15.8073 17.8193L17.9036 17.8193L17.9036 18.3193L22.0964 18.3193L22.0964 17.8193L24.1927 17.8193L24.1927 18.3193L28.3854 18.3193L28.3854 17.8193Z" fill="#E8EEFF" stroke="#3F51B5" stroke-linejoin="round" stroke-dasharray="4 2"/>
<path d="M15.6166 19.4015C14.4627 18.428 12.8111 18.428 11.6572 19.4015H15.6166Z" fill="#CDDB39"/>
<path d="M32.0393 19.4014L29.9939 17.2248C28.7525 15.9068 26.7236 15.9068 25.4822 17.2248L23.4424 19.4014H32.0393Z" fill="#CDDB39"/>
<path d="M11.6572 19.4014C12.8111 18.4279 14.4627 18.4279 15.6166 19.4014H23.4424L25.4877 17.2248C26.7291 15.9068 28.758 15.9068 29.9994 17.2248L32.0447 19.4014H32.5807V12.5873C32.5752 9.77637 30.2783 7.47949 27.4674 7.47949H12.5268C9.71582 7.47949 7.41895 9.77637 7.41895 12.5873V19.4014H11.6572Z" fill="#3F51B5"/>
<path d="M13.2708 15.9674C14.6541 15.9674 15.7755 14.846 15.7755 13.4627C15.7755 12.0794 14.6541 10.958 13.2708 10.958C11.8875 10.958 10.7661 12.0794 10.7661 13.4627C10.7661 14.846 11.8875 15.9674 13.2708 15.9674Z" fill="#CDDB39"/>
<path d="M33.9971 19.4014H5.99707V20.7139H33.9971V19.4014Z" fill="#3F51B5"/>
<path d="M36 21.3477L36 19.3477L4 19.3477L4 21.3477L36 21.3477Z" fill="#3F51B5"/>
</svg>
