<svg width="40" height="40" viewBox="0 0 40 40" fill="none" xmlns="http://www.w3.org/2000/svg">
<rect width="40" height="40" fill="white"/>
<path d="M28.909 6L11.0909 6C8.27927 6 6 8.27927 6 11.0909L6 28.909C6 31.7206 8.27927 33.9999 11.0909 33.9999H28.909C31.7206 33.9999 33.9999 31.7206 33.9999 28.909V11.0909C33.9999 8.27927 31.7206 6 28.909 6Z" fill="url(#paint0_linear_3456_2125)"/>
<path d="M13.6363 16.1822C15.0421 16.1822 16.1817 15.0426 16.1817 13.6368C16.1817 12.2309 15.0421 11.0913 13.6363 11.0913C12.2305 11.0913 11.0908 12.2309 11.0908 13.6368C11.0908 15.0426 12.2305 16.1822 13.6363 16.1822Z" fill="white"/>
<path d="M34 27.6364V28.9091C34 30.2593 33.4637 31.5542 32.509 32.5089C31.5542 33.4637 30.2593 34 28.9092 34H11.0911C9.93941 34.0008 8.82155 33.611 7.92002 32.8944C7.01849 32.1778 6.38656 31.1767 6.12744 30.0546L15.2821 20.8999C15.5208 20.6613 15.8445 20.5273 16.1819 20.5273C16.5194 20.5273 16.8431 20.6613 17.0818 20.8999L19.3816 23.1997C19.5049 23.3229 19.6523 23.4194 19.8144 23.4833C19.9766 23.5472 20.1502 23.5771 20.3245 23.5711C20.4987 23.5651 20.6698 23.5235 20.8273 23.4486C20.9847 23.3738 21.1251 23.2674 21.2397 23.1361L24.2001 19.7532C24.3147 19.6218 24.4551 19.5155 24.6126 19.4406C24.77 19.3658 24.9411 19.3241 25.1154 19.3181C25.2896 19.3122 25.4632 19.3421 25.6254 19.4059C25.7876 19.4698 25.9349 19.5664 26.0583 19.6895L34 27.6364Z" fill="url(#paint1_linear_3456_2125)"/>
<path d="M38.2128 20.9999L35.5564 18.3435C35.3185 18.1057 35.0014 18.1057 34.7635 18.3435C34.5256 18.5814 34.5256 18.8986 34.7635 19.1365L36.0322 20.4052L29.0059 20.4449C28.6887 20.4449 28.4508 20.6828 28.4508 20.9999C28.4508 21.3171 28.6887 21.555 29.0059 21.555L36.0719 21.555L34.8031 22.8237C34.6842 22.9427 34.6445 23.0616 34.6445 23.2202C34.6445 23.3788 34.6842 23.4978 34.8031 23.6167C35.041 23.8546 35.3582 23.8546 35.5961 23.6167L38.2128 20.9999Z" fill="#3F51B5"/>
<defs>
<linearGradient id="paint0_linear_3456_2125" x1="19.9999" y1="6" x2="19.9999" y2="26.4921" gradientUnits="userSpaceOnUse">
<stop stop-color="#A6F9FF"/>
<stop offset="1" stop-color="#3ED0F7"/>
</linearGradient>
<linearGradient id="paint1_linear_3456_2125" x1="20.0637" y1="20.2024" x2="20.0637" y2="33.5317" gradientUnits="userSpaceOnUse">
<stop stop-color="#A6F9FF"/>
<stop offset="1" stop-color="#3ED0F7"/>
</linearGradient>
</defs>
</svg>
