<svg width="40" height="40" viewBox="0 0 40 40" fill="none" xmlns="http://www.w3.org/2000/svg">
<rect width="40" height="40" fill="white"/>
<path d="M35.7091 21.2022C37.4653 23.617 37.4653 26.2512 35.4896 28.4465C34.1724 29.9832 32.4162 31.5198 30.4405 32.1784C23.4157 35.2517 16.391 35.2517 9.3662 32.1784C7.39048 31.3003 5.85381 29.7636 4.31714 28.227C2.56095 26.2512 2.56095 23.617 4.31714 20.9827C4.31714 21.2022 4.53667 21.4217 4.53667 21.6412C3.8781 25.5927 6.73191 27.7879 10.4638 28.4465C11.5614 28.666 12.8786 29.1051 13.7567 29.7636C17.2691 32.1784 23.4157 31.9589 26.7086 29.3246C27.3672 28.8855 28.0257 28.666 28.6843 28.4465C30.221 27.7879 31.9772 27.5684 33.2943 26.6903C35.7091 25.3731 35.7091 23.3974 35.7091 21.2022Z" fill="#49D4F7"/>
<path d="M26.4794 18.1003C26.9185 20.9541 25.1089 23.8079 24.2308 26.8813C24.2308 27.5398 23.1332 28.4179 22.4746 28.6374C19.6208 29.9546 16.9865 29.7351 14.5717 28.6374C13.4741 28.1984 13.0351 27.3203 13.2546 26.0032C13.9132 23.3689 14.3975 20.5337 15.056 17.8994C19.1318 18.5485 23.556 18.7494 26.4794 18.1003Z" fill="url(#paint0_linear_3456_2168)"/>
<path d="M19.9743 16.2C18.2862 16.2 14.2792 15.7364 12.35 14.5C9.69724 13.0164 10.0649 9.52364 13.2 8.04C18.5054 5.32 24.3151 5.32 28.6559 8.04C31.0675 9.52364 31.0087 12.7227 28.5 14.5C25.9913 16.2773 21.6623 16.2 19.9743 16.2Z" fill="url(#paint1_linear_3456_2168)"/>
<path d="M11.9727 27.4522C8.89936 27.2326 5.55029 24.3736 5.55029 21.3002C5.55029 18.2269 7.05361 15.3502 8.95029 14.5002C10.0479 15.5979 12.1922 16.476 13.0703 17.5736C13.2898 17.7931 13.2003 19.6002 12.3503 21.3002C11.5003 23.0002 11.9727 25.5502 11.9727 27.4522Z" fill="url(#paint2_linear_3456_2168)"/>
<path d="M33.0468 13.0186C33.9249 16.0919 35.3282 19.469 34.4501 22.9813C34.011 24.9571 29.6258 26.9697 27.6501 27.4088C27.3024 26.2971 27.7782 23.6399 27.9977 22.9813C28.2173 20.7861 28.6563 19.3848 28.8758 17.1895C28.8758 16.7505 29.3149 16.0919 29.7539 15.6528C30.632 14.5552 31.9492 13.8967 33.0468 13.0186Z" fill="url(#paint3_linear_3456_2168)"/>
<defs>
<linearGradient id="paint0_linear_3456_2168" x1="19.2404" y1="18.1003" x2="19.2404" y2="29.5448" gradientUnits="userSpaceOnUse">
<stop stop-color="#7DF5FF"/>
<stop offset="1" stop-color="#47D3F7"/>
</linearGradient>
<linearGradient id="paint1_linear_3456_2168" x1="20.5022" y1="6" x2="14.05" y2="12.8" gradientUnits="userSpaceOnUse">
<stop stop-color="#49DAFB"/>
<stop offset="1" stop-color="#85E8FF"/>
</linearGradient>
<linearGradient id="paint2_linear_3456_2168" x1="10.7653" y1="14.5002" x2="10.7653" y2="27.4522" gradientUnits="userSpaceOnUse">
<stop stop-color="#7DF5FF"/>
<stop offset="1" stop-color="#47D3F7"/>
</linearGradient>
<linearGradient id="paint3_linear_3456_2168" x1="30.7616" y1="13.0186" x2="30.7616" y2="25.9705" gradientUnits="userSpaceOnUse">
<stop stop-color="#7DF5FF"/>
<stop offset="1" stop-color="#47D3F7"/>
</linearGradient>
</defs>
</svg>
