<svg width="40" height="40" viewBox="0 0 40 40" fill="none" xmlns="http://www.w3.org/2000/svg">
<rect width="40" height="40" fill="white"/>
<path d="M5.2615 30.888L8.93698 22.7159L4.21136 20.2367C3.48209 19.6858 3.70505 18.791 4.66142 17.9412L16.813 5.45358C17.7131 4.64081 18.1285 5.45427 17.7131 6.64726L13.9626 14.8193L18.6883 17.3903C19.371 17.8081 19.1177 18.7327 18.2382 19.6858L6.16162 32.2653C5.12439 33.1117 4.66142 32.2653 5.2615 30.888Z" fill="#FFFCEB"/>
<path d="M7.28632 32.8824L11.2243 24.1266L6.16117 21.4704C5.37981 20.8801 5.61869 19.9214 6.64338 19.0109L19.6629 5.63128C20.6274 4.76045 21.0724 5.63202 20.6274 6.91021L16.609 15.666L21.6721 18.4206C22.4036 18.8683 22.1322 19.8589 21.1899 20.8801L8.25073 34.3581C7.13941 35.265 6.64338 34.3581 7.28632 32.8824Z" fill="#ECF2DB"/>
<path d="M9.59101 32.8824L13.529 24.1266L8.46586 21.4704C7.68449 20.8801 7.92338 19.9214 8.94807 19.0109L21.9676 5.63128C22.932 4.76045 23.3771 5.63202 22.932 6.91021L18.9137 15.666L23.9768 18.4206C24.7083 18.8683 24.4369 19.8589 23.4946 20.8801L10.5554 34.3581C9.4441 35.265 8.94807 34.3581 9.59101 32.8824Z" fill="#E2DEBE"/>
<path d="M16.4507 24.9703L16.6438 24.5411L16.227 24.3224L10.419 21.2754C10.1428 21.054 10.0721 20.8076 10.1329 20.5192C10.2058 20.1737 10.4838 19.722 11.0364 19.2309L11.05 19.2189L11.0626 19.2059L26.0868 3.76616C26.3006 3.57548 26.438 3.51805 26.4988 3.50393C26.5236 3.55358 26.5585 3.66907 26.5536 3.87573C26.5485 4.09483 26.4992 4.37479 26.3894 4.69611L21.7589 14.7856L21.5641 15.2102L21.9744 15.4334L27.8091 18.6078C27.927 18.6823 27.9841 18.7629 28.0133 18.843C28.0456 18.9313 28.0581 19.0596 28.0186 19.2406C27.937 19.6142 27.6534 20.1155 27.1396 20.6732L12.2218 36.2122C11.9479 36.4312 11.7708 36.4909 11.6905 36.499C11.6708 36.501 11.6659 36.5016 11.6659 36.5014C11.6659 36.5013 11.6708 36.5005 11.6703 36.4997C11.6449 36.4583 11.5992 36.3257 11.6249 36.057C11.6493 35.8006 11.7348 35.4684 11.904 35.0794C11.9044 35.0785 11.9048 35.0776 11.9052 35.0767L16.4507 24.9703Z" fill="url(#paint0_linear_3494_2051)" stroke="#FDFFEB"/>
<path d="M37.9707 22.9888H28.4306C27.9927 22.9888 27.7007 23.3557 27.7007 23.9061C27.7007 24.4566 27.9927 24.8235 28.4306 24.8235H37.9707C38.4087 24.8235 38.7007 24.4566 38.7007 23.9061C38.7007 23.3557 38.3357 22.9888 37.9707 22.9888Z" fill="#3F51B5"/>
<path d="M34.8027 17.0298H30.0723C29.6914 17.0298 29.4375 17.3967 29.4375 17.9472C29.4375 18.4976 29.6914 18.8645 30.0723 18.8645H34.8027C35.1836 18.8645 35.4375 18.4976 35.4375 17.9472C35.4375 17.3967 35.1201 17.0298 34.8027 17.0298Z" fill="#3F51B5"/>
<path d="M35.6736 8.55309C35.3984 8.27788 35.0314 8.27788 34.7562 8.55309C34.6645 8.64482 34.5727 8.8283 34.5727 9.01177C34.5727 9.19525 34.5727 9.28698 34.7562 9.47046L35.9488 10.663H24.2118C23.6614 10.663 23.2944 11.03 23.2944 11.5804C23.2944 12.1308 23.7531 12.4978 24.2118 12.4978H35.857L34.7562 13.5986C34.481 13.8738 34.481 14.2408 34.7562 14.516C35.0314 14.7912 35.3984 14.7912 35.6736 14.516L38.7009 11.4887L35.6736 8.55309Z" fill="#3F51B5"/>
<defs>
<linearGradient id="paint0_linear_3494_2051" x1="28.5433" y1="20" x2="12.9871" y2="15.3743" gradientUnits="userSpaceOnUse">
<stop stop-color="#FA8E6D"/>
<stop offset="1" stop-color="#FFAF78"/>
</linearGradient>
</defs>
</svg>
