<svg width="40" height="40" viewBox="0 0 40 40" fill="none" xmlns="http://www.w3.org/2000/svg">
<rect width="40" height="40" fill="white"/>
<path d="M11.2615 30.8877L14.937 22.7157L10.2114 20.2365C9.48209 19.6856 9.70505 18.7908 10.6614 17.941L22.813 5.45334C23.7131 4.64057 24.1285 5.45403 23.7131 6.64701L19.9626 14.8191L24.6883 17.3901C25.371 17.8079 25.1177 18.7325 24.2382 19.6856L12.1616 32.265C11.1244 33.1115 10.6614 32.265 11.2615 30.8877Z" fill="#F0FFEB"/>
<path d="M13.2863 32.8821L17.2243 24.1264L12.1612 21.4701C11.3798 20.8799 11.6187 19.9211 12.6434 19.0106L25.6629 5.63104C26.6274 4.76021 27.0724 5.63177 26.6274 6.90997L22.609 15.6657L27.6721 18.4204C28.4036 18.8681 28.1322 19.8587 27.1899 20.8799L14.2507 34.3578C13.1394 35.2648 12.6434 34.3578 13.2863 32.8821Z" fill="#DBF2E2"/>
<path d="M15.591 32.8821L19.529 24.1264L14.4659 21.4701C13.6845 20.8799 13.9234 19.9211 14.9481 19.0106L27.9676 5.63104C28.932 4.76021 29.3771 5.63177 28.932 6.90997L24.9137 15.6657L29.9768 18.4204C30.7083 18.8681 30.4369 19.8587 29.4946 20.8799L16.5554 34.3578C15.4441 35.2648 14.9481 34.3578 15.591 32.8821Z" fill="#BEE2C9"/>
<path d="M22.4507 24.97L22.6438 24.5408L22.227 24.3222L16.419 21.2751C16.1428 21.0538 16.0721 20.8074 16.1329 20.519C16.2058 20.1734 16.4838 19.7217 17.0364 19.2307L17.05 19.2186L17.0626 19.2056L32.0868 3.76592C32.3006 3.57523 32.438 3.51781 32.4988 3.50369C32.5236 3.55334 32.5585 3.66883 32.5536 3.87549C32.5485 4.09458 32.4992 4.37455 32.3894 4.69587L27.7589 14.7854L27.5641 15.2099L27.9744 15.4332L33.8091 18.6076C33.927 18.6821 33.9841 18.7627 34.0133 18.8427C34.0456 18.9311 34.0581 19.0594 34.0186 19.2404C33.937 19.614 33.6534 20.1153 33.1396 20.673L18.2218 36.212C17.9479 36.431 17.7708 36.4907 17.6905 36.4988C17.6708 36.5008 17.6659 36.5013 17.6659 36.5012C17.6659 36.5011 17.6708 36.5002 17.6703 36.4994C17.6449 36.458 17.5992 36.3254 17.6249 36.0568C17.6493 35.8004 17.7348 35.4681 17.904 35.0792C17.9044 35.0783 17.9048 35.0774 17.9052 35.0765L22.4507 24.97Z" fill="url(#paint0_linear_3483_1961)" stroke="#FDFFEB"/>
<path d="M14.4712 21.5261H2.48182C1.9314 21.5261 1.56445 21.8931 1.56445 22.4435C1.56445 22.9939 1.9314 23.3609 2.48182 23.3609H14.4712C15.0216 23.3609 15.3886 22.9939 15.3886 22.4435C15.3886 21.8931 14.9299 21.5261 14.4712 21.5261Z" fill="#3F51B5"/>
<path d="M9.31835 15.9666H2.48182C1.9314 15.9666 1.56445 16.3335 1.56445 16.8839C1.56445 17.4343 1.9314 17.8013 2.48182 17.8013H9.31835C9.86877 17.8013 10.2357 17.4343 10.2357 16.8839C10.2357 16.3335 9.77703 15.9666 9.31835 15.9666Z" fill="#3F51B5"/>
<path d="M16.7414 8.55284C16.4662 8.27763 16.0993 8.27763 15.8241 8.55284C15.7323 8.64458 15.6406 8.82805 15.6406 9.01153C15.6406 9.195 15.6406 9.28674 15.8241 9.47021L17.0167 10.6628H5.27967C4.72925 10.6628 4.3623 11.0297 4.3623 11.5802C4.3623 12.1306 4.82099 12.4975 5.27967 12.4975H16.9249L15.8241 13.5984C15.5489 13.8736 15.5489 14.2405 15.8241 14.5157C16.0993 14.791 16.4662 14.791 16.7414 14.5157L19.7688 11.4884L16.7414 8.55284Z" fill="#3F51B5"/>
<defs>
<linearGradient id="paint0_linear_3483_1961" x1="34.5433" y1="19.9998" x2="18.9871" y2="15.374" gradientUnits="userSpaceOnUse">
<stop stop-color="#70BC86"/>
<stop offset="1" stop-color="#D0EA4D"/>
</linearGradient>
</defs>
</svg>
