<svg width="40" height="40" viewBox="0 0 40 40" fill="none" xmlns="http://www.w3.org/2000/svg">
<rect width="40" height="40" fill="white"/>
<path d="M28.0613 30.888L24.3858 22.7159L29.1114 20.2367C29.8407 19.6858 29.6177 18.791 28.6613 17.9412L16.5097 5.45358C15.6096 4.64081 15.1942 5.45427 15.6096 6.64726L19.3601 14.8193L14.6345 17.3903C13.9518 17.8081 14.2051 18.7327 15.0846 19.6858L27.1611 32.2653C28.1984 33.1117 28.6613 32.2653 28.0613 30.888Z" fill="#F0FFEB"/>
<path d="M26.0364 32.8824L22.0984 24.1266L27.1616 21.4704C27.9429 20.8801 27.7041 19.9214 26.6794 19.0109L13.6598 5.63128C12.6954 4.76045 12.2503 5.63202 12.6954 6.91021L16.7138 15.666L11.6506 18.4206C10.9192 18.8683 11.1905 19.8589 12.1328 20.8801L25.072 34.3581C26.1833 35.265 26.6794 34.3581 26.0364 32.8824Z" fill="#DBF2E2"/>
<path d="M23.7317 32.8824L19.7937 24.1266L24.8569 21.4704C25.6383 20.8801 25.3994 19.9214 24.3747 19.0109L11.3551 5.63128C10.3907 4.76045 9.94565 5.63202 10.3907 6.91021L14.4091 15.666L9.34593 18.4206C8.61448 18.8683 8.88585 19.8589 9.82814 20.8801L22.7673 34.3581C23.8787 35.265 24.3747 34.3581 23.7317 32.8824Z" fill="#BEE2C9"/>
<path d="M16.872 24.9703L16.679 24.5411L17.0957 24.3224L22.9038 21.2754C23.18 21.054 23.2507 20.8076 23.1898 20.5192C23.1169 20.1737 22.839 19.722 22.2863 19.2309L22.2728 19.2189L22.2601 19.2059L7.2359 3.76616C7.02215 3.57548 6.8847 3.51805 6.82394 3.50393C6.79916 3.55358 6.76429 3.66907 6.76912 3.87573C6.77424 4.09483 6.82357 4.37479 6.93335 4.69611L11.5639 14.7856L11.7587 15.2102L11.3484 15.4334L5.51362 18.6078C5.39571 18.6823 5.33862 18.7629 5.30941 18.843C5.27717 18.9313 5.26464 19.0596 5.30417 19.2406C5.38577 19.6142 5.66931 20.1155 6.1832 20.6732L21.101 36.2122C21.3749 36.4312 21.552 36.4909 21.6323 36.499C21.652 36.501 21.6568 36.5016 21.6568 36.5014C21.6569 36.5013 21.652 36.5005 21.6525 36.4997C21.6779 36.4583 21.7235 36.3257 21.6979 36.057C21.6734 35.8006 21.5879 35.4684 21.4187 35.0794C21.4183 35.0785 21.4179 35.0776 21.4175 35.0767L16.872 24.9703Z" fill="url(#paint0_linear_3483_1970)" stroke="#FDFFEB"/>
<path d="M25.7939 21.5264H37.7833C38.3337 21.5264 38.7007 21.8933 38.7007 22.4437C38.7007 22.9942 38.3337 23.3611 37.7833 23.3611H25.7939C25.2435 23.3611 24.8765 22.9942 24.8765 22.4437C24.8765 21.8933 25.3352 21.5264 25.7939 21.5264Z" fill="#3F51B5"/>
<path d="M30.9468 15.9668H37.7833C38.3337 15.9668 38.7007 16.3337 38.7007 16.8842C38.7007 17.4346 38.3337 17.8015 37.7833 17.8015H30.9468C30.3964 17.8015 30.0294 17.4346 30.0294 16.8842C30.0294 16.3337 30.4881 15.9668 30.9468 15.9668Z" fill="#3F51B5"/>
<path d="M23.5237 8.55309C23.7989 8.27788 24.1659 8.27788 24.4411 8.55309C24.5328 8.64482 24.6245 8.8283 24.6245 9.01177C24.6245 9.19525 24.6245 9.28698 24.4411 9.47046L23.2485 10.663H34.9855C35.5359 10.663 35.9028 11.03 35.9028 11.5804C35.9028 12.1308 35.4441 12.4978 34.9855 12.4978H23.3402L24.4411 13.5986C24.7163 13.8738 24.7163 14.2408 24.4411 14.516C24.1659 14.7912 23.7989 14.7912 23.5237 14.516L20.4964 11.4887L23.5237 8.55309Z" fill="#3F51B5"/>
<defs>
<linearGradient id="paint0_linear_3483_1970" x1="4.77948" y1="20" x2="20.3356" y2="15.3743" gradientUnits="userSpaceOnUse">
<stop stop-color="#70BC86"/>
<stop offset="1" stop-color="#D0EA4D"/>
</linearGradient>
</defs>
</svg>
