<svg width="40" height="40" viewBox="0 0 40 40" fill="none" xmlns="http://www.w3.org/2000/svg">
<rect width="40" height="40" fill="white"/>
<path d="M35.0608 30.8877L31.3853 22.7157L36.1109 20.2365C36.8402 19.6856 36.6172 18.7908 35.6608 17.941L23.5093 5.45334C22.6091 4.64057 22.1937 5.45403 22.6091 6.64701L26.3596 14.8191L21.634 17.3901C20.9513 17.8079 21.2046 18.7325 22.0841 19.6856L34.1606 32.265C35.1979 33.1115 35.6608 32.265 35.0608 30.8877Z" fill="#FFFCEB"/>
<path d="M33.0359 32.8821L29.0979 24.1264L34.1611 21.4701C34.9425 20.8799 34.7036 19.9211 33.6789 19.0106L20.6593 5.63104C19.6949 4.76021 19.2499 5.63177 19.6949 6.90997L23.7133 15.6657L18.6501 18.4204C17.9187 18.8681 18.1901 19.8587 19.1323 20.8799L32.0715 34.3578C33.1829 35.2648 33.6789 34.3578 33.0359 32.8821Z" fill="#ECF2DB"/>
<path d="M30.7313 32.8821L26.7932 24.1264L31.8564 21.4701C32.6378 20.8799 32.3989 19.9211 31.3742 19.0106L18.3546 5.63104C17.3902 4.76021 16.9452 5.63177 17.3902 6.90997L21.4086 15.6657L16.3454 18.4204C15.614 18.8681 15.8854 19.8587 16.8277 20.8799L29.7668 34.3578C30.8782 35.2648 31.3742 34.3578 30.7313 32.8821Z" fill="#E2DEBE"/>
<path d="M23.8715 24.97L23.6785 24.5408L24.0952 24.3222L29.9033 21.2751C30.1795 21.0538 30.2502 20.8074 30.1893 20.519C30.1164 20.1734 29.8385 19.7217 29.2858 19.2307L29.2723 19.2186L29.2596 19.2056L14.2354 3.76592C14.0217 3.57523 13.8842 3.51781 13.8234 3.50369C13.7987 3.55334 13.7638 3.66883 13.7686 3.87549C13.7738 4.09458 13.8231 4.37455 13.9329 4.69587L18.5634 14.7854L18.7582 15.2099L18.3479 15.4332L12.5131 18.6076C12.3952 18.6821 12.3381 18.7627 12.3089 18.8427C12.2767 18.9311 12.2642 19.0594 12.3037 19.2404C12.3853 19.614 12.6688 20.1153 13.1827 20.673L28.1005 36.212C28.3744 36.431 28.5515 36.4907 28.6318 36.4988C28.6515 36.5008 28.6563 36.5013 28.6564 36.5012C28.6564 36.5011 28.6515 36.5002 28.652 36.4994C28.6774 36.458 28.723 36.3254 28.6974 36.0568C28.673 35.8004 28.5874 35.4681 28.4182 35.0792C28.4178 35.0783 28.4175 35.0774 28.4171 35.0765L23.8715 24.97Z" fill="url(#paint0_linear_3494_2042)" stroke="#FDFFEB"/>
<path d="M2.58641 22.9888H12.1265C12.5645 22.9888 12.8564 23.3557 12.8564 23.9061C12.8564 24.4566 12.5645 24.8235 12.1265 24.8235H2.58641C2.14843 24.8235 1.85645 24.4566 1.85645 23.9061C1.85645 23.3557 2.22143 22.9888 2.58641 22.9888Z" fill="#3F51B5"/>
<path d="M4.99121 17.0298H9.72168C10.1025 17.0298 10.3564 17.3967 10.3564 17.9472C10.3564 18.4976 10.1025 18.8645 9.72168 18.8645H4.99121C4.61035 18.8645 4.35645 18.4976 4.35645 17.9472C4.35645 17.3967 4.67383 17.0298 4.99121 17.0298Z" fill="#3F51B5"/>
<path d="M4.59108 8.55284C4.86629 8.27763 5.23324 8.27763 5.50845 8.55284C5.60018 8.64458 5.69192 8.82805 5.69192 9.01153C5.69192 9.195 5.69192 9.28674 5.50845 9.47021L4.31586 10.6628H16.0528C16.6033 10.6628 16.9702 11.0297 16.9702 11.5802C16.9702 12.1306 16.5115 12.4975 16.0528 12.4975H4.4076L5.50845 13.5984C5.78366 13.8736 5.78366 14.2405 5.50845 14.5157C5.23324 14.791 4.86629 14.791 4.59108 14.5157L1.56376 11.4884L4.59108 8.55284Z" fill="#3F51B5"/>
<defs>
<linearGradient id="paint0_linear_3494_2042" x1="11.779" y1="19.9998" x2="27.3351" y2="15.374" gradientUnits="userSpaceOnUse">
<stop stop-color="#FA896B"/>
<stop offset="1" stop-color="#FFB079"/>
</linearGradient>
</defs>
</svg>
