<svg width="40" height="40" viewBox="0 0 40 40" fill="none" xmlns="http://www.w3.org/2000/svg">
<rect width="40" height="40" fill="white"/>
<rect x="3" y="3" width="34" height="34" rx="4" fill="#DFF9FF"/>
<rect x="4.21436" y="4.21436" width="31.5714" height="31.5714" rx="4" fill="#B7F2FF"/>
<rect x="6" y="6" width="28" height="28" rx="4" fill="#79E5EC"/>
<path d="M27.6354 8H12.3634C9.95357 8 8 9.95357 8 12.3634L8 27.6354C8 30.0452 9.95357 31.9988 12.3634 31.9988H27.6354C30.0452 31.9988 31.9988 30.0452 31.9988 27.6354V12.3634C31.9988 9.95357 30.0452 8 27.6354 8Z" fill="url(#paint0_linear_3456_2091)"/>
<path d="M14.545 16.7265C15.7499 16.7265 16.7267 15.7497 16.7267 14.5447C16.7267 13.3398 15.7499 12.363 14.545 12.363C13.3401 12.363 12.3633 13.3398 12.3633 14.5447C12.3633 15.7497 13.3401 16.7265 14.545 16.7265Z" fill="white"/>
<path d="M31.9991 26.5456V27.6364C31.9991 28.7937 31.5394 29.9035 30.7211 30.7218C29.9028 31.5401 28.7929 31.9998 27.6357 31.9998H12.3637C11.3766 32.0005 10.4185 31.6664 9.6458 31.0522C8.87309 30.438 8.33147 29.58 8.10938 28.6182L15.9559 20.7717C16.1605 20.5672 16.4379 20.4523 16.7271 20.4523C17.0164 20.4523 17.2938 20.5672 17.4984 20.7717L19.4695 22.7428C19.5753 22.8484 19.7015 22.9312 19.8406 22.9859C19.9796 23.0407 20.1284 23.0663 20.2777 23.0612C20.427 23.0561 20.5737 23.0203 20.7087 22.9562C20.8436 22.892 20.9639 22.8009 21.0622 22.6883L23.5995 19.7888C23.6978 19.6762 23.8181 19.5851 23.953 19.5209C24.088 19.4568 24.2347 19.421 24.384 19.4159C24.5333 19.4108 24.6821 19.4364 24.8211 19.4912C24.9601 19.5459 25.0864 19.6287 25.1922 19.7343L31.9991 26.5456Z" fill="url(#paint1_linear_3456_2091)"/>
<defs>
<linearGradient id="paint0_linear_3456_2091" x1="19.9994" y1="8" x2="19.9994" y2="25.5639" gradientUnits="userSpaceOnUse">
<stop stop-color="#A6F9FF"/>
<stop offset="1" stop-color="#3ED0F7"/>
</linearGradient>
<linearGradient id="paint1_linear_3456_2091" x1="20.0542" y1="20.1739" x2="20.0542" y2="31.5984" gradientUnits="userSpaceOnUse">
<stop stop-color="#A6F9FF"/>
<stop offset="1" stop-color="#3ED0F7"/>
</linearGradient>
</defs>
</svg>
