<svg width="40" height="41" viewBox="0 0 40 41" fill="none" xmlns="http://www.w3.org/2000/svg">
<rect width="40" height="40" transform="translate(0 0.298828)" fill="white"/>
<path d="M17.3156 32.9238C8.83237 32.4963 3.18994 30.5297 3.18994 28.1355C3.18994 25.4848 10.0711 22.7078 20.9513 23.2616C31.2523 23.2616 37.1899 25.4848 37.1899 28.1355C37.1899 30.5297 32.9692 32.4963 24.183 32.9238" stroke="#3F51B5" stroke-width="1.5" stroke-miterlimit="10" stroke-linecap="round"/>
<path d="M33.5 10.9737V17.1737L30.6 14.0737C29.2 12.5737 27 12.5737 25.6 14.0737L22.5 18.4737C21.1 19.9737 18.9 19.9737 17.5 18.4737L15.9 16.7737C14.5 15.2737 12.3 15.2737 10.9 16.7737L6.5 21.5737V8.97368C6.5 5.87368 9.1 3.27368 12.2 3.27368L27.8 5.27368C30.9 5.27368 33.5 7.87368 33.5 10.9737Z" fill="#3F51B5"/>
<path d="M14.4001 12.6737C15.9001 12.6737 17.2001 11.4737 17.2001 9.87373C17.2001 8.37373 16.0001 7.07373 14.4001 7.07373C12.8001 7.07373 11.6001 8.37373 11.6001 9.97373C11.6001 11.4737 12.9001 12.6737 14.4001 12.6737Z" fill="#CDDB39"/>
<path d="M33.5 17.1737V23.5737C33.5 26.6737 30.9 29.2737 27.8 29.2737L12.2 31.2737C9.1 31.2737 6.5 28.6737 6.5 25.5737V21.4737L10.9 16.7737C12.3 15.2737 14.5 15.2737 15.9 16.7737L17.5 18.4737C18.9 19.9737 21.1 19.9737 22.5 18.4737L25.6 14.0737C27 12.5737 29.2 12.5737 30.6 14.0737L33.5 17.1737Z" fill="#CDDB39"/>
<path d="M20 33.18L16.3514 29.5313C16.0811 29.261 15.5405 29.261 15.2703 29.5313C15 29.8016 15 30.3421 15.2703 30.6124L17.027 32.3692V33.8556L15.2703 35.6124C15.1351 35.7475 15 35.8827 15 36.1529C15 36.4232 15 36.5583 15.2703 36.6935C15.5405 36.9638 16.0811 36.9638 16.3514 36.6935L20 33.18Z" fill="#3F51B5"/>
<path d="M6.705 24.9058C6.705 24.9058 11.7339 23.0293 20.0356 23.0298C28.3373 23.0302 33.3662 24.9058 33.3662 24.9058" stroke="white" stroke-width="1.6" stroke-dasharray="3.2 3.2"/>
</svg>
