<svg width="40" height="41" viewBox="0 0 40 41" fill="none" xmlns="http://www.w3.org/2000/svg">
<g clip-path="url(#clip0_3507_2211)">
<rect width="40" height="40" transform="matrix(-1 0 0 1 40 0.298828)" fill="white"/>
<path d="M2.44798 14.2296L4.57543 22.1694L4.5757 22.1681L6.55791 18.4722C7.51065 16.6963 9.69256 16.1117 11.4056 17.1733L16.5012 20.3319C18.2148 21.3933 20.3961 20.8089 21.3489 19.033L22.4239 17.029C23.377 15.2523 25.5583 14.6679 27.2715 15.73L32.747 19.1234L29.4939 6.98271C28.6846 3.96239 25.5513 2.15336 22.531 2.96265L6.46863 7.26654C3.4483 8.07584 1.63869 11.2093 2.44798 14.2296Z" fill="#3F51B5"/>
<path d="M16.9442 14.2365C15.4584 14.6346 13.9311 13.7529 13.5329 12.267C13.1348 10.7811 14.0166 9.2538 15.5024 8.85566C16.9883 8.45752 18.5156 9.33931 18.9138 10.8252C19.3119 12.3111 18.4301 13.8384 16.9442 14.2365Z" fill="#F2BD6D"/>
<path d="M4.5756 22.1692L6.7522 30.2924C7.5615 33.3127 10.6954 35.1215 13.7157 34.3122L29.7781 30.0084C32.7984 29.1991 34.6074 26.0657 33.7981 23.0454L32.7472 19.1232L27.2717 15.7298C25.5585 14.6676 23.3772 15.2521 22.424 17.0288L21.349 19.0328C20.3963 20.8086 18.215 21.3931 16.5013 20.3317L11.4058 17.1731C9.69273 16.1115 7.51083 16.6961 6.55808 18.472L4.57588 22.1678L4.5756 22.1692Z" fill="url(#paint0_linear_3507_2211)"/>
<path d="M34.92 26.5086C35.672 27.0397 36.2385 27.7189 36.5747 28.6428C37.2214 30.4195 36.5924 32.4191 35.0561 33.4612C33.5199 34.5032 31.4993 34.4338 30.014 33.2038C29.9177 33.1584 29.8918 33.0873 29.8213 33.1129L30.8785 32.7282C31.3014 32.5743 31.4798 32.1874 31.3246 31.761C31.3246 31.761 31.0659 31.0503 30.3612 31.3068L26.8373 32.5894L28.1307 36.1428C28.1307 36.1428 28.3893 36.8535 29.0941 36.597C29.517 36.4431 29.6954 36.0562 29.5402 35.6298L29.1005 34.4216C30.5857 35.6517 32.543 35.9856 34.2862 35.5121C34.4271 35.4608 34.5681 35.4095 34.709 35.3582C35.1319 35.2043 35.5289 34.9793 35.9 34.6832C38.0188 33.2682 38.8638 30.5461 37.9843 28.1298C37.5704 26.9927 36.8042 25.9838 35.789 25.3875C35.5401 25.8 35.2653 26.1415 34.92 26.5086Z" fill="#3F51B5"/>
</g>
<defs>
<linearGradient id="paint0_linear_3507_2211" x1="21.7466" y1="32.1604" x2="17.022" y2="14.5278" gradientUnits="userSpaceOnUse">
<stop stop-color="#FA8F6C"/>
<stop offset="1" stop-color="#FFAF78"/>
</linearGradient>
<clipPath id="clip0_3507_2211">
<rect width="40" height="40" fill="white" transform="matrix(-1 0 0 1 40 0.298828)"/>
</clipPath>
</defs>
</svg>
