<svg width="40" height="41" viewBox="0 0 40 41" fill="none" xmlns="http://www.w3.org/2000/svg">
<g clip-path="url(#clip0_3479_2331)">
<rect width="40" height="40" transform="matrix(-1 0 0 1 40 0.298828)" fill="white"/>
<path d="M10.0396 4.51946L7.22821 12.2436L7.2292 12.2426L10.9728 10.3521C12.7718 9.44388 14.8945 10.2165 15.6888 12.0686L18.0511 17.5787C18.8461 19.4311 20.9681 20.2035 22.7672 19.2952L24.7972 18.2702C26.597 17.3616 28.7191 18.134 29.5132 19.9867L32.0521 25.907L36.351 14.096C37.4204 11.1577 35.8913 7.87866 32.9531 6.8092L17.3269 1.12177C14.3887 0.052313 11.109 1.58116 10.0396 4.51946Z" fill="#3F51B5"/>
<path d="M21.91 12.8397C20.4645 12.3136 19.7191 10.7152 20.2453 9.26969C20.7714 7.82417 22.3697 7.07885 23.8153 7.60498C25.2608 8.13111 26.0061 9.72945 25.48 11.175C24.9538 12.6205 23.3555 13.3658 21.91 12.8397Z" fill="#CDDB39"/>
<path d="M7.22832 12.2434L4.35202 20.146C3.28256 23.0843 4.81219 26.3635 7.75049 27.433L23.3766 33.1204C26.3149 34.1899 29.594 32.6608 30.6634 29.7225L32.0522 25.9068L29.5133 19.9865C28.7192 18.1338 26.5971 17.3614 24.7973 18.27L22.7673 19.295C20.9682 20.2033 18.8462 19.4309 18.0512 17.5785L15.6889 12.0684C14.8946 10.2163 12.7719 9.4437 10.9729 10.3519L7.22931 12.2424L7.22832 12.2434Z" fill="#CDDB39"/>
<path d="M32.8045 31.2958C33.453 31.9493 33.8932 32.7164 34.0642 33.6846C34.393 35.5465 33.4268 37.4068 31.7332 38.1667C30.0395 38.9266 28.0616 38.508 26.812 37.039C26.725 36.9776 26.7119 36.9031 26.638 36.9162L27.7459 36.7205C28.189 36.6422 28.4318 36.2922 28.3529 35.8453C28.3529 35.8453 28.2214 35.1005 27.4828 35.231L23.79 35.8832L24.4476 39.607C24.4476 39.607 24.5792 40.3518 25.3178 40.2214C25.7609 40.1431 26.0037 39.793 25.9248 39.3462L25.7012 38.08C26.9507 39.549 28.8204 40.2172 30.6193 40.0531C30.767 40.027 30.9147 40.0009 31.0624 39.9748C31.5056 39.8965 31.9355 39.7438 32.3524 39.5166C34.6844 38.4903 35.9885 35.9559 35.5413 33.4237C35.3308 32.2321 34.7511 31.1056 33.8547 30.3424C33.538 30.7055 33.2082 30.9941 32.8045 31.2958Z" fill="#3F51B5"/>
</g>
<defs>
<clipPath id="clip0_3479_2331">
<rect width="40" height="40" fill="white" transform="matrix(-1 0 0 1 40 0.298828)"/>
</clipPath>
</defs>
</svg>
