<svg width="40" height="41" viewBox="0 0 40 41" fill="none" xmlns="http://www.w3.org/2000/svg">
<g clip-path="url(#clip0_3507_2223)">
<rect width="40" height="40" transform="matrix(-1 0 0 1 40 0.298828)" fill="white"/>
<path d="M28.9016 11.4977L31.0291 19.4375L31.0282 19.4365L27.4636 17.2269C25.7506 16.1653 23.5687 16.7499 22.6159 18.5258L19.7824 23.809C18.829 25.5851 16.6477 26.1696 14.9347 25.108L13.0017 23.91C11.2879 22.848 9.10659 23.4324 8.154 25.2089L5.10881 30.8854L1.85572 18.7447C1.04643 15.7243 2.85545 12.591 5.87578 11.7817L21.9381 7.47784C24.9584 6.66855 28.0923 8.47742 28.9016 11.4977Z" fill="#3F51B5"/>
<path d="M16.3515 18.7515C17.8373 18.3534 18.7191 16.8261 18.321 15.3402C17.9228 13.8543 16.3955 12.9725 14.9097 13.3707C13.4238 13.7688 12.542 15.2961 12.9401 16.782C13.3383 18.2679 14.8656 19.1496 16.3515 18.7515Z" fill="#F2BD6D"/>
<path d="M31.0293 19.4373L33.2059 27.5604C34.0152 30.5808 32.2055 33.7143 29.1852 34.5235L13.1229 38.8274C10.1026 39.6367 6.96924 37.8277 6.15994 34.8074L5.10898 30.8851L8.15418 25.2087C9.10677 23.4322 11.2881 22.8477 13.0019 23.9098L14.9348 25.1078C16.6479 26.1694 18.8292 25.5849 19.7825 23.8088L22.6161 18.5256C23.5689 16.7497 25.7508 16.1651 27.4638 17.2267L31.0284 19.4362L31.0293 19.4373Z" fill="url(#paint0_linear_3507_2223)"/>
<path d="M31.3969 12.9735C32.3174 12.9524 33.1664 12.7049 33.961 12.1259C35.4891 11.0125 36.083 9.00214 35.3897 7.28014C34.6964 5.55814 32.981 4.48815 31.0621 4.68002C30.9568 4.66394 30.8957 4.70848 30.8515 4.64787L31.514 5.55709C31.779 5.92078 31.7112 6.3414 31.3444 6.60864C31.3444 6.60864 30.7332 7.05403 30.2915 6.44787L28.0831 3.41712L31.1394 1.19016C31.1394 1.19016 31.7506 0.744773 32.1923 1.35092C32.4573 1.71461 32.3895 2.13523 32.0227 2.40247L30.9836 3.15963C32.9025 2.96777 34.713 3.78291 35.8953 5.14859C35.9836 5.26982 36.0719 5.39105 36.1603 5.51228C36.4253 5.87597 36.6292 6.2842 36.7719 6.73697C37.7405 9.09358 36.9226 11.8239 34.8444 13.3382C33.8664 14.0509 32.6675 14.4604 31.4924 14.3887C31.516 13.9075 31.4786 13.4708 31.3969 12.9735Z" fill="#3F51B5"/>
</g>
<defs>
<linearGradient id="paint0_linear_3507_2223" x1="21.1543" y1="36.6754" x2="16.4297" y2="19.0428" gradientUnits="userSpaceOnUse">
<stop stop-color="#FA8F6C"/>
<stop offset="1" stop-color="#FFAF78"/>
</linearGradient>
<clipPath id="clip0_3507_2223">
<rect width="40" height="40" fill="white" transform="matrix(-1 0 0 1 40 0.298828)"/>
</clipPath>
</defs>
</svg>
