<svg width="40" height="41" viewBox="0 0 40 41" fill="none" xmlns="http://www.w3.org/2000/svg">
<g clip-path="url(#clip0_3479_2319)">
<rect width="40" height="40" transform="translate(0 0.298828)" fill="white"/>
<path d="M4.3523 20.6604L7.16365 28.3845L7.16381 28.3831L8.81636 24.5286C9.6107 22.6764 11.7333 21.9039 13.5324 22.8121L18.8839 25.5146C20.6835 26.4226 22.8056 25.6503 23.5999 23.7981L24.4961 21.708C25.2909 19.8551 27.4129 19.0827 29.2122 19.9916L34.9625 22.8948L30.6637 11.0838C29.5942 8.14552 26.3152 6.61646 23.3769 7.68591L7.75077 13.3734C4.81248 14.4428 3.28285 17.7221 4.3523 20.6604Z" fill="#3F51B5"/>
<path d="M18.7938 19.4039C17.3483 19.93 15.7499 19.1847 15.2238 17.7392C14.6977 16.2937 15.443 14.6953 16.8885 14.1692C18.334 13.6431 19.9324 14.3884 20.4585 15.8339C20.9846 17.2794 20.2393 18.8778 18.7938 19.4039Z" fill="#CDDB39"/>
<path d="M7.16355 28.3843L10.0398 36.2869C11.1093 39.2252 14.3889 40.754 17.3272 39.6846L32.9533 33.9971C35.8916 32.9277 37.4207 29.6486 36.3512 26.7103L34.9624 22.8946L29.2121 19.9914C27.4128 19.0826 25.2907 19.8549 24.496 21.7079L23.5998 23.7979C22.8054 25.6501 20.6834 26.4225 18.8838 25.5144L13.5323 22.8119C11.7332 21.9037 9.61059 22.6763 8.81625 24.5284L7.1637 28.383L7.16355 28.3843Z" fill="#CDDB39"/>
<path d="M32.8045 9.50983C33.453 8.85636 33.8932 8.08929 34.0642 7.12108C34.393 5.25914 33.4268 3.39888 31.7332 2.63895C30.0395 1.87903 28.0616 2.2977 26.812 3.76663C26.725 3.82806 26.7119 3.90254 26.638 3.8895L27.7459 4.08516C28.189 4.16343 28.4318 4.51351 28.3529 4.96038C28.3529 4.96038 28.2214 5.70515 27.4828 5.57471L23.79 4.9225L24.4476 1.19862C24.4476 1.19862 24.5792 0.453846 25.3178 0.584288C25.7609 0.662553 26.0037 1.01264 25.9248 1.45951L25.7012 2.72562C26.9507 1.25669 28.8204 0.5885 30.6193 0.752606C30.767 0.778695 30.9147 0.804783 31.0624 0.830871C31.5056 0.909137 31.9355 1.06188 32.3524 1.2891C34.6844 2.31538 35.9885 4.84972 35.5413 7.38196C35.3308 8.5736 34.7511 9.70002 33.8547 10.4633C33.538 10.1002 33.2082 9.81153 32.8045 9.50983Z" fill="#3F51B5"/>
</g>
<defs>
<clipPath id="clip0_3479_2319">
<rect width="40" height="40" fill="white" transform="translate(0 0.298828)"/>
</clipPath>
</defs>
</svg>
