<svg width="40" height="41" viewBox="0 0 40 41" fill="none" xmlns="http://www.w3.org/2000/svg">
<rect width="40" height="40" transform="translate(0 0.298828)" fill="white"/>
<path d="M17.3156 32.9238C8.83237 32.4963 3.18994 30.5297 3.18994 28.1355C3.18994 25.4848 10.0711 22.7078 20.9513 23.2616C31.2523 23.2616 37.1899 25.4848 37.1899 28.1355C37.1899 30.5297 32.9692 32.4963 24.183 32.9238" stroke="#3F51B5" stroke-width="1.5" stroke-miterlimit="10" stroke-linecap="round"/>
<path d="M6.5 10.9737V17.1737L9.4 14.0737C10.8 12.5737 13 12.5737 14.4 14.0737L17.5 18.4737C18.9 19.9737 21.1 19.9737 22.5 18.4737L24.1 16.7737C25.5 15.2737 27.7 15.2737 29.1 16.7737L33.5 21.5737V8.97368C33.5 5.87368 30.9 3.27368 27.8 3.27368L12.2 5.27368C9.1 5.27368 6.5 7.87368 6.5 10.9737Z" fill="#3F51B5"/>
<path d="M16.4746 10.8235C15.4032 10.8235 14.4746 9.96634 14.4746 8.82349C14.4746 7.75206 15.3318 6.82349 16.4746 6.82349C17.6175 6.82349 18.4746 7.75206 18.4746 8.89492C18.4746 9.96634 17.546 10.8235 16.4746 10.8235Z" fill="#F2BD6D"/>
<path d="M6.5 17.1737V23.5737C6.5 26.6737 9.1 29.2737 12.2 29.2737L27.8 31.2737C30.9 31.2737 33.5 28.6737 33.5 25.5737V21.4737L29.1 16.7737C27.7 15.2737 25.5 15.2737 24.1 16.7737L22.5 18.4737C21.1 19.9737 18.9 19.9737 17.5 18.4737L14.4 14.0737C13 12.5737 10.8 12.5737 9.4 14.0737L6.5 17.1737Z" fill="url(#paint0_linear_3507_2202)"/>
<path d="M22.7998 33.1805L26.4485 29.5318C26.7187 29.2615 27.2593 29.2615 27.5295 29.5318C27.7998 29.8021 27.7998 30.3426 27.5295 30.6129L25.7728 32.3696V33.8561L27.5295 35.6129C27.6647 35.748 27.7998 35.8832 27.7998 36.1534C27.7998 36.4237 27.7998 36.5588 27.5295 36.694C27.2593 36.9642 26.7187 36.9642 26.4485 36.694L22.7998 33.1805Z" fill="#3F51B5"/>
<path d="M6.705 24.9058C6.705 24.9058 11.7339 23.0293 20.0356 23.0298C28.3373 23.0302 33.3662 24.9058 33.3662 24.9058" stroke="white" stroke-width="1.6" stroke-dasharray="3.2 3.2"/>
<defs>
<linearGradient id="paint0_linear_3507_2202" x1="20" y1="31.2737" x2="20" y2="12.9487" gradientUnits="userSpaceOnUse">
<stop stop-color="#FA8B6B"/>
<stop offset="1" stop-color="#FFB079"/>
</linearGradient>
</defs>
</svg>
