<svg width="40" height="41" viewBox="0 0 40 41" fill="none" xmlns="http://www.w3.org/2000/svg">
<g clip-path="url(#clip0_3479_2325)">
<rect width="40" height="40" transform="translate(0 0.298828)" fill="white"/>
<path d="M29.9604 4.51946L32.7718 12.2436L32.7708 12.2426L29.0272 10.3521C27.2282 9.44388 25.1055 10.2165 24.3112 12.0686L21.9489 17.5787C21.1539 19.4311 19.0319 20.2035 17.2328 19.2952L15.2028 18.2702C13.403 17.3616 11.2809 18.134 10.4868 19.9867L7.94789 25.907L3.64905 14.096C2.5796 11.1577 4.10865 7.87866 7.04695 6.8092L22.6731 1.12177C25.6113 0.052313 28.891 1.58116 29.9604 4.51946Z" fill="#3F51B5"/>
<path d="M18.09 12.8397C19.5355 12.3136 20.2809 10.7152 19.7547 9.26969C19.2286 7.82417 17.6303 7.07885 16.1847 7.60498C14.7392 8.13111 13.9939 9.72945 14.52 11.175C15.0462 12.6205 16.6445 13.3658 18.09 12.8397Z" fill="#CDDB39"/>
<path d="M32.7717 12.2434L35.648 20.146C36.7174 23.0843 35.1878 26.3635 32.2495 27.433L16.6234 33.1204C13.6851 34.1899 10.406 32.6608 9.33659 29.7225L7.94778 25.9068L10.4867 19.9865C11.2808 18.1338 13.4029 17.3614 15.2027 18.27L17.2327 19.295C19.0318 20.2033 21.1538 19.4309 21.9488 17.5785L24.3111 12.0684C25.1054 10.2163 27.2281 9.4437 29.0271 10.3519L32.7707 12.2424L32.7717 12.2434Z" fill="#CDDB39"/>
<path d="M7.1955 31.2958C6.54696 31.9493 6.10684 32.7164 5.93584 33.6846C5.607 35.5465 6.57318 37.4068 8.26683 38.1667C9.96047 38.9266 11.9384 38.508 13.188 37.039C13.275 36.9776 13.2881 36.9031 13.362 36.9162L12.2541 36.7205C11.811 36.6422 11.5682 36.2922 11.6471 35.8453C11.6471 35.8453 11.7786 35.1005 12.5172 35.231L16.21 35.8832L15.5524 39.607C15.5524 39.607 15.4208 40.3518 14.6822 40.2214C14.2391 40.1431 13.9963 39.793 14.0752 39.3462L14.2988 38.08C13.0493 39.549 11.1796 40.2172 9.38072 40.0531C9.23301 40.027 9.0853 40.0009 8.93758 39.9748C8.49444 39.8965 8.06445 39.7438 7.64762 39.5166C5.31557 38.4903 4.01147 35.9559 4.4587 33.4237C4.66917 32.2321 5.24891 31.1056 6.14533 30.3424C6.462 30.7055 6.79182 30.9941 7.1955 31.2958Z" fill="#3F51B5"/>
</g>
<defs>
<clipPath id="clip0_3479_2325">
<rect width="40" height="40" fill="white" transform="translate(0 0.298828)"/>
</clipPath>
</defs>
</svg>
