<svg width="40" height="41" viewBox="0 0 40 41" fill="none" xmlns="http://www.w3.org/2000/svg">
<g clip-path="url(#clip0_3507_2229)">
<rect width="40" height="40" transform="matrix(-1 0 0 1 40 0.298828)" fill="white"/>
<path d="M11.3864 11.4975L9.259 19.4372L9.2599 19.4362L12.8245 17.2266C14.5375 16.165 16.7194 16.7497 17.6721 18.5256L20.5057 23.8088C21.4591 25.5848 23.6404 26.1693 25.3534 25.1077L27.2864 23.9097C29.0002 22.8477 31.1815 23.4322 32.1341 25.2087L35.1793 30.8851L38.4324 18.7444C39.2417 15.7241 37.4326 12.5908 34.4123 11.7815L18.35 7.4776C15.3296 6.6683 12.1957 8.47717 11.3864 11.4975Z" fill="#3F51B5"/>
<path d="M23.9366 18.7513C22.4508 18.3531 21.569 16.8258 21.9671 15.3399C22.3652 13.8541 23.8925 12.9723 25.3784 13.3704C26.8643 13.7686 27.7461 15.2959 27.348 16.7817C26.9498 18.2676 25.4225 19.1494 23.9366 18.7513Z" fill="#F2BD6D"/>
<path d="M9.25882 19.437L7.08222 27.5602C6.27293 30.5805 8.08254 33.714 11.1029 34.5233L27.1652 38.8272C30.1855 39.6365 33.3189 37.8275 34.1281 34.8071L35.1791 30.8849L32.1339 25.2084C31.1813 23.432 29 22.8475 27.2862 23.9095L25.3532 25.1075C23.6402 26.1691 21.4589 25.5846 20.5056 23.8086L17.672 18.5254C16.7192 16.7495 14.5373 16.1648 12.8243 17.2264L9.25973 19.436L9.25882 19.437Z" fill="url(#paint0_linear_3507_2229)"/>
<path d="M8.89115 12.9733C7.97073 12.9522 7.12169 12.7047 6.32707 12.1257C4.79896 11.0122 4.20507 9.00189 4.89836 7.2799C5.59164 5.5579 7.30708 4.48791 9.22601 4.67977C9.3313 4.6637 9.39242 4.70824 9.43659 4.64762L8.77407 5.55685C8.50907 5.92054 8.57689 6.34116 8.94364 6.60839C8.94364 6.60839 9.55488 7.05378 9.99656 6.44763L12.205 3.41687L9.14873 1.18992C9.14873 1.18992 8.53749 0.744529 8.09581 1.35068C7.8308 1.71437 7.89863 2.13499 8.26538 2.40222L9.30449 3.15939C7.38557 2.96752 5.57509 3.78266 4.39281 5.14835C4.30447 5.26958 4.21614 5.39081 4.1278 5.51204C3.86279 5.87573 3.65891 6.28396 3.51615 6.73673C2.54761 9.09334 3.36548 11.8237 5.44371 13.338C6.4217 14.0506 7.62054 14.4602 8.79571 14.3885C8.77205 13.9073 8.80952 13.4706 8.89115 12.9733Z" fill="#3F51B5"/>
</g>
<defs>
<linearGradient id="paint0_linear_3507_2229" x1="19.1337" y1="36.6752" x2="23.8584" y2="19.0425" gradientUnits="userSpaceOnUse">
<stop stop-color="#FA8F6C"/>
<stop offset="1" stop-color="#FFAF78"/>
</linearGradient>
<clipPath id="clip0_3507_2229">
<rect width="40" height="40" fill="white" transform="matrix(-1 0 0 1 40 0.298828)"/>
</clipPath>
</defs>
</svg>
