<svg width="40" height="41" viewBox="0 0 40 41" fill="none" xmlns="http://www.w3.org/2000/svg">
<g clip-path="url(#clip0_3479_2313)">
<rect width="40" height="40" transform="translate(0 0.298828)" fill="white"/>
<path d="M35.6477 20.6604L32.8363 28.3845L32.8362 28.3831L31.1836 24.5286C30.3893 22.6764 28.2667 21.9039 26.4676 22.8121L21.1161 25.5146C19.3165 26.4226 17.1944 25.6503 16.4001 23.7981L15.5039 21.708C14.7091 19.8551 12.5871 19.0827 10.7878 19.9916L5.03747 22.8948L9.3363 11.0838C10.4058 8.14552 13.6848 6.61646 16.6231 7.68591L32.2492 13.3734C35.1875 14.4428 36.7171 17.7221 35.6477 20.6604Z" fill="#3F51B5"/>
<path d="M21.2062 19.4039C22.6517 19.93 24.2501 19.1847 24.7762 17.7392C25.3023 16.2937 24.557 14.6953 23.1115 14.1692C21.666 13.6431 20.0676 14.3884 19.5415 15.8339C19.0154 17.2794 19.7607 18.8778 21.2062 19.4039Z" fill="#CDDB39"/>
<path d="M32.8365 28.3843L29.9602 36.2869C28.8907 39.2252 25.6111 40.754 22.6728 39.6846L7.04666 33.9971C4.10836 32.9277 2.57931 29.6486 3.64876 26.7103L5.03757 22.8946L10.7879 19.9914C12.5872 19.0826 14.7093 19.8549 15.504 21.7079L16.4002 23.7979C17.1946 25.6501 19.3166 26.4225 21.1162 25.5144L26.4677 22.8119C28.2668 21.9037 30.3894 22.6763 31.1837 24.5284L32.8363 28.383L32.8365 28.3843Z" fill="#CDDB39"/>
<path d="M7.1955 9.50983C6.54696 8.85636 6.10684 8.08929 5.93584 7.12108C5.607 5.25914 6.57318 3.39888 8.26683 2.63895C9.96047 1.87903 11.9384 2.2977 13.188 3.76663C13.275 3.82806 13.2881 3.90254 13.362 3.8895L12.2541 4.08516C11.811 4.16343 11.5682 4.51351 11.6471 4.96038C11.6471 4.96038 11.7786 5.70515 12.5172 5.57471L16.21 4.9225L15.5524 1.19862C15.5524 1.19862 15.4208 0.453846 14.6822 0.584288C14.2391 0.662553 13.9963 1.01264 14.0752 1.45951L14.2988 2.72562C13.0493 1.25669 11.1796 0.5885 9.38072 0.752606C9.23301 0.778695 9.0853 0.804783 8.93758 0.830871C8.49444 0.909137 8.06445 1.06188 7.64762 1.2891C5.31557 2.31538 4.01147 4.84972 4.4587 7.38196C4.66917 8.5736 5.24891 9.70002 6.14533 10.4633C6.462 10.1002 6.79182 9.81153 7.1955 9.50983Z" fill="#3F51B5"/>
</g>
<defs>
<clipPath id="clip0_3479_2313">
<rect width="40" height="40" fill="white" transform="translate(0 0.298828)"/>
</clipPath>
</defs>
</svg>
