<svg width="40" height="41" viewBox="0 0 40 41" fill="none" xmlns="http://www.w3.org/2000/svg">
<g clip-path="url(#clip0_3507_2217)">
<rect width="40" height="40" transform="matrix(-1 0 0 1 40 0.298828)" fill="white"/>
<path d="M38.7234 14.2296L36.596 22.1694L36.5957 22.1681L34.6135 18.4722C33.6607 16.6963 31.4788 16.1117 29.7658 17.1733L24.6702 20.3319C22.9566 21.3933 20.7753 20.8089 19.8225 19.033L18.7475 17.029C17.7944 15.2523 15.613 14.6679 13.8998 15.73L8.4244 19.1234L11.6775 6.98271C12.4868 3.96239 15.6201 2.15336 18.6404 2.96265L34.7028 7.26654C37.7231 8.07584 39.5327 11.2093 38.7234 14.2296Z" fill="#3F51B5"/>
<path d="M24.2271 14.2365C25.713 14.6346 27.2403 13.7529 27.6385 12.267C28.0366 10.7811 27.1548 9.2538 25.6689 8.85566C24.1831 8.45752 22.6558 9.33931 22.2576 10.8252C21.8595 12.3111 22.7413 13.8384 24.2271 14.2365Z" fill="#F2BD6D"/>
<path d="M36.5958 22.1692L34.4192 30.2924C33.6099 33.3127 30.476 35.1215 27.4557 34.3122L11.3933 30.0084C8.37299 29.1991 6.56397 26.0657 7.37326 23.0454L8.42422 19.1232L13.8997 15.7298C15.6129 14.6676 17.7942 15.2521 18.7474 17.0288L19.8224 19.0328C20.7751 20.8086 22.9564 21.3931 24.67 20.3317L29.7656 17.1731C31.4787 16.1115 33.6606 16.6961 34.6133 18.472L36.5955 22.1678L36.5958 22.1692Z" fill="url(#paint0_linear_3507_2217)"/>
<path d="M6.25137 26.5086C5.49936 27.0397 4.93291 27.7189 4.59664 28.6428C3.94996 30.4195 4.57899 32.4191 6.11524 33.4612C7.65148 34.5032 9.67208 34.4338 11.1574 33.2038C11.2537 33.1584 11.2796 33.0873 11.35 33.1129L10.2929 32.7282C9.87003 32.5743 9.69159 32.1874 9.84679 31.761C9.84679 31.761 10.1055 31.0503 10.8102 31.3068L14.3341 32.5894L13.0407 36.1428C13.0407 36.1428 12.7821 36.8535 12.0773 36.597C11.6544 36.4431 11.476 36.0562 11.6312 35.6298L12.0709 34.4216C10.5856 35.6517 8.62841 35.9856 6.88523 35.5121C6.74427 35.4608 6.60332 35.4095 6.46236 35.3582C6.0395 35.2043 5.64251 34.9793 5.27138 34.6832C3.15258 33.2682 2.30762 30.5461 3.1871 28.1298C3.60097 26.9927 4.36723 25.9838 5.38241 25.3875C5.63132 25.8 5.90611 26.1415 6.25137 26.5086Z" fill="#3F51B5"/>
</g>
<defs>
<linearGradient id="paint0_linear_3507_2217" x1="19.4248" y1="32.1604" x2="24.1494" y2="14.5278" gradientUnits="userSpaceOnUse">
<stop stop-color="#FA8F6C"/>
<stop offset="1" stop-color="#FFAF78"/>
</linearGradient>
<clipPath id="clip0_3507_2217">
<rect width="40" height="40" fill="white" transform="matrix(-1 0 0 1 40 0.298828)"/>
</clipPath>
</defs>
</svg>
