<svg width="40" height="40" viewBox="0 0 40 40" fill="none" xmlns="http://www.w3.org/2000/svg">
<rect width="40" height="40" fill="white"/>
<rect opacity="0.5" x="12.4717" y="8.53223" width="23.4722" height="23.4722" rx="4" transform="rotate(13.6299 12.4717 8.53223)" fill="#76E6FB"/>
<path d="M25.585 3.48895L8.0189 6.47535C5.24704 6.9466 3.38202 9.57565 3.85326 12.3475L6.83966 29.9136C7.3109 32.6855 9.93996 34.5505 12.7118 34.0793L30.2779 31.0929C33.0498 30.6216 34.9148 27.9926 34.4436 25.2207L31.4572 7.65459C30.9859 4.88273 28.3569 3.01771 25.585 3.48895Z" fill="url(#paint0_linear_3456_2100)"/>
<path d="M12.2348 16.0864C13.6207 15.8508 14.5532 14.5363 14.3176 13.1503C14.082 11.7644 12.7674 10.8319 11.3815 11.0675C9.99559 11.3031 9.06308 12.6177 9.2987 14.0036C9.53432 15.3895 10.8488 16.322 12.2348 16.0864Z" fill="white"/>
<path d="M34.2307 23.9656L34.444 25.2203C34.6703 26.5514 34.3585 27.9179 33.5773 29.0191C32.7961 30.1204 31.6094 30.8662 30.2784 31.0925L12.7122 34.0789C11.577 34.2726 10.4096 34.0757 9.40071 33.5204C8.39182 32.965 7.60105 32.084 7.15752 31.0212L14.6484 20.4616C14.8437 20.1863 15.1403 19.9999 15.473 19.9434C15.8057 19.8868 16.1473 19.9647 16.4226 20.1599L19.0753 22.0418C19.2176 22.1425 19.379 22.213 19.5496 22.2488C19.7202 22.2846 19.8964 22.285 20.0671 22.2499C20.2379 22.2148 20.3996 22.145 20.5423 22.0448C20.685 21.9447 20.8055 21.8163 20.8965 21.6676L23.248 17.8364C23.339 17.6877 23.4596 17.5593 23.6023 17.4591C23.745 17.3589 23.9067 17.2891 24.0774 17.2541C24.2482 17.219 24.4244 17.2193 24.595 17.2551C24.7656 17.2909 24.927 17.3614 25.0693 17.4622L34.2307 23.9656Z" fill="url(#paint1_linear_3456_2100)"/>
<path d="M4.51123 21.9998C5.56901 21.6367 12.2179 21.8788 12.2179 21.8788C12.2179 21.8788 13.2757 19.8208 15.6935 20.1839C18.1112 20.5471 17.2046 22.363 19.0179 22.242C20.8312 22.1209 20.0757 17.1574 22.4934 16.7942C24.9112 16.4311 24.1557 21.8788 25.3646 21.8788C26.5734 21.8788 37.0001 21.8788 37.0001 21.8788" stroke="#3F51B5" stroke-width="2" stroke-miterlimit="10" stroke-linecap="round"/>
<defs>
<linearGradient id="paint0_linear_3456_2100" x1="16.802" y1="4.98215" x2="20.2365" y2="25.1845" gradientUnits="userSpaceOnUse">
<stop stop-color="#A6F9FF"/>
<stop offset="1" stop-color="#3ED0F7"/>
</linearGradient>
<linearGradient id="paint1_linear_3456_2100" x1="19.2455" y1="18.9725" x2="21.4795" y2="32.1133" gradientUnits="userSpaceOnUse">
<stop stop-color="#A6F9FF"/>
<stop offset="1" stop-color="#3ED0F7"/>
</linearGradient>
</defs>
</svg>
