<svg width="40" height="40" viewBox="0 0 40 40" fill="none" xmlns="http://www.w3.org/2000/svg">
<rect width="40" height="40" fill="white"/>
<path d="M28.9091 6L11.0909 6C8.27928 6 6 8.27928 6 11.0909L6 28.9091C6 31.7207 8.27928 34 11.0909 34H28.9091C31.7207 34 34 31.7207 34 28.9091V11.0909C34 8.27928 31.7207 6 28.9091 6Z" fill="url(#paint0_linear_3456_2109)"/>
<path d="M13.6363 16.182C15.0421 16.182 16.1817 15.0423 16.1817 13.6365C16.1817 12.2307 15.0421 11.0911 13.6363 11.0911C12.2305 11.0911 11.0908 12.2307 11.0908 13.6365C11.0908 15.0423 12.2305 16.182 13.6363 16.182Z" fill="white"/>
<path d="M34.0002 27.6364V28.9092C34.0002 30.2594 33.4638 31.5543 32.5091 32.509C31.5543 33.4637 30.2594 34.0001 28.9093 34.0001H11.0911C9.93943 34.0008 8.82156 33.6111 7.92002 32.8945C7.01849 32.1779 6.38656 31.1767 6.12744 30.0546L15.2822 20.8999C15.5208 20.6613 15.8445 20.5273 16.182 20.5273C16.5195 20.5273 16.8431 20.6613 17.0818 20.8999L19.3816 23.1997C19.505 23.3229 19.6523 23.4194 19.8145 23.4833C19.9767 23.5472 20.1503 23.5771 20.3245 23.5711C20.4987 23.5652 20.6699 23.5235 20.8273 23.4486C20.9848 23.3738 21.1252 23.2674 21.2398 23.1361L24.2002 19.7532C24.3148 19.6218 24.4552 19.5155 24.6126 19.4406C24.7701 19.3658 24.9412 19.3241 25.1154 19.3181C25.2897 19.3122 25.4633 19.3421 25.6255 19.4059C25.7877 19.4698 25.935 19.5664 26.0583 19.6895L34.0002 27.6364Z" fill="url(#paint1_linear_3456_2109)"/>
<path d="M38.2128 20.9999L35.5564 18.3435C35.3185 18.1057 35.0014 18.1057 34.7635 18.3435C34.5256 18.5814 34.5256 18.8986 34.7635 19.1365L36.0322 20.4052L29.0059 20.4449C28.6887 20.4449 28.4508 20.6828 28.4508 20.9999C28.4508 21.3171 28.6887 21.555 29.0059 21.555L36.0719 21.555L34.8031 22.8237C34.6842 22.9427 34.6445 23.0616 34.6445 23.2202C34.6445 23.3788 34.6842 23.4978 34.8031 23.6167C35.041 23.8546 35.3582 23.8546 35.5961 23.6167L38.2128 20.9999Z" fill="#3F51B5"/>
<path d="M1.00005 21.0001L3.65645 23.6565C3.89434 23.8943 4.21152 23.8943 4.44941 23.6565C4.6873 23.4186 4.6873 23.1014 4.44941 22.8635L3.18068 21.5948L10.207 21.5551C10.5242 21.5551 10.7621 21.3172 10.7621 21.0001C10.7621 20.6829 10.5242 20.445 10.207 20.445L3.14103 20.445L4.40976 19.1763C4.5287 19.0573 4.56835 18.9384 4.56835 18.7798C4.56835 18.6212 4.5287 18.5022 4.40976 18.3833C4.17187 18.1454 3.85469 18.1454 3.61681 18.3833L1.00005 21.0001Z" fill="#3F51B5"/>
<defs>
<linearGradient id="paint0_linear_3456_2109" x1="20" y1="6" x2="20" y2="26.4922" gradientUnits="userSpaceOnUse">
<stop stop-color="#A6F9FF"/>
<stop offset="1" stop-color="#3ED0F7"/>
</linearGradient>
<linearGradient id="paint1_linear_3456_2109" x1="20.0638" y1="20.2025" x2="20.0638" y2="33.5317" gradientUnits="userSpaceOnUse">
<stop stop-color="#A6F9FF"/>
<stop offset="1" stop-color="#3ED0F7"/>
</linearGradient>
</defs>
</svg>
