<svg width="40" height="40" viewBox="0 0 40 40" fill="none" xmlns="http://www.w3.org/2000/svg">
<rect width="40" height="40" fill="white"/>
<path d="M28.9091 6L11.0909 6C8.27928 6 6 8.27928 6 11.0909L6 28.9091C6 31.7207 8.27928 34 11.0909 34H28.9091C31.7207 34 34 31.7207 34 28.9091V11.0909C34 8.27928 31.7207 6 28.9091 6Z" fill="url(#paint0_linear_3456_2117)"/>
<path d="M13.6363 16.182C15.0421 16.182 16.1817 15.0423 16.1817 13.6365C16.1817 12.2307 15.0421 11.0911 13.6363 11.0911C12.2305 11.0911 11.0908 12.2307 11.0908 13.6365C11.0908 15.0423 12.2305 16.182 13.6363 16.182Z" fill="white"/>
<path d="M34.0002 27.6364V28.9092C34.0002 30.2594 33.4638 31.5543 32.5091 32.509C31.5543 33.4637 30.2594 34.0001 28.9093 34.0001H11.0911C9.93943 34.0008 8.82156 33.6111 7.92002 32.8945C7.01849 32.1779 6.38656 31.1767 6.12744 30.0546L15.2822 20.8999C15.5208 20.6613 15.8445 20.5273 16.182 20.5273C16.5195 20.5273 16.8431 20.6613 17.0818 20.8999L19.3816 23.1997C19.505 23.3229 19.6523 23.4194 19.8145 23.4833C19.9767 23.5472 20.1503 23.5771 20.3245 23.5711C20.4987 23.5652 20.6699 23.5235 20.8273 23.4486C20.9848 23.3738 21.1252 23.2674 21.2398 23.1361L24.2002 19.7532C24.3148 19.6218 24.4552 19.5155 24.6126 19.4406C24.7701 19.3658 24.9412 19.3241 25.1154 19.3181C25.2897 19.3122 25.4633 19.3421 25.6255 19.4059C25.7877 19.4698 25.935 19.5664 26.0583 19.6895L34.0002 27.6364Z" fill="url(#paint1_linear_3456_2117)"/>
<path d="M20.0001 38.2128L22.6565 35.5564C22.8943 35.3185 22.8943 35.0014 22.6565 34.7635C22.4186 34.5256 22.1014 34.5256 21.8635 34.7635L20.5948 36.0322L20.5551 29.0059C20.5551 28.6887 20.3172 28.4508 20.0001 28.4508C19.6829 28.4508 19.445 28.6887 19.445 29.0059L19.445 36.0719L18.1763 34.8031C18.0573 34.6842 17.9384 34.6445 17.7798 34.6445C17.6212 34.6445 17.5022 34.6842 17.3833 34.8031C17.1454 35.041 17.1454 35.3582 17.3833 35.5961L20.0001 38.2128Z" fill="#3F51B5"/>
<path d="M19.9999 1.0003L17.3435 3.6567C17.1057 3.89459 17.1057 4.21177 17.3435 4.44965C17.5814 4.68754 17.8986 4.68754 18.1365 4.44965L19.4052 3.18092L19.4449 10.2072C19.4449 10.5244 19.6828 10.7623 19.9999 10.7623C20.3171 10.7623 20.555 10.5244 20.555 10.2072L20.555 3.14128L21.8237 4.41001C21.9427 4.52895 22.0616 4.5686 22.2202 4.5686C22.3788 4.5686 22.4978 4.52895 22.6167 4.41001C22.8546 4.17212 22.8546 3.85494 22.6167 3.61705L19.9999 1.0003Z" fill="#3F51B5"/>
<defs>
<linearGradient id="paint0_linear_3456_2117" x1="20" y1="6" x2="20" y2="26.4922" gradientUnits="userSpaceOnUse">
<stop stop-color="#A6F9FF"/>
<stop offset="1" stop-color="#3ED0F7"/>
</linearGradient>
<linearGradient id="paint1_linear_3456_2117" x1="20.0638" y1="20.2025" x2="20.0638" y2="33.5317" gradientUnits="userSpaceOnUse">
<stop stop-color="#A6F9FF"/>
<stop offset="1" stop-color="#3ED0F7"/>
</linearGradient>
</defs>
</svg>
