<svg width="30" height="30" viewBox="0 0 30 30" fill="none" xmlns="http://www.w3.org/2000/svg">
<rect width="30" height="30" fill="white"/>
<circle cx="15" cy="18" r="10" transform="rotate(180 15 18)" fill="#EDE7E7"/>
<circle cx="15" cy="13" r="9" transform="rotate(180 15 13)" fill="white" stroke="#F97E7E" stroke-width="2"/>
<path d="M14.5429 8.21425C14.7714 7.92854 15.2286 7.92854 15.4571 8.21425L18.8856 11.8142C19.1713 12.0999 18.8856 12.557 18.4285 12.557L16.1428 12.557C16.1428 12.557 16.2571 15.1855 16.1428 16.5569C16.0857 17.1854 15.6286 17.6997 15 17.6997C14.3714 17.6997 13.9143 17.1854 13.8572 16.5569C13.7429 15.2426 13.8572 12.557 13.8572 12.557L11.5715 12.557C11.1144 12.557 10.8287 12.0999 11.1144 11.757L14.5429 8.21425Z" fill="#F97E7E"/>
</svg>
