<svg width="30" height="30" viewBox="0 0 30 30" fill="none" xmlns="http://www.w3.org/2000/svg">
<rect width="30" height="30" fill="white"/>
<circle cx="13" cy="15" r="10" transform="rotate(-90 13 15)" fill="#EDE7E7"/>
<circle cx="18" cy="15" r="9" transform="rotate(-90 18 15)" fill="white" stroke="#F97E7E" stroke-width="2"/>
<path d="M22.7857 14.5431C23.0715 14.7717 23.0715 15.2288 22.7857 15.4574L19.1858 18.8859C18.9001 19.1716 18.443 18.8859 18.443 18.4287L18.443 16.1431C18.443 16.1431 15.8145 16.2574 14.4431 16.1431C13.8146 16.0859 13.3003 15.6288 13.3003 15.0002C13.3003 14.3717 13.8146 13.9146 14.4431 13.8574C15.7574 13.7431 18.443 13.8574 18.443 13.8574L18.443 11.5718C18.443 11.1146 18.9001 10.8289 19.243 11.1146L22.7857 14.5431Z" fill="#F97E7E"/>
</svg>
