<svg width="30" height="30" viewBox="0 0 30 30" fill="none" xmlns="http://www.w3.org/2000/svg">
<rect width="30" height="30" fill="white"/>
<circle cx="10" cy="10" r="10" transform="matrix(-1 8.74228e-08 8.74228e-08 1 25 3)" fill="#EDE7E7"/>
<circle cx="10" cy="10" r="9" transform="matrix(-1 8.74228e-08 8.74228e-08 1 25 8)" fill="white" stroke="#F97E7E" stroke-width="2"/>
<path d="M14.5429 22.7857C14.7714 23.0715 15.2286 23.0715 15.4571 22.7857L18.8856 19.1858C19.1713 18.9001 18.8856 18.443 18.4285 18.443H16.1428C16.1428 18.443 16.2571 15.8145 16.1428 14.4431C16.0857 13.8146 15.6286 13.3003 15 13.3003C14.3714 13.3003 13.9143 13.8146 13.8572 14.4431C13.7429 15.7574 13.8572 18.443 13.8572 18.443H11.5715C11.1144 18.443 10.8287 18.9001 11.1144 19.243L14.5429 22.7857Z" fill="#F97E7E"/>
</svg>
