<svg width="30" height="30" viewBox="0 0 30 30" fill="none" xmlns="http://www.w3.org/2000/svg">
<rect width="30" height="30" fill="white"/>
<circle cx="18" cy="15" r="10" transform="rotate(90 18 15)" fill="#BDD0FF"/>
<circle cx="13" cy="15" r="9" transform="rotate(90 13 15)" fill="white" stroke="#83A5FF" stroke-width="2"/>
<path d="M17.4855 15.4569C17.7712 15.2283 17.7712 14.7712 17.4855 14.5426L13.8856 11.1141C13.5998 10.8284 13.1427 11.1141 13.1427 11.5713L13.1427 13.8569C13.1427 13.8569 10.5142 13.7426 9.14283 13.8569C8.51427 13.9141 8 14.3712 8 14.9998C8 15.6283 8.51427 16.0854 9.14283 16.1426C10.4571 16.2569 13.1427 16.1426 13.1427 16.1426L13.1427 18.4282C13.1427 18.8854 13.5998 19.1711 13.9427 18.8854L17.4855 15.4569Z" fill="#83A5FF"/>
</svg>
