<svg width="30" height="30" viewBox="0 0 30 30" fill="none" xmlns="http://www.w3.org/2000/svg">
<rect width="30" height="30" fill="white"/>
<circle cx="13" cy="15" r="10" transform="rotate(-90 13 15)" fill="#BDD0FF"/>
<circle cx="18" cy="15" r="9" transform="rotate(-90 18 15)" fill="white" stroke="#83A5FF" stroke-width="2"/>
<path d="M13.5145 14.5431C13.2288 14.7717 13.2288 15.2288 13.5145 15.4574L17.1144 18.8859C17.4002 19.1716 17.8573 18.8859 17.8573 18.4287L17.8573 16.1431C17.8573 16.1431 20.4858 16.2574 21.8572 16.1431C22.4857 16.0859 23 15.6288 23 15.0002C23 14.3717 22.4857 13.9146 21.8572 13.8574C20.5429 13.7431 17.8573 13.8574 17.8573 13.8574L17.8573 11.5718C17.8573 11.1146 17.4002 10.8289 17.0573 11.1146L13.5145 14.5431Z" fill="#83A5FF"/>
</svg>
