<svg width="30" height="30" viewBox="0 0 30 30" fill="none" xmlns="http://www.w3.org/2000/svg">
<rect width="30" height="30" fill="white"/>
<circle cx="15" cy="18" r="10" transform="rotate(-180 15 18)" fill="#BDD0FF"/>
<circle cx="15" cy="13" r="9" transform="rotate(-180 15 13)" fill="white" stroke="#83A5FF" stroke-width="2"/>
<path d="M14.5429 17.4855C14.7714 17.7712 15.2286 17.7712 15.4571 17.4855L18.8856 13.8856C19.1713 13.5998 18.8856 13.1427 18.4285 13.1427H16.1428C16.1428 13.1427 16.2571 10.5142 16.1428 9.14283C16.0857 8.51427 15.6286 8 15 8C14.3714 8 13.9143 8.51427 13.8572 9.14283C13.7429 10.4571 13.8572 13.1427 13.8572 13.1427H11.5715C11.1144 13.1427 10.8287 13.5998 11.1144 13.9427L14.5429 17.4855Z" fill="#83A5FF"/>
</svg>
