<svg width="30" height="30" viewBox="0 0 30 30" fill="none" xmlns="http://www.w3.org/2000/svg">
<rect width="30" height="30" fill="white"/>
<circle cx="15" cy="13" r="10" fill="#BDD0FF"/>
<circle cx="15" cy="18" r="9" fill="white" stroke="#83A5FF" stroke-width="2"/>
<path d="M15.4571 13.5145C15.2286 13.2288 14.7714 13.2288 14.5429 13.5145L11.1144 17.1144C10.8287 17.4002 11.1144 17.8573 11.5715 17.8573L13.8572 17.8573C13.8572 17.8573 13.7429 20.4858 13.8572 21.8572C13.9143 22.4857 14.3714 23 15 23C15.6286 23 16.0857 22.4857 16.1428 21.8572C16.2571 20.5429 16.1428 17.8573 16.1428 17.8573L18.4285 17.8573C18.8856 17.8573 19.1713 17.4002 18.8856 17.0573L15.4571 13.5145Z" fill="#83A5FF"/>
</svg>
