<svg width="30" height="30" viewBox="0 0 30 30" fill="none" xmlns="http://www.w3.org/2000/svg">
<rect width="30" height="30" fill="white"/>
<circle cx="10" cy="10" r="10" transform="matrix(1.19249e-08 -1 -1 -1.19249e-08 28 25)" fill="#EDE7E7"/>
<circle cx="10" cy="10" r="9" transform="matrix(1.19249e-08 -1 -1 -1.19249e-08 23 25)" fill="white" stroke="#F97E7E" stroke-width="2"/>
<path d="M8.21425 14.5431C7.92854 14.7717 7.92854 15.2288 8.21425 15.4574L11.8142 18.8859C12.0999 19.1716 12.557 18.8859 12.557 18.4287L12.557 16.1431C12.557 16.1431 15.1855 16.2574 16.5569 16.1431C17.1854 16.0859 17.6997 15.6288 17.6997 15.0002C17.6997 14.3717 17.1854 13.9146 16.5569 13.8574C15.2426 13.7431 12.557 13.8574 12.557 13.8574L12.557 11.5718C12.557 11.1146 12.0999 10.8289 11.757 11.1146L8.21425 14.5431Z" fill="#F97E7E"/>
</svg>
