<svg width="40" height="40" viewBox="0 0 40 40" fill="none" xmlns="http://www.w3.org/2000/svg">
<rect width="40" height="40" fill="white"/>
<path d="M32.7812 33.14C33.5076 32.1023 34.4415 31.376 35.1679 30.6496C35.4792 30.2345 35.8942 29.8195 36.1018 29.4044C36.4131 28.9893 36.6206 28.4705 36.8281 27.8479C37.0357 28.4705 37.0357 29.0931 36.9319 29.7157C36.8281 30.3383 36.5168 30.9609 35.998 31.4797C35.5829 31.9986 35.0641 32.3099 34.5453 32.6212C34.0264 32.9325 33.5076 33.14 32.7812 33.14Z" fill="#3F51B5"/>
<path d="M33.7149 28.99C33.8186 28.575 33.5073 28.1599 33.0923 28.0561C32.9885 28.0561 32.9885 28.0561 32.8847 28.0561C32.8847 28.0561 32.8847 28.0561 32.781 28.0561C32.781 28.0561 32.6772 28.0561 32.5734 28.1599H32.4697C32.2621 28.2637 31.8471 28.575 31.3282 28.99C27.5927 32.2068 22.4043 33.7633 17.1122 32.8294C11.7164 31.7917 7.46196 28.3674 5.1791 23.8017C5.1791 23.8017 4.8678 23.1791 4.66026 22.8678C4.66026 22.8678 4.66026 22.764 4.5565 22.764L4.45273 22.6603C4.34896 22.5565 4.2452 22.4527 4.03766 22.4527C3.51883 22.349 3.10377 22.6603 3 23.1791C3 23.3866 3 23.4904 3.10377 23.6979C4.5565 30.0277 9.64105 35.216 16.3859 36.4612C22.8194 37.7064 28.9416 35.1123 32.781 30.339C33.196 29.8202 33.4036 29.5089 33.5073 29.4051C33.5073 29.4051 33.5073 29.4051 33.5073 29.3013V29.1976C33.7149 29.0938 33.7149 29.0938 33.7149 28.99Z" fill="#3F51B5"/>
<path d="M8.81846 11.8542C8.81846 11.8542 9.60935 11.5937 8.95028 12.5055C6.57761 15.5017 6.44579 18.8886 6.97305 21.494C6.97305 21.6243 6.97305 21.6243 7.10487 21.8848C7.10487 21.8848 7.10487 21.8848 7.10487 22.0151C7.10487 22.2756 7.23668 22.4059 7.3685 22.6664C7.76394 23.3177 8.55483 24.2296 10.0048 24.7507C10.2684 24.8809 10.5321 25.0112 10.9275 25.0112C11.1911 25.0112 11.4548 25.0112 11.7184 24.8809C13.3002 23.9691 15.0138 23.448 17.1228 23.8388C18.7046 24.0993 20.55 25.402 21.8682 27.2258C21.8682 27.2258 22.3954 28.0074 23.4499 27.7468C23.7136 27.7468 23.9772 27.6166 24.3726 27.6166C25.2954 27.356 25.559 26.5744 25.6908 26.4442C25.8226 26.0534 25.8226 25.7928 25.9544 25.402C26.3499 23.448 26.0862 21.6243 25.559 19.9308C25.559 19.9308 25.2954 19.2794 25.9544 19.0189C26.8771 18.7584 27.5362 19.0189 28.0635 19.2794C28.1953 19.4097 28.3271 19.54 28.5907 19.6702C28.8544 19.9308 29.9089 21.2335 30.0407 23.1875C30.0407 23.3177 30.0407 23.5783 30.0407 23.7085C30.0407 23.7085 30.0407 24.4901 30.8316 23.9691L33.0724 22.6664C33.5997 22.4059 33.5997 21.8848 33.5997 21.6243C33.3361 18.8886 31.6225 16.6741 29.118 16.153C27.7998 15.8925 26.3499 16.2833 25.2954 16.9346C24.5045 17.3254 24.109 16.9346 24.109 16.9346C22.9227 15.3714 21.2091 14.3293 19.2319 13.9385C18.5728 13.8082 17.7819 13.8082 17.1228 13.8082C16.0683 13.8082 16.5956 13.0266 16.5956 13.0266C17.3864 11.4634 17.9137 9.11859 17.3864 7.55539C15.0138 2.73549 9.08209 4.03817 7.23668 4.55924C6.84124 4.6895 6.84124 5.08031 6.84124 5.21057C6.97305 5.47111 7.10487 5.86191 7.23668 6.25271C7.23668 6.38298 7.23668 6.77378 6.97305 6.90405C5.6549 7.42512 4.20494 8.59753 4.86401 10.291C5.39127 11.9845 7.10487 12.245 8.81846 11.8542Z" fill="url(#paint0_linear_3456_2143)"/>
<path d="M11.5003 9.09971C12.4392 9.09971 13.2003 8.33859 13.2003 7.39971C13.2003 6.46082 12.4392 5.69971 11.5003 5.69971C10.5614 5.69971 9.80029 6.46082 9.80029 7.39971C9.80029 8.33859 10.5614 9.09971 11.5003 9.09971Z" fill="white"/>
<path d="M10.6503 9.10039C11.1197 9.10039 11.5003 8.71983 11.5003 8.25039C11.5003 7.78095 11.1197 7.40039 10.6503 7.40039C10.1809 7.40039 9.80029 7.78095 9.80029 8.25039C9.80029 8.71983 10.1809 9.10039 10.6503 9.10039Z" fill="#84F3FB"/>
<defs>
<linearGradient id="paint0_linear_3456_2143" x1="19.4731" y1="7.20124" x2="19.1573" y2="27.8001" gradientUnits="userSpaceOnUse">
<stop stop-color="#84F4FC"/>
<stop offset="1" stop-color="#3ED0F7"/>
</linearGradient>
</defs>
</svg>
