<svg width="40" height="40" viewBox="0 0 40 40" fill="none" xmlns="http://www.w3.org/2000/svg">
<rect width="40" height="40" fill="white"/>
<path d="M16.0964 27.0001L19.7501 21.2172L9.77996 20.0055C9.50623 19.9725 9.24087 20.1059 9.12134 20.3435L7.06999 24.2513C6.88571 24.6048 7.0813 25.0231 7.46982 25.1257L15.323 27.275C15.6382 27.3537 15.941 27.2397 16.0964 27.0001ZM32.4323 24.2513L30.3808 20.3428C30.2612 20.1052 29.992 19.9718 29.7182 20.005L19.7501 21.2172L23.4053 27.0001C23.5548 27.2378 23.8587 27.3522 24.1428 27.2762L32.0279 25.1277C32.4204 25.0193 32.6116 24.601 32.4323 24.2513ZM23.9655 28.5666C23.2882 28.5666 22.6555 28.2263 22.312 27.683L19.7501 23.6505L17.1921 27.6807C16.8454 28.2282 16.2159 28.5704 15.5386 28.5704C15.3593 28.5704 15.18 28.5467 15.0106 28.4995L8.275 26.7593L11.1338 33.7107C11.1338 34.2685 11.5322 34.7506 12.1 34.8829L19.1265 36.9291C19.5349 37.0236 19.9584 37.0236 20.3617 36.9291L27.4 34.8829C27.9319 34.7791 28.3662 34.2962 28.3662 33.7449L31.8625 26.7593L24.4915 28.4943C24.3241 28.5399 24.1448 28.5666 23.9655 28.5666Z" fill="url(#paint0_linear_3456_2150)"/>
<path d="M19.8566 8.85632C19.8833 9.01698 19.9369 9.17764 19.9503 9.32491C19.9637 11.5608 19.9905 13.7832 19.9905 16.0057C20.0038 16.8491 19.9904 17.6926 20.0038 18.5361C20.0038 18.7503 19.9369 18.9243 19.7361 19.0448C19.388 19.259 18.9863 18.9913 18.9729 18.5762C18.9596 18.0005 18.9729 17.4248 18.9596 16.8491C18.9462 14.3455 18.9194 11.8553 18.906 9.35169C18.906 9.1107 18.9328 8.89649 19.1604 8.77599C19.4014 8.64211 19.629 8.68227 19.8566 8.85632Z" fill="#3F51B5"/>
<path d="M22.6969 15.9452C23.9062 14.7908 25.1981 14.2686 26.6685 14.1999C26.9571 14.1861 27.1633 14.3373 27.232 14.5709C27.287 14.7908 27.2183 15.0244 27.0121 15.1481C26.9159 15.2168 26.7922 15.2306 26.6823 15.2306C25.3355 15.313 24.1811 15.8078 23.3016 16.8522C22.7656 17.4707 22.4633 18.2128 22.2709 19.0098C22.2434 19.0923 22.2434 19.1748 22.2159 19.2572C22.1197 19.5458 21.8723 19.7107 21.5975 19.6557C21.3089 19.587 21.144 19.3397 21.2127 19.0236C21.3776 18.254 21.6249 17.5119 22.0372 16.8522C22.2709 16.4812 22.5457 16.1513 22.6969 15.9452Z" fill="#3F51B5"/>
<path d="M16.1005 15.2033C17.0487 16.179 17.5435 17.3059 17.8458 18.5153C17.8733 18.6527 17.9145 18.8039 17.942 18.9413C18.0107 19.3124 17.8595 19.601 17.5572 19.6559C17.2411 19.7247 16.9937 19.5323 16.9113 19.1475C16.7739 18.4878 16.5815 17.8282 16.2791 17.2235C15.7844 16.234 15.0698 15.4644 13.9703 15.1071C13.7367 15.0384 13.5031 14.9971 13.2695 14.9559C12.9259 14.9147 12.706 14.6948 12.7335 14.3925C12.7472 14.0764 12.9946 13.884 13.3794 13.9115C14.2727 13.9802 15.0698 14.3375 15.7569 14.8872C15.8668 14.9971 16.0043 15.1346 16.1005 15.2033Z" fill="#3F51B5"/>
<path d="M10.5937 16.2154C10.4188 16.1959 10.3216 16.1182 10.2827 15.9627C10.2244 15.7878 10.1661 15.6129 10.1272 15.4185C10.0884 15.2436 9.97176 15.1464 9.81628 15.0881C9.64136 15.0298 9.44701 14.9909 9.27209 14.9326C9.09718 14.8938 9 14.7771 9 14.6022C9 14.4273 9.09718 14.3301 9.27209 14.2718C9.44701 14.233 9.62193 14.1747 9.79684 14.1358C9.95232 14.0969 10.0689 13.9997 10.1078 13.8248C10.1661 13.6305 10.2244 13.4556 10.2827 13.2612C10.3216 13.1057 10.4188 13.0085 10.5937 13.0085C10.7686 13.0085 10.8658 13.1057 10.9241 13.2418C10.9824 13.4361 11.0407 13.611 11.0796 13.8054C11.1184 13.9803 11.235 14.0775 11.41 14.1164C11.5849 14.1747 11.7792 14.233 11.9542 14.2913C12.1096 14.3301 12.2068 14.4467 12.2068 14.6022C12.2068 14.7771 12.1096 14.8938 11.9542 14.9326C11.7792 14.9909 11.6043 15.0298 11.4294 15.0881C11.2545 15.127 11.1379 15.2436 11.099 15.4185C11.0601 15.5934 11.0018 15.7878 10.9435 15.9627C10.8658 16.1182 10.7686 16.2154 10.5937 16.2154Z" fill="#3F51B5"/>
<path d="M29.266 12.9465C29.402 13.0826 29.5186 13.1798 29.5769 13.2964C29.6547 13.4713 29.6935 13.6656 29.7518 13.86C29.7907 14.0155 29.8879 14.1321 30.0628 14.171C30.2377 14.2098 30.3932 14.2681 30.5681 14.307C30.743 14.3459 30.8791 14.443 30.8791 14.6374C30.8791 14.8317 30.7625 14.9289 30.5681 14.9872C30.3932 15.0261 30.2183 15.065 30.0434 15.1427C29.9268 15.201 29.8101 15.3176 29.7518 15.4342C29.6741 15.6092 29.6352 15.8035 29.5769 15.9979C29.538 16.1533 29.4214 16.2505 29.266 16.2505C29.091 16.2505 28.9744 16.1533 28.9356 15.9979C28.8773 15.8229 28.8384 15.6286 28.7801 15.4537C28.7412 15.2788 28.6246 15.1816 28.4497 15.1233C28.2748 15.0844 28.0804 15.0261 27.9055 14.9678C27.75 14.9095 27.6528 14.8123 27.6528 14.6374C27.6528 14.4625 27.75 14.3653 27.9055 14.3264C28.0804 14.2681 28.2553 14.2098 28.4497 14.171C28.6246 14.1321 28.7412 14.0155 28.7801 13.8406C28.8384 13.6656 28.8578 13.4713 28.9356 13.2964C28.9939 13.1798 29.1299 13.102 29.266 12.9465Z" fill="#3F51B5"/>
<path d="M19.4096 3C19.7108 3 19.8916 3.12048 19.9819 3.36145C20.0723 3.66265 20.1627 3.93374 20.253 4.23494C20.3133 4.50602 20.494 4.65663 20.7651 4.71687C21.0361 4.77711 21.3072 4.86747 21.5783 4.95783C21.8494 5.04819 22.0301 5.1988 22 5.5C22 5.77108 21.8193 5.92169 21.5783 6.01205C21.3072 6.10241 21.0361 6.19277 20.7651 6.25301C20.494 6.31325 20.3133 6.49398 20.253 6.76506C20.1928 7.03615 20.1024 7.33735 20.012 7.60843C19.9518 7.8494 19.7711 8 19.5 8C19.259 8 19.0783 7.8494 18.988 7.60843C18.8976 7.30723 18.8072 7.03615 18.747 6.73494C18.6867 6.49398 18.5361 6.31325 18.2651 6.25301C17.9639 6.16265 17.6928 6.07229 17.3916 6.01205C17.1506 5.95181 17 5.77108 17 5.53012C17 5.25904 17.1506 5.07831 17.3916 5.01807C17.6627 4.92771 17.9639 4.86747 18.2349 4.77711C18.506 4.71687 18.6566 4.53614 18.747 4.26506C18.8374 3.99398 18.8976 3.69277 18.988 3.42169C19.0783 3.1506 19.1988 3 19.4096 3Z" fill="#3F51B5"/>
<path d="M22.5047 13.2515C22.6421 13.3889 22.6559 13.5401 22.5872 13.7188C22.3535 14.2822 22.1337 14.8594 21.8863 15.4091C21.7901 15.6427 21.5565 15.7389 21.3366 15.6565C21.1167 15.574 21.0205 15.3404 21.1167 15.1068C21.3503 14.5433 21.5702 13.9661 21.8176 13.4164C21.9413 13.1003 22.2848 13.0316 22.5047 13.2515Z" fill="#3F51B5"/>
<path d="M17.3513 15.3818C17.3375 15.3406 17.2826 15.2856 17.2551 15.2031C17.0352 14.6809 16.829 14.1449 16.6092 13.6227C16.4992 13.3479 16.5679 13.1142 16.8016 13.018C17.0489 12.9081 17.2688 13.018 17.3788 13.2929C17.5986 13.8426 17.8323 14.4061 18.0522 14.9558C18.1346 15.1756 18.0659 15.3543 17.8872 15.478C17.7086 15.5742 17.5162 15.5467 17.3513 15.3818Z" fill="#3F51B5"/>
<defs>
<linearGradient id="paint0_linear_3456_2150" x1="19.75" y1="20" x2="20.4341" y2="33.7814" gradientUnits="userSpaceOnUse">
<stop stop-color="#A3F8FE"/>
<stop offset="1" stop-color="#42D1F7"/>
</linearGradient>
</defs>
</svg>
