<svg width="40" height="40" viewBox="0 0 40 40" fill="none" xmlns="http://www.w3.org/2000/svg">
<rect width="40" height="40" fill="white"/>
<path d="M28.909 6L11.0909 6C8.27927 6 6 8.27927 6 11.0909L6 28.909C6 31.7206 8.27927 33.9999 11.0909 33.9999H28.909C31.7206 33.9999 33.9999 31.7206 33.9999 28.909V11.0909C33.9999 8.27927 31.7206 6 28.909 6Z" fill="url(#paint0_linear_3456_2132)"/>
<path d="M13.6363 16.1822C15.0421 16.1822 16.1817 15.0426 16.1817 13.6368C16.1817 12.2309 15.0421 11.0913 13.6363 11.0913C12.2305 11.0913 11.0908 12.2309 11.0908 13.6368C11.0908 15.0426 12.2305 16.1822 13.6363 16.1822Z" fill="white"/>
<path d="M34 27.6364V28.9091C34 30.2593 33.4637 31.5542 32.5089 32.5089C31.5542 33.4637 30.2593 34 28.9091 34H11.0911C9.93941 34.0008 8.82155 33.611 7.92002 32.8944C7.01849 32.1778 6.38656 31.1767 6.12744 30.0546L15.2821 20.8999C15.5208 20.6613 15.8445 20.5273 16.1819 20.5273C16.5194 20.5273 16.8431 20.6613 17.0818 20.8999L19.3816 23.1997C19.5049 23.3229 19.6523 23.4194 19.8144 23.4833C19.9766 23.5472 20.1502 23.5771 20.3245 23.5711C20.4987 23.5651 20.6698 23.5235 20.8273 23.4486C20.9847 23.3738 21.1251 23.2674 21.2397 23.1361L24.2001 19.7532C24.3147 19.6218 24.4551 19.5155 24.6126 19.4406C24.77 19.3658 24.9411 19.3241 25.1154 19.3181C25.2896 19.3122 25.4632 19.3421 25.6254 19.4059C25.7876 19.4698 25.9349 19.5664 26.0583 19.6895L34 27.6364Z" fill="url(#paint1_linear_3456_2132)"/>
<path d="M5.43984 25.3334C3.73317 24.4089 2.6665 22.3467 2.6665 20.2845C2.6665 18.2223 3.73317 16.16 5.43984 15.2356C5.01317 16.16 4.65762 16.9423 4.44428 17.7956C4.23095 18.5778 4.08873 19.4312 4.08873 20.2845C4.08873 21.1378 4.23095 21.9912 4.44428 22.7734C4.65762 23.6267 5.01317 24.4801 5.43984 25.3334Z" fill="#3F51B5"/>
<path opacity="0.7" d="M8.21332 17.0859C8.28443 18.2948 7.92887 19.2904 7.78665 20.2148C7.71554 20.7126 7.71554 21.1393 7.71554 21.6371C7.78665 22.1348 7.85776 22.6326 7.99998 23.2015C7.57331 22.9171 7.21776 22.4193 6.93331 21.8504C6.71998 21.2815 6.57776 20.7126 6.64887 20.0726C6.71998 19.5037 6.93331 18.9348 7.14665 18.4371C7.43109 17.9393 7.78665 17.5126 8.21332 17.0859Z" fill="#3F51B5"/>
<path d="M34.4531 14.6667C36.1598 15.5912 37.2265 17.6534 37.2265 19.7156C37.2265 21.7779 36.1598 23.8401 34.4531 24.7645C34.8798 23.9112 35.2353 23.0579 35.4487 22.2756C35.662 21.4223 35.8042 20.6401 35.8042 19.7868C35.8042 18.9334 35.662 18.0801 35.4487 17.2979C35.2353 16.3734 34.8798 15.5201 34.4531 14.6667Z" fill="#3F51B5"/>
<path opacity="0.4" d="M28 21.736C28 20.853 28.3157 20.0503 28.421 19.3279C28.5262 18.9265 28.5262 18.6054 28.421 18.2041C28.421 17.8027 28.3157 17.4014 28.1052 17C28.6315 17.2408 28.9472 17.6422 29.2629 18.0435C29.4734 18.4449 29.5787 18.9265 29.5787 19.4081C29.5787 19.8898 29.3682 20.2911 29.0524 20.6925C28.7367 21.0938 28.421 21.4952 28 21.736Z" fill="#3F51B5"/>
<path opacity="0.4" d="M12 18C12 18.5593 11.8 19.0678 11.7333 19.5254C11.6667 19.7797 11.6667 19.9831 11.7333 20.2373C11.7333 20.4915 11.8 20.7458 11.9333 21C11.6 20.8475 11.4 20.5932 11.2 20.339C11.0667 20.0847 11 19.7797 11 19.4746C11 19.1695 11.1333 18.9153 11.3333 18.661C11.5333 18.4068 11.7333 18.1525 12 18Z" fill="#3F51B5"/>
<path opacity="0.7" d="M31.6802 22.9163C31.6091 21.7075 31.9646 20.7119 32.1069 19.7875C32.178 19.2897 32.178 18.863 32.178 18.3652C32.1069 17.8674 32.0358 17.3697 31.8935 16.8008C32.3913 17.0852 32.7469 17.583 32.9602 18.1519C33.1735 18.7208 33.3158 19.2897 33.2446 19.9297C33.1735 20.5697 33.0313 21.0675 32.7469 21.5652C32.4624 22.063 32.178 22.4897 31.6802 22.9163Z" fill="#3F51B5"/>
<defs>
<linearGradient id="paint0_linear_3456_2132" x1="19.9999" y1="6" x2="19.9999" y2="26.4921" gradientUnits="userSpaceOnUse">
<stop stop-color="#A6F9FF"/>
<stop offset="1" stop-color="#3ED0F7"/>
</linearGradient>
<linearGradient id="paint1_linear_3456_2132" x1="20.0637" y1="20.2024" x2="20.0637" y2="33.5317" gradientUnits="userSpaceOnUse">
<stop stop-color="#A6F9FF"/>
<stop offset="1" stop-color="#3ED0F7"/>
</linearGradient>
</defs>
</svg>
