<svg width="40" height="40" viewBox="0 0 40 40" fill="none" xmlns="http://www.w3.org/2000/svg">
<rect width="40" height="40" fill="white"/>
<circle cx="19.2716" cy="18.5216" r="15.5216" fill="url(#paint0_linear_3475_2197)"/>
<mask id="mask0_3475_2197" style="mask-type:alpha" maskUnits="userSpaceOnUse" x="6" y="5" width="27" height="27">
<circle cx="19.2718" cy="18.5218" r="12.7825" fill="#D9D9D9"/>
</mask>
<g mask="url(#mask0_3475_2197)">
<path d="M32.6438 10.5798V18.4312L32.6432 18.43L29.9007 15.5102C28.5827 14.1072 26.4251 14.1072 25.107 15.5102L21.1865 19.6841C19.8679 21.087 17.7109 21.087 16.3928 19.6841L14.9056 18.1009C13.5869 16.6974 11.4299 16.6974 10.1118 18.1009L5.89893 22.5853L5.89893 10.5798C5.89893 7.59308 8.3426 5.14941 11.3293 5.14941L27.2129 5.14941C30.1996 5.14941 32.6438 7.59308 32.6438 10.5798Z" fill="url(#paint1_radial_3475_2197)"/>
<path d="M15.224 15.0214C16.6933 15.0214 17.8844 13.8303 17.8844 12.3609C17.8844 10.8916 16.6933 9.70044 15.224 9.70044C13.7546 9.70044 12.5635 10.8916 12.5635 12.3609C12.5635 13.8303 13.7546 15.0214 15.224 15.0214Z" fill="#BBEB56"/>
<path d="M32.6438 18.4317V26.4645C32.6438 29.4512 30.1996 31.8949 27.2129 31.8949H11.3293C8.3426 31.8949 5.89893 29.4512 5.89893 26.4645V22.5859L10.1118 18.1015C11.4299 16.6979 13.5869 16.6979 14.9056 18.1015L16.3928 19.6847C17.7109 21.0876 19.8679 21.0876 21.1865 19.6847L25.107 15.5107C26.4251 14.1078 28.5827 14.1078 29.9007 15.5107L32.6432 18.4305L32.6438 18.4317Z" fill="#70BC86"/>
</g>
<rect x="32.0034" y="31.7385" width="5.54343" height="2.21737" rx="1.10869" transform="rotate(40 32.0034 31.7385)" fill="#3F51B5"/>
<circle cx="7.7608" cy="7.7608" r="7.7608" transform="matrix(-1 8.74228e-08 8.74228e-08 1 33.1558 19.7598)" fill="#70BC86" stroke="#3F51B5" stroke-width="2.5" stroke-linecap="round"/>
<mask id="mask1_3475_2197" style="mask-type:alpha" maskUnits="userSpaceOnUse" x="19" y="21" width="13" height="13">
<circle cx="6.09777" cy="6.09777" r="6.09777" transform="matrix(-1 8.74228e-08 8.74228e-08 1 31.4927 21.4233)" fill="#92C769"/>
<circle cx="6.09777" cy="6.09777" r="6.09777" transform="matrix(-1 8.74228e-08 8.74228e-08 1 31.4927 21.4233)" fill="#92C769"/>
</mask>
<g mask="url(#mask1_3475_2197)">
<rect x="26.9233" y="16.9326" width="3.31239" height="15.0871" transform="rotate(48.1148 26.9233 16.9326)" fill="url(#paint2_linear_3475_2197)"/>
<rect x="33.4141" y="24.4614" width="3.31239" height="15.0871" transform="rotate(48.1148 33.4141 24.4614)" fill="url(#paint3_linear_3475_2197)"/>
<rect x="31.4927" y="22.7405" width="1.65201" height="15.0871" transform="rotate(48.1148 31.4927 22.7405)" fill="url(#paint4_linear_3475_2197)"/>
</g>
<defs>
<linearGradient id="paint0_linear_3475_2197" x1="8.10712" y1="8.61756" x2="31.6805" y2="34.0432" gradientUnits="userSpaceOnUse">
<stop stop-color="#BBEB56"/>
<stop offset="1" stop-color="#70BC86"/>
</linearGradient>
<radialGradient id="paint1_radial_3475_2197" cx="0" cy="0" r="1" gradientUnits="userSpaceOnUse" gradientTransform="translate(19.2714 15.2686) rotate(-127.928) scale(11.8634 18.1972)">
<stop offset="0.07" stop-color="#F8FEFF"/>
<stop offset="0.31" stop-color="#EFFCFF"/>
<stop offset="0.815449" stop-color="#CDF1FA"/>
</radialGradient>
<linearGradient id="paint2_linear_3475_2197" x1="30.1482" y1="30.6489" x2="30.007" y2="21.4626" gradientUnits="userSpaceOnUse">
<stop stop-color="#DDF27A"/>
<stop offset="1" stop-color="#E4FF68" stop-opacity="0"/>
</linearGradient>
<linearGradient id="paint3_linear_3475_2197" x1="36.6389" y1="38.1777" x2="36.5591" y2="27.488" gradientUnits="userSpaceOnUse">
<stop stop-color="#DDF27A"/>
<stop offset="1" stop-color="#E4FF68" stop-opacity="0"/>
</linearGradient>
<linearGradient id="paint4_linear_3475_2197" x1="33.101" y1="36.4567" x2="33.0929" y2="22.462" gradientUnits="userSpaceOnUse">
<stop stop-color="#DDF27A"/>
<stop offset="1" stop-color="#E4FF68" stop-opacity="0"/>
</linearGradient>
</defs>
</svg>
