<svg width="26" height="26" viewBox="0 0 26 26"
    xmlns="http://www.w3.org/2000/svg">
    <path fill-rule="evenodd" clip-rule="evenodd" d="M6.49992 10.8334C5.30825 10.8334 4.33325 11.8084 4.33325 13C4.33325 14.1917 5.30825 15.1667 6.49992 15.1667C7.69159 15.1667 8.66659 14.1917 8.66659 13C8.66659 11.8084 7.69159 10.8334 6.49992 10.8334ZM19.4999 10.8334C18.3083 10.8334 17.3333 11.8084 17.3333 13C17.3333 14.1917 18.3083 15.1667 19.4999 15.1667C20.6916 15.1667 21.6666 14.1917 21.6666 13C21.6666 11.8084 20.6916 10.8334 19.4999 10.8334ZM12.9999 10.8334C11.8083 10.8334 10.8333 11.8084 10.8333 13C10.8333 14.1917 11.8083 15.1667 12.9999 15.1667C14.1916 15.1667 15.1666 14.1917 15.1666 13C15.1666 11.8084 14.1916 10.8334 12.9999 10.8334Z" />
</svg>
