<svg width="26" height="26" viewBox="0 0 26 26"
    xmlns="http://www.w3.org/2000/svg">
    <path d="M19.4205 9.14264C20.8415 9.14264 21.9918 7.99173 21.9918 6.57138C21.9918 5.15104 20.8409 4.00012 19.4205 4.00012C18.0002 4.00012 16.8493 5.15104 16.8493 6.57138C16.8528 6.7512 16.8715 6.93101 16.9131 7.10731L8.50527 11.3133C8.02148 10.751 7.31335 10.4289 6.57126 10.4289C5.15033 10.4289 4 11.5798 4 13.0001C4 14.4205 5.15092 15.5714 6.57126 15.5714C7.31335 15.5749 8.02206 15.2492 8.50937 14.687L16.9172 18.8929C16.8762 19.0692 16.8534 19.249 16.8534 19.4289C16.8534 20.8498 18.0043 22.0001 19.4246 22.0001C20.845 22.0001 21.9959 20.8492 21.9959 19.4289C21.9959 18.0079 20.845 16.8576 19.4246 16.8576C18.6825 16.8541 17.9738 17.1797 17.4865 17.742L9.07458 13.5325C9.16068 13.1799 9.16068 12.8127 9.07458 12.4642L17.4824 8.25822C17.9697 8.8205 18.6743 9.14674 19.4205 9.14264ZM19.4205 5.28517C20.1292 5.28517 20.7062 5.86268 20.7062 6.5708C20.7062 7.27892 20.1287 7.85643 19.4205 7.85643C18.9332 7.85994 18.4869 7.5829 18.2737 7.14421C17.9551 6.51047 18.2064 5.74202 18.8395 5.42339C19.0193 5.3332 19.2179 5.28458 19.4205 5.28458V5.28517ZM5.28095 12.9995C5.28095 12.2908 5.85845 11.7139 6.56658 11.7139C7.05389 11.7104 7.5002 11.9874 7.71339 12.4261C7.89731 12.7858 7.89731 13.2133 7.71339 13.577C7.49961 14.0157 7.05389 14.2893 6.56658 14.2858C5.85787 14.2822 5.28095 13.7082 5.28095 13.0001V12.9995ZM18.2731 18.8473C18.4904 18.4127 18.9326 18.1385 19.42 18.1385C20.1322 18.135 20.7132 18.712 20.7167 19.4242C20.7202 20.1364 20.1433 20.7174 19.4311 20.7209C18.7189 20.7244 18.1378 20.1475 18.1343 19.4353C18.1308 19.2291 18.1794 19.0271 18.2731 18.8473Z" />
</svg>
