<svg width="16" height="16" viewBox="0 0 16 16" fill="none"
    xmlns="http://www.w3.org/2000/svg">
    <path d="M6.62592 14.8053L1.26215 10.015C0.924802 9.71143 0.924802 9.23914 1.19468 8.9018L7.46928 1.88504C7.60422 1.7501 7.77289 1.6489 7.9753 1.61517L13.4065 1.00795C13.8788 0.940477 14.2836 1.31156 14.2836 1.78384L14.2162 7.18134C14.2162 7.38375 14.1487 7.55242 14.0138 7.68736L7.73915 14.7379C7.43554 15.0752 6.92953 15.0752 6.62592 14.8053Z" stroke-width="1.1" />
    <path d="M10.2019 7.08011C11.1334 7.08011 11.8886 6.32494 11.8886 5.39339C11.8886 4.46184 11.1334 3.70667 10.2019 3.70667C9.27031 3.70667 8.51514 4.46184 8.51514 5.39339C8.51514 6.32494 9.27031 7.08011 10.2019 7.08011Z" stroke-width="1.1" />
</svg>
