<svg width="24" height="24" viewBox="0 0 24 24"
    xmlns="http://www.w3.org/2000/svg">
    <path d="M4 0.5C3.45 0.5 3 0.95 3 1.5V22.5C3 23.05 3.45 23.5 4 23.5C4.55 23.5 5 23.05 5 22.5V1.5C5 0.95 4.55 0.5 4 0.5Z" />
    <path d="M21.75 6.85039C19.1 3.60039 16.35 3.80039 13.9 4.00039C11.6 4.20039 9.75 4.35039 7.75 1.85039C7.4 1.40039 6.75 1.35039 6.35 1.70039C6.15 1.90039 6 2.20039 6 2.50039V11.0004C6 11.3504 6.2 11.6504 6.45 11.8504C7.2 12.3004 8.05 12.6004 8.9 12.6004C10.9 12.6004 12.8 11.3004 14.55 10.1004C17.1 8.35039 18.8 7.35039 20.45 8.35039C20.9 8.65039 21.55 8.55039 21.85 8.10039C22.15 7.70039 22.1 7.20039 21.75 6.85039Z" />
</svg>