<svg width="290" height="202" viewBox="0 0 290 202" fill="none" xmlns="http://www.w3.org/2000/svg">
<path d="M274.95 142.7C268.7 153.4 260.25 162.6 250.2 170.35C246.4 173.3 242.4 176 238.2 178.5C237.8 178.75 237.35 179 236.95 179.25C230.2 183.15 223 186.55 215.4 189.4C214.6 189.7 213.8 190 213 190.3C212.4 190.5 211.8 190.75 211.15 190.95C211.1 190.95 211.05 191 211 191C208.4 191.9 205.75 192.75 203.05 193.55C202.15 193.8 201.3 194.05 200.4 194.3C198.8 194.75 197.15 195.15 195.55 195.55C194.7 195.75 193.8 195.95 192.95 196.2C186.5 197.7 179.9 198.9 173.2 199.75C100.8 209.1 17.6998 181.15 2.19984 117.9C-2.40016 99.05 5.39984 87.55 16.2498 80.3C21.6498 76.7 27.8498 74.1 33.6498 72.25C33.8998 72.15 34.1498 72.1 34.3998 72C34.3998 72 34.3998 72 34.4498 72C39.4498 70.4 44.0998 69.35 47.6998 68.5C47.6998 68.5 47.8998 68.1 48.2498 67.3C52.5998 58.45 82.4498 3.24998 154.25 0.599981C199.4 -1.10002 201.95 31.85 219.7 46.4C224.4 50.25 230.2 52.85 238.1 53.1C238.4 53.1 238.75 53.1 239.1 53.1C239.55 53.1 240 53.1 240.45 53.1C240.65 53.1 240.9 53.1 241.15 53.1C241.25 53.1 241.3 53.1 241.4 53.1C241.7 53.1 242.05 53.05 242.4 53.05C242.6 53.05 242.85 53 243.05 53C243.65 52.95 244.25 52.9 244.85 52.85C244.9 52.85 244.95 52.85 245 52.85C245.5 52.8 245.95 52.75 246.4 52.7C247.35 52.6 248.3 52.55 249.2 52.55C254.45 52.4 259.25 53.1 263.55 54.5C290.95 63.5 298.8 101.95 274.95 142.7Z" fill="#E0EDF3"/>
<path d="M247.35 92.25C244.85 92.25 242.85 94.25 242.85 96.75C242.85 99.25 244.9 101.25 247.35 101.25C249.85 101.25 251.85 99.2 251.85 96.75C251.9 94.25 249.85 92.25 247.35 92.25ZM247.35 99.85C245.65 99.85 244.3 98.45 244.3 96.8C244.3 95.15 245.7 93.75 247.35 93.75C249 93.75 250.4 95.15 250.4 96.8C250.4 98.45 249.05 99.85 247.35 99.85Z" fill="white"/>
<path d="M268.201 117.55C267.801 117.55 267.5 117.25 267.5 116.85V110.95C267.5 110.55 267.801 110.25 268.201 110.25C268.601 110.25 268.9 110.55 268.9 110.95V116.85C268.95 117.2 268.601 117.55 268.201 117.55Z" fill="white"/>
<path d="M271.15 114.6H265.25C264.85 114.6 264.55 114.3 264.55 113.9C264.55 113.5 264.85 113.2 265.25 113.2H271.15C271.55 113.2 271.85 113.5 271.85 113.9C271.85 114.3 271.55 114.6 271.15 114.6Z" fill="white"/>
<path d="M52.6503 131.55C51.3503 129.4 48.5503 128.75 46.4503 130.05C45.0503 130.9 44.3003 132.4 44.3003 133.9C44.3003 134.7 44.5003 135.5 44.9503 136.25C45.6003 137.3 46.5503 138 47.7503 138.3C48.1003 138.4 48.4503 138.45 48.8003 138.45C49.6003 138.45 50.4503 138.2 51.1503 137.8C52.2003 137.15 52.9003 136.2 53.2003 135C53.4503 133.8 53.2503 132.6 52.6503 131.55ZM51.7503 134.65C51.5503 135.45 51.0503 136.1 50.3503 136.55C48.9003 137.45 47.0003 137 46.1503 135.55C45.2503 134.1 45.7003 132.2 47.1503 131.35C48.6003 130.45 50.5003 130.9 51.3503 132.35C51.8503 133 51.9503 133.85 51.7503 134.65Z" fill="white"/>
<path d="M23.6003 133.45C23.3503 133.45 23.1003 133.35 23.0003 133.1L19.9003 128.05C19.7003 127.7 19.8003 127.25 20.1503 127.05C20.5003 126.85 20.9503 126.95 21.1503 127.3L24.2503 132.35C24.4503 132.7 24.3503 133.15 24.0003 133.35C23.9003 133.45 23.7503 133.45 23.6003 133.45Z" fill="white"/>
<path d="M19.5501 132.5C19.3001 132.5 19.0501 132.4 18.9501 132.15C18.7501 131.8 18.8501 131.35 19.2001 131.15L24.2501 128.05C24.6001 127.85 25.0501 127.95 25.2501 128.3C25.4501 128.65 25.3501 129.1 25.0001 129.3L19.9501 132.4C19.8001 132.45 19.7001 132.5 19.5501 132.5Z" fill="white"/>
<g opacity="0.6">
<path d="M55.6001 100.9C55.6001 100.9 68.0501 97.7001 69.8001 98.4501C71.5501 99.2001 74.3501 110.85 73.5001 111.15C72.6501 111.45 68.6501 107.4 68.6501 107.4C68.6501 107.4 67.6501 109.4 66.1001 108.7C64.5501 108.05 62.8501 105.3 62.8501 105.3C62.8501 105.3 62.4001 106.65 60.8001 106.1C59.2001 105.55 57.1001 102.45 57.1001 102.45L55.6001 100.9Z" fill="white"/>
<path d="M24.3499 84.2C24.3499 84.2 17.7999 73.1 16.0499 72.4C14.2999 71.7 4.04987 77.95 4.44987 78.75C4.84987 79.55 10.4999 79.55 10.4999 79.55C10.4999 79.55 9.79988 81.65 11.3499 82.3C12.8999 82.95 16.0499 82.2 16.0499 82.2C16.0499 82.2 15.3999 83.45 16.9499 84.2C18.4999 84.95 22.1499 84.25 22.1499 84.25L24.3499 84.2Z" fill="white"/>
<path d="M62.4 91.7501L51.85 112.85C51.55 113.5 50.8 113.75 50.15 113.4L16.75 96.7501C16.1 96.4501 15.85 95.6501 16.2 95.0501L26.75 73.9501C26.8 73.8001 26.9 73.7001 27.05 73.6001C27.4 73.2501 28 73.1501 28.45 73.4001L61.85 90.0501C62.35 90.3001 62.6 90.8001 62.55 91.3001C62.55 91.4501 62.5 91.6001 62.4 91.7501Z" fill="#FFD100"/>
<path d="M17.9502 95.3502L37.7002 93.5002C38.7002 93.4002 39.6502 93.9002 40.2002 94.7502L50.8502 111.75L41.0502 93.7502C40.5002 92.7002 39.3502 92.1502 38.2002 92.3502L17.9502 95.3502Z" fill="#DA9135"/>
<path d="M62.5 91.4001L38.35 95.3501L27 73.6501C27.4 73.2501 28 73.1001 28.5 73.3001L61.9 89.9501C62.35 90.2501 62.55 90.8501 62.5 91.4001Z" fill="#FFDF4F"/>
<path d="M27.7002 75.05L37.5502 93.8501C38.0502 94.8001 39.0002 95.2501 40.0502 95.1001L60.8502 91.8L39.7002 96.55C38.5002 96.85 37.3502 96.3 36.8502 95.15L27.7002 75.05Z" fill="#DA9135"/>
</g>
<g opacity="0.7">
<path d="M256.6 148.3C256.6 148.3 263.55 137.45 265.35 136.85C267.15 136.2 277.1 142.9 276.7 143.65C276.25 144.45 270.6 144.2 270.6 144.2C270.6 144.2 271.2 146.35 269.65 146.9C268.05 147.45 264.95 146.6 264.95 146.6C264.95 146.6 265.55 147.9 264 148.55C262.45 149.2 258.8 148.4 258.8 148.4L256.6 148.3Z" fill="#E0EDF3"/>
<path d="M222.35 157.25C222.35 157.25 210 153.55 208.25 154.25C206.45 154.95 203.25 166.5 204.05 166.8C204.9 167.1 209.05 163.25 209.05 163.25C209.05 163.25 209.95 165.25 211.55 164.65C213.15 164.05 214.95 161.35 214.95 161.35C214.95 161.35 215.35 162.7 216.95 162.2C218.6 161.7 220.8 158.7 220.8 158.7L222.35 157.25Z" fill="white"/>
<path d="M255.9 143.15C255.9 143.15 264.85 133.85 266.7 133.6C268.6 133.35 277.05 141.8 276.5 142.5C275.9 143.2 270.4 141.85 270.4 141.85C270.4 141.85 270.6 144.05 268.9 144.3C267.2 144.55 264.3 143.1 264.3 143.1C264.3 143.1 264.6 144.45 262.95 144.8C261.25 145.15 257.9 143.65 257.9 143.65L255.9 143.15Z" fill="white"/>
<path d="M255.4 136.95L262 159.6C262.2 160.25 261.8 161 261.15 161.15L225.3 171.6C224.65 171.8 223.9 171.4 223.75 170.75L217.15 148.1C217.1 147.95 217.1 147.8 217.1 147.65C217.15 147.15 217.5 146.7 218 146.55L253.8 136.1C254.3 135.95 254.85 136.15 255.15 136.55C255.25 136.65 255.35 136.8 255.4 136.95Z" fill="#FFD100"/>
<path d="M225.2 169.8L238.45 155.05C239.1 154.3 240.15 154 241.1 154.25L260.45 159.5L241.05 152.95C239.95 152.55 238.7 152.9 238 153.85L225.2 169.8Z" fill="#DA9135"/>
<path d="M255.2 136.7L240.15 156L217.1 147.8C217.1 147.2 217.45 146.7 217.95 146.55L253.75 136.1C254.35 135.95 254.9 136.2 255.2 136.7Z" fill="#FFDF4F"/>
<path d="M218.55 148.3L238.55 155.4C239.55 155.75 240.55 155.45 241.2 154.65L254.2 138.1L241.95 155.9C241.3 156.95 240.05 157.3 238.9 156.8L218.55 148.3Z" fill="#DA9135"/>
</g>
<g opacity="0.45">
<path d="M122.95 184.75C122.95 184.75 132.05 181.95 133.35 182.45C134.65 182.95 137.15 191.45 136.5 191.7C135.9 191.95 132.8 189.1 132.8 189.1C132.8 189.1 132.15 190.6 130.95 190.15C129.8 189.7 128.45 187.75 128.45 187.75C128.45 187.75 128.15 188.75 126.95 188.4C125.75 188.05 124.1 185.85 124.1 185.85L122.95 184.75Z" fill="white"/>
<path d="M99.35 173.5C99.35 173.5 94.15 165.55 92.8 165.1C91.45 164.65 84.15 169.65 84.5 170.2C84.8 170.8 89 170.6 89 170.6C89 170.6 88.55 172.2 89.75 172.6C90.95 173 93.2 172.35 93.2 172.35C93.2 172.35 92.75 173.3 93.95 173.8C95.1 174.3 97.8 173.65 97.8 173.65L99.35 173.5Z" fill="white"/>
<path d="M127.65 177.75L120.6 193.7C120.4 194.15 119.85 194.4 119.35 194.2L94.1498 183.1C93.6998 182.9 93.4498 182.35 93.6498 181.85L100.7 165.9C100.75 165.8 100.8 165.7 100.9 165.6C101.15 165.35 101.6 165.25 101.95 165.4L127.15 176.5C127.5 176.65 127.75 177.05 127.7 177.4C127.75 177.5 127.7 177.65 127.65 177.75Z" fill="#FFD100"/>
<path d="M95 182L109.5 179.95C110.25 179.85 110.95 180.15 111.4 180.75L119.85 192.9L112 180C111.55 179.25 110.7 178.85 109.85 179.05L95 182Z" fill="#DA9135"/>
<path d="M127.7 177.5L110.05 181.25L100.9 165.7C101.2 165.4 101.6 165.25 102 165.4L127.2 176.5C127.55 176.65 127.75 177.05 127.7 177.5Z" fill="#FFDF4F"/>
<path d="M101.5 166.65L109.45 180.15C109.85 180.8 110.55 181.15 111.3 181L126.5 177.85L111.1 182.1C110.2 182.35 109.35 182 108.95 181.15L101.5 166.65Z" fill="#DA9135"/>
</g>
<path d="M81.9497 74.4L137.85 32.95C140.15 31.25 143.25 31.25 145.55 33L200.6 74.45L81.9497 74.4Z" fill="#FFD100"/>
<path d="M198.4 154.15H84.1496C81.8996 154.15 80.0996 152.35 80.0996 150.1V77.8999C80.0996 75.6499 81.8996 73.8499 84.1496 73.8499H198.4C200.65 73.8499 202.45 75.6499 202.45 77.8999V150.05C202.45 152.35 200.6 154.15 198.4 154.15Z" fill="#FFD100"/>
<path d="M196.9 79.2L184.05 89.1499L183.9 89.3L173.45 97.35L165.9 103.2L150.2 115.35L147.2 117.7L145.5 116.7C142.9 115.1 139.6 115.1 136.95 116.75L135.3 117.8L132.65 115.75L116.45 103.25L108.9 97.3999L98.3998 89.35L96.4998 87.85L85.2998 79.25L196.9 79.2Z" fill="white"/>
<path d="M198.1 148.75L147.2 117.65L145.5 116.65C142.9 115.05 139.6 115.05 136.95 116.7L135.3 117.75L85.2998 148.8L132.65 115.7L136.8 112.8C139.7 110.65 143.65 110.65 146.5 112.8L150.15 115.35L198.1 148.75Z" fill="#DA9135"/>
<path d="M196.95 42.8499H85.3496V79.1999H196.95V42.8499Z" fill="white"/>
<path d="M128.45 55.6499H96.4995V75.4499H128.45V55.6499Z" fill="#E0EDF3"/>
<path d="M184.049 69.55H135.399V75.4H184.049V69.55Z" fill="#E0EDF3"/>
<path d="M184.049 55.8H135.399V61.65H184.049V55.8Z" fill="#E0EDF3"/>
<path d="M184.05 83.45V89.1499L183.9 89.25H98.5496L96.5996 87.8V83.45H184.05Z" fill="#E0EDF3"/>
<path d="M173.449 97.3501L165.949 103.15H116.499L108.899 97.3501H173.449Z" fill="#E0EDF3"/>
<path d="M220.6 44.8C220.6 31.65 209.95 21 196.8 21C183.65 21 173 31.65 173 44.8C173 57.95 183.65 68.6 196.8 68.6C209.95 68.55 220.6 57.9 220.6 44.8Z" fill="#D64D8B"/>
<path d="M210.824 36.2757C210.237 34.6965 209.105 34.9221 207.847 35.1928C207.092 35.3733 203.737 36.4111 198.452 42.4119C196.271 44.8934 194.804 46.8786 193.839 48.4127C193.252 47.6456 192.581 46.8335 191.91 46.0665C189.771 43.7654 187.338 42.1411 187.254 42.096C186.248 41.4192 184.948 41.7802 184.319 42.863C183.69 43.9459 184.025 45.3446 185.032 46.0214C185.032 46.0214 187.129 47.42 188.89 49.315C190.693 51.2551 192.371 53.9171 192.371 53.9623C192.79 54.5939 193.461 55 194.133 55C194.258 55 194.384 55 194.51 54.9549C195.349 54.8195 196.02 54.1427 196.229 53.2404C196.229 53.2404 197.068 50.7137 201.556 45.6153C205.163 41.5095 207.595 40.201 208.434 39.8401C208.434 39.8401 208.434 39.8401 208.476 39.8401C208.476 39.8401 208.518 39.8401 208.56 39.795C208.685 39.7498 208.769 39.7047 208.769 39.7047C208.727 39.7047 208.727 39.7047 208.727 39.7047C209.105 39.5243 209.818 39.2084 209.86 39.1633C210.908 38.7121 211.244 37.4488 210.824 36.2757Z" fill="white"/>
</svg>
