<svg width="23" height="29" viewBox="0 0 23 29" fill="none" xmlns="http://www.w3.org/2000/svg">
<path d="M15.7991 13.5922C15.7278 14.0062 15.3451 14.2874 14.9474 14.2132L4.014 12.2058C3.61628 12.1316 3.34614 11.7332 3.41743 11.3192L5.16212 1.00102C5.23341 0.58704 5.61611 0.305847 6.01383 0.38005L16.9472 2.38746C17.345 2.46166 17.6151 2.86002 17.5438 3.27399C17.5438 3.27399 15.7991 13.5922 15.7991 13.5922Z" fill="url(#paint0_linear_1307_4434)"/>
<path fill-rule="evenodd" clip-rule="evenodd" d="M16.7935 3.31258L5.8601 1.30518L4.16418 11.311L15.0976 13.3184C15.0976 13.3184 16.7935 3.31258 16.7935 3.31258Z" fill="url(#paint1_linear_1307_4434)"/>
<path d="M14.6924 13.2449L4.16418 11.3117L4.31051 10.4564L9.52583 6.65245C9.85601 6.41031 10.3175 6.49623 10.5501 6.83991L12.52 9.76901L14.8612 12.1826C15.0938 12.5263 15.0151 12.9988 14.6924 13.2449Z" fill="url(#paint2_linear_1307_4434)"/>
<path d="M15.6829 9.84704L15.0938 13.3151L8.33264 12.0771L14.0095 8.69102C14.3396 8.44889 14.8011 8.53481 15.0338 8.87849C15.03 8.87849 15.6829 9.84704 15.6829 9.84704Z" fill="url(#paint3_linear_1307_4434)"/>
<path fill-rule="evenodd" clip-rule="evenodd" d="M13.473 3.70337C13.9607 3.7932 14.2834 4.27747 14.1971 4.78128C14.1108 5.28899 13.6456 5.62486 13.1616 5.53503C12.6738 5.4452 12.3511 4.96093 12.4374 4.45712C12.52 3.95332 12.9852 3.61354 13.473 3.70337Z" fill="#FFE6A6"/>
<path d="M7.27854 3.03557C7.47365 2.57473 7.95015 2.28182 8.44542 2.37165C8.97821 2.46928 9.34966 2.95356 9.3309 3.50032C9.34966 3.50423 9.36842 3.53157 9.38718 3.53547C9.76989 3.60577 10.0663 3.82838 10.0926 4.33609L6.52063 3.67997C6.60317 3.19179 6.92585 2.9848 7.27854 3.03557Z" fill="white"/>
<path d="M8.76033 20.9931C8.8804 21.4656 9.35315 21.7468 9.80715 21.6218L21.8474 18.2632C22.3014 18.1382 22.5716 17.6461 22.4515 17.1735L20.5154 9.64771C20.3954 9.17515 19.9226 8.89396 19.4686 9.01893L7.42836 12.3776C6.97437 12.5026 6.70422 12.9947 6.82429 13.4672L8.76033 20.9931Z" fill="url(#paint4_linear_1307_4434)"/>
<path d="M12.3998 15.9437C12.73 17.2286 13.9982 17.9902 15.2326 17.6465C16.467 17.3028 17.1986 15.9828 16.8685 14.6979C16.5383 13.413 15.2701 12.6514 14.0357 12.9951C12.8013 13.3388 12.0696 14.6588 12.3998 15.9437Z" fill="#E6F3FB"/>
<path d="M13.7542 14.3072C13.6304 14.2642 13.5591 14.3384 13.5891 14.4673L14.1369 16.5997C14.1707 16.7285 14.2682 16.7559 14.3545 16.6543L15.6377 15.1742C15.724 15.0726 15.694 14.9594 15.5702 14.9164L13.7542 14.3072Z" fill="url(#paint5_linear_1307_4434)"/>
<path d="M8.85408 13.1704C8.88034 13.2719 8.82031 13.3774 8.72276 13.4047L7.96485 13.6156C7.86729 13.643 7.76599 13.5805 7.73972 13.4789L7.65718 13.1548C7.63092 13.0532 7.69095 12.9478 7.7885 12.9205L8.54641 12.7096C8.64396 12.6822 8.74527 12.7447 8.77153 12.8462C8.77153 12.8462 8.85408 13.1704 8.85408 13.1704Z" fill="#E6F3FB"/>
<path d="M11.0379 12.5615C11.0642 12.6631 11.0041 12.7685 10.9066 12.7958L10.1487 13.0067C10.0511 13.0341 9.94983 12.9716 9.92356 12.87L9.84102 12.5459C9.81475 12.4444 9.87479 12.3389 9.97234 12.3116L10.7302 12.1007C10.8278 12.0733 10.9291 12.1358 10.9554 12.2374C10.9554 12.2374 11.0379 12.5615 11.0379 12.5615Z" fill="#E6F3FB"/>
<path d="M13.2216 11.9517C13.2479 12.0532 13.1879 12.1586 13.0903 12.186L12.3324 12.3969C12.2348 12.4242 12.1335 12.3617 12.1073 12.2602L12.0247 11.936C11.9985 11.8345 12.0585 11.729 12.1561 11.7017L12.914 11.4908C13.0115 11.4635 13.1128 11.526 13.1391 11.6275L13.2216 11.9517Z" fill="#E6F3FB"/>
<path d="M15.4051 11.3428C15.4314 11.4443 15.3713 11.5498 15.2738 11.5771L14.5159 11.788C14.4183 11.8153 14.317 11.7528 14.2907 11.6513L14.2082 11.3271C14.1819 11.2256 14.242 11.1202 14.3395 11.0928L15.0974 10.8819C15.195 10.8546 15.2963 10.9171 15.3226 11.0186L15.4051 11.3428Z" fill="#E6F3FB"/>
<path d="M17.5888 10.7329C17.6151 10.8344 17.5551 10.9399 17.4575 10.9672L16.6996 11.1781C16.602 11.2055 16.5007 11.143 16.4745 11.0414L16.3919 10.7173C16.3657 10.6157 16.4257 10.5103 16.5232 10.483L17.2812 10.2721C17.3787 10.2447 17.48 10.3072 17.5063 10.4087L17.5888 10.7329Z" fill="#E6F3FB"/>
<path d="M19.7727 10.124C19.7989 10.2256 19.7389 10.331 19.6413 10.3583L18.8834 10.5692C18.7859 10.5966 18.6846 10.5341 18.6583 10.4325L18.5758 10.1084C18.5495 10.0069 18.6095 9.9014 18.7071 9.87406L19.465 9.66317C19.5625 9.63583 19.6638 9.69832 19.6901 9.79986L19.7727 10.124Z" fill="#E6F3FB"/>
<path d="M10.7188 20.4199C10.7451 20.5215 10.6851 20.6269 10.5875 20.6542L9.82959 20.8651C9.73204 20.8925 9.63073 20.83 9.60447 20.7284L9.52193 20.4043C9.49566 20.3027 9.55569 20.1973 9.65325 20.17L10.4112 19.9591C10.5087 19.9317 10.61 19.9942 10.6363 20.0958C10.6363 20.0958 10.7188 20.4199 10.7188 20.4199Z" fill="#E6F3FB"/>
<path d="M12.9027 19.811C12.9289 19.9126 12.8689 20.018 12.7713 20.0454L12.0134 20.2562C11.9159 20.2836 11.8146 20.2211 11.7883 20.1196L11.7058 19.7954C11.6795 19.6939 11.7395 19.5884 11.8371 19.5611L12.595 19.3502C12.6925 19.3228 12.7939 19.3853 12.8201 19.4869L12.9027 19.811Z" fill="#E6F3FB"/>
<path d="M15.0861 19.2012C15.1124 19.3027 15.0524 19.4082 14.9548 19.4355L14.1969 19.6464C14.0993 19.6737 13.998 19.6112 13.9718 19.5097L13.8892 19.1855C13.863 19.084 13.923 18.9786 14.0206 18.9512L14.7785 18.7403C14.876 18.713 14.9773 18.7755 15.0036 18.877L15.0861 19.2012Z" fill="#E6F3FB"/>
<path d="M17.27 18.5923C17.2962 18.6938 17.2362 18.7993 17.1387 18.8266L16.3807 19.0375C16.2832 19.0648 16.1819 19.0023 16.1556 18.9008L16.0731 18.5767C16.0468 18.4751 16.1068 18.3697 16.2044 18.3423L16.9623 18.1314C17.0599 18.1041 17.1612 18.1666 17.1874 18.2681L17.27 18.5923Z" fill="#E6F3FB"/>
<path d="M19.4536 17.9824C19.4798 18.084 19.4198 18.1894 19.3222 18.2167L18.5643 18.4276C18.4668 18.455 18.3655 18.3925 18.3392 18.2909L18.2567 17.9668C18.2304 17.8652 18.2904 17.7598 18.388 17.7325L19.1459 17.5216C19.2435 17.4942 19.3448 17.5567 19.371 17.6583L19.4536 17.9824Z" fill="#E6F3FB"/>
<path d="M21.6372 17.3735C21.6634 17.4751 21.6034 17.5805 21.5058 17.6079L20.7479 17.8187C20.6504 17.8461 20.5491 17.7836 20.5228 17.6821L20.4403 17.3579C20.414 17.2564 20.474 17.1509 20.5716 17.1236L21.3295 16.9127C21.427 16.8853 21.5284 16.9478 21.5546 17.0494L21.6372 17.3735Z" fill="#E6F3FB"/>
<path d="M6.49041 10.3788L10.325 16.5299C10.5201 16.8384 10.4338 17.2602 10.1336 17.4594L5.30852 20.7205C5.01211 20.9235 4.6069 20.8337 4.41554 20.5213L0.10446 13.6086C-0.0906452 13.3001 -0.00434857 12.8783 0.295814 12.6791L4.38928 9.91406L6.49041 10.3788Z" fill="url(#paint6_linear_1307_4434)"/>
<path fill-rule="evenodd" clip-rule="evenodd" d="M2.41556 14.5347L4.90315 12.8397C4.9932 12.7773 5.01946 12.6523 4.95943 12.5625C4.8994 12.4687 4.77933 12.4414 4.69304 12.5039L2.20544 14.1988C2.11539 14.2613 2.08913 14.3863 2.14916 14.4761C2.20544 14.5699 2.32551 14.5972 2.41556 14.5347Z" fill="url(#paint7_linear_1307_4434)"/>
<path fill-rule="evenodd" clip-rule="evenodd" d="M2.94473 15.3814L5.43233 13.6864C5.52237 13.6239 5.54864 13.499 5.48861 13.4091C5.42857 13.3154 5.30851 13.2881 5.22221 13.3506L2.73462 15.0455C2.64457 15.108 2.6183 15.233 2.67834 15.3267C2.73462 15.4165 2.85468 15.4439 2.94473 15.3814Z" fill="url(#paint8_linear_1307_4434)"/>
<path fill-rule="evenodd" clip-rule="evenodd" d="M6.71934 15.3496L4.06665 17.1891L5.10596 18.8528L7.75865 17.0133L6.71934 15.3496Z" fill="url(#paint9_linear_1307_4434)"/>
<path d="M6.52421 10.4223L5.211 11.3049L4.36304 9.93799L6.52421 10.4223Z" fill="white"/>
<path d="M11.1166 27.3976C11.1166 27.3976 10.4262 26.9133 10.0885 26.6399C8.10371 25.0348 5.93128 23.8397 3.41367 23.457C2.76832 23.3593 2.11547 23.3281 1.45136 23.289C1.18122 23.2734 0.974854 23.0391 0.974854 22.7579V20.6489C7.32704 21.7932 11.1166 27.3976 11.1166 27.3976Z" fill="#7656F9"/>
<path d="M10.8241 28.4713C8.35901 26.8896 5.74385 25.8976 2.84728 25.9171C2.56213 25.9171 2.33325 25.6828 2.33325 25.386V24.144C5.70633 24.5541 8.51284 25.9952 10.8241 28.4713Z" fill="#7656F9"/>
<path d="M11.3643 27.3976C11.3643 27.3976 12.0546 26.9133 12.3923 26.6399C14.3771 25.0348 16.5496 23.8397 19.0672 23.457C19.7125 23.3593 20.3654 23.3281 21.0295 23.289C21.2996 23.2734 21.506 23.0391 21.506 22.7579V20.6489C15.1538 21.7932 11.3643 27.3976 11.3643 27.3976Z" fill="#7656F9"/>
<path d="M11.657 28.4713C14.1221 26.8896 16.7372 25.8976 19.6338 25.9171C19.919 25.9171 20.1478 25.6828 20.1478 25.386V24.144C16.7748 24.5541 13.9682 25.9952 11.657 28.4713Z" fill="#7656F9"/>
<defs>
<linearGradient id="paint0_linear_1307_4434" x1="4.28986" y1="6.16061" x2="16.7001" y2="8.2629" gradientUnits="userSpaceOnUse">
<stop stop-color="#EEFBF4"/>
<stop offset="1" stop-color="#D0D9F2"/>
</linearGradient>
<linearGradient id="paint1_linear_1307_4434" x1="5.01164" y1="6.30827" x2="15.9701" y2="8.16466" gradientUnits="userSpaceOnUse">
<stop stop-color="#D1F0E7"/>
<stop offset="1" stop-color="#A9E9E7"/>
</linearGradient>
<linearGradient id="paint2_linear_1307_4434" x1="4.64593" y1="8.46704" x2="15.4018" y2="10.2891" gradientUnits="userSpaceOnUse">
<stop stop-color="#8EE77F"/>
<stop offset="1" stop-color="#07BCDF"/>
</linearGradient>
<linearGradient id="paint3_linear_1307_4434" x1="8.71411" y1="9.81943" x2="15.4951" y2="10.9681" gradientUnits="userSpaceOnUse">
<stop stop-color="#8EE77F"/>
<stop offset="1" stop-color="#07BCDF"/>
</linearGradient>
<linearGradient id="paint4_linear_1307_4434" x1="7.64857" y1="17.2678" x2="21.5484" y2="13.6899" gradientUnits="userSpaceOnUse">
<stop stop-color="#F7B286"/>
<stop offset="1" stop-color="#F76494"/>
</linearGradient>
<linearGradient id="paint5_linear_1307_4434" x1="15.7376" y1="15.0122" x2="13.7871" y2="15.5143" gradientUnits="userSpaceOnUse">
<stop stop-color="#F76494"/>
<stop offset="1" stop-color="#F7B286"/>
</linearGradient>
<linearGradient id="paint6_linear_1307_4434" x1="2.25704" y1="17.0628" x2="8.30427" y2="13.2925" gradientUnits="userSpaceOnUse">
<stop stop-color="#5EB4FA"/>
<stop offset="1" stop-color="#4677F1"/>
</linearGradient>
<linearGradient id="paint7_linear_1307_4434" x1="2.146" y1="14.4727" x2="5.03222" y2="12.6731" gradientUnits="userSpaceOnUse">
<stop stop-color="white"/>
<stop offset="1" stop-color="#E6F3FB"/>
</linearGradient>
<linearGradient id="paint8_linear_1307_4434" x1="2.67388" y1="15.3182" x2="5.56006" y2="13.5187" gradientUnits="userSpaceOnUse">
<stop stop-color="white"/>
<stop offset="1" stop-color="#E6F3FB"/>
</linearGradient>
<linearGradient id="paint9_linear_1307_4434" x1="4.57911" y1="18.0014" x2="7.31372" y2="16.2964" gradientUnits="userSpaceOnUse">
<stop stop-color="white"/>
<stop offset="1" stop-color="#E6F3FB"/>
</linearGradient>
</defs>
</svg>
