<svg width="28" height="28" viewBox="0 0 28 28" fill="none" xmlns="http://www.w3.org/2000/svg">
<circle cx="14" cy="14" r="14" fill="#1ABDFF"/>
<path d="M20.8132 10.7404L17.4066 7.19449C17.2872 7.07021 17.1268 7 16.9572 7H15.2715H10.1819H7.63574C7.28574 7 7 7.29743 7 7.66174V20.9108C7 21.2751 7.28574 21.5725 7.63574 21.5725H20.3643C20.7143 21.5725 21 21.2751 21 20.9108V11.2081C21 11.0321 20.933 10.8618 20.8132 10.7404ZM10.8181 8.32348H14.633V11.8575H10.8181V8.32348ZM17.1819 17.5983H10.8176V16.2748H17.1819V17.5983ZM10.8181 20.249V18.9255H17.1824V20.249H10.8181ZM19.7285 20.249H18.457V15.6102C18.457 15.2459 18.1713 14.9485 17.8213 14.9485H10.1824C9.83236 14.9485 9.54661 15.2459 9.54661 15.6102V20.2462H8.27194V8.32395H9.54342V12.5197C9.54342 12.884 9.82917 13.1814 10.1792 13.1814H15.2688C15.6188 13.1814 15.9045 12.884 15.9045 12.5197V8.32395H16.6893L19.7226 11.4813V20.249H19.7285Z" fill="white"/>
</svg>
