<svg width="28" height="28" viewBox="0 0 28 28" fill="none" xmlns="http://www.w3.org/2000/svg">
<circle cx="14" cy="14" r="14" fill="#1ABDFF"/>
<path d="M19.2094 10.8711C20.362 10.8711 21.295 9.93759 21.295 8.78553C21.295 7.63347 20.3615 6.69995 19.2094 6.69995C18.0574 6.69995 17.1239 7.63347 17.1239 8.78553C17.1267 8.93138 17.1419 9.07723 17.1756 9.22022L10.3559 12.6317C9.96352 12.1757 9.38916 11.9144 8.78724 11.9144C7.63471 11.9144 6.70166 12.8479 6.70166 14C6.70166 15.152 7.63518 16.0855 8.78724 16.0855C9.38916 16.0884 9.964 15.8242 10.3593 15.3682L17.179 18.7797C17.1457 18.9227 17.1272 19.0685 17.1272 19.2144C17.1272 20.3669 18.0607 21.3 19.2128 21.3C20.3648 21.3 21.2983 20.3664 21.2983 19.2144C21.2983 18.0618 20.3648 17.1288 19.2128 17.1288C18.6108 17.1259 18.036 17.3901 17.6407 17.8462L10.8177 14.4318C10.8875 14.1458 10.8875 13.8479 10.8177 13.5653L17.6374 10.1537C18.0327 10.6098 18.6042 10.8744 19.2094 10.8711ZM19.2094 7.74227C19.7843 7.74227 20.2522 8.21069 20.2522 8.78505C20.2522 9.35942 19.7838 9.82784 19.2094 9.82784C18.8142 9.83069 18.4522 9.60598 18.2792 9.25015C18.0208 8.73612 18.2246 8.11282 18.7382 7.85438C18.884 7.78122 19.0451 7.74179 19.2094 7.74179V7.74227ZM7.74065 13.9995C7.74065 13.4246 8.20907 12.9567 8.78344 12.9567C9.1787 12.9538 9.54071 13.1785 9.71363 13.5344C9.86281 13.8261 9.86281 14.1729 9.71363 14.4679C9.54023 14.8237 9.1787 15.0456 8.78344 15.0427C8.2086 15.0399 7.74065 14.5743 7.74065 14V13.9995ZM18.2788 18.7426C18.455 18.3901 18.8137 18.1678 19.209 18.1678C19.7866 18.1649 20.2579 18.6329 20.2608 19.2106C20.2636 19.7883 19.7957 20.2595 19.218 20.2624C18.6403 20.2652 18.169 19.7973 18.1662 19.2196C18.1633 19.0524 18.2027 18.8885 18.2788 18.7426Z" fill="white"/>
</svg>
