<svg width="38" height="29" viewBox="0 0 38 29" fill="none" xmlns="http://www.w3.org/2000/svg">
<path d="M30.875 7.875C30.5503 7.875 30.2395 7.92718 29.9241 7.97007C28.115 3.72573 23.9031 0.75 19 0.75C14.0958 0.75 9.88735 3.72573 8.07478 7.97007C7.76165 7.92718 7.45086 7.875 7.125 7.875C3.18911 7.875 0 11.0664 0 15C0 18.9359 3.18911 22.125 7.125 22.125C7.88689 22.125 8.60474 21.9673 9.29126 21.7377C10.5565 23.1409 12.2948 24.0825 14.25 24.3701V21.9487C12.4003 21.5637 10.851 20.36 10.0706 18.6924C9.25994 19.3418 8.24641 19.75 7.125 19.75C4.503 19.75 2.375 17.6209 2.375 15C2.375 12.378 4.503 10.25 7.125 10.25C8.06316 10.25 8.92944 10.5306 9.6635 10.998C10.4405 6.53094 14.3092 3.125 19 3.125C23.6943 3.125 27.5259 6.54719 28.2959 11.02C29.0381 10.5376 29.9241 10.25 30.875 10.25C33.4959 10.25 35.625 12.378 35.625 15C35.625 17.6209 33.4959 19.75 30.875 19.75C30.4946 19.75 30.1328 19.6943 29.7756 19.6108C28.7018 21.1277 26.9391 22.125 24.9375 22.125C24.527 22.125 24.135 22.0647 23.75 21.9766V24.3864C24.1373 24.449 24.5316 24.5 24.9375 24.5C27.2081 24.5 29.2607 23.5838 30.7637 22.1087C30.8008 22.1087 30.8333 22.125 30.875 22.125C34.8109 22.125 38 18.9359 38 15C38 11.0664 34.8109 7.875 30.875 7.875Z" fill="#5F6CE1"/>
<path d="M20.3164 12.9277L24.9553 17.569C25.4596 18.0735 25.4596 18.6789 24.9553 19.1834C24.4511 19.6879 23.846 19.6879 23.3418 19.1834L20.6189 16.4591V27.5464C20.6189 28.1518 20.1147 28.6562 19.5096 28.6562C18.9045 28.6562 18.4003 28.1518 18.4003 27.5464V16.4591L15.6774 19.1834C15.1731 19.6879 14.4672 19.6879 14.0638 19.1834C13.6604 18.6789 13.5596 18.0735 14.0638 17.569L18.7028 12.9277C18.9045 12.7259 19.207 12.625 19.5096 12.625C19.8121 12.625 20.0138 12.7259 20.3164 12.9277Z" fill="#5F6CE1"/>
</svg>
