<svg width="62" height="60" viewBox="0 0 62 60" fill="none" xmlns="http://www.w3.org/2000/svg">
<g clip-path="url(#clip0_2896_2233)">
<path d="M13.349 18.8387C10.3968 18.8387 7.95801 16.3871 7.95801 13.4194C7.95801 10.4516 10.3968 8 13.349 8C16.3011 8 18.7399 10.4516 18.7399 13.4194C18.7399 16.3871 16.3011 18.8387 13.349 18.8387ZM13.349 10.9677C12.0654 10.9677 10.9102 12.129 10.9102 13.4194C10.9102 14.7097 11.937 15.871 13.349 15.871C14.6325 15.871 15.7877 14.7097 15.7877 13.4194C15.7877 12.129 14.7609 10.9677 13.349 10.9677Z" fill="url(#paint0_linear_2896_2233)"/>
<path d="M2.05372 38.5805C1.5403 38.5805 1.02688 38.3225 0.64181 37.9354C-0.128325 37.1612 -0.128325 35.8709 0.64181 35.0967L12.7073 22.9676C14.5042 21.1612 17.4564 21.1612 19.3818 22.9676L22.5906 26.1934L32.474 14.1934C33.3725 13.1612 34.6561 12.516 36.068 12.516C37.6083 12.387 38.7635 13.1612 39.662 14.1934L53.011 29.8063C53.7811 30.7096 53.6527 31.8709 52.7542 32.6451C51.8558 33.4193 50.7006 33.2902 49.9304 32.387L36.5814 16.7741C36.4531 16.516 36.1964 16.516 36.068 16.516C35.9396 16.516 35.6829 16.516 35.5546 16.7741L24.2593 30.4515C23.8742 30.8386 23.3608 31.0967 22.8474 31.2257C22.3339 31.2257 21.6922 31.0967 21.3071 30.5805L16.5579 25.8063C16.1729 25.4193 15.9161 25.4193 15.6594 25.8063L3.59399 37.9354C3.08057 38.3225 2.56715 38.5805 2.05372 38.5805Z" fill="url(#paint1_linear_2896_2233)"/>
<path d="M45.823 28C37.0948 28 29.9069 35.2258 29.9069 44C29.9069 52.7742 37.0948 60 45.823 60C54.5512 60 61.7391 52.7742 61.7391 44C61.7391 35.2258 54.6795 28 45.823 28ZM45.823 56.129C39.1485 56.129 33.7575 50.7097 33.7575 44C33.7575 37.2903 39.1485 31.871 45.823 31.871C52.4975 31.871 57.8884 37.2903 57.8884 44C57.8884 50.7097 52.4975 56.129 45.823 56.129Z" fill="url(#paint2_linear_2896_2233)"/>
<path d="M46.7214 36.1288L52.6258 42.0643C53.2676 42.7094 53.2676 43.4836 52.6258 44.1288C51.984 44.774 51.2139 44.774 50.5721 44.1288L47.1065 40.6449V51.8707C47.1065 52.6449 46.4647 53.2901 45.6946 53.2901C44.9245 53.2901 44.2827 52.6449 44.2827 51.8707V40.6449L40.8171 44.1288C40.1753 44.774 39.2768 44.774 38.7634 44.1288C38.25 43.4836 38.1216 42.7094 38.7634 42.0643L44.6678 36.1288C44.9245 35.8707 45.3095 35.7417 45.6946 35.7417C46.0797 35.7417 46.3364 35.8707 46.7214 36.1288Z" fill="url(#paint3_linear_2896_2233)"/>
<path d="M30.9337 38.9677H6.03272C4.87752 38.9677 3.97903 38.0645 3.97903 36.9032V5.93548C3.97903 4.77419 4.87752 3.87097 6.03272 3.87097H47.4916C48.6468 3.87097 49.5453 4.77419 49.5453 5.93548V28.9032C50.9572 29.2903 52.3692 29.8065 53.5244 30.4516V5.93548C53.5244 2.70968 50.8289 0 47.4916 0H6.03272C2.69547 0 0 2.70968 0 6.06452V37.0323C0 40.3871 2.69547 43.0968 6.03272 43.0968H30.0352C30.1636 41.5484 30.4203 40.2581 30.9337 38.9677Z" fill="url(#paint4_linear_2896_2233)"/>
</g>
<defs>
<linearGradient id="paint0_linear_2896_2233" x1="13.349" y1="8" x2="13.349" y2="18.8387" gradientUnits="userSpaceOnUse">
<stop stop-color="#6E42E6"/>
<stop offset="1" stop-color="#E45DC2"/>
</linearGradient>
<linearGradient id="paint1_linear_2896_2233" x1="26.7904" y1="12.502" x2="26.7904" y2="38.5805" gradientUnits="userSpaceOnUse">
<stop stop-color="#6E42E6"/>
<stop offset="1" stop-color="#E45DC2"/>
</linearGradient>
<linearGradient id="paint2_linear_2896_2233" x1="45.823" y1="28" x2="45.823" y2="60" gradientUnits="userSpaceOnUse">
<stop stop-color="#6E42E6"/>
<stop offset="1" stop-color="#E45DC2"/>
</linearGradient>
<linearGradient id="paint3_linear_2896_2233" x1="45.718" y1="35.7417" x2="45.718" y2="53.2901" gradientUnits="userSpaceOnUse">
<stop stop-color="#6E42E6"/>
<stop offset="1" stop-color="#E45DC2"/>
</linearGradient>
<linearGradient id="paint4_linear_2896_2233" x1="26.7622" y1="0" x2="26.7622" y2="43.0968" gradientUnits="userSpaceOnUse">
<stop stop-color="#6E42E6"/>
<stop offset="1" stop-color="#E45DC2"/>
</linearGradient>
<clipPath id="clip0_2896_2233">
<rect width="61.7391" height="60" fill="white"/>
</clipPath>
</defs>
</svg>
