<svg width="29" height="28" viewBox="0 0 29 28" fill="none" xmlns="http://www.w3.org/2000/svg">
<g clip-path="url(#clip0_2567_1726)">
<path d="M6.26243 8.79146C4.87748 8.79146 3.7334 7.64738 3.7334 6.26243C3.7334 4.87748 4.87748 3.7334 6.26243 3.7334C7.64738 3.7334 8.79146 4.87748 8.79146 6.26243C8.79146 7.64738 7.64738 8.79146 6.26243 8.79146ZM6.26243 5.11834C5.66028 5.11834 5.11834 5.66028 5.11834 6.26243C5.11834 6.86458 5.60006 7.40652 6.26243 7.40652C6.86458 7.40652 7.40652 6.86458 7.40652 6.26243C7.40652 5.66028 6.9248 5.11834 6.26243 5.11834Z" fill="#5F6CE1"/>
<path d="M0.963363 18.0042C0.722502 18.0042 0.481642 17.8838 0.300997 17.7032C-0.0602933 17.3419 -0.0602933 16.7397 0.300997 16.3784L5.96121 10.7182C6.80422 9.8752 8.18917 9.8752 9.09239 10.7182L10.5978 12.2236L15.2343 6.62359C15.6558 6.14187 16.258 5.84079 16.9204 5.84079C17.6429 5.78058 18.1849 6.14187 18.6064 6.62359L24.8687 13.9096C25.23 14.3311 25.1698 14.8731 24.7483 15.2343C24.3268 15.5956 23.7849 15.5354 23.4236 15.1139L17.1612 7.82789C17.101 7.70746 16.9806 7.70746 16.9204 7.70746C16.8601 7.70746 16.7397 7.70746 16.6795 7.82789L11.3806 14.2107C11.1999 14.3913 10.9591 14.5118 10.7182 14.572C10.4773 14.572 10.1763 14.5118 9.99562 14.2709L7.76766 12.0429C7.58702 11.8623 7.46659 11.8623 7.34616 12.0429L1.68594 17.7032C1.44508 17.8838 1.20422 18.0042 0.963363 18.0042Z" fill="#5F6CE1"/>
<path d="M21.4967 13.0667C17.4021 13.0667 14.03 16.4387 14.03 20.5333C14.03 24.6279 17.4021 28 21.4967 28C25.5913 28 28.9634 24.6279 28.9634 20.5333C28.9634 16.4387 25.6515 13.0667 21.4967 13.0667ZM21.4967 26.1935C18.3655 26.1935 15.8365 23.6645 15.8365 20.5333C15.8365 17.4021 18.3655 14.8731 21.4967 14.8731C24.6279 14.8731 27.1569 17.4021 27.1569 20.5333C27.1569 23.6645 24.6279 26.1935 21.4967 26.1935Z" fill="#5F6CE1"/>
<path d="M21.9184 16.8603L24.6883 19.6302C24.9894 19.9313 24.9894 20.2926 24.6883 20.5937C24.3872 20.8947 24.0259 20.8947 23.7248 20.5937L22.099 18.9679V24.2066C22.099 24.5679 21.798 24.8689 21.4367 24.8689C21.0754 24.8689 20.7743 24.5679 20.7743 24.2066V18.9679L19.1485 20.5937C18.8474 20.8947 18.4259 20.8947 18.1851 20.5937C17.9442 20.2926 17.884 19.9313 18.1851 19.6302L20.9549 16.8603C21.0754 16.7399 21.256 16.6797 21.4367 16.6797C21.6173 16.6797 21.7377 16.7399 21.9184 16.8603Z" fill="#5F6CE1"/>
<path d="M14.5118 18.1849H2.83011C2.28817 18.1849 1.86667 17.7634 1.86667 17.2215V2.76989C1.86667 2.22796 2.28817 1.80645 2.83011 1.80645H22.2796C22.8215 1.80645 23.243 2.22796 23.243 2.76989V13.4882C23.9054 13.6688 24.5677 13.9097 25.1097 14.2108V2.76989C25.1097 1.26452 23.8452 0 22.2796 0H2.83011C1.26452 0 0 1.26452 0 2.83011V17.2817C0 18.8473 1.26452 20.1118 2.83011 20.1118H14.0903C14.1505 19.3892 14.271 18.7871 14.5118 18.1849Z" fill="#5F6CE1"/>
</g>
<defs>
<clipPath id="clip0_2567_1726">
<rect width="28.9634" height="28" fill="white"/>
</clipPath>
</defs>
</svg>