<svg width="30" height="28" viewBox="0 0 30 28"
    xmlns="http://www.w3.org/2000/svg">
    <path d="M29.7137 10.8735C29.7137 10.4169 29.3712 10.0745 28.9147 10.0745H18.6415L15.5596 0.486275C15.4455 0.257984 15.3313 0.143838 15.103 0.0296927C14.7606 -0.084453 14.1899 0.143838 14.0757 0.486275L10.9938 10.0745H0.834828C0.606537 10.0745 0.378245 10.1887 0.149954 10.4169C-0.0783372 10.7594 -0.0783372 11.216 0.378245 11.4443L8.71088 17.3798L5.5148 26.9681C5.40065 27.1964 5.40065 27.4246 5.62894 27.6529C5.97138 27.9954 6.31382 28.1095 6.65626 27.8812L14.9889 21.8315L23.2074 27.7671C23.4357 27.8812 23.664 27.9954 24.0064 27.8812C24.3488 27.6529 24.5771 27.3105 24.463 26.8539L21.381 17.2657L29.7137 11.3301C29.7137 11.1018 29.8278 10.9877 29.7137 10.8735ZM19.6689 16.0101L19.3264 16.3525C19.2123 16.4667 18.984 16.5808 18.8698 16.5808C18.7557 16.5808 18.5274 16.4667 18.4133 16.3525L15.9021 13.8413V21.0325C15.9021 21.3749 15.5596 21.7174 15.2172 21.7174H14.6465C14.304 21.7174 13.9616 21.3749 13.9616 21.0325V13.8413L11.4504 16.3525C11.3362 16.4667 11.2221 16.5808 10.9938 16.5808C10.7655 16.5808 10.6514 16.4667 10.5372 16.3525L10.1948 16.0101C10.0806 15.8959 9.96648 15.6676 9.96648 15.5535C9.96648 15.3252 10.0806 15.2111 10.1948 15.0969L14.5323 10.7594C14.6465 10.6452 14.8747 10.5311 14.9889 10.5311C15.2172 10.5311 15.3313 10.6452 15.4455 10.7594L19.783 15.0969C19.8972 15.2111 20.0113 15.4394 20.0113 15.5535C19.8972 15.6676 19.783 15.8959 19.6689 16.0101Z" />
</svg>
