<svg width="30" height="28" viewBox="0 0 30 28"
    xmlns="http://www.w3.org/2000/svg">
    <path d="M29.7137 10.8735C29.7137 10.4169 29.3712 10.0745 28.9147 10.0745H18.6415L15.5596 0.486275C15.4455 0.257984 15.3313 0.143838 15.103 0.0296927C14.7606 -0.084453 14.1899 0.143838 14.0757 0.486275L10.9938 10.0745H0.834828C0.606537 10.0745 0.378245 10.1887 0.149954 10.4169C-0.0783372 10.7594 -0.0783372 11.216 0.378245 11.4443L8.71088 17.3798L5.5148 26.9681C5.40065 27.1964 5.40065 27.4246 5.62894 27.6529C5.97138 27.9954 6.31382 28.1095 6.65626 27.8812L14.9889 21.8315L23.2074 27.7671C23.4357 27.8812 23.664 27.9954 24.0064 27.8812C24.3488 27.6529 24.5771 27.3105 24.463 26.8539L21.381 17.2657L29.7137 11.3301C29.7137 11.1018 29.8278 10.9877 29.7137 10.8735ZM20.4679 16.3525C20.4679 16.695 20.1254 17.0374 19.783 17.0374H12.5918L15.103 19.5486C15.2172 19.6627 15.3313 19.891 15.3313 20.0052C15.3313 20.1193 15.2172 20.3476 15.103 20.4618L14.7606 20.8042C14.6465 20.9183 14.4182 21.0325 14.304 21.0325C14.0757 21.0325 13.9616 20.9183 13.8474 20.8042L9.5099 16.4667C9.39575 16.3525 9.28161 16.1242 9.28161 16.0101C9.28161 15.7818 9.39575 15.6676 9.5099 15.5535L13.8474 11.216C13.9616 11.1018 14.1899 10.9877 14.304 10.9877C14.5323 10.9877 14.6465 11.1018 14.7606 11.216L15.103 11.5584C15.2172 11.6725 15.3313 11.9008 15.3313 12.015C15.3313 12.1291 15.2172 12.3574 15.103 12.4716L12.5918 15.0969H19.783C20.1254 15.0969 20.4679 15.4394 20.4679 15.7818V16.3525Z" />
</svg>
