<svg width="30" height="28" viewBox="0 0 30 28"
    xmlns="http://www.w3.org/2000/svg">
    <path d="M29.7137 10.8735C29.7137 10.4169 29.3712 10.0745 28.9147 10.0745H18.6415L15.5596 0.486275C15.4455 0.257984 15.3313 0.143838 15.103 0.0296927C14.7606 -0.084453 14.1899 0.143838 14.0757 0.486275L10.9938 10.0745H0.834828C0.606537 10.0745 0.378245 10.1887 0.149954 10.4169C-0.0783372 10.7594 -0.0783372 11.216 0.378245 11.4443L8.71088 17.3798L5.5148 26.9681C5.40065 27.1964 5.40065 27.4246 5.62894 27.6529C5.97138 27.9954 6.31382 28.1095 6.65626 27.8812L14.9889 21.8315L23.2074 27.7671C23.4357 27.8812 23.664 27.9954 24.0064 27.8812C24.3488 27.6529 24.5771 27.3105 24.463 26.8539L21.381 17.2657L29.7137 11.3301C29.7137 11.1018 29.8278 10.9877 29.7137 10.8735ZM20.2396 16.5808L15.9021 20.9183C15.7879 21.0325 15.5596 21.1466 15.4455 21.1466C15.2172 21.1466 15.103 21.0325 14.9889 20.9183L14.5323 20.4618C14.4182 20.3476 14.304 20.1193 14.304 20.0052C14.304 19.891 14.4182 19.6627 14.5323 19.5486L17.1577 17.0374H9.96648C9.62404 17.0374 9.28161 16.695 9.28161 16.3525V15.7818C9.28161 15.4394 9.62404 15.0969 9.96648 15.0969H17.1577L14.6465 12.5857C14.5323 12.4716 14.4182 12.3574 14.4182 12.1291C14.4182 11.9008 14.5323 11.7867 14.6465 11.6725L14.9889 11.3301C15.103 11.216 15.3313 11.1018 15.4455 11.1018C15.6738 11.1018 15.7879 11.216 15.9021 11.3301L20.2396 15.6676C20.3537 15.7818 20.4679 16.0101 20.4679 16.1242C20.4679 16.2384 20.3537 16.4667 20.2396 16.5808Z" />
</svg>
