<svg width="30" height="28" viewBox="0 0 30 28"
    xmlns="http://www.w3.org/2000/svg">
    <path d="M29.7137 10.8735C29.7137 10.4169 29.3712 10.0745 28.9147 10.0745H18.6415L15.5596 0.486275C15.4455 0.257984 15.3313 0.143838 15.103 0.0296927C14.7606 -0.084453 14.1899 0.143838 14.0757 0.486275L10.9938 10.0745H0.834828C0.606537 10.0745 0.378245 10.1887 0.149954 10.4169C-0.0783372 10.7594 -0.0783372 11.216 0.378245 11.4443L8.71088 17.3798L5.5148 26.9681C5.40065 27.1964 5.40065 27.4246 5.62894 27.6529C5.97138 27.9954 6.31382 28.1095 6.65626 27.8812L14.9889 21.8315L23.2074 27.7671C23.4357 27.8812 23.664 27.9954 24.0064 27.8812C24.3488 27.6529 24.5771 27.3105 24.463 26.8539L21.381 17.2657L29.7137 11.3301C29.7137 11.1018 29.8278 10.9877 29.7137 10.8735ZM18.8698 13.2706L13.7333 18.293H17.3859C17.6142 18.293 17.7284 18.4071 17.8425 18.5213C17.9567 18.6354 18.0708 18.8637 18.0708 18.9779V19.5486C18.0708 19.7769 17.9567 19.891 17.8425 20.0052C17.7284 20.1193 17.5001 20.2335 17.3859 20.2335H11.2221C10.9938 20.2335 10.8796 20.1193 10.7655 20.0052C10.6514 19.891 10.5372 19.6627 10.5372 19.5486V13.3847C10.5372 13.1564 10.6514 13.0423 10.7655 12.9282C10.8796 12.814 11.1079 12.6999 11.2221 12.6999H11.7928C12.0211 12.6999 12.1352 12.814 12.2494 12.9282C12.3635 13.0423 12.4777 13.2706 12.4777 13.3847V16.9232L17.5001 11.9008C17.7284 11.6725 18.185 11.6725 18.4133 11.9008L18.7557 12.2433C19.0981 12.5857 19.0981 13.0423 18.8698 13.2706Z" />
</svg>
