<svg width="30" height="28" viewBox="0 0 30 28"
    xmlns="http://www.w3.org/2000/svg">
    <path d="M29.7137 10.8735C29.7137 10.4169 29.3712 10.0745 28.9147 10.0745H18.6415L15.5596 0.486275C15.4455 0.257984 15.3313 0.143838 15.103 0.0296927C14.7606 -0.084453 14.1899 0.143838 14.0757 0.486275L10.9938 10.0745H0.834828C0.606537 10.0745 0.378245 10.1887 0.149954 10.4169C-0.0783372 10.7594 -0.0783372 11.216 0.378245 11.4443L8.71088 17.3798L5.5148 26.9681C5.40065 27.1964 5.40065 27.4246 5.62894 27.6529C5.97138 27.9954 6.31382 28.1095 6.65626 27.8812L14.9889 21.8315L23.2074 27.7671C23.4357 27.8812 23.664 27.9954 24.0064 27.8812C24.3488 27.6529 24.5771 27.3105 24.463 26.8539L21.381 17.2657L29.7137 11.3301C29.7137 11.1018 29.8278 10.9877 29.7137 10.8735ZM19.6689 17.1515L15.3313 21.4891C15.2172 21.6032 15.103 21.6032 14.8747 21.6032C14.6465 21.6032 14.5323 21.4891 14.4182 21.3749L10.0806 17.0374C9.96648 16.9232 9.85233 16.695 9.85233 16.5808C9.85233 16.3525 9.96648 16.2384 10.0806 16.1242L10.4231 15.7818C10.5372 15.6676 10.7655 15.5535 10.8796 15.5535C11.1079 15.5535 11.2221 15.6676 11.3362 15.7818L13.8474 18.293V11.216C13.8474 10.8735 14.1899 10.5311 14.5323 10.5311H15.103C15.4455 10.5311 15.7879 10.8735 15.7879 11.216V18.4071L18.2991 15.8959C18.4133 15.7818 18.6415 15.6676 18.7557 15.6676C18.984 15.6676 19.0981 15.7818 19.2123 15.8959L19.5547 16.2384C19.6689 16.3525 19.783 16.5808 19.783 16.695C19.8972 16.8091 19.783 16.9232 19.6689 17.1515Z" />
</svg>
