<svg width="30" height="28" viewBox="0 0 30 28"
    xmlns="http://www.w3.org/2000/svg">
    <path d="M29.7137 10.8735C29.7137 10.4169 29.3712 10.0745 28.9147 10.0745H18.6415L15.5596 0.486275C15.4455 0.257984 15.3313 0.143838 15.103 0.0296927C14.7606 -0.084453 14.1899 0.143838 14.0757 0.486275L10.9938 10.0745H0.834828C0.606537 10.0745 0.378245 10.1887 0.149954 10.4169C-0.0783372 10.7594 -0.0783372 11.216 0.378245 11.4443L8.71088 17.3798L5.5148 26.9681C5.40065 27.1964 5.40065 27.4246 5.62894 27.6529C5.97138 27.9954 6.31382 28.1095 6.65626 27.8812L14.9889 21.8315L23.2074 27.7671C23.4357 27.8812 23.664 27.9954 24.0064 27.8812C24.3488 27.6529 24.5771 27.3105 24.463 26.8539L21.381 17.2657L29.7137 11.3301C29.7137 11.1018 29.8278 10.9877 29.7137 10.8735ZM18.7557 20.0052C18.6415 20.1193 18.4133 20.2335 18.2991 20.2335H12.1352C11.907 20.2335 11.7928 20.1193 11.6787 20.0052C11.5645 19.891 11.4504 19.6627 11.4504 19.5486V18.9779C11.4504 18.7496 11.5645 18.6354 11.6787 18.5213C11.7928 18.4071 11.907 18.293 12.1352 18.293H15.7879L10.7655 13.2706C10.5372 13.0423 10.5372 12.5857 10.7655 12.3574L11.1079 12.015C11.3362 11.7867 11.7928 11.7867 12.0211 12.015L17.1577 17.0374V13.4989C17.1577 13.2706 17.2718 13.1564 17.3859 13.0423C17.5001 12.9282 17.7284 12.814 17.8425 12.814H18.4133C18.6415 12.814 18.7557 12.9282 18.8698 13.0423C18.984 13.1564 19.0981 13.3847 19.0981 13.4989V19.6627C18.984 19.7769 18.984 19.891 18.7557 20.0052Z" />
</svg>
