<svg width="30" height="28" viewBox="0 0 30 28"
    xmlns="http://www.w3.org/2000/svg">
    <path d="M29.7137 10.8735C29.7137 10.4169 29.3712 10.0745 28.9147 10.0745H18.6415L15.5596 0.486275C15.4455 0.257984 15.3313 0.143838 15.103 0.0296927C14.7606 -0.084453 14.1899 0.143838 14.0757 0.486275L10.9938 10.0745H0.834828C0.606537 10.0745 0.378245 10.1887 0.149954 10.4169C-0.0783372 10.7594 -0.0783372 11.216 0.378245 11.4443L8.71088 17.3798L5.5148 26.9681C5.40065 27.1964 5.40065 27.4246 5.62894 27.6529C5.97138 27.9954 6.31382 28.1095 6.65626 27.8812L14.9889 21.8315L23.2074 27.7671C23.4357 27.8812 23.664 27.9954 24.0064 27.8812C24.3488 27.6529 24.5771 27.3105 24.463 26.8539L21.381 17.2657L29.7137 11.3301C29.7137 11.1018 29.8278 10.9877 29.7137 10.8735ZM18.984 18.5213C18.984 18.7496 18.8698 18.8637 18.7557 18.9779C18.6415 19.092 18.4133 19.2062 18.2991 19.2062H17.7284C17.5001 19.2062 17.3859 19.092 17.2718 18.9779C17.1577 18.8637 17.1577 18.7496 17.1577 18.5213V14.9828L12.1352 20.0052C11.907 20.2335 11.4504 20.2335 11.2221 20.0052L10.8796 19.6627C10.6514 19.4345 10.6514 18.9779 10.8796 18.7496L15.9021 13.7272H12.2494C12.0211 13.7272 11.907 13.613 11.7928 13.4989C11.6787 13.3847 11.5645 13.1564 11.5645 13.0423V12.4716C11.5645 12.2433 11.6787 12.1291 11.7928 12.015C11.907 11.9008 12.1352 11.7867 12.2494 11.7867H18.2991C18.5274 11.7867 18.6415 11.9008 18.7557 12.015C18.8698 12.1291 18.984 12.3574 18.984 12.4716V18.5213Z" />
</svg>
