<svg width="30" height="28" viewBox="0 0 30 28"
    xmlns="http://www.w3.org/2000/svg">
    <path d="M29.7137 10.8735C29.7137 10.4169 29.3712 10.0745 28.9147 10.0745H18.6415L15.5596 0.486275C15.4455 0.257984 15.3313 0.143838 15.103 0.0296927C14.7606 -0.084453 14.1899 0.143838 14.0757 0.486275L10.9938 10.0745H0.834828C0.606537 10.0745 0.378245 10.1887 0.149954 10.4169C-0.0783372 10.7594 -0.0783372 11.216 0.378245 11.4443L8.71088 17.3798L5.5148 26.9681C5.40065 27.1964 5.40065 27.4246 5.62894 27.6529C5.97138 27.9954 6.31382 28.1095 6.65626 27.8812L14.9889 21.8315L23.2074 27.7671C23.4357 27.8812 23.664 27.9954 24.0064 27.8812C24.3488 27.6529 24.5771 27.3105 24.463 26.8539L21.381 17.2657L29.7137 11.3301C29.7137 11.1018 29.8278 10.9877 29.7137 10.8735ZM18.7557 19.6627L18.4133 20.0052C18.185 20.2335 17.7284 20.2335 17.5001 20.0052L12.4777 14.9828V18.5213C12.4777 18.7496 12.3635 18.8637 12.2494 18.9779C12.1352 19.092 11.907 19.2062 11.7928 19.2062H11.2221C10.9938 19.2062 10.8796 19.092 10.7655 18.9779C10.6514 18.8637 10.5372 18.6354 10.5372 18.5213V12.3574C10.5372 12.1291 10.6514 12.015 10.7655 11.9008C10.8796 11.7867 11.1079 11.6725 11.2221 11.6725H17.3859C17.6142 11.6725 17.7284 11.7867 17.8425 11.9008C17.9567 12.015 18.0708 12.2433 18.0708 12.3574V12.9282C18.0708 13.1564 17.9567 13.2706 17.8425 13.3847C17.7284 13.613 17.5001 13.613 17.3859 13.613H13.7333L18.7557 18.6354C19.0981 18.9779 19.0981 19.3203 18.7557 19.6627Z" />
</svg>
