<svg xmlns="http://www.w3.org/2000/svg" width="24" height="18" viewBox="0 0 24 18" fill="none">
<path d="M17.1053 13.3026C17.2636 13.4079 17.4219 13.4609 17.5279 13.4609C17.7922 13.4609 18.0034 13.3556 18.1617 13.1444C19.0068 11.9297 19.4817 10.5044 19.4817 9.02548C19.4817 7.54651 19.0061 6.12127 18.1617 4.90658C17.8974 4.53702 17.4226 4.48402 17.1053 4.6953C16.7358 4.95959 16.6828 5.43442 16.894 5.75171C17.5802 6.70211 17.8974 7.81079 17.8974 8.97247C17.8974 10.1342 17.5279 11.2428 16.894 12.1932C16.6828 12.5628 16.7358 13.0384 17.1053 13.3019V13.3026Z" fill="#4D4F60" stroke="#4D4F60" stroke-width="0.2"/>
<path d="M19.9565 15.892C20.1148 15.9973 20.2731 16.0503 20.3791 16.0503C20.6434 16.0503 20.8546 15.945 21.0129 15.7337C22.3859 13.7799 23.125 11.4566 23.125 9.02793C23.125 6.59928 22.3859 4.27592 21.0129 2.32211C20.7486 1.95255 20.2738 1.89955 19.9565 2.11083C19.587 2.37511 19.5339 2.84995 19.7452 3.16724C20.9599 4.85676 21.593 6.86356 21.593 8.97565C21.593 11.0877 20.9592 13.0945 19.7452 14.7841C19.5339 15.1536 19.64 15.6285 19.9565 15.892Z" fill="#4D4F60" stroke="#4D4F60" stroke-width="0.2"/>
<path d="M3.37637 4.27377C2.05641 4.27377 1 5.33017 1 6.65013V11.3499C1 12.6698 2.05641 13.7262 3.37637 13.7262H8.18138L12.3525 16.7357L12.4055 16.7887C12.6168 16.894 12.8811 17 13.1447 17C13.5142 17 13.8838 16.8417 14.2011 16.5774C14.5184 16.3132 14.6766 15.8913 14.6766 15.521V2.47824C14.6766 1.63312 13.9905 1 13.1984 1C12.9341 1 12.6706 1.053 12.4593 1.21128C12.4593 1.21128 12.4063 1.21128 12.4063 1.26428L8.02382 4.27377H3.37637ZM8.65694 5.64673L13.0924 2.58424V15.3098L8.86822 12.2473C8.70994 12.1943 8.55166 12.142 8.39266 12.142H3.37637C2.9008 12.142 2.53124 11.7724 2.53124 11.2969V6.59713C2.53124 6.12157 2.9008 5.75201 3.37637 5.75201H8.23438C8.39266 5.80501 8.55094 5.75201 8.65694 5.64673Z" fill="#4D4F60" stroke="#4D4F60" stroke-width="0.2"/>
</svg>