<svg width="18" height="18" viewBox="0 0 18 18"
    xmlns="http://www.w3.org/2000/svg">
    <path d="M17.625 4.5C17.625 4.30109 17.546 4.11032 17.4053 3.96967C17.2647 3.82902 17.0739 3.75 16.875 3.75H9C8.80109 3.75 8.61032 3.82902 8.46967 3.96967C8.32902 4.11032 8.25 4.30109 8.25 4.5C8.25 4.69891 8.32902 4.88968 8.46967 5.03033C8.61032 5.17098 8.80109 5.25 9 5.25H16.875C17.0739 5.25 17.2647 5.17098 17.4053 5.03033C17.546 4.88968 17.625 4.69891 17.625 4.5Z" />
    <path d="M1.125 5.25001H3.13125C3.30817 5.75042 3.6563 6.17217 4.11411 6.44073C4.57192 6.70929 5.10993 6.80736 5.63305 6.7176C6.15617 6.62785 6.63072 6.35605 6.97283 5.95025C7.31494 5.54445 7.50257 5.03077 7.50257 4.5C7.50257 3.96924 7.31494 3.45556 6.97283 3.04976C6.63072 2.64396 6.15617 2.37216 5.63305 2.28241C5.10993 2.19265 4.57192 2.29072 4.11411 2.55928C3.6563 2.82784 3.30817 3.24959 3.13125 3.75H1.125C0.926088 3.75 0.735322 3.82902 0.59467 3.96967C0.454018 4.11033 0.375 4.30109 0.375 4.5C0.375 4.69892 0.454018 4.88968 0.59467 5.03033C0.735322 5.17099 0.926088 5.25001 1.125 5.25001ZM5.25 3.75C5.39834 3.75 5.54334 3.79399 5.66668 3.8764C5.79001 3.95881 5.88614 4.07595 5.94291 4.21299C5.99968 4.35004 6.01453 4.50084 5.98559 4.64632C5.95665 4.79181 5.88522 4.92545 5.78033 5.03033C5.67544 5.13522 5.5418 5.20666 5.39632 5.23559C5.25083 5.26453 5.10003 5.24968 4.96299 5.19291C4.82594 5.13615 4.70881 5.04002 4.6264 4.91668C4.54399 4.79335 4.5 4.64834 4.5 4.5C4.5 4.30109 4.57902 4.11033 4.71967 3.96967C4.86032 3.82902 5.05109 3.75 5.25 3.75Z" />
    <path d="M16.875 8.25H14.1188C13.9418 7.74959 13.5937 7.32784 13.1359 7.05928C12.6781 6.79072 12.1401 6.69265 11.617 6.78241C11.0938 6.87216 10.6193 7.14396 10.2772 7.54976C9.93507 7.95556 9.74744 8.46924 9.74744 9C9.74744 9.53077 9.93507 10.0444 10.2772 10.4502C10.6193 10.8561 11.0938 11.1278 11.617 11.2176C12.1401 11.3074 12.6781 11.2093 13.1359 10.9407C13.5937 10.6722 13.9418 10.2504 14.1188 9.75001H16.875C17.0739 9.75001 17.2647 9.67099 17.4053 9.53033C17.546 9.38968 17.625 9.19892 17.625 9C17.625 8.80109 17.546 8.61033 17.4053 8.46967C17.2647 8.32902 17.0739 8.25 16.875 8.25ZM12 9.75001C11.8517 9.75001 11.7067 9.70602 11.5833 9.62361C11.46 9.5412 11.3639 9.42406 11.3071 9.28702C11.2503 9.14997 11.2355 8.99917 11.2644 8.85369C11.2934 8.7082 11.3648 8.57456 11.4697 8.46967C11.5746 8.36479 11.7082 8.29335 11.8537 8.26442C11.9992 8.23548 12.15 8.25033 12.287 8.3071C12.4241 8.36386 12.5412 8.45999 12.6236 8.58333C12.706 8.70666 12.75 8.85167 12.75 9C12.75 9.19892 12.671 9.38968 12.5303 9.53033C12.3897 9.67099 12.1989 9.75001 12 9.75001Z" />
    <path d="M8.25 8.25H1.125C0.926088 8.25 0.735322 8.32902 0.59467 8.46967C0.454018 8.61032 0.375 8.80109 0.375 9C0.375 9.19891 0.454018 9.38968 0.59467 9.53033C0.735322 9.67098 0.926088 9.75 1.125 9.75H8.25C8.44891 9.75 8.63968 9.67098 8.78033 9.53033C8.92098 9.38968 9 9.19891 9 9C9 8.80109 8.92098 8.61032 8.78033 8.46967C8.63968 8.32902 8.44891 8.25 8.25 8.25Z" />
    <path d="M16.875 12.75H10.5C10.3011 12.75 10.1103 12.829 9.96967 12.9697C9.82902 13.1103 9.75 13.3011 9.75 13.5C9.75 13.6989 9.82902 13.8897 9.96967 14.0303C10.1103 14.171 10.3011 14.25 10.5 14.25H16.875C17.0739 14.25 17.2647 14.171 17.4053 14.0303C17.546 13.8897 17.625 13.6989 17.625 13.5C17.625 13.3011 17.546 13.1103 17.4053 12.9697C17.2647 12.829 17.0739 12.75 16.875 12.75Z" />
    <path d="M6.75 11.25C6.28515 11.2505 5.83188 11.395 5.45248 11.6636C5.07309 11.9322 4.7862 12.3117 4.63125 12.75H1.125C0.926088 12.75 0.735322 12.829 0.59467 12.9697C0.454018 13.1103 0.375 13.3011 0.375 13.5C0.375 13.6989 0.454018 13.8897 0.59467 14.0303C0.735322 14.171 0.926088 14.25 1.125 14.25H4.63125C4.76879 14.639 5.01064 14.9827 5.33037 15.2435C5.65009 15.5043 6.03538 15.6722 6.44409 15.7288C6.8528 15.7853 7.2692 15.7284 7.64774 15.5643C8.02629 15.4001 8.3524 15.135 8.59043 14.798C8.82845 14.461 8.96922 14.065 8.99734 13.6533C9.02546 13.2417 8.93984 12.8302 8.74985 12.464C8.55986 12.0977 8.27282 11.7907 7.92011 11.5766C7.5674 11.3625 7.16261 11.2495 6.75 11.25ZM6.75 14.25C6.60166 14.25 6.45666 14.206 6.33332 14.1236C6.20999 14.0412 6.11386 13.9241 6.05709 13.787C6.00033 13.65 5.98547 13.4992 6.01441 13.3537C6.04335 13.2082 6.11478 13.0746 6.21967 12.9697C6.32456 12.8648 6.4582 12.7934 6.60368 12.7644C6.74917 12.7355 6.89997 12.7503 7.03701 12.8071C7.17406 12.8639 7.29119 12.96 7.3736 13.0833C7.45601 13.2067 7.5 13.3517 7.5 13.5C7.5 13.6989 7.42098 13.8897 7.28033 14.0303C7.13968 14.171 6.94891 14.25 6.75 14.25Z" />
</svg>
