<svg width="26" height="26" viewBox="0 0 26 26"
    xmlns="http://www.w3.org/2000/svg">
    <path d="M23.9306 11.4555H14.5446V2.06458C14.5446 1.21146 13.8531 0.52002 13 0.52002C12.1469 0.52002 11.4555 1.21146 11.4555 2.06458V11.4506H2.06458C1.21146 11.4555 0.52002 12.1477 0.52002 13C0.52002 13.8523 1.21146 14.5446 2.06458 14.5446H11.4506V23.9306C11.4506 24.7837 12.142 25.4751 12.9951 25.4751C13.8483 25.4751 14.5397 24.7837 14.5397 23.9306V14.5446H23.9257C24.7788 14.5446 25.4703 13.8531 25.4703 13C25.4808 12.1469 24.7894 11.4555 23.9314 11.4555H23.9306Z"/>
</svg>
